<svg width="20" height="18" viewBox="0 0 20 18" fill="none" xmlns="http://www.w3.org/2000/svg">
<path d="M5.8185 5H4.54037C3.18179 5 2.50306 5 2.01985 5.26514C1.59581 5.49781 1.26986 5.86535 1.09965 6.30371C0.905812 6.80294 1.01739 7.44333 1.24046 8.72367L1.24093 8.72607L2.2166 14.3261C2.38212 15.276 2.46542 15.7512 2.7132 16.1077C2.93162 16.4219 3.23822 16.6703 3.59811 16.8247C4.00639 16.9999 4.50956 17 5.51633 17H14.4839C15.4907 17 15.9935 16.9999 16.4018 16.8247C16.7617 16.6703 17.0685 16.4219 17.2869 16.1077C17.5347 15.7512 17.6176 15.276 17.7831 14.3261L18.7588 8.72607L18.7597 8.72217C18.9826 7.44283 19.0941 6.80274 18.9004 6.30371C18.7302 5.86535 18.405 5.49781 17.981 5.26514C17.4977 5 16.8179 5 15.4593 5H14.1815M5.8185 5H14.1815M5.8185 5C5.8185 2.79086 7.69062 1 9.99998 1C12.3094 1 14.1815 2.79086 14.1815 5" stroke="#F4F4F4" stroke-linecap="round" stroke-linejoin="round"/>
</svg>
