<svg width="361" height="66" viewBox="0 0 361 66" fill="none" xmlns="http://www.w3.org/2000/svg">
<g clip-path="url(#clip0_15_833)">
<path d="M245.323 84.4214C245.22 84.6285 245.222 84.8479 245.453 84.9618C245.777 85.1224 245.765 84.6761 245.931 84.4928C246.056 84.3554 246.667 85.8042 246.755 86.0026C246.935 86.409 248.034 86.7141 248.382 86.8863C248.856 87.1205 249.414 87.6722 249.62 86.9513C249.746 86.5137 249.056 85.6701 248.642 85.5943C248.027 85.4819 249.434 86.5617 249.829 87.0458C250.46 87.8181 251.723 88.2198 252.592 88.6492C253.047 88.8742 255.483 88.5732 254.943 87.9241C254.533 87.4308 253.755 87.0016 253.177 86.7157C253.039 86.6478 253.391 86.9477 253.44 87.0929C253.534 87.3688 253.487 87.4705 253.743 87.6396C254.131 87.8959 254.323 88.4256 254.703 88.7315C254.957 88.9361 255.369 89.2281 255.657 89.3707C256.055 89.5675 255.619 89.1805 255.755 89.0308C255.882 88.8909 256.701 88.9723 256.886 88.9549C257.348 88.9112 257.825 89.0734 258.272 89.0051C258.85 88.9167 259.488 88.8283 260.068 88.9403C260.728 89.0676 261.355 88.8527 261.951 89.1473C262.385 89.3619 263.265 89.2018 263.783 89.2592C263.868 89.2685 264.468 89.004 264.591 88.9443C265.055 88.7199 265.048 88.9502 264.727 88.5264C264.146 87.7592 263.323 86.5085 262.228 87.141C261.355 87.6451 259.985 87.6457 258.963 87.6086C257.291 87.5481 255.582 87.4218 253.935 87.0906C253.443 86.9916 252.703 87.1168 253.484 87.5029C253.992 87.754 254.5 88.0051 255.009 88.2562C256.784 89.1337 258.549 89.0118 260.398 89.112C260.636 89.1249 260.868 89.323 261.103 89.275C261.359 89.2224 261.558 89.1592 261.82 89.2505C262.107 89.3502 262.785 89.6562 263.07 89.6125C263.673 89.5204 264.413 89.8568 264.973 89.6179C265.229 89.5086 265.61 89.3304 265.884 89.2743C266.526 89.1428 267.463 89.6099 268.033 89.2255C268.295 89.0491 268.788 89.1858 269.114 88.966C269.514 88.6971 269.842 89.047 270.235 88.9467C270.895 88.7786 271.425 88.4247 271.986 88.1536C272.713 87.8017 273.109 87.2978 273.987 87.4584C274.264 87.5089 274.855 87.2452 275.15 87.1772C275.379 87.1244 275.921 87.1747 276.072 87.0775C276.558 86.7652 277.64 86.5173 278.174 86.6789C278.258 86.7041 279.005 86.4588 279.096 86.4201C279.657 86.1809 280.476 86.3008 281.1 86.2199C281.576 86.1582 281.982 85.9906 282.443 85.9308C282.66 85.9026 282.73 85.6918 282.919 85.6281C283.109 85.5636 283.299 85.7024 283.484 85.5724C284.135 85.1153 285.253 85.3036 285.863 84.6315C286.379 84.0641 287.279 83.9078 287.838 83.3671C288.154 83.0611 288.467 83.1421 288.887 83.0122C289.286 82.8884 289.517 82.5865 289.895 82.417C290.194 82.2833 290.526 82.2796 290.817 82.1405C291.691 81.7226 292.661 81.2733 293.619 80.9854C294.435 80.7403 295.345 80.4277 296.115 80.0934C296.393 79.9728 296.955 79.7304 297.249 79.7629C297.612 79.8031 298.59 79.6894 298.928 79.543C299.222 79.4154 299.346 79.1426 299.668 79.0446C300.004 78.9422 300.329 78.8436 300.667 78.7535C301.071 78.6464 301.522 78.5347 301.918 78.5073C302.527 78.4652 304.555 78.3592 302.785 78.6625C302.239 78.7561 301.493 78.503 301.043 78.9569C300.516 79.4885 298.348 80.2579 299.011 79.9104C300.209 79.282 301.108 78.5481 302.554 78.3453C303.202 78.2544 304.275 78.0808 304.933 78.1717C305.837 78.2966 306.742 78.01 307.63 77.979C308.639 77.9438 309.797 77.5325 310.787 77.7134C311.458 77.8362 312.064 77.8773 312.765 77.9059C313.658 77.9424 314.182 78.1302 314.995 78.5322C315.593 78.8275 316.33 78.7158 316.978 79.0359C317.956 79.5194 318.934 80.0029 319.913 80.4864C321.809 81.4239 324.074 82.2369 325.698 83.593C326.068 83.9022 326.958 84.2412 327.09 84.7571C327.208 85.2205 327.731 85.7408 327.994 86.1392C328.458 86.8419 328.811 87.5178 329.361 88.1557C329.749 88.6049 330.931 90.1462 330.7 90.9078C330.607 91.2146 330.464 91.5083 330.143 91.2498C329.893 91.0489 329.987 90.7052 329.705 90.5658C329.692 90.5594 330.061 91.218 330.097 91.3243C330.362 92.1067 330.271 92.9864 330.31 93.8022C330.325 94.1073 330.067 94.4549 329.936 94.7198C329.777 95.0418 329.948 95.4565 329.884 95.8057C329.827 96.1183 330.045 96.5689 329.95 96.9582C329.867 97.2942 329.846 97.643 329.763 97.9775C329.567 98.7771 329.387 99.3643 329.003 100.142C328.669 100.817 329.026 101.725 328.56 102.304C328.336 102.583 327.955 102.75 327.682 102.973C327.396 103.207 327.273 103.641 327.11 103.969C326.742 104.715 325.859 105.216 325.468 106.007C325.08 106.792 324.603 107.437 324.206 108.24C323.924 108.81 323.563 110.097 322.875 110.291C322.665 110.349 322.006 111.773 322.161 111.913C322.442 112.169 322.256 112.507 322.539 112.736C322.794 112.94 323.207 113.233 323.494 113.375C323.758 113.506 324.087 113.586 324.35 113.41C324.484 113.319 324.707 113.379 324.862 113.319C325.069 113.24 325.155 112.872 325.344 112.861C325.916 112.826 326.142 112.282 326.696 112.179C327.054 112.112 327.915 111.696 328.146 111.476C328.637 111.006 329.383 110.976 329.824 110.382C330.337 109.692 330.716 109.074 331.35 108.491C331.712 108.157 331.943 108.327 332.189 107.829C332.311 107.581 332.645 107.15 332.871 107.02C333.107 106.883 333.34 106.312 333.56 106.09C333.834 105.813 333.952 105.347 334.263 105.167C335.026 104.726 335.485 102.261 335.597 101.646C335.762 100.748 335.452 99.9423 335.89 99.0563C336.207 98.4142 335.997 97.6177 336.29 96.961C336.998 95.3792 335.768 93.6545 335.632 92.1901C335.492 90.6799 334.596 89.0236 334.14 87.6776C333.953 87.1239 333.583 86.0859 333.183 85.6522C332.946 85.3946 332.861 85.1003 332.741 84.7984C332.649 84.5686 332.105 84.1868 331.945 84.017C331.528 83.5742 330.944 83.1669 330.63 82.6439C329.83 81.3108 328.769 80.3081 327.342 79.5542C326.608 79.1667 326.012 78.9629 325.666 78.1615C325.462 77.6881 323.713 77.1258 323.256 76.8995C322.302 76.428 321.413 76.3492 320.36 76.2621C320.013 76.2334 319.58 76.3305 319.249 76.1894C318.72 75.9632 319.052 76.1945 319.277 76.1327C319.446 76.0865 320.156 76.2084 319.842 75.8826C319.639 75.672 319.252 75.5558 318.991 75.4268C318.225 75.0482 317.629 74.6618 316.81 74.7012C315.315 74.7731 313.562 75.0317 312.176 74.4396C311.797 74.278 311.506 74.4539 311.158 74.5715C310.85 74.6757 310.28 74.5535 309.913 74.5914C309.495 74.6345 309.026 74.5437 308.626 74.5549C308.139 74.5684 307.621 74.5666 307.091 74.5902C306.678 74.6086 306.398 74.8772 305.974 74.7085C305.618 74.5665 305.21 74.6721 304.857 74.7914C304.138 75.0349 303.365 75.1734 302.618 75.3958C301.826 75.6317 301.125 75.9485 300.345 76.2125C299.95 76.346 299.558 76.4699 299.158 76.614C298.937 76.6937 298.049 76.7183 297.992 76.7961C297.61 77.3167 296.49 77.217 295.973 77.4914C295.722 77.6241 295.577 78.0854 295.375 78.166C295.119 78.2677 294.778 78.4742 294.549 78.5517C294.054 78.7191 293.184 78.638 292.717 78.4753C292.263 78.3174 291.246 78.9921 290.803 79.1347C290.233 79.3181 290.233 79.4269 289.823 79.903C289.511 80.2661 289.307 80.3489 288.943 80.579C288.645 80.7669 288.136 80.6765 288.333 80.2777C288.494 79.9508 288.233 79.8916 287.949 79.7702C287.739 79.6805 287.331 79.9923 287.044 79.9936C286.741 79.995 286.132 80.3041 285.979 80.5431C285.841 80.7578 285.38 80.9292 285.139 80.9571C284.826 80.9934 284.433 81.5319 284.124 81.6549C283.823 81.7745 283.293 82.0615 282.994 82.0844C282.569 82.1171 282.336 82.4567 281.992 82.5063C281.732 82.5438 281.377 83.0167 281.097 83.1752C280.775 83.3569 280.414 83.4104 280.087 83.5405C279.967 83.5882 279.961 83.7908 279.855 83.8669C279.722 83.9628 279.527 83.8954 279.375 83.9469C279.051 84.0564 278.744 84.1291 278.407 84.2272C277.556 84.4745 276.792 84.639 276.042 85.1575C275.213 85.7301 274.044 85.6189 273.154 86.076C272.708 86.3046 271.622 86.6528 271.134 86.6652C270.62 86.6783 270.139 86.7563 269.635 86.8772C269.457 86.9199 269.216 86.8772 269.027 86.8941C268.801 86.9144 268.826 87.1451 268.64 87.2142C268.314 87.3348 267.724 87.3685 267.374 87.3473C267.324 87.3442 266.417 87.2136 266.504 87.3937C266.709 87.8164 269.852 86.6977 270.08 86.6205C271.814 86.0334 273.326 85.0451 275.056 84.5113C276.469 84.0753 278.001 83.9338 279.372 83.3458C281.233 82.5479 283.722 82.2696 285.74 82.383C286.443 82.4225 287.118 82.3504 287.804 82.2038C288.385 82.0797 289.251 82.1103 289.783 81.8411C290.51 81.4732 291.059 81.1995 291.872 80.9687C292.946 80.6642 294.098 80.4043 295.15 80.0484C296.376 79.6332 297.639 79.4372 298.844 78.9988C300.311 78.4647 301.641 77.3937 303.228 77.1965C304.599 77.026 305.859 76.5497 307.262 76.4212C308.252 76.3306 309.215 76.6323 310.177 76.5563C310.965 76.4941 311.821 76.4242 312.61 76.524C314.033 76.704 315.346 76.918 316.701 77.3468C318.48 77.9096 320.133 78.8491 321.811 79.6785C323.195 80.3627 324.601 80.8986 325.986 81.5831C327.78 82.4701 330.18 83.2525 331.222 85.1236C331.7 85.9834 332.098 86.8867 332.592 87.7413C332.83 88.1542 333.172 89.0302 332.996 89.4934C332.54 90.6892 332.979 92.0768 332.985 93.2984C332.988 93.9169 332.752 94.4884 332.937 95.1446C333.031 95.4801 332.654 95.9655 332.503 96.2711C331.946 97.3996 331.873 98.7122 331.367 99.855C331.044 100.586 330.934 101.373 330.571 102.108C330.33 102.594 330.09 103.081 329.849 103.568C329.333 104.611 329.275 105.693 328.76 106.734C328.557 107.146 328.084 107.269 327.803 107.637C327.497 108.037 327.095 108.332 326.718 108.618" stroke="white" stroke-width="5" stroke-linecap="round"/>
<path d="M326.102 74.5036C325.946 74.4264 325.79 74.3493 325.634 74.2721C325.375 74.1441 325.097 74.1214 324.834 73.9997C324.704 73.9395 324.54 73.9049 324.402 73.8609C324.099 73.7648 323.816 73.6293 323.519 73.5185C323.439 73.4883 323.347 73.477 323.27 73.441C322.918 73.278 322.546 73.0768 322.165 72.9937C321.868 72.9292 321.592 72.7672 321.298 72.7121C320.967 72.65 320.633 72.545 320.314 72.4337C319.996 72.3223 319.681 72.1887 319.378 72.0389C319.238 71.9698 319.099 71.8886 318.953 71.8324C318.825 71.7829 318.688 71.7811 318.558 71.7324C317.945 71.5047 317.292 71.5071 316.656 71.3858C316.405 71.3379 316.156 71.2505 315.904 71.2136C315.773 71.1944 315.639 71.2021 315.507 71.1861C315.365 71.1687 315.248 71.1285 315.102 71.1339C314.966 71.139 314.845 71.1423 314.708 71.1269C314.526 71.1062 314.317 71.1405 314.136 71.1664C313.931 71.1959 313.721 71.1981 313.513 71.2198C313.24 71.2484 312.956 71.2208 312.686 71.1723C312.402 71.1212 312.122 71.1763 311.844 71.1379C311.643 71.1101 311.426 71.1508 311.22 71.136C310.987 71.1192 310.733 71.1595 310.5 71.181C310.228 71.2063 309.953 71.2263 309.679 71.2333C309.57 71.2361 309.427 71.232 309.324 71.2746C309.2 71.3259 309.024 71.3766 308.877 71.3723C308.618 71.3647 308.364 71.4969 308.104 71.4981C307.913 71.499 307.748 71.5525 307.562 71.5799C307.212 71.6316 306.848 71.6067 306.495 71.6524C306.372 71.6684 306.219 71.6144 306.1 71.6447C306.007 71.6685 305.92 71.653 305.824 71.6596C305.731 71.666 305.656 71.7035 305.562 71.7025C305.311 71.6999 305.04 71.6959 304.798 71.7354C304.539 71.7774 304.207 71.732 303.974 71.8499" stroke="black" stroke-width="3" stroke-linecap="round"/>
<path d="M168.6 -19.5C217.657 -19.5 257.1 15.5913 257.1 58.5C257.1 101.409 217.657 136.5 168.6 136.5C119.542 136.5 80.0996 101.409 80.0996 58.5C80.0996 15.5913 119.542 -19.5 168.6 -19.5Z" fill="white" stroke="black" stroke-width="3"/>
<path d="M39.7824 34.045L40.0898 9.06751L77.6808 12.4677L39.7824 34.045Z" fill="white" stroke="black" stroke-width="3"/>
<path d="M126.729 9.9686L164.223 6.20057L165.097 31.1624L126.729 9.9686Z" fill="white" stroke="black" stroke-width="3"/>
<path d="M177.5 64.0743C177.5 79.4175 169.406 93.4101 156.119 103.614C142.831 113.82 124.409 120.175 104 120.175C83.5909 120.175 65.169 113.82 51.8806 103.614C38.5939 93.4101 30.5 79.4175 30.5 64.0743C30.5 48.7312 38.5939 34.7386 51.8806 24.5343C65.169 14.3287 83.5909 7.97382 104 7.97382C124.409 7.97382 142.831 14.3287 156.119 24.5343C169.406 34.7386 177.5 48.7312 177.5 64.0743Z" fill="white" stroke="black" stroke-width="3"/>
<path d="M76.1953 61.9905C76.1953 61.9254 76.225 61.8679 76.2725 61.8204C76.3296 61.7633 76.3887 61.6759 76.4222 61.6006C76.4616 61.5119 76.5572 61.4333 76.5932 61.3374C76.6339 61.2288 76.7523 61.1245 76.8193 61.0294C76.885 60.936 76.9046 60.7835 76.9894 60.7111C77.0655 60.6462 77.1569 60.501 77.2037 60.4125C77.2397 60.3446 77.2954 60.2874 77.3266 60.2179C77.3421 60.1835 77.375 60.1537 77.3857 60.1179C77.4138 60.0242 77.4525 59.932 77.4826 59.8382C77.5018 59.7786 77.5128 59.7209 77.5393 59.6633C77.5884 59.5567 77.6344 59.4486 77.6756 59.3387C77.7197 59.2212 77.7415 59.0958 77.7867 58.9795C77.8016 58.9413 77.8303 58.9113 77.849 58.8755C77.9048 58.7681 77.9551 58.6586 78.0105 58.5509C78.1019 58.3731 78.1446 58.1502 78.272 57.9884C78.4016 57.8238 78.4165 57.6076 78.4847 57.4125C78.5061 57.3515 78.5201 57.2854 78.5352 57.2226C78.5563 57.1346 78.6161 57.0654 78.6344 56.9784C78.6471 56.9183 78.6628 56.8763 78.6628 56.8145" stroke="black" stroke-linecap="round"/>
<path d="M75.9272 61.8169C76.0321 61.7579 75.9007 61.6682 75.857 61.6205C75.7795 61.5359 75.69 61.5241 75.6464 61.3978C75.5863 61.2234 75.5026 61.0445 75.4161 60.8822C75.3918 60.8368 75.3494 60.7633 75.3108 60.7309C75.2651 60.6925 75.2648 60.6232 75.2164 60.5883C75.182 60.5634 75.1638 60.4991 75.1385 60.4632C75.1059 60.417 75.0759 60.3723 75.0398 60.3272C74.9741 60.2451 74.8973 60.1835 74.8215 60.1078C74.7849 60.0711 74.7126 59.971 74.7041 59.9202C74.6949 59.8648 74.6261 59.8048 74.5846 59.7633C74.428 59.6068 74.4199 59.3727 74.2686 59.2214C74.2056 59.1584 74.1603 59.0865 74.092 59.024C74.0592 58.9939 74.0104 58.9993 73.9966 58.9538C73.9764 58.8871 73.9345 58.8255 73.8957 58.7673C73.7791 58.5925 73.6412 58.4152 73.5534 58.2298C73.5171 58.153 73.4573 58.1043 73.4097 58.0356C73.3736 57.9835 73.3653 57.9314 73.3395 57.8755C73.2846 57.7564 73.1612 57.6984 73.119 57.5672C73.0918 57.4827 73.0049 57.3765 73.0049 57.2952C73.0049 57.2363 72.9654 57.1909 72.9654 57.1262C72.9654 57.0644 72.9407 57.0302 72.9216 56.9749C72.8921 56.8896 72.9084 56.806 72.8371 56.7346C72.7466 56.6441 72.7092 56.5129 72.6539 56.3957C72.6289 56.3426 72.6337 56.2999 72.6287 56.2443C72.6165 56.11 72.5534 55.9839 72.5223 55.8538C72.5065 55.7878 72.5091 55.7042 72.4872 55.641C72.4736 55.6017 72.4207 55.5765 72.4126 55.5378C72.404 55.4969 72.3666 55.4627 72.3446 55.4281C72.3222 55.393 72.3236 55.3461 72.304 55.3108C72.2572 55.2266 72.2546 55.1465 72.2546 55.053C72.2546 54.976 72.253 54.8997 72.2042 54.8369C72.1431 54.7584 72.1756 54.6 72.1756 54.5045C72.1756 54.3244 72.1586 54.1373 72.1756 53.9582C72.1874 53.835 72.2429 53.7108 72.2535 53.5831C72.2615 53.4878 72.2778 53.3996 72.2744 53.3022C72.2717 53.2278 72.2546 53.1563 72.2546 53.0795C72.2546 53.0023 72.2151 52.9435 72.2151 52.8722" stroke="black" stroke-linecap="round"/>
<path d="M78.6284 56.5987C78.6284 55.7274 78.7058 54.8648 78.7058 53.9997C78.7058 53.7717 78.7184 53.5399 78.7058 53.3123C78.6947 53.1131 78.6691 52.8133 78.5704 52.6357C78.4663 52.4483 78.5581 52.244 78.3986 52.0579C78.3336 51.9821 78.3847 51.8776 78.3019 51.8066C78.2505 51.7625 78.2139 51.5723 78.1731 51.4952C78.0839 51.3267 77.8938 51.0776 77.8938 50.8765C77.8938 50.6654 77.7886 50.4856 77.7778 50.2751C77.7685 50.0925 77.6601 50.0184 77.5459 49.8928C77.1969 49.509 76.8563 49.1034 76.6094 48.6341C76.4673 48.3642 76.2411 48.1258 76.0853 47.8608C76.0259 47.7599 75.9264 47.7279 75.8919 47.6074C75.8507 47.4632 75.7475 47.3542 75.6342 47.2615C75.4811 47.1363 75.4121 46.9132 75.2841 46.7568C75.1184 46.5543 74.9839 46.3814 74.8008 46.1983" stroke="black" stroke-linecap="round"/>
<path d="M72.2485 52.8484C72.2485 52.372 72.0804 51.7469 72.2485 51.2847C72.3233 51.079 72.4686 50.8703 72.4805 50.6446C72.4834 50.59 72.5331 50.5685 72.5492 50.52C72.5721 50.4514 72.5466 50.3811 72.5772 50.3138C72.6352 50.1862 72.6199 50.0497 72.6652 49.9229C72.7642 49.6457 72.8091 49.3602 73.0025 49.1238C73.0829 49.0255 73.147 48.9584 73.2065 48.8274C73.2621 48.705 73.3838 48.5185 73.4084 48.3957C73.4514 48.181 73.5691 48.0191 73.6834 47.835C73.9199 47.4539 74.0856 47.0278 74.3277 46.6537C74.3546 46.6121 74.3226 46.5522 74.3449 46.5076C74.3707 46.4561 74.4398 46.451 74.4695 46.3916C74.5098 46.311 74.531 46.249 74.607 46.1983" stroke="black" stroke-linecap="round"/>
<path d="M75.1484 56.8307C75.1484 56.9618 75.248 57.0252 75.2644 57.14C75.2876 57.302 75.3004 57.4299 75.3632 57.5889C75.416 57.7223 75.566 57.921 75.5737 58.0679C75.5828 58.24 75.6575 58.4855 75.7499 58.6306C75.8448 58.7798 75.8375 59.0813 75.8744 59.2578C75.9115 59.435 75.9217 59.5845 75.9217 59.7691" stroke="black" stroke-width="3" stroke-linecap="round"/>
<path d="M75.11 50.6832C75.11 50.5366 75.1315 50.4467 75.0026 50.3524C74.9042 50.2805 74.8245 50.1574 74.7813 50.0453C74.6983 49.8292 74.8462 49.5409 74.7234 49.3386C74.5938 49.1252 74.6074 48.8573 74.6074 48.6147C74.6074 48.5138 74.6074 48.4128 74.6074 48.3119C74.6074 48.0614 74.5457 48.8509 74.6847 49.0594" stroke="black" stroke-width="3" stroke-linecap="round"/>
<path d="M74.5683 57.256C74.4345 57.2411 74.335 57.0323 74.2418 56.9445C74.029 56.7442 74.063 56.5627 73.9884 56.3109C73.8935 55.9906 73.8724 55.6133 73.8724 55.282C73.8724 54.9521 73.7527 54.6478 73.7199 54.3197C73.6351 53.4723 73.7177 52.5828 73.7177 51.7293C73.7177 51.4321 73.7529 51.1152 73.8638 50.8379C73.9163 50.7066 73.8724 50.4755 73.8724 50.3353" stroke="black" stroke-width="3" stroke-linecap="round"/>
<path d="M76.7727 57.024C76.8194 57.0181 76.8774 56.3732 76.8866 56.3001C76.9064 56.1411 76.8647 56.6237 76.8114 56.7748C76.7752 56.8773 76.674 56.9274 76.6589 57.0411C76.6447 57.1477 76.6567 57.2623 76.6567 57.3698C76.6567 57.5251 76.6567 57.6805 76.6567 57.8359C76.6567 57.8983 76.6567 57.9088 76.6567 57.8359C76.6567 57.6469 76.6567 57.4578 76.6567 57.2688C76.6567 57.1118 76.6659 56.9618 76.6267 56.8092C76.6074 56.7343 76.5449 56.6774 76.5407 56.5987C76.5095 56.006 76.5165 55.3552 76.3796 54.7665C76.3435 54.6111 76.3122 54.4223 76.2271 54.2832C76.2001 54.2389 76.234 54.5162 76.24 54.5409C76.3316 54.9183 76.3474 55.2799 76.3474 55.6664C76.3474 56.0677 76.3773 56.4705 76.4269 56.8672C76.4489 57.0431 76.4634 57.2075 76.4634 57.3891C76.4634 57.5354 76.2424 58.0071 76.3173 57.6254C76.3503 57.4578 76.4639 57.3179 76.4978 57.1571C76.5337 56.9864 76.5021 56.7793 76.5021 56.6051C76.5021 56.3774 76.5021 56.1497 76.5021 55.9221C76.5021 55.6751 76.6181 55.4686 76.6181 55.224C76.6181 55.0463 76.5794 54.8767 76.5794 54.7042" stroke="black" stroke-width="3" stroke-linecap="round"/>
<path d="M76.8107 55.4774C77.0204 55.4774 76.9349 55.013 76.9181 54.8674C76.8906 54.6291 76.7552 54.4452 76.6818 54.2252C76.6281 54.0638 76.5962 53.8331 76.5809 53.6646C76.5456 53.2763 76.4447 52.8864 76.3639 52.5004C76.3238 52.3085 76.2308 52.1135 76.2308 51.9183C76.2308 51.6872 76.1962 51.4491 76.1363 51.2266C76.0958 51.0763 76.0375 50.8533 76.0375 50.7025C76.0375 50.569 75.8609 50.4001 75.8441 50.2579C75.8401 50.2239 75.7345 50.0906 75.7067 50.0667C75.6188 49.9914 75.6484 50.1761 75.653 50.2214C75.677 50.4616 75.7282 50.6689 75.7282 50.9152" stroke="black" stroke-width="3" stroke-linecap="round"/>
<path d="M76.0381 52.3457C76.1259 52.3652 76.3398 52.8391 76.3474 52.9343C76.3727 53.2505 76.5451 53.5448 76.5794 53.8536C76.5931 53.9771 76.6471 54.24 76.7254 54.3261C76.8612 54.4755 76.8152 54.311 76.8113 54.1629C76.8063 53.9721 76.6941 53.7034 76.5794 53.5529C76.4599 53.3961 76.4998 53.18 76.4247 52.9944C76.3918 52.913 76.3129 52.5733 76.4935 52.6937C76.7278 52.8499 76.7993 53.1746 76.85 53.4283" stroke="black" stroke-width="3" stroke-linecap="round"/>
<path d="M90.0095 61.8976C89.7833 61.8976 89.7307 61.9483 89.5787 62.1004C89.4831 62.1959 89.3608 62.3157 89.2542 62.3969C89.1562 62.4716 88.9987 62.4851 88.9146 62.5566C88.6917 62.7461 88.4143 62.7161 88.1644 62.8303C87.8769 62.9617 87.5426 63.0272 87.2316 63.0838C87.0735 63.1125 86.9454 63.21 86.7805 63.2206C86.6586 63.2285 86.4972 63.245 86.3826 63.2891C85.8861 63.48 85.3722 63.5785 84.872 63.7453C84.1023 64.0018 83.3271 64.1787 82.5275 64.1787C81.8666 64.1787 81.2445 64.27 80.5809 64.27C79.7089 64.27 78.8814 64.3466 78.0159 64.4043C77.2548 64.455 76.494 64.4524 75.7297 64.4524C75.407 64.4524 75.0843 64.4524 74.7615 64.4524C74.3023 64.4524 73.9122 64.2294 73.4689 64.1787C73.0231 64.1278 72.5886 63.8898 72.1408 63.8112C71.5763 63.7122 71.0554 63.4431 70.5592 63.1674C70.0332 62.8752 69.5031 62.5595 69.0334 62.1815C68.8266 62.015 68.642 61.7555 68.4581 61.558C67.9959 61.0615 67.5126 60.5928 66.9956 60.1538C66.6979 59.9011 66.5664 59.5692 66.3214 59.2768C66.1223 59.0393 65.9761 58.7759 65.85 58.4937C65.7441 58.2568 65.5809 58.0886 65.4292 57.8828C65.1017 57.4384 64.8506 56.9604 64.5624 56.4888C64.4125 56.2435 64.2676 56.0167 64.0986 55.7842C64.0267 55.6854 63.9592 55.5197 63.9592 55.3939C63.9592 54.7922 63.5417 54.2503 63.3864 53.6856C63.2999 53.3712 63.2394 53.0495 63.1532 52.7376C63.12 52.6177 63.0465 52.3442 62.9707 52.2409C62.6156 51.7567 62.3263 51.3511 62.1089 50.7759C61.965 50.3948 61.8466 49.9779 61.7237 49.5897C61.6724 49.4276 61.6044 49.3184 61.564 49.1487C61.5289 49.001 61.4864 48.8558 61.45 48.7102C61.3576 48.3407 61.1925 48.0508 61.0242 47.7141C60.9013 47.4684 60.8513 47.1904 60.7656 46.9335" stroke="black" stroke-width="3" stroke-linecap="round"/>
<path d="M89.5623 60.7832C89.5623 60.5856 89.5981 60.3436 89.5542 60.1513C89.4751 59.8052 89.304 59.5091 89.198 59.1714C89.0957 58.845 89.0235 58.5332 88.9103 58.2115C88.7225 57.6777 88.6024 57.1206 88.4193 56.5816C88.3972 56.5166 88.3801 56.4497 88.3589 56.3844C88.3061 56.2215 88.1567 56.1207 88.0993 55.9618C87.9489 55.5452 87.9044 55.066 87.8317 54.6297C87.7697 54.2574 87.5016 53.8317 87.3307 53.5008C87.072 53.0001 86.7756 52.5206 86.5197 52.0178C86.1988 51.3872 85.8293 50.7543 85.4231 50.1766C85.2899 49.9872 85.203 49.773 85.0749 49.581C85.0194 49.4977 84.9375 49.469 84.8657 49.4019C84.4252 48.9901 83.9368 48.5958 83.4088 48.3072C83.0445 48.1081 82.6774 47.8738 82.3564 47.613C82.2772 47.5486 82.2696 47.481 82.1713 47.4319C82.063 47.3777 81.9322 47.3211 81.8312 47.2568C81.0066 46.7321 80.1891 46.2032 79.4768 45.5303C79.1685 45.239 78.9567 45.0977 78.5673 44.9528C78.1161 44.7849 77.6877 44.671 77.2231 44.5483C77.1084 44.518 77.0118 44.4197 76.8931 44.4115C76.7594 44.4023 76.6317 44.3781 76.4987 44.3571C75.8865 44.2605 75.2711 44.1827 74.6595 44.0855C74.2103 44.0141 73.7664 43.898 73.3133 43.8521C73.0461 43.825 72.7728 43.8059 72.5044 43.7977C72.1643 43.7874 71.8515 43.6937 71.5164 43.6589C70.8775 43.5926 70.1287 43.5284 69.4961 43.6508C69.2704 43.6945 69.0525 43.7724 68.828 43.8158C68.6046 43.8591 68.3889 43.856 68.166 43.9205C67.627 44.0765 67.0438 44.1009 66.5139 44.2827C66.2094 44.3872 65.9477 44.4844 65.6245 44.5382C65.2239 44.605 64.7596 44.666 64.389 44.8381C64.257 44.8994 64.1323 44.9061 63.9905 44.9266C63.6653 44.9736 63.3577 45.1051 63.0307 45.156C62.7627 45.1977 62.5261 45.2808 62.252 45.2808" stroke="black" stroke-width="3" stroke-linecap="round"/>
<path d="M62.626 45.0396C62.1301 45.0396 61.6751 45.258 61.2436 45.4737C61.0619 45.5646 60.8105 45.5205 60.6092 45.5205C60.3504 45.5205 60.2262 45.7609 59.9814 45.7609" stroke="black" stroke-width="3" stroke-linecap="round"/>
<path d="M116.102 61.7679C116.121 61.9584 116.188 62.1714 116.373 62.2643C116.779 62.4672 117.137 62.7588 117.619 62.8189C117.724 62.8321 117.82 62.8981 117.923 62.9247C118.157 62.9855 118.394 63.0282 118.627 63.0973C118.903 63.1796 119.186 63.2425 119.449 63.3628C119.777 63.5134 120.143 63.6079 120.483 63.7405C120.645 63.8041 120.831 63.7964 121 63.8354C121.427 63.9334 121.843 64.0762 122.274 64.1591C122.871 64.2742 123.503 64.2284 124.093 64.3512C124.258 64.3855 124.404 64.5185 124.57 64.526C125.187 64.5541 125.766 64.7591 126.391 64.7591C127.682 64.7591 128.973 64.7591 130.263 64.7591C130.598 64.7591 130.935 64.7708 131.269 64.7591C131.437 64.7532 131.594 64.6796 131.757 64.6426C132.204 64.5406 132.645 64.4753 133.073 64.3016C133.408 64.1655 133.73 64.007 134.066 63.8656C134.306 63.7646 134.561 63.6966 134.8 63.5937C134.924 63.54 135.01 63.4387 135.145 63.3908C136.119 63.0455 137.018 62.5247 137.881 61.9579C138.375 61.6337 138.907 61.2183 139.2 60.6997C139.265 60.5848 139.378 60.505 139.448 60.3911C139.562 60.2067 139.66 60.0307 139.789 59.8558C139.883 59.7283 139.921 59.5807 140.003 59.448C140.136 59.2312 140.315 59.0458 140.454 58.8329C140.996 57.9997 141.445 57.1012 141.865 56.2C141.953 56.0111 142.056 55.7822 142.172 55.6087C142.353 55.337 142.465 55.0236 142.653 54.7562C142.72 54.6606 142.755 54.5672 142.789 54.4562C142.843 54.2802 142.953 54.1438 143.026 53.9771C143.11 53.7861 143.224 53.5976 143.333 53.416" stroke="black" stroke-width="3" stroke-linecap="round"/>
<path d="M143.488 52.9106C143.564 52.6541 143.679 52.4296 143.692 52.1529C143.702 51.9329 143.744 51.7024 143.83 51.4994C143.936 51.25 143.98 50.9831 144.049 50.7221C144.145 50.3551 144.25 49.991 144.339 49.6221C144.454 49.1466 144.551 48.6744 144.676 48.2027C144.742 47.9534 144.834 47.6993 144.958 47.4743C145.001 47.3967 145.087 47.2657 145.1 47.1793C145.115 47.0833 145.16 46.9685 145.16 46.868" stroke="black" stroke-width="3" stroke-linecap="round"/>
<path d="M115.978 61.9037C115.978 61.2448 116.192 60.6872 116.45 60.0784C116.539 59.8665 116.556 59.6558 116.592 59.4301C116.624 59.2282 116.745 59.0822 116.836 58.907C116.898 58.7876 116.924 58.5631 117.024 58.4777C117.133 58.3844 117.084 58.1811 117.166 58.0768C117.467 57.6935 117.602 57.3043 117.769 56.8371C117.999 56.1917 118.409 55.6148 118.639 54.972C118.992 53.9832 119.44 53.0613 119.85 52.0947C120.023 51.6858 120.14 51.2827 120.356 50.8892C120.563 50.5122 120.771 50.1758 121.004 49.8145C121.233 49.4595 121.515 49.1151 121.772 48.7795C121.896 48.6168 122.015 48.4427 122.147 48.2877C122.357 48.0406 122.605 47.8318 122.813 47.5854C123.177 47.1536 123.587 46.7747 124.103 46.4993C124.314 46.3869 124.538 46.2888 124.726 46.1382C124.894 46.0039 125.068 45.9904 125.241 45.8738C125.624 45.6151 126.039 45.4616 126.435 45.2312C126.677 45.0903 126.971 45.0389 127.208 44.8901C127.571 44.6623 128.001 44.5231 128.425 44.401C128.91 44.2613 129.378 43.9678 129.898 43.9404C130.829 43.8914 131.77 43.808 132.701 43.7869C132.967 43.7809 133.235 43.6921 133.503 43.6845C134.137 43.6667 134.765 43.6334 135.402 43.6334C135.848 43.6334 136.294 43.5822 136.744 43.5822C137.314 43.5822 137.816 43.9072 138.382 43.9404C138.777 43.9637 139.22 44.1857 139.61 44.2731C139.871 44.3316 140.131 44.4941 140.401 44.5034C140.606 44.5105 140.825 44.5403 141.026 44.583C141.212 44.6224 141.456 44.7469 141.629 44.7593C141.985 44.7847 142.269 44.8756 142.604 45.0095C142.747 45.0665 142.897 45.1606 143.05 45.1687C143.465 45.1905 143.806 45.7507 144.239 45.7828C144.43 45.797 144.683 45.9778 144.779 46.1411C144.876 46.3066 145.047 46.381 145.149 46.5505" stroke="black" stroke-width="3" stroke-linecap="round"/>
<path d="M129.745 62.226C129.745 62.1461 129.817 62.0564 129.847 61.9833C129.902 61.8493 129.961 61.7075 130.061 61.6023C130.168 61.4895 130.234 61.3531 130.364 61.2564C130.48 61.1698 130.583 61.0797 130.691 60.9818C130.826 60.8592 130.95 60.7188 131.092 60.6049C131.223 60.4989 131.342 60.3044 131.427 60.1609C131.482 60.0692 131.526 59.9708 131.589 59.8842C131.658 59.7904 131.683 59.681 131.763 59.5951C131.886 59.4618 131.987 59.2873 132.097 59.1408C132.208 58.9933 132.321 58.8401 132.411 58.6772C132.496 58.5235 132.584 58.3579 132.69 58.2177C132.83 58.0331 133.041 57.8159 133.092 57.5889C133.12 57.462 133.219 57.3253 133.276 57.2079C133.348 57.0601 133.421 56.926 133.474 56.7691C133.525 56.6144 133.58 56.4638 133.625 56.3055C133.662 56.1799 133.729 56.0691 133.76 55.9451C133.807 55.7568 133.917 55.5937 133.964 55.4051" stroke="black" stroke-linecap="round"/>
<path d="M129.69 62.0587C129.69 61.9866 129.666 61.9694 129.634 61.91C129.55 61.7567 129.487 61.5863 129.415 61.4268C129.366 61.3192 129.343 61.1998 129.291 61.0923C129.242 60.9911 129.212 60.8626 129.151 60.7701C129.112 60.7122 129.033 60.6024 128.979 60.5636C128.924 60.5238 128.808 60.4121 128.783 60.3447C128.738 60.2245 128.653 60.1401 128.597 60.0226C128.521 59.8616 128.486 59.6839 128.416 59.5208C128.331 59.3219 128.314 59.102 128.212 58.9085C128.147 58.785 128.135 58.635 128.073 58.511C127.997 58.3603 127.921 58.2161 127.833 58.0721C127.758 57.9494 127.766 57.7751 127.737 57.6385C127.714 57.5292 127.643 57.4462 127.599 57.3483C127.556 57.2543 127.522 57.1642 127.479 57.0706C127.435 56.9747 127.386 56.882 127.348 56.7815C127.327 56.727 127.273 56.6522 127.273 56.5946" stroke="black" stroke-linecap="round"/>
<path d="M127.338 56.8925C127.324 56.7791 127.198 56.7196 127.192 56.6014C127.188 56.5169 127.192 56.4313 127.192 56.3467C127.192 56.0946 127.192 55.8426 127.192 55.5905C127.192 55.4059 127.192 55.2212 127.192 55.0365C127.192 54.6886 127.127 54.2846 127.21 53.9509C127.264 53.7382 127.265 53.454 127.265 53.2351C127.265 53.1365 127.338 53.0612 127.338 52.9784C127.338 52.8455 127.368 52.6712 127.403 52.5417C127.453 52.3512 127.52 52.1015 127.52 51.9068C127.52 51.7951 127.656 51.7678 127.665 51.644C127.67 51.5749 127.704 51.5533 127.738 51.4984C127.798 51.4019 127.8 51.2852 127.831 51.179C127.897 50.9544 128.102 50.695 128.102 50.4653C128.102 50.3336 128.196 50.2578 128.248 50.1418C128.29 50.0467 128.383 49.8957 128.448 49.8163C128.529 49.7167 128.536 49.6394 128.595 49.5252C128.659 49.4044 128.813 49.2775 128.828 49.141C128.86 48.8497 129.146 48.6814 129.303 48.4577C129.41 48.3061 129.688 48.0924 129.703 47.9199C129.708 47.8641 129.815 47.7391 129.857 47.6934C129.945 47.5987 129.999 47.4917 130.096 47.4144C130.173 47.3528 130.182 47.2115 130.267 47.1354C130.33 47.0794 130.42 46.9665 130.433 46.8868C130.44 46.8436 130.56 46.7995 130.599 46.7735C130.806 46.6356 131.085 46.5223 131.195 46.3025" stroke="black" stroke-linecap="round"/>
<path d="M133.998 55.4005C133.998 55.0807 133.997 54.762 134.032 54.4502C134.074 54.0691 133.925 53.7136 133.925 53.3463C133.925 52.9683 133.925 52.5902 133.925 52.2121C133.925 51.9996 133.93 51.808 133.86 51.6076C133.791 51.4077 133.814 51.2146 133.761 51.0152C133.703 50.7961 133.659 50.5604 133.63 50.3379C133.601 50.1243 133.548 49.8383 133.47 49.6364C133.425 49.5192 133.431 49.3885 133.379 49.2704C133.325 49.1484 133.372 49.0097 133.306 48.8944C133.258 48.8093 133.216 48.708 133.195 48.6134C133.156 48.4394 132.928 48.3342 132.861 48.1665C132.836 48.102 132.766 48.0094 132.724 47.9482C132.699 47.9125 132.604 47.7271 132.595 47.7217C132.425 47.6248 132.362 47.3101 132.251 47.1637C132.143 47.0216 131.982 46.903 131.885 46.7574C131.826 46.6686 131.758 46.5412 131.683 46.4662C131.62 46.4037 131.483 46.369 131.45 46.3025" stroke="black" stroke-linecap="round"/>
<path d="M129.631 58.6758C129.631 57.9278 129.649 57.1853 129.696 56.4397C129.727 55.9451 129.74 55.4433 129.74 54.9476C129.74 54.8432 129.675 54.5635 129.813 54.5635" stroke="black" stroke-width="3" stroke-linecap="round"/>
<path d="M129.558 57.1109C129.175 57.0762 128.947 56.5361 128.85 56.2031C128.738 55.8193 128.83 55.3106 128.83 54.9112C128.83 54.5368 128.793 54.1669 128.793 53.7911C128.793 53.394 128.776 52.9924 128.866 52.6023C128.919 52.3762 129.009 52.1779 129.048 51.9432" stroke="black" stroke-width="3" stroke-linecap="round"/>
<path d="M130.868 58.9305C130.868 58.5475 130.859 58.223 130.994 57.8569C131.017 57.7931 131.036 57.7076 131.048 57.6406C131.069 57.5241 131.149 57.4528 131.204 57.3495C131.345 57.0837 131.439 56.7353 131.451 56.4316C131.473 55.8671 131.785 55.4092 131.812 54.8506C131.851 54.079 131.815 53.2974 131.815 52.5255" stroke="black" stroke-width="3" stroke-linecap="round"/>
<path d="M132.069 55.8736C132.069 55.3216 132.142 54.8023 132.142 54.2501C132.142 53.3402 132.027 52.4366 131.741 51.5793" stroke="black" stroke-width="3" stroke-linecap="round"/>
<path d="M131.123 53.6536C130.984 53.4791 131.012 53.1688 130.959 52.9602C130.886 52.666 130.851 52.3638 130.8 52.0706C130.735 51.6977 130.835 51.3081 130.759 50.9323C130.74 50.8393 130.644 50.3372 130.731 50.2409C130.84 50.1199 130.905 49.8423 130.905 49.6687C130.905 49.4923 131.014 49.3448 131.014 49.1633C131.014 48.8487 131.196 48.6043 131.196 48.304" stroke="black" stroke-width="3" stroke-linecap="round"/>
<path d="M131.269 49.0319C131.269 49.4093 131.267 49.7544 131.341 50.1236C131.365 50.2391 131.38 50.3777 131.422 50.4875C131.47 50.6139 131.577 50.7742 131.594 50.904C131.629 51.1625 131.668 51.4167 131.723 51.6703C131.749 51.7866 131.75 51.9069 131.798 52.018C131.859 52.1577 131.863 52.0467 131.96 52.0524C132.05 52.0577 132.069 52.6127 132.069 52.4244C132.069 51.9727 132.106 51.5306 132.106 51.0779C132.106 50.9313 132.126 50.7621 132.104 50.6149C132.092 50.5387 132.033 50.4728 132.033 50.3966C132.033 50.3104 131.947 50.2381 131.924 50.156C131.889 50.0354 131.849 49.9167 131.814 49.7961" stroke="black" stroke-width="3" stroke-linecap="round"/>
<path d="M130.067 51.6885C130.067 51.4174 130.028 51.1873 129.95 50.9323C129.9 50.7702 129.883 50.4914 129.976 50.342C130.05 50.2235 130.016 50.0365 130.103 49.9053" stroke="black" stroke-width="3" stroke-linecap="round"/>
<path d="M129.777 60.8229C129.738 61.1727 129.74 60.1195 129.74 59.7675" stroke="black" stroke-linecap="round"/>
<path d="M145.09 46.0188C145.005 46.0082 145.081 45.9666 145.13 45.9684C145.223 45.972 145.272 46.0693 145.368 46.0693C145.505 46.0693 145.646 46.1197 145.796 46.1197" stroke="black" stroke-width="3" stroke-linecap="round"/>
<path d="M129.703 59.3672C129.851 59.3672 129.812 59.0087 129.812 59.3308" stroke="black" stroke-width="3" stroke-linecap="round"/>
<line x1="21.4083" y1="63.2262" x2="76.4083" y2="78.2262" stroke="black" stroke-width="3"/>
<line x1="130.619" y1="79.231" x2="185.618" y2="64.2263" stroke="black" stroke-width="3"/>
<path d="M51.8075 40.5936C51.7524 40.4678 51.8819 40.186 51.898 40.0487C51.9069 39.9732 51.926 39.9095 51.926 39.8314C51.926 39.6525 52.0077 39.4931 52.0149 39.3194C52.0278 39.0094 52.0149 38.6964 52.0149 38.3859C52.0149 38.2279 51.9959 38.0835 52.0726 37.9431C52.1805 37.7451 52.0389 37.4022 52.2108 37.2302C52.4827 36.9584 52.7918 36.9191 53.1575 36.9191C53.315 36.9191 53.4738 36.9103 53.6299 36.9339C53.733 36.9495 53.7853 36.9752 53.8736 37.0064C54.0623 37.0729 54.276 37.0391 54.4679 37.0903C54.7026 37.1529 54.9319 37.2102 55.1676 37.2731C55.2922 37.3063 55.6857 37.2446 55.7636 37.3224C55.8994 37.4583 56.1313 37.3885 56.3118 37.4591C56.4091 37.4972 56.5213 37.4911 56.6246 37.5118C56.7644 37.5397 56.8706 37.6007 57.0131 37.6007C57.27 37.6007 57.5023 37.6599 57.7572 37.6599C57.8763 37.6599 57.9958 37.6303 58.1194 37.6303" stroke="black" stroke-width="2" stroke-linecap="round"/>
<path d="M48.3398 53.6619C48.3398 53.352 48.5081 52.9635 48.6658 52.7038C48.7433 52.5762 48.6883 52.4688 48.7284 52.3284C48.743 52.2774 48.7932 52.2376 48.814 52.1869C48.8483 52.1029 48.8521 52.0099 48.8798 51.9234C48.9416 51.7306 48.9995 51.5378 49.0576 51.344C49.0938 51.2233 49.0807 51.0919 49.0807 50.967C49.0807 50.8272 49.1242 50.751 49.1696 50.6262C49.2282 50.4651 49.3113 50.2556 49.3177 50.0829C49.3217 49.9755 49.4203 49.8797 49.4379 49.7652C49.4517 49.6753 49.4943 49.5523 49.5252 49.4688C49.6208 49.2107 49.5512 48.9169 49.6174 48.6523C49.6521 48.5132 49.7286 48.3771 49.7557 48.239C49.7987 48.0197 49.8784 47.8177 49.9236 47.6003C50.0794 46.8501 50.1496 46.1049 50.2512 45.3531C50.2977 45.0088 50.6116 44.7197 50.6216 44.3702C50.6252 44.2459 50.6586 44.124 50.6809 44.0015C50.7099 43.8421 50.7292 43.6562 50.7994 43.5109C50.8772 43.3497 50.9428 43.1034 50.9706 42.9281C50.9825 42.8532 50.9632 42.7706 50.9838 42.6976C51.0073 42.6143 51.0845 42.5471 51.0957 42.4605C51.1374 42.1413 51.3032 41.8815 51.3032 41.5633C51.3032 41.1964 51.5402 40.8987 51.5402 40.5344" stroke="black" stroke-width="2" stroke-linecap="round"/>
<path d="M52.1628 67.9749C52.1628 67.8712 52.2019 67.686 52.1036 67.6423C51.9657 67.581 51.931 67.5524 51.8896 67.4019C51.8451 67.2407 51.8665 67.0526 51.8665 66.885C51.8665 66.5223 51.8665 66.1595 51.8665 65.7968C51.8665 65.319 51.9289 64.7903 51.8435 64.3201C51.7954 64.0559 51.8369 63.7454 51.8369 63.4772C51.8369 63.1286 51.8665 62.7794 51.8665 62.4334C51.8665 62.2501 51.9948 60.87 51.8665 60.8629C51.7552 60.8567 51.6839 60.7167 51.636 60.6258C51.6087 60.5739 51.5738 60.5142 51.534 60.471C51.4516 60.3818 51.4436 60.4059 51.3282 60.3723C51.2151 60.3393 51.0492 60.3419 50.9627 60.2554C50.9188 60.2115 50.8797 60.1517 50.8129 60.1517C50.7088 60.1517 50.5564 60.0584 50.4672 60.0035C50.3106 59.9071 50.2223 59.9395 50.0457 59.908C49.7727 59.8593 49.508 59.7275 49.2423 59.6792C49.054 59.6449 48.8173 59.631 48.6661 59.5014C48.5675 59.4168 48.3849 59.4948 48.2661 59.4684C48.1409 59.4406 48.0226 59.4506 47.8923 59.4388C47.8101 59.4313 47.6927 59.4289 47.6125 59.4075C47.5314 59.3859 47.4907 59.3219 47.4083 59.3219C47.2744 59.3219 47.1405 59.3219 47.0066 59.3219C46.951 59.3219 46.7124 59.5252 46.8157 59.3334C46.869 59.2343 46.9177 59.1421 46.9177 59.0272C46.9177 58.9418 46.9143 58.8885 46.9638 58.8165C47.0862 58.6385 47.1808 58.425 47.1844 58.2057C47.1886 57.9509 47.2607 57.7072 47.2733 57.455C47.2857 57.2077 47.4319 57.0171 47.4808 56.785C47.5179 56.6085 47.4682 56.3831 47.5532 56.2252C47.5979 56.1422 47.6105 56.0484 47.6438 55.9618C47.6667 55.9022 47.7115 55.7963 47.7178 55.7363C47.7349 55.5741 47.8281 55.4201 47.8364 55.2621C47.8407 55.1792 47.866 55.1018 47.866 55.0185C47.866 54.9131 47.9378 54.883 47.9845 54.8012C48.0626 54.6646 48.1191 54.554 48.1623 54.4028C48.1982 54.2773 48.2042 54.0646 48.2809 53.9879" stroke="black" stroke-width="2" stroke-linecap="round"/>
<path d="M156.731 66.1883C156.571 66.3683 156.688 67.1028 156.688 67.325C156.688 67.7709 156.644 68.1997 156.644 68.6419C156.644 69.1085 156.546 69.7035 156.712 70.1535C156.857 70.5469 156.688 70.9889 156.688 71.3974C156.688 73.1813 156.644 74.9585 156.644 76.7379C156.644 77.1282 156.644 77.5185 156.644 77.9088C156.644 78.2737 156.57 78.5023 156.425 78.8289C156.287 79.1385 156.231 79.5133 156.159 79.8366C156.128 79.9774 155.985 80.2276 155.921 80.3624C155.829 80.5564 155.857 80.7202 155.789 80.9101C155.68 81.2166 155.548 81.5149 155.417 81.8107C155.331 82.0049 155.336 82.222 155.251 82.3998C155.165 82.5833 154.987 82.6188 154.847 82.7503C154.675 82.9129 154.447 83.0426 154.297 83.2225C154.081 83.4821 153.924 83.7561 153.708 84.0356C153.654 84.1051 153.588 84.2161 153.523 84.2741C153.494 84.2999 153.439 84.2846 153.404 84.3106C153.355 84.3474 153.363 84.4258 153.304 84.4494C153.152 84.5102 152.952 84.5029 152.788 84.5029" stroke="black" stroke-width="3" stroke-linecap="round"/>
<path d="M161.013 59.0048C161.04 59.0468 161.102 59.1225 161.102 59.1739C161.102 59.259 161.113 59.2461 161.174 59.2833C161.233 59.3191 161.31 59.3473 161.36 59.3964C161.417 59.4534 161.249 59.4412 161.204 59.4523C160.96 59.5125 160.725 59.6537 160.471 59.6537C160.25 59.6537 160.029 59.6537 159.808 59.6537C159.764 59.6537 159.744 59.6751 159.705 59.6935C159.574 59.7547 159.429 59.783 159.295 59.8377C159.167 59.8899 159.073 59.888 158.94 59.9023C158.85 59.9121 158.774 59.9608 158.686 59.9794C158.62 59.9933 158.553 59.9862 158.487 59.9943C158.216 60.0277 157.945 60.0426 157.672 60.0577C157.506 60.067 157.308 60.144 157.164 60.2305C157.096 60.2713 157.06 60.38 157.021 60.4443C156.975 60.521 156.983 60.6231 156.945 60.7054C156.907 60.7884 156.892 60.8954 156.873 60.9839C156.839 61.1398 156.877 61.3002 156.849 61.4538C156.826 61.582 156.807 61.7105 156.806 61.8441C156.804 62.0325 156.784 62.2196 156.784 62.406C156.784 62.7592 156.716 63.1081 156.716 63.4589C156.716 63.9103 156.649 64.3494 156.649 64.8028C156.649 65.259 156.627 65.71 156.627 66.1652" stroke="black" stroke-width="3" stroke-linecap="round"/>
<path d="M150.713 36.4652C150.883 36.5078 150.805 37.2418 150.857 37.3977C150.995 37.8138 151.182 38.1774 151.36 38.5726C151.453 38.7792 151.486 38.8151 151.701 38.8151C151.789 38.8151 152.119 38.8757 152.149 38.7432C152.199 38.5179 152.304 38.5597 152.487 38.5753C152.823 38.6039 153.172 38.6076 153.5 38.6925C153.598 38.7181 153.676 38.7457 153.724 38.6339C153.851 38.332 154.209 38.2029 154.512 38.1916C154.832 38.1798 155.548 38.1759 155.7 37.832C155.735 37.7549 155.934 37.649 156.009 37.6215C156.235 37.5393 156.075 37.5833 156.041 37.6934C155.967 37.9343 156.036 38.3242 156.036 38.5753C156.036 38.7532 156.173 38.9055 156.18 39.0922C156.185 39.2435 156.207 39.4348 156.239 39.5824C156.358 40.1342 156.348 40.7032 156.441 41.2609C156.625 42.3652 156.524 43.6134 156.958 44.6445C157.005 44.7569 157.131 44.924 157.139 45.0388C157.15 45.1924 157.164 45.3518 157.198 45.5024C157.287 45.9064 157.344 46.3396 157.547 46.704C157.801 47.1608 157.763 46.3065 157.763 46.1258C157.763 45.7449 157.351 45.4973 157.331 45.1187C157.315 44.8248 157.073 44.6155 157.006 44.3408C156.914 43.9651 156.858 43.5895 156.851 43.2005C156.845 42.853 156.852 42.6173 156.707 42.2919C156.533 41.8986 156.604 43.1524 156.638 43.5814C156.665 43.9185 156.692 44.2796 156.782 44.6072C156.829 44.7762 156.918 44.9193 156.947 45.0947C156.999 45.4026 157.152 45.6475 157.28 45.9207C157.489 46.3651 157.589 46.9 157.848 47.3141C157.912 47.4162 157.861 47.6682 157.896 47.7936C157.944 47.9681 157.965 48.1376 158.024 48.3105C158.126 48.611 158.183 48.8994 158.29 49.195C158.391 49.4734 158.439 49.773 158.485 50.0663C158.541 50.4364 158.654 50.8168 158.674 51.1879C158.688 51.4576 158.856 51.7027 158.866 51.9659C158.884 52.4823 159.249 52.9645 159.249 53.4898C159.249 53.6643 159.34 53.9028 159.417 54.0573C159.525 54.2736 159.458 54.5501 159.492 54.7847C159.514 54.9443 159.587 55.0839 159.628 55.2376C159.664 55.3754 159.593 55.5362 159.654 55.6692C159.783 55.9485 159.815 56.341 159.969 56.591C160.054 56.7298 159.982 56.8827 160.027 57.028C160.075 57.1842 160.208 57.306 160.208 57.4676C160.208 57.7247 160.343 57.9683 160.397 58.2136C160.427 58.3442 160.424 58.4213 160.496 58.5466C160.532 58.6092 160.657 58.7766 160.496 58.6691" stroke="black" stroke-width="4" stroke-linecap="round"/>
<path d="M141.846 23.3847C141.846 23.2999 141.872 23.1621 141.834 23.0865C141.802 23.0221 141.832 23.0269 141.891 23.0269C141.932 23.0269 142.038 23.0001 142.055 22.9673" stroke="white" stroke-width="4" stroke-linecap="round"/>
<path d="M151.012 37.7037C150.971 38.0764 150.758 36.8737 150.701 36.7708C150.527 36.4583 150.568 36.1427 150.568 35.7934C150.568 35.473 150.771 35.0892 150.637 34.7717C150.469 34.3735 150.586 33.9189 150.41 33.5278C150.249 33.1712 150.214 32.8921 150.128 32.506C150.088 32.3252 150.162 32.1279 150.104 31.9483C150.002 31.6308 149.869 30.8721 149.635 30.6846C149.494 30.572 149.503 29.8825 149.432 29.7073C149.281 29.3285 149.333 28.9726 149.077 28.6214C148.965 28.4676 148.979 28.2757 148.83 28.108C148.765 28.0341 148.55 27.7132 148.529 27.6193C148.487 27.4303 148.481 27.292 148.416 27.1109C148.349 26.9265 148.114 26.7647 148.085 26.5926C148.017 26.1872 147.602 25.7705 147.458 25.3537C147.357 25.0631 147.278 24.8254 147.142 24.5541C147.014 24.2983 146.861 24.4466 146.658 24.3566C146.483 24.2787 146.377 24.1221 146.214 24.0407C146.068 23.9675 145.893 24.0416 145.77 23.8877C145.674 23.7683 145.412 23.8753 145.276 23.7544C145.128 23.6226 144.892 23.6217 144.704 23.5274C144.059 23.205 143.623 22.9548 142.838 22.9548" stroke="black" stroke-width="4" stroke-linecap="round"/>
<path d="M58.3311 35.9666C58.3311 35.5886 58.4032 35.2628 58.4379 34.898C58.4764 34.4938 58.8372 34.4754 58.8372 33.9925C58.8372 32.8949 58.8806 31.8012 58.9385 30.7024C58.9672 30.1558 59.6234 29.7716 59.7427 29.2344C59.9117 28.4743 60.239 27.8416 60.4345 27.1029C60.8024 25.7132 62.0933 24.6697 63.1454 23.8408C64.8902 22.4661 66.7842 22.5022 68.9834 22.5022C72.7179 22.5022 76.4261 22.401 80.1643 22.401C80.723 22.401 81.2817 22.401 81.8403 22.401C83.1117 22.401 84.1858 22.7302 85.4286 22.8959C86.3078 23.0132 87.1373 22.9522 87.9933 22.9072C88.9037 22.8593 89.8015 22.8059 90.7154 22.8059C91.5867 22.8059 92.4087 22.5022 93.3025 22.5022C96.4076 22.5022 99.5088 22.401 102.616 22.401C104.428 22.401 106.392 22.2039 108.184 22.4797C109.151 22.6284 110.215 23.1768 111.216 22.8059C112.283 22.4107 113.904 22.7047 115.046 22.7047C116.306 22.7047 117.565 22.7047 118.825 22.7047C120.683 22.7047 122.515 22.5022 124.382 22.5022C126.453 22.5022 128.793 23.224 130.811 23.7283C131.244 23.8366 131.649 24.0438 132.132 24.0208C132.353 24.0103 133.727 23.7382 132.987 23.7171C132.199 23.6946 131.43 23.6158 130.636 23.6158C129.895 23.6158 129.639 23.2936 128.949 23.1097C128.086 22.8795 129.638 22.8059 130.006 22.8059C131.175 22.8059 132.463 22.9069 133.606 22.6991C135.078 22.4314 136.648 22.5022 138.156 22.5022C138.583 22.5022 139.804 22.2819 140.107 22.5247C140.305 22.6831 141.107 22.983 140.981 22.9212" stroke="black" stroke-width="4" stroke-linecap="round"/>
<rect x="57.5" y="20.5" width="94" height="20" rx="10" stroke="black"/>
<path d="M148.994 62.2781C148.994 64.4188 149.184 66.6329 149.184 68.8135C149.184 69.2239 149.184 69.6343 149.184 70.0448C149.184 70.6636 148.845 71.0607 148.805 71.6023C148.725 72.6809 148.805 73.7924 148.805 74.8752C148.805 75.698 148.345 76.7559 147.763 77.3378C147.011 78.09 145.932 79.1813 145.016 79.6636C143.671 80.3713 141.884 80.0846 140.375 80.0846C139.361 80.0846 138.398 80.7671 137.312 80.716C135.042 80.6092 133.028 80.2928 130.83 79.8531C129.949 79.6769 129.213 78.948 128.251 78.948C126.717 78.948 125.18 78.7586 123.631 78.7586C121.038 78.7586 118.442 78.948 115.833 78.948C113.806 78.948 111.971 78.2225 109.971 78.1903C108.548 78.1673 107.122 78.1903 105.699 78.1903C102.931 78.1903 100.163 78.1903 97.3952 78.1903C95.8569 78.1903 94.4659 78.5028 92.9436 78.7796C91.2936 79.0796 89.5724 78.948 87.9026 78.948C87.5841 78.948 87.3452 78.9249 87.0502 78.8007C86.4416 78.5444 85.3827 78.7586 84.756 78.7586C82.8511 78.7586 80.9463 78.7586 79.0415 78.7586C78.5775 78.7586 78.0215 78.5881 77.8102 79.0953C77.7561 79.225 77.6261 79.4621 77.4734 79.5058C77.1863 79.5878 76.7577 79.5163 76.4736 79.5163C74.7055 79.5163 72.9245 79.4545 71.159 79.5584C70.6045 79.591 70.48 79.7719 70.0856 79.8846C69.191 80.1402 67.9014 79.8952 66.9916 79.8952C66.4363 79.8952 63.0501 80.3991 65.0657 79.8952C65.5287 79.7794 65.9195 79.7346 66.4022 79.6636C66.9572 79.582 67.4679 79.1374 68.0124 79.1374C68.4451 79.1374 69.6938 80.9314 70.0014 81.3159C70.424 81.8441 72.2682 81.6754 72.885 81.5579C73.9755 81.3502 75.2277 81.0871 76.1474 80.474C76.5268 80.221 75.2353 80.4635 74.7793 80.4635C73.8812 80.4635 72.9832 80.4635 72.0851 80.4635C71.5479 80.4635 71.233 80.9546 70.7591 81.1791C70.1678 81.4592 69.5972 81.6 68.949 81.6C67.9823 81.6 67.3809 81.0813 66.5075 80.8318C65.8544 80.6452 65.0403 79.9223 64.3606 79.8952C63.7257 79.8698 62.8228 79.7208 62.4663 79.1374C62.2603 78.8004 61.6502 78.9828 61.2876 78.8533C60.4058 78.5384 60.4488 77.766 60.1405 76.9695C60.0179 76.653 59.6517 76.3228 59.5932 76.0013C59.4867 75.4157 59.5905 74.7394 59.5827 74.1491C59.5674 72.9865 59.3933 71.83 59.3933 70.6551C59.3933 69.0525 59.334 67.4366 59.3933 65.8352C59.429 64.8716 60.151 63.9895 60.151 62.9411C60.151 61.9243 60.0355 60.8342 60.1615 59.826C60.2441 59.1653 60.7751 57.5281 59.9616 57.1214C59.3754 56.8283 58.9752 56.9896 58.4461 56.4899C57.7749 55.856 57.6302 55.8614 56.8465 55.6375C56.5274 55.5463 56.486 54.7096 56.2361 54.4693C55.3369 53.6047 55.9584 54.4341 55.9835 52.9539C56.0136 51.1768 56.2346 49.8228 56.636 48.1023C57.3131 45.2005 57.3268 41.7724 59.267 39.3359C60.9925 37.169 64.6239 36.915 66.2338 34.5896C67.0343 33.4334 68.2075 32.3401 68.5281 30.9378C68.9177 29.233 71.0083 29.5281 72.4851 29.3171C76.3487 28.7652 80.272 29.2474 84.1245 28.7067C88.9867 28.0243 94.0425 28.37 98.9422 28.37C103.546 28.37 108.138 28.1805 112.739 28.1805C116.173 28.1805 119.518 28.3319 122.874 27.728C124.491 27.4369 126.327 27.6122 127.967 27.6122C131.053 27.6122 134.351 27.5894 137.355 28.37C139.187 28.846 140.712 29.0926 141.88 30.7273C142.241 31.2323 142.75 31.5981 143.132 32.0954C144.347 33.6744 144.904 35.6459 145.711 37.4416C146.708 39.6598 148.255 41.8394 148.91 44.1769C149.365 45.8038 149.373 47.3329 149.373 49.0179C149.373 49.8879 149.373 50.7579 149.373 51.6279C149.373 54.3035 146.806 55.4628 145.058 57.0793C143.723 58.3135 142.592 59.0616 140.975 59.8786C139.466 60.6406 138.147 61.2917 137.06 62.5728C135.857 63.9901 135.166 66.8522 135.166 68.7082C135.166 70.4337 134.766 71.4246 132.85 71.7496C130.883 72.0833 128.592 72.1145 126.62 71.8128C124.272 71.4535 122.077 70.4439 119.727 70.0658C117.877 69.7682 115.995 69.8553 114.128 69.8553C111.517 69.8553 108.898 69.7955 106.288 69.8553C104.313 69.9006 102.419 70.5644 100.416 70.6025C98.2636 70.6435 96.1062 70.624 93.9539 70.613C87.3 70.5793 80.6775 69.9144 74.0531 69.487C71.58 69.3274 69.7607 68.5902 67.7914 66.9928C66.2575 65.7487 64.5954 62.5495 66.739 61.1205C67.9011 60.3457 70.0228 60.7626 71.3064 60.7626C74.7221 60.7626 78.1417 60.7133 81.5567 60.7837C85.6794 60.8687 89.7695 61.4873 93.8907 61.5204C98.2239 61.5552 102.518 61.9374 106.846 62.0571C111.51 62.1861 116.186 62.2781 120.853 62.2781C122.039 62.2781 123.224 62.2781 124.41 62.2781C125.402 62.2781 126.651 62.4528 127.599 62.0466C129.312 61.3126 130.83 59.9836 132.261 58.8262C133.626 57.7229 134.719 56.1696 135.923 54.8798C136.595 54.1605 136.99 53.6947 135.734 53.6064C133.841 53.4733 131.917 53.5643 130.019 53.5643C120.088 53.5643 110.157 53.5643 100.226 53.5643C91.2464 53.5643 82.2611 53.4613 73.2849 53.7537C70.8483 53.8331 68.4186 53.9431 65.9813 53.9431C63.5598 53.9431 61.0602 54.0778 58.6356 53.9431C58.5314 53.9373 57.7264 53.715 57.6884 53.6485C57.4057 53.1537 56.7685 53.5643 57.7936 53.5643C59.6356 53.5643 61.3781 51.4643 62.7399 50.4281C64.8015 48.8595 67.7074 48.5443 70.0014 47.3972C73.2181 45.7889 76.9644 45.987 80.4622 45.987C86.2118 45.987 91.9614 45.987 97.7109 45.987C102.714 45.987 107.451 46.0385 112.392 46.85C118.932 47.9242 125.452 47.9501 132.051 48.2602C136.25 48.4576 140.687 48.7503 144.806 49.6704C146.81 50.1182 149.26 50.1491 150.278 52.3119C150.663 53.1311 150.506 54.0888 150.93 54.8903C151.16 55.3229 151.448 55.4586 151.33 55.4586C150.154 55.4586 148.901 54.5508 147.984 53.901C146.218 52.6503 144.796 51.1811 142.827 50.1966C141.127 49.3467 141.228 47.461 140.049 46.1344C138.972 44.9236 137.645 43.6263 136.87 42.1879C135.819 40.2347 134.338 39.5587 132.198 38.7466C129.974 37.9026 127.954 37.5472 125.557 37.4837C121.178 37.3677 116.813 37.0574 112.434 36.9364C103.884 36.7003 95.3077 36.8944 86.7555 36.8944C84.2594 36.8944 81.767 36.9103 79.2835 37.189C78.7727 37.2464 74.6757 37.4641 76.3789 38.2625C78.306 39.1658 80.3698 39.8665 82.367 40.5988C85.8182 41.8642 89.2062 43.2433 92.6068 44.64C96.3452 46.1754 99.8432 47.7422 103.846 48.5338C108.898 49.5326 113.897 50.7937 118.959 51.7331C120.382 51.9972 121.729 52.0488 123.168 52.0488C126.595 52.0488 129.72 52.2161 133.019 53.1433C135.707 53.8989 138.435 54.2819 141.185 54.5535C141.973 54.6313 143.039 54.5676 143.753 54.9324C144.116 55.1179 144.166 55.2185 144.563 55.2797C145.307 55.394 147.212 55.2125 147.668 55.6691C147.902 55.9026 147.964 56.3251 148.247 56.4899C148.599 56.6951 149.032 56.7503 149.394 56.953C150.19 57.398 150.86 57.9912 151.267 56.974" stroke="black" stroke-width="13" stroke-linecap="round"/>
<path d="M70.604 66.6705C70.604 67.2719 69.3556 67.0626 68.9894 67.388C68.4142 67.8994 68.1114 68.4032 67.357 68.7514C66.9463 68.9409 66.3569 68.9703 66.0026 69.2537C65.8699 69.3598 65.8514 69.5003 65.6797 69.5766C65.1802 69.7986 66.2193 69.7347 66.3345 69.738C66.8028 69.7518 67.2664 70.2076 67.6261 70.4646C68.1176 70.8156 68.7715 70.8172 69.2406 71.2629C69.6519 71.6536 69.8923 72.3339 70.3169 72.6442C71.0324 73.167 71.8235 73.7175 72.5414 74.1331C72.97 74.3813 72.9349 75.0659 73.519 75.0659C74.7457 75.0659 76.0174 75.43 77.2414 75.5413C77.9021 75.6014 78.5882 75.5503 79.2506 75.5503C79.5737 75.5503 80.8045 75.3469 81.0624 75.622C81.462 76.0483 82.6752 76.0067 83.224 76.0257C85.9066 76.1182 88.6235 76.0655 91.3056 76.0346C91.9794 76.0269 92.6566 75.9685 93.3237 75.8732C93.6248 75.8302 93.8347 75.6021 94.113 75.5593C94.8063 75.4526 95.5725 75.5503 96.2747 75.5503C96.999 75.5503 97.3649 75.632 97.9789 75.8553C98.4691 76.0335 99.0553 76.1961 99.5844 76.1961C101.079 76.1961 102.574 76.3575 104.078 76.3575C105.459 76.3575 106.841 76.3575 108.222 76.3575C110.525 76.3575 112.763 75.8732 115.057 75.8732C118.268 75.8732 121.642 76.1118 124.816 75.631C125.464 75.5327 126.452 75.3155 127.112 75.3888C127.372 75.4177 127.797 75.8726 128.081 75.9988C128.856 76.3432 129.819 76.2478 130.583 75.9539C131.827 75.4753 133.006 75.6192 133.884 74.6533C134.572 73.8961 135.593 73.1129 136.476 72.6083C137.272 72.1536 138.062 71.8083 138.934 71.5499C139.286 71.4455 139.802 71.5013 140.109 71.2629C140.494 70.9633 140.846 71.1671 141.239 70.9489C141.708 70.6883 141.947 69.1099 142.127 68.5272C142.5 67.314 142.611 66.2544 142.611 64.9663C142.611 64.256 142.241 63.6281 142.127 62.9123C141.997 62.102 141.716 61.1284 141.32 60.4098C140.972 59.7801 140.651 59.0637 140.441 58.3737C140.266 57.8 139.951 57.3426 139.786 56.813C139.582 56.1596 139.097 55.6461 139.059 54.9563C139.009 54.0261 138.5 53.0752 138.333 52.1399C138.026 50.424 137.617 48.612 137.05 46.9734C136.543 45.5076 135.75 44.0821 134.987 42.7398C134.487 41.8591 134.375 40.7961 134.054 39.8337C133.789 39.0393 133.321 37.7944 133.256 36.9545C133.126 35.2672 132.304 34.7807 130.834 34.6942C130.142 34.6535 129.716 34.2803 129.103 34.0574C127.428 33.4481 125.549 33.4765 123.847 32.8913C122.719 32.5037 121.521 32.1199 120.349 32.1199C118.92 32.1199 117.491 32.1199 116.061 32.1199C107.346 32.1199 98.6582 31.9585 89.9422 31.9585C87.6678 31.9585 85.2336 31.4143 83.1164 32.2904C82.0409 32.7354 80.761 33.0528 79.8067 33.7345C79.3531 34.0584 78.8074 34.1045 78.2818 34.2547C77.5951 34.4509 77.1411 35.1112 76.4162 35.1875C76.025 35.2287 75.9318 35.585 75.9318 35.932C75.9318 36.9264 75.8187 37.7647 75.4834 38.7036C75.0277 39.9794 74.0902 41.305 73.4383 42.5156C72.5789 44.1117 72.141 45.8273 71.7341 47.5565C71.4934 48.5793 71.4112 48.3437 71.4112 47.4578C71.4112 46.927 71.3075 46.3274 71.5368 45.8433C72.0164 44.8308 72.4827 43.8609 72.8643 42.8116C73.0173 42.3909 73.1872 41.8807 73.1872 41.4303C73.1872 40.4988 73.2285 43.4089 72.7118 44.1839C72.4168 44.6264 71.9344 45.1543 71.8956 45.7177C71.8413 46.5052 71.2786 47.1272 71.2498 47.9063C71.2139 48.8752 70.965 49.8837 70.4425 50.7048C70.0909 51.2573 70.0567 51.9458 69.7249 52.4987C69.2986 53.2093 68.9666 53.983 68.819 54.7949C68.6612 55.6628 68.086 56.5509 68.0207 57.4319C67.9278 58.6864 67.1643 59.5249 66.765 60.643C66.4553 61.51 66.2093 62.658 66.0923 63.5939C66.0024 64.3129 65.7425 64.8927 65.4016 65.5403C65.3541 65.6306 64.684 66.1532 64.8635 66.2579C65.2489 66.4827 65.9747 66.3476 66.4062 66.3476C67.5065 66.3476 68.6067 66.3476 69.707 66.3476C74.2483 66.3476 78.7823 66.3121 83.3227 66.222C95.597 65.9783 107.893 66.1861 120.169 66.1861C121.16 66.1861 122.193 66.3184 123.12 65.9081C124.339 65.369 125.418 64.9698 126.753 64.8138C128.015 64.6663 129.478 64.849 130.673 64.4012C131.112 64.2364 132 63.5025 131.848 62.9392C131.555 61.8534 130.184 61.181 129.3 60.6788C127.363 59.5773 125.364 58.8036 123.183 58.3557C116.507 56.9848 109.529 57.3063 102.751 57.3063C96.2205 57.3063 89.697 57.3883 83.1971 56.6246C80.4293 56.2994 77.684 55.8365 74.9093 55.5573C74.5346 55.5195 72.463 55.7073 72.3889 54.9294C72.2311 53.2722 72.5878 52.1144 73.7612 50.92C75.2769 49.3773 77.5376 48.2427 79.6632 47.8973C82.934 47.3658 85.9384 48.3775 89.117 48.8929C91.0101 49.1999 92.8658 49.6815 94.7499 50.041C98.6123 50.778 102.526 51.1223 106.446 51.3864C111.228 51.7087 116.079 51.4941 120.869 51.4941C122.566 51.4941 124.266 51.5183 125.964 51.4941C127.503 51.4721 128.043 51.2744 127.076 49.8796C126.63 49.2359 126.055 48.6689 125.757 47.9332C125.407 47.067 125.216 46.2376 124.484 45.5921C122.536 43.8761 119.322 43.5332 116.887 43.1435C112.554 42.4502 108.163 42.6143 103.791 42.6143C99.0242 42.6143 94.2001 42.7769 89.4399 42.4169C87.9636 42.3053 86.1916 42.5899 84.8117 42.1299" stroke="#E0353F" stroke-width="13" stroke-linecap="round"/>
<path d="M71.1318 27.849L58.4038 63.0944" stroke="#E0353F"/>
<path d="M150.535 62.9434L137 28" stroke="#E0353F"/>
<line x1="152.926" y1="36.1164" x2="157.004" y2="35.5055" stroke="black"/>
<line x1="158.926" y1="61.1164" x2="163.004" y2="60.5055" stroke="black"/>
<line x1="51.4872" y1="35.1124" x2="45.4872" y2="61.1124" stroke="black"/>
<line x1="163.511" y1="61.1129" x2="157.513" y2="35.1124" stroke="black"/>
<line x1="51.0741" y1="35.5055" x2="55.1517" y2="36.1164" stroke="black"/>
<line x1="46.0741" y1="60.5055" x2="50.1517" y2="61.1164" stroke="black"/>
<line x1="55.5427" y1="36.8764" x2="58.5173" y2="25.8696" stroke="black"/>
<line x1="55.5427" y1="36.8764" x2="58.5173" y2="25.8696" stroke="black"/>
<line x1="150.483" y1="25.8696" x2="153.457" y2="36.8766" stroke="black"/>
<line x1="150.483" y1="25.8696" x2="153.457" y2="36.8766" stroke="black"/>
<line x1="158.429" y1="60.9961" x2="158.572" y2="77.9955" stroke="black"/>
<line x1="50.4297" y1="77.9955" x2="50.5721" y2="60.9961" stroke="black"/>
<line x1="84" y1="24.5" x2="124" y2="24.5" stroke="#E0353F"/>
<line x1="70.9012" y1="28.6462" x2="84.8583" y2="24.5205" stroke="#E0353F"/>
<line x1="123.185" y1="24.5202" x2="137.142" y2="28.6465" stroke="#E0353F"/>
<line x1="58.5" y1="62" x2="58.5" y2="75" stroke="#E0353F"/>
<line x1="150.5" y1="62" x2="150.5" y2="75" stroke="#E0353F"/>
<line x1="64" y1="55" x2="97" y2="55" stroke="white" stroke-width="10"/>
<line x1="106" y1="46" x2="141" y2="46" stroke="white" stroke-width="10"/>
<line x1="94.091" y1="55.7699" x2="109.24" y2="44.9334" stroke="white" stroke-width="10"/>
<path d="M61.4902 30.5544C61.4902 30.329 61.4397 30.0213 61.5012 29.7983C61.564 29.5708 61.6751 29.3503 61.7275 29.1251C61.7831 28.8859 61.9117 28.8401 62.0365 28.6561C62.226 28.3767 62.4258 28.0927 62.5828 27.7952C62.8282 27.3302 62.9894 26.7677 63.3885 26.3936C63.7878 26.0192 64.2782 25.7797 64.6687 25.3893" stroke="black" stroke-width="2" stroke-linecap="round"/>
<path d="M58.5914 32.7537C58.601 32.7525 58.6027 32.7285 58.5945 32.7262C58.5802 32.7221 58.5608 32.7258 58.546 32.7258C58.5117 32.7258 58.4988 32.7554 58.4881 32.7833C58.4733 32.8217 58.4506 32.8499 58.4306 32.8858C58.4108 32.9214 58.4031 32.9669 58.3887 33.0054" stroke="white" stroke-width="2" stroke-linecap="round"/>
<path d="M58.382 33.0054C58.382 32.9643 58.389 32.9245 58.389 32.8827C58.389 32.8329 58.4168 32.7813 58.4345 32.7363C58.4681 32.6503 58.4935 32.5584 58.532 32.4741C58.5524 32.4292 58.5662 32.3821 58.5871 32.3374C58.5981 32.3139 58.6115 32.2875 58.6127 32.2612C58.6153 32.2081 58.6197 32.1552 58.6197 32.102C58.6197 31.9874 58.6127 31.8733 58.6127 31.7574C58.6127 31.7078 58.6127 31.6583 58.6127 31.6087C58.6127 31.51 58.6264 31.4333 58.6586 31.3407C58.6789 31.2823 58.6943 31.2246 58.7168 31.1666C58.7314 31.1291 58.7415 31.092 58.7592 31.0552C58.7749 31.0225 58.7971 30.9904 58.8085 30.9561C58.824 30.9096 58.8538 30.8656 58.8644 30.8178C58.8675 30.804 58.8791 30.7945 58.885 30.7817C58.8932 30.764 58.8913 30.7463 58.9029 30.7301C58.9108 30.7191 58.9134 30.7087 58.9134 30.727C58.9134 30.7756 58.9144 30.8244 58.9118 30.873C58.9062 30.9814 58.8974 31.1024 58.8714 31.2078C58.8245 31.3981 58.694 31.5565 58.6182 31.7361C58.5644 31.8635 58.4992 31.9818 58.438 32.1043C58.3722 32.2357 58.4004 32.3951 58.3812 32.5362C58.3678 32.6353 58.3645 32.7264 58.361 32.8252C58.3601 32.8537 58.3471 32.9028 58.3269 32.9246C58.2836 32.9714 58.2621 33.0156 58.2422 33.0754" stroke="black" stroke-width="2" stroke-linecap="round"/>
<path d="M57.5146 32.6755C57.5445 32.6718 57.484 32.6421 57.4774 32.6384C57.4448 32.6203 57.4632 32.6003 57.444 32.5811C57.422 32.5591 57.3996 32.5326 57.3702 32.5555C57.3221 32.5928 57.3456 32.5555 57.3615 32.5192C57.3749 32.4885 57.3795 32.4615 57.389 32.428C57.4029 32.3788 57.4326 32.3345 57.4449 32.2841C57.4558 32.2395 57.4531 32.1927 57.4586 32.1475C57.4634 32.1089 57.4631 32.1248 57.4586 32.1512C57.4491 32.2074 57.4409 32.2618 57.4238 32.3162C57.4007 32.3896 57.3754 32.4637 57.3431 32.5344C57.3175 32.5905 57.3166 32.6163 57.3166 32.6792C57.3166 32.718 57.3115 32.76 57.317 32.7984C57.3207 32.8244 57.3412 32.7485 57.3422 32.7457C57.3731 32.664 57.4322 32.5904 57.4563 32.506C57.4731 32.4474 57.5008 32.3951 57.5187 32.3377C57.5395 32.2711 57.5476 32.2177 57.5476 32.1475C57.5476 32.1006 57.5631 32.0641 57.5769 32.0192C57.5842 31.9955 57.5943 31.9721 57.5989 31.9477C57.604 31.9206 57.6073 31.8744 57.6209 31.8515C57.6391 31.8205 57.6558 31.7843 57.6786 31.7566C57.6933 31.7388 57.6916 31.7139 57.7006 31.6933C57.7224 31.6435 57.6796 31.6303 57.6796 31.582C57.6796 31.5372 57.6861 31.5001 57.708 31.4596C57.715 31.4466 57.7126 31.4313 57.7126 31.4169C57.7126 31.3848 57.7276 31.3595 57.7428 31.3322C57.8114 31.2087 57.8638 31.0706 57.8922 30.932C57.904 30.8747 57.901 30.8173 57.9206 30.7615C57.9341 30.7233 57.9314 30.6777 57.9472 30.6414C57.9714 30.5861 57.9603 30.5118 57.9866 30.4563C58.0048 30.4179 58.0096 30.3638 58.0096 30.3206C58.0096 30.2732 58.0459 30.2353 58.0504 30.1886C58.0556 30.1335 58.0886 30.0809 58.0925 30.0236C58.0954 29.9818 58.1086 29.9191 58.1292 29.882C58.1438 29.8557 58.1381 29.8324 58.1434 29.8045C58.1494 29.7727 58.1706 29.7482 58.1764 29.7165C58.1883 29.6517 58.2243 29.5977 58.2424 29.5369C58.2619 29.4711 58.2992 29.4177 58.3359 29.3609C58.3432 29.3496 58.3538 29.317 58.3661 29.3114C58.3897 29.3005 58.4654 29.3797 58.4798 29.392" stroke="black" stroke-width="0.2" stroke-linecap="round"/>
<path d="M157.702 58.356C157.702 58.0663 157.566 57.7231 157.48 57.4437C157.304 56.8735 157.321 56.2165 157.246 55.6254C157.211 55.3577 157.058 55.1075 157.036 54.8487C157.005 54.477 156.881 54.0348 156.771 53.6775C156.632 53.2252 156.472 52.784 156.346 52.3338C156.294 52.1493 156.336 51.9646 156.312 51.779C156.278 51.5266 156.204 51.3331 156.204 51.0671C156.204 50.6476 156.195 50.3448 156.065 49.9545C155.998 49.7538 156.02 49.5274 155.994 49.3196C155.921 48.7177 155.651 48.1566 155.458 47.5875C155.353 47.2768 155.337 46.9256 155.233 46.6074C155.137 46.3116 155.14 45.7753 154.983 45.541" stroke="black" stroke-width="2" stroke-linecap="round"/>
<path d="M150.512 34.1218C150.591 34.0752 150.68 34.0307 150.755 33.976C150.792 33.9485 150.798 33.9042 150.85 33.8889C150.987 33.8482 151.149 33.9163 151.287 33.8808C151.339 33.8675 151.368 33.6012 151.348 33.5467C151.341 33.5266 151.282 33.4156 151.266 33.4029C151.201 33.3521 151.18 33.2706 151.123 33.2105C151.073 33.1578 151.032 33.0331 151.004 32.9635C150.931 32.7828 150.823 32.6371 150.775 32.4451C150.723 32.2357 150.698 32.0352 150.668 31.8194C150.657 31.7427 150.603 31.5213 150.641 31.5885C150.682 31.6597 150.707 31.739 150.751 31.8103C150.814 31.9133 150.906 32.0219 150.934 32.1413C150.972 32.3068 151.058 32.4771 151.127 32.6314C151.212 32.8204 151.263 33.1077 151.423 33.2409C151.509 33.3124 151.516 33.4595 151.568 33.5548C151.608 33.6287 151.6 33.6861 151.632 33.571C151.675 33.412 151.679 33.2374 151.623 33.083C151.593 32.9987 151.591 32.9155 151.551 32.8359C151.501 32.7399 151.422 32.607 151.35 32.5281C151.311 32.4853 151.272 32.4516 151.243 32.3985C151.176 32.2794 151.174 32.136 151.109 32.0198C151.062 31.9343 151.019 31.8349 151 31.7384C150.975 31.6133 150.923 31.5126 150.869 31.3972C150.812 31.2743 150.83 31.0926 150.811 30.9588C150.799 30.8715 150.795 30.7834 150.783 30.6965C150.776 30.6409 150.733 30.6019 150.721 30.5457C150.679 30.3488 150.556 30.1911 150.544 29.9827C150.538 29.8712 150.654 29.9982 150.682 30.0313C150.71 30.0657 150.699 30.1013 150.72 30.1346C150.775 30.2209 150.832 30.2935 150.867 30.3948C150.93 30.5733 151.011 30.7377 151.036 30.9264C151.043 30.9733 151.03 31.0289 151.044 31.0742C151.054 31.1036 151.076 31.1224 151.077 31.1552C151.079 31.2364 151.077 31.3129 151.113 31.3881C151.14 31.4437 151.172 31.5044 151.19 31.5622C151.215 31.6446 151.224 31.7346 151.259 31.8143C151.316 31.9455 151.325 32.0962 151.387 32.2264C151.421 32.2984 151.437 32.349 151.441 32.4269C151.444 32.4769 151.49 32.5224 151.497 32.5737C151.512 32.694 151.561 32.7812 151.586 32.8916C151.601 32.9613 151.531 32.8168 151.524 32.8096C151.481 32.7602 151.484 32.5847 151.474 32.516C151.457 32.4136 151.416 32.3 151.405 32.2041C151.4 32.1633 151.368 32.1195 151.356 32.0786C151.306 31.9045 151.264 31.7267 151.197 31.5582C151.124 31.3742 151.097 31.1783 151.032 30.9912C150.986 30.8558 150.934 30.7272 150.894 30.5902C150.854 30.4507 150.785 30.2935 150.785 30.1488C150.785 30.0307 150.739 29.9441 150.713 29.8298C150.703 29.7837 150.724 29.7304 150.711 29.6851C150.695 29.6292 150.676 29.5923 150.676 29.5291C150.676 29.4684 150.667 29.652 150.68 29.7114C150.708 29.8413 150.759 29.9569 150.811 30.0769C150.848 30.1614 150.855 30.258 150.904 30.3391C150.947 30.4117 150.992 30.4747 151.005 30.5568C151.029 30.7113 151.073 30.8643 151.077 31.0236C151.078 31.0823 151.11 31.1532 151.127 31.2099C151.164 31.329 151.16 31.4569 151.194 31.5784C151.232 31.714 151.222 31.8679 151.222 32.0077" stroke="black" stroke-width="0.5" stroke-linecap="round"/>
<path d="M152.639 36.8599C152.657 36.8619 152.677 36.8754 152.694 36.8827C152.725 36.896 152.736 36.877 152.761 36.8646C152.788 36.8512 152.816 36.8412 152.841 36.8258C152.867 36.81 152.914 36.7948 152.929 36.771C152.938 36.7563 153.093 36.7575 153.117 36.7575C153.192 36.7575 153.263 36.7389 153.337 36.7389C153.417 36.7389 153.497 36.7389 153.578 36.7389C153.648 36.7389 153.728 36.7492 153.795 36.7239C153.934 36.6718 154.09 36.6831 154.236 36.6831C154.349 36.6831 154.462 36.6831 154.575 36.6831C154.626 36.6831 154.676 36.6666 154.728 36.665C154.825 36.662 154.918 36.6365 155.016 36.6365C155.127 36.6365 155.237 36.6365 155.347 36.6365" stroke="black" stroke-width="0.5" stroke-linecap="round"/>
<path d="M52.7786 70.4179C52.7786 70.1607 52.7606 69.6834 52.6257 69.4612C52.4487 69.1695 52.5748 68.5114 52.5748 68.1789C52.5748 67.6974 52.6257 67.2294 52.6257 66.7467C52.6257 66.2978 52.8506 65.9698 52.9201 65.5267C53.0468 64.7189 52.92 63.8742 52.9852 63.0585C53.0026 62.8416 53.1862 62.6567 53.1862 62.4443C53.1862 62.299 53.1862 62.1537 53.1862 62.0084C53.1862 61.5131 53.0843 61.0298 53.0843 60.5337" stroke="black" stroke-width="2" stroke-linecap="round"/>
<path d="M51.5348 59.2778C51.3336 59.0949 50.9686 59.0151 50.7102 58.9761C50.405 58.9299 50.0967 58.8723 49.7944 58.8085C49.5855 58.7644 49.3802 58.7268 49.1695 58.6932C49.0645 58.6764 48.9036 58.6632 48.8129 58.5966C48.7373 58.5412 48.6394 58.5343 48.5527 58.5028C48.4217 58.4551 48.2901 58.3682 48.1679 58.3003C47.9966 58.2051 48.1346 58.2158 48.2752 58.2158C48.449 58.2158 48.6229 58.2158 48.7968 58.2158C49.1348 58.2158 49.5197 58.2919 49.8453 58.3794C49.9034 58.395 49.9843 58.3934 50.0384 58.4196C50.0809 58.4403 50.1096 58.4768 50.1591 58.4813C50.4189 58.5049 50.6761 58.5882 50.9368 58.6207C51.0072 58.6296 51.0782 58.622 51.1486 58.6315C51.1707 58.6344 51.3049 58.6718 51.2908 58.6583C51.2068 58.5779 51.0656 58.5556 50.9663 58.5014C50.8893 58.4594 50.8202 58.3876 50.7437 58.3405C50.5739 58.236 50.3198 58.2033 50.1363 58.1568C49.6793 58.0411 49.2352 58.0117 48.7713 57.9624C48.6304 57.9474 48.4903 57.9262 48.3489 57.9262C48.2137 57.9262 48.0164 57.7882 48.011 57.6419C48.0095 57.6001 47.9906 57.4775 48.0164 57.4488C48.0828 57.375 48.314 57.4917 48.3838 57.5105C48.6162 57.5733 48.8756 57.5915 49.1132 57.6366C49.3837 57.6878 49.6272 57.7244 49.8989 57.7344C50.1444 57.7435 50.8461 57.9814 50.6203 57.8846C50.4906 57.829 50.37 57.7402 50.2503 57.6661C50.1706 57.6167 50.1132 57.4874 50.0277 57.4623C49.9277 57.4328 49.8593 57.3714 49.7541 57.3523C49.624 57.3286 49.5007 57.3027 49.3707 57.2745C49.1804 57.2333 48.9848 57.2187 48.7954 57.1767C48.7524 57.1671 48.6347 57.1421 48.6158 57.1042C48.5719 57.0166 48.4376 56.9325 48.3637 56.875C48.2546 56.7901 48.5209 56.7912 48.542 56.7918C48.6355 56.7944 48.7184 56.8331 48.8102 56.8455C49.0823 56.8822 49.3507 56.9323 49.6174 56.9983C49.8265 57.0501 50.4764 57.0573 50.261 57.0573C50.2154 57.0573 50.1576 57.0672 50.1135 57.0546C50.0741 57.0434 50.1021 56.9983 50.0719 56.9849C50.0139 56.9591 49.9753 56.9169 49.9284 56.875C49.8464 56.8015 49.7366 56.7777 49.6522 56.706C49.5963 56.6585 49.5103 56.6236 49.4457 56.58C49.3894 56.5419 49.3228 56.5518 49.258 56.5397C49.1254 56.515 48.9956 56.4896 48.8611 56.4781C48.7968 56.4726 48.7342 56.4223 48.6707 56.4057C48.5568 56.3757 48.4484 56.333 48.3409 56.285C48.2083 56.2258 48.2654 56.1884 48.3717 56.1884C48.5258 56.1884 48.6751 56.2041 48.8276 56.2273C49.095 56.2681 49.3641 56.2954 49.6281 56.344C49.7461 56.3657 49.833 56.3735 49.7126 56.2716C49.5189 56.1077 49.368 55.9739 49.1266 55.8935C49.0394 55.8644 48.9602 55.8155 48.8611 55.8023C48.8066 55.795 48.7618 55.7362 48.711 55.7299C48.6698 55.7247 48.5766 55.6672 48.5568 55.632C48.4756 55.4877 48.6368 55.4885 48.7337 55.4885C49.0795 55.4885 49.4114 55.5609 49.7568 55.5609C49.8248 55.5609 50.0286 55.5609 49.9606 55.5609C49.9 55.5609 49.8459 55.5525 49.7863 55.5422C49.6832 55.5243 49.5889 55.478 49.5074 55.4108C49.3544 55.2843 49.0993 55.1655 48.904 55.1265C48.8705 55.1198 48.8526 55.06 48.8558 55.0299C48.8598 54.9913 48.9574 55.0058 48.9818 55.0058C49.1349 55.0058 49.3385 55.0565 49.3385 54.8489C49.3385 54.6853 49.2592 54.561 49.1601 54.44C49.1268 54.3993 49.1454 53.983 49.1454 54.2147C49.1454 54.6073 49.1213 55.0021 49.1213 55.392" stroke="black" stroke-width="0.5" stroke-linecap="round"/>
<path d="M147.062 73.0752C147.252 73.2299 147.618 73.3033 147.843 73.3533C147.952 73.3774 148.037 73.4874 148.153 73.5247C148.488 73.6325 148.746 73.663 149.096 73.676C149.215 73.6803 149.263 73.721 149.203 73.5491C149.145 73.3835 149.11 73.2254 149.105 73.053C149.101 72.9096 149.09 72.6968 149.005 72.5746C148.849 72.349 148.62 72.2515 148.433 72.065C148.4 72.0315 148.158 71.7981 148.248 71.758C148.451 71.668 148.715 71.9481 148.927 71.9538C149.065 71.9575 149.233 71.981 149.365 71.9516C149.473 71.9276 149.438 71.6438 149.394 71.5844C149.314 71.4744 149.308 71.2903 149.216 71.1661C149.14 71.0622 148.947 70.82 148.807 70.7946C148.583 70.7539 148.653 70.5291 148.616 70.3696C148.572 70.1844 148.479 69.9504 148.507 69.7555C148.524 69.634 148.859 69.779 148.923 69.8334C148.966 69.8707 149.197 70.187 149.256 70.1738C149.323 70.1591 149.265 68.9143 149.265 68.7898C149.265 68.3123 149.293 67.8243 149.256 67.348C149.233 67.0375 149.185 66.7123 149.185 66.4024C149.185 65.43 149.185 64.4577 149.185 63.4854C149.185 63.2766 149.21 62.9213 149.005 62.7845C148.943 62.7429 148.856 62.5424 148.816 62.4619C148.752 62.3343 148.728 62.1766 148.682 62.0391C148.631 61.8851 148.573 61.7515 148.504 61.603C148.452 61.489 148.505 61.3374 148.442 61.2381C148.283 60.9878 148.433 60.6183 148.184 60.4193" stroke="#E0353F" stroke-width="2" stroke-linecap="round"/>
<path d="M148.028 60.0597C148.018 59.9618 147.959 59.8751 147.907 59.7945C147.76 59.5677 147.81 59.3095 147.718 59.0725C147.644 58.8842 147.569 58.6974 147.497 58.5106C147.411 58.2872 147.413 58.0742 147.361 57.8385C147.334 57.7208 147.243 57.6373 147.227 57.5103C147.209 57.3652 147.222 57.2691 147.109 57.1559C146.929 56.9764 146.8 56.701 146.647 56.4942C146.441 56.2183 146.201 55.8977 146.09 55.5701C145.962 55.1948 145.878 54.7813 145.809 54.3912C145.743 54.0167 145.523 53.6871 145.523 53.2937C145.523 52.8014 145.398 52.1922 145.189 51.7394C144.928 51.1738 144.858 50.5224 144.53 49.983C144.281 49.5717 144.061 49.2384 144.008 48.7647C143.988 48.5829 143.927 48.2747 143.858 48.1031C143.779 47.9059 143.843 47.7938 143.68 47.6305" stroke="#E0353F" stroke-width="2" stroke-linecap="round"/>
<path d="M141.594 41.2518C141.594 41.2119 141.583 41.1439 141.554 41.1154C141.512 41.0733 141.432 41.042 141.406 40.9883C141.366 40.9093 141.315 40.8363 141.287 40.7522C141.266 40.6892 141.233 40.6328 141.212 40.5691C141.196 40.5213 141.2 40.4701 141.182 40.423C141.155 40.3562 141.077 40.3025 141.06 40.2355C141.046 40.1771 141.007 40.1254 140.998 40.0641C140.987 39.9907 140.95 39.9361 140.924 39.8674C140.912 39.8348 140.918 39.8031 140.902 39.7705C140.889 39.7449 140.883 39.7181 140.871 39.6921C140.845 39.6317 140.822 39.5686 140.791 39.5105C140.745 39.4257 140.723 39.3388 140.686 39.2514C140.632 39.1245 140.594 38.9881 140.551 38.857C140.529 38.7899 140.505 38.7306 140.494 38.6617C140.484 38.6033 140.465 38.5478 140.439 38.4947C140.384 38.3824 140.333 38.2715 140.29 38.1519C140.253 38.049 140.222 37.9392 140.196 37.8334C140.171 37.7351 140.126 37.6406 140.088 37.5462C140.065 37.4882 140.054 37.4297 140.025 37.3733C139.997 37.3189 139.96 37.2467 139.955 37.1848C139.951 37.1387 139.93 37.1008 139.911 37.0621" stroke="#E0353F" stroke-width="0.5" stroke-linecap="round"/>
<path d="M137.436 31.5213C137.436 31.4212 137.368 31.4146 137.331 31.339C137.277 31.2328 137.199 31.1416 137.135 31.0352C137.09 30.961 137.098 30.8727 137.056 30.7967C137.038 30.7639 137.021 30.727 137.011 30.6909C136.967 30.5355 136.88 30.331 136.795 30.1914C136.747 30.1116 136.707 29.987 136.627 29.9326C136.599 29.9131 136.559 29.9031 136.534 29.8809C136.47 29.8242 136.322 29.7948 136.24 29.7684C135.979 29.684 135.737 29.5453 135.494 29.4308C135.401 29.387 135.311 29.3808 135.212 29.3611C135.039 29.3265 134.875 29.2672 134.7 29.2373C134.474 29.1986 134.229 29.1753 134.024 29.0697C133.65 28.8768 133.276 28.7445 132.866 28.6298C132.526 28.5345 132.188 28.4185 131.845 28.335C131.735 28.3084 131.633 28.3063 131.536 28.2416C131.511 28.2249 131.501 28.1962 131.474 28.1809C131.406 28.1415 131.316 28.1346 131.242 28.1077C130.992 28.0174 130.753 27.919 130.508 27.8152C130.38 27.7609 130.243 27.7557 130.118 27.6948C130.012 27.6438 129.902 27.604 129.789 27.5733C129.5 27.4948 129.201 27.5105 128.909 27.4417C128.742 27.4021 128.572 27.3883 128.404 27.3539C128.348 27.3424 128.283 27.3486 128.233 27.3157C128.141 27.2549 128.04 27.2311 127.934 27.1986C127.773 27.1494 127.613 27.0528 127.45 27.0231C127.349 27.0047 127.258 26.938 127.16 26.9084C127.02 26.8665 126.874 26.853 126.734 26.8116C126.577 26.7647 126.413 26.7449 126.251 26.7149C126.006 26.6696 125.771 26.6178 125.531 26.5506C125.126 26.4378 124.732 26.2967 124.33 26.1771C124.145 26.1219 123.946 26.1127 123.766 26.0375C123.636 25.9828 123.518 25.9266 123.384 25.8902C123.311 25.8703 123.274 25.79 123.189 25.79C123.139 25.79 123.055 25.732 123.001 25.7135C122.697 25.6082 122.358 25.6666 122.039 25.6291C121.42 25.5562 120.821 25.5875 120.202 25.5875" stroke="#E0353F" stroke-width="2" stroke-linecap="round"/>
<path d="M119.727 25.5009C119.277 25.5009 118.826 25.5009 118.376 25.5009C117.591 25.5009 116.814 25.4139 116.031 25.4001C115.745 25.395 115.458 25.3988 115.172 25.4001C114.996 25.4009 114.914 25.4488 114.761 25.4673C114.62 25.4844 114.466 25.4758 114.328 25.5065C114.159 25.544 114.036 25.6017 113.857 25.6017C113.522 25.6017 113.187 25.6017 112.851 25.6017C112.288 25.6017 111.725 25.6017 111.162 25.6017C109.898 25.6017 108.634 25.6017 107.37 25.6017C106.773 25.6017 106.165 25.6079 105.572 25.542C104.755 25.4512 103.935 25.3665 103.111 25.3665C102.243 25.3665 101.359 25.4013 100.497 25.3067C99.9268 25.2441 99.3535 25.2657 98.7797 25.2657C98.516 25.2657 98.2602 25.2004 97.9956 25.1984C97.5376 25.195 97.0717 25.2166 96.6159 25.163C96.1653 25.11 95.6991 25.0976 95.2455 25.0976C94.6313 25.0976 94.0209 25.064 93.4103 25.064C92.3809 25.064 91.3516 25.064 90.3223 25.064" stroke="#E0353F" stroke-width="2" stroke-linecap="round"/>
<path d="M89.4975 25.3428C89.098 25.3428 88.6985 25.3428 88.299 25.3428C88.1945 25.3428 88.09 25.3428 87.9855 25.3428C87.8663 25.3428 87.7126 25.3146 87.5992 25.3524C87.4931 25.3878 87.3262 25.3984 87.214 25.4006C87.075 25.4033 86.9396 25.4081 86.8009 25.4156C86.3444 25.4402 85.8571 25.3745 85.4098 25.5087C85.2281 25.5632 85.0518 25.5687 84.864 25.5739C84.7715 25.5765 84.6576 25.6359 84.5687 25.6638C84.4485 25.7016 84.3259 25.7668 84.2006 25.7847C84.1276 25.7952 83.9766 25.803 83.9502 25.8821" stroke="#E0353F" stroke-width="2" stroke-linecap="round"/>
<path d="M67.5513 40.7127C67.4475 40.6998 67.6218 40.4496 67.6401 40.4002C67.6968 40.2471 67.7053 40.1475 67.7112 39.9847C67.7165 39.8363 67.8576 39.6753 67.9349 39.555C68.1213 39.2651 68.202 38.8238 68.2403 38.4896C68.2503 38.4029 68.2571 38.3045 68.2883 38.2214C68.3036 38.1806 68.3457 38.161 68.3504 38.1167C68.3614 38.0143 68.4348 37.9608 68.4481 37.8681C68.4569 37.8061 68.5001 37.6739 68.5422 37.6266C68.6063 37.5544 68.5673 37.4374 68.6399 37.3709C68.7653 37.2559 68.7688 36.9958 68.8441 36.8453C68.8862 36.761 68.8675 36.6624 68.9115 36.5718C68.9536 36.4851 68.976 36.4079 69.0287 36.3267C69.1617 36.1222 69.2315 35.8947 69.3519 35.6839C69.4201 35.5647 69.4961 35.3149 69.5011 35.1761C69.5072 35.0051 69.5517 34.8915 69.6218 34.7357C69.6513 34.6703 69.6871 34.6058 69.7106 34.5386C69.7626 34.3901 69.8688 34.2221 69.8829 34.068C69.9071 33.801 69.941 33.649 70.1101 33.4235C70.2241 33.2715 70.2211 33.0592 70.2753 32.8819C70.3347 32.6874 70.4932 32.515 70.5487 32.3136C70.6054 32.1082 70.6148 31.8678 70.7334 31.6815C70.9141 31.3975 71.1768 31.1068 71.2892 30.7883C71.3359 30.6562 71.3955 30.5279 71.4579 30.403C71.4977 30.3235 71.4709 30.2411 71.4845 30.1526C71.5254 29.8871 71.7697 29.8943 71.9054 29.6856C71.9486 29.6191 72.0036 29.5877 72.0581 29.54C72.1195 29.4862 72.2026 29.5208 72.257 29.4725C72.4005 29.3449 72.7121 29.3189 72.8962 29.2523C73.0793 29.1861 73.2833 29.183 73.4716 29.1103C73.594 29.063 73.7331 29.0077 73.8622 28.9842C74.0114 28.9571 74.1054 28.9123 74.2475 28.8581C74.5439 28.7452 74.8501 28.656 75.1514 28.5633C75.2062 28.5465 75.2356 28.4956 75.2881 28.4746C75.351 28.4494 75.422 28.4501 75.4852 28.4248C75.6327 28.3658 75.7722 28.3003 75.9238 28.2473C76.4702 28.056 77.0234 27.8835 77.5983 27.8069C78.1509 27.7332 78.6508 27.4638 79.1485 27.228C79.4617 27.0796 79.7993 26.9923 80.1127 26.8551C80.2699 26.7863 80.5521 26.8371 80.6561 26.6811" stroke="#E0353F" stroke-width="2" stroke-linecap="round"/>
<path d="M59.6833 63.3311C59.6833 63.2094 59.5889 63.1845 59.5889 63.0617C59.5889 62.8316 59.7068 62.6485 59.7953 62.4391C59.9711 62.0227 60.1241 61.5631 60.1241 61.1081C60.1241 60.9216 60.1679 60.7296 60.25 60.5606C60.4237 60.2031 60.5187 59.8168 60.6978 59.4587C60.724 59.4062 60.7767 59.3846 60.7975 59.3293C60.8363 59.2257 60.8554 59.0955 60.8797 58.9865C60.914 58.8319 60.9451 58.6792 60.9916 58.5265C61.0587 58.3059 61.1004 58.0811 61.163 57.8601C61.2352 57.6054 61.3784 57.3912 61.4324 57.129C61.5218 56.6943 61.7273 56.2894 61.8714 55.8732C62.0337 55.4041 62.2649 55.0051 62.2649 54.5019C62.2649 54.2016 62.364 53.9667 62.4538 53.6974" stroke="#E0353F" stroke-width="2" stroke-linecap="round"/>
<path d="M64.8542 46.7288C64.777 46.7442 64.7767 46.8812 64.7767 46.9366C64.7767 47.023 64.7707 47.0783 64.7358 47.1551C64.6778 47.2827 64.6924 47.4364 64.6314 47.5621C64.6105 47.605 64.5593 47.6767 64.5227 47.7074C64.5079 47.7198 64.4875 47.7507 64.4764 47.7677C64.4563 47.7983 64.4376 47.8395 64.4204 47.8721C64.3863 47.9368 64.3283 48.012 64.3213 48.0853C64.3119 48.1845 64.2509 48.2343 64.1954 48.3103C64.1591 48.36 64.1078 48.4043 64.0866 48.4653C64.0692 48.5158 64.0549 48.5694 64.0425 48.6214C64.0382 48.6395 64.0272 48.6416 64.0145 48.6553C63.9887 48.6831 63.97 48.7158 63.9531 48.7495C63.8988 48.8582 63.8692 48.9753 63.8197 49.0843C63.8059 49.1145 63.8072 49.143 63.8003 49.1758C63.7956 49.1978 63.7808 49.2195 63.7787 49.2383C63.7762 49.2614 63.7691 49.2818 63.7691 49.3061C63.7691 49.33 63.7518 49.3367 63.7497 49.3567C63.7413 49.4352 63.7294 49.5204 63.7088 49.5968C63.6971 49.6401 63.6706 49.6717 63.6549 49.7109C63.6426 49.7418 63.6169 49.7658 63.6065 49.7981C63.5992 49.8209 63.5987 49.8377 63.585 49.8584" stroke="#E0353F" stroke-width="0.5" stroke-linecap="round"/>
<line x1="64" y1="55" x2="58" y2="55" stroke="white" stroke-width="10"/>
<line x1="147" y1="46" x2="141" y2="46" stroke="white" stroke-width="10"/>
<path d="M142.457 21.3546C142.3 21.2151 142.024 21.2487 141.821 21.2487" stroke="black" stroke-width="2" stroke-linecap="round"/>
<path d="M60.1257 31.6205C60.1057 31.7204 60.0238 31.8325 59.9877 31.9335C59.9568 32.0201 59.9469 32.0935 59.9333 32.1815C59.9141 32.3065 59.7835 32.4425 59.7145 32.5436C59.6511 32.6367 59.6519 32.7246 59.6097 32.8182C59.5576 32.9341 59.5021 33.0457 59.4373 33.1551C59.4034 33.2123 59.3856 33.3037 59.3405 33.35C59.2018 33.4926 58.9033 33.5307 58.8604 33.7453" stroke="black" stroke-width="2" stroke-linecap="round"/>
<path d="M52.197 37.8393C52.0336 37.8291 52.0911 37.5235 52.0911 37.4079C52.0911 37.2145 52.0205 37.0433 52.0205 36.8509" stroke="black" stroke-width="2" stroke-linecap="round"/>
<path d="M158.667 44.5025C158.667 44.2882 158.667 44.074 158.667 43.8597C158.667 43.6923 158.658 43.5159 158.62 43.3523C158.586 43.2039 158.484 43.1049 158.477 42.9422C158.467 42.7221 158.325 42.5263 158.29 42.3037C158.231 41.9176 158.214 41.5187 158.168 41.1303C158.118 40.7146 158.02 40.3466 158.02 39.9231C158.02 39.7743 157.924 39.6981 157.868 39.5679C157.785 39.3788 157.595 39.1456 157.567 38.9421C157.532 38.6733 157.449 38.4199 157.411 38.1514C157.371 37.8685 157.227 37.5743 157.136 37.3015C157.028 36.9764 156.962 36.6905 156.887 36.3628C156.875 36.3124 156.897 36.2291 156.857 36.1895C156.824 36.1561 156.802 36.1657 156.802 36.1112C156.802 35.9537 156.835 36.051 156.783 36.0922C156.731 36.134 156.794 36.2262 156.756 36.274C156.656 36.3988 156.488 36.4605 156.345 36.532C155.711 36.8491 154.992 37.1578 154.252 37.1578C153.989 37.1578 153.725 37.178 153.472 37.1218C153.368 37.0988 153.11 37.0561 153.035 36.9886C152.891 36.8606 152.721 36.7624 152.599 36.6059C152.503 36.4821 152.422 36.3544 152.312 36.2444" stroke="black" stroke-width="2" stroke-linecap="round"/>
<line x1="150.874" y1="56.461" x2="141.395" y2="31.9836" stroke="black" stroke-width="4"/>
<line x1="64.3427" y1="37.8789" x2="55.3408" y2="61.878" stroke="black" stroke-width="5"/>
<rect x="68.5" y="51.5" width="21" height="7" stroke="black"/>
<rect x="123.089" y="32" width="6" height="25" fill="black"/>
<rect x="123.082" y="32" width="6" height="15" transform="rotate(42.2321 123.082 32)" fill="black"/>
<line x1="170.265" y1="41.7954" x2="158.264" y2="45.7943" stroke="black" stroke-width="8"/>
<line x1="49.7351" y1="45.7947" x2="37.7351" y2="41.7947" stroke="black" stroke-width="8"/>
<rect x="116.089" y="57" width="20" height="6" fill="black"/>
</g>
<defs>
<clipPath id="clip0_15_833">
<rect width="361" height="66" fill="white"/>
</clipPath>
</defs>
</svg>
