<svg width="361" height="99" viewBox="0 0 361 99" fill="none" xmlns="http://www.w3.org/2000/svg">
<g clip-path="url(#clip0_15_736)">
<path d="M245.323 132.421C245.22 132.628 245.222 132.848 245.453 132.962C245.777 133.122 245.765 132.676 245.931 132.493C246.056 132.355 246.667 133.804 246.755 134.003C246.935 134.409 248.034 134.714 248.382 134.886C248.856 135.12 249.414 135.672 249.62 134.951C249.746 134.514 249.056 133.67 248.642 133.594C248.027 133.482 249.434 134.562 249.829 135.046C250.46 135.818 251.723 136.22 252.592 136.649C253.047 136.874 255.483 136.573 254.943 135.924C254.533 135.431 253.755 135.002 253.177 134.716C253.039 134.648 253.391 134.948 253.44 135.093C253.534 135.369 253.487 135.47 253.743 135.64C254.131 135.896 254.323 136.426 254.703 136.731C254.957 136.936 255.369 137.228 255.657 137.371C256.055 137.568 255.619 137.18 255.755 137.031C255.882 136.891 256.701 136.972 256.886 136.955C257.348 136.911 257.825 137.073 258.272 137.005C258.85 136.917 259.488 136.828 260.068 136.94C260.728 137.068 261.355 136.853 261.951 137.147C262.385 137.362 263.265 137.202 263.783 137.259C263.868 137.269 264.468 137.004 264.591 136.944C265.055 136.72 265.048 136.95 264.727 136.526C264.146 135.759 263.323 134.508 262.228 135.141C261.355 135.645 259.985 135.646 258.963 135.609C257.291 135.548 255.582 135.422 253.935 135.091C253.443 134.992 252.703 135.117 253.484 135.503C253.992 135.754 254.5 136.005 255.009 136.256C256.784 137.134 258.549 137.012 260.398 137.112C260.636 137.125 260.868 137.323 261.103 137.275C261.359 137.222 261.558 137.159 261.82 137.25C262.107 137.35 262.785 137.656 263.07 137.612C263.673 137.52 264.413 137.857 264.973 137.618C265.229 137.509 265.61 137.33 265.884 137.274C266.526 137.143 267.463 137.61 268.033 137.226C268.295 137.049 268.788 137.186 269.114 136.966C269.514 136.697 269.842 137.047 270.235 136.947C270.895 136.779 271.425 136.425 271.986 136.154C272.713 135.802 273.109 135.298 273.987 135.458C274.264 135.509 274.855 135.245 275.15 135.177C275.379 135.124 275.921 135.175 276.072 135.077C276.558 134.765 277.64 134.517 278.174 134.679C278.258 134.704 279.005 134.459 279.096 134.42C279.657 134.181 280.476 134.301 281.1 134.22C281.576 134.158 281.982 133.991 282.443 133.931C282.66 133.903 282.73 133.692 282.919 133.628C283.109 133.564 283.299 133.702 283.484 133.572C284.135 133.115 285.253 133.304 285.863 132.631C286.379 132.064 287.279 131.908 287.838 131.367C288.154 131.061 288.467 131.142 288.887 131.012C289.286 130.888 289.517 130.586 289.895 130.417C290.194 130.283 290.526 130.28 290.817 130.14C291.691 129.723 292.661 129.273 293.619 128.985C294.435 128.74 295.345 128.428 296.115 128.093C296.393 127.973 296.955 127.73 297.249 127.763C297.612 127.803 298.59 127.689 298.928 127.543C299.222 127.415 299.346 127.143 299.668 127.045C300.004 126.942 300.329 126.844 300.667 126.754C301.071 126.646 301.522 126.535 301.918 126.507C302.527 126.465 304.555 126.359 302.785 126.662C302.239 126.756 301.493 126.503 301.043 126.957C300.516 127.488 298.348 128.258 299.011 127.91C300.209 127.282 301.108 126.548 302.554 126.345C303.202 126.254 304.275 126.081 304.933 126.172C305.837 126.297 306.742 126.01 307.63 125.979C308.639 125.944 309.797 125.532 310.787 125.713C311.458 125.836 312.064 125.877 312.765 125.906C313.658 125.942 314.182 126.13 314.995 126.532C315.593 126.827 316.33 126.716 316.978 127.036C317.956 127.519 318.934 128.003 319.913 128.486C321.809 129.424 324.074 130.237 325.698 131.593C326.068 131.902 326.958 132.241 327.09 132.757C327.208 133.22 327.731 133.741 327.994 134.139C328.458 134.842 328.811 135.518 329.361 136.156C329.749 136.605 330.931 138.146 330.7 138.908C330.607 139.215 330.464 139.508 330.143 139.25C329.893 139.049 329.987 138.705 329.705 138.566C329.692 138.559 330.061 139.218 330.097 139.324C330.362 140.107 330.271 140.986 330.31 141.802C330.325 142.107 330.067 142.455 329.936 142.72C329.777 143.042 329.948 143.456 329.884 143.806C329.827 144.118 330.045 144.569 329.95 144.958C329.867 145.294 329.846 145.643 329.763 145.977C329.567 146.777 329.387 147.364 329.003 148.142C328.669 148.817 329.026 149.725 328.56 150.304C328.336 150.583 327.955 150.75 327.682 150.973C327.396 151.207 327.273 151.641 327.11 151.969C326.742 152.715 325.859 153.216 325.468 154.007C325.08 154.792 324.603 155.437 324.206 156.24C323.924 156.81 323.563 158.097 322.875 158.29C322.665 158.349 322.006 159.773 322.161 159.913C322.442 160.168 322.256 160.507 322.539 160.736C322.794 160.94 323.207 161.233 323.494 161.375C323.758 161.506 324.087 161.586 324.35 161.41C324.484 161.319 324.707 161.379 324.862 161.319C325.069 161.24 325.155 160.872 325.344 160.861C325.916 160.826 326.142 160.282 326.696 160.179C327.054 160.112 327.915 159.696 328.146 159.476C328.637 159.006 329.383 158.976 329.824 158.382C330.337 157.692 330.716 157.074 331.35 156.491C331.712 156.157 331.943 156.327 332.189 155.829C332.311 155.581 332.645 155.15 332.871 155.02C333.107 154.883 333.34 154.312 333.56 154.09C333.834 153.813 333.952 153.347 334.263 153.167C335.026 152.726 335.485 150.261 335.597 149.646C335.762 148.748 335.452 147.942 335.89 147.056C336.207 146.414 335.997 145.618 336.29 144.961C336.998 143.379 335.768 141.654 335.632 140.19C335.492 138.68 334.596 137.024 334.14 135.678C333.953 135.124 333.583 134.086 333.183 133.652C332.946 133.395 332.861 133.1 332.741 132.798C332.649 132.569 332.105 132.187 331.945 132.017C331.528 131.574 330.944 131.167 330.63 130.644C329.83 129.311 328.769 128.308 327.342 127.554C326.608 127.167 326.012 126.963 325.666 126.161C325.462 125.688 323.713 125.126 323.256 124.899C322.302 124.428 321.413 124.349 320.36 124.262C320.013 124.233 319.58 124.33 319.249 124.189C318.72 123.963 319.052 124.194 319.277 124.133C319.446 124.086 320.156 124.208 319.842 123.883C319.639 123.672 319.252 123.556 318.991 123.427C318.225 123.048 317.629 122.662 316.81 122.701C315.315 122.773 313.562 123.032 312.176 122.44C311.797 122.278 311.506 122.454 311.158 122.572C310.85 122.676 310.28 122.554 309.913 122.591C309.495 122.635 309.026 122.544 308.626 122.555C308.139 122.568 307.621 122.567 307.091 122.59C306.678 122.609 306.398 122.877 305.974 122.708C305.618 122.567 305.21 122.672 304.857 122.791C304.138 123.035 303.365 123.173 302.618 123.396C301.826 123.632 301.125 123.948 300.345 124.212C299.95 124.346 299.558 124.47 299.158 124.614C298.937 124.694 298.049 124.718 297.992 124.796C297.61 125.317 296.49 125.217 295.973 125.491C295.722 125.624 295.577 126.085 295.375 126.166C295.119 126.268 294.778 126.474 294.549 126.552C294.054 126.719 293.184 126.638 292.717 126.475C292.263 126.317 291.246 126.992 290.803 127.135C290.233 127.318 290.233 127.427 289.823 127.903C289.511 128.266 289.307 128.349 288.943 128.579C288.645 128.767 288.136 128.676 288.333 128.278C288.494 127.951 288.233 127.892 287.949 127.77C287.739 127.681 287.331 127.992 287.044 127.994C286.741 127.995 286.132 128.304 285.979 128.543C285.841 128.758 285.38 128.929 285.139 128.957C284.826 128.993 284.433 129.532 284.124 129.655C283.823 129.775 283.293 130.061 282.994 130.084C282.569 130.117 282.336 130.457 281.992 130.506C281.732 130.544 281.377 131.017 281.097 131.175C280.775 131.357 280.414 131.41 280.087 131.541C279.967 131.588 279.961 131.791 279.855 131.867C279.722 131.963 279.527 131.895 279.375 131.947C279.051 132.056 278.744 132.129 278.407 132.227C277.556 132.474 276.792 132.639 276.042 133.157C275.213 133.73 274.044 133.619 273.154 134.076C272.708 134.305 271.622 134.653 271.134 134.665C270.62 134.678 270.139 134.756 269.635 134.877C269.457 134.92 269.216 134.877 269.027 134.894C268.801 134.914 268.826 135.145 268.64 135.214C268.314 135.335 267.724 135.368 267.374 135.347C267.324 135.344 266.417 135.214 266.504 135.394C266.709 135.816 269.852 134.698 270.08 134.621C271.814 134.033 273.326 133.045 275.056 132.511C276.469 132.075 278.001 131.934 279.372 131.346C281.233 130.548 283.722 130.27 285.74 130.383C286.443 130.422 287.118 130.35 287.804 130.204C288.385 130.08 289.251 130.11 289.783 129.841C290.51 129.473 291.059 129.199 291.872 128.969C292.946 128.664 294.098 128.404 295.15 128.048C296.376 127.633 297.639 127.437 298.844 126.999C300.311 126.465 301.641 125.394 303.228 125.196C304.599 125.026 305.859 124.55 307.262 124.421C308.252 124.331 309.215 124.632 310.177 124.556C310.965 124.494 311.821 124.424 312.61 124.524C314.033 124.704 315.346 124.918 316.701 125.347C318.48 125.91 320.133 126.849 321.811 127.679C323.195 128.363 324.601 128.899 325.986 129.583C327.78 130.47 330.18 131.252 331.222 133.124C331.7 133.983 332.098 134.887 332.592 135.741C332.83 136.154 333.172 137.03 332.996 137.493C332.54 138.689 332.979 140.077 332.985 141.298C332.988 141.917 332.752 142.488 332.937 143.145C333.031 143.48 332.654 143.965 332.503 144.271C331.946 145.4 331.873 146.712 331.367 147.855C331.044 148.586 330.934 149.373 330.571 150.108C330.33 150.594 330.09 151.081 329.849 151.568C329.333 152.611 329.275 153.693 328.76 154.734C328.557 155.146 328.084 155.269 327.803 155.637C327.497 156.037 327.095 156.332 326.718 156.618" stroke="white" stroke-width="5" stroke-linecap="round"/>
<path d="M168.6 28.5C217.657 28.5 257.1 63.5913 257.1 106.5C257.1 149.409 217.657 184.5 168.6 184.5C119.542 184.5 80.0996 149.409 80.0996 106.5C80.0996 63.5913 119.542 28.5 168.6 28.5Z" fill="white" stroke="black" stroke-width="3"/>
<path d="M39.7824 82.045L40.0898 57.0674L77.6808 60.4676L39.7824 82.045Z" fill="white" stroke="black" stroke-width="3"/>
<path d="M126.729 57.9686L164.223 54.2005L165.097 79.1623L126.729 57.9686Z" fill="white" stroke="black" stroke-width="3"/>
<path d="M177.5 112.074C177.5 127.417 169.406 141.41 156.119 151.614C142.831 161.82 124.409 168.175 104 168.175C83.5909 168.175 65.169 161.82 51.8806 151.614C38.5939 141.41 30.5 127.417 30.5 112.074C30.5 96.7312 38.5939 82.7386 51.8806 72.5343C65.169 62.3287 83.5909 55.9738 104 55.9738C124.409 55.9738 142.831 62.3287 156.119 72.5343C169.406 82.7386 177.5 96.7312 177.5 112.074Z" fill="white" stroke="black" stroke-width="3"/>
<path d="M78.6284 104.599C78.6284 103.727 78.7058 102.865 78.7058 102C78.7058 101.772 78.7184 101.54 78.7058 101.312C78.6947 101.113 78.6691 100.813 78.5704 100.636C78.4663 100.448 78.5581 100.244 78.3986 100.058C78.3336 99.9821 78.3847 99.8776 78.3019 99.8066C78.2505 99.7625 78.2139 99.5723 78.1731 99.4952C78.0839 99.3267 77.8938 99.0776 77.8938 98.8765C77.8938 98.6654 77.7886 98.4856 77.7778 98.2751C77.7685 98.0925 77.6601 98.0184 77.5459 97.8928C77.1969 97.509 76.8563 97.1034 76.6094 96.6341C76.4673 96.3642 76.2411 96.1258 76.0853 95.8608C76.0259 95.7599 75.9264 95.7279 75.8919 95.6074C75.8507 95.4632 75.7475 95.3542 75.6342 95.2615C75.4811 95.1363 75.4121 94.9132 75.2841 94.7568C75.1184 94.5543 74.9839 94.3814 74.8008 94.1983" stroke="black" stroke-linecap="round"/>
<path d="M72.2485 100.848C72.2485 100.372 72.0804 99.7469 72.2485 99.2847C72.3233 99.079 72.4686 98.8703 72.4805 98.6446C72.4834 98.59 72.5331 98.5685 72.5492 98.52C72.5721 98.4514 72.5466 98.3811 72.5772 98.3138C72.6352 98.1862 72.6199 98.0497 72.6652 97.9229C72.7642 97.6457 72.8091 97.3602 73.0025 97.1238C73.0829 97.0255 73.147 96.9584 73.2065 96.8274C73.2621 96.705 73.3838 96.5185 73.4084 96.3957C73.4514 96.181 73.5691 96.0191 73.6834 95.835C73.9199 95.4539 74.0856 95.0278 74.3277 94.6537C74.3546 94.6121 74.3226 94.5522 74.3449 94.5076C74.3707 94.4561 74.4398 94.451 74.4695 94.3916C74.5098 94.311 74.531 94.249 74.607 94.1983" stroke="black" stroke-linecap="round"/>
<path d="M75.11 98.6832C75.11 98.5366 75.1315 98.4467 75.0026 98.3524C74.9042 98.2805 74.8245 98.1574 74.7813 98.0453C74.6983 97.8292 74.8462 97.5409 74.7234 97.3386C74.5938 97.1252 74.6074 96.8573 74.6074 96.6147C74.6074 96.5138 74.6074 96.4128 74.6074 96.3119C74.6074 96.0614 74.5457 96.8509 74.6847 97.0594" stroke="black" stroke-width="3" stroke-linecap="round"/>
<path d="M74.5683 105.256C74.4345 105.241 74.335 105.032 74.2418 104.945C74.029 104.744 74.063 104.563 73.9884 104.311C73.8935 103.991 73.8724 103.613 73.8724 103.282C73.8724 102.952 73.7527 102.648 73.7199 102.32C73.6351 101.472 73.7177 100.583 73.7177 99.7293C73.7177 99.4321 73.7529 99.1152 73.8638 98.8379C73.9163 98.7066 73.8724 98.4755 73.8724 98.3353" stroke="black" stroke-width="3" stroke-linecap="round"/>
<path d="M76.8107 103.477C77.0204 103.477 76.9349 103.013 76.9181 102.867C76.8906 102.629 76.7552 102.445 76.6818 102.225C76.6281 102.064 76.5962 101.833 76.5809 101.665C76.5456 101.276 76.4447 100.886 76.3639 100.5C76.3238 100.309 76.2308 100.114 76.2308 99.9183C76.2308 99.6872 76.1962 99.4491 76.1363 99.2267C76.0958 99.0764 76.0375 98.8534 76.0375 98.7026C76.0375 98.5691 75.8609 98.4001 75.8441 98.258C75.8401 98.2239 75.7345 98.0907 75.7067 98.0668C75.6188 97.9915 75.6484 98.1761 75.653 98.2215C75.677 98.4617 75.7282 98.6689 75.7282 98.9152" stroke="black" stroke-width="3" stroke-linecap="round"/>
<path d="M76.0381 100.346C76.1259 100.365 76.3398 100.839 76.3474 100.934C76.3727 101.25 76.5451 101.545 76.5794 101.854C76.5931 101.977 76.6471 102.24 76.7254 102.326C76.8612 102.476 76.8152 102.311 76.8113 102.163C76.8063 101.972 76.6941 101.703 76.5794 101.553C76.4599 101.396 76.4998 101.18 76.4247 100.994C76.3918 100.913 76.3129 100.573 76.4935 100.694C76.7278 100.85 76.7993 101.175 76.85 101.428" stroke="black" stroke-width="3" stroke-linecap="round"/>
<path d="M90.0095 109.898C89.7833 109.898 89.7307 109.948 89.5787 110.1C89.4831 110.196 89.3608 110.316 89.2542 110.397C89.1562 110.472 88.9987 110.485 88.9146 110.557C88.6917 110.746 88.4143 110.716 88.1644 110.83C87.8769 110.962 87.5426 111.027 87.2316 111.084C87.0735 111.113 86.9454 111.21 86.7805 111.221C86.6586 111.229 86.4972 111.245 86.3826 111.289C85.8861 111.48 85.3722 111.579 84.872 111.745C84.1023 112.002 83.3271 112.179 82.5275 112.179C81.8666 112.179 81.2445 112.27 80.5809 112.27C79.7089 112.27 78.8814 112.347 78.0159 112.404C77.2548 112.455 76.494 112.452 75.7297 112.452C75.407 112.452 75.0843 112.452 74.7615 112.452C74.3023 112.452 73.9122 112.229 73.4689 112.179C73.0231 112.128 72.5886 111.89 72.1408 111.811C71.5763 111.712 71.0554 111.443 70.5592 111.167C70.0332 110.875 69.5031 110.56 69.0334 110.181C68.8266 110.015 68.642 109.756 68.4581 109.558C67.9959 109.062 67.5126 108.593 66.9956 108.154C66.6979 107.901 66.5664 107.569 66.3214 107.277C66.1223 107.039 65.9761 106.776 65.85 106.494C65.7441 106.257 65.5809 106.089 65.4292 105.883C65.1017 105.438 64.8506 104.96 64.5624 104.489C64.4125 104.243 64.2676 104.017 64.0986 103.784C64.0267 103.685 63.9592 103.52 63.9592 103.394C63.9592 102.792 63.5417 102.25 63.3864 101.686C63.2999 101.371 63.2394 101.049 63.1532 100.738C63.12 100.618 63.0465 100.344 62.9707 100.241C62.6156 99.7567 62.3263 99.3511 62.1089 98.7759C61.965 98.3948 61.8466 97.9779 61.7237 97.5897C61.6724 97.4276 61.6044 97.3184 61.564 97.1487C61.5289 97.001 61.4864 96.8558 61.45 96.7102C61.3576 96.3407 61.1925 96.0508 61.0242 95.7141C60.9013 95.4684 60.8513 95.1904 60.7656 94.9335" stroke="black" stroke-width="3" stroke-linecap="round"/>
<path d="M89.5623 108.783C89.5623 108.586 89.5981 108.344 89.5542 108.151C89.4751 107.805 89.304 107.509 89.198 107.171C89.0957 106.845 89.0235 106.533 88.9103 106.212C88.7225 105.678 88.6024 105.121 88.4193 104.582C88.3972 104.517 88.3801 104.45 88.3589 104.384C88.3061 104.222 88.1567 104.121 88.0993 103.962C87.9489 103.545 87.9044 103.066 87.8317 102.63C87.7697 102.257 87.5016 101.832 87.3307 101.501C87.072 101 86.7756 100.521 86.5197 100.018C86.1988 99.3873 85.8293 98.7544 85.4231 98.1766C85.2899 97.9873 85.203 97.7731 85.0749 97.581C85.0194 97.4978 84.9375 97.469 84.8657 97.4019C84.4252 96.9901 83.9368 96.5959 83.4088 96.3072C83.0445 96.1081 82.6774 95.8738 82.3564 95.613C82.2772 95.5486 82.2696 95.4811 82.1713 95.4319C82.063 95.3778 81.9322 95.3211 81.8312 95.2568C81.0066 94.7321 80.1891 94.2033 79.4768 93.5303C79.1685 93.239 78.9567 93.0977 78.5673 92.9528C78.1161 92.7849 77.6877 92.6711 77.2231 92.5483C77.1084 92.518 77.0118 92.4197 76.8931 92.4115C76.7594 92.4023 76.6317 92.3782 76.4987 92.3572C75.8865 92.2605 75.2711 92.1827 74.6595 92.0855C74.2103 92.0142 73.7664 91.8981 73.3133 91.8521C73.0461 91.825 72.7728 91.8059 72.5044 91.7978C72.1643 91.7875 71.8515 91.6937 71.5164 91.6589C70.8775 91.5926 70.1287 91.5284 69.4961 91.6509C69.2704 91.6945 69.0525 91.7724 68.828 91.8159C68.6046 91.8591 68.3889 91.856 68.166 91.9205C67.627 92.0765 67.0438 92.1009 66.5139 92.2827C66.2094 92.3872 65.9477 92.4844 65.6245 92.5383C65.2239 92.605 64.7596 92.666 64.389 92.8381C64.257 92.8994 64.1323 92.9062 63.9905 92.9266C63.6653 92.9736 63.3577 93.1052 63.0307 93.156C62.7627 93.1977 62.5261 93.2808 62.252 93.2808" stroke="black" stroke-width="3" stroke-linecap="round"/>
<path d="M62.626 93.0397C62.1301 93.0397 61.6751 93.258 61.2436 93.4738C61.0619 93.5646 60.8105 93.5205 60.6092 93.5205C60.3504 93.5205 60.2262 93.7609 59.9814 93.7609" stroke="black" stroke-width="3" stroke-linecap="round"/>
<path d="M143.488 100.911C143.564 100.654 143.679 100.43 143.692 100.153C143.702 99.9329 143.744 99.7024 143.83 99.4994C143.936 99.25 143.98 98.9831 144.049 98.7221C144.145 98.3551 144.25 97.991 144.339 97.6221C144.454 97.1466 144.551 96.6744 144.676 96.2027C144.742 95.9534 144.834 95.6993 144.958 95.4743C145.001 95.3967 145.087 95.2657 145.1 95.1793C145.115 95.0833 145.16 94.9685 145.16 94.868" stroke="black" stroke-width="3" stroke-linecap="round"/>
<path d="M115.978 109.904C115.978 109.245 116.192 108.687 116.45 108.078C116.539 107.866 116.556 107.656 116.592 107.43C116.624 107.228 116.745 107.082 116.836 106.907C116.898 106.788 116.924 106.563 117.024 106.478C117.133 106.384 117.084 106.181 117.166 106.077C117.467 105.693 117.602 105.304 117.769 104.837C117.999 104.192 118.409 103.615 118.639 102.972C118.992 101.983 119.44 101.061 119.85 100.095C120.023 99.6857 120.14 99.2827 120.356 98.8892C120.563 98.5122 120.771 98.1757 121.004 97.8144C121.233 97.4595 121.515 97.115 121.772 96.7795C121.896 96.6168 122.015 96.4427 122.147 96.2876C122.357 96.0406 122.605 95.8317 122.813 95.5854C123.177 95.1536 123.587 94.7746 124.103 94.4993C124.314 94.3869 124.538 94.2888 124.726 94.1382C124.894 94.0039 125.068 93.9904 125.241 93.8738C125.624 93.615 126.039 93.4615 126.435 93.2312C126.677 93.0903 126.971 93.0388 127.208 92.89C127.571 92.6623 128.001 92.5231 128.425 92.401C128.91 92.2612 129.378 91.9677 129.898 91.9404C130.829 91.8914 131.77 91.808 132.701 91.7869C132.967 91.7808 133.235 91.6921 133.503 91.6845C134.137 91.6666 134.765 91.6333 135.402 91.6333C135.848 91.6333 136.294 91.5822 136.744 91.5822C137.314 91.5822 137.816 91.9071 138.382 91.9404C138.777 91.9636 139.22 92.1856 139.61 92.273C139.871 92.3316 140.131 92.494 140.401 92.5033C140.606 92.5104 140.825 92.5403 141.026 92.583C141.212 92.6224 141.456 92.7469 141.629 92.7592C141.985 92.7847 142.269 92.8756 142.604 93.0094C142.747 93.0665 142.897 93.1606 143.05 93.1687C143.465 93.1905 143.806 93.7507 144.239 93.7828C144.43 93.7969 144.683 93.9777 144.779 94.141C144.876 94.3065 145.047 94.381 145.149 94.5504" stroke="black" stroke-width="3" stroke-linecap="round"/>
<path d="M127.338 104.893C127.324 104.779 127.198 104.72 127.192 104.601C127.188 104.517 127.192 104.431 127.192 104.347C127.192 104.095 127.192 103.843 127.192 103.59C127.192 103.406 127.192 103.221 127.192 103.037C127.192 102.689 127.127 102.285 127.21 101.951C127.264 101.738 127.265 101.454 127.265 101.235C127.265 101.137 127.338 101.061 127.338 100.978C127.338 100.845 127.368 100.671 127.403 100.542C127.453 100.351 127.52 100.102 127.52 99.9068C127.52 99.7951 127.656 99.7678 127.665 99.644C127.67 99.5748 127.704 99.5533 127.738 99.4984C127.798 99.4019 127.8 99.2851 127.831 99.179C127.897 98.9544 128.102 98.695 128.102 98.4653C128.102 98.3335 128.196 98.2577 128.248 98.1418C128.29 98.0466 128.383 97.8957 128.448 97.8163C128.529 97.7167 128.536 97.6394 128.595 97.5251C128.659 97.4044 128.813 97.2775 128.828 97.141C128.86 96.8497 129.146 96.6814 129.303 96.4576C129.41 96.3061 129.688 96.0923 129.703 95.9199C129.708 95.864 129.815 95.739 129.857 95.6934C129.945 95.5987 129.999 95.4917 130.096 95.4144C130.173 95.3528 130.182 95.2114 130.267 95.1354C130.33 95.0793 130.42 94.9665 130.433 94.8867C130.44 94.8435 130.56 94.7995 130.599 94.7735C130.806 94.6355 131.085 94.5222 131.195 94.3024" stroke="black" stroke-linecap="round"/>
<path d="M133.998 103.4C133.998 103.081 133.997 102.762 134.032 102.45C134.074 102.069 133.925 101.714 133.925 101.346C133.925 100.968 133.925 100.59 133.925 100.212C133.925 99.9995 133.93 99.808 133.86 99.6076C133.791 99.4076 133.814 99.2146 133.761 99.0152C133.703 98.7961 133.659 98.5604 133.63 98.3379C133.601 98.1243 133.548 97.8383 133.47 97.6363C133.425 97.5192 133.431 97.3884 133.379 97.2704C133.325 97.1484 133.372 97.0097 133.306 96.8944C133.258 96.8093 133.216 96.708 133.195 96.6133C133.156 96.4394 132.928 96.3342 132.861 96.1665C132.836 96.1019 132.766 96.0094 132.724 95.9482C132.699 95.9125 132.604 95.7271 132.595 95.7217C132.425 95.6248 132.362 95.3101 132.251 95.1637C132.143 95.0216 131.982 94.903 131.885 94.7573C131.826 94.6686 131.758 94.5412 131.683 94.4662C131.62 94.4037 131.483 94.369 131.45 94.3024" stroke="black" stroke-linecap="round"/>
<path d="M129.558 105.111C129.175 105.076 128.947 104.536 128.85 104.203C128.738 103.819 128.83 103.311 128.83 102.911C128.83 102.537 128.793 102.167 128.793 101.791C128.793 101.394 128.776 100.992 128.866 100.602C128.919 100.376 129.009 100.178 129.048 99.9432" stroke="black" stroke-width="3" stroke-linecap="round"/>
<path d="M132.069 103.874C132.069 103.322 132.142 102.802 132.142 102.25C132.142 101.34 132.027 100.437 131.741 99.5793" stroke="black" stroke-width="3" stroke-linecap="round"/>
<path d="M131.123 101.654C130.984 101.479 131.012 101.169 130.959 100.96C130.886 100.666 130.851 100.364 130.8 100.071C130.735 99.6977 130.835 99.3081 130.759 98.9323C130.74 98.8393 130.644 98.3372 130.731 98.2409C130.84 98.1199 130.905 97.8423 130.905 97.6687C130.905 97.4923 131.014 97.3448 131.014 97.1633C131.014 96.8487 131.196 96.6043 131.196 96.304" stroke="black" stroke-width="3" stroke-linecap="round"/>
<path d="M131.269 97.0319C131.269 97.4093 131.267 97.7544 131.341 98.1236C131.365 98.2391 131.38 98.3777 131.422 98.4875C131.47 98.6139 131.577 98.7742 131.594 98.904C131.629 99.1625 131.668 99.4167 131.723 99.6703C131.749 99.7866 131.75 99.9069 131.798 100.018C131.859 100.158 131.863 100.047 131.96 100.052C132.05 100.058 132.069 100.613 132.069 100.424C132.069 99.9727 132.106 99.5306 132.106 99.0779C132.106 98.9313 132.126 98.7621 132.104 98.6149C132.092 98.5387 132.033 98.4728 132.033 98.3966C132.033 98.3104 131.947 98.2381 131.924 98.156C131.889 98.0354 131.849 97.9167 131.814 97.7961" stroke="black" stroke-width="3" stroke-linecap="round"/>
<path d="M130.067 99.6885C130.067 99.4174 130.028 99.1873 129.95 98.9323C129.9 98.7702 129.883 98.4914 129.976 98.342C130.05 98.2235 130.016 98.0365 130.103 97.9053" stroke="black" stroke-width="3" stroke-linecap="round"/>
<path d="M145.09 94.0188C145.005 94.0081 145.081 93.9665 145.13 93.9684C145.223 93.972 145.272 94.0692 145.368 94.0692C145.505 94.0692 145.646 94.1197 145.796 94.1197" stroke="black" stroke-width="3" stroke-linecap="round"/>
<path d="M51.8075 88.5936C51.7524 88.4678 51.8819 88.186 51.898 88.0487C51.9069 87.9732 51.926 87.9095 51.926 87.8314C51.926 87.6525 52.0077 87.4931 52.0149 87.3194C52.0278 87.0094 52.0149 86.6964 52.0149 86.3859C52.0149 86.2279 51.9959 86.0835 52.0726 85.9431C52.1805 85.7451 52.0389 85.4022 52.2108 85.2302C52.4827 84.9584 52.7918 84.9191 53.1575 84.9191C53.315 84.9191 53.4738 84.9103 53.6299 84.9339C53.733 84.9495 53.7853 84.9752 53.8736 85.0064C54.0623 85.0729 54.276 85.0391 54.4679 85.0903C54.7026 85.1529 54.9319 85.2102 55.1676 85.2731C55.2922 85.3063 55.6857 85.2446 55.7636 85.3224C55.8994 85.4583 56.1313 85.3885 56.3118 85.4591C56.4091 85.4972 56.5213 85.4911 56.6246 85.5118C56.7644 85.5397 56.8706 85.6007 57.0131 85.6007C57.27 85.6007 57.5023 85.6599 57.7572 85.6599C57.8763 85.6599 57.9958 85.6303 58.1194 85.6303" stroke="black" stroke-width="2" stroke-linecap="round"/>
<path d="M48.3398 101.662C48.3398 101.352 48.5081 100.963 48.6658 100.704C48.7433 100.576 48.6883 100.469 48.7284 100.328C48.743 100.277 48.7932 100.238 48.814 100.187C48.8483 100.103 48.8521 100.01 48.8798 99.9234C48.9416 99.7306 48.9995 99.5378 49.0576 99.344C49.0938 99.2233 49.0807 99.0919 49.0807 98.967C49.0807 98.8272 49.1242 98.751 49.1696 98.6262C49.2282 98.4651 49.3113 98.2556 49.3177 98.0829C49.3217 97.9755 49.4203 97.8797 49.4379 97.7652C49.4517 97.6753 49.4943 97.5523 49.5252 97.4688C49.6208 97.2107 49.5512 96.9169 49.6174 96.6523C49.6521 96.5132 49.7286 96.3771 49.7557 96.239C49.7987 96.0197 49.8784 95.8177 49.9236 95.6003C50.0794 94.8501 50.1496 94.1049 50.2512 93.3531C50.2977 93.0088 50.6116 92.7197 50.6216 92.3702C50.6252 92.2459 50.6586 92.124 50.6809 92.0015C50.7099 91.8421 50.7292 91.6562 50.7994 91.5109C50.8772 91.3497 50.9428 91.1034 50.9706 90.9281C50.9825 90.8532 50.9632 90.7706 50.9838 90.6976C51.0073 90.6143 51.0845 90.5471 51.0957 90.4605C51.1374 90.1413 51.3032 89.8815 51.3032 89.5633C51.3032 89.1964 51.5402 88.8987 51.5402 88.5344" stroke="black" stroke-width="2" stroke-linecap="round"/>
<path d="M150.713 84.4652C150.883 84.5078 150.805 85.2418 150.857 85.3977C150.995 85.8138 151.182 86.1774 151.36 86.5726C151.453 86.7792 151.486 86.8151 151.701 86.8151C151.789 86.8151 152.119 86.8757 152.149 86.7432C152.199 86.5179 152.304 86.5597 152.487 86.5753C152.823 86.6039 153.172 86.6076 153.5 86.6925C153.598 86.7181 153.676 86.7457 153.724 86.6339C153.851 86.332 154.209 86.2029 154.512 86.1916C154.832 86.1798 155.548 86.1759 155.7 85.832C155.735 85.7549 155.934 85.649 156.009 85.6215C156.235 85.5393 156.075 85.5833 156.041 85.6934C155.967 85.9343 156.036 86.3242 156.036 86.5753C156.036 86.7532 156.173 86.9055 156.18 87.0922C156.185 87.2435 156.207 87.4348 156.239 87.5824C156.358 88.1342 156.348 88.7032 156.441 89.2609C156.625 90.3652 156.524 91.6134 156.958 92.6445C157.005 92.7569 157.131 92.924 157.139 93.0388C157.15 93.1924 157.164 93.3518 157.198 93.5024C157.287 93.9064 157.344 94.3396 157.547 94.704C157.801 95.1608 157.763 94.3065 157.763 94.1258C157.763 93.7449 157.351 93.4973 157.331 93.1187C157.315 92.8248 157.073 92.6155 157.006 92.3408C156.914 91.9651 156.858 91.5895 156.851 91.2005C156.845 90.853 156.852 90.6173 156.707 90.2919C156.533 89.8986 156.604 91.1524 156.638 91.5814C156.665 91.9185 156.692 92.2796 156.782 92.6072C156.829 92.7762 156.918 92.9193 156.947 93.0947C156.999 93.4026 157.152 93.6475 157.28 93.9207C157.489 94.3651 157.589 94.9 157.848 95.3141C157.912 95.4162 157.861 95.6682 157.896 95.7936C157.944 95.9681 157.965 96.1376 158.024 96.3105C158.126 96.611 158.183 96.8994 158.29 97.195C158.391 97.4734 158.439 97.773 158.485 98.0663C158.541 98.4364 158.654 98.8168 158.674 99.1879C158.688 99.4576 158.856 99.7027 158.866 99.9659C158.884 100.482 159.249 100.965 159.249 101.49C159.249 101.664 159.34 101.903 159.417 102.057C159.525 102.274 159.458 102.55 159.492 102.785C159.514 102.944 159.587 103.084 159.628 103.238C159.664 103.375 159.593 103.536 159.654 103.669C159.783 103.948 159.815 104.341 159.969 104.591C160.054 104.73 159.982 104.883 160.027 105.028C160.075 105.184 160.208 105.306 160.208 105.468C160.208 105.725 160.343 105.968 160.397 106.214C160.427 106.344 160.424 106.421 160.496 106.547C160.532 106.609 160.657 106.777 160.496 106.669" stroke="black" stroke-width="4" stroke-linecap="round"/>
<path d="M141.846 71.3847C141.846 71.2999 141.872 71.1621 141.834 71.0865C141.802 71.0221 141.832 71.0269 141.891 71.0269C141.932 71.0269 142.038 71.0001 142.055 70.9673" stroke="white" stroke-width="4" stroke-linecap="round"/>
<path d="M151.012 85.7037C150.971 86.0764 150.758 84.8737 150.701 84.7708C150.527 84.4583 150.568 84.1427 150.568 83.7934C150.568 83.473 150.771 83.0892 150.637 82.7717C150.469 82.3735 150.586 81.9189 150.41 81.5278C150.249 81.1712 150.214 80.8921 150.128 80.506C150.088 80.3252 150.162 80.1279 150.104 79.9483C150.002 79.6308 149.869 78.8721 149.635 78.6846C149.494 78.572 149.503 77.8825 149.432 77.7073C149.281 77.3285 149.333 76.9726 149.077 76.6214C148.965 76.4676 148.979 76.2757 148.83 76.108C148.765 76.0341 148.55 75.7132 148.529 75.6193C148.487 75.4303 148.481 75.292 148.416 75.1109C148.349 74.9265 148.114 74.7647 148.085 74.5926C148.017 74.1872 147.602 73.7705 147.458 73.3537C147.357 73.0631 147.278 72.8254 147.142 72.5541C147.014 72.2983 146.861 72.4466 146.658 72.3566C146.483 72.2787 146.377 72.1221 146.214 72.0407C146.068 71.9675 145.893 72.0416 145.77 71.8877C145.674 71.7683 145.412 71.8753 145.276 71.7544C145.128 71.6226 144.892 71.6217 144.704 71.5274C144.059 71.205 143.623 70.9548 142.838 70.9548" stroke="black" stroke-width="4" stroke-linecap="round"/>
<path d="M58.3311 83.9666C58.3311 83.5886 58.4032 83.2627 58.4379 82.898C58.4764 82.4938 58.8372 82.4754 58.8372 81.9925C58.8372 80.8949 58.8806 79.8012 58.9385 78.7023C58.9672 78.1557 59.6234 77.7715 59.7427 77.2344C59.9117 76.4742 60.239 75.8415 60.4345 75.1028C60.8024 73.7132 62.0933 72.6697 63.1454 71.8408C64.8902 70.4661 66.7842 70.5022 68.9834 70.5022C72.7179 70.5022 76.4261 70.401 80.1643 70.401C80.723 70.401 81.2817 70.401 81.8403 70.401C83.1117 70.401 84.1858 70.7302 85.4286 70.8959C86.3078 71.0131 87.1373 70.9522 87.9933 70.9071C88.9037 70.8592 89.8015 70.8059 90.7154 70.8059C91.5867 70.8059 92.4087 70.5022 93.3025 70.5022C96.4076 70.5022 99.5088 70.401 102.616 70.401C104.428 70.401 106.392 70.2039 108.184 70.4797C109.151 70.6284 110.215 71.1767 111.216 70.8059C112.283 70.4107 113.904 70.7047 115.046 70.7047C116.306 70.7047 117.565 70.7047 118.825 70.7047C120.683 70.7047 122.515 70.5022 124.382 70.5022C126.453 70.5022 128.793 71.2239 130.811 71.7283C131.244 71.8366 131.649 72.0438 132.132 72.0207C132.353 72.0103 133.727 71.7382 132.987 71.717C132.199 71.6945 131.43 71.6158 130.636 71.6158C129.895 71.6158 129.639 71.2936 128.949 71.1096C128.086 70.8794 129.638 70.8059 130.006 70.8059C131.175 70.8059 132.463 70.9069 133.606 70.6991C135.078 70.4314 136.648 70.5022 138.156 70.5022C138.583 70.5022 139.804 70.2819 140.107 70.5247C140.305 70.6831 141.107 70.9829 140.981 70.9211" stroke="black" stroke-width="4" stroke-linecap="round"/>
<rect x="57.5" y="68.5" width="94" height="20" rx="10" stroke="black"/>
<path d="M148.994 110.278C148.994 112.419 149.184 114.633 149.184 116.813C149.184 117.224 149.184 117.634 149.184 118.045C149.184 118.664 148.845 119.061 148.805 119.602C148.725 120.681 148.805 121.792 148.805 122.875C148.805 123.698 148.345 124.756 147.763 125.338C147.011 126.09 145.932 127.181 145.016 127.664C143.671 128.371 141.884 128.085 140.375 128.085C139.361 128.085 138.398 128.767 137.312 128.716C135.042 128.609 133.028 128.293 130.83 127.853C129.949 127.677 129.213 126.948 128.251 126.948C126.717 126.948 125.18 126.759 123.631 126.759C121.038 126.759 118.442 126.948 115.833 126.948C113.806 126.948 111.971 126.223 109.971 126.19C108.548 126.167 107.122 126.19 105.699 126.19C102.931 126.19 100.163 126.19 97.3952 126.19C95.8569 126.19 94.4659 126.503 92.9436 126.78C91.2936 127.08 89.5724 126.948 87.9026 126.948C87.5841 126.948 87.3452 126.925 87.0502 126.801C86.4416 126.544 85.3827 126.759 84.756 126.759C82.8511 126.759 80.9463 126.759 79.0415 126.759C78.5775 126.759 78.0215 126.588 77.8102 127.095C77.7561 127.225 77.6261 127.462 77.4734 127.506C77.1863 127.588 76.7577 127.516 76.4736 127.516C74.7055 127.516 72.9245 127.455 71.159 127.558C70.6045 127.591 70.48 127.772 70.0856 127.885C69.191 128.14 67.9014 127.895 66.9916 127.895C66.4363 127.895 63.0501 128.399 65.0657 127.895C65.5287 127.779 65.9195 127.735 66.4022 127.664C66.9572 127.582 67.4679 127.137 68.0124 127.137C68.4451 127.137 69.6938 128.931 70.0014 129.316C70.424 129.844 72.2682 129.675 72.885 129.558C73.9755 129.35 75.2277 129.087 76.1474 128.474C76.5268 128.221 75.2353 128.463 74.7793 128.463C73.8812 128.463 72.9832 128.463 72.0851 128.463C71.5479 128.463 71.233 128.955 70.7591 129.179C70.1678 129.459 69.5972 129.6 68.949 129.6C67.9823 129.6 67.3809 129.081 66.5075 128.832C65.8544 128.645 65.0403 127.922 64.3606 127.895C63.7257 127.87 62.8228 127.721 62.4663 127.137C62.2603 126.8 61.6502 126.983 61.2876 126.853C60.4058 126.538 60.4488 125.766 60.1405 124.97C60.0179 124.653 59.6517 124.323 59.5932 124.001C59.4867 123.416 59.5905 122.739 59.5827 122.149C59.5674 120.986 59.3933 119.83 59.3933 118.655C59.3933 117.053 59.334 115.437 59.3933 113.835C59.429 112.872 60.151 111.99 60.151 110.941C60.151 109.924 60.0355 108.834 60.1615 107.826C60.2441 107.165 60.7751 105.528 59.9616 105.121C59.3754 104.828 58.9752 104.99 58.4461 104.49C57.7749 103.856 57.6302 103.861 56.8465 103.637C56.5274 103.546 56.486 102.71 56.2361 102.469C55.3369 101.605 55.9584 102.434 55.9835 100.954C56.0136 99.1768 56.2346 97.8228 56.636 96.1023C57.3131 93.2005 57.3268 89.7724 59.267 87.3359C60.9925 85.169 64.6239 84.915 66.2338 82.5896C67.0343 81.4334 68.2075 80.3401 68.5281 78.9378C68.9177 77.233 71.0083 77.5281 72.4851 77.3171C76.3487 76.7652 80.272 77.2474 84.1245 76.7067C88.9867 76.0243 94.0425 76.37 98.9422 76.37C103.546 76.37 108.138 76.1805 112.739 76.1805C116.173 76.1805 119.518 76.3319 122.874 75.728C124.491 75.4369 126.327 75.6122 127.967 75.6122C131.053 75.6122 134.351 75.5894 137.355 76.37C139.187 76.846 140.712 77.0926 141.88 78.7273C142.241 79.2323 142.75 79.5981 143.132 80.0954C144.347 81.6744 144.904 83.6459 145.711 85.4416C146.708 87.6598 148.255 89.8394 148.91 92.1769C149.365 93.8038 149.373 95.3329 149.373 97.0179C149.373 97.8879 149.373 98.7579 149.373 99.6279C149.373 102.303 146.806 103.463 145.058 105.079C143.723 106.314 142.592 107.062 140.975 107.879C139.466 108.641 138.147 109.292 137.06 110.573C135.857 111.99 135.166 114.852 135.166 116.708C135.166 118.434 134.766 119.425 132.85 119.75C130.883 120.083 128.592 120.114 126.62 119.813C124.272 119.453 122.077 118.444 119.727 118.066C117.877 117.768 115.995 117.855 114.128 117.855C111.517 117.855 108.898 117.796 106.288 117.855C104.313 117.901 102.419 118.564 100.416 118.603C98.2636 118.644 96.1062 118.624 93.9539 118.613C87.3 118.579 80.6775 117.914 74.0531 117.487C71.58 117.327 69.7607 116.59 67.7914 114.993C66.2575 113.749 64.5954 110.549 66.739 109.12C67.9011 108.346 70.0228 108.763 71.3064 108.763C74.7221 108.763 78.1417 108.713 81.5567 108.784C85.6794 108.869 89.7695 109.487 93.8907 109.52C98.2239 109.555 102.518 109.937 106.846 110.057C111.51 110.186 116.186 110.278 120.853 110.278C122.039 110.278 123.224 110.278 124.41 110.278C125.402 110.278 126.651 110.453 127.599 110.047C129.312 109.313 130.83 107.984 132.261 106.826C133.626 105.723 134.719 104.17 135.923 102.88C136.595 102.161 136.99 101.695 135.734 101.606C133.841 101.473 131.917 101.564 130.019 101.564C120.088 101.564 110.157 101.564 100.226 101.564C91.2464 101.564 82.2611 101.461 73.2849 101.754C70.8483 101.833 68.4186 101.943 65.9813 101.943C63.5598 101.943 61.0602 102.078 58.6356 101.943C58.5314 101.937 57.7264 101.715 57.6884 101.648C57.4057 101.154 56.7685 101.564 57.7936 101.564C59.6356 101.564 61.3781 99.4643 62.7399 98.4281C64.8015 96.8595 67.7074 96.5443 70.0014 95.3972C73.2181 93.7889 76.9644 93.987 80.4622 93.987C86.2118 93.987 91.9614 93.987 97.7109 93.987C102.714 93.987 107.451 94.0385 112.392 94.85C118.932 95.9242 125.452 95.9501 132.051 96.2602C136.25 96.4576 140.687 96.7503 144.806 97.6704C146.81 98.1182 149.26 98.1491 150.278 100.312C150.663 101.131 150.506 102.089 150.93 102.89C151.16 103.323 151.448 103.459 151.33 103.459C150.154 103.459 148.901 102.551 147.984 101.901C146.218 100.65 144.796 99.1811 142.827 98.1966C141.127 97.3467 141.228 95.461 140.049 94.1344C138.972 92.9236 137.645 91.6263 136.87 90.1879C135.819 88.2347 134.338 87.5587 132.198 86.7466C129.974 85.9026 127.954 85.5472 125.557 85.4837C121.178 85.3677 116.813 85.0574 112.434 84.9364C103.884 84.7003 95.3077 84.8944 86.7555 84.8944C84.2594 84.8944 81.767 84.9103 79.2835 85.189C78.7727 85.2464 74.6757 85.4641 76.3789 86.2625C78.306 87.1658 80.3698 87.8665 82.367 88.5988C85.8182 89.8642 89.2062 91.2433 92.6068 92.64C96.3452 94.1754 99.8432 95.7422 103.846 96.5338C108.898 97.5326 113.897 98.7937 118.959 99.7331C120.382 99.9972 121.729 100.049 123.168 100.049C126.595 100.049 129.72 100.216 133.019 101.143C135.707 101.899 138.435 102.282 141.185 102.554C141.973 102.631 143.039 102.568 143.753 102.932C144.116 103.118 144.166 103.219 144.563 103.28C145.307 103.394 147.212 103.213 147.668 103.669C147.902 103.903 147.964 104.325 148.247 104.49C148.599 104.695 149.032 104.75 149.394 104.953C150.19 105.398 150.86 105.991 151.267 104.974" stroke="black" stroke-width="13" stroke-linecap="round"/>
<path d="M70.604 114.67C70.604 115.272 69.3556 115.063 68.9894 115.388C68.4142 115.899 68.1114 116.403 67.357 116.751C66.9463 116.941 66.3569 116.97 66.0026 117.254C65.8699 117.36 65.8514 117.5 65.6797 117.577C65.1802 117.799 66.2193 117.735 66.3345 117.738C66.8028 117.752 67.2664 118.208 67.6261 118.465C68.1176 118.816 68.7715 118.817 69.2406 119.263C69.6519 119.654 69.8923 120.334 70.3169 120.644C71.0324 121.167 71.8235 121.717 72.5414 122.133C72.97 122.381 72.9349 123.066 73.519 123.066C74.7457 123.066 76.0174 123.43 77.2414 123.541C77.9021 123.601 78.5882 123.55 79.2506 123.55C79.5737 123.55 80.8045 123.347 81.0624 123.622C81.462 124.048 82.6752 124.007 83.224 124.026C85.9066 124.118 88.6235 124.065 91.3056 124.035C91.9794 124.027 92.6566 123.968 93.3237 123.873C93.6248 123.83 93.8347 123.602 94.113 123.559C94.8063 123.453 95.5725 123.55 96.2747 123.55C96.999 123.55 97.3649 123.632 97.9789 123.855C98.4691 124.034 99.0553 124.196 99.5844 124.196C101.079 124.196 102.574 124.358 104.078 124.358C105.459 124.358 106.841 124.358 108.222 124.358C110.525 124.358 112.763 123.873 115.057 123.873C118.268 123.873 121.642 124.112 124.816 123.631C125.464 123.533 126.452 123.316 127.112 123.389C127.372 123.418 127.797 123.873 128.081 123.999C128.856 124.343 129.819 124.248 130.583 123.954C131.827 123.475 133.006 123.619 133.884 122.653C134.572 121.896 135.593 121.113 136.476 120.608C137.272 120.154 138.062 119.808 138.934 119.55C139.286 119.446 139.802 119.501 140.109 119.263C140.494 118.963 140.846 119.167 141.239 118.949C141.708 118.688 141.947 117.11 142.127 116.527C142.5 115.314 142.611 114.254 142.611 112.966C142.611 112.256 142.241 111.628 142.127 110.912C141.997 110.102 141.716 109.128 141.32 108.41C140.972 107.78 140.651 107.064 140.441 106.374C140.266 105.8 139.951 105.343 139.786 104.813C139.582 104.16 139.097 103.646 139.059 102.956C139.009 102.026 138.5 101.075 138.333 100.14C138.026 98.424 137.617 96.612 137.05 94.9734C136.543 93.5076 135.75 92.0821 134.987 90.7398C134.487 89.8591 134.375 88.7961 134.054 87.8337C133.789 87.0393 133.321 85.7944 133.256 84.9545C133.126 83.2672 132.304 82.7807 130.834 82.6942C130.142 82.6535 129.716 82.2803 129.103 82.0574C127.428 81.4481 125.549 81.4765 123.847 80.8913C122.719 80.5037 121.521 80.1199 120.349 80.1199C118.92 80.1199 117.491 80.1199 116.061 80.1199C107.346 80.1199 98.6582 79.9585 89.9422 79.9585C87.6678 79.9585 85.2336 79.4143 83.1164 80.2904C82.0409 80.7354 80.761 81.0528 79.8067 81.7345C79.3531 82.0584 78.8074 82.1045 78.2818 82.2547C77.5951 82.4509 77.1411 83.1112 76.4162 83.1875C76.025 83.2287 75.9318 83.585 75.9318 83.932C75.9318 84.9264 75.8187 85.7647 75.4834 86.7036C75.0277 87.9794 74.0902 89.305 73.4383 90.5156C72.5789 92.1117 72.141 93.8273 71.7341 95.5565C71.4934 96.5793 71.4112 96.3437 71.4112 95.4578C71.4112 94.927 71.3075 94.3274 71.5368 93.8433C72.0164 92.8308 72.4827 91.8609 72.8643 90.8116C73.0173 90.3909 73.1872 89.8807 73.1872 89.4303C73.1872 88.4988 73.2285 91.4089 72.7118 92.1839C72.4168 92.6264 71.9344 93.1543 71.8956 93.7177C71.8413 94.5052 71.2786 95.1272 71.2498 95.9063C71.2139 96.8752 70.965 97.8837 70.4425 98.7048C70.0909 99.2573 70.0567 99.9458 69.7249 100.499C69.2986 101.209 68.9666 101.983 68.819 102.795C68.6612 103.663 68.086 104.551 68.0207 105.432C67.9278 106.686 67.1643 107.525 66.765 108.643C66.4553 109.51 66.2093 110.658 66.0923 111.594C66.0024 112.313 65.7425 112.893 65.4016 113.54C65.3541 113.631 64.684 114.153 64.8635 114.258C65.2489 114.483 65.9747 114.348 66.4062 114.348C67.5065 114.348 68.6067 114.348 69.707 114.348C74.2483 114.348 78.7823 114.312 83.3227 114.222C95.597 113.978 107.893 114.186 120.169 114.186C121.16 114.186 122.193 114.318 123.12 113.908C124.339 113.369 125.418 112.97 126.753 112.814C128.015 112.666 129.478 112.849 130.673 112.401C131.112 112.236 132 111.503 131.848 110.939C131.555 109.853 130.184 109.181 129.3 108.679C127.363 107.577 125.364 106.804 123.183 106.356C116.507 104.985 109.529 105.306 102.751 105.306C96.2205 105.306 89.697 105.388 83.1971 104.625C80.4293 104.299 77.684 103.836 74.9093 103.557C74.5346 103.52 72.463 103.707 72.3889 102.929C72.2311 101.272 72.5878 100.114 73.7612 98.92C75.2769 97.3773 77.5376 96.2427 79.6632 95.8973C82.934 95.3658 85.9384 96.3775 89.117 96.8929C91.0101 97.1999 92.8658 97.6815 94.7499 98.041C98.6123 98.778 102.526 99.1223 106.446 99.3864C111.228 99.7087 116.079 99.4941 120.869 99.4941C122.566 99.4941 124.266 99.5183 125.964 99.4941C127.503 99.4721 128.043 99.2744 127.076 97.8796C126.63 97.2359 126.055 96.6689 125.757 95.9332C125.407 95.067 125.216 94.2376 124.484 93.5921C122.536 91.8761 119.322 91.5332 116.887 91.1435C112.554 90.4502 108.163 90.6143 103.791 90.6143C99.0242 90.6143 94.2001 90.7769 89.4399 90.4169C87.9636 90.3053 86.1916 90.5899 84.8117 90.1299" stroke="#E0353F" stroke-width="13" stroke-linecap="round"/>
<path d="M71.1318 75.849L58.4038 111.094" stroke="#E0353F"/>
<path d="M150.535 110.943L137 76" stroke="#E0353F"/>
<line x1="152.926" y1="84.1164" x2="157.004" y2="83.5055" stroke="black"/>
<line x1="51.4872" y1="83.1124" x2="45.4872" y2="109.112" stroke="black"/>
<line x1="163.511" y1="109.113" x2="157.513" y2="83.1124" stroke="black"/>
<line x1="51.0741" y1="83.5055" x2="55.1517" y2="84.1164" stroke="black"/>
<line x1="55.5427" y1="84.8764" x2="58.5173" y2="73.8696" stroke="black"/>
<line x1="55.5427" y1="84.8764" x2="58.5173" y2="73.8696" stroke="black"/>
<line x1="150.483" y1="73.8696" x2="153.457" y2="84.8766" stroke="black"/>
<line x1="150.483" y1="73.8696" x2="153.457" y2="84.8766" stroke="black"/>
<line x1="84" y1="72.5" x2="124" y2="72.5" stroke="#E0353F"/>
<line x1="70.9012" y1="76.6461" x2="84.8583" y2="72.5205" stroke="#E0353F"/>
<line x1="123.185" y1="72.5202" x2="137.142" y2="76.6465" stroke="#E0353F"/>
<line x1="64" y1="103" x2="97" y2="103" stroke="white" stroke-width="10"/>
<line x1="106" y1="94" x2="141" y2="94" stroke="white" stroke-width="10"/>
<line x1="94.091" y1="103.77" x2="109.24" y2="92.9334" stroke="white" stroke-width="10"/>
<path d="M61.4902 78.5544C61.4902 78.3291 61.4397 78.0214 61.5012 77.7984C61.564 77.5708 61.6751 77.3503 61.7275 77.1252C61.7831 76.8859 61.9117 76.8401 62.0365 76.6561C62.226 76.3768 62.4258 76.0927 62.5828 75.7952C62.8282 75.3302 62.9894 74.7677 63.3885 74.3936C63.7878 74.0193 64.2782 73.7798 64.6687 73.3893" stroke="black" stroke-width="2" stroke-linecap="round"/>
<path d="M58.5914 80.7537C58.601 80.7525 58.6027 80.7285 58.5945 80.7262C58.5802 80.7221 58.5608 80.7258 58.546 80.7258C58.5117 80.7258 58.4988 80.7554 58.4881 80.7833C58.4733 80.8217 58.4506 80.8499 58.4306 80.8858C58.4108 80.9214 58.4031 80.9669 58.3887 81.0054" stroke="white" stroke-width="2" stroke-linecap="round"/>
<path d="M58.382 81.0054C58.382 80.9643 58.389 80.9245 58.389 80.8827C58.389 80.8329 58.4168 80.7813 58.4345 80.7363C58.4681 80.6503 58.4935 80.5584 58.532 80.4741C58.5524 80.4292 58.5662 80.3821 58.5871 80.3374C58.5981 80.3139 58.6115 80.2875 58.6127 80.2612C58.6153 80.2081 58.6197 80.1552 58.6197 80.102C58.6197 79.9874 58.6127 79.8733 58.6127 79.7574C58.6127 79.7078 58.6127 79.6583 58.6127 79.6087C58.6127 79.51 58.6264 79.4333 58.6586 79.3407C58.6789 79.2823 58.6943 79.2246 58.7168 79.1666C58.7314 79.1291 58.7415 79.092 58.7592 79.0552C58.7749 79.0225 58.7971 78.9904 58.8085 78.9561C58.824 78.9096 58.8538 78.8656 58.8644 78.8178C58.8675 78.804 58.8791 78.7945 58.885 78.7817C58.8932 78.764 58.8913 78.7463 58.9029 78.7301C58.9108 78.7191 58.9134 78.7087 58.9134 78.727C58.9134 78.7756 58.9144 78.8244 58.9118 78.873C58.9062 78.9814 58.8974 79.1024 58.8714 79.2078C58.8245 79.3981 58.694 79.5565 58.6182 79.7361C58.5644 79.8635 58.4992 79.9818 58.438 80.1043C58.3722 80.2357 58.4004 80.3951 58.3812 80.5362C58.3678 80.6353 58.3645 80.7264 58.361 80.8252C58.3601 80.8537 58.3471 80.9028 58.3269 80.9246C58.2836 80.9714 58.2621 81.0156 58.2422 81.0754" stroke="black" stroke-width="2" stroke-linecap="round"/>
<path d="M57.5146 80.6755C57.5445 80.6718 57.484 80.642 57.4774 80.6384C57.4448 80.6203 57.4632 80.6003 57.444 80.5811C57.422 80.5591 57.3996 80.5325 57.3702 80.5554C57.3221 80.5928 57.3456 80.5555 57.3615 80.5192C57.3749 80.4885 57.3795 80.4614 57.389 80.428C57.4029 80.3788 57.4326 80.3345 57.4449 80.2841C57.4558 80.2395 57.4531 80.1927 57.4586 80.1475C57.4634 80.1089 57.4631 80.1248 57.4586 80.1512C57.4491 80.2074 57.4409 80.2617 57.4238 80.3162C57.4007 80.3896 57.3754 80.4637 57.3431 80.5343C57.3175 80.5905 57.3166 80.6163 57.3166 80.6792C57.3166 80.7179 57.3115 80.76 57.317 80.7983C57.3207 80.8243 57.3412 80.7485 57.3422 80.7456C57.3731 80.664 57.4322 80.5904 57.4563 80.5059C57.4731 80.4473 57.5008 80.395 57.5187 80.3377C57.5395 80.2711 57.5476 80.2176 57.5476 80.1475C57.5476 80.1006 57.5631 80.064 57.5769 80.0192C57.5842 79.9955 57.5943 79.972 57.5989 79.9477C57.604 79.9205 57.6073 79.8744 57.6209 79.8514C57.6391 79.8204 57.6558 79.7842 57.6786 79.7565C57.6933 79.7388 57.6916 79.7139 57.7006 79.6933C57.7224 79.6435 57.6796 79.6302 57.6796 79.5819C57.6796 79.5372 57.6861 79.5001 57.708 79.4595C57.715 79.4466 57.7126 79.4313 57.7126 79.4169C57.7126 79.3848 57.7276 79.3595 57.7428 79.3321C57.8114 79.2087 57.8638 79.0706 57.8922 78.932C57.904 78.8747 57.901 78.8173 57.9206 78.7615C57.9341 78.7232 57.9314 78.6777 57.9472 78.6414C57.9714 78.586 57.9603 78.5118 57.9866 78.4562C58.0048 78.4178 58.0096 78.3638 58.0096 78.3206C58.0096 78.2732 58.0459 78.2353 58.0504 78.1886C58.0556 78.1335 58.0886 78.0809 58.0925 78.0236C58.0954 77.9818 58.1086 77.9191 58.1292 77.882C58.1438 77.8556 58.1381 77.8324 58.1434 77.8045C58.1494 77.7727 58.1706 77.7482 58.1764 77.7165C58.1883 77.6517 58.2243 77.5977 58.2424 77.5368C58.2619 77.4711 58.2992 77.4176 58.3359 77.3608C58.3432 77.3496 58.3538 77.317 58.3661 77.3113C58.3897 77.3005 58.4654 77.3796 58.4798 77.392" stroke="black" stroke-width="0.2" stroke-linecap="round"/>
<path d="M157.702 106.356C157.702 106.066 157.566 105.723 157.48 105.444C157.304 104.874 157.321 104.216 157.246 103.625C157.211 103.358 157.058 103.107 157.036 102.849C157.005 102.477 156.881 102.035 156.771 101.678C156.632 101.225 156.472 100.784 156.346 100.334C156.294 100.149 156.336 99.9646 156.312 99.779C156.278 99.5266 156.204 99.333 156.204 99.067C156.204 98.6476 156.195 98.3448 156.065 97.9544C155.998 97.7537 156.02 97.5274 155.994 97.3196C155.921 96.7177 155.651 96.1566 155.458 95.5875C155.353 95.2768 155.337 94.9256 155.233 94.6074C155.137 94.3116 155.14 93.7753 154.983 93.541" stroke="black" stroke-width="2" stroke-linecap="round"/>
<path d="M150.512 82.1218C150.591 82.0752 150.68 82.0307 150.755 81.976C150.792 81.9485 150.798 81.9042 150.85 81.8889C150.987 81.8482 151.149 81.9163 151.287 81.8808C151.339 81.8675 151.368 81.6012 151.348 81.5467C151.341 81.5266 151.282 81.4156 151.266 81.4029C151.201 81.3521 151.18 81.2706 151.123 81.2105C151.073 81.1578 151.032 81.0331 151.004 80.9635C150.931 80.7828 150.823 80.6371 150.775 80.4451C150.723 80.2357 150.698 80.0352 150.668 79.8194C150.657 79.7427 150.603 79.5213 150.641 79.5885C150.682 79.6597 150.707 79.739 150.751 79.8103C150.814 79.9133 150.906 80.0219 150.934 80.1413C150.972 80.3068 151.058 80.4771 151.127 80.6314C151.212 80.8204 151.263 81.1077 151.423 81.2409C151.509 81.3124 151.516 81.4595 151.568 81.5548C151.608 81.6287 151.6 81.6861 151.632 81.571C151.675 81.412 151.679 81.2374 151.623 81.083C151.593 80.9987 151.591 80.9155 151.551 80.8359C151.501 80.7399 151.422 80.607 151.35 80.5281C151.311 80.4853 151.272 80.4516 151.243 80.3985C151.176 80.2794 151.174 80.136 151.109 80.0198C151.062 79.9343 151.019 79.8349 151 79.7384C150.975 79.6133 150.923 79.5126 150.869 79.3972C150.812 79.2743 150.83 79.0926 150.811 78.9588C150.799 78.8715 150.795 78.7834 150.783 78.6965C150.776 78.6409 150.733 78.6019 150.721 78.5457C150.679 78.3488 150.556 78.1911 150.544 77.9827C150.538 77.8712 150.654 77.9982 150.682 78.0313C150.71 78.0657 150.699 78.1013 150.72 78.1346C150.775 78.2209 150.832 78.2935 150.867 78.3948C150.93 78.5733 151.011 78.7377 151.036 78.9264C151.043 78.9733 151.03 79.0289 151.044 79.0742C151.054 79.1036 151.076 79.1224 151.077 79.1552C151.079 79.2364 151.077 79.3129 151.113 79.3881C151.14 79.4437 151.172 79.5044 151.19 79.5622C151.215 79.6446 151.224 79.7346 151.259 79.8143C151.316 79.9455 151.325 80.0962 151.387 80.2264C151.421 80.2984 151.437 80.349 151.441 80.4269C151.444 80.4769 151.49 80.5224 151.497 80.5737C151.512 80.694 151.561 80.7812 151.586 80.8916C151.601 80.9613 151.531 80.8168 151.524 80.8096C151.481 80.7602 151.484 80.5847 151.474 80.516C151.457 80.4136 151.416 80.3 151.405 80.2041C151.4 80.1633 151.368 80.1195 151.356 80.0786C151.306 79.9045 151.264 79.7267 151.197 79.5582C151.124 79.3742 151.097 79.1783 151.032 78.9912C150.986 78.8558 150.934 78.7272 150.894 78.5902C150.854 78.4507 150.785 78.2935 150.785 78.1488C150.785 78.0307 150.739 77.9441 150.713 77.8298C150.703 77.7837 150.724 77.7304 150.711 77.6851C150.695 77.6292 150.676 77.5923 150.676 77.5291C150.676 77.4684 150.667 77.652 150.68 77.7114C150.708 77.8413 150.759 77.9569 150.811 78.0769C150.848 78.1614 150.855 78.258 150.904 78.3391C150.947 78.4117 150.992 78.4747 151.005 78.5568C151.029 78.7113 151.073 78.8643 151.077 79.0236C151.078 79.0823 151.11 79.1532 151.127 79.2099C151.164 79.329 151.16 79.4569 151.194 79.5784C151.232 79.714 151.222 79.8679 151.222 80.0077" stroke="black" stroke-width="0.5" stroke-linecap="round"/>
<path d="M152.639 84.8599C152.657 84.8619 152.677 84.8754 152.694 84.8827C152.725 84.896 152.736 84.877 152.761 84.8646C152.788 84.8512 152.816 84.8412 152.841 84.8258C152.867 84.81 152.914 84.7948 152.929 84.771C152.938 84.7563 153.093 84.7575 153.117 84.7575C153.192 84.7575 153.263 84.7389 153.337 84.7389C153.417 84.7389 153.497 84.7389 153.578 84.7389C153.648 84.7389 153.728 84.7492 153.795 84.7239C153.934 84.6718 154.09 84.6831 154.236 84.6831C154.349 84.6831 154.462 84.6831 154.575 84.6831C154.626 84.6831 154.676 84.6666 154.728 84.665C154.825 84.662 154.918 84.6365 155.016 84.6365C155.127 84.6365 155.237 84.6365 155.347 84.6365" stroke="black" stroke-width="0.5" stroke-linecap="round"/>
<path d="M148.028 108.06C148.018 107.962 147.959 107.875 147.907 107.794C147.76 107.568 147.81 107.309 147.718 107.072C147.644 106.884 147.569 106.697 147.497 106.511C147.411 106.287 147.413 106.074 147.361 105.838C147.334 105.721 147.243 105.637 147.227 105.51C147.209 105.365 147.222 105.269 147.109 105.156C146.929 104.976 146.8 104.701 146.647 104.494C146.441 104.218 146.201 103.898 146.09 103.57C145.962 103.195 145.878 102.781 145.809 102.391C145.743 102.017 145.523 101.687 145.523 101.294C145.523 100.801 145.398 100.192 145.189 99.7394C144.928 99.1737 144.858 98.5224 144.53 97.9829C144.281 97.5717 144.061 97.2384 144.008 96.7647C143.988 96.5828 143.927 96.2746 143.858 96.1031C143.779 95.9059 143.843 95.7938 143.68 95.6305" stroke="#E0353F" stroke-width="2" stroke-linecap="round"/>
<path d="M141.594 89.2518C141.594 89.2119 141.583 89.1439 141.554 89.1154C141.512 89.0733 141.432 89.042 141.406 88.9883C141.366 88.9093 141.315 88.8363 141.287 88.7522C141.266 88.6892 141.233 88.6328 141.212 88.5691C141.196 88.5213 141.2 88.4701 141.182 88.423C141.155 88.3562 141.077 88.3025 141.06 88.2355C141.046 88.1771 141.007 88.1254 140.998 88.0641C140.987 87.9907 140.95 87.9361 140.924 87.8674C140.912 87.8348 140.918 87.8031 140.902 87.7705C140.889 87.7449 140.883 87.7181 140.871 87.6921C140.845 87.6317 140.822 87.5686 140.791 87.5105C140.745 87.4257 140.723 87.3388 140.686 87.2514C140.632 87.1245 140.594 86.9881 140.551 86.857C140.529 86.7899 140.505 86.7306 140.494 86.6617C140.484 86.6033 140.465 86.5478 140.439 86.4947C140.384 86.3824 140.333 86.2715 140.29 86.1519C140.253 86.049 140.222 85.9392 140.196 85.8334C140.171 85.7351 140.126 85.6406 140.088 85.5462C140.065 85.4882 140.054 85.4297 140.025 85.3733C139.997 85.3189 139.96 85.2467 139.955 85.1848C139.951 85.1387 139.93 85.1008 139.911 85.0621" stroke="#E0353F" stroke-width="0.5" stroke-linecap="round"/>
<path d="M137.436 79.5212C137.436 79.4212 137.368 79.4146 137.331 79.339C137.277 79.2328 137.199 79.1415 137.135 79.0352C137.09 78.961 137.098 78.8727 137.056 78.7967C137.038 78.7638 137.021 78.727 137.011 78.6909C136.967 78.5354 136.88 78.3309 136.795 78.1914C136.747 78.1115 136.707 77.987 136.627 77.9326C136.599 77.913 136.559 77.9031 136.534 77.8808C136.47 77.8242 136.322 77.7948 136.24 77.7683C135.979 77.6839 135.737 77.5453 135.494 77.4308C135.401 77.3869 135.311 77.3808 135.212 77.361C135.039 77.3265 134.875 77.2672 134.7 77.2373C134.474 77.1986 134.229 77.1753 134.024 77.0696C133.65 76.8768 133.276 76.7445 132.866 76.6297C132.526 76.5344 132.188 76.4185 131.845 76.335C131.735 76.3084 131.633 76.3063 131.536 76.2416C131.511 76.2249 131.501 76.1961 131.474 76.1808C131.406 76.1415 131.316 76.1346 131.242 76.1077C130.992 76.0173 130.753 75.919 130.508 75.8152C130.38 75.7609 130.243 75.7557 130.118 75.6948C130.012 75.6437 129.902 75.6039 129.789 75.5733C129.5 75.4948 129.201 75.5105 128.909 75.4416C128.742 75.4021 128.572 75.3883 128.404 75.3539C128.348 75.3424 128.283 75.3486 128.233 75.3156C128.141 75.2549 128.04 75.231 127.934 75.1986C127.773 75.1494 127.613 75.0528 127.45 75.0231C127.349 75.0047 127.258 74.938 127.16 74.9083C127.02 74.8664 126.874 74.853 126.734 74.8116C126.577 74.7646 126.413 74.7448 126.251 74.7148C126.006 74.6696 125.771 74.6177 125.531 74.5506C125.126 74.4378 124.732 74.2966 124.33 74.177C124.145 74.1218 123.946 74.1127 123.766 74.0375C123.636 73.9828 123.518 73.9266 123.384 73.8901C123.311 73.8703 123.274 73.79 123.189 73.79C123.139 73.79 123.055 73.732 123.001 73.7135C122.697 73.6081 122.358 73.6665 122.039 73.6291C121.42 73.5562 120.821 73.5875 120.202 73.5875" stroke="#E0353F" stroke-width="2" stroke-linecap="round"/>
<path d="M119.727 73.5009C119.277 73.5009 118.826 73.5009 118.376 73.5009C117.591 73.5009 116.814 73.4139 116.031 73.4001C115.745 73.395 115.458 73.3988 115.172 73.4001C114.996 73.4009 114.914 73.4488 114.761 73.4673C114.62 73.4844 114.466 73.4758 114.328 73.5065C114.159 73.544 114.036 73.6017 113.857 73.6017C113.522 73.6017 113.187 73.6017 112.851 73.6017C112.288 73.6017 111.725 73.6017 111.162 73.6017C109.898 73.6017 108.634 73.6017 107.37 73.6017C106.773 73.6017 106.165 73.6079 105.572 73.542C104.755 73.4512 103.935 73.3665 103.111 73.3665C102.243 73.3665 101.359 73.4013 100.497 73.3067C99.9268 73.2441 99.3535 73.2657 98.7797 73.2657C98.516 73.2657 98.2602 73.2004 97.9956 73.1984C97.5376 73.195 97.0717 73.2166 96.6159 73.163C96.1653 73.11 95.6991 73.0976 95.2455 73.0976C94.6313 73.0976 94.0209 73.064 93.4103 73.064C92.3809 73.064 91.3516 73.064 90.3223 73.064" stroke="#E0353F" stroke-width="2" stroke-linecap="round"/>
<path d="M89.4975 73.3428C89.098 73.3428 88.6985 73.3428 88.299 73.3428C88.1945 73.3428 88.09 73.3428 87.9855 73.3428C87.8663 73.3428 87.7126 73.3146 87.5992 73.3524C87.4931 73.3878 87.3262 73.3984 87.214 73.4006C87.075 73.4033 86.9396 73.4081 86.8009 73.4156C86.3444 73.4402 85.8571 73.3745 85.4098 73.5087C85.2281 73.5632 85.0518 73.5687 84.864 73.5739C84.7715 73.5765 84.6576 73.6359 84.5687 73.6638C84.4485 73.7016 84.3259 73.7668 84.2006 73.7847C84.1276 73.7952 83.9766 73.803 83.9502 73.8821" stroke="#E0353F" stroke-width="2" stroke-linecap="round"/>
<path d="M67.5513 88.7127C67.4475 88.6998 67.6218 88.4496 67.6401 88.4002C67.6968 88.2471 67.7053 88.1475 67.7112 87.9847C67.7165 87.8363 67.8576 87.6753 67.9349 87.555C68.1213 87.2651 68.202 86.8238 68.2403 86.4896C68.2503 86.4029 68.2571 86.3045 68.2883 86.2214C68.3036 86.1806 68.3457 86.161 68.3504 86.1167C68.3614 86.0143 68.4348 85.9608 68.4481 85.8681C68.4569 85.8061 68.5001 85.6739 68.5422 85.6266C68.6063 85.5544 68.5673 85.4374 68.6399 85.3709C68.7653 85.2559 68.7688 84.9958 68.8441 84.8453C68.8862 84.761 68.8675 84.6624 68.9115 84.5718C68.9536 84.4851 68.976 84.4079 69.0287 84.3267C69.1617 84.1222 69.2315 83.8947 69.3519 83.6839C69.4201 83.5647 69.4961 83.3149 69.5011 83.1761C69.5072 83.0051 69.5517 82.8915 69.6218 82.7357C69.6513 82.6703 69.6871 82.6058 69.7106 82.5386C69.7626 82.3901 69.8688 82.2221 69.8829 82.068C69.9071 81.801 69.941 81.649 70.1101 81.4235C70.2241 81.2715 70.2211 81.0592 70.2753 80.8819C70.3347 80.6874 70.4932 80.515 70.5487 80.3136C70.6054 80.1082 70.6148 79.8678 70.7334 79.6815C70.9141 79.3975 71.1768 79.1068 71.2892 78.7883C71.3359 78.6562 71.3955 78.5279 71.4579 78.403C71.4977 78.3235 71.4709 78.2411 71.4845 78.1526C71.5254 77.8871 71.7697 77.8943 71.9054 77.6856C71.9486 77.6191 72.0036 77.5877 72.0581 77.54C72.1195 77.4862 72.2026 77.5208 72.257 77.4725C72.4005 77.3449 72.7121 77.3189 72.8962 77.2523C73.0793 77.1861 73.2833 77.183 73.4716 77.1103C73.594 77.063 73.7331 77.0077 73.8622 76.9842C74.0114 76.9571 74.1054 76.9123 74.2475 76.8581C74.5439 76.7452 74.8501 76.656 75.1514 76.5633C75.2062 76.5465 75.2356 76.4956 75.2881 76.4746C75.351 76.4494 75.422 76.4501 75.4852 76.4248C75.6327 76.3658 75.7722 76.3003 75.9238 76.2473C76.4702 76.056 77.0234 75.8835 77.5983 75.8069C78.1509 75.7332 78.6508 75.4638 79.1485 75.228C79.4617 75.0796 79.7993 74.9923 80.1127 74.8551C80.2699 74.7863 80.5521 74.8371 80.6561 74.6811" stroke="#E0353F" stroke-width="2" stroke-linecap="round"/>
<path d="M64.8542 94.7288C64.777 94.7442 64.7767 94.8812 64.7767 94.9365C64.7767 95.023 64.7707 95.0783 64.7358 95.1551C64.6778 95.2827 64.6924 95.4364 64.6314 95.562C64.6105 95.605 64.5593 95.6766 64.5227 95.7074C64.5079 95.7198 64.4875 95.7507 64.4764 95.7677C64.4563 95.7983 64.4376 95.8394 64.4204 95.8721C64.3863 95.9367 64.3283 96.012 64.3213 96.0852C64.3119 96.1845 64.2509 96.2342 64.1954 96.3102C64.1591 96.3599 64.1078 96.4043 64.0866 96.4653C64.0692 96.5158 64.0549 96.5694 64.0425 96.6214C64.0382 96.6395 64.0272 96.6416 64.0145 96.6553C63.9887 96.6831 63.97 96.7158 63.9531 96.7495C63.8988 96.8582 63.8692 96.9752 63.8197 97.0843C63.8059 97.1145 63.8072 97.143 63.8003 97.1758C63.7956 97.1978 63.7808 97.2195 63.7787 97.2383C63.7762 97.2613 63.7691 97.2818 63.7691 97.3061C63.7691 97.33 63.7518 97.3366 63.7497 97.3567C63.7413 97.4351 63.7294 97.5204 63.7088 97.5967C63.6971 97.6401 63.6706 97.6717 63.6549 97.7109C63.6426 97.7418 63.6169 97.7657 63.6065 97.7981C63.5992 97.8209 63.5987 97.8377 63.585 97.8584" stroke="#E0353F" stroke-width="0.5" stroke-linecap="round"/>
<line x1="64" y1="103" x2="58" y2="103" stroke="white" stroke-width="10"/>
<line x1="147" y1="94" x2="141" y2="94" stroke="white" stroke-width="10"/>
<path d="M142.457 69.3546C142.3 69.2151 142.024 69.2487 141.821 69.2487" stroke="black" stroke-width="2" stroke-linecap="round"/>
<path d="M60.1257 79.6205C60.1057 79.7204 60.0238 79.8324 59.9877 79.9335C59.9568 80.0201 59.9469 80.0934 59.9333 80.1815C59.9141 80.3065 59.7835 80.4424 59.7145 80.5436C59.6511 80.6366 59.6519 80.7245 59.6097 80.8182C59.5576 80.9341 59.5021 81.0457 59.4373 81.155C59.4034 81.2123 59.3856 81.3036 59.3405 81.35C59.2018 81.4925 58.9033 81.5306 58.8604 81.7453" stroke="black" stroke-width="2" stroke-linecap="round"/>
<path d="M52.197 85.8393C52.0336 85.8291 52.0911 85.5235 52.0911 85.4079C52.0911 85.2145 52.0205 85.0434 52.0205 84.851" stroke="black" stroke-width="2" stroke-linecap="round"/>
<path d="M158.667 92.5025C158.667 92.2882 158.667 92.074 158.667 91.8597C158.667 91.6923 158.658 91.5159 158.62 91.3523C158.586 91.2039 158.484 91.1049 158.477 90.9422C158.467 90.7221 158.325 90.5263 158.29 90.3037C158.231 89.9176 158.214 89.5187 158.168 89.1303C158.118 88.7146 158.02 88.3466 158.02 87.9231C158.02 87.7743 157.924 87.6981 157.868 87.5679C157.785 87.3788 157.595 87.1456 157.567 86.9421C157.532 86.6733 157.449 86.4199 157.411 86.1514C157.371 85.8685 157.227 85.5743 157.136 85.3015C157.028 84.9764 156.962 84.6905 156.887 84.3628C156.875 84.3124 156.897 84.2291 156.857 84.1895C156.824 84.1561 156.802 84.1657 156.802 84.1112C156.802 83.9537 156.835 84.051 156.783 84.0922C156.731 84.134 156.794 84.2262 156.756 84.274C156.656 84.3988 156.488 84.4605 156.345 84.532C155.711 84.8491 154.992 85.1578 154.252 85.1578C153.989 85.1578 153.725 85.178 153.472 85.1218C153.368 85.0988 153.11 85.0561 153.035 84.9886C152.891 84.8606 152.721 84.7624 152.599 84.6059C152.503 84.4821 152.422 84.3544 152.312 84.2444" stroke="black" stroke-width="2" stroke-linecap="round"/>
<line x1="150.874" y1="104.461" x2="141.395" y2="79.9836" stroke="black" stroke-width="4"/>
<line x1="64.3427" y1="85.8789" x2="55.3408" y2="109.878" stroke="black" stroke-width="5"/>
<rect x="123.089" y="80" width="6" height="25" fill="black"/>
<rect x="123.082" y="80" width="6" height="15" transform="rotate(42.2321 123.082 80)" fill="black"/>
<line x1="170.265" y1="89.7953" x2="158.264" y2="93.7943" stroke="black" stroke-width="8"/>
<line x1="49.7351" y1="93.7947" x2="37.7351" y2="89.7947" stroke="black" stroke-width="8"/>
</g>
<defs>
<clipPath id="clip0_15_736">
<rect width="361" height="99" fill="white"/>
</clipPath>
</defs>
</svg>
