<svg width="20" height="21" viewBox="0 0 20 21" fill="none" xmlns="http://www.w3.org/2000/svg">
<path d="M8.61702 4.12979L7.25957 7.75957L3.62979 9.11702C1.63404 9.86596 0 10.4872 0 10.5C0 10.5128 1.63404 11.134 3.62979 11.883L7.25957 13.2404L8.61702 16.8702C9.36596 18.866 9.98723 20.5 10 20.5C10.0128 20.5 10.634 18.866 11.383 16.8702L12.7404 13.2404L16.3702 11.883C18.366 11.134 20 10.5128 20 10.5C20 10.4872 18.366 9.86596 16.3702 9.11702L12.7404 7.75957L11.383 4.12979C10.634 2.13404 10.0128 0.5 10 0.5C9.98723 0.5 9.36596 2.13404 8.61702 4.12979Z" fill="#E0353F"/>
</svg>
