<svg width="18" height="18" viewBox="0 0 18 18" fill="none" xmlns="http://www.w3.org/2000/svg">
<path d="M7.77176 1.53893C7.39059 2.41246 6.84 3.70092 6.54353 4.39974C6.24706 5.14223 5.86588 5.7537 5.61176 5.84106C5.37882 5.95025 4.19294 6.08128 2.96471 6.16863C0.127059 6.36517 0 6.40885 0 7.15135C0 7.65363 0.338824 8.02487 2.11765 9.46619C3.6 10.6455 4.21412 11.2788 4.15059 11.519C3.81176 12.6546 2.75294 17.2406 2.75294 17.5245C2.75294 17.6992 2.94353 17.9176 3.17647 17.9831C3.47294 18.0923 4.27765 17.6773 5.99294 16.6073C7.28471 15.7774 8.49177 15.0349 8.64 14.9476C8.78824 14.8602 9.97412 15.4717 11.5412 16.4544C14.1035 18.0704 14.6965 18.267 14.9506 17.59C15.0353 17.3498 14.1882 13.3971 13.6376 11.4971C13.5741 11.2569 14.1671 10.6455 15.7765 9.357C17.4706 8.00304 18 7.45708 18 7.06399C18 6.45253 17.7459 6.38701 14.8235 6.16863C13.5953 6.08128 12.4094 5.95025 12.1765 5.8629C11.88 5.7537 11.3929 4.81466 10.5882 2.8929C9.63529 0.578056 9.33882 0.0539398 8.93647 0.0102634C8.53412 -0.0552521 8.36471 0.16313 7.77176 1.53893Z" fill="#ECC115"/>
</svg>
