<svg width="38" height="45" viewBox="0 0 38 45" fill="none" xmlns="http://www.w3.org/2000/svg">
<path d="M4.95275 32.7842L4.88316 34.2826L4.95275 32.7842ZM1.12984 33.6685C0.571858 33.0562 0.615923 32.1074 1.22825 31.5495L11.2068 22.4567C11.8191 21.8987 12.7679 21.9428 13.3258 22.5551C13.8838 23.1674 13.8397 24.1162 13.2274 24.6741L4.3576 32.7566L12.4401 41.6264C12.9981 42.2387 12.954 43.1875 12.3417 43.7455C11.7293 44.3034 10.7806 44.2594 10.2226 43.647L1.12984 33.6685ZM4.88316 34.2826L2.16897 34.1566L2.30816 31.1598L5.02234 31.2859L4.88316 34.2826ZM37.4875 0.894857C38.7975 19.5375 23.5516 35.1497 4.88316 34.2826L5.02234 31.2859C21.8976 32.0696 35.679 17.957 34.4949 1.10514L37.4875 0.894857Z" fill="#F4F4F4"/>
</svg>
