<svg width="352" height="89" viewBox="0 0 352 89" fill="none" xmlns="http://www.w3.org/2000/svg">
<g clip-path="url(#clip0_15_1859)">
<path d="M138.126 80.9082C140.092 79.5468 141.044 76.3137 140.225 71.418C139.427 66.6506 137.008 60.8485 133.096 55.1992C129.184 49.5499 124.604 45.2436 120.423 42.8195C116.128 40.3302 112.767 40.0836 110.801 41.4449C108.835 42.8063 107.883 46.0394 108.702 50.9351C109.5 55.7025 111.919 61.5046 115.831 67.1539C119.742 72.8032 124.322 77.1095 128.504 79.5336C132.798 82.0229 136.16 82.2695 138.126 80.9082Z" fill="white" stroke="black" stroke-width="3"/>
<path d="M223.346 67.3805C223.346 70.0172 224.995 72.6058 228.081 74.6073C231.152 76.5994 235.484 77.8805 240.346 77.8805C245.208 77.8805 249.54 76.5994 252.611 74.6073C255.697 72.6058 257.346 70.0172 257.346 67.3805C257.346 64.7438 255.697 62.1551 252.611 60.1537C249.54 58.1616 245.208 56.8805 240.346 56.8805C235.484 56.8805 231.152 58.1616 228.081 60.1537C224.995 62.1551 223.346 64.7438 223.346 67.3805Z" fill="white" stroke="black" stroke-width="3"/>
<path d="M200.346 76.3805C200.346 79.0172 201.995 81.6058 205.081 83.6073C208.152 85.5994 212.484 86.8805 217.346 86.8805C222.208 86.8805 226.54 85.5994 229.611 83.6073C232.697 81.6058 234.346 79.0172 234.346 76.3805C234.346 73.7438 232.697 71.1551 229.611 69.1537C226.54 67.1616 222.208 65.8805 217.346 65.8805C212.484 65.8805 208.152 67.1616 205.081 69.1537C201.995 71.1551 200.346 73.7438 200.346 76.3805Z" fill="white" stroke="black" stroke-width="3"/>
<path d="M50.2457 26.0432C50.5686 26.6964 51.1558 26.6796 51.7066 27.0405C52.4417 27.5221 53.4052 27.1844 54.1474 27.5597C55.3245 28.155 56.6278 28.9498 57.9723 29.1013C58.1445 29.1208 58.3784 28.9444 58.506 29.0732C58.6305 29.1988 58.7554 29.1989 58.9267 29.1772C59.4038 29.1169 59.7158 29.3164 60.1432 29.4611C60.4866 29.5773 60.9826 29.8223 61.3414 29.8367C61.762 29.8537 61.9592 30.0303 61.6472 29.399C61.2539 28.6034 60.9169 27.4479 60.3215 26.7685C59.6205 25.9687 59.2002 24.9123 58.7311 23.9632C58.5256 23.5475 57.8663 22.4719 58.2598 22.082" stroke="white" stroke-width="3" stroke-linecap="round"/>
<path d="M37.7949 25.4345C37.9349 25.3858 38.1631 25.6085 38.325 25.631C38.5442 25.6614 38.6586 25.567 38.8516 25.4853C39.1558 25.3566 39.6129 25.2872 39.9585 25.1738C40.4305 25.0189 40.7487 24.9786 41.2409 24.9984C41.7411 25.0186 42.26 24.9468 42.7152 24.7218" stroke="white" stroke-width="3" stroke-linecap="round"/>
<path d="M90.6782 37.3495C90.8753 37.648 91.7243 37.3659 92.036 37.4297C92.3293 37.4898 92.6364 37.185 92.8842 37.3034C93.2297 37.4685 93.661 37.5869 94.0496 37.5743C94.4062 37.5627 94.7408 37.596 95.0816 37.459C95.5993 37.2508 96.1056 37.304 96.6326 37.1445C97.751 36.8059 98.8304 36.4147 99.8806 35.8956C100.941 35.3717 101.956 34.9353 103.108 34.6697C103.9 34.4871 104.646 33.9988 105.375 33.6385C105.866 33.3957 106.357 33.1528 106.849 32.91C107.116 32.7778 107.434 32.6667 107.667 32.4798C107.911 32.2845 107.982 32.0205 108.278 31.8596C108.528 31.724 109.263 31.3711 109.44 31.1578C109.659 30.8943 108.113 30.5958 107.924 30.602C107.616 30.6119 107.422 30.4797 107.118 30.4783C106.956 30.4775 106.802 30.2726 106.675 30.1878C106.525 30.0881 106.341 30.1458 106.218 30.0631C105.761 29.7554 105.323 29.8743 105.027 29.2764C104.775 28.766 103.958 29.41 103.581 29.5966C103.144 29.8124 102.707 30.0283 102.271 30.2441C101.825 30.4644 101.384 30.7046 100.93 30.9069C100.545 31.0784 100.054 30.8814 99.6218 31.0949" stroke="white" stroke-width="3" stroke-linecap="round"/>
<path d="M29.558 57.9318C30.0993 57.7352 30.4879 58.2736 30.7089 57.4776C30.7832 57.2099 30.7434 57.0837 30.6199 56.8338C30.5031 56.5974 30.6202 56.3974 30.531 56.1901C30.3041 55.6631 30.3303 55.0885 30.0637 54.5489C29.8446 54.1059 29.5997 53.7268 29.2572 53.3811" stroke="white" stroke-width="3" stroke-linecap="round"/>
<path d="M106.854 30.4213C106.956 30.6285 106.955 30.8479 106.724 30.9618C106.399 31.1223 106.412 30.6761 106.245 30.4928C106.121 30.3554 105.509 31.8042 105.422 32.0026C105.242 32.409 104.143 32.7141 103.794 32.8862C103.32 33.1205 102.763 33.6721 102.556 32.9513C102.431 32.5137 103.12 31.6701 103.535 31.5943C104.15 31.4819 102.743 32.5617 102.347 33.0458C101.716 33.8181 100.454 34.2198 99.5852 34.6492C99.1301 34.8742 96.6939 34.5732 97.2334 33.9241C97.6435 33.4308 98.4218 33.0015 99 32.7157C99.1375 32.6478 98.7858 32.9476 98.7366 33.0929C98.6432 33.3688 98.6898 33.4704 98.4335 33.6396C98.0453 33.8959 97.8538 34.4256 97.4737 34.7314C97.2195 34.9361 96.808 35.2281 96.5195 35.3707C96.1213 35.5675 96.558 35.1804 96.4221 35.0307C96.2951 34.8909 95.4757 34.9723 95.2908 34.9548C94.8287 34.9111 94.3513 35.0734 93.9044 35.0051C93.3263 34.9167 92.6884 34.8282 92.1083 34.9402C91.4487 35.0676 90.8221 34.8527 90.226 35.1473C89.7919 35.3619 88.9116 35.2018 88.3938 35.2591C88.3091 35.2685 87.7088 35.004 87.5854 34.9442C87.1218 34.7199 87.1284 34.9502 87.4494 34.5263C88.0303 33.7592 88.8535 32.5084 89.9488 33.141C90.8217 33.6451 92.1914 33.6456 93.2142 33.6086C94.8856 33.5481 96.595 33.4218 98.2415 33.0906C98.7338 32.9916 99.4735 33.1168 98.6923 33.5029C98.1843 33.754 97.6763 34.0051 97.1683 34.2562C95.393 35.1337 93.6277 35.0117 91.7786 35.112C91.5406 35.1249 91.3084 35.3229 91.0742 35.275C90.8174 35.2224 90.6188 35.1592 90.3564 35.2505C90.0697 35.3502 89.392 35.6561 89.1065 35.6125C88.5034 35.5203 87.7641 35.8568 87.2039 35.6179C86.9476 35.5086 86.5672 35.3304 86.2931 35.2743C85.6509 35.1427 84.7142 35.6099 84.1433 35.2255C83.8814 35.0491 83.389 35.1858 83.0624 34.9659C82.6631 34.697 82.3351 35.047 81.9415 34.9466C81.282 34.7785 80.7514 34.4247 80.1912 34.1536C79.4639 33.8017 79.0681 33.2978 78.1893 33.4584C77.9131 33.5088 77.3218 33.2451 77.0272 33.1772C76.7979 33.1243 76.2559 33.1747 76.1047 33.0775C75.6188 32.7652 74.5364 32.5172 74.0024 32.6789C73.919 32.7041 73.1715 32.4588 73.0807 32.42C72.52 32.1809 71.7003 32.3008 71.0765 32.2199C70.6005 32.1581 70.1949 31.9906 69.7341 31.9308C69.5166 31.9026 69.4464 31.6918 69.2581 31.628C69.0677 31.5636 68.8775 31.7024 68.6925 31.5724C68.0418 31.1153 66.9239 31.3036 66.3134 30.6315C65.798 30.064 64.898 29.9078 64.3389 29.367C64.0226 29.0611 63.7094 29.1421 63.2903 29.0121C62.8911 28.8884 62.6599 28.5865 62.2816 28.417C61.9832 28.2832 61.6512 28.2796 61.3599 28.1404C60.4855 27.7226 59.5155 27.2732 58.5574 26.9854C57.7418 26.7403 56.8316 26.4277 56.0614 26.0934C55.7834 25.9728 55.2216 25.7303 54.9278 25.7629C54.5649 25.8031 53.5863 25.6894 53.2491 25.543C52.9549 25.4153 52.8304 25.1426 52.5087 25.0445C52.1732 24.9422 51.8481 24.8436 51.5093 24.7535C51.1061 24.6463 50.6546 24.5347 50.2586 24.5073C49.6495 24.4652 47.6219 24.3592 49.3915 24.6625C49.938 24.7561 50.6838 24.503 51.1335 24.9569C51.6603 25.4885 53.8288 26.2579 53.1661 25.9104C51.9677 25.282 51.069 24.5481 49.6228 24.3453C48.9752 24.2544 47.9019 24.0807 47.2437 24.1717C46.34 24.2966 45.4347 24.01 44.5465 23.979C43.5378 23.9438 42.3799 23.5325 41.3898 23.7134C40.7183 23.8361 40.1126 23.8773 39.4121 23.9059C38.5191 23.9424 37.9949 24.1301 37.1814 24.5322C36.5841 24.8274 35.8464 24.7158 35.1988 25.0359C34.2206 25.5194 33.2424 26.0029 32.2642 26.4864C30.3674 27.4239 28.1023 28.2368 26.4788 29.593C26.1086 29.9022 25.2187 30.2411 25.0872 30.7571C24.9691 31.2204 24.4458 31.7408 24.1826 32.1392C23.7186 32.8419 23.3662 33.5177 22.8155 34.1556C22.4276 34.6048 21.2462 36.1461 21.4768 36.9078C21.5696 37.2146 21.7128 37.5083 22.0339 37.2498C22.2835 37.0489 22.1901 36.7051 22.472 36.5658C22.4849 36.5594 22.1155 37.218 22.0796 37.3243C21.8148 38.1066 21.9058 38.9864 21.8666 39.8022C21.852 40.1073 22.1098 40.4549 22.2408 40.7198C22.3999 41.0417 22.2286 41.4564 22.2924 41.8057C22.3495 42.1183 22.1315 42.5688 22.227 42.9582C22.3094 43.2942 22.3313 43.6429 22.4133 43.9775C22.6093 44.777 22.79 45.3643 23.1743 46.1416C23.5082 46.8174 23.1509 47.7253 23.617 48.3043C23.8411 48.5827 24.2218 48.7504 24.4944 48.9732C24.7811 49.2074 24.9039 49.641 25.0663 49.9695C25.4347 50.7148 26.3175 51.216 26.7084 52.0068C27.0964 52.7919 27.5741 53.4372 27.9712 54.2404C28.2526 54.8097 28.6134 56.0971 29.302 56.2905C29.5114 56.3493 30.171 57.7725 30.016 57.9134C29.7351 58.1685 29.9212 58.5071 29.6373 58.7356C29.3828 58.9405 28.9697 59.2332 28.6832 59.3748C28.4186 59.5056 28.0894 59.5863 27.8272 59.4098C27.6923 59.319 27.47 59.3785 27.3149 59.319C27.1081 59.2397 27.0219 58.872 26.8325 58.8606C26.261 58.8263 26.0352 58.2824 25.4813 58.179C25.1229 58.1122 24.262 57.6965 24.0311 57.4757C23.5399 57.0061 22.7941 56.9764 22.3528 56.3824C21.8401 55.6921 21.4604 55.0744 20.8268 54.4906C20.4651 54.1573 20.2341 54.3265 19.9882 53.829C19.8658 53.5814 19.5321 53.1502 19.3059 53.0196C19.07 52.8834 18.8369 52.3119 18.617 52.0899C18.3427 51.813 18.225 51.3469 17.914 51.1673C17.1507 50.7265 16.6917 48.2612 16.5793 47.6461C16.4151 46.7475 16.725 45.9422 16.2871 45.0562C15.9697 44.4142 16.1802 43.6177 15.8865 42.9609C15.1789 41.3792 16.4089 39.6544 16.5449 38.19C16.6851 36.6799 17.5811 35.0236 18.0367 33.6775C18.2241 33.1238 18.594 32.0859 18.9937 31.6521C19.231 31.3945 19.3159 31.1003 19.4361 30.7984C19.5276 30.5685 20.072 30.1868 20.2318 30.017C20.6484 29.5742 21.2327 29.1668 21.5465 28.6439C22.3463 27.3107 23.4082 26.3081 24.8352 25.5541C25.5685 25.1667 26.165 24.9629 26.5107 24.1615C26.7149 23.688 28.4633 23.1258 28.9212 22.8995C29.875 22.428 30.764 22.3492 31.8167 22.2621C32.1641 22.2333 32.597 22.3305 32.9275 22.1894C33.4571 21.9632 33.1249 22.1945 32.8994 22.1327C32.7309 22.0864 32.0212 22.2084 32.3348 21.8825C32.5374 21.672 32.9245 21.5557 33.1856 21.4267C33.9513 21.0482 34.5482 20.6618 35.3672 20.7012C36.8617 20.773 38.6143 21.0316 40.0009 20.4395C40.3793 20.278 40.6711 20.4538 41.0188 20.5715C41.3265 20.6757 41.8968 20.5535 42.2634 20.5914C42.6815 20.6345 43.1509 20.5437 43.5508 20.5548C44.0377 20.5684 44.5557 20.5665 45.0854 20.5902C45.4992 20.6086 45.779 20.8771 46.2023 20.7084C46.5584 20.5665 46.967 20.6721 47.3194 20.7914C48.0388 21.0348 48.8115 21.1733 49.5586 21.3957C50.351 21.6316 51.0523 21.9485 51.8322 22.2124C52.2267 22.3459 52.6189 22.4699 53.0185 22.6139C53.2398 22.6937 54.1275 22.7183 54.1846 22.7961C54.5672 23.3166 55.687 23.217 56.2042 23.4914C56.4543 23.624 56.5996 24.0853 56.8022 24.166C57.0577 24.2677 57.3988 24.4742 57.628 24.5517C58.1226 24.7191 58.9923 24.6379 59.4601 24.4752C59.914 24.3174 60.9308 24.9921 61.3737 25.1347C61.9434 25.3181 61.9434 25.4269 62.3533 25.903C62.6658 26.2661 62.8699 26.3489 63.2342 26.5789C63.5319 26.7669 64.041 26.6765 63.8438 26.2776C63.6823 25.9508 63.9439 25.8915 64.2281 25.7702C64.438 25.6805 64.8455 25.9922 65.1323 25.9936C65.4353 25.9949 66.0447 26.304 66.1978 26.543C66.3353 26.7578 66.7965 26.9292 67.0375 26.9571C67.3507 26.9933 67.744 27.5319 68.0527 27.6548C68.3533 27.7745 68.8841 28.0614 69.1824 28.0844C69.6081 28.1171 69.8407 28.4566 70.1847 28.5063C70.4446 28.5437 70.7994 29.0166 71.0799 29.1752C71.4013 29.3569 71.7628 29.4104 72.0896 29.5405C72.2093 29.5882 72.216 29.7908 72.3215 29.8669C72.4544 29.9628 72.6497 29.8953 72.802 29.9469C73.1256 30.0564 73.4323 30.1291 73.7697 30.2272C74.6203 30.4744 75.3844 30.639 76.1347 31.1574C76.9634 31.73 78.1324 31.6188 79.0231 32.076C79.4686 32.3046 80.5552 32.6528 81.0432 32.6652C81.5563 32.6782 82.038 32.7562 82.5416 32.8772C82.7193 32.9198 82.9611 32.8772 83.1497 32.8941C83.3761 32.9144 83.3508 33.1451 83.5372 33.2141C83.8629 33.3348 84.4526 33.3685 84.8026 33.3472C84.853 33.3442 85.7595 33.2136 85.6723 33.3937C85.4678 33.8164 82.3252 32.6977 82.0972 32.6205C80.3624 32.0334 78.8503 31.045 77.1207 30.5113C75.7076 30.0752 74.1759 29.9338 72.8048 29.3458C70.9442 28.5478 68.4551 28.2695 66.4369 28.383C65.7337 28.4225 65.0584 28.3504 64.3725 28.2038C63.7919 28.0797 62.9262 28.1103 62.3939 27.8411C61.6665 27.4732 61.1182 27.1994 60.3044 26.9686C59.231 26.6642 58.0788 26.4043 57.027 26.0483C55.8004 25.6332 54.5373 25.4371 53.3329 24.9988C51.8655 24.4647 50.5355 23.3936 48.9491 23.1964C47.5779 23.026 46.3179 22.5497 44.9143 22.4212C43.925 22.3306 42.9616 22.6322 41.9998 22.5563C41.2114 22.4941 40.3559 22.4242 39.567 22.5239C38.1436 22.704 36.8309 22.9179 35.4753 23.3468C33.6966 23.9096 32.0435 24.849 30.3654 25.6785C28.9813 26.3626 27.5757 26.8986 26.1909 27.5831C24.3964 28.4701 21.9969 29.2524 20.9552 31.1236C20.4765 31.9834 20.0788 32.8867 19.5852 33.7412C19.3468 34.1541 19.0046 35.0302 19.1811 35.4934C19.6369 36.6892 19.1976 38.0768 19.192 39.2984C19.1891 39.9168 19.4244 40.4884 19.2401 41.1446C19.1459 41.4801 19.5224 41.9655 19.6734 42.2711C20.2312 43.3996 20.3042 44.7121 20.8098 45.855C21.1332 46.586 21.2425 47.3727 21.6057 48.1077C21.8463 48.5944 22.0869 49.0812 22.3275 49.5679C22.8433 50.6114 22.9014 51.6925 23.4163 52.7343C23.6199 53.1462 24.0927 53.2689 24.374 53.6369C24.6801 54.0373 25.0814 54.3322 25.4587 54.6179" stroke="white" stroke-width="5" stroke-linecap="round"/>
<path d="M77.149 37.0036C76.8313 37.1606 76.518 36.9966 76.2003 36.9735C76.0057 36.9593 75.6961 36.7803 75.5141 36.7049C75.4099 36.6617 75.3048 36.6876 75.2074 36.6292C75.1274 36.5812 75.0305 36.5463 74.9384 36.5299C74.688 36.4854 74.4406 36.5222 74.1898 36.4749C73.8959 36.4195 73.593 36.3464 73.2961 36.3114C72.7835 36.251 72.2913 36.0644 71.7833 35.9548C71.4921 35.8919 71.2119 35.7464 70.9288 35.6606C70.5844 35.5563 70.1784 35.3456 69.824 35.3148C69.4111 35.279 69.0348 35.0802 68.6239 35.0112C68.1836 34.9372 67.7273 34.7926 67.3093 34.6407C66.867 34.4799 66.3835 34.4639 65.9329 34.3253C65.6999 34.2536 65.5143 34.2337 65.2989 34.1273C65.1153 34.0366 64.923 33.9488 64.7365 33.8642C64.3625 33.6945 64.0208 33.4421 63.6337 33.2975C63.1837 33.1294 62.7558 32.8492 62.2892 32.7416C61.9698 32.668 61.6678 32.462 61.3659 32.3332C60.8475 32.1122 60.3314 32.0014 59.7872 31.8684C59.5311 31.8058 59.2418 31.718 59.0059 31.6073C58.6187 31.4256 58.0618 31.4285 57.7213 31.1576C57.5699 31.0372 57.3154 30.9206 57.1354 30.832C56.9275 30.7298 56.7188 30.6282 56.5017 30.5548C56.2187 30.459 55.9112 30.3289 55.6046 30.2842C55.4084 30.2556 55.1636 30.1237 54.9654 30.1357C54.7522 30.1486 54.4733 29.9708 54.2692 29.9017C54.0641 29.8323 53.9345 29.712 53.7055 29.701C53.6216 29.697 53.5812 29.5994 53.4941 29.5831C53.3478 29.5559 53.2097 29.6525 53.065 29.6099C52.9128 29.5651 52.756 29.526 52.5991 29.482C52.4273 29.4337 52.2473 29.414 52.0717 29.3647C51.8883 29.3132 51.6915 29.271 51.4788 29.2797C51.2075 29.2908 50.9378 29.1497 50.6652 29.1383C50.5228 29.1324 50.3219 29.0713 50.1903 29.0173C50.1032 28.9815 49.923 28.9963 49.8579 28.9246C49.7879 28.8475 49.5977 28.7828 49.4863 28.7426C49.2825 28.6692 49.1589 28.6031 48.9457 28.7085" stroke="black" stroke-width="3" stroke-linecap="round"/>
<path d="M48.3771 28.1891C48.2887 28.2213 48.1866 28.0816 48.1232 28.0305C48.0336 27.9581 47.9354 27.9481 47.8316 27.9152C47.4463 27.7932 47.002 27.8189 46.6056 27.8641C46.0705 27.9251 45.5892 28.0568 45.06 27.9362C44.8725 27.8935 44.6818 27.8296 44.4931 27.7989C44.3886 27.7819 44.0932 27.7283 44.0213 27.6491C43.9358 27.555 43.7612 27.5408 43.6395 27.5315C43.5137 27.5219 43.4026 27.4571 43.2912 27.4566C42.2222 27.4517 41.194 27.7499 40.152 27.9434C39.7214 28.0234 39.3365 28.1402 38.9 28.1694C38.6168 28.1885 38.365 28.1952 38.0847 28.1895C37.8881 28.1855 37.7345 28.1868 37.5368 28.2206C37.3196 28.2579 37.0525 28.2 36.8511 28.2829C35.9509 28.6531 35.0775 29.1151 34.2006 29.5485C33.8269 29.7332 33.4382 29.9826 33.0362 30.1018C32.9178 30.1369 32.7921 30.1446 32.6743 30.1794C32.3016 30.2893 31.9187 30.543 31.5744 30.7132C31.1153 30.9401 30.6493 31.1569 30.2072 31.4161C29.922 31.5833 29.5897 31.7526 29.3321 31.9648C29.1073 32.1499 28.9115 32.4301 28.7149 32.6454C28.4919 32.8895 28.331 33.2039 28.0942 33.429C27.9342 33.581 27.8169 33.7206 27.6869 33.9046C27.2941 34.4602 26.7995 34.9255 26.4404 35.5015C26.1056 36.0386 26.0651 36.6915 25.9221 37.287C25.793 37.8245 25.8172 38.4552 25.8637 39.0033C25.8853 39.2576 25.8286 39.4861 25.8217 39.738C25.8155 39.9669 25.822 40.2274 25.7323 40.4419C25.6443 40.6525 25.6176 40.9319 25.6389 41.1576C25.6743 41.5317 25.6186 41.9203 25.6555 42.3007C25.6793 42.5474 25.7683 42.8506 25.7608 43.0936C25.7536 43.3268 25.8709 43.5508 25.8903 43.7856C25.9219 44.1671 26.2484 44.4842 26.3162 44.8672C26.3918 45.2937 26.6006 45.6724 26.7902 46.056C27.0349 46.551 27.2796 47.0461 27.5243 47.5411C27.9176 48.3369 28.1994 49.1994 28.7347 49.92C28.8761 50.1103 29.0116 50.3332 29.1758 50.5024C29.3494 50.6815 29.6017 50.8499 29.7447 51.0538C29.813 51.151 29.8841 51.2506 29.9425 51.3538C29.9814 51.4227 30.1089 51.4625 30.1645 51.5331C30.304 51.7104 30.5207 51.8039 30.617 51.9988" stroke="black" stroke-width="3" stroke-linecap="round"/>
<path d="M112.165 31.1045C112.128 31.1862 112.071 31.2298 112.048 31.314C112.019 31.4259 111.889 31.5641 111.812 31.6447C111.645 31.818 111.513 31.9903 111.313 32.132C111.156 32.243 111.019 32.3685 110.87 32.4858C110.781 32.5552 110.718 32.6075 110.652 32.697C110.627 32.7315 110.593 32.7453 110.558 32.7673C110.486 32.8123 110.426 32.8739 110.356 32.9224C110.126 33.083 109.891 33.2362 109.654 33.386C109.501 33.4824 109.375 33.604 109.234 33.7146C109.089 33.8279 108.902 33.9029 108.741 33.9902C108.664 34.0319 108.6 34.0893 108.529 34.1401C108.447 34.1984 108.356 34.2388 108.276 34.2993C108.072 34.4527 107.861 34.6005 107.645 34.7354C107.48 34.8379 107.328 34.9671 107.158 35.0602C106.901 35.2014 106.653 35.3492 106.389 35.4798C106.112 35.6167 105.837 35.7521 105.568 35.9039C105.011 36.2191 104.501 36.6056 103.926 36.89C103.743 36.9801 103.561 37.0701 103.379 37.1602C103.197 37.2503 103.027 37.3303 102.83 37.3823C102.724 37.4102 102.615 37.4397 102.511 37.4739C102.328 37.5339 102.14 37.5531 101.955 37.6098C101.8 37.6571 101.651 37.6855 101.494 37.7071" stroke="black" stroke-width="3" stroke-linecap="round"/>
<path d="M100.948 37.5588C100.818 37.6232 100.687 37.6877 100.557 37.7521C100.332 37.8632 100.175 37.8901 99.9322 37.9077C99.621 37.9302 99.2979 38.1087 98.9914 38.0837C98.831 38.0706 98.62 38.126 98.4631 38.1644C97.9125 38.2994 97.388 38.5312 96.8422 38.6741C96.2816 38.8208 95.6809 38.9329 95.1072 39.0276C94.8916 39.0632 94.6571 39.1725 94.4429 39.188C94.3048 39.198 94.1909 39.1845 94.0495 39.207C93.7458 39.2555 93.353 39.2469 93.0461 39.2163C92.3679 39.1486 91.6984 39.2152 91.0255 39.207C90.713 39.2032 90.4563 39.0419 90.1348 39.0544C89.9883 39.0601 89.8456 39.0245 89.6971 39.0286C89.6237 39.0306 89.4828 39.0686 89.4138 39.0352C89.0491 38.8587 88.5822 39.1557 88.2112 39.0515C87.8216 38.9421 87.2252 39.021 86.8342 39.0848C86.6653 39.1123 86.5318 39.0821 86.3647 39.0896C85.8829 39.111 85.4027 39.095 84.9269 39.0097C84.7149 38.9717 84.4911 39.0064 84.2763 38.973C84.0164 38.9326 83.7157 38.9158 83.4505 38.8969C83.2589 38.8833 83.0312 38.8471 82.8428 38.8119C82.6631 38.7784 82.4782 38.7899 82.3012 38.746C82.1143 38.6996 81.9338 38.6345 81.7433 38.6018C81.6115 38.5793 81.5054 38.4214 81.3676 38.4367C81.0653 38.4702 80.7838 38.3323 80.4867 38.289C80.2126 38.2491 79.9444 38.1561 79.6693 38.1248C79.5103 38.1067 79.2743 38.1115 79.1289 38.0411C78.9619 37.9603 78.8207 37.871 78.6547 37.7814C78.5584 37.7295 78.2407 37.6544 78.1802 37.5613C78.1221 37.4719 77.9613 37.4523 77.8699 37.4034C77.7586 37.3438 77.6301 37.2106 77.504 37.2729" stroke="black" stroke-width="3" stroke-linecap="round"/>
<path d="M31.0123 52.0694C31.0869 52.2202 31.1499 52.3993 31.2495 52.5344C31.4233 52.7704 31.6637 52.9525 31.8768 53.1522C32.2372 53.4899 32.408 54.0317 32.6221 54.4649C32.8693 54.965 33.1165 55.4651 33.3636 55.9651C33.4823 56.2051 33.6328 56.436 33.6637 56.7047C33.6881 56.9174 33.7395 57.1273 33.8023 57.3312C33.9369 57.7676 33.7837 58.262 33.7851 58.7024C33.7865 59.1125 33.6672 59.5726 33.5364 59.9588C33.4814 60.1213 33.3566 60.2781 33.2659 60.4237C33.1246 60.6503 32.9607 60.8727 32.8033 61.089C32.5631 61.419 32.1055 61.714 31.7419 61.8938C31.5713 61.9781 31.4002 62.0613 31.2302 62.1467C31.0231 62.2507 30.829 62.381 30.6203 62.4809C30.4729 62.5515 30.2985 62.5415 30.14 62.5619C29.7546 62.6114 29.3436 62.6943 28.9717 62.8082C28.8928 62.8323 28.7897 62.8963 28.7044 62.8894C28.6555 62.8854 28.6212 62.8391 28.5734 62.8304C28.2952 62.7797 28.009 62.7612 27.7307 62.712C27.5567 62.6813 27.3597 62.544 27.1964 62.4703C27.0364 62.3981 26.8743 62.3451 26.71 62.285C26.5595 62.2299 26.4425 62.2236 26.2881 62.1933C25.8931 62.1158 25.5013 61.9392 25.1177 61.8094C24.1536 61.4831 23.2622 60.9964 22.2942 60.6688" stroke="black" stroke-width="3" stroke-linecap="round"/>
<path d="M21.5172 60.4492C21.4468 60.3427 21.2957 60.3257 21.2245 60.2145C21.0945 60.0116 20.8889 59.7308 20.6787 59.6121C20.4938 59.5078 20.3282 59.31 20.1797 59.1601C20.0288 59.0078 19.8231 58.8882 19.659 58.7463C19.5324 58.6367 19.4232 58.503 19.2829 58.4085C18.9538 58.1869 18.6708 57.9085 18.3138 57.7204C17.9808 57.5449 17.7039 57.2192 17.4921 56.9172C17.3677 56.7399 17.2049 56.566 17.0603 56.4043C17.0218 56.3614 16.9469 56.3543 16.906 56.3022C16.8534 56.2351 16.7948 56.1494 16.757 56.0728C16.6335 55.823 16.3808 55.6677 16.2386 55.4309C16.0103 55.0504 15.6887 54.7054 15.4019 54.3676C15.2012 54.1313 15.0865 53.8149 14.9507 53.5401C14.8191 53.2738 14.6429 53.0006 14.5854 52.7059C14.5256 52.3998 14.375 52.1393 14.2376 51.8613C14.1229 51.6292 13.9445 51.3743 13.9206 51.1151C13.9093 50.9918 13.931 50.8277 13.8757 50.7158" stroke="black" stroke-width="3" stroke-linecap="round"/>
<path d="M13.27 49.9062C13.3072 49.7964 13.2941 49.6818 13.3015 49.5697C13.3122 49.4064 13.292 49.2309 13.27 49.0665C13.2222 48.7105 13.2467 48.3439 13.1436 47.9974C13.0837 47.7961 13.0129 47.6103 12.9786 47.4013C12.9589 47.2812 12.9676 47.1595 12.94 47.0411C12.9129 46.925 12.8772 46.8085 12.8623 46.6904C12.8498 46.5918 12.8221 46.4959 12.8097 46.3971C12.7896 46.237 12.8121 46.0765 12.7866 45.9173C12.7402 45.6279 12.654 45.3459 12.6352 45.0535C12.6238 44.8773 12.5826 44.6882 12.5473 44.5149C12.5147 44.3549 12.4837 44.2186 12.4948 44.0545C12.5149 43.7575 12.4673 43.4701 12.4521 43.1743C12.4427 42.9909 12.4517 42.8379 12.4148 42.6562C12.3781 42.4752 12.4194 42.2934 12.3939 42.1088C12.3656 41.9036 12.3829 41.7 12.3675 41.4945C12.3535 41.3071 12.3332 41.1256 12.3414 40.9367C12.3495 40.7527 12.3282 40.5701 12.3661 40.3896C12.3965 40.2445 12.4177 40.0798 12.4266 39.9317C12.4377 39.7487 12.4861 39.5826 12.5707 39.4195C12.6599 39.2474 12.7168 39.0629 12.8162 38.8962C12.8978 38.7592 12.9465 38.5839 12.9795 38.4296C13.0556 38.0736 13.2477 37.7495 13.3242 37.3919C13.4145 36.9693 13.4618 36.5098 13.6128 36.1096C13.7097 35.8529 13.8188 35.5905 13.9102 35.3207" stroke="black" stroke-width="3" stroke-linecap="round"/>
<path d="M14.0888 34.5609C14.1144 34.5982 14.157 34.4629 14.1667 34.4495C14.1983 34.4057 14.2003 34.376 14.2121 34.3249C14.2291 34.2511 14.2992 34.2086 14.3377 34.1461C14.388 34.0642 14.4104 33.9769 14.4435 33.8879C14.5247 33.6701 14.6484 33.4727 14.7421 33.2588C14.8306 33.0569 14.8872 32.8415 14.9699 32.6372C15.0201 32.513 15.0879 32.4031 15.1489 32.2845C15.2067 32.1721 15.2117 32.0572 15.2512 31.9405C15.3477 31.6555 15.4634 31.3766 15.5658 31.0944C15.6094 30.9742 15.6154 30.8454 15.6598 30.727C15.7193 30.5681 15.8692 30.4103 15.9615 30.265C16.132 29.9966 16.2928 29.715 16.4573 29.4412C16.5488 29.2887 16.6513 29.1425 16.7414 28.9895C16.7973 28.8945 16.8056 28.7978 16.8474 28.702C16.907 28.5655 17.0483 28.447 17.1351 28.3264C17.2412 28.1788 17.3344 28.03 17.4542 27.893C17.501 27.8395 17.502 27.7792 17.5388 27.7264C17.577 27.6716 17.6293 27.6277 17.667 27.5658C17.7487 27.4314 17.852 27.2824 17.9496 27.1602C18.184 26.8669 18.4375 26.626 18.733 26.4001C19.4231 25.8726 20.0785 25.2856 20.7127 24.7083C21.0589 24.3932 21.3584 24.0281 21.7116 23.7185C21.9622 23.4988 22.2023 23.267 22.4433 23.0375C22.6485 22.8421 22.9146 22.6889 23.1004 22.4777C23.3006 22.2499 23.5206 22.0806 23.7634 21.9003C24.0644 21.6767 24.4317 21.5336 24.7228 21.2964C25.0073 21.0645 25.296 20.8801 25.6289 20.7156" stroke="black" stroke-width="3" stroke-linecap="round"/>
<path d="M26.0747 20.5036C26.2308 20.4264 26.387 20.3492 26.5431 20.272C26.8021 20.144 27.0798 20.1214 27.3425 19.9996C27.4723 19.9395 27.6363 19.9048 27.775 19.8609C28.0781 19.7648 28.3607 19.6292 28.6574 19.5184C28.7381 19.4883 28.8296 19.477 28.9072 19.441C29.2589 19.278 29.6303 19.0767 30.0122 18.9937C30.3089 18.9292 30.5844 18.7672 30.8786 18.712C31.2096 18.65 31.5443 18.5449 31.8625 18.4336C32.181 18.3223 32.4961 18.1887 32.7992 18.0389C32.939 17.9697 33.0781 17.8886 33.2238 17.8324C33.352 17.7829 33.4883 17.7811 33.6192 17.7324C34.2317 17.5047 34.8845 17.507 35.5205 17.3858C35.7715 17.3379 36.0204 17.2505 36.2723 17.2136C36.4035 17.1944 36.5379 17.2021 36.6694 17.186C36.8119 17.1686 36.9285 17.1284 37.0749 17.1339C37.2108 17.139 37.3318 17.1423 37.4685 17.1268C37.651 17.1062 37.8601 17.1404 38.0403 17.1664C38.2458 17.1959 38.4561 17.1981 38.6633 17.2198C38.9367 17.2484 39.2212 17.2208 39.4904 17.1723C39.7744 17.1211 40.0545 17.1763 40.3324 17.1379C40.5342 17.11 40.7511 17.1508 40.957 17.136C41.1901 17.1192 41.4442 17.1594 41.6763 17.181C41.9491 17.2063 42.2242 17.2263 42.4982 17.2333C42.607 17.236 42.7499 17.2319 42.8526 17.2745C42.9766 17.3259 43.1531 17.3765 43.2998 17.3722C43.5587 17.3647 43.8125 17.4969 44.0727 17.4981C44.2638 17.499 44.4285 17.5524 44.6143 17.5799C44.9646 17.6315 45.3283 17.6066 45.6813 17.6524C45.8046 17.6684 45.9577 17.6144 46.0763 17.6446C46.1698 17.6685 46.2572 17.653 46.353 17.6596C46.4459 17.666 46.5203 17.7034 46.6145 17.7025C46.8657 17.6999 47.1364 17.6959 47.379 17.7354C47.6376 17.7774 47.9695 17.7319 48.2026 17.8498" stroke="black" stroke-width="3" stroke-linecap="round"/>
<path d="M103.323 27.4912C103.273 27.6193 103.192 27.7209 103.108 27.8277C103.016 27.9451 102.809 27.9999 102.68 28.0641C101.884 28.4574 101.088 28.8687 100.251 29.1681C99.9236 29.285 99.57 29.3644 99.231 29.4431C98.8996 29.5199 98.539 29.5737 98.2261 29.7093C97.9194 29.8423 97.5958 29.9308 97.2656 29.9846C96.8295 30.0557 96.424 30.1894 95.9959 30.2956C95.4414 30.4331 94.8647 30.5261 94.3024 30.6294C94.1679 30.6541 94.0399 30.6327 93.906 30.64C93.7947 30.646 93.6857 30.6612 93.5737 30.6601C93.36 30.6582 93.1494 30.6432 92.9358 30.6717C92.8089 30.6886 92.6843 30.7177 92.5568 30.7329C92.4828 30.7417 92.4178 30.7319 92.3472 30.7618C92.2868 30.7875 92.271 30.7551 92.211 30.7519C92.1283 30.7475 92.0514 30.7928 91.9663 30.7828C91.838 30.7677 91.7072 30.7903 91.5752 30.7779C91.438 30.765 91.2884 30.7841 91.152 30.7915C91.0272 30.7982 90.8874 30.7648 90.76 30.7587" stroke="black" stroke-width="3" stroke-linecap="round"/>
<path d="M89.7675 30.4847C89.5651 30.3711 89.2864 30.4297 89.0671 30.3932C88.8981 30.3651 88.7316 30.3652 88.5618 30.3213C88.1197 30.207 87.6627 30.2164 87.2095 30.1737C86.9262 30.147 86.6558 30.1423 86.3782 30.0749C86.1372 30.0165 85.8824 29.9377 85.6369 29.9085C85.3692 29.8766 85.1038 29.8012 84.84 29.7464C84.5965 29.6958 84.3447 29.6953 84.1052 29.6218C83.8924 29.5565 83.6819 29.5296 83.4666 29.4805C83.1859 29.4166 82.937 29.2532 82.6489 29.2064C82.254 29.1422 81.8667 29.0123 81.4721 28.9425C81.2757 28.9078 81.0934 28.8524 80.9031 28.7939C80.8647 28.782 80.7916 28.798 80.7624 28.7617C80.7442 28.7391 80.6623 28.7044 80.63 28.7049C80.5987 28.7054 80.5916 28.7291 80.565 28.7036C80.5429 28.6822 80.5347 28.6683 80.5064 28.6682" stroke="black" stroke-width="3" stroke-linecap="round"/>
<path d="M79.9037 28.5723C79.8532 28.4934 79.7227 28.4955 79.6441 28.4689C79.5696 28.4437 79.4994 28.4132 79.4278 28.3802C79.2223 28.2852 79.0097 28.2279 78.7952 28.1575C78.4981 28.0599 78.2013 28.0103 77.9229 27.8717C77.6234 27.7226 77.2899 27.646 76.9682 27.5598C76.8783 27.5357 76.823 27.4933 76.7464 27.4417C76.5746 27.326 76.3792 27.2303 76.1988 27.128C75.9856 27.0071 75.7373 26.9575 75.5195 26.8473C75.4151 26.7945 75.2997 26.7925 75.1891 26.7648C75.0594 26.7323 74.9225 26.6831 74.797 26.6355C74.5718 26.5501 74.3479 26.4531 74.1155 26.3893C73.9436 26.3422 73.7773 26.3229 73.6109 26.2591C73.2492 26.1203 72.844 26.1765 72.508 25.9573C72.3099 25.828 72.1347 25.6766 71.9242 25.5676C71.7986 25.5026 71.6746 25.4115 71.5594 25.3296C71.2432 25.1049 70.9181 24.9144 70.5657 24.7539C70.3498 24.6555 70.1194 24.5912 69.8881 24.5469C69.7606 24.5225 69.545 24.4954 69.4408 24.4102C69.3253 24.3158 69.1659 24.3212 69.0474 24.2314" stroke="black" stroke-width="3" stroke-linecap="round"/>
<path d="M69.1307 24.0279C69.0722 24.0526 69.0595 24.0195 69.0132 23.9881C68.9118 23.9195 68.8295 23.8813 68.7089 23.8541C68.5143 23.8103 68.292 23.803 68.1057 23.7353C67.9611 23.6827 67.8043 23.6584 67.6662 23.5908C67.4771 23.4983 67.2802 23.4322 67.0832 23.3591C66.8555 23.2745 66.635 23.2633 66.4195 23.1414C66.2549 23.0482 66.0876 22.9532 65.9078 22.8924C65.5701 22.7781 65.2542 22.6339 64.9261 22.4947C64.4636 22.2984 63.9769 22.1698 63.5147 21.9722C63.3619 21.9069 63.2028 21.8804 63.0468 21.8276C62.852 21.7617 62.7519 21.6335 62.5952 21.5129C62.4395 21.3931 62.2689 21.2373 62.0849 21.1628C61.9818 21.121 61.8872 21.0541 61.7749 21.0354C61.6666 21.0174 61.5719 20.9679 61.4625 20.9607C61.3471 20.9531 61.224 20.9379 61.1077 20.925C60.9478 20.9073 60.795 20.8452 60.6353 20.8599C60.5674 20.8662 60.4835 20.8351 60.4183 20.8166C60.1125 20.7299 59.7903 20.6941 59.4848 20.6075C59.3222 20.5614 59.132 20.5758 58.9786 20.5025C58.8672 20.4493 58.7005 20.4002 58.5787 20.3758C58.4469 20.3493 58.3258 20.3053 58.1932 20.2832C58.1283 20.2724 58.0499 20.2758 57.9932 20.243" stroke="black" stroke-width="3" stroke-linecap="round"/>
<path d="M57.7882 20.3907C57.6901 20.4148 57.4867 20.3229 57.3923 20.3033C57.252 20.2741 57.1179 20.2395 56.9789 20.209C56.8252 20.1753 56.6812 20.1125 56.5254 20.0779C56.3286 20.0343 56.1511 19.9316 55.9739 19.8396C55.6667 19.6801 55.3334 19.5267 54.9963 19.445C54.5731 19.3425 54.1545 19.2217 53.7241 19.1549C53.5651 19.1301 53.419 19.0638 53.2619 19.0294C53.1286 19.0002 52.9869 18.9691 52.8578 18.9254C52.7392 18.8852 52.6152 18.8323 52.4993 18.7834C52.3639 18.7262 52.2244 18.6904 52.0893 18.636C51.6245 18.449 51.0525 18.4797 50.5616 18.4721C50.2867 18.4679 50.0347 18.3475 49.7557 18.3389C49.6225 18.3348 49.5057 18.3071 49.3736 18.2949C49.2848 18.2866 49.2178 18.2336 49.1272 18.2416C49.0398 18.2493 48.8905 18.2321 48.8074 18.204C48.6415 18.1479 48.4575 18.2198 48.2782 18.1644C48.1993 18.1401 48.1125 18.1055 48.0308 18.0962C47.9549 18.0876 47.9376 18.0579 47.8804 18.0367C47.8203 18.0144 47.7656 17.9934 47.7032 17.9853" stroke="black" stroke-width="3" stroke-linecap="round"/>
<path d="M183.577 -73.5C134.52 -73.5 95.0771 -38.4087 95.0771 4.5C95.0771 47.4087 134.52 82.5 183.577 82.5C232.635 82.5 272.077 47.4087 272.077 4.5C272.077 -38.4087 232.635 -73.5 183.577 -73.5Z" fill="white" stroke="black" stroke-width="3"/>
<path d="M174.677 10.0743C174.677 25.4174 182.771 39.41 196.057 49.6143C209.346 59.8198 227.768 66.1748 248.177 66.1748C268.586 66.1748 287.008 59.8198 300.296 49.6143C313.583 39.41 321.677 25.4174 321.677 10.0743C321.677 -5.2689 313.583 -19.2615 300.296 -29.4658C287.008 -39.6713 268.586 -46.0262 248.177 -46.0262C227.768 -46.0262 209.346 -39.6713 196.057 -29.4658C182.771 -19.2615 174.677 -5.2689 174.677 10.0743Z" fill="white" stroke="black" stroke-width="3"/>
<path d="M275.981 7.9906C275.981 7.92549 275.952 7.86798 275.904 7.82043C275.847 7.7634 275.788 7.67596 275.755 7.60063C275.715 7.51193 275.62 7.43332 275.584 7.33749C275.543 7.22886 275.424 7.1246 275.357 7.02945C275.292 6.93601 275.272 6.78355 275.187 6.71117C275.111 6.64627 275.02 6.50107 274.973 6.41258C274.937 6.34464 274.881 6.28742 274.85 6.21799C274.835 6.1836 274.802 6.15377 274.791 6.11793C274.763 6.02425 274.724 5.93205 274.694 5.83826C274.675 5.77867 274.664 5.72097 274.637 5.66336C274.588 5.55678 274.542 5.44865 274.501 5.33877C274.457 5.22131 274.435 5.09583 274.39 4.97952C274.375 4.94138 274.346 4.91135 274.328 4.87553C274.272 4.76813 274.222 4.65868 274.166 4.55095C274.075 4.37313 274.032 4.15028 273.905 3.98844C273.775 3.8239 273.76 3.60762 273.692 3.41254C273.671 3.35159 273.657 3.28546 273.642 3.22267C273.62 3.1347 273.561 3.0655 273.542 2.97844C273.53 2.91835 273.514 2.87635 273.514 2.81458" stroke="black" stroke-linecap="round"/>
<path d="M276.25 7.81694C276.145 7.75797 276.276 7.66826 276.32 7.62059C276.397 7.536 276.487 7.5242 276.53 7.3979C276.59 7.22351 276.674 7.04457 276.761 6.88233C276.785 6.83689 276.827 6.76338 276.866 6.73095C276.912 6.69261 276.912 6.6233 276.96 6.58835C276.995 6.56351 277.013 6.49915 277.038 6.46329C277.071 6.41711 277.101 6.3724 277.137 6.32727C277.203 6.24517 277.28 6.18362 277.355 6.10788C277.392 6.07123 277.464 5.97108 277.473 5.9203C277.482 5.86487 277.551 5.80493 277.592 5.76343C277.749 5.60687 277.757 5.37275 277.908 5.22153C277.971 5.15846 278.016 5.08664 278.085 5.02408C278.118 4.99398 278.166 4.99938 278.18 4.95387C278.2 4.88717 278.242 4.82559 278.281 4.76739C278.398 4.59256 278.536 4.41528 278.623 4.22988C278.66 4.15311 278.719 4.10443 278.767 4.03571C278.803 3.98362 278.811 3.93148 278.837 3.87556C278.892 3.75652 279.016 3.69851 279.058 3.56731C279.085 3.48275 279.172 3.37658 279.172 3.29527C279.172 3.23634 279.211 3.19104 279.211 3.12633C279.211 3.06451 279.236 3.03029 279.255 2.97495C279.285 2.88967 279.268 2.80606 279.34 2.73472C279.43 2.64417 279.468 2.51304 279.523 2.39576C279.548 2.34271 279.543 2.30003 279.548 2.24438C279.56 2.1101 279.623 1.98403 279.654 1.85386C279.67 1.7879 279.668 1.70425 279.69 1.64105C279.703 1.60177 279.756 1.57663 279.764 1.53793C279.773 1.49696 279.81 1.4628 279.832 1.42824C279.855 1.39305 279.853 1.34623 279.873 1.31086C279.92 1.22668 279.922 1.14659 279.922 1.05307C279.922 0.976122 279.924 0.899828 279.973 0.836973C280.034 0.758527 280.001 0.600109 280.001 0.504594C280.001 0.324529 280.018 0.1374 280.001 -0.0416932C279.989 -0.164872 279.934 -0.289076 279.923 -0.416854C279.915 -0.512092 279.899 -0.600353 279.902 -0.697676C279.905 -0.772097 279.922 -0.843633 279.922 -0.92036C279.922 -0.997574 279.962 -1.05638 279.962 -1.12769" stroke="black" stroke-linecap="round"/>
<path d="M273.548 2.59875C273.548 1.72743 273.471 0.864882 273.471 -0.000273228C273.471 -0.228246 273.458 -0.46005 273.471 -0.687618C273.482 -0.886866 273.508 -1.18662 273.606 -1.36422C273.71 -1.55169 273.619 -1.75591 273.778 -1.94202C273.843 -2.01781 273.792 -2.12238 273.875 -2.19333C273.926 -2.23746 273.963 -2.42767 274.004 -2.50479C274.093 -2.67323 274.283 -2.92231 274.283 -3.1234C274.283 -3.33457 274.388 -3.51439 274.399 -3.72482C274.408 -3.90745 274.517 -3.98151 274.631 -4.10716C274.98 -4.49098 275.32 -4.89658 275.567 -5.36586C275.709 -5.63572 275.936 -5.87416 276.092 -6.13912C276.151 -6.24008 276.25 -6.27205 276.285 -6.39258C276.326 -6.53677 276.429 -6.6457 276.543 -6.7384C276.696 -6.86363 276.765 -7.0867 276.893 -7.24317C277.058 -7.44568 277.193 -7.61853 277.376 -7.80164" stroke="black" stroke-linecap="round"/>
<path d="M277.028 2.83069C277.028 2.96179 276.929 3.02526 276.912 3.13999C276.889 3.30198 276.876 3.42994 276.814 3.58892C276.761 3.72233 276.611 3.92108 276.603 4.06791C276.594 4.24004 276.519 4.48556 276.427 4.63067C276.332 4.77988 276.339 5.08133 276.302 5.25787C276.265 5.43502 276.255 5.5845 276.255 5.76909" stroke="black" stroke-width="3" stroke-linecap="round"/>
<path d="M277.608 3.25603C277.742 3.24116 277.842 3.03232 277.935 2.94458C278.148 2.74428 278.114 2.5628 278.188 2.31093C278.283 1.99064 278.304 1.61333 278.304 1.28206C278.304 0.952189 278.424 0.647814 278.457 0.319779C278.542 -0.52761 278.459 -1.41712 278.459 -2.27065C278.459 -2.56786 278.424 -2.88474 278.313 -3.16205C278.26 -3.2933 278.304 -3.52446 278.304 -3.66467" stroke="black" stroke-width="3" stroke-linecap="round"/>
<path d="M275.404 3.02401C275.357 3.01818 275.299 2.37322 275.29 2.30015C275.27 2.14118 275.312 2.62378 275.365 2.77485C275.402 2.87733 275.503 2.92742 275.518 3.0412C275.532 3.14775 275.52 3.26239 275.52 3.36983C275.52 3.5252 275.52 3.68057 275.52 3.83594C275.52 3.89837 275.52 3.90887 275.52 3.83594C275.52 3.64692 275.52 3.4579 275.52 3.26888C275.52 3.11181 275.511 2.96188 275.55 2.80922C275.569 2.73441 275.632 2.67748 275.636 2.59872C275.667 2.00606 275.66 1.35522 275.797 0.766514C275.833 0.611159 275.865 0.422362 275.95 0.283225C275.977 0.238929 275.943 0.516271 275.937 0.540979C275.845 0.918346 275.829 1.27993 275.829 1.66651C275.829 2.06774 275.799 2.47059 275.75 2.86721C275.728 3.04312 275.713 3.20761 275.713 3.38916C275.713 3.53548 275.934 4.00717 275.859 3.62544C275.826 3.45784 275.713 3.31791 275.679 3.15719C275.643 2.98644 275.675 2.77936 275.675 2.60516C275.675 2.37748 275.675 2.1498 275.675 1.92211C275.675 1.67521 275.559 1.46865 275.559 1.22403C275.559 1.04638 275.597 0.876743 275.597 0.704224" stroke="black" stroke-width="3" stroke-linecap="round"/>
<path d="M275.366 1.47749C275.156 1.47749 275.242 1.01311 275.259 0.867475C275.286 0.629147 275.422 0.445298 275.495 0.225237C275.549 0.063903 275.581 -0.166792 275.596 -0.335378C275.631 -0.723608 275.732 -1.11359 275.813 -1.49957C275.853 -1.69143 275.946 -1.88645 275.946 -2.08166C275.946 -2.31276 275.981 -2.55086 276.04 -2.7733C276.081 -2.92361 276.139 -3.14663 276.139 -3.2974C276.139 -3.43089 276.316 -3.59988 276.333 -3.74203C276.337 -3.77605 276.442 -3.90932 276.47 -3.9332C276.558 -4.00854 276.528 -3.82386 276.524 -3.77855C276.5 -3.5383 276.449 -3.33107 276.449 -3.08476" stroke="black" stroke-width="3" stroke-linecap="round"/>
<path d="M276.139 -1.6543C276.051 -1.63479 275.837 -1.16095 275.829 -1.06576C275.804 -0.749566 275.632 -0.455233 275.597 -0.146434C275.584 -0.0228936 275.53 0.239935 275.451 0.326115C275.316 0.475481 275.362 0.310931 275.365 0.162871C275.37 -0.027974 275.483 -0.296619 275.597 -0.447148C275.717 -0.603925 275.677 -0.82002 275.752 -1.00562C275.785 -1.08704 275.864 -1.42673 275.683 -1.30633C275.449 -1.15011 275.377 -0.82539 275.327 -0.571729" stroke="black" stroke-width="3" stroke-linecap="round"/>
<path d="M262.167 7.89759C262.393 7.89759 262.446 7.94834 262.598 8.10036C262.694 8.19591 262.816 8.31573 262.923 8.3969C263.021 8.47158 263.178 8.48507 263.262 8.55658C263.485 8.74607 263.762 8.71605 264.012 8.83032C264.3 8.96174 264.634 9.02724 264.945 9.08377C265.103 9.11253 265.231 9.21 265.396 9.22064C265.518 9.22851 265.68 9.24498 265.794 9.28908C266.291 9.48 266.805 9.57854 267.305 9.7453C268.074 10.0018 268.85 10.1787 269.649 10.1787C270.31 10.1787 270.932 10.27 271.596 10.27C272.468 10.27 273.295 10.3466 274.161 10.4043C274.922 10.455 275.683 10.4524 276.447 10.4524C276.77 10.4524 277.092 10.4524 277.415 10.4524C277.875 10.4524 278.265 10.2294 278.708 10.1787C279.154 10.1278 279.588 9.88977 280.036 9.8112C280.6 9.71216 281.121 9.44306 281.618 9.16742C282.144 8.87518 282.674 8.55954 283.143 8.18147C283.35 8.01498 283.535 7.75553 283.719 7.55796C284.181 7.06153 284.664 6.59275 285.181 6.15381C285.479 5.90106 285.61 5.56916 285.855 5.27684C286.054 5.03932 286.201 4.77587 286.327 4.49366C286.433 4.25677 286.596 4.08864 286.748 3.88283C287.075 3.43835 287.326 2.96037 287.614 2.48881C287.764 2.24349 287.909 2.01665 288.078 1.7842C288.15 1.68535 288.218 1.51975 288.218 1.39388C288.218 0.792199 288.635 0.250256 288.79 -0.314424C288.877 -0.628781 288.937 -0.950515 289.024 -1.26235C289.057 -1.38234 289.13 -1.65581 289.206 -1.75913C289.561 -2.24333 289.85 -2.64886 290.068 -3.22411C290.212 -3.60523 290.33 -4.02214 290.453 -4.4103C290.504 -4.57241 290.572 -4.68162 290.613 -4.85131C290.648 -4.99898 290.69 -5.14416 290.727 -5.28979C290.819 -5.65931 290.984 -5.94917 291.153 -6.28588C291.275 -6.53162 291.325 -6.80958 291.411 -7.06653" stroke="black" stroke-width="3" stroke-linecap="round"/>
<path d="M262.614 6.7832C262.614 6.58562 262.579 6.34358 262.623 6.15135C262.702 5.80524 262.873 5.50913 262.979 5.17138C263.081 4.84507 263.153 4.53327 263.266 4.21154C263.454 3.67768 263.574 3.12062 263.757 2.58161C263.78 2.51663 263.797 2.44971 263.818 2.38441C263.871 2.22152 264.02 2.12068 264.077 1.96184C264.228 1.54525 264.272 1.06607 264.345 0.629728C264.407 0.257442 264.675 -0.16822 264.846 -0.499146C265.105 -0.999858 265.401 -1.47941 265.657 -1.98218C265.978 -2.61275 266.347 -3.24563 266.754 -3.82339C266.887 -4.01274 266.974 -4.22694 267.102 -4.41902C267.157 -4.50225 267.239 -4.53096 267.311 -4.59811C267.752 -5.00986 268.24 -5.40413 268.768 -5.69277C269.132 -5.89191 269.499 -6.12616 269.82 -6.387C269.9 -6.45135 269.907 -6.51893 270.006 -6.5681C270.114 -6.62224 270.245 -6.6789 270.346 -6.74317C271.17 -7.26789 271.988 -7.79674 272.7 -8.46968C273.008 -8.761 273.22 -8.90231 273.609 -9.0472C274.061 -9.21508 274.489 -9.32895 274.954 -9.45166C275.068 -9.48197 275.165 -9.58031 275.284 -9.5885C275.417 -9.59771 275.545 -9.62183 275.678 -9.64283C276.29 -9.7395 276.906 -9.81732 277.517 -9.91448C277.966 -9.98585 278.41 -10.1019 278.863 -10.1479C279.131 -10.175 279.404 -10.1941 279.672 -10.2022C280.012 -10.2125 280.325 -10.3063 280.66 -10.3411C281.299 -10.4074 282.048 -10.4716 282.681 -10.3491C282.906 -10.3055 283.124 -10.2276 283.349 -10.1841C283.572 -10.1409 283.788 -10.144 284.011 -10.0795C284.55 -9.92346 285.133 -9.89912 285.663 -9.71728C285.967 -9.61279 286.229 -9.51559 286.552 -9.46172C286.953 -9.39496 287.417 -9.33399 287.788 -9.1619C287.92 -9.10062 288.044 -9.09382 288.186 -9.07336C288.511 -9.02641 288.819 -8.89482 289.146 -8.84396C289.414 -8.80227 289.651 -8.7192 289.925 -8.7192" stroke="black" stroke-width="3" stroke-linecap="round"/>
<path d="M236.075 7.76794C236.056 7.95842 235.989 8.17137 235.803 8.26431C235.398 8.46717 235.04 8.75875 234.558 8.81895C234.453 8.83206 234.356 8.89807 234.254 8.92469C234.02 8.98545 233.782 9.02817 233.55 9.09734C233.274 9.17964 232.99 9.24246 232.728 9.36279C232.399 9.51339 232.034 9.60792 231.694 9.74046C231.531 9.80405 231.346 9.79644 231.176 9.83542C230.749 9.93342 230.334 10.0762 229.903 10.1591C229.306 10.2742 228.673 10.2284 228.084 10.3512C227.919 10.3855 227.773 10.5185 227.607 10.526C226.99 10.5541 226.411 10.7591 225.785 10.7591C224.495 10.7591 223.204 10.7591 221.914 10.7591C221.579 10.7591 221.242 10.7708 220.908 10.7591C220.74 10.7532 220.583 10.6796 220.42 10.6426C219.973 10.5406 219.532 10.4753 219.104 10.3016C218.768 10.1655 218.447 10.007 218.111 9.86563C217.871 9.76456 217.616 9.69662 217.377 9.59371C217.253 9.53997 217.167 9.43875 217.032 9.39085C216.058 9.04551 215.158 8.52468 214.295 7.95786C213.802 7.63374 213.27 7.21825 212.977 6.69967C212.912 6.58477 212.799 6.50497 212.729 6.39106C212.615 6.20666 212.517 6.03067 212.388 5.85585C212.294 5.72828 212.256 5.5807 212.174 5.44796C212.041 5.2312 211.862 5.04579 211.723 4.8329C211.18 3.99965 210.732 3.10117 210.312 2.19999C210.224 2.01115 210.121 1.78215 210.005 1.60867C209.824 1.33703 209.712 1.0236 209.524 0.756208C209.457 0.660607 209.422 0.56718 209.388 0.45623C209.334 0.280233 209.224 0.143792 209.15 -0.022873C209.066 -0.213889 208.953 -0.402371 208.844 -0.583984" stroke="black" stroke-width="3" stroke-linecap="round"/>
<path d="M208.688 -1.08936C208.613 -1.34594 208.498 -1.57039 208.485 -1.84713C208.474 -2.06708 208.432 -2.29759 208.346 -2.5006C208.24 -2.74996 208.196 -3.0169 208.128 -3.27793C208.032 -3.64492 207.927 -4.00902 207.838 -4.37791C207.723 -4.85341 207.626 -5.32558 207.5 -5.79731C207.434 -6.0466 207.342 -6.30072 207.219 -6.52574C207.176 -6.60334 207.09 -6.73427 207.077 -6.8207C207.062 -6.9167 207.016 -7.03146 207.016 -7.13196" stroke="black" stroke-width="3" stroke-linecap="round"/>
<path d="M236.199 7.90368C236.199 7.24475 235.985 6.68716 235.727 6.07836C235.637 5.86644 235.621 5.65574 235.585 5.43011C235.553 5.22818 235.432 5.0822 235.341 4.90696C235.279 4.7876 235.253 4.56306 235.153 4.47764C235.044 4.38441 235.093 4.18103 235.011 4.07675C234.71 3.69345 234.575 3.3043 234.408 2.83712C234.177 2.19165 233.768 1.61479 233.538 0.971982C233.185 -0.016801 232.736 -0.938768 232.327 -1.90533C232.154 -2.31428 232.037 -2.71731 231.821 -3.11084C231.614 -3.48784 231.405 -3.82426 231.172 -4.18557C230.944 -4.54049 230.661 -4.88497 230.405 -5.22049C230.28 -5.38324 230.161 -5.55733 230.029 -5.71236C229.82 -5.95939 229.572 -6.16828 229.364 -6.41463C229 -6.84645 228.59 -7.22536 228.073 -7.50073C227.863 -7.61312 227.639 -7.71118 227.451 -7.86182C227.283 -7.99613 227.109 -8.00965 226.936 -8.12623C226.553 -8.38498 226.138 -8.53845 225.742 -8.7688C225.5 -8.90968 225.206 -8.96118 224.969 -9.10998C224.606 -9.33773 224.176 -9.4769 223.752 -9.59901C223.267 -9.73876 222.798 -10.0323 222.279 -10.0596C221.348 -10.1086 220.406 -10.192 219.476 -10.2131C219.21 -10.2192 218.942 -10.3079 218.674 -10.3155C218.04 -10.3334 217.411 -10.3667 216.775 -10.3667C216.329 -10.3667 215.882 -10.4178 215.433 -10.4178C214.863 -10.4178 214.36 -10.0929 213.795 -10.0596C213.4 -10.0364 212.957 -9.81435 212.567 -9.72695C212.305 -9.66841 212.046 -9.50595 211.776 -9.49665C211.571 -9.48956 211.352 -9.45971 211.151 -9.41704C210.965 -9.37759 210.721 -9.25312 210.548 -9.24077C210.192 -9.21534 209.907 -9.12441 209.573 -8.99056C209.43 -8.93354 209.28 -8.83944 209.126 -8.83135C208.711 -8.80951 208.371 -8.2493 207.938 -8.21722C207.747 -8.20307 207.494 -8.02227 207.398 -7.85897C207.3 -7.69345 207.13 -7.61903 207.028 -7.44955" stroke="black" stroke-width="3" stroke-linecap="round"/>
<path d="M222.432 8.22589C222.432 8.14598 222.359 8.05633 222.329 7.98325C222.275 7.84922 222.215 7.70736 222.116 7.60225C222.009 7.4894 221.943 7.35306 221.813 7.25635C221.697 7.16971 221.593 7.07956 221.486 6.9817C221.351 6.85908 221.227 6.71868 221.085 6.60483C220.954 6.49883 220.835 6.30427 220.75 6.16084C220.695 6.06915 220.651 5.9707 220.588 5.88412C220.519 5.79027 220.494 5.68087 220.414 5.59502C220.291 5.46167 220.189 5.28719 220.08 5.14071C219.969 4.99323 219.855 4.84004 219.766 4.6771C219.681 4.5234 219.593 4.35785 219.487 4.21763C219.347 4.03302 219.136 3.81577 219.085 3.58882C219.057 3.46186 218.958 3.32521 218.9 3.20782C218.829 3.06003 218.755 2.92592 218.703 2.769C218.652 2.61432 218.597 2.46369 218.551 2.30539C218.515 2.17986 218.448 2.06903 218.417 1.94504C218.37 1.75672 218.26 1.59359 218.213 1.40503" stroke="black" stroke-linecap="round"/>
<path d="M222.487 8.05873C222.487 7.98657 222.511 7.96942 222.543 7.91005C222.627 7.75675 222.69 7.58631 222.762 7.42682C222.811 7.31924 222.833 7.19977 222.886 7.09229C222.935 6.99108 222.965 6.86258 223.026 6.77014C223.065 6.7122 223.144 6.60239 223.198 6.56363C223.253 6.52377 223.369 6.41207 223.394 6.34474C223.438 6.2245 223.524 6.14005 223.58 6.02259C223.656 5.86159 223.69 5.68393 223.76 5.52078C223.846 5.32195 223.862 5.102 223.965 4.90849C224.03 4.78503 224.042 4.63504 224.104 4.51097C224.179 4.36033 224.256 4.21612 224.344 4.07215C224.418 3.94944 224.41 3.77507 224.44 3.63849C224.463 3.52921 224.534 3.44617 224.578 3.34835C224.621 3.25431 224.655 3.16421 224.698 3.0706C224.742 2.97471 224.79 2.882 224.829 2.78149C224.85 2.72702 224.903 2.65224 224.903 2.5946" stroke="black" stroke-linecap="round"/>
<path d="M224.839 2.89257C224.853 2.77913 224.979 2.71959 224.985 2.60143C224.989 2.51696 224.985 2.43131 224.985 2.34669C224.985 2.09464 224.985 1.84259 224.985 1.59054C224.985 1.40589 224.985 1.22123 224.985 1.03658C224.985 0.688586 225.05 0.284665 224.966 -0.049118C224.913 -0.261794 224.912 -0.545923 224.912 -0.764828C224.912 -0.863436 224.839 -0.938731 224.839 -1.02159C224.839 -1.15446 224.809 -1.32874 224.774 -1.4583C224.724 -1.64878 224.657 -1.89844 224.657 -2.09314C224.657 -2.20487 224.521 -2.23213 224.511 -2.35597C224.506 -2.42511 224.473 -2.44664 224.439 -2.50154C224.379 -2.59808 224.377 -2.71479 224.346 -2.82098C224.28 -3.04556 224.075 -3.30497 224.075 -3.53467C224.075 -3.6664 223.981 -3.7422 223.929 -3.85815C223.887 -3.9533 223.794 -4.10428 223.729 -4.18366C223.647 -4.28326 223.641 -4.36055 223.581 -4.47479C223.518 -4.59553 223.364 -4.72246 223.349 -4.85893C223.317 -5.15029 223.031 -5.31853 222.874 -5.54229C222.767 -5.69386 222.489 -5.90759 222.473 -6.08009C222.468 -6.1359 222.362 -6.2609 222.32 -6.30653C222.232 -6.40124 222.178 -6.50824 222.081 -6.58553C222.004 -6.64716 221.995 -6.78851 221.909 -6.86454C221.846 -6.92061 221.757 -7.03347 221.744 -7.11322C221.736 -7.15639 221.617 -7.20046 221.578 -7.22644C221.371 -7.36441 221.091 -7.4777 220.981 -7.69751" stroke="black" stroke-linecap="round"/>
<path d="M218.179 1.4005C218.179 1.0807 218.179 0.761984 218.145 0.450261C218.102 0.0691559 218.252 -0.286367 218.252 -0.65363C218.252 -1.0317 218.252 -1.40978 218.252 -1.78785C218.252 -2.0004 218.247 -2.19192 218.317 -2.39236C218.386 -2.59231 218.363 -2.78533 218.416 -2.98474C218.473 -3.20388 218.517 -3.43956 218.547 -3.66204C218.576 -3.87567 218.629 -4.16162 218.707 -4.3636C218.752 -4.48072 218.745 -4.61149 218.798 -4.72954C218.852 -4.85154 218.805 -4.99026 218.871 -5.10559C218.919 -5.19068 218.961 -5.29194 218.982 -5.38662C219.02 -5.56056 219.248 -5.66579 219.315 -5.83343C219.341 -5.898 219.41 -5.99054 219.453 -6.05178C219.478 -6.08744 219.573 -6.27285 219.582 -6.27822C219.752 -6.37515 219.814 -6.68983 219.926 -6.83623C220.034 -6.97836 220.195 -7.09697 220.292 -7.24261C220.351 -7.33133 220.419 -7.45878 220.494 -7.53375C220.557 -7.59624 220.693 -7.63095 220.727 -7.69751" stroke="black" stroke-linecap="round"/>
<path d="M222.546 4.67578C222.546 3.9278 222.528 3.18532 222.481 2.43969C222.45 1.94514 222.437 1.44334 222.437 0.947615C222.437 0.843173 222.502 0.563477 222.364 0.563477" stroke="black" stroke-width="3" stroke-linecap="round"/>
<path d="M222.619 3.11091C223.001 3.07616 223.23 2.53607 223.327 2.20313C223.439 1.81932 223.347 1.31055 223.347 0.91121C223.347 0.536767 223.383 0.166887 223.383 -0.208856C223.383 -0.606012 223.401 -1.00758 223.311 -1.39766C223.258 -1.62385 223.168 -1.82215 223.129 -2.05676" stroke="black" stroke-width="3" stroke-linecap="round"/>
<path d="M221.308 4.93051C221.308 4.54746 221.318 4.22296 221.183 3.85695C221.16 3.7931 221.141 3.7076 221.129 3.64061C221.107 3.52413 221.028 3.45284 220.973 3.34948C220.832 3.08367 220.738 2.73534 220.726 2.43159C220.704 1.8671 220.392 1.40921 220.364 0.850559C220.326 0.0790105 220.362 -0.702583 220.362 -1.47449" stroke="black" stroke-width="3" stroke-linecap="round"/>
<path d="M220.108 1.87361C220.108 1.32164 220.035 0.802298 220.035 0.250116C220.035 -0.65974 220.15 -1.56341 220.436 -2.42065" stroke="black" stroke-width="3" stroke-linecap="round"/>
<path d="M221.054 -0.346416C221.193 -0.520976 221.165 -0.831249 221.217 -1.03989C221.291 -1.33406 221.326 -1.63629 221.377 -1.92947C221.442 -2.30238 221.341 -2.69194 221.417 -3.06773C221.436 -3.16079 221.532 -3.66282 221.446 -3.75918C221.337 -3.88017 221.272 -4.15772 221.272 -4.33134C221.272 -4.50774 221.163 -4.65522 221.163 -4.83679C221.163 -5.15138 220.981 -5.39573 220.981 -5.69604" stroke="black" stroke-width="3" stroke-linecap="round"/>
<path d="M222.4 6.82282C222.439 7.17267 222.436 6.11945 222.436 5.76746" stroke="black" stroke-linecap="round"/>
<path d="M222.474 5.36721C222.325 5.36721 222.364 5.00873 222.364 5.33082" stroke="black" stroke-width="3" stroke-linecap="round"/>
<path d="M248.121 38.448C248.121 38.1495 247.979 37.9581 247.77 37.7563C247.594 37.5874 247.468 37.6005 247.241 37.6005C246.967 37.6005 246.748 37.595 246.491 37.4701C246.29 37.3721 246.101 37.3148 245.905 37.1949C245.825 37.1464 245.612 37.0653 245.579 36.9812C245.519 36.8331 245.321 36.7569 245.222 36.6408C245.126 36.5288 244.978 36.4616 244.854 36.3691C244.795 36.3245 244.659 36.2592 244.583 36.2315C244.405 36.1669 244.244 35.9257 244.112 35.7933C243.923 35.6042 243.747 35.4134 243.541 35.2392C243.378 35.1005 243.128 35.0766 242.955 34.9422C242.807 34.8271 242.71 34.6414 242.562 34.5203C242.489 34.4606 242.39 34.4226 242.344 34.341C242.276 34.2174 242.066 34.2067 241.979 34.0965C241.868 33.956 241.666 33.8462 241.504 33.747C241.474 33.7283 241.322 33.6049 241.309 33.575C241.283 33.5162 241.187 33.4639 241.146 33.403C241.098 33.3325 241.021 33.2716 240.966 33.1983C240.915 33.1304 240.869 33.0242 240.803 32.972C240.66 32.8573 240.532 32.7854 240.365 32.6913C240.271 32.638 240.152 32.4951 240.07 32.4179C240.01 32.3614 239.898 32.26 239.874 32.1897" stroke="black" stroke-linecap="round"/>
<path d="M239.719 31.9143C239.644 31.9096 239.606 31.7457 239.602 31.6802C239.593 31.5086 239.545 31.3616 239.472 31.212C239.411 31.087 239.327 30.7503 239.186 30.6918C239.098 30.6551 239.05 30.4711 238.96 30.4212C238.857 30.3638 238.819 30.2372 238.736 30.1455C238.671 30.0735 238.637 29.9522 238.59 29.8646C238.528 29.7467 238.48 29.6417 238.434 29.5161C238.402 29.427 238.381 29.3271 238.36 29.2339C238.339 29.1376 238.238 29.0511 238.22 28.9425C238.186 28.7398 238.135 28.5183 238.079 28.3222C238.068 28.2811 238.036 28.2803 238.034 28.2207C238.031 28.1447 237.987 28.0822 237.987 28.0061C237.987 27.8611 238 27.7248 237.943 27.5952C237.901 27.5012 237.967 27.3668 237.928 27.2674C237.803 26.9414 237.87 26.5186 237.87 26.1737C237.87 26.0896 237.87 26.0055 237.87 25.9214C237.87 25.8388 237.914 25.7533 237.917 25.6691C237.925 25.4539 237.94 25.238 237.94 25.0188C237.94 24.8956 237.926 24.7989 238.01 24.7041C238.075 24.6314 238.051 24.5013 238.109 24.4284C238.131 24.4006 238.127 24.3779 238.127 24.3412C238.127 24.3033 238.179 24.2597 238.198 24.2229C238.251 24.1162 238.31 24.0712 238.339 23.9407C238.384 23.7396 238.483 23.555 238.525 23.3515C238.538 23.2914 238.558 23.1309 238.609 23.0875C238.701 23.0083 238.79 22.9159 238.899 22.8456C239.085 22.7243 239.24 22.5477 239.403 22.3943C239.484 22.3185 239.524 22.2173 239.602 22.1394C239.645 22.097 239.705 22.0734 239.753 22.0367C239.912 21.9153 240.094 21.7602 240.198 21.5906C240.267 21.4772 240.373 21.4367 240.492 21.3903C240.567 21.3612 240.632 21.3312 240.71 21.3045C240.786 21.2787 240.992 21.2684 241.03 21.1926" stroke="black" stroke-linecap="round"/>
<path d="M248.349 23.035C248.349 22.955 248.298 22.88 248.264 22.8108C248.236 22.7531 248.231 22.683 248.193 22.6321C248.162 22.5923 248.136 22.556 248.109 22.5161C248.029 22.4005 247.921 22.2965 247.831 22.1885C247.764 22.1081 247.682 22.0291 247.601 21.9628C247.563 21.9318 247.519 21.9157 247.485 21.8813C247.438 21.8341 247.382 21.8152 247.329 21.7763C247.212 21.6899 247.076 21.625 246.952 21.5474C246.757 21.4249 246.579 21.2705 246.389 21.1399C246.118 20.9537 245.794 20.8413 245.499 20.7135C245.464 20.6982 245.414 20.7081 245.377 20.7065C245.295 20.703 245.215 20.6834 245.134 20.6798C245.042 20.6758 244.955 20.6802 244.864 20.6649C244.511 20.6055 244.15 20.5941 243.798 20.527C243.631 20.4951 243.438 20.5239 243.267 20.5239C243.012 20.5239 242.757 20.5239 242.502 20.5239C242.378 20.5239 242.256 20.5185 242.134 20.545C242.023 20.5692 241.905 20.5674 241.808 20.632C241.607 20.7647 241.373 20.8242 241.163 20.9408C241.093 20.9801 241.029 21.0061 240.968 21.0615C240.86 21.1609 240.782 21.2986 240.671 21.3907C240.631 21.4245 240.612 21.4519 240.568 21.4761C240.53 21.4972 240.49 21.5118 240.449 21.5255" stroke="black" stroke-linecap="round"/>
<path d="M248.767 23.2983C248.706 23.2069 249.079 22.9862 249.174 22.9568C249.269 22.9277 249.338 22.7908 249.418 22.732C249.49 22.6797 249.52 22.6085 249.586 22.5495C249.709 22.4387 249.915 22.3605 250.056 22.262C250.204 22.1583 250.336 22.0629 250.475 21.9526C250.565 21.8809 250.635 21.7899 250.713 21.7073C250.872 21.5384 251.064 21.4032 251.245 21.2607C251.303 21.2151 251.395 21.1872 251.461 21.1571C251.501 21.1391 251.542 21.1456 251.584 21.1439C251.653 21.1413 251.637 21.0982 251.683 21.071C251.861 20.9665 252.07 20.96 252.273 20.96C252.464 20.96 252.593 20.8102 252.772 20.7776C252.988 20.7384 253.194 20.6431 253.42 20.6243C253.821 20.5909 254.227 20.6448 254.626 20.6448C254.739 20.6448 254.853 20.6448 254.966 20.6448C255.023 20.6448 255.206 20.6172 255.255 20.6579C255.298 20.6939 255.387 20.6809 255.44 20.7031C255.503 20.7296 255.603 20.8175 255.667 20.8272C255.834 20.8529 256.008 20.7955 256.156 20.8958C256.242 20.9545 256.362 21.0073 256.459 21.0447C256.563 21.0846 256.605 21.176 256.687 21.2228C256.785 21.2791 256.877 21.3694 256.964 21.4475C256.99 21.4711 257.039 21.4572 257.071 21.4753C257.16 21.5257 257.253 21.5661 257.344 21.6154C257.419 21.6565 257.507 21.701 257.584 21.7249C257.699 21.7601 257.788 21.8944 257.89 21.9584C258.021 22.0409 258.096 22.1446 258.214 22.2416C258.373 22.3732 258.436 22.5686 258.659 22.6678C258.847 22.7514 258.858 22.9923 258.948 23.1538C258.998 23.2449 259.081 23.3145 259.145 23.3976C259.171 23.4314 259.226 23.4262 259.244 23.4676C259.268 23.521 259.25 23.5387 259.291 23.5873C259.386 23.7005 259.349 23.8787 259.434 24.0135C259.496 24.1125 259.575 24.2233 259.593 24.339C259.599 24.3771 259.664 24.5955 259.685 24.6134C259.818 24.7279 259.774 24.9787 259.866 25.1228C259.903 25.181 259.904 25.3543 259.907 25.4206C259.911 25.538 259.928 25.6596 259.959 25.7738C260.087 26.2376 260.091 26.7233 260.091 27.2042C260.091 27.3285 260.139 27.505 260.175 27.6275C260.202 27.7166 260.196 27.8044 260.196 27.8975C260.196 28.0371 260.196 28.1768 260.196 28.3164C260.196 28.4953 260.168 28.632 260.123 28.8039C260.062 29.036 260.084 29.299 260.038 29.5366C259.99 29.7837 259.988 30.1161 259.813 30.3161C259.775 30.3594 259.791 30.4204 259.749 30.4577C259.697 30.5043 259.677 30.5791 259.656 30.643C259.561 30.9271 259.39 31.1695 259.289 31.4487C259.233 31.6049 259.192 31.8372 259.066 31.9567C258.983 32.0353 258.836 32.1265 258.736 32.1844C258.615 32.2544 258.487 32.3703 258.376 32.4588C258.122 32.6598 257.931 32.9035 257.723 33.1492C257.682 33.1978 257.646 33.2574 257.596 33.2951C257.461 33.3961 257.354 33.5158 257.241 33.641C257.093 33.8066 256.987 33.7832 256.859 33.6235" stroke="black" stroke-linecap="round"/>
<path d="M257.069 33.3345C257.069 33.512 256.822 33.6757 256.675 33.7607C256.458 33.8864 256.279 34.0695 256.065 34.1956C255.67 34.429 255.407 34.8132 255.084 35.1356C255 35.2195 254.829 35.4362 254.711 35.4626C254.652 35.4756 254.549 35.5385 254.509 35.5852C254.387 35.7305 254.255 35.7732 254.127 35.8946C254.031 35.9847 253.902 36.0358 253.8 36.1194C253.61 36.2744 253.402 36.4108 253.219 36.5806C253.172 36.6238 253.088 36.7016 253.034 36.7251C252.873 36.7948 252.721 36.9559 252.615 37.0915C252.553 37.1699 252.438 37.2428 252.359 37.3031C252.283 37.3611 252.156 37.4527 252.066 37.4856C251.943 37.5301 251.844 37.6625 251.742 37.741C251.551 37.8876 251.36 38.0791 251.136 38.176C251.048 38.2141 251 38.2505 250.917 38.3C250.845 38.3434 250.758 38.3657 250.691 38.4168C250.65 38.4475 250.622 38.4991 250.568 38.5088C250.388 38.5416 250.319 38.728 250.17 38.8124C249.98 38.9199 249.804 39.0279 249.608 39.1262C249.427 39.2164 249.246 39.3288 249.053 39.4152C248.911 39.4787 248.762 39.4485 248.611 39.459C248.468 39.4688 248.379 39.5611 248.242 39.5611" stroke="black" stroke-linecap="round"/>
<path d="M241.752 34.0176C241.849 34.0539 241.976 34.1532 242.027 34.254C242.057 34.3143 242.115 34.342 242.146 34.3971C242.159 34.419 242.192 34.4108 242.212 34.4263C242.247 34.4536 242.238 34.4889 242.263 34.5168C242.335 34.5958 242.446 34.7428 242.546 34.7853C242.624 34.8184 242.662 34.8431 242.711 34.9094C242.817 35.0497 242.995 35.1604 243.132 35.267C243.249 35.3586 243.456 35.4791 243.533 35.6056C243.575 35.6743 243.655 35.6965 243.697 35.7574C243.763 35.8548 243.834 35.8694 243.917 35.9588C243.949 35.9938 243.967 35.9823 244.01 35.9895C244.044 35.9951 244.066 36.0441 244.091 36.0654C244.16 36.1251 244.273 36.1354 244.348 36.2041C244.445 36.294 244.567 36.3375 244.663 36.4142C244.824 36.543 245.015 36.6441 245.175 36.7762C245.259 36.845 245.333 36.9789 245.401 37.0623C245.434 37.1019 245.493 37.2184 245.536 37.2433C245.592 37.2767 245.601 37.3115 245.647 37.3484C245.725 37.4127 245.865 37.4434 245.955 37.5104C246.011 37.553 246.048 37.5968 246.099 37.6432C246.17 37.7081 246.257 37.7392 246.338 37.7863C246.383 37.8123 246.383 37.8797 246.442 37.8797C246.49 37.8797 246.596 37.9782 246.638 38.0096C246.701 38.0568 246.785 38.06 246.849 38.0957C246.929 38.1401 246.993 38.2569 247.086 38.3059C247.167 38.3484 247.207 38.3967 247.283 38.446C247.357 38.4939 247.439 38.604 247.522 38.6168C247.623 38.6323 247.678 38.7051 247.743 38.773C247.8 38.8341 247.912 38.8741 247.953 38.9452C247.997 39.0234 248.134 39.0579 248.208 39.0999C248.281 39.1415 248.327 39.2098 248.399 39.2459" stroke="black" stroke-linecap="round"/>
<path d="M248.779 35.7591C248.95 35.7591 249.278 35.2143 249.411 35.0817C249.516 34.9768 249.592 34.8692 249.678 34.7481C249.844 34.5134 250.139 34.3313 250.358 34.1445C250.643 33.902 250.881 33.6903 251.163 33.4519C251.627 33.0595 252.254 32.8816 252.729 32.502C252.905 32.3614 253.156 32.2786 253.363 32.1939C253.701 32.0557 254.11 31.8414 254.392 31.6107C254.694 31.3633 254.976 31.0935 255.283 30.8544C255.462 30.7149 255.756 30.396 255.999 30.396C256.206 30.396 256.418 30.28 256.582 30.1668C256.753 30.0485 256.901 29.9534 257.03 29.7899C257.214 29.5575 257.51 29.5015 257.646 29.2297C257.835 28.8532 257.799 28.3802 257.865 27.9717C257.918 27.6528 257.901 27.329 257.901 27.0065C257.901 26.5364 257.989 25.9871 257.786 25.56C257.69 25.3557 257.523 25.1926 257.425 25.0074C257.325 24.8187 257.161 24.7406 257.076 24.5287" stroke="black" stroke-width="5" stroke-linecap="round"/>
<path d="M255.562 27.8748C255.549 27.73 255.467 27.5187 255.333 27.4521C255.178 27.3742 255.013 27.4431 254.867 27.5158C254.472 27.7135 254.065 27.9007 253.678 28.1142C253.309 28.3176 252.944 28.4914 252.563 28.6668C252.043 28.9055 251.644 29.2867 251.187 29.6218C250.931 29.8102 250.612 30.0475 250.612 30.396" stroke="black" stroke-width="5" stroke-linecap="round"/>
<path d="M248.824 36.1258C248.934 36.0036 248.996 35.8003 249.069 35.6572C249.12 35.5559 249.506 34.6182 249.678 34.6182C249.819 34.6182 250.024 34.6591 250.144 34.7302C250.26 34.7994 250.428 34.7162 250.548 34.7073C251.022 34.6723 251.312 34.468 251.641 34.1394C251.744 34.0363 251.949 33.9404 252.079 33.8695C252.261 33.7704 252.432 33.6496 252.606 33.5385C252.934 33.33 253.308 33.1399 253.592 32.8712C253.938 32.5436 254.393 32.3503 254.763 32.0563C254.914 31.9362 255.177 31.7614 255.288 31.598C255.328 31.5393 255.398 31.3423 255.453 31.3178C255.558 31.2713 255.658 31.2557 255.7 31.1294" stroke="black" stroke-width="5" stroke-linecap="round"/>
<path d="M250.75 35.3466C250.684 35.3713 250.621 35.5361 250.521 35.5859C250.427 35.6331 250.402 35.6674 250.292 35.6674" stroke="black" stroke-width="5" stroke-linecap="round"/>
<path d="M247.77 35.8966C247.854 35.7388 247.922 35.6116 247.77 35.4816C247.707 35.4275 247.593 35.3854 247.546 35.3211C247.498 35.2549 247.485 35.1684 247.404 35.1276C247.179 35.0151 246.941 34.9191 246.716 34.794C246.549 34.7014 246.364 34.4794 246.222 34.3483C246.103 34.2378 245.951 34.1516 245.843 34.0326C245.659 33.8308 245.406 33.7499 245.214 33.5334C244.94 33.2245 244.571 33.0128 244.287 32.7287C243.908 32.3503 243.338 32.048 243.069 31.5649C242.833 31.1394 242.387 30.9001 242.051 30.5692C241.966 30.4858 241.87 30.2678 241.783 30.2102C241.385 29.9446 241.296 29.3676 241.103 28.9547C240.889 28.4955 240.62 27.9787 240.62 27.4624" stroke="black" stroke-width="5" stroke-linecap="round"/>
<path d="M240.666 26.5914C240.666 26.3489 240.593 26.1793 240.676 25.9395C240.749 25.73 240.925 25.1777 241.147 25.0788C241.262 25.0277 241.352 24.8253 241.445 24.7324C241.59 24.5874 241.732 24.4402 241.881 24.2995C241.989 24.197 242.115 24.0445 242.199 23.9226C242.252 23.8465 242.394 23.6666 242.474 23.6221C242.696 23.499 242.829 23.3828 243.106 23.3828C243.364 23.3828 243.583 23.2452 243.854 23.2452C244.097 23.2452 244.34 23.2452 244.583 23.2452C244.699 23.2452 244.87 23.4523 244.975 23.5101C245.089 23.5726 245.112 23.6732 245.112 23.7953" stroke="black" stroke-width="5" stroke-linecap="round"/>
<path d="M240.711 24.8037C240.839 24.6888 241.095 24.6847 241.261 24.6662C241.444 24.6459 241.559 24.5287 241.766 24.5287" stroke="black" stroke-width="5" stroke-linecap="round"/>
<path d="M243.599 26.4539C243.623 26.8795 243.943 27.1665 244.279 27.3757C245.316 28.0212 246.214 28.6803 246.93 29.7007C247.225 30.1217 247.473 30.5735 247.653 31.0555C247.731 31.2642 247.794 31.4818 247.897 31.6794C248.125 32.1129 248.091 31.6577 248.091 31.4044" stroke="black" stroke-width="5" stroke-linecap="round"/>
<path d="M247.817 29.3417C248.321 29.3417 248.83 29.3607 249.334 29.3315C249.71 29.3097 249.797 29.2566 250.032 29.0055C250.505 28.4992 250.807 27.9671 251.423 27.5947C251.689 27.4336 251.841 27.3157 252.141 27.2127C252.685 27.0256 253.246 26.8161 253.689 26.4386C253.93 26.2335 254.122 25.9603 254.326 25.7204C254.492 25.5249 254.516 25.1163 254.611 24.8801C254.718 24.6142 254.758 24.3012 254.876 24.0448C254.929 23.9292 254.963 23.7564 255.023 23.6577C255.054 23.6084 255.283 23.5336 255.115 23.5202C255.024 23.5129 254.947 23.4744 254.85 23.4744C254.735 23.4744 254.544 23.4396 254.44 23.4973C254.334 23.5565 254.215 23.5712 254.102 23.6119C253.995 23.65 253.889 23.7661 253.796 23.7927C253.62 23.8429 253.518 24.0189 253.335 24.0754C253.042 24.1654 252.787 24.3676 252.558 24.5337C252.391 24.6551 252.207 24.748 252.047 24.8775C251.868 25.0218 251.618 25.0817 251.458 25.2417C251.076 25.6243 250.476 25.759 250.035 26.0642C249.889 26.1652 249.783 26.2928 249.65 26.4106C249.487 26.5553 249.281 26.6516 249.098 26.7696C248.545 27.1251 247.749 27.105 247.129 27.1414" stroke="black" stroke-width="5" stroke-linecap="round"/>
<path d="M253.362 22.6493C253.031 22.6493 253.004 22.9173 252.764 23.0822C252.566 23.2182 252.341 23.2957 252.15 23.4515C251.942 23.6217 251.823 23.8724 251.636 24.0601C251.182 24.5138 250.711 24.6678 250.156 24.9412C249.747 25.1428 249.275 25.2268 248.85 25.397C248.522 25.5283 248.196 25.6092 247.862 25.7205" stroke="black" stroke-width="5" stroke-linecap="round"/>
<path d="M246.578 24.2537C246.578 24.1981 246.762 24.1393 246.808 24.0703" stroke="black" stroke-width="5" stroke-linecap="round"/>
<path d="M278.707 40.0938C278.707 40.363 278.6 40.7034 278.463 40.9291C278.245 41.2877 278.254 41.7154 278.14 42.1269C278.019 42.5608 277.955 43.0136 277.824 43.4429C277.779 43.5917 277.659 43.7667 277.643 43.9078C277.588 44.3825 277.31 44.804 277.289 45.2869C277.265 45.8106 276.956 46.2767 276.808 46.7605C276.705 47.0965 276.623 47.4285 276.493 47.7535C276.319 48.1887 276.23 48.7019 275.886 49.0458C275.561 49.3704 275.121 49.5681 274.708 49.7669C274.509 49.8627 274.264 49.9307 274.081 50.0545C273.859 50.2055 273.557 50.2862 273.36 50.4485C273.19 50.5887 272.993 50.6245 272.82 50.748C272.607 50.9003 272.415 51.0804 272.158 51.1538C271.83 51.2477 271.589 51.6751 271.256 51.8C270.924 51.9245 270.466 52.2272 270.228 52.4659C269.903 52.7907 269.271 52.9753 268.841 53.1121C268.439 53.2398 268.113 53.3904 267.69 53.4588C267.357 53.5129 267.004 53.6736 266.686 53.7071C266.468 53.73 266.246 53.7664 266.028 53.7819C265.862 53.7938 265.827 53.9238 265.626 53.9238C265.023 53.9238 264.427 53.9947 263.821 53.9947C262.986 53.9947 262.15 53.9947 261.315 53.9947C260.745 53.9947 260.175 53.9947 259.605 53.9947C259.343 53.9947 259.167 53.7346 258.919 53.711C258.535 53.6744 258.273 53.435 257.942 53.2145C257.567 52.9646 257.073 52.8757 256.737 52.592C256.296 52.2204 255.54 52.2822 255.161 51.8118C255.029 51.6489 254.76 51.5179 254.593 51.3745C254.425 51.2304 254.258 51.0737 254.128 50.8898C253.888 50.5484 253.556 50.3163 253.277 50.023C253.215 49.9578 253.224 49.8542 253.159 49.7866C253.022 49.6448 252.824 49.5211 252.674 49.3886C252.401 49.1471 252.155 49.1337 252.107 48.77C252.077 48.5449 251.96 48.3495 251.914 48.1317C251.853 47.8501 251.845 47.5548 251.721 47.2925C251.547 46.9255 251.174 46.3053 250.834 46.0868C250.631 45.956 250.495 45.597 250.409 45.3815C250.322 45.1645 250.277 44.9256 250.164 44.7195C250.065 44.5377 249.904 44.3889 249.849 44.1837C249.746 43.7976 249.487 43.4644 249.487 43.041C249.487 42.6242 249.45 42.1789 249.309 41.7841C249.159 41.3629 249.277 40.9551 249.061 40.5232C248.774 39.9485 248.848 39.1692 248.848 38.5334" stroke="black" stroke-width="3" stroke-linecap="round"/>
<path d="M248.955 39.1841C248.955 40.3976 248.921 41.6248 248.411 42.7455C248.237 43.1289 248.202 43.7884 248.202 44.2054C248.202 44.6273 247.997 45.3664 247.737 45.6979C247.598 45.8744 247.214 46.3535 247.198 46.5673C247.181 46.7807 246.958 47.5719 246.826 47.7204C246.711 47.849 246.635 47.7882 246.57 47.9714C246.517 48.1209 246.464 48.24 246.356 48.3573C246.079 48.6576 245.717 48.9113 245.459 49.2268C245.227 49.5096 244.794 49.8512 244.468 50.0265C244.091 50.2298 243.729 50.6193 243.334 50.7378C243.124 50.8009 242.94 51.0453 242.743 51.0679C242.304 51.1186 241.847 51.553 241.451 51.7374C240.605 52.131 239.663 52.4128 238.866 52.9091C238.535 53.1152 238.2 53.3016 237.862 53.4949C237.565 53.6645 237.027 53.6185 236.695 53.6576C235.684 53.7765 234.637 53.7669 233.626 53.8343C232.859 53.8855 231.844 54.1169 231.092 53.8762C230.39 53.6515 229.698 53.4629 228.981 53.281C227.015 52.7822 225.455 51.7453 223.89 50.5286C223.159 49.9602 222.457 49.4904 222.133 48.5526C222.042 48.2907 221.901 48.1197 221.756 47.8877C221.453 47.402 221.315 46.8491 220.966 46.3813C220.453 45.6951 219.86 45.0646 219.497 44.2984C219.346 43.981 219.162 43.3128 219.162 42.9594C219.162 42.602 218.921 42.265 218.827 41.9365C218.712 41.5336 218.734 41.1169 218.641 40.7091C218.558 40.3456 218.492 40.0582 218.492 39.6862" stroke="black" stroke-width="3" stroke-linecap="round"/>
<path d="M248.916 38.0051C249.009 38.1098 249.059 38.3381 249.054 38.4737C249.051 38.5435 248.71 38.6397 249.018 38.545C249.178 38.4958 249.401 38.3364 249.558 38.326C249.681 38.3177 249.319 38.3877 249.199 38.4176C249.123 38.4367 248.967 38.5736 248.916 38.6366C248.751 38.843 248.748 38.8499 248.677 38.6112C248.629 38.4505 248.509 38.1719 248.651 38.0153C248.789 37.8639 249.406 38.7465 249.614 38.7385C249.76 38.7329 249.879 38.4565 249.879 38.326" stroke="black" stroke-linecap="round"/>
<path d="M249.375 30.8086C249.3 30.8086 249.127 30.9436 249.1 31.0174C249.014 31.2527 249.054 31.5236 249.054 31.7712" stroke="black" stroke-width="5" stroke-linecap="round"/>
<path d="M256.574 33.3839C256.574 33.4558 256.518 33.4655 256.514 33.5228C256.509 33.6135 256.517 33.6088 256.459 33.6661C256.394 33.731 256.494 33.7212 256.534 33.7212C256.604 33.7212 256.68 33.6662 256.733 33.6209C256.825 33.5413 256.777 33.5992 256.752 33.6539C256.721 33.7238 256.665 33.7139 256.604 33.741C256.578 33.7525 256.465 33.8204 256.524 33.8204C256.58 33.8204 256.641 33.8091 256.673 33.7608" stroke="black" stroke-linecap="round"/>
<path d="M256.931 33.4832C256.896 33.4875 256.88 33.5347 256.871 33.5625" stroke="black" stroke-linecap="round"/>
<path d="M237.845 26.5912C237.845 26.3651 237.82 26.1374 237.82 25.9075C237.82 25.717 237.793 25.6055 237.919 25.459" stroke="black" stroke-linecap="round"/>
<path d="M238.756 29.8402C238.636 29.6112 238.511 29.3901 238.411 29.151" stroke="black" stroke-linecap="round"/>
<path d="M239.101 30.9231C239.075 30.7571 238.985 30.6034 238.934 30.4445C238.871 30.2522 238.815 30.058 238.756 29.8647" stroke="black" stroke-linecap="round"/>
<path d="M239.002 30.8492C239.042 30.8573 239.084 30.8895 239.101 30.9231" stroke="black" stroke-linecap="round"/>
<path d="M239.643 31.5876C239.568 31.5044 239.492 31.4206 239.427 31.3306C239.356 31.2323 239.2 31.0428 239.2 30.9231" stroke="black" stroke-linecap="round"/>
<line y1="-1.5" x2="57.0088" y2="-1.5" transform="matrix(-0.965782 -0.259354 -0.259354 0.965782 330.163 49.4587)" stroke="black" stroke-width="3"/>
<line y1="-1.5" x2="57.0088" y2="-1.5" transform="matrix(-0.96579 0.259325 0.259325 0.96579 222.163 35.6733)" stroke="black" stroke-width="3"/>
<line y1="-1.5" x2="57.0088" y2="-1.5" transform="matrix(-0.964764 0.263117 0.263117 0.964764 331.163 10.6733)" stroke="black" stroke-width="3"/>
<line y1="-1.5" x2="57.0088" y2="-1.5" transform="matrix(-0.964741 -0.2632 -0.2632 0.964741 221.163 26.678)" stroke="black" stroke-width="3"/>
<line y1="-1.5" x2="57.0088" y2="-1.5" transform="matrix(-0.999972 0.0074441 0.0074441 0.999972 333.163 30.6733)" stroke="black" stroke-width="3"/>
<line y1="-1.5" x2="57.0088" y2="-1.5" transform="matrix(-0.999972 0.0074441 0.0074441 0.999972 221.163 30.6733)" stroke="black" stroke-width="3"/>
</g>
<defs>
<clipPath id="clip0_15_1859">
<rect width="352" height="89" fill="white" transform="matrix(-1 0 0 1 352 0)"/>
</clipPath>
</defs>
</svg>
