<svg width="218" height="361" viewBox="0 0 218 361" fill="none" xmlns="http://www.w3.org/2000/svg">
<g clip-path="url(#clip0_15_639)">
<path d="M3.94898 182.908C5.91508 181.547 6.86697 178.314 6.04788 173.418C5.25024 168.651 2.83075 162.849 -1.08093 157.199C-4.9926 151.55 -9.57234 147.244 -13.7542 144.819C-18.0486 142.33 -21.4099 142.084 -23.376 143.445C-25.3421 144.806 -26.294 148.039 -25.4749 152.935C-24.6772 157.702 -22.2578 163.505 -18.3461 169.154C-14.4344 174.803 -9.85467 179.11 -5.67278 181.534C-1.37843 184.023 1.98289 184.27 3.94898 182.908Z" fill="white" stroke="black" stroke-width="3"/>
<path d="M89.1689 169.38C89.1689 172.017 90.8181 174.606 93.9038 176.607C96.9748 178.599 101.307 179.88 106.169 179.88C111.031 179.88 115.363 178.599 118.434 176.607C121.52 174.606 123.169 172.017 123.169 169.38C123.169 166.744 121.52 164.155 118.434 162.154C115.363 160.162 111.031 158.88 106.169 158.88C101.307 158.88 96.9748 160.162 93.9038 162.154C90.8181 164.155 89.1689 166.744 89.1689 169.38Z" fill="white" stroke="black" stroke-width="3"/>
<path d="M66.1689 178.38C66.1689 181.017 67.8181 183.606 70.9038 185.607C73.9748 187.599 78.307 188.88 83.1689 188.88C88.0309 188.88 92.3631 187.599 95.4341 185.607C98.5198 183.606 100.169 181.017 100.169 178.38C100.169 175.744 98.5198 173.155 95.4341 171.154C92.3631 169.162 88.0309 167.88 83.1689 167.88C78.307 167.88 73.9748 169.162 70.9038 171.154C67.8181 173.155 66.1689 175.744 66.1689 178.38Z" fill="white" stroke="black" stroke-width="3"/>
<path d="M49.4004 28.5C0.342896 28.5 -39.0996 63.5913 -39.0996 106.5C-39.0996 149.409 0.342896 184.5 49.4004 184.5C98.4579 184.5 137.9 149.409 137.9 106.5C137.9 63.5913 98.4579 28.5 49.4004 28.5Z" fill="white" stroke="black" stroke-width="3"/>
<path d="M178.218 82.045L177.91 57.0674L140.319 60.4676L178.218 82.045Z" fill="white" stroke="black" stroke-width="3"/>
<path d="M91.2714 57.9686L53.7767 54.2005L52.9028 79.1623L91.2714 57.9686Z" fill="white" stroke="black" stroke-width="3"/>
<path d="M40.5 112.074C40.5 127.417 48.5939 141.41 61.8806 151.614C75.169 161.82 93.5909 168.175 114 168.175C134.409 168.175 152.831 161.82 166.119 151.614C179.406 141.41 187.5 127.417 187.5 112.074C187.5 96.7312 179.406 82.7386 166.119 72.5343C152.831 62.3287 134.409 55.9738 114 55.9738C93.5909 55.9738 75.169 62.3287 61.8806 72.5343C48.5939 82.7386 40.5 96.7312 40.5 112.074Z" fill="white" stroke="black" stroke-width="3"/>
<path d="M141.805 109.991C141.805 109.925 141.775 109.868 141.727 109.82C141.67 109.763 141.611 109.676 141.578 109.601C141.538 109.512 141.443 109.433 141.407 109.337C141.366 109.229 141.248 109.125 141.181 109.029C141.115 108.936 141.095 108.783 141.011 108.711C140.934 108.646 140.843 108.501 140.796 108.413C140.76 108.345 140.705 108.287 140.673 108.218C140.658 108.184 140.625 108.154 140.614 108.118C140.586 108.024 140.548 107.932 140.517 107.838C140.498 107.779 140.487 107.721 140.461 107.663C140.412 107.557 140.366 107.449 140.324 107.339C140.28 107.221 140.259 107.096 140.213 106.979C140.198 106.941 140.17 106.911 140.151 106.875C140.095 106.768 140.045 106.659 139.99 106.551C139.898 106.373 139.855 106.15 139.728 105.988C139.598 105.824 139.584 105.608 139.515 105.412C139.494 105.352 139.48 105.285 139.465 105.223C139.444 105.135 139.384 105.065 139.366 104.978C139.353 104.918 139.337 104.876 139.337 104.815" stroke="black" stroke-linecap="round"/>
<path d="M142.073 109.817C141.968 109.758 142.099 109.668 142.143 109.621C142.22 109.536 142.31 109.524 142.354 109.398C142.414 109.223 142.497 109.045 142.584 108.882C142.608 108.837 142.651 108.763 142.689 108.731C142.735 108.693 142.735 108.623 142.784 108.588C142.818 108.563 142.836 108.499 142.861 108.463C142.894 108.417 142.924 108.372 142.96 108.327C143.026 108.245 143.103 108.184 143.178 108.108C143.215 108.071 143.287 107.971 143.296 107.92C143.305 107.865 143.374 107.805 143.415 107.763C143.572 107.607 143.58 107.373 143.731 107.221C143.794 107.158 143.84 107.087 143.908 107.024C143.941 106.994 143.99 106.999 144.003 106.954C144.024 106.887 144.066 106.826 144.104 106.767C144.221 106.593 144.359 106.415 144.447 106.23C144.483 106.153 144.543 106.104 144.59 106.036C144.626 105.984 144.635 105.931 144.66 105.875C144.715 105.756 144.839 105.698 144.881 105.567C144.908 105.483 144.995 105.377 144.995 105.295C144.995 105.236 145.035 105.191 145.035 105.126C145.035 105.064 145.059 105.03 145.078 104.975C145.108 104.89 145.092 104.806 145.163 104.735C145.253 104.644 145.291 104.513 145.346 104.396C145.371 104.343 145.366 104.3 145.371 104.244C145.384 104.11 145.447 103.984 145.478 103.854C145.493 103.788 145.491 103.704 145.513 103.641C145.526 103.602 145.579 103.577 145.587 103.538C145.596 103.497 145.633 103.463 145.655 103.428C145.678 103.393 145.676 103.346 145.696 103.311C145.743 103.227 145.745 103.147 145.745 103.053C145.745 102.976 145.747 102.9 145.796 102.837C145.857 102.758 145.824 102.6 145.824 102.505C145.824 102.324 145.841 102.137 145.824 101.958C145.813 101.835 145.757 101.711 145.746 101.583C145.739 101.488 145.722 101.4 145.726 101.302C145.728 101.228 145.745 101.156 145.745 101.08C145.745 101.002 145.785 100.944 145.785 100.872" stroke="black" stroke-linecap="round"/>
<path d="M139.372 104.599C139.372 103.727 139.294 102.865 139.294 102C139.294 101.772 139.282 101.54 139.294 101.312C139.305 101.113 139.331 100.813 139.43 100.636C139.534 100.448 139.442 100.244 139.601 100.058C139.666 99.9821 139.615 99.8776 139.698 99.8066C139.75 99.7625 139.786 99.5723 139.827 99.4952C139.916 99.3267 140.106 99.0776 140.106 98.8765C140.106 98.6654 140.211 98.4856 140.222 98.2751C140.232 98.0925 140.34 98.0184 140.454 97.8928C140.803 97.509 141.144 97.1034 141.391 96.6341C141.533 96.3642 141.759 96.1258 141.915 95.8608C141.974 95.7599 142.074 95.7279 142.108 95.6074C142.149 95.4632 142.253 95.3542 142.366 95.2615C142.519 95.1363 142.588 94.9132 142.716 94.7568C142.882 94.5543 143.016 94.3814 143.199 94.1983" stroke="black" stroke-linecap="round"/>
<path d="M145.751 100.848C145.751 100.372 145.92 99.7469 145.751 99.2847C145.677 99.079 145.531 98.8703 145.519 98.6446C145.517 98.59 145.467 98.5685 145.451 98.52C145.428 98.4514 145.453 98.3811 145.423 98.3138C145.365 98.1862 145.38 98.0497 145.335 97.9229C145.236 97.6457 145.191 97.3602 144.998 97.1238C144.917 97.0255 144.853 96.9584 144.793 96.8274C144.738 96.705 144.616 96.5185 144.592 96.3957C144.549 96.181 144.431 96.0191 144.317 95.835C144.08 95.4539 143.914 95.0278 143.672 94.6537C143.645 94.6121 143.677 94.5522 143.655 94.5076C143.629 94.4561 143.56 94.451 143.53 94.3916C143.49 94.311 143.469 94.249 143.393 94.1983" stroke="black" stroke-linecap="round"/>
<path d="M142.852 104.831C142.852 104.962 142.752 105.025 142.736 105.14C142.712 105.302 142.7 105.43 142.637 105.589C142.584 105.722 142.434 105.921 142.426 106.068C142.417 106.24 142.342 106.486 142.25 106.631C142.155 106.78 142.163 107.081 142.126 107.258C142.088 107.435 142.078 107.584 142.078 107.769" stroke="black" stroke-width="3" stroke-linecap="round"/>
<path d="M142.89 98.6832C142.89 98.5366 142.868 98.4467 142.997 98.3524C143.096 98.2805 143.176 98.1574 143.219 98.0453C143.302 97.8292 143.154 97.5409 143.277 97.3386C143.406 97.1252 143.393 96.8573 143.393 96.6147C143.393 96.5138 143.393 96.4128 143.393 96.3119C143.393 96.0614 143.454 96.8509 143.315 97.0594" stroke="black" stroke-width="3" stroke-linecap="round"/>
<path d="M143.432 105.256C143.566 105.241 143.665 105.032 143.758 104.945C143.971 104.744 143.937 104.563 144.012 104.311C144.107 103.991 144.128 103.613 144.128 103.282C144.128 102.952 144.247 102.648 144.28 102.32C144.365 101.472 144.282 100.583 144.282 99.7293C144.282 99.4321 144.247 99.1152 144.136 98.8379C144.084 98.7066 144.128 98.4755 144.128 98.3353" stroke="black" stroke-width="3" stroke-linecap="round"/>
<path d="M141.227 105.024C141.181 105.018 141.123 104.373 141.113 104.3C141.094 104.141 141.135 104.624 141.189 104.775C141.225 104.877 141.326 104.927 141.341 105.041C141.355 105.148 141.343 105.262 141.343 105.37C141.343 105.525 141.343 105.681 141.343 105.836C141.343 105.898 141.343 105.909 141.343 105.836C141.343 105.647 141.343 105.458 141.343 105.269C141.343 105.112 141.334 104.962 141.373 104.809C141.393 104.734 141.455 104.677 141.459 104.599C141.49 104.006 141.483 103.355 141.62 102.767C141.656 102.611 141.688 102.422 141.773 102.283C141.8 102.239 141.766 102.516 141.76 102.541C141.668 102.918 141.653 103.28 141.653 103.667C141.653 104.068 141.623 104.471 141.573 104.867C141.551 105.043 141.537 105.208 141.537 105.389C141.537 105.535 141.758 106.007 141.683 105.625C141.65 105.458 141.536 105.318 141.502 105.157C141.466 104.986 141.498 104.779 141.498 104.605C141.498 104.377 141.498 104.15 141.498 103.922C141.498 103.675 141.382 103.469 141.382 103.224C141.382 103.046 141.421 102.877 141.421 102.704" stroke="black" stroke-width="3" stroke-linecap="round"/>
<path d="M141.189 103.477C140.98 103.477 141.065 103.013 141.082 102.867C141.109 102.629 141.245 102.445 141.318 102.225C141.372 102.064 141.404 101.833 141.419 101.665C141.454 101.276 141.555 100.886 141.636 100.5C141.676 100.309 141.769 100.114 141.769 99.9183C141.769 99.6872 141.804 99.4491 141.864 99.2267C141.904 99.0764 141.963 98.8534 141.963 98.7026C141.963 98.5691 142.139 98.4001 142.156 98.258C142.16 98.2239 142.265 98.0907 142.293 98.0668C142.381 97.9915 142.352 98.1761 142.347 98.2215C142.323 98.4617 142.272 98.6689 142.272 98.9152" stroke="black" stroke-width="3" stroke-linecap="round"/>
<path d="M141.962 100.346C141.874 100.365 141.66 100.839 141.653 100.934C141.627 101.25 141.455 101.545 141.421 101.854C141.407 101.977 141.353 102.24 141.275 102.326C141.139 102.476 141.185 102.311 141.189 102.163C141.194 101.972 141.306 101.703 141.421 101.553C141.54 101.396 141.5 101.18 141.575 100.994C141.608 100.913 141.687 100.573 141.507 100.694C141.272 100.85 141.201 101.175 141.15 101.428" stroke="black" stroke-width="3" stroke-linecap="round"/>
<path d="M127.99 109.898C128.217 109.898 128.269 109.948 128.421 110.1C128.517 110.196 128.639 110.316 128.746 110.397C128.844 110.472 129.001 110.485 129.085 110.557C129.308 110.746 129.586 110.716 129.836 110.83C130.123 110.962 130.457 111.027 130.768 111.084C130.927 111.113 131.055 111.21 131.22 111.221C131.341 111.229 131.503 111.245 131.617 111.289C132.114 111.48 132.628 111.579 133.128 111.745C133.898 112.002 134.673 112.179 135.473 112.179C136.133 112.179 136.755 112.27 137.419 112.27C138.291 112.27 139.119 112.347 139.984 112.404C140.745 112.455 141.506 112.452 142.27 112.452C142.593 112.452 142.916 112.452 143.238 112.452C143.698 112.452 144.088 112.229 144.531 112.179C144.977 112.128 145.411 111.89 145.859 111.811C146.424 111.712 146.945 111.443 147.441 111.167C147.967 110.875 148.497 110.56 148.967 110.181C149.173 110.015 149.358 109.756 149.542 109.558C150.004 109.062 150.487 108.593 151.004 108.154C151.302 107.901 151.434 107.569 151.679 107.277C151.878 107.039 152.024 106.776 152.15 106.494C152.256 106.257 152.419 106.089 152.571 105.883C152.898 105.438 153.149 104.96 153.438 104.489C153.588 104.243 153.732 104.017 153.901 103.784C153.973 103.685 154.041 103.52 154.041 103.394C154.041 102.792 154.458 102.25 154.614 101.686C154.7 101.371 154.761 101.049 154.847 100.738C154.88 100.618 154.954 100.344 155.029 100.241C155.384 99.7567 155.674 99.3511 155.891 98.7759C156.035 98.3948 156.153 97.9779 156.276 97.5897C156.328 97.4276 156.396 97.3184 156.436 97.1487C156.471 97.001 156.514 96.8558 156.55 96.7102C156.642 96.3407 156.807 96.0508 156.976 95.7141C157.099 95.4684 157.149 95.1904 157.234 94.9335" stroke="black" stroke-width="3" stroke-linecap="round"/>
<path d="M128.438 108.783C128.438 108.586 128.402 108.344 128.446 108.151C128.525 107.805 128.696 107.509 128.802 107.171C128.904 106.845 128.977 106.533 129.09 106.212C129.278 105.678 129.398 105.121 129.581 104.582C129.603 104.517 129.62 104.45 129.641 104.384C129.694 104.222 129.843 104.121 129.901 103.962C130.051 103.545 130.096 103.066 130.168 102.63C130.23 102.257 130.498 101.832 130.669 101.501C130.928 101 131.224 100.521 131.48 100.018C131.801 99.3873 132.171 98.7544 132.577 98.1766C132.71 97.9873 132.797 97.7731 132.925 97.581C132.981 97.4978 133.063 97.469 133.134 97.4019C133.575 96.9901 134.063 96.5959 134.591 96.3072C134.955 96.1081 135.323 95.8738 135.644 95.613C135.723 95.5486 135.73 95.4811 135.829 95.4319C135.937 95.3778 136.068 95.3211 136.169 95.2568C136.993 94.7321 137.811 94.2033 138.523 93.5303C138.831 93.239 139.043 93.0977 139.433 92.9528C139.884 92.7849 140.312 92.6711 140.777 92.5483C140.892 92.518 140.988 92.4197 141.107 92.4115C141.241 92.4023 141.368 92.3782 141.501 92.3572C142.114 92.2605 142.729 92.1827 143.34 92.0855C143.79 92.0142 144.234 91.8981 144.687 91.8521C144.954 91.825 145.227 91.8059 145.496 91.7978C145.836 91.7875 146.149 91.6937 146.484 91.6589C147.123 91.5926 147.871 91.5284 148.504 91.6509C148.73 91.6945 148.947 91.7724 149.172 91.8159C149.395 91.8591 149.611 91.856 149.834 91.9205C150.373 92.0765 150.956 92.1009 151.486 92.2827C151.791 92.3872 152.052 92.4844 152.376 92.5383C152.776 92.605 153.24 92.666 153.611 92.8381C153.743 92.8994 153.868 92.9062 154.009 92.9266C154.335 92.9736 154.642 93.1052 154.969 93.156C155.237 93.1977 155.474 93.2808 155.748 93.2808" stroke="black" stroke-width="3" stroke-linecap="round"/>
<path d="M155.374 93.0397C155.87 93.0397 156.325 93.258 156.756 93.4738C156.938 93.5646 157.19 93.5205 157.391 93.5205C157.65 93.5205 157.774 93.7609 158.019 93.7609" stroke="black" stroke-width="3" stroke-linecap="round"/>
<path d="M101.898 109.768C101.879 109.958 101.812 110.171 101.627 110.264C101.221 110.467 100.863 110.759 100.381 110.819C100.276 110.832 100.18 110.898 100.077 110.925C99.8429 110.985 99.6057 111.028 99.3734 111.097C99.0971 111.18 98.8137 111.242 98.5512 111.363C98.2226 111.513 97.8568 111.608 97.5175 111.74C97.3547 111.804 97.1694 111.796 96.9995 111.835C96.5725 111.933 96.1568 112.076 95.7262 112.159C95.1292 112.274 94.4966 112.228 93.9069 112.351C93.7423 112.386 93.5958 112.518 93.43 112.526C92.8128 112.554 92.2341 112.759 91.6085 112.759C90.318 112.759 89.0274 112.759 87.7369 112.759C87.4024 112.759 87.0655 112.771 86.7312 112.759C86.563 112.753 86.4059 112.68 86.2434 112.643C85.7961 112.541 85.3552 112.475 84.927 112.302C84.5917 112.166 84.2702 112.007 83.9342 111.866C83.694 111.765 83.439 111.697 83.2005 111.594C83.0759 111.54 82.9903 111.439 82.8552 111.391C81.8808 111.046 80.9816 110.525 80.1187 109.958C79.6252 109.634 79.0932 109.218 78.8001 108.7C78.7351 108.585 78.6221 108.505 78.5519 108.391C78.4382 108.207 78.3398 108.031 78.2109 107.856C78.1168 107.728 78.0789 107.581 77.9973 107.448C77.8639 107.231 77.6848 107.046 77.5462 106.833C77.0036 106 76.5548 105.101 76.1348 104.2C76.0468 104.011 75.944 103.782 75.8283 103.609C75.6473 103.337 75.5352 103.024 75.3471 102.756C75.2798 102.661 75.2451 102.567 75.2111 102.456C75.1572 102.28 75.0471 102.144 74.9737 101.977C74.8896 101.786 74.7762 101.598 74.6673 101.416" stroke="black" stroke-width="3" stroke-linecap="round"/>
<path d="M74.5117 100.911C74.4363 100.654 74.3212 100.43 74.308 100.153C74.2975 99.9329 74.2556 99.7024 74.1695 99.4994C74.0637 99.25 74.0195 98.9831 73.9511 98.7221C73.855 98.3551 73.7501 97.991 73.6611 97.6221C73.5463 97.1466 73.4489 96.6744 73.3237 96.2027C73.2576 95.9534 73.1656 95.6993 73.0418 95.4743C72.9991 95.3967 72.9133 95.2657 72.9 95.1793C72.8853 95.0833 72.8397 94.9685 72.8397 94.868" stroke="black" stroke-width="3" stroke-linecap="round"/>
<path d="M102.022 109.904C102.022 109.245 101.808 108.687 101.55 108.078C101.461 107.866 101.444 107.656 101.408 107.43C101.376 107.228 101.255 107.082 101.164 106.907C101.102 106.788 101.076 106.563 100.976 106.478C100.867 106.384 100.916 106.181 100.834 106.077C100.533 105.693 100.398 105.304 100.231 104.837C100.001 104.192 99.5908 103.615 99.3612 102.972C99.0081 101.983 98.5596 101.061 98.15 100.095C97.9767 99.6857 97.8598 99.2827 97.6439 98.8892C97.4372 98.5122 97.2285 98.1757 96.9957 97.8144C96.767 97.4595 96.4846 97.115 96.228 96.7795C96.1036 96.6168 95.9845 96.4427 95.8527 96.2876C95.6428 96.0406 95.3955 95.8317 95.1874 95.5854C94.8228 95.1536 94.4129 94.7746 93.8966 94.4993C93.6859 94.3869 93.4622 94.2888 93.274 94.1382C93.1061 94.0039 92.9319 93.9904 92.7593 93.8738C92.3764 93.615 91.9614 93.4615 91.5652 93.2312C91.3229 93.0903 91.029 93.0388 90.7919 92.89C90.4289 92.6623 89.9987 92.5231 89.575 92.401C89.0899 92.2612 88.6215 91.9677 88.1022 91.9404C87.1709 91.8914 86.2295 91.808 85.2988 91.7869C85.0329 91.7808 84.7648 91.6921 84.497 91.6845C83.863 91.6666 83.2346 91.6333 82.5978 91.6333C82.1518 91.6333 81.7057 91.5822 81.2558 91.5822C80.6858 91.5822 80.1836 91.9071 79.6181 91.9404C79.2229 91.9636 78.7798 92.1856 78.3898 92.273C78.1287 92.3316 77.8692 92.494 77.5994 92.5033C77.3938 92.5104 77.1751 92.5403 76.9739 92.583C76.7879 92.6224 76.5441 92.7469 76.3712 92.7592C76.0153 92.7847 75.7306 92.8756 75.396 93.0094C75.2534 93.0665 75.1033 93.1606 74.9496 93.1687C74.5347 93.1905 74.1943 93.7507 73.7611 93.7828C73.5701 93.7969 73.317 93.9777 73.2209 94.141C73.1236 94.3065 72.953 94.381 72.8513 94.5504" stroke="black" stroke-width="3" stroke-linecap="round"/>
<path d="M88.2549 110.226C88.2549 110.146 88.1826 110.056 88.1527 109.983C88.0978 109.849 88.0385 109.707 87.9389 109.602C87.832 109.489 87.7665 109.353 87.6364 109.256C87.5199 109.17 87.4167 109.08 87.3091 108.982C87.1742 108.859 87.0498 108.719 86.9085 108.605C86.7769 108.499 86.6581 108.304 86.5729 108.161C86.5185 108.069 86.474 107.971 86.4108 107.884C86.3423 107.79 86.3168 107.681 86.2373 107.595C86.1139 107.462 86.0127 107.287 85.9028 107.141C85.7922 106.993 85.6785 106.84 85.5889 106.677C85.5044 106.523 85.4162 106.358 85.3101 106.218C85.1704 106.033 84.9589 105.816 84.9085 105.589C84.8803 105.462 84.7808 105.325 84.7236 105.208C84.6517 105.06 84.5787 104.926 84.5264 104.769C84.4749 104.614 84.4205 104.464 84.3747 104.305C84.3383 104.18 84.2714 104.069 84.2404 103.945C84.1933 103.757 84.0831 103.594 84.036 103.405" stroke="black" stroke-linecap="round"/>
<path d="M88.3105 110.059C88.3105 109.987 88.3338 109.969 88.3662 109.91C88.4498 109.757 88.5129 109.586 88.5851 109.427C88.6338 109.319 88.6567 109.2 88.709 109.092C88.7582 108.991 88.7878 108.863 88.8494 108.77C88.8881 108.712 88.967 108.602 89.0208 108.564C89.0762 108.524 89.1921 108.412 89.217 108.345C89.2615 108.224 89.3473 108.14 89.4029 108.023C89.479 107.862 89.5136 107.684 89.5836 107.521C89.6688 107.322 89.6856 107.102 89.788 106.908C89.8534 106.785 89.8654 106.635 89.9274 106.511C90.0027 106.36 90.0793 106.216 90.1669 106.072C90.2416 105.949 90.2337 105.775 90.263 105.638C90.2864 105.529 90.3569 105.446 90.4013 105.348C90.4441 105.254 90.4779 105.164 90.5211 105.071C90.5653 104.975 90.6136 104.882 90.6522 104.781C90.6732 104.727 90.7266 104.652 90.7266 104.595" stroke="black" stroke-linecap="round"/>
<path d="M90.6622 104.893C90.6764 104.779 90.8021 104.72 90.8078 104.601C90.8118 104.517 90.8078 104.431 90.8078 104.347C90.8078 104.095 90.8078 103.843 90.8078 103.59C90.8078 103.406 90.8078 103.221 90.8078 103.037C90.8078 102.689 90.873 102.285 90.7896 101.951C90.7364 101.738 90.735 101.454 90.735 101.235C90.735 101.137 90.6622 101.061 90.6622 100.978C90.6622 100.845 90.6318 100.671 90.5975 100.542C90.5471 100.351 90.4802 100.102 90.4802 99.9068C90.4802 99.7951 90.3438 99.7678 90.3347 99.644C90.3295 99.5748 90.2959 99.5533 90.2619 99.4984C90.2019 99.4019 90.1998 99.2851 90.1689 99.179C90.1034 98.9544 89.898 98.695 89.898 98.4653C89.898 98.3335 89.8039 98.2577 89.7524 98.1418C89.7101 98.0466 89.6172 97.8957 89.5522 97.8163C89.4707 97.7167 89.4645 97.6394 89.4046 97.5251C89.3414 97.4044 89.1873 97.2775 89.1721 97.141C89.1398 96.8497 88.8545 96.6814 88.697 96.4576C88.5904 96.3061 88.3124 96.0923 88.2967 95.9199C88.2916 95.864 88.1853 95.739 88.143 95.6934C88.0554 95.5987 88.0011 95.4917 87.9045 95.4144C87.8274 95.3528 87.8182 95.2114 87.7326 95.1354C87.6695 95.0793 87.5801 94.9665 87.5668 94.8867C87.5596 94.8435 87.44 94.7995 87.4011 94.7735C87.1941 94.6355 86.9145 94.5222 86.8046 94.3024" stroke="black" stroke-linecap="round"/>
<path d="M84.0024 103.4C84.0024 103.081 84.0026 102.762 83.968 102.45C83.9256 102.069 84.0751 101.714 84.0751 101.346C84.0751 100.968 84.0751 100.59 84.0751 100.212C84.0751 99.9995 84.0705 99.808 84.1398 99.6076C84.2091 99.4076 84.1864 99.2146 84.2389 99.0152C84.2966 98.7961 84.3407 98.5604 84.3703 98.3379C84.3988 98.1243 84.4524 97.8383 84.53 97.6363C84.5751 97.5192 84.5686 97.3884 84.621 97.2704C84.6753 97.1484 84.6279 97.0097 84.6938 96.8944C84.7424 96.8093 84.784 96.708 84.805 96.6133C84.8437 96.4394 85.0715 96.3342 85.1386 96.1665C85.1644 96.1019 85.2337 96.0094 85.2761 95.9482C85.3008 95.9125 85.3961 95.7271 85.4055 95.7217C85.5751 95.6248 85.6376 95.3101 85.7492 95.1637C85.8575 95.0216 86.018 94.903 86.1151 94.7573C86.1743 94.6686 86.2423 94.5412 86.3173 94.4662C86.3798 94.4037 86.5165 94.369 86.5498 94.3024" stroke="black" stroke-linecap="round"/>
<path d="M88.3691 106.676C88.3691 105.928 88.3514 105.185 88.3044 104.44C88.2733 103.945 88.26 103.443 88.26 102.948C88.26 102.843 88.3252 102.563 88.1872 102.563" stroke="black" stroke-width="3" stroke-linecap="round"/>
<path d="M88.4424 105.111C88.8246 105.076 89.0529 104.536 89.15 104.203C89.262 103.819 89.1702 103.311 89.1702 102.911C89.1702 102.537 89.2066 102.167 89.2066 101.791C89.2066 101.394 89.2242 100.992 89.1338 100.602C89.0814 100.376 88.991 100.178 88.9519 99.9432" stroke="black" stroke-width="3" stroke-linecap="round"/>
<path d="M87.1317 106.93C87.1317 106.547 87.1412 106.223 87.0063 105.857C86.9828 105.793 86.9639 105.708 86.9518 105.641C86.9306 105.524 86.8508 105.453 86.7961 105.349C86.6554 105.084 86.5613 104.735 86.5494 104.432C86.5273 103.867 86.2155 103.409 86.1875 102.85C86.1489 102.079 86.1855 101.297 86.1855 100.525" stroke="black" stroke-width="3" stroke-linecap="round"/>
<path d="M85.9313 103.874C85.9313 103.322 85.8585 102.802 85.8585 102.25C85.8585 101.34 85.973 100.437 86.2588 99.5793" stroke="black" stroke-width="3" stroke-linecap="round"/>
<path d="M86.8768 101.654C87.0164 101.479 86.9884 101.169 87.0405 100.96C87.1141 100.666 87.1493 100.364 87.2003 100.071C87.2651 99.6977 87.1646 99.3081 87.2407 98.9323C87.2595 98.8393 87.3557 98.3372 87.269 98.2409C87.1601 98.1199 87.0951 97.8423 87.0951 97.6687C87.0951 97.4923 86.9859 97.3448 86.9859 97.1633C86.9859 96.8487 86.804 96.6043 86.804 96.304" stroke="black" stroke-width="3" stroke-linecap="round"/>
<path d="M86.7314 97.0319C86.7314 97.4093 86.7334 97.7544 86.6587 98.1236C86.6353 98.2391 86.6196 98.3777 86.5778 98.4875C86.5296 98.6139 86.4232 98.7742 86.4059 98.904C86.3715 99.1625 86.3317 99.4167 86.2765 99.6703C86.2513 99.7866 86.2504 99.9069 86.2017 100.018C86.1406 100.158 86.1372 100.047 86.04 100.052C85.9497 100.058 85.9308 100.613 85.9308 100.424C85.9308 99.9727 85.8944 99.5306 85.8944 99.0779C85.8944 98.9313 85.8738 98.7621 85.8964 98.6149C85.9082 98.5387 85.9672 98.4728 85.9672 98.3966C85.9672 98.3104 86.0529 98.2381 86.0764 98.156C86.1108 98.0354 86.1511 97.9167 86.1856 97.7961" stroke="black" stroke-width="3" stroke-linecap="round"/>
<path d="M87.9329 99.6885C87.9329 99.4174 87.9717 99.1873 88.0502 98.9323C88.1001 98.7702 88.1173 98.4914 88.0239 98.342C87.9499 98.2235 87.984 98.0365 87.8965 97.9053" stroke="black" stroke-width="3" stroke-linecap="round"/>
<path d="M88.2233 108.823C88.2622 109.173 88.2597 108.119 88.2597 107.767" stroke="black" stroke-linecap="round"/>
<path d="M72.9097 94.0188C72.9952 94.0081 72.9186 93.9665 72.8705 93.9684C72.777 93.972 72.7283 94.0692 72.6323 94.0692C72.4947 94.0692 72.3539 94.1197 72.2036 94.1197" stroke="black" stroke-width="3" stroke-linecap="round"/>
<path d="M88.2969 107.367C88.1486 107.367 88.1877 107.009 88.1877 107.331" stroke="black" stroke-width="3" stroke-linecap="round"/>
<path d="M113.944 140.448C113.944 140.149 113.803 139.958 113.593 139.756C113.418 139.587 113.292 139.601 113.064 139.601C112.79 139.601 112.571 139.595 112.315 139.47C112.113 139.372 111.924 139.315 111.728 139.195C111.649 139.146 111.436 139.065 111.402 138.981C111.343 138.833 111.145 138.757 111.045 138.641C110.949 138.529 110.801 138.462 110.678 138.369C110.618 138.325 110.482 138.259 110.406 138.232C110.228 138.167 110.067 137.926 109.935 137.793C109.746 137.604 109.571 137.413 109.365 137.239C109.201 137.1 108.951 137.077 108.778 136.942C108.63 136.827 108.533 136.641 108.385 136.52C108.312 136.461 108.213 136.423 108.168 136.341C108.099 136.217 107.889 136.207 107.802 136.097C107.691 135.956 107.49 135.846 107.327 135.747C107.297 135.728 107.145 135.605 107.132 135.575C107.106 135.516 107.01 135.464 106.969 135.403C106.921 135.333 106.845 135.272 106.79 135.198C106.739 135.13 106.692 135.024 106.627 134.972C106.483 134.857 106.356 134.785 106.188 134.691C106.094 134.638 105.975 134.495 105.893 134.418C105.833 134.361 105.721 134.26 105.698 134.19" stroke="black" stroke-linecap="round"/>
<path d="M105.543 133.914C105.468 133.91 105.429 133.746 105.426 133.68C105.416 133.509 105.368 133.362 105.295 133.212C105.235 133.087 105.15 132.75 105.009 132.692C104.921 132.655 104.873 132.471 104.783 132.421C104.68 132.364 104.642 132.237 104.559 132.146C104.495 132.074 104.46 131.952 104.414 131.865C104.352 131.747 104.303 131.642 104.258 131.516C104.225 131.427 104.204 131.327 104.184 131.234C104.162 131.138 104.061 131.051 104.043 130.943C104.009 130.74 103.959 130.518 103.903 130.322C103.891 130.281 103.859 130.28 103.857 130.221C103.854 130.145 103.81 130.082 103.81 130.006C103.81 129.861 103.824 129.725 103.766 129.595C103.724 129.501 103.79 129.367 103.752 129.267C103.626 128.941 103.693 128.519 103.693 128.174C103.693 128.09 103.693 128.005 103.693 127.921C103.693 127.839 103.737 127.753 103.74 127.669C103.748 127.454 103.763 127.238 103.763 127.019C103.763 126.896 103.749 126.799 103.834 126.704C103.898 126.631 103.874 126.501 103.933 126.428C103.955 126.401 103.951 126.378 103.951 126.341C103.951 126.303 104.003 126.26 104.021 126.223C104.074 126.116 104.134 126.071 104.163 125.941C104.207 125.74 104.307 125.555 104.349 125.352C104.361 125.291 104.381 125.131 104.432 125.088C104.524 125.008 104.614 124.916 104.722 124.846C104.909 124.724 105.063 124.548 105.227 124.394C105.307 124.319 105.348 124.217 105.426 124.139C105.468 124.097 105.528 124.073 105.576 124.037C105.736 123.915 105.918 123.76 106.021 123.591C106.09 123.477 106.196 123.437 106.315 123.39C106.39 123.361 106.456 123.331 106.534 123.304C106.609 123.279 106.816 123.268 106.854 123.193" stroke="black" stroke-linecap="round"/>
<path d="M114.172 125.035C114.172 124.955 114.121 124.88 114.087 124.811C114.059 124.753 114.055 124.683 114.016 124.632C113.986 124.592 113.96 124.556 113.932 124.516C113.852 124.401 113.745 124.297 113.655 124.189C113.588 124.108 113.505 124.029 113.424 123.963C113.386 123.932 113.343 123.916 113.308 123.881C113.261 123.834 113.205 123.815 113.152 123.776C113.035 123.69 112.899 123.625 112.775 123.547C112.58 123.425 112.403 123.271 112.213 123.14C111.942 122.954 111.618 122.841 111.322 122.714C111.287 122.698 111.237 122.708 111.2 122.706C111.118 122.703 111.039 122.683 110.957 122.68C110.865 122.676 110.778 122.68 110.687 122.665C110.334 122.606 109.973 122.594 109.622 122.527C109.454 122.495 109.262 122.524 109.09 122.524C108.835 122.524 108.58 122.524 108.325 122.524C108.201 122.524 108.08 122.519 107.958 122.545C107.847 122.569 107.729 122.567 107.631 122.632C107.43 122.765 107.196 122.824 106.987 122.941C106.916 122.98 106.852 123.006 106.791 123.062C106.683 123.161 106.605 123.299 106.494 123.391C106.454 123.425 106.435 123.452 106.392 123.476C106.354 123.497 106.313 123.512 106.272 123.525" stroke="black" stroke-linecap="round"/>
<path d="M114.59 125.298C114.529 125.207 114.902 124.986 114.998 124.957C115.092 124.928 115.161 124.791 115.241 124.732C115.313 124.68 115.344 124.609 115.409 124.55C115.532 124.439 115.738 124.36 115.879 124.262C116.027 124.158 116.159 124.063 116.298 123.953C116.388 123.881 116.458 123.79 116.536 123.707C116.695 123.538 116.887 123.403 117.069 123.261C117.127 123.215 117.218 123.187 117.285 123.157C117.324 123.139 117.365 123.146 117.407 123.144C117.476 123.141 117.46 123.098 117.507 123.071C117.684 122.967 117.893 122.96 118.096 122.96C118.287 122.96 118.416 122.81 118.595 122.778C118.811 122.738 119.018 122.643 119.243 122.624C119.644 122.591 120.05 122.645 120.449 122.645C120.562 122.645 120.676 122.645 120.789 122.645C120.846 122.645 121.029 122.617 121.078 122.658C121.121 122.694 121.211 122.681 121.264 122.703C121.327 122.73 121.427 122.817 121.49 122.827C121.657 122.853 121.831 122.796 121.979 122.896C122.065 122.954 122.185 123.007 122.282 123.045C122.386 123.085 122.428 123.176 122.51 123.223C122.609 123.279 122.701 123.369 122.787 123.448C122.814 123.471 122.862 123.457 122.894 123.475C122.984 123.526 123.077 123.566 123.167 123.615C123.242 123.657 123.33 123.701 123.408 123.725C123.522 123.76 123.611 123.894 123.713 123.958C123.844 124.041 123.919 124.145 124.037 124.242C124.197 124.373 124.259 124.569 124.482 124.668C124.67 124.751 124.681 124.992 124.771 125.154C124.822 125.245 124.904 125.314 124.968 125.398C124.994 125.431 125.049 125.426 125.067 125.468C125.091 125.521 125.073 125.539 125.114 125.587C125.209 125.701 125.172 125.879 125.257 126.014C125.319 126.112 125.398 126.223 125.416 126.339C125.422 126.377 125.487 126.596 125.508 126.613C125.642 126.728 125.597 126.979 125.689 127.123C125.726 127.181 125.728 127.354 125.73 127.421C125.734 127.538 125.751 127.66 125.782 127.774C125.91 128.238 125.914 128.723 125.914 129.204C125.914 129.329 125.962 129.505 125.999 129.627C126.025 129.717 126.019 129.804 126.019 129.898C126.019 130.037 126.019 130.177 126.019 130.316C126.019 130.495 125.991 130.632 125.946 130.804C125.885 131.036 125.907 131.299 125.861 131.537C125.814 131.784 125.812 132.116 125.637 132.316C125.599 132.359 125.614 132.42 125.572 132.458C125.52 132.504 125.5 132.579 125.479 132.643C125.384 132.927 125.213 133.169 125.113 133.449C125.056 133.605 125.016 133.837 124.889 133.957C124.806 134.035 124.659 134.126 124.559 134.184C124.438 134.254 124.311 134.37 124.199 134.459C123.945 134.66 123.754 134.903 123.546 135.149C123.505 135.198 123.47 135.257 123.419 135.295C123.285 135.396 123.177 135.516 123.065 135.641C122.916 135.807 122.81 135.783 122.682 135.624" stroke="black" stroke-linecap="round"/>
<path d="M122.893 135.334C122.893 135.512 122.645 135.676 122.498 135.761C122.281 135.886 122.102 136.07 121.888 136.196C121.493 136.429 121.23 136.813 120.908 137.136C120.824 137.22 120.652 137.436 120.534 137.463C120.475 137.476 120.372 137.539 120.332 137.585C120.21 137.73 120.079 137.773 119.95 137.895C119.855 137.985 119.725 138.036 119.623 138.119C119.434 138.274 119.226 138.411 119.042 138.581C118.996 138.624 118.911 138.702 118.857 138.725C118.697 138.795 118.544 138.956 118.438 139.091C118.376 139.17 118.261 139.243 118.182 139.303C118.107 139.361 117.979 139.453 117.889 139.486C117.767 139.53 117.667 139.662 117.565 139.741C117.374 139.888 117.183 140.079 116.959 140.176C116.871 140.214 116.823 140.25 116.74 140.3C116.668 140.343 116.581 140.366 116.514 140.417C116.474 140.448 116.445 140.499 116.392 140.509C116.211 140.542 116.142 140.728 115.993 140.812C115.803 140.92 115.628 141.028 115.431 141.126C115.251 141.216 115.07 141.329 114.876 141.415C114.734 141.479 114.585 141.449 114.434 141.459C114.291 141.469 114.202 141.561 114.065 141.561" stroke="black" stroke-linecap="round"/>
<path d="M107.576 136.018C107.673 136.054 107.8 136.153 107.85 136.254C107.88 136.314 107.938 136.342 107.97 136.397C107.982 136.419 108.016 136.411 108.035 136.426C108.071 136.454 108.061 136.489 108.086 136.517C108.158 136.596 108.269 136.743 108.37 136.785C108.448 136.818 108.485 136.843 108.535 136.909C108.64 137.05 108.818 137.16 108.955 137.267C109.073 137.359 109.279 137.479 109.356 137.606C109.398 137.674 109.478 137.697 109.52 137.757C109.586 137.855 109.657 137.869 109.74 137.959C109.773 137.994 109.791 137.982 109.834 137.989C109.867 137.995 109.889 138.044 109.914 138.065C109.984 138.125 110.097 138.135 110.171 138.204C110.268 138.294 110.39 138.338 110.486 138.414C110.647 138.543 110.838 138.644 110.998 138.776C111.082 138.845 111.156 138.979 111.225 139.062C111.257 139.102 111.317 139.218 111.359 139.243C111.416 139.277 111.425 139.311 111.47 139.348C111.548 139.413 111.688 139.443 111.778 139.51C111.835 139.553 111.871 139.597 111.922 139.643C111.994 139.708 112.08 139.739 112.162 139.786C112.207 139.812 112.206 139.88 112.265 139.88C112.314 139.88 112.419 139.978 112.461 140.01C112.524 140.057 112.608 140.06 112.673 140.096C112.752 140.14 112.816 140.257 112.909 140.306C112.99 140.348 113.03 140.397 113.106 140.446C113.18 140.494 113.262 140.604 113.345 140.617C113.447 140.632 113.502 140.705 113.566 140.773C113.624 140.834 113.735 140.874 113.776 140.945C113.821 141.023 113.958 141.058 114.031 141.1C114.105 141.141 114.151 141.21 114.223 141.246" stroke="black" stroke-linecap="round"/>
<path d="M114.602 137.759C114.774 137.759 115.101 137.214 115.234 137.082C115.339 136.977 115.416 136.869 115.501 136.748C115.668 136.513 115.962 136.331 116.181 136.145C116.466 135.902 116.704 135.69 116.986 135.452C117.45 135.059 118.078 134.882 118.552 134.502C118.728 134.361 118.979 134.279 119.186 134.194C119.524 134.056 119.933 133.841 120.215 133.611C120.517 133.363 120.799 133.093 121.106 132.854C121.286 132.715 121.579 132.396 121.822 132.396C122.029 132.396 122.242 132.28 122.405 132.167C122.576 132.048 122.724 131.953 122.853 131.79C123.037 131.558 123.334 131.501 123.47 131.23C123.658 130.853 123.622 130.38 123.689 129.972C123.741 129.653 123.724 129.329 123.724 129.007C123.724 128.536 123.812 127.987 123.61 127.56C123.513 127.356 123.346 127.193 123.248 127.007C123.148 126.819 122.984 126.741 122.899 126.529" stroke="black" stroke-width="5" stroke-linecap="round"/>
<path d="M121.386 129.875C121.373 129.73 121.29 129.519 121.157 129.452C121.001 129.374 120.836 129.443 120.691 129.516C120.295 129.714 119.888 129.901 119.501 130.114C119.133 130.318 118.768 130.491 118.386 130.667C117.867 130.905 117.467 131.287 117.011 131.622C116.754 131.81 116.435 132.047 116.435 132.396" stroke="black" stroke-width="5" stroke-linecap="round"/>
<path d="M114.648 138.126C114.758 138.004 114.82 137.8 114.892 137.657C114.944 137.556 115.329 136.618 115.501 136.618C115.642 136.618 115.847 136.659 115.967 136.73C116.084 136.799 116.251 136.716 116.372 136.707C116.845 136.672 117.136 136.468 117.464 136.139C117.567 136.036 117.772 135.94 117.902 135.87C118.084 135.77 118.255 135.65 118.429 135.538C118.757 135.33 119.131 135.14 119.415 134.871C119.761 134.544 120.216 134.35 120.586 134.056C120.738 133.936 121 133.761 121.111 133.598C121.151 133.539 121.221 133.342 121.276 133.318C121.381 133.271 121.481 133.256 121.523 133.129" stroke="black" stroke-width="5" stroke-linecap="round"/>
<path d="M116.573 137.347C116.507 137.371 116.444 137.536 116.344 137.586C116.25 137.633 116.225 137.667 116.115 137.667" stroke="black" stroke-width="5" stroke-linecap="round"/>
<path d="M113.594 137.897C113.677 137.739 113.745 137.611 113.594 137.481C113.531 137.427 113.416 137.385 113.37 137.321C113.321 137.255 113.309 137.168 113.227 137.128C113.002 137.015 112.765 136.919 112.539 136.794C112.373 136.701 112.187 136.479 112.045 136.348C111.926 136.238 111.774 136.152 111.666 136.032C111.482 135.831 111.229 135.75 111.037 135.533C110.763 135.224 110.394 135.013 110.11 134.729C109.731 134.35 109.161 134.048 108.893 133.565C108.656 133.139 108.21 132.9 107.874 132.569C107.789 132.486 107.693 132.268 107.607 132.21C107.208 131.945 107.119 131.368 106.927 130.955C106.712 130.495 106.443 129.979 106.443 129.462" stroke="black" stroke-width="5" stroke-linecap="round"/>
<path d="M106.489 128.591C106.489 128.349 106.416 128.179 106.499 127.94C106.572 127.73 106.748 127.178 106.971 127.079C107.086 127.028 107.176 126.825 107.268 126.732C107.414 126.587 107.555 126.44 107.704 126.3C107.812 126.197 107.938 126.045 108.022 125.923C108.075 125.847 108.217 125.667 108.297 125.622C108.519 125.499 108.652 125.383 108.929 125.383C109.188 125.383 109.407 125.245 109.678 125.245C109.92 125.245 110.163 125.245 110.406 125.245C110.522 125.245 110.693 125.452 110.798 125.51C110.912 125.573 110.936 125.673 110.936 125.795" stroke="black" stroke-width="5" stroke-linecap="round"/>
<path d="M106.535 126.804C106.662 126.689 106.918 126.685 107.085 126.666C107.268 126.646 107.382 126.529 107.589 126.529" stroke="black" stroke-width="5" stroke-linecap="round"/>
<path d="M109.422 128.454C109.446 128.879 109.766 129.167 110.102 129.376C111.139 130.021 112.037 130.68 112.753 131.701C113.048 132.122 113.297 132.573 113.476 133.056C113.554 133.264 113.617 133.482 113.721 133.679C113.948 134.113 113.914 133.658 113.914 133.404" stroke="black" stroke-width="5" stroke-linecap="round"/>
<path d="M113.64 131.342C114.145 131.342 114.654 131.361 115.158 131.331C115.534 131.31 115.621 131.257 115.855 131.006C116.329 130.499 116.63 129.967 117.246 129.595C117.512 129.434 117.664 129.316 117.964 129.213C118.508 129.026 119.069 128.816 119.512 128.439C119.753 128.234 119.945 127.96 120.149 127.72C120.315 127.525 120.339 127.116 120.434 126.88C120.541 126.614 120.581 126.301 120.699 126.045C120.752 125.929 120.786 125.756 120.847 125.658C120.877 125.608 121.106 125.534 120.938 125.52C120.847 125.513 120.77 125.474 120.674 125.474C120.558 125.474 120.367 125.44 120.264 125.497C120.157 125.557 120.039 125.571 119.925 125.612C119.818 125.65 119.712 125.766 119.619 125.793C119.443 125.843 119.342 126.019 119.158 126.075C118.866 126.165 118.61 126.368 118.382 126.534C118.215 126.655 118.03 126.748 117.87 126.878C117.692 127.022 117.441 127.082 117.281 127.242C116.899 127.624 116.299 127.759 115.858 128.064C115.712 128.165 115.606 128.293 115.473 128.411C115.311 128.555 115.104 128.652 114.921 128.77C114.368 129.125 113.572 129.105 112.952 129.141" stroke="black" stroke-width="5" stroke-linecap="round"/>
<path d="M119.186 124.649C118.854 124.649 118.827 124.917 118.587 125.082C118.389 125.218 118.164 125.296 117.973 125.451C117.765 125.622 117.647 125.872 117.459 126.06C117.005 126.514 116.534 126.668 115.979 126.941C115.57 127.143 115.099 127.227 114.673 127.397C114.345 127.528 114.019 127.609 113.685 127.72" stroke="black" stroke-width="5" stroke-linecap="round"/>
<path d="M112.402 126.254C112.402 126.198 112.585 126.139 112.631 126.07" stroke="black" stroke-width="5" stroke-linecap="round"/>
<path d="M144.53 142.094C144.53 142.363 144.423 142.703 144.286 142.929C144.068 143.288 144.078 143.715 143.963 144.127C143.842 144.561 143.778 145.014 143.648 145.443C143.602 145.592 143.483 145.767 143.466 145.908C143.412 146.383 143.133 146.804 143.112 147.287C143.089 147.811 142.779 148.277 142.631 148.761C142.528 149.096 142.446 149.428 142.316 149.753C142.142 150.189 142.053 150.702 141.709 151.046C141.385 151.37 140.944 151.568 140.531 151.767C140.332 151.863 140.087 151.931 139.905 152.055C139.682 152.206 139.381 152.286 139.183 152.449C139.013 152.589 138.817 152.624 138.644 152.748C138.43 152.9 138.239 153.08 137.982 153.154C137.653 153.248 137.413 153.675 137.079 153.8C136.748 153.924 136.29 154.227 136.051 154.466C135.726 154.791 135.094 154.975 134.664 155.112C134.263 155.24 133.936 155.39 133.514 155.459C133.18 155.513 132.827 155.674 132.509 155.707C132.291 155.73 132.069 155.766 131.851 155.782C131.685 155.794 131.651 155.924 131.449 155.924C130.847 155.924 130.251 155.995 129.644 155.995C128.809 155.995 127.974 155.995 127.138 155.995C126.568 155.995 125.998 155.995 125.428 155.995C125.166 155.995 124.99 155.735 124.743 155.711C124.358 155.674 124.096 155.435 123.766 155.215C123.391 154.965 122.896 154.876 122.56 154.592C122.119 154.22 121.364 154.282 120.984 153.812C120.852 153.649 120.584 153.518 120.416 153.374C120.248 153.23 120.081 153.074 119.951 152.89C119.711 152.548 119.379 152.316 119.1 152.023C119.038 151.958 119.047 151.854 118.982 151.787C118.845 151.645 118.648 151.521 118.498 151.389C118.224 151.147 117.979 151.134 117.93 150.77C117.9 150.545 117.784 150.35 117.737 150.132C117.677 149.85 117.668 149.555 117.544 149.292C117.37 148.925 116.997 148.305 116.657 148.087C116.454 147.956 116.318 147.597 116.232 147.381C116.145 147.165 116.1 146.926 115.988 146.72C115.888 146.538 115.727 146.389 115.672 146.184C115.569 145.798 115.31 145.464 115.31 145.041C115.31 144.624 115.274 144.179 115.133 143.784C114.982 143.363 115.1 142.955 114.884 142.523C114.597 141.948 114.672 141.169 114.672 140.533" stroke="black" stroke-width="3" stroke-linecap="round"/>
<path d="M114.778 141.184C114.778 142.398 114.744 143.625 114.234 144.746C114.06 145.129 114.025 145.788 114.025 146.205C114.025 146.627 113.821 147.366 113.56 147.698C113.421 147.874 113.037 148.354 113.021 148.567C113.004 148.781 112.782 149.572 112.649 149.72C112.534 149.849 112.459 149.788 112.393 149.971C112.34 150.121 112.288 150.24 112.179 150.357C111.902 150.658 111.54 150.911 111.282 151.227C111.051 151.51 110.617 151.851 110.292 152.026C109.914 152.23 109.552 152.619 109.157 152.738C108.947 152.801 108.763 153.045 108.567 153.068C108.127 153.119 107.671 153.553 107.274 153.737C106.428 154.131 105.486 154.413 104.689 154.909C104.358 155.115 104.023 155.302 103.685 155.495C103.388 155.665 102.851 155.618 102.518 155.658C101.507 155.777 100.461 155.767 99.4493 155.834C98.6822 155.885 97.6677 156.117 96.9154 155.876C96.2132 155.651 95.5214 155.463 94.8045 155.281C92.8387 154.782 91.2778 153.745 89.7135 152.529C88.9826 151.96 88.2806 151.49 87.956 150.553C87.8653 150.291 87.7243 150.12 87.5794 149.888C87.2758 149.402 87.1382 148.849 86.789 148.381C86.2766 147.695 85.6837 147.065 85.3198 146.298C85.169 145.981 84.985 145.313 84.985 144.959C84.985 144.602 84.7441 144.265 84.6503 143.937C84.5351 143.534 84.557 143.117 84.4643 142.709C84.3817 142.346 84.3155 142.058 84.3155 141.686" stroke="black" stroke-width="3" stroke-linecap="round"/>
<path d="M114.74 140.005C114.833 140.11 114.882 140.338 114.877 140.474C114.874 140.544 114.534 140.64 114.841 140.545C115.001 140.496 115.224 140.336 115.381 140.326C115.505 140.318 115.142 140.388 115.022 140.418C114.946 140.437 114.79 140.574 114.74 140.637C114.574 140.843 114.571 140.85 114.5 140.611C114.453 140.451 114.332 140.172 114.475 140.015C114.612 139.864 115.23 140.747 115.437 140.739C115.583 140.733 115.702 140.457 115.702 140.326" stroke="black" stroke-linecap="round"/>
<path d="M115.198 132.809C115.123 132.809 114.95 132.944 114.923 133.017C114.838 133.253 114.877 133.524 114.877 133.771" stroke="black" stroke-width="5" stroke-linecap="round"/>
<path d="M122.397 135.384C122.397 135.456 122.341 135.466 122.338 135.523C122.333 135.613 122.34 135.609 122.283 135.666C122.218 135.731 122.317 135.721 122.357 135.721C122.428 135.721 122.503 135.666 122.556 135.621C122.649 135.541 122.6 135.599 122.576 135.654C122.545 135.724 122.488 135.714 122.427 135.741C122.401 135.752 122.288 135.82 122.348 135.82C122.403 135.82 122.464 135.809 122.496 135.761" stroke="black" stroke-linecap="round"/>
<path d="M122.754 135.483C122.719 135.488 122.704 135.535 122.694 135.563" stroke="black" stroke-linecap="round"/>
<path d="M103.668 128.591C103.668 128.365 103.644 128.137 103.644 127.907C103.644 127.717 103.617 127.605 103.742 127.459" stroke="black" stroke-linecap="round"/>
<path d="M104.579 131.84C104.459 131.611 104.334 131.39 104.235 131.151" stroke="black" stroke-linecap="round"/>
<path d="M104.924 132.923C104.898 132.757 104.809 132.603 104.757 132.445C104.695 132.252 104.638 132.058 104.579 131.865" stroke="black" stroke-linecap="round"/>
<path d="M104.825 132.849C104.866 132.857 104.907 132.889 104.924 132.923" stroke="black" stroke-linecap="round"/>
<path d="M105.466 133.588C105.391 133.504 105.315 133.421 105.25 133.331C105.179 133.232 105.023 133.043 105.023 132.923" stroke="black" stroke-linecap="round"/>
<line y1="-1.5" x2="57.0088" y2="-1.5" transform="matrix(-0.965782 -0.259354 -0.259354 0.965782 195.986 151.459)" stroke="black" stroke-width="3"/>
<line y1="-1.5" x2="57.0088" y2="-1.5" transform="matrix(-0.96579 0.259325 0.259325 0.96579 87.9863 137.673)" stroke="black" stroke-width="3"/>
<line y1="-1.5" x2="57.0088" y2="-1.5" transform="matrix(-0.964764 0.263117 0.263117 0.964764 196.986 112.673)" stroke="black" stroke-width="3"/>
<line y1="-1.5" x2="57.0088" y2="-1.5" transform="matrix(-0.964741 -0.2632 -0.2632 0.964741 86.9863 128.678)" stroke="black" stroke-width="3"/>
<line y1="-1.5" x2="57.0088" y2="-1.5" transform="matrix(-0.999972 0.0074441 0.0074441 0.999972 198.986 132.673)" stroke="black" stroke-width="3"/>
<line y1="-1.5" x2="57.0088" y2="-1.5" transform="matrix(-0.999972 0.0074441 0.0074441 0.999972 86.9863 132.673)" stroke="black" stroke-width="3"/>
</g>
<defs>
<clipPath id="clip0_15_639">
<rect width="218" height="361" fill="white" transform="matrix(-1 0 0 1 218 0)"/>
</clipPath>
</defs>
</svg>
