<svg width="296" height="148" viewBox="0 0 296 148" fill="none" xmlns="http://www.w3.org/2000/svg">
<g clip-path="url(#clip0_15_930)">
<path d="M177.5 180C177.5 229.057 142.409 268.5 99.5 268.5C56.5913 268.5 21.5 229.057 21.5 180C21.5 130.943 56.5913 91.5 99.5 91.5C142.409 91.5 177.5 130.943 177.5 180Z" fill="white" stroke="black" stroke-width="3"/>
<path d="M34.7824 43.3702L35.0898 18.3927L72.6808 21.7928L34.7824 43.3702Z" fill="white" stroke="black" stroke-width="3"/>
<path d="M121.729 19.2938L159.223 15.5257L160.097 40.4875L121.729 19.2938Z" fill="white" stroke="black" stroke-width="3"/>
<path d="M172.5 73.3995C172.5 88.7426 164.406 102.735 151.119 112.94C137.831 123.145 119.409 129.5 99 129.5C78.5909 129.5 60.169 123.145 46.8806 112.94C33.5939 102.735 25.5 88.7426 25.5 73.3995C25.5 58.0563 33.5939 44.0637 46.8806 33.8594C60.169 23.6539 78.5909 17.299 99 17.299C119.409 17.299 137.831 23.6539 151.119 33.8594C164.406 44.0637 172.5 58.0563 172.5 73.3995Z" fill="white" stroke="black" stroke-width="3"/>
<path d="M71.1963 71.302C71.1963 71.2369 71.226 71.1794 71.2735 71.1318C71.3305 71.0748 71.3897 70.9874 71.4232 70.912C71.4626 70.8233 71.5582 70.7447 71.5941 70.6489C71.6349 70.5403 71.7533 70.436 71.8202 70.3409C71.886 70.2474 71.9056 70.095 71.9904 70.0226C72.0665 69.9577 72.1579 69.8125 72.2047 69.724C72.2407 69.656 72.2964 69.5988 72.3276 69.5294C72.3431 69.495 72.3759 69.4652 72.3867 69.4293C72.4148 69.3356 72.4535 69.2435 72.4836 69.1497C72.5028 69.0901 72.5138 69.0324 72.5403 68.9748C72.5894 68.8682 72.6354 68.7601 72.6766 68.6502C72.7207 68.5327 72.7425 68.4072 72.7877 68.2909C72.8025 68.2528 72.8313 68.2227 72.8499 68.1869C72.9058 68.0795 72.956 67.9701 73.0114 67.8623C73.1029 67.6845 73.1456 67.4617 73.273 67.2998C73.4025 67.1353 73.4174 66.919 73.4857 66.7239C73.507 66.663 73.521 66.5969 73.5361 66.5341C73.5573 66.4461 73.6171 66.3769 73.6354 66.2898C73.6481 66.2298 73.6638 66.1878 73.6638 66.126" stroke="black" stroke-linecap="round"/>
<path d="M70.9282 71.1283C71.0331 71.0694 70.9017 70.9797 70.858 70.932C70.7805 70.8474 70.6909 70.8356 70.6474 70.7093C70.5873 70.5349 70.5036 70.356 70.417 70.1937C70.3928 70.1483 70.3503 70.0748 70.3117 70.0424C70.2661 70.004 70.2658 69.9347 70.2174 69.8997C70.183 69.8749 70.1648 69.8106 70.1395 69.7747C70.1069 69.7285 70.0769 69.6838 70.0408 69.6387C69.9751 69.5566 69.8982 69.495 69.8225 69.4193C69.7858 69.3826 69.7136 69.2825 69.7051 69.2317C69.6959 69.1763 69.627 69.1163 69.5855 69.0748C69.429 68.9183 69.4208 68.6841 69.2696 68.5329C69.2065 68.4699 69.1613 68.398 69.093 68.3355C69.0602 68.3054 69.0114 68.3108 68.9976 68.2653C68.9774 68.1986 68.9355 68.137 68.8966 68.0788C68.7801 67.904 68.6422 67.7267 68.5544 67.5413C68.518 67.4645 68.4583 67.4158 68.4107 67.3471C68.3746 67.295 68.3663 67.2429 68.3405 67.187C68.2855 67.0679 68.1622 67.0099 68.12 66.8787C68.0928 66.7942 68.0059 66.688 68.0059 66.6067C68.0059 66.5477 67.9664 66.5024 67.9664 66.4377C67.9664 66.3759 67.9417 66.3417 67.9225 66.2864C67.893 66.2011 67.9094 66.1175 67.8381 66.0461C67.7475 65.9556 67.7102 65.8244 67.6549 65.7072C67.6299 65.6541 67.6347 65.6114 67.6297 65.5558C67.6175 65.4215 67.5544 65.2954 67.5233 65.1653C67.5075 65.0993 67.51 65.0157 67.4881 64.9524C67.4746 64.9132 67.4217 64.888 67.4136 64.8493C67.4049 64.8084 67.3675 64.7742 67.3455 64.7396C67.3232 64.7045 67.3246 64.6576 67.305 64.6223C67.2582 64.5381 67.2556 64.458 67.2556 64.3645C67.2556 64.2875 67.254 64.2112 67.2051 64.1484C67.1441 64.0699 67.1766 63.9115 67.1766 63.816C67.1766 63.6359 67.1596 63.4488 67.1766 63.2697C67.1883 63.1465 67.2438 63.0223 67.2545 62.8945C67.2624 62.7993 67.2788 62.711 67.2753 62.6137C67.2727 62.5393 67.2556 62.4678 67.2556 62.391C67.2556 62.3138 67.2161 62.255 67.2161 62.1837" stroke="black" stroke-linecap="round"/>
<path d="M73.6294 65.9102C73.6294 65.0388 73.7067 64.1763 73.7067 63.3111C73.7067 63.0832 73.7194 62.8514 73.7067 62.6238C73.6957 62.4245 73.6701 62.1248 73.5714 61.9472C73.4673 61.7597 73.5591 61.5555 73.3996 61.3694C73.3346 61.2936 73.3857 61.189 73.3029 61.1181C73.2514 61.0739 73.2149 60.8837 73.174 60.8066C73.0849 60.6382 72.8948 60.3891 72.8948 60.188C72.8948 59.9768 72.7896 59.797 72.7788 59.5866C72.7695 59.404 72.6611 59.3299 72.5468 59.2042C72.1979 58.8204 71.8573 58.4148 71.6103 57.9455C71.4683 57.6757 71.2421 57.4372 71.0862 57.1723C71.0268 57.0713 70.9274 57.0393 70.8929 56.9188C70.8517 56.7746 70.7485 56.6657 70.6352 56.573C70.4821 56.4478 70.4131 56.2247 70.285 56.0682C70.1194 55.8657 69.9849 55.6929 69.8018 55.5098" stroke="black" stroke-linecap="round"/>
<path d="M67.2495 62.1598C67.2495 61.6835 67.0814 61.0583 67.2495 60.5961C67.3243 60.3905 67.4696 60.1818 67.4815 59.956C67.4844 59.9014 67.5341 59.8799 67.5502 59.8314C67.5731 59.7628 67.5475 59.6926 67.5781 59.6252C67.6361 59.4976 67.6209 59.3612 67.6662 59.2343C67.7652 58.9572 67.8101 58.6716 68.0034 58.4353C68.0839 58.337 68.1479 58.2699 68.2075 58.1389C68.2631 58.0165 68.3848 57.83 68.4094 57.7071C68.4523 57.4925 68.5701 57.3305 68.6843 57.1465C68.9209 56.7654 69.0866 56.3393 69.3287 55.9651C69.3556 55.9236 69.3236 55.8637 69.3459 55.8191C69.3717 55.7675 69.4408 55.7625 69.4705 55.7031C69.5108 55.6224 69.5319 55.5604 69.608 55.5098" stroke="black" stroke-linecap="round"/>
<path d="M70.1494 66.1422C70.1494 66.2733 70.249 66.3367 70.2654 66.4515C70.2885 66.6134 70.3014 66.7414 70.3642 66.9004C70.417 67.0338 70.567 67.2325 70.5747 67.3794C70.5838 67.5515 70.6585 67.797 70.7508 67.9421C70.8458 68.0913 70.8385 68.3928 70.8754 68.5693C70.9125 68.7465 70.9227 68.896 70.9227 69.0805" stroke="black" stroke-width="3" stroke-linecap="round"/>
<path d="M70.111 59.9947C70.111 59.8481 70.1325 59.7582 70.0036 59.664C69.9052 59.592 69.8254 59.4689 69.7823 59.3568C69.6992 59.1408 69.8472 58.8524 69.7243 58.6501C69.5948 58.4367 69.6083 58.1688 69.6083 57.9263C69.6083 57.8253 69.6083 57.7244 69.6083 57.6234C69.6083 57.3729 69.5467 58.1625 69.6857 58.3709" stroke="black" stroke-width="3" stroke-linecap="round"/>
<path d="M69.5693 66.5674C69.4354 66.5526 69.336 66.3437 69.2428 66.256C69.03 66.0557 69.064 65.8742 68.9893 65.6223C68.8944 65.302 68.8733 64.9247 68.8733 64.5935C68.8733 64.2636 68.7536 63.9592 68.7208 63.6312C68.6361 62.7838 68.7187 61.8943 68.7187 61.0407C68.7187 60.7435 68.7538 60.4267 68.8648 60.1493C68.9173 60.0181 68.8733 59.7869 68.8733 59.6467" stroke="black" stroke-width="3" stroke-linecap="round"/>
<path d="M71.7737 66.3355C71.8204 66.3296 71.8784 65.6847 71.8875 65.6116C71.9074 65.4526 71.8657 65.9352 71.8124 66.0863C71.7762 66.1888 71.675 66.2389 71.6599 66.3527C71.6456 66.4592 71.6577 66.5739 71.6577 66.6813C71.6577 66.8367 71.6577 66.992 71.6577 67.1474C71.6577 67.2098 71.6577 67.2203 71.6577 67.1474C71.6577 66.9584 71.6577 66.7694 71.6577 66.5803C71.6577 66.4233 71.6669 66.2733 71.6276 66.1207C71.6084 66.0459 71.5459 65.9889 71.5417 65.9102C71.5105 65.3175 71.5175 64.6667 71.3806 64.078C71.3445 63.9226 71.3131 63.7338 71.2281 63.5947C71.201 63.5504 71.235 63.8277 71.241 63.8524C71.3326 64.2298 71.3484 64.5914 71.3484 64.978C71.3484 65.3792 71.3783 65.782 71.4279 66.1787C71.4499 66.3546 71.4644 66.5191 71.4644 66.7006C71.4644 66.8469 71.2433 67.3186 71.3183 66.9369C71.3512 66.7693 71.4649 66.6294 71.4988 66.4686C71.5347 66.2979 71.503 66.0908 71.503 65.9166C71.503 65.6889 71.503 65.4613 71.503 65.2336C71.503 64.9867 71.619 64.7801 71.619 64.5355C71.619 64.3578 71.5804 64.1882 71.5804 64.0157" stroke="black" stroke-width="3" stroke-linecap="round"/>
<path d="M71.8117 64.789C72.0213 64.789 71.9359 64.3246 71.9191 64.1789C71.8916 63.9406 71.7562 63.7568 71.6828 63.5367C71.629 63.3754 71.5972 63.1447 71.5819 62.9761C71.5466 62.5879 71.4457 62.1979 71.3649 61.8119C71.3248 61.62 71.2318 61.425 71.2318 61.2298C71.2318 60.9987 71.1971 60.7606 71.1372 60.5382C71.0968 60.3878 71.0384 60.1648 71.0384 60.0141C71.0384 59.8806 70.8618 59.7116 70.8451 59.5694C70.8411 59.5354 70.7355 59.4021 70.7077 59.3783C70.6198 59.3029 70.6494 59.4876 70.654 59.5329C70.678 59.7732 70.7291 59.9804 70.7291 60.2267" stroke="black" stroke-width="3" stroke-linecap="round"/>
<path d="M71.0391 61.6572C71.1269 61.6767 71.3408 62.1506 71.3484 62.2458C71.3737 62.562 71.546 62.8563 71.5803 63.1651C71.5941 63.2886 71.6481 63.5515 71.7264 63.6376C71.8622 63.787 71.8162 63.6225 71.8123 63.4744C71.8073 63.2835 71.695 63.0149 71.5803 62.8644C71.4609 62.7076 71.5008 62.4915 71.4257 62.3059C71.3927 62.2245 71.3138 61.8848 71.4944 62.0052C71.7288 62.1614 71.8003 62.4861 71.851 62.7398" stroke="black" stroke-width="3" stroke-linecap="round"/>
<path d="M85.0105 71.2091C84.7843 71.2091 84.7317 71.2598 84.5796 71.4118C84.4841 71.5074 84.3618 71.6272 84.2552 71.7084C84.1572 71.783 83.9997 71.7965 83.9156 71.868C83.6926 72.0575 83.4153 72.0275 83.1653 72.1418C82.8779 72.2732 82.5435 72.3387 82.2326 72.3952C82.0745 72.424 81.9464 72.5215 81.7815 72.5321C81.6595 72.54 81.4982 72.5564 81.3835 72.6005C80.8871 72.7915 80.3732 72.89 79.8729 73.0568C79.1033 73.3133 78.3281 73.4902 77.5285 73.4902C76.8676 73.4902 76.2455 73.5814 75.5819 73.5814C74.7099 73.5814 73.8824 73.658 73.0169 73.7157C72.2557 73.7665 71.495 73.7639 70.7307 73.7639C70.408 73.7639 70.0853 73.7639 69.7625 73.7639C69.3032 73.7639 68.9132 73.5408 68.4699 73.4902C68.0241 73.4392 67.5896 73.2012 67.1418 73.1227C66.5773 73.0236 66.0564 72.7545 65.5602 72.4789C65.0342 72.1866 64.5041 71.871 64.0344 71.4929C63.8275 71.3264 63.643 71.067 63.459 70.8694C62.9968 70.373 62.5136 69.9042 61.9966 69.4653C61.6989 69.2125 61.5674 68.8806 61.3224 68.5883C61.1233 68.3508 60.977 68.0873 60.851 67.8051C60.7451 67.5682 60.5819 67.4001 60.4302 67.1943C60.1027 66.7498 59.8516 66.2718 59.5634 65.8003C59.4135 65.555 59.2686 65.3281 59.0996 65.0957C59.0277 64.9968 58.9602 64.8312 58.9602 64.7053C58.9602 64.1037 58.5426 63.5617 58.3874 62.997C58.3009 62.6827 58.2404 62.3609 58.1542 62.0491C58.121 61.9291 58.0474 61.6557 57.9717 61.5523C57.6166 61.0681 57.3272 60.6626 57.1099 60.0873C56.9659 59.7062 56.8476 59.2893 56.7247 58.9012C56.6733 58.7391 56.6054 58.6298 56.565 58.4602C56.5298 58.3125 56.4873 58.1673 56.4509 58.0217C56.3586 57.6522 56.1935 57.3623 56.0251 57.0256C55.9023 56.7798 55.8523 56.5019 55.7666 56.2449" stroke="black" stroke-width="3" stroke-linecap="round"/>
<path d="M84.5632 70.0947C84.5632 69.8971 84.5991 69.655 84.5552 69.4628C84.4761 69.1167 84.305 68.8206 84.199 68.4828C84.0966 68.1565 84.0245 67.8447 83.9113 67.523C83.7234 66.9891 83.6033 66.4321 83.4203 65.8931C83.3982 65.8281 83.3811 65.7612 83.3599 65.6959C83.3071 65.533 83.1577 65.4321 83.1003 65.2733C82.9499 64.8567 82.9054 64.3775 82.8327 63.9412C82.7706 63.5689 82.5026 63.1432 82.3316 62.8123C82.0729 62.3116 81.7766 61.8321 81.5207 61.3293C81.1998 60.6987 80.8303 60.0658 80.424 59.4881C80.2909 59.2987 80.204 59.0845 80.0759 58.8924C80.0204 58.8092 79.9385 58.7805 79.8666 58.7134C79.4262 58.3016 78.9378 57.9073 78.4098 57.6187C78.0455 57.4195 77.6784 57.1853 77.3574 56.9245C77.2782 56.8601 77.2706 56.7925 77.1722 56.7434C77.064 56.6892 76.9332 56.6326 76.8322 56.5683C76.0076 56.0436 75.1901 55.5147 74.4778 54.8418C74.1695 54.5505 73.9577 54.4091 73.5683 54.2643C73.1171 54.0964 72.6887 53.9825 72.2241 53.8598C72.1094 53.8295 72.0128 53.7312 71.8941 53.723C71.7604 53.7137 71.6327 53.6896 71.4997 53.6686C70.8874 53.572 70.2721 53.4941 69.6605 53.397C69.2113 53.3256 68.7674 53.2095 68.3143 53.1636C68.0471 53.1365 67.7738 53.1174 67.5054 53.1092C67.1652 53.0989 66.8524 53.0052 66.5173 52.9704C65.8785 52.9041 65.1297 52.8399 64.497 52.9623C64.2714 53.006 64.0535 53.0839 63.829 53.1273C63.6055 53.1706 63.3899 53.1674 63.1669 53.232C62.6279 53.388 62.0448 53.4123 61.5149 53.5942C61.2104 53.6987 60.9487 53.7959 60.6255 53.8497C60.2249 53.9165 59.7606 53.9775 59.3899 54.1496C59.258 54.2108 59.1333 54.2176 58.9915 54.2381C58.6662 54.2851 58.3586 54.4166 58.0317 54.4675C57.7637 54.5092 57.5271 54.5923 57.2529 54.5923" stroke="black" stroke-width="3" stroke-linecap="round"/>
<path d="M57.627 54.3511C57.1311 54.3511 56.6761 54.5695 56.2446 54.7852C56.0628 54.8761 55.8114 54.832 55.6102 54.832C55.3514 54.832 55.2272 55.0724 54.9824 55.0724" stroke="black" stroke-width="3" stroke-linecap="round"/>
<path d="M111.103 71.1073C111.122 71.2978 111.189 71.5107 111.374 71.6037C111.78 71.8065 112.138 72.0981 112.62 72.1583C112.725 72.1714 112.821 72.2374 112.924 72.264C113.158 72.3248 113.395 72.3675 113.628 72.4367C113.904 72.519 114.187 72.5818 114.45 72.7021C114.778 72.8527 115.144 72.9473 115.484 73.0798C115.646 73.1434 115.832 73.1358 116.001 73.1748C116.428 73.2728 116.844 73.4155 117.275 73.4985C117.872 73.6136 118.504 73.5677 119.094 73.6906C119.259 73.7249 119.405 73.8578 119.571 73.8654C120.188 73.8934 120.767 74.0985 121.392 74.0985C122.683 74.0985 123.974 74.0985 125.264 74.0985C125.599 74.0985 125.936 74.1102 126.27 74.0985C126.438 74.0926 126.595 74.0189 126.758 73.9819C127.205 73.88 127.646 73.8147 128.074 73.6409C128.409 73.5049 128.731 73.3463 129.067 73.205C129.307 73.1039 129.562 73.036 129.8 72.9331C129.925 72.8793 130.011 72.7781 130.146 72.7302C131.12 72.3849 132.019 71.864 132.882 71.2972C133.376 70.9731 133.908 70.5576 134.201 70.039C134.266 69.9241 134.379 69.8443 134.449 69.7304C134.563 69.546 134.661 69.37 134.79 69.1952C134.884 69.0676 134.922 68.9201 135.004 68.7873C135.137 68.5706 135.316 68.3851 135.455 68.1723C135.997 67.339 136.446 66.4405 136.866 65.5393C136.954 65.3505 137.057 65.1215 137.173 64.948C137.354 64.6764 137.466 64.363 137.654 64.0956C137.721 64 137.756 63.9065 137.79 63.7956C137.844 63.6196 137.954 63.4831 138.027 63.3165C138.111 63.1255 138.225 62.937 138.334 62.7554" stroke="black" stroke-width="3" stroke-linecap="round"/>
<path d="M138.489 62.25C138.565 61.9934 138.68 61.769 138.693 61.4922C138.703 61.2723 138.745 61.0418 138.831 60.8388C138.937 60.5894 138.981 60.3225 139.05 60.0614C139.146 59.6944 139.251 59.3303 139.34 58.9614C139.455 58.4859 139.552 58.0138 139.677 57.542C139.743 57.2928 139.835 57.0386 139.959 56.8136C140.002 56.736 140.088 56.6051 140.101 56.5187C140.116 56.4227 140.161 56.3079 140.161 56.2074" stroke="black" stroke-width="3" stroke-linecap="round"/>
<path d="M110.979 71.2431C110.979 70.5842 111.193 70.0266 111.45 69.4178C111.54 69.2059 111.557 68.9952 111.593 68.7695C111.625 68.5676 111.746 68.4216 111.837 68.2464C111.899 68.127 111.925 67.9025 112.025 67.8171C112.134 67.7238 112.085 67.5205 112.167 67.4162C112.468 67.0329 112.603 66.6437 112.77 66.1765C113 65.5311 113.41 64.9542 113.64 64.3114C113.993 63.3226 114.441 62.4006 114.851 61.4341C115.024 61.0251 115.141 60.6221 115.357 60.2286C115.564 59.8516 115.772 59.5152 116.005 59.1538C116.234 58.7989 116.516 58.4544 116.773 58.1189C116.897 57.9562 117.016 57.7821 117.148 57.6271C117.358 57.38 117.606 57.1711 117.814 56.9248C118.178 56.493 118.588 56.1141 119.104 55.8387C119.315 55.7263 119.539 55.6282 119.727 55.4776C119.895 55.3433 120.069 55.3298 120.242 55.2132C120.625 54.9544 121.04 54.801 121.436 54.5706C121.678 54.4297 121.972 54.3782 122.209 54.2294C122.572 54.0017 123.002 53.8625 123.426 53.7404C123.911 53.6007 124.379 53.3071 124.899 53.2798C125.83 53.2308 126.771 53.1474 127.702 53.1263C127.968 53.1202 128.236 53.0315 128.504 53.0239C129.138 53.0061 129.766 52.9727 130.403 52.9727C130.849 52.9727 131.295 52.9216 131.745 52.9216C132.315 52.9216 132.817 53.2465 133.383 53.2798C133.778 53.3031 134.221 53.5251 134.611 53.6125C134.872 53.671 135.132 53.8335 135.402 53.8428C135.607 53.8499 135.826 53.8797 136.027 53.9224C136.213 53.9618 136.457 54.0863 136.63 54.0987C136.986 54.1241 137.27 54.215 137.605 54.3489C137.748 54.4059 137.898 54.5 138.051 54.5081C138.466 54.5299 138.807 55.0901 139.24 55.1222C139.431 55.1364 139.684 55.3171 139.78 55.4804C139.877 55.646 140.048 55.7204 140.15 55.8899" stroke="black" stroke-width="3" stroke-linecap="round"/>
<path d="M124.746 71.5654C124.746 71.4855 124.818 71.3958 124.848 71.3227C124.903 71.1887 124.962 71.0468 125.062 70.9417C125.169 70.8289 125.235 70.6925 125.365 70.5958C125.481 70.5092 125.584 70.419 125.692 70.3212C125.827 70.1986 125.951 70.0582 126.093 69.9443C126.224 69.8383 126.343 69.6437 126.428 69.5003C126.483 69.4086 126.527 69.3102 126.59 69.2236C126.659 69.1297 126.684 69.0203 126.764 68.9345C126.887 68.8011 126.988 68.6267 127.098 68.4802C127.209 68.3327 127.322 68.1795 127.412 68.0166C127.497 67.8629 127.585 67.6973 127.691 67.5571C127.831 67.3725 128.042 67.1552 128.093 66.9283C128.121 66.8013 128.22 66.6647 128.277 66.5473C128.349 66.3995 128.422 66.2654 128.475 66.1085C128.526 65.9538 128.581 65.8032 128.626 65.6449C128.663 65.5193 128.73 65.4085 128.761 65.2845C128.808 65.0962 128.918 64.9331 128.965 64.7445" stroke="black" stroke-linecap="round"/>
<path d="M124.691 71.3981C124.691 71.3259 124.667 71.3088 124.635 71.2494C124.551 71.0961 124.488 70.9257 124.416 70.7662C124.367 70.6586 124.344 70.5391 124.292 70.4316C124.243 70.3304 124.213 70.2019 124.152 70.1095C124.113 70.0516 124.034 69.9417 123.98 69.903C123.925 69.8631 123.809 69.7514 123.784 69.6841C123.739 69.5639 123.654 69.4794 123.598 69.3619C123.522 69.2009 123.487 69.0233 123.417 68.8601C123.332 68.6613 123.315 68.4414 123.213 68.2478C123.148 68.1244 123.136 67.9744 123.074 67.8503C122.998 67.6997 122.922 67.5555 122.834 67.4115C122.759 67.2888 122.767 67.1144 122.738 66.9778C122.715 66.8686 122.644 66.7855 122.6 66.6877C122.557 66.5937 122.523 66.5036 122.48 66.41C122.436 66.3141 122.387 66.2214 122.349 66.1208C122.328 66.0664 122.274 65.9916 122.274 65.934" stroke="black" stroke-linecap="round"/>
<path d="M122.339 66.2319C122.325 66.1185 122.199 66.0589 122.193 65.9408C122.189 65.8563 122.193 65.7707 122.193 65.686C122.193 65.434 122.193 65.1819 122.193 64.9299C122.193 64.7452 122.193 64.5606 122.193 64.3759C122.193 64.0279 122.128 63.624 122.211 63.2902C122.265 63.0776 122.266 62.7934 122.266 62.5745C122.266 62.4759 122.339 62.4006 122.339 62.3178C122.339 62.1849 122.369 62.0106 122.403 61.8811C122.454 61.6906 122.521 61.4409 122.521 61.2462C122.521 61.1345 122.657 61.1072 122.666 60.9834C122.671 60.9142 122.705 60.8927 122.739 60.8378C122.799 60.7413 122.801 60.6246 122.832 60.5184C122.898 60.2938 123.103 60.0344 123.103 59.8047C123.103 59.673 123.197 59.5972 123.249 59.4812C123.291 59.3861 123.384 59.2351 123.449 59.1557C123.53 59.0561 123.536 58.9788 123.596 58.8646C123.66 58.7438 123.814 58.6169 123.829 58.4804C123.861 58.1891 124.146 58.0208 124.304 57.7971C124.411 57.6455 124.689 57.4318 124.704 57.2593C124.709 57.2035 124.816 57.0785 124.858 57.0328C124.946 56.9381 125 56.8311 125.096 56.7538C125.174 56.6922 125.183 56.5508 125.268 56.4748C125.331 56.4187 125.421 56.3059 125.434 56.2261C125.441 56.183 125.561 56.1389 125.6 56.1129C125.807 55.9749 126.086 55.8617 126.196 55.6418" stroke="black" stroke-linecap="round"/>
<path d="M128.999 64.7399C128.999 64.4201 128.998 64.1013 129.033 63.7896C129.075 63.4085 128.926 63.053 128.926 62.6857C128.926 62.3077 128.926 61.9296 128.926 61.5515C128.926 61.339 128.931 61.1474 128.861 60.947C128.792 60.747 128.815 60.554 128.762 60.3546C128.704 60.1355 128.66 59.8998 128.631 59.6773C128.602 59.4637 128.549 59.1777 128.471 58.9758C128.426 58.8586 128.432 58.7279 128.38 58.6098C128.326 58.4878 128.373 58.3491 128.307 58.2338C128.259 58.1487 128.217 58.0474 128.196 57.9527C128.157 57.7788 127.929 57.6736 127.862 57.5059C127.837 57.4414 127.767 57.3488 127.725 57.2876C127.7 57.2519 127.605 57.0665 127.595 57.0611C127.426 56.9642 127.363 56.6495 127.252 56.5031C127.144 56.361 126.983 56.2424 126.886 56.0967C126.827 56.008 126.759 55.8806 126.684 55.8056C126.621 55.7431 126.484 55.7084 126.451 55.6418" stroke="black" stroke-linecap="round"/>
<path d="M124.632 68.0151C124.632 67.2672 124.65 66.5247 124.697 65.779C124.728 65.2845 124.741 64.7827 124.741 64.287C124.741 64.1825 124.676 63.9028 124.814 63.9028" stroke="black" stroke-width="3" stroke-linecap="round"/>
<path d="M124.559 66.4503C124.176 66.4155 123.948 65.8754 123.851 65.5425C123.739 65.1587 123.831 64.6499 123.831 64.2506C123.831 63.8761 123.794 63.5062 123.794 63.1305C123.794 62.7333 123.777 62.3318 123.867 61.9417C123.92 61.7155 124.01 61.5172 124.049 61.2826" stroke="black" stroke-width="3" stroke-linecap="round"/>
<path d="M125.869 68.2699C125.869 67.8868 125.86 67.5623 125.995 67.1963C126.018 67.1325 126.037 67.047 126.049 66.98C126.07 66.8635 126.15 66.7922 126.205 66.6888C126.346 66.423 126.44 66.0747 126.452 65.7709C126.474 65.2065 126.786 64.7486 126.813 64.1899C126.852 63.4184 126.815 62.6368 126.815 61.8649" stroke="black" stroke-width="3" stroke-linecap="round"/>
<path d="M127.07 65.213C127.07 64.661 127.142 64.1417 127.142 63.5895C127.142 62.6796 127.028 61.7759 126.742 60.9187" stroke="black" stroke-width="3" stroke-linecap="round"/>
<path d="M126.124 62.9931C125.985 62.8185 126.013 62.5082 125.96 62.2996C125.887 62.0054 125.852 61.7032 125.801 61.41C125.736 61.0371 125.836 60.6475 125.76 60.2717C125.741 60.1787 125.645 59.6767 125.732 59.5803C125.841 59.4593 125.906 59.1818 125.906 59.0081C125.906 58.8317 126.015 58.6843 126.015 58.5027C126.015 58.1881 126.197 57.9438 126.197 57.6434" stroke="black" stroke-width="3" stroke-linecap="round"/>
<path d="M126.27 58.3712C126.27 58.7487 126.268 59.0938 126.342 59.463C126.366 59.5784 126.381 59.717 126.423 59.8269C126.471 59.9533 126.578 60.1136 126.595 60.2434C126.629 60.5018 126.669 60.7561 126.724 61.0096C126.75 61.1259 126.751 61.2462 126.799 61.3574C126.86 61.497 126.864 61.386 126.961 61.3918C127.051 61.3971 127.07 61.9521 127.07 61.7638C127.07 61.312 127.107 60.87 127.107 60.4173C127.107 60.2707 127.127 60.1015 127.105 59.9543C127.093 59.878 127.034 59.8122 127.034 59.7359C127.034 59.6498 126.948 59.5775 126.925 59.4953C126.89 59.3747 126.85 59.2561 126.815 59.1354" stroke="black" stroke-width="3" stroke-linecap="round"/>
<path d="M125.068 61.0278C125.068 60.7568 125.029 60.5267 124.951 60.2717C124.901 60.1096 124.884 59.8308 124.977 59.6813C125.051 59.5629 125.017 59.3758 125.104 59.2446" stroke="black" stroke-width="3" stroke-linecap="round"/>
<path d="M124.778 70.1623C124.739 70.5121 124.741 69.4589 124.741 69.1069" stroke="black" stroke-linecap="round"/>
<path d="M140.091 55.3582C140.006 55.3475 140.082 55.3059 140.13 55.3078C140.224 55.3114 140.273 55.4087 140.369 55.4087C140.506 55.4087 140.647 55.4591 140.797 55.4591" stroke="black" stroke-width="3" stroke-linecap="round"/>
<path d="M124.704 68.7066C124.852 68.7066 124.813 68.3481 124.813 68.6702" stroke="black" stroke-width="3" stroke-linecap="round"/>
<path d="M99.0381 101.774C99.0381 101.476 99.1798 101.285 99.3894 101.083C99.5648 100.914 99.6907 100.927 99.9182 100.927C100.192 100.927 100.411 100.921 100.668 100.797C100.869 100.699 101.058 100.641 101.255 100.521C101.334 100.473 101.547 100.392 101.581 100.308C101.64 100.16 101.838 100.083 101.937 99.9672C102.033 99.8552 102.182 99.788 102.305 99.6956C102.364 99.651 102.5 99.5856 102.576 99.5579C102.754 99.4933 102.915 99.2521 103.047 99.1197C103.236 98.9306 103.412 98.7398 103.618 98.5656C103.782 98.4269 104.032 98.403 104.204 98.2686C104.352 98.1535 104.449 97.9678 104.597 97.8467C104.67 97.787 104.769 97.749 104.815 97.6674C104.883 97.5438 105.094 97.5331 105.181 97.4229C105.291 97.2824 105.493 97.1726 105.655 97.0734C105.686 97.0547 105.837 96.9313 105.851 96.9014C105.877 96.8426 105.972 96.7903 106.013 96.7294C106.061 96.6589 106.138 96.598 106.193 96.5248C106.244 96.4568 106.291 96.3506 106.356 96.2984C106.499 96.1837 106.627 96.1118 106.794 96.0177C106.889 95.9645 107.007 95.8215 107.089 95.7443C107.149 95.6878 107.261 95.5865 107.285 95.5161" stroke="black" stroke-linecap="round"/>
<path d="M107.44 95.2407C107.515 95.236 107.553 95.0721 107.557 95.0066C107.566 94.835 107.614 94.688 107.687 94.5384C107.748 94.4134 107.833 94.0767 107.973 94.0182C108.061 93.9815 108.11 93.7976 108.199 93.7477C108.303 93.6903 108.341 93.5636 108.423 93.4719C108.488 93.3999 108.523 93.2786 108.569 93.191C108.631 93.0731 108.679 92.9681 108.725 92.8425C108.757 92.7534 108.778 92.6535 108.799 92.5603C108.82 92.464 108.921 92.3775 108.939 92.2689C108.973 92.0662 109.024 91.8448 109.08 91.6486C109.092 91.6075 109.123 91.6067 109.125 91.5471C109.128 91.4711 109.172 91.4086 109.172 91.3326C109.172 91.1875 109.159 91.0512 109.216 90.9216C109.258 90.8276 109.192 90.6932 109.231 90.5939C109.356 90.2678 109.289 89.845 109.289 89.5001C109.289 89.416 109.289 89.3319 109.289 89.2478C109.289 89.1653 109.246 89.0798 109.242 88.9955C109.234 88.7803 109.219 88.5644 109.219 88.3452C109.219 88.222 109.233 88.1253 109.149 88.0305C109.084 87.9578 109.108 87.8277 109.05 87.7548C109.028 87.727 109.032 87.7043 109.032 87.6676C109.032 87.6298 108.98 87.5861 108.961 87.5493C108.908 87.4426 108.849 87.3976 108.82 87.2671C108.775 87.0661 108.676 86.8814 108.634 86.6779C108.621 86.6178 108.601 86.4573 108.551 86.4139C108.458 86.3347 108.369 86.2424 108.26 86.172C108.074 86.0508 107.919 85.8741 107.756 85.7207C107.675 85.645 107.635 85.5438 107.557 85.4658C107.515 85.4234 107.454 85.3998 107.406 85.3631C107.247 85.2417 107.065 85.0866 106.961 84.917C106.892 84.8036 106.787 84.7631 106.667 84.7167C106.593 84.6877 106.527 84.6576 106.449 84.6309C106.374 84.6051 106.167 84.5948 106.129 84.519" stroke="black" stroke-linecap="round"/>
<path d="M98.8105 86.3614C98.8105 86.2814 98.8615 86.2064 98.8952 86.1372C98.9233 86.0795 98.9278 86.0094 98.9665 85.9585C98.9968 85.9187 99.0228 85.8824 99.0504 85.8426C99.1304 85.7269 99.2378 85.6229 99.3278 85.5149C99.3949 85.4345 99.4772 85.3555 99.5582 85.2892C99.5961 85.2582 99.6398 85.2421 99.6742 85.2077C99.7215 85.1605 99.7774 85.1416 99.8302 85.1027C99.9474 85.0163 100.084 84.9514 100.207 84.8739C100.402 84.7513 100.58 84.5969 100.77 84.4663C101.041 84.2801 101.365 84.1677 101.66 84.04C101.696 84.0246 101.745 84.0345 101.782 84.0329C101.864 84.0294 101.944 84.0098 102.025 84.0063C102.118 84.0023 102.204 84.0066 102.295 83.9914C102.648 83.9319 103.009 83.9205 103.361 83.8534C103.529 83.8215 103.721 83.8503 103.892 83.8503C104.147 83.8503 104.402 83.8503 104.657 83.8503C104.781 83.8503 104.903 83.8449 105.025 83.8715C105.136 83.8956 105.254 83.8938 105.352 83.9584C105.552 84.0912 105.787 84.1506 105.996 84.2672C106.066 84.3065 106.13 84.3325 106.191 84.3879C106.299 84.4873 106.377 84.625 106.488 84.7171C106.529 84.7509 106.547 84.7783 106.591 84.8025C106.629 84.8237 106.67 84.8383 106.711 84.8519" stroke="black" stroke-linecap="round"/>
<path d="M98.3921 86.6247C98.4531 86.5333 98.0806 86.3126 97.9849 86.2832C97.8903 86.2541 97.8217 86.1172 97.7412 86.0584C97.6696 86.0061 97.6388 85.9349 97.5733 85.876C97.4502 85.7651 97.244 85.6869 97.1033 85.5884C96.9552 85.4847 96.8234 85.3893 96.6844 85.279C96.5941 85.2073 96.5242 85.1163 96.4465 85.0338C96.2875 84.8648 96.095 84.7296 95.9137 84.5871C95.8557 84.5415 95.7641 84.5137 95.6977 84.4835C95.6582 84.4655 95.6171 84.472 95.5751 84.4704C95.5061 84.4677 95.5222 84.4246 95.4759 84.3974C95.2983 84.293 95.0896 84.2864 94.8862 84.2864C94.6954 84.2864 94.5662 84.1366 94.387 84.104C94.1715 84.0648 93.9649 83.9696 93.7389 83.9507C93.3384 83.9174 92.932 83.9712 92.5333 83.9712C92.4199 83.9712 92.3066 83.9712 92.1932 83.9712C92.136 83.9712 91.953 83.9436 91.9042 83.9843C91.861 84.0203 91.7717 84.0073 91.7188 84.0296C91.6559 84.0561 91.5557 84.1439 91.4926 84.1536C91.3256 84.1793 91.1511 84.1219 91.0036 84.2222C90.9174 84.2809 90.7974 84.3337 90.7 84.3711C90.5962 84.4111 90.5542 84.5024 90.4723 84.5492C90.3738 84.6055 90.2819 84.6958 90.195 84.774C90.1689 84.7975 90.1206 84.7836 90.0885 84.8017C89.9988 84.8521 89.9059 84.8925 89.8155 84.9418C89.7401 84.9829 89.6524 85.0274 89.5747 85.0513C89.4602 85.0865 89.3714 85.2208 89.2696 85.2848C89.1386 85.3673 89.0633 85.471 88.9456 85.568C88.7858 85.6996 88.7235 85.895 88.5004 85.9942C88.3121 86.0779 88.3011 86.3187 88.2114 86.4802C88.1608 86.5714 88.0783 86.6409 88.0144 86.724C87.9884 86.7578 87.9336 86.7526 87.9151 86.794C87.8914 86.8474 87.9093 86.8651 87.8684 86.9137C87.7731 87.0269 87.8103 87.2051 87.7254 87.3399C87.6631 87.4389 87.5841 87.5497 87.5663 87.6654C87.5604 87.7035 87.4952 87.9219 87.4743 87.9398C87.3407 88.0544 87.3851 88.3051 87.2933 88.4492C87.2563 88.5074 87.2548 88.6807 87.2525 88.747C87.2483 88.8644 87.2314 88.986 87.1999 89.1002C87.072 89.564 87.0686 90.0497 87.0686 90.5306C87.0686 90.6549 87.0202 90.8315 86.9839 90.9539C86.9575 91.043 86.9635 91.1308 86.9635 91.2239C86.9635 91.3636 86.9635 91.5032 86.9635 91.6428C86.9635 91.8217 86.9912 91.9584 87.0364 92.1303C87.0975 92.3624 87.0752 92.6255 87.1211 92.8631C87.1688 93.1101 87.1709 93.4425 87.3459 93.6425C87.3838 93.6858 87.3687 93.7468 87.4101 93.7841C87.4619 93.8307 87.4822 93.9055 87.5035 93.9694C87.5982 94.2535 87.769 94.4959 87.8699 94.7751C87.9263 94.9313 87.9667 95.1636 88.0932 95.2831C88.1765 95.3617 88.3231 95.4529 88.4231 95.5108C88.544 95.5808 88.6718 95.6967 88.7836 95.7852C89.0376 95.9862 89.2281 96.2299 89.436 96.4756C89.4772 96.5242 89.5128 96.5838 89.563 96.6215C89.6977 96.7225 89.8054 96.8422 89.9177 96.9675C90.0661 97.133 90.1724 97.1096 90.3001 96.9499" stroke="black" stroke-linecap="round"/>
<path d="M90.0898 96.6609C90.0898 96.8384 90.3372 97.0021 90.4839 97.0871C90.7011 97.2128 90.8806 97.3959 91.094 97.5221C91.489 97.7554 91.7525 98.1396 92.0749 98.462C92.1588 98.546 92.33 98.7626 92.4486 98.789C92.5074 98.8021 92.6106 98.8649 92.65 98.9116C92.7727 99.0569 92.9038 99.0996 93.0324 99.221C93.1278 99.3111 93.2572 99.3622 93.3593 99.4458C93.5489 99.6009 93.7567 99.7372 93.9403 99.907C93.9869 99.9502 94.0716 100.028 94.1256 100.052C94.2859 100.121 94.438 100.282 94.5445 100.418C94.6061 100.496 94.7211 100.569 94.8 100.63C94.8758 100.687 95.003 100.779 95.0934 100.812C95.2157 100.856 95.3151 100.989 95.4174 101.067C95.6084 101.214 95.7996 101.406 96.0231 101.502C96.1112 101.541 96.1595 101.577 96.2421 101.626C96.3143 101.67 96.4011 101.692 96.4683 101.743C96.5087 101.774 96.5375 101.825 96.5909 101.835C96.7716 101.868 96.8401 102.054 96.9894 102.139C97.1797 102.246 97.3547 102.354 97.5513 102.453C97.7318 102.543 97.9129 102.655 98.106 102.742C98.248 102.805 98.3969 102.775 98.5482 102.785C98.6914 102.795 98.78 102.888 98.9175 102.888" stroke="black" stroke-linecap="round"/>
<path d="M105.407 97.344C105.31 97.3803 105.183 97.4796 105.132 97.5804C105.102 97.6408 105.044 97.6685 105.013 97.7235C105 97.7454 104.967 97.7372 104.947 97.7527C104.912 97.78 104.921 97.8153 104.896 97.8432C104.824 97.9222 104.713 98.0692 104.613 98.1117C104.535 98.1448 104.498 98.1695 104.448 98.2358C104.343 98.3762 104.164 98.4868 104.027 98.5934C103.91 98.685 103.703 98.8056 103.626 98.932C103.584 99.0007 103.504 99.0229 103.463 99.0838C103.396 99.1812 103.325 99.1958 103.242 99.2853C103.21 99.3203 103.192 99.3087 103.149 99.3159C103.115 99.3215 103.093 99.3705 103.069 99.3918C102.999 99.4516 102.886 99.4618 102.812 99.5305C102.715 99.6204 102.592 99.6639 102.496 99.7407C102.335 99.8695 102.144 99.9705 101.984 100.103C101.901 100.171 101.826 100.305 101.758 100.389C101.725 100.428 101.666 100.545 101.624 100.57C101.567 100.603 101.558 100.638 101.513 100.675C101.434 100.739 101.294 100.77 101.205 100.837C101.148 100.879 101.111 100.923 101.06 100.97C100.989 101.034 100.902 101.066 100.821 101.113C100.776 101.139 100.776 101.206 100.717 101.206C100.669 101.206 100.563 101.305 100.522 101.336C100.459 101.383 100.374 101.386 100.31 101.422C100.23 101.467 100.166 101.583 100.073 101.632C99.9927 101.675 99.9526 101.723 99.8764 101.772C99.8023 101.82 99.72 101.93 99.637 101.943C99.5358 101.959 99.4807 102.031 99.4166 102.099C99.3588 102.161 99.247 102.2 99.2064 102.272C99.1617 102.35 99.0249 102.384 98.951 102.426C98.8778 102.468 98.8319 102.536 98.7598 102.572" stroke="black" stroke-linecap="round"/>
<path d="M98.38 99.0855C98.2089 99.0855 97.8811 98.5407 97.7484 98.4081C97.6436 98.3032 97.5668 98.1956 97.4811 98.0745C97.3148 97.8398 97.0204 97.6577 96.8011 97.471C96.5165 97.2285 96.2785 97.0167 95.9964 96.7783C95.532 96.3859 94.9047 96.208 94.4303 95.8284C94.2545 95.6878 94.0036 95.605 93.7962 95.5203C93.458 95.3822 93.0493 95.1678 92.7673 94.9371C92.465 94.6897 92.1835 94.4199 91.876 94.1808C91.6967 94.0413 91.4033 93.7224 91.1605 93.7224C90.9532 93.7224 90.7407 93.6064 90.5773 93.4932C90.4064 93.3749 90.2585 93.2798 90.1291 93.1163C89.9451 92.8839 89.6487 92.8279 89.5128 92.5561C89.3246 92.1796 89.3607 91.7066 89.2938 91.2981C89.2416 90.9792 89.2582 90.6554 89.2582 90.3329C89.2582 89.8628 89.1705 89.3135 89.3728 88.8865C89.4695 88.6822 89.6364 88.519 89.7344 88.3339C89.8343 88.1452 89.9985 88.067 90.0833 87.8551" stroke="black" stroke-width="5" stroke-linecap="round"/>
<path d="M91.5967 91.2013C91.6098 91.0564 91.6926 90.8452 91.8259 90.7785C91.9817 90.7006 92.1465 90.7695 92.2919 90.8422C92.6874 91.0399 93.0942 91.2272 93.4811 91.4406C93.8497 91.644 94.2147 91.8178 94.5965 91.9932C95.1159 92.2319 95.5153 92.6131 95.9717 92.9482C96.2282 93.1366 96.5472 93.3739 96.5472 93.7224" stroke="black" stroke-width="5" stroke-linecap="round"/>
<path d="M98.3347 99.4522C98.2248 99.3301 98.1629 99.1267 98.0903 98.9836C98.0389 98.8823 97.6531 97.9446 97.4816 97.9446C97.3399 97.9446 97.1357 97.9855 97.0156 98.0567C96.8989 98.1258 96.7309 98.0427 96.6107 98.0337C96.1372 97.9987 95.8468 97.7944 95.5182 97.4659C95.4151 97.3627 95.2102 97.2668 95.0802 97.1959C94.8985 97.0968 94.7277 96.976 94.5531 96.8649C94.2255 96.6564 93.8515 96.4663 93.5675 96.1977C93.2212 95.8701 92.7663 95.6767 92.3961 95.3828C92.2448 95.2626 91.9826 95.0878 91.8715 94.9244C91.8317 94.8658 91.7611 94.6687 91.706 94.6443C91.6014 94.5977 91.5011 94.5821 91.459 94.4558" stroke="black" stroke-width="5" stroke-linecap="round"/>
<path d="M96.4092 98.673C96.4753 98.6978 96.5386 98.8625 96.6384 98.9124C96.7326 98.9595 96.757 98.9938 96.8676 98.9938" stroke="black" stroke-width="5" stroke-linecap="round"/>
<path d="M99.3888 99.223C99.3052 99.0651 99.2372 98.9379 99.3888 98.8079C99.4519 98.7539 99.5661 98.7118 99.6129 98.6475C99.6611 98.5812 99.6739 98.4948 99.7555 98.4539C99.9804 98.3415 100.218 98.2455 100.443 98.1203C100.61 98.0278 100.796 97.8057 100.937 97.6747C101.057 97.5642 101.208 97.4779 101.317 97.3589C101.5 97.1571 101.754 97.0763 101.946 96.8598C102.22 96.5509 102.588 96.3391 102.873 96.0551C103.251 95.6766 103.821 95.3744 104.09 94.8913C104.326 94.4658 104.772 94.2264 105.108 93.8956C105.193 93.8121 105.289 93.5942 105.376 93.5365C105.774 93.2709 105.863 92.694 106.056 92.281C106.27 91.8219 106.54 91.305 106.54 90.7888" stroke="black" stroke-width="5" stroke-linecap="round"/>
<path d="M106.493 89.9179C106.493 89.6753 106.566 89.5057 106.483 89.2659C106.41 89.0564 106.235 88.5041 106.012 88.4052C105.897 88.3541 105.807 88.1517 105.714 88.0589C105.569 87.9138 105.427 87.7666 105.278 87.6259C105.17 87.5234 105.045 87.3709 104.96 87.249C104.907 87.1729 104.765 86.993 104.685 86.9485C104.464 86.8255 104.33 86.7092 104.054 86.7092C103.795 86.7092 103.576 86.5717 103.305 86.5717C103.062 86.5717 102.819 86.5717 102.577 86.5717C102.46 86.5717 102.289 86.7787 102.184 86.8365C102.071 86.899 102.047 86.9997 102.047 87.1217" stroke="black" stroke-width="5" stroke-linecap="round"/>
<path d="M106.448 88.1301C106.32 88.0153 106.064 88.0111 105.898 87.9926C105.715 87.9723 105.6 87.8551 105.394 87.8551" stroke="black" stroke-width="5" stroke-linecap="round"/>
<path d="M103.56 89.7803C103.537 90.2059 103.217 90.493 102.88 90.7021C101.843 91.3476 100.945 92.0067 100.229 93.0272C99.934 93.4481 99.6857 93.8999 99.5062 94.3819C99.4284 94.5906 99.3652 94.8082 99.2617 95.0058C99.0346 95.4393 99.0681 94.9841 99.0681 94.7308" stroke="black" stroke-width="5" stroke-linecap="round"/>
<path d="M99.3425 92.6681C98.8378 92.6681 98.3288 92.6872 97.8248 92.6579C97.4489 92.6361 97.3617 92.5831 97.127 92.3319C96.6537 91.8256 96.3521 91.2936 95.7366 90.9211C95.4703 90.76 95.3179 90.6421 95.0184 90.5391C94.4742 90.3521 93.9133 90.1425 93.4701 89.765C93.2294 89.56 93.0374 89.2867 92.8335 89.0469C92.6673 88.8513 92.6435 88.4427 92.5483 88.2065C92.4411 87.9407 92.4012 87.6277 92.2834 87.3712C92.2303 87.2557 92.1961 87.0829 92.1357 86.9841C92.1056 86.9348 91.8767 86.86 92.044 86.8466C92.1355 86.8393 92.212 86.8008 92.3089 86.8008C92.4244 86.8008 92.6151 86.766 92.7189 86.8237C92.8255 86.883 92.9437 86.8976 93.0576 86.9383C93.1642 86.9764 93.2701 87.0925 93.3632 87.1191C93.539 87.1694 93.6407 87.3453 93.8241 87.4018C94.1168 87.4918 94.3723 87.694 94.6008 87.8602C94.7677 87.9815 94.9526 88.0744 95.1127 88.2039C95.2909 88.3482 95.5409 88.4081 95.7009 88.5681C96.0835 88.9507 96.6836 89.0855 97.1245 89.3906C97.2703 89.4916 97.3765 89.6192 97.509 89.737C97.6718 89.8817 97.8779 89.978 98.0616 90.096C98.6146 90.4515 99.4107 90.4314 100.03 90.4678" stroke="black" stroke-width="5" stroke-linecap="round"/>
<path d="M93.7969 85.9757C94.1284 85.9757 94.1554 86.2437 94.3953 86.4086C94.5931 86.5446 94.8186 86.6221 95.009 86.7779C95.2171 86.9481 95.3358 87.1988 95.5235 87.3865C95.9772 87.8403 96.4482 87.9942 97.003 88.2676C97.412 88.4692 97.8838 88.5532 98.3094 88.7235C98.6375 88.8547 98.9636 88.9356 99.2975 89.0469" stroke="black" stroke-width="5" stroke-linecap="round"/>
<path d="M100.581 87.5801C100.581 87.5246 100.398 87.4657 100.352 87.3967" stroke="black" stroke-width="5" stroke-linecap="round"/>
<path d="M68.4521 103.42C68.4521 103.689 68.5594 104.03 68.6964 104.255C68.9142 104.614 68.9049 105.042 69.0195 105.453C69.1405 105.887 69.2041 106.34 69.3347 106.769C69.38 106.918 69.4997 107.093 69.516 107.234C69.5708 107.709 69.8491 108.13 69.8706 108.613C69.8939 109.137 70.2035 109.603 70.3513 110.087C70.454 110.423 70.5365 110.755 70.6665 111.08C70.8406 111.515 70.9294 112.028 71.2733 112.372C71.5979 112.697 72.0386 112.895 72.4514 113.093C72.6503 113.189 72.8954 113.257 73.0779 113.381C73.3004 113.532 73.6019 113.613 73.799 113.775C73.9692 113.915 74.1658 113.951 74.3388 114.074C74.5521 114.227 74.7437 114.407 75.0007 114.48C75.3294 114.574 75.5699 115.002 75.903 115.126C76.2348 115.251 76.6927 115.554 76.9314 115.792C77.2562 116.117 77.8885 116.302 78.3184 116.439C78.7197 116.566 79.0466 116.717 79.4689 116.785C79.802 116.839 80.1553 117 80.4736 117.033C80.6916 117.056 80.9137 117.093 81.1316 117.108C81.2973 117.12 81.3318 117.25 81.5335 117.25C82.1357 117.25 82.7317 117.321 83.3381 117.321C84.1735 117.321 85.0088 117.321 85.8441 117.321C86.4141 117.321 86.9841 117.321 87.5541 117.321C87.8161 117.321 87.9921 117.061 88.2397 117.037C88.6245 117.001 88.8862 116.761 89.2169 116.541C89.5919 116.291 90.0864 116.202 90.4226 115.918C90.863 115.547 91.6187 115.609 91.9986 115.138C92.1303 114.975 92.3987 114.844 92.566 114.701C92.7341 114.557 92.9016 114.4 93.031 114.216C93.2712 113.875 93.6034 113.643 93.8821 113.349C93.944 113.284 93.935 113.181 94.0003 113.113C94.1369 112.971 94.3347 112.848 94.4849 112.715C94.7586 112.474 95.0038 112.46 95.0523 112.096C95.0823 111.871 95.1987 111.676 95.2454 111.458C95.3057 111.177 95.3142 110.881 95.4384 110.619C95.6123 110.252 95.985 109.632 96.325 109.413C96.5284 109.282 96.6643 108.923 96.7505 108.708C96.8373 108.491 96.8824 108.252 96.9948 108.046C97.094 107.864 97.2553 107.715 97.31 107.51C97.413 107.124 97.6725 106.791 97.6725 106.367C97.6725 105.951 97.7088 105.505 97.8498 105.111C98.0002 104.689 97.8821 104.282 98.098 103.85C98.3854 103.275 98.3108 102.496 98.3108 101.86" stroke="black" stroke-width="3" stroke-linecap="round"/>
<path d="M98.2041 102.51C98.2041 103.724 98.2387 104.951 98.7481 106.072C98.9224 106.455 98.9573 107.115 98.9573 107.532C98.9573 107.954 99.1618 108.693 99.4222 109.024C99.5609 109.201 99.9451 109.68 99.9616 109.894C99.978 110.107 100.201 110.898 100.334 111.047C100.449 111.175 100.524 111.115 100.589 111.298C100.643 111.447 100.695 111.566 100.803 111.684C101.08 111.984 101.442 112.238 101.7 112.553C101.932 112.836 102.365 113.178 102.691 113.353C103.068 113.556 103.43 113.946 103.825 114.064C104.036 114.127 104.219 114.372 104.416 114.394C104.855 114.445 105.312 114.879 105.708 115.064C106.554 115.457 107.496 115.739 108.293 116.235C108.624 116.442 108.959 116.628 109.298 116.821C109.594 116.991 110.132 116.945 110.465 116.984C111.475 117.103 112.522 117.093 113.533 117.161C114.3 117.212 115.315 117.443 116.067 117.203C116.769 116.978 117.461 116.789 118.178 116.607C120.144 116.109 121.705 115.072 123.269 113.855C124 113.287 124.702 112.817 125.026 111.879C125.117 111.617 125.258 111.446 125.403 111.214C125.707 110.728 125.844 110.176 126.193 109.708C126.706 109.022 127.299 108.391 127.663 107.625C127.813 107.307 127.997 106.639 127.997 106.286C127.997 105.928 128.238 105.591 128.332 105.263C128.447 104.86 128.425 104.443 128.518 104.035C128.601 103.672 128.667 103.385 128.667 103.013" stroke="black" stroke-width="3" stroke-linecap="round"/>
<path d="M98.2429 101.332C98.1498 101.436 98.0999 101.665 98.1054 101.8C98.1082 101.87 98.4488 101.966 98.141 101.871C97.9813 101.822 97.7583 101.663 97.6011 101.652C97.4779 101.644 97.8404 101.714 97.9602 101.744C98.0366 101.763 98.1925 101.9 98.2429 101.963C98.408 102.169 98.4115 102.176 98.4823 101.938C98.5299 101.777 98.6501 101.498 98.5077 101.342C98.3701 101.19 97.7529 102.073 97.5451 102.065C97.399 102.059 97.2803 101.783 97.2803 101.652" stroke="black" stroke-linecap="round"/>
<path d="M97.7842 94.1349C97.8591 94.1349 98.0324 94.27 98.0592 94.3438C98.1448 94.579 98.105 94.8499 98.105 95.0976" stroke="black" stroke-width="5" stroke-linecap="round"/>
<path d="M90.5853 96.7103C90.5853 96.7822 90.6416 96.792 90.6448 96.8492C90.6498 96.9399 90.6426 96.9352 90.6999 96.9925C90.7648 97.0574 90.6657 97.0476 90.625 97.0476C90.5549 97.0476 90.4795 96.9926 90.4266 96.9473C90.3337 96.8677 90.3824 96.9257 90.4067 96.9804C90.4378 97.0502 90.4946 97.0403 90.5555 97.0674C90.5813 97.0789 90.6944 97.1468 90.6349 97.1468C90.5794 97.1468 90.5183 97.1356 90.4861 97.0873" stroke="black" stroke-linecap="round"/>
<path d="M90.2285 96.8096C90.2635 96.8139 90.2788 96.8611 90.288 96.8889" stroke="black" stroke-linecap="round"/>
<path d="M109.314 89.9176C109.314 89.6915 109.339 89.4638 109.339 89.2339C109.339 89.0434 109.366 88.9319 109.24 88.7854" stroke="black" stroke-linecap="round"/>
<path d="M108.403 93.1666C108.524 92.9376 108.648 92.7165 108.748 92.4774" stroke="black" stroke-linecap="round"/>
<path d="M108.059 94.2495C108.084 94.0836 108.174 93.9298 108.225 93.7709C108.288 93.5786 108.344 93.3844 108.403 93.1912" stroke="black" stroke-linecap="round"/>
<path d="M108.157 94.1757C108.117 94.1837 108.075 94.2159 108.059 94.2495" stroke="black" stroke-linecap="round"/>
<path d="M107.517 94.9141C107.592 94.8308 107.668 94.747 107.733 94.657C107.804 94.5587 107.96 94.3693 107.96 94.2495" stroke="black" stroke-linecap="round"/>
<line x1="16.611" y1="111.337" x2="71.669" y2="96.5513" stroke="black" stroke-width="3"/>
<line x1="125.389" y1="97.5513" x2="180.447" y2="112.335" stroke="black" stroke-width="3"/>
<line x1="16.3947" y1="72.5529" x2="71.3947" y2="87.5529" stroke="black" stroke-width="3"/>
<line x1="125.605" y1="88.5576" x2="180.604" y2="73.5529" stroke="black" stroke-width="3"/>
<line x1="14.0112" y1="92.5" x2="71.0184" y2="92.9244" stroke="black" stroke-width="3"/>
<line x1="126.011" y1="92.5" x2="183.018" y2="92.9244" stroke="black" stroke-width="3"/>
</g>
<defs>
<clipPath id="clip0_15_930">
<rect width="296" height="148" fill="white"/>
</clipPath>
</defs>
</svg>
