<svg width="124" height="296" viewBox="0 0 124 296" fill="none" xmlns="http://www.w3.org/2000/svg">
<g clip-path="url(#clip0_15_1242)">
<path d="M37.5 258C37.5 260.391 39.6162 263.015 44.1075 265.128C48.4811 267.186 54.6286 268.5 61.5 268.5C68.3714 268.5 74.5189 267.186 78.8925 265.128C83.3838 263.015 85.5 260.391 85.5 258C85.5 255.609 83.3838 252.985 78.8925 250.872C74.5189 248.814 68.3714 247.5 61.5 247.5C54.6286 247.5 48.4811 248.814 44.1075 250.872C39.6162 252.985 37.5 255.609 37.5 258Z" fill="white" stroke="black" stroke-width="3"/>
<path d="M-33.5 258C-33.5 260.391 -31.3838 263.015 -26.8925 265.128C-22.5189 267.186 -16.3714 268.5 -9.5 268.5C-2.62861 268.5 3.51892 267.186 7.89253 265.128C12.3838 263.015 14.5 260.391 14.5 258C14.5 255.609 12.3838 252.985 7.89253 250.872C3.51892 248.814 -2.62861 247.5 -9.5 247.5C-16.3714 247.5 -22.5189 248.814 -26.8925 250.872C-31.3838 252.985 -33.5 255.609 -33.5 258Z" fill="white" stroke="black" stroke-width="3"/>
<path d="M-53.5 180C-53.5 229.057 -18.4087 268.5 24.5 268.5C67.4087 268.5 102.5 229.057 102.5 180C102.5 130.943 67.4087 91.5 24.5 91.5C-18.4087 91.5 -53.5 130.943 -53.5 180Z" fill="white" stroke="black" stroke-width="3"/>
<path d="M89.2176 43.3702L88.9102 18.3927L51.3192 21.7929L89.2176 43.3702Z" fill="white" stroke="black" stroke-width="3"/>
<path d="M2.27142 19.2938L-35.2233 15.5257L-36.0972 40.4875L2.27142 19.2938Z" fill="white" stroke="black" stroke-width="3"/>
<path d="M-48.5 73.3995C-48.5 88.7426 -40.4061 102.735 -27.1194 112.94C-13.831 123.145 4.59093 129.5 25 129.5C45.4091 129.5 63.831 123.145 77.1194 112.94C90.4061 102.735 98.5 88.7426 98.5 73.3995C98.5 58.0563 90.4061 44.0637 77.1194 33.8594C63.831 23.6539 45.4091 17.299 25 17.299C4.59093 17.299 -13.831 23.6539 -27.1194 33.8594C-40.4061 44.0637 -48.5 58.0563 -48.5 73.3995Z" fill="white" stroke="black" stroke-width="3"/>
<path d="M25.5 270C25.5 272.637 27.1492 275.225 30.2348 277.227C33.3059 279.219 37.6381 280.5 42.5 280.5C47.3619 280.5 51.6941 279.219 54.7652 277.227C57.8508 275.225 59.5 272.637 59.5 270C59.5 267.363 57.8508 264.775 54.7652 262.773C51.6941 260.781 47.3619 259.5 42.5 259.5C37.6381 259.5 33.3059 260.781 30.2348 262.773C27.1492 264.775 25.5 267.363 25.5 270Z" fill="white" stroke="black" stroke-width="3"/>
<line y1="-1.5" x2="44.248" y2="-1.5" transform="matrix(-0.1017 -0.994815 -0.994815 0.1017 27 264.019)" stroke="black" stroke-width="3"/>
<line y1="-1.5" x2="39.4867" y2="-1.5" transform="matrix(0.192435 -0.98131 -0.98131 -0.192435 51.4014 260.749)" stroke="black" stroke-width="3"/>
<path d="M-11.5 270C-11.5 272.637 -9.85081 275.225 -6.76519 277.227C-3.69413 279.219 0.638079 280.5 5.5 280.5C10.3619 280.5 14.6941 279.219 17.7652 277.227C20.8508 275.225 22.5 272.637 22.5 270C22.5 267.363 20.8508 264.775 17.7652 262.773C14.6941 260.781 10.3619 259.5 5.5 259.5C0.638079 259.5 -3.69413 260.781 -6.76519 262.773C-9.85081 264.775 -11.5 267.363 -11.5 270Z" fill="white" stroke="black" stroke-width="3"/>
<line y1="-1.5" x2="44.248" y2="-1.5" transform="matrix(-0.104528 0.994522 0.994522 0.104528 25 220)" stroke="black" stroke-width="3"/>
<path d="M52.8037 71.302C52.8037 71.2369 52.774 71.1794 52.7265 71.1318C52.6695 71.0748 52.6103 70.9874 52.5768 70.912C52.5374 70.8233 52.4418 70.7447 52.4059 70.6489C52.3651 70.5403 52.2467 70.436 52.1798 70.3409C52.114 70.2474 52.0944 70.095 52.0096 70.0226C51.9335 69.9577 51.8421 69.8125 51.7953 69.724C51.7593 69.656 51.7036 69.5988 51.6724 69.5294C51.6569 69.495 51.6241 69.4652 51.6133 69.4293C51.5852 69.3356 51.5465 69.2435 51.5164 69.1497C51.4972 69.0901 51.4862 69.0324 51.4597 68.9748C51.4106 68.8682 51.3646 68.7601 51.3234 68.6502C51.2793 68.5327 51.2575 68.4072 51.2123 68.2909C51.1975 68.2528 51.1687 68.2227 51.1501 68.1869C51.0942 68.0795 51.044 67.9701 50.9886 67.8623C50.8971 67.6845 50.8544 67.4617 50.727 67.2998C50.5975 67.1353 50.5826 66.919 50.5143 66.7239C50.493 66.663 50.479 66.5969 50.4639 66.5341C50.4427 66.4461 50.3829 66.3769 50.3646 66.2898C50.3519 66.2298 50.3362 66.1878 50.3362 66.126" stroke="black" stroke-linecap="round"/>
<path d="M53.0718 71.1282C52.9669 71.0692 53.0983 70.9795 53.142 70.9319C53.2195 70.8473 53.3091 70.8355 53.3526 70.7092C53.4127 70.5348 53.4964 70.3558 53.583 70.1936C53.6072 70.1482 53.6497 70.0747 53.6883 70.0422C53.7339 70.0039 53.7342 69.9346 53.7826 69.8996C53.817 69.8748 53.8352 69.8104 53.8605 69.7746C53.8931 69.7284 53.9231 69.6837 53.9592 69.6385C54.0249 69.5564 54.1018 69.4949 54.1775 69.4192C54.2142 69.3825 54.2864 69.2824 54.2949 69.2316C54.3041 69.1761 54.373 69.1162 54.4145 69.0747C54.571 68.9181 54.5792 68.684 54.7304 68.5328C54.7935 68.4697 54.8387 68.3979 54.907 68.3354C54.9398 68.3053 54.9886 68.3107 55.0024 68.2652C55.0226 68.1985 55.0645 68.1369 55.1034 68.0787C55.2199 67.9038 55.3578 67.7266 55.4456 67.5412C55.482 67.4644 55.5417 67.4157 55.5893 67.347C55.6254 67.2949 55.6337 67.2428 55.6595 67.1868C55.7145 67.0678 55.8378 67.0098 55.88 66.8786C55.9072 66.794 55.9941 66.6879 55.9941 66.6065C55.9941 66.5476 56.0336 66.5023 56.0336 66.4376C56.0336 66.3758 56.0583 66.3416 56.0775 66.2862C56.107 66.201 56.0906 66.1173 56.1619 66.046C56.2525 65.9554 56.2898 65.8243 56.3451 65.707C56.3701 65.654 56.3653 65.6113 56.3703 65.5557C56.3825 65.4214 56.4456 65.2953 56.4767 65.1651C56.4925 65.0992 56.49 65.0155 56.5119 64.9523C56.5254 64.9131 56.5783 64.8879 56.5864 64.8492C56.5951 64.8082 56.6325 64.7741 56.6545 64.7395C56.6768 64.7043 56.6754 64.6575 56.695 64.6221C56.7418 64.538 56.7444 64.4579 56.7444 64.3644C56.7444 64.2874 56.746 64.2111 56.7949 64.1483C56.8559 64.0698 56.8234 63.9114 56.8234 63.8159C56.8234 63.6358 56.8404 63.4487 56.8234 63.2696C56.8117 63.1464 56.7562 63.0222 56.7455 62.8944C56.7376 62.7992 56.7212 62.7109 56.7247 62.6136C56.7273 62.5392 56.7444 62.4676 56.7444 62.3909C56.7444 62.3137 56.7839 62.2549 56.7839 62.1836" stroke="black" stroke-linecap="round"/>
<path d="M50.3706 65.9102C50.3706 65.0388 50.2933 64.1763 50.2933 63.3111C50.2933 63.0832 50.2806 62.8514 50.2933 62.6238C50.3043 62.4245 50.3299 62.1248 50.4286 61.9472C50.5327 61.7597 50.4409 61.5555 50.6004 61.3694C50.6654 61.2936 50.6143 61.189 50.6971 61.1181C50.7486 61.0739 50.7851 60.8837 50.826 60.8066C50.9151 60.6382 51.1052 60.3891 51.1052 60.188C51.1052 59.9768 51.2104 59.797 51.2212 59.5866C51.2305 59.404 51.3389 59.3299 51.4532 59.2042C51.8021 58.8204 52.1427 58.4148 52.3897 57.9455C52.5317 57.6757 52.7579 57.4372 52.9138 57.1723C52.9732 57.0713 53.0726 57.0393 53.1071 56.9188C53.1483 56.7746 53.2515 56.6657 53.3648 56.573C53.5179 56.4478 53.5869 56.2247 53.715 56.0682C53.8806 55.8657 54.0151 55.6929 54.1982 55.5098" stroke="black" stroke-linecap="round"/>
<path d="M56.7505 62.1598C56.7505 61.6835 56.9186 61.0583 56.7505 60.5961C56.6757 60.3905 56.5304 60.1818 56.5185 59.956C56.5156 59.9014 56.4659 59.8799 56.4498 59.8314C56.4269 59.7628 56.4525 59.6926 56.4219 59.6252C56.3639 59.4976 56.3791 59.3612 56.3338 59.2343C56.2348 58.9572 56.1899 58.6716 55.9966 58.4353C55.9161 58.337 55.8521 58.2699 55.7925 58.1389C55.7369 58.0165 55.6152 57.83 55.5906 57.7071C55.5477 57.4925 55.4299 57.3305 55.3157 57.1465C55.0791 56.7654 54.9134 56.3393 54.6713 55.9651C54.6444 55.9236 54.6764 55.8637 54.6541 55.8191C54.6283 55.7675 54.5592 55.7625 54.5295 55.7031C54.4892 55.6224 54.4681 55.5604 54.392 55.5098" stroke="black" stroke-linecap="round"/>
<path d="M53.8506 66.1421C53.8506 66.2732 53.751 66.3367 53.7346 66.4514C53.7115 66.6134 53.6986 66.7413 53.6358 66.9003C53.583 67.0337 53.433 67.2325 53.4253 67.3793C53.4162 67.5514 53.3415 67.797 53.2492 67.9421C53.1542 68.0913 53.1615 68.3927 53.1246 68.5693C53.0875 68.7464 53.0773 68.8959 53.0773 69.0805" stroke="black" stroke-width="3" stroke-linecap="round"/>
<path d="M53.889 59.9946C53.889 59.848 53.8675 59.7581 53.9964 59.6638C54.0948 59.5919 54.1746 59.4688 54.2177 59.3567C54.3008 59.1406 54.1528 58.8523 54.2757 58.65C54.4052 58.4366 54.3917 58.1687 54.3917 57.9261C54.3917 57.8252 54.3917 57.7242 54.3917 57.6233C54.3917 57.3728 54.4533 58.1623 54.3143 58.3708" stroke="black" stroke-width="3" stroke-linecap="round"/>
<path d="M54.4307 66.5674C54.5646 66.5526 54.664 66.3437 54.7572 66.256C54.97 66.0557 54.936 65.8742 55.0107 65.6223C55.1056 65.302 55.1267 64.9247 55.1267 64.5935C55.1267 64.2636 55.2464 63.9592 55.2792 63.6312C55.3639 62.7838 55.2813 61.8943 55.2813 61.0407C55.2813 60.7435 55.2462 60.4267 55.1352 60.1493C55.0827 60.0181 55.1267 59.7869 55.1267 59.6467" stroke="black" stroke-width="3" stroke-linecap="round"/>
<path d="M52.2263 66.3354C52.1796 66.3296 52.1216 65.6846 52.1125 65.6116C52.0926 65.4526 52.1343 65.9352 52.1876 66.0863C52.2238 66.1887 52.325 66.2388 52.3401 66.3526C52.3544 66.4592 52.3423 66.5738 52.3423 66.6812C52.3423 66.8366 52.3423 66.992 52.3423 67.1473C52.3423 67.2098 52.3423 67.2203 52.3423 67.1473C52.3423 66.9583 52.3423 66.7693 52.3423 66.5803C52.3423 66.4232 52.3331 66.2733 52.3724 66.1206C52.3916 66.0458 52.4541 65.9889 52.4583 65.9101C52.4895 65.3175 52.4825 64.6666 52.6194 64.0779C52.6555 63.9226 52.6869 63.7338 52.7719 63.5946C52.799 63.5503 52.765 63.8277 52.759 63.8524C52.6674 64.2297 52.6516 64.5913 52.6516 64.9779C52.6516 65.3791 52.6217 65.782 52.5721 66.1786C52.5501 66.3545 52.5356 66.519 52.5356 66.7006C52.5356 66.8469 52.7567 67.3186 52.6817 66.9368C52.6488 66.7692 52.5351 66.6293 52.5012 66.4686C52.4653 66.2978 52.497 66.0908 52.497 65.9166C52.497 65.6889 52.497 65.4612 52.497 65.2335C52.497 64.9866 52.381 64.78 52.381 64.5354C52.381 64.3578 52.4196 64.1881 52.4196 64.0156" stroke="black" stroke-width="3" stroke-linecap="round"/>
<path d="M52.1883 64.7889C51.9787 64.7889 52.0641 64.3245 52.0809 64.1789C52.1084 63.9405 52.2438 63.7567 52.3172 63.5366C52.371 63.3753 52.4028 63.1446 52.4181 62.976C52.4534 62.5878 52.5543 62.1978 52.6351 61.8118C52.6752 61.62 52.7682 61.4249 52.7682 61.2297C52.7682 60.9986 52.8029 60.7605 52.8628 60.5381C52.9032 60.3878 52.9616 60.1648 52.9616 60.014C52.9616 59.8805 53.1382 59.7115 53.1549 59.5694C53.1589 59.5353 53.2645 59.4021 53.2923 59.3782C53.3802 59.3029 53.3506 59.4875 53.346 59.5329C53.322 59.7731 53.2709 59.9803 53.2709 60.2266" stroke="black" stroke-width="3" stroke-linecap="round"/>
<path d="M52.9609 61.6572C52.8731 61.6767 52.6592 62.1506 52.6516 62.2458C52.6263 62.562 52.454 62.8563 52.4197 63.1651C52.4059 63.2886 52.3519 63.5515 52.2736 63.6376C52.1378 63.787 52.1838 63.6225 52.1877 63.4744C52.1927 63.2835 52.305 63.0149 52.4197 62.8644C52.5391 62.7076 52.4992 62.4915 52.5743 62.3059C52.6073 62.2245 52.6862 61.8848 52.5056 62.0052C52.2712 62.1614 52.1997 62.4861 52.149 62.7398" stroke="black" stroke-width="3" stroke-linecap="round"/>
<path d="M38.9895 71.209C39.2157 71.209 39.2683 71.2597 39.4204 71.4118C39.5159 71.5073 39.6382 71.6271 39.7448 71.7083C39.8428 71.783 40.0003 71.7965 40.0844 71.868C40.3074 72.0575 40.5847 72.0275 40.8347 72.1417C41.1221 72.2731 41.4565 72.3386 41.7674 72.3952C41.9255 72.4239 42.0536 72.5214 42.2185 72.532C42.3405 72.5399 42.5018 72.5564 42.6165 72.6005C43.1129 72.7914 43.6268 72.8899 44.1271 73.0567C44.8967 73.3132 45.6719 73.4901 46.4715 73.4901C47.1324 73.4901 47.7545 73.5814 48.4181 73.5814C49.2901 73.5814 50.1176 73.658 50.9831 73.7157C51.7443 73.7664 52.505 73.7638 53.2693 73.7638C53.592 73.7638 53.9147 73.7638 54.2375 73.7638C54.6968 73.7638 55.0868 73.5408 55.5301 73.4901C55.9759 73.4392 56.4104 73.2012 56.8582 73.1226C57.4227 73.0236 57.9436 72.7545 58.4398 72.4788C58.9658 72.1866 59.4959 71.8709 59.9656 71.4929C60.1725 71.3264 60.357 71.0669 60.541 70.8694C61.0032 70.3729 61.4864 69.9042 62.0034 69.4652C62.3011 69.2125 62.4326 68.8806 62.6776 68.5882C62.8767 68.3507 63.023 68.0873 63.149 67.8051C63.2549 67.5682 63.4181 67.4 63.5698 67.1942C63.8973 66.7498 64.1484 66.2718 64.4366 65.8002C64.5865 65.5549 64.7314 65.3281 64.9004 65.0956C64.9723 64.9968 65.0398 64.8311 65.0398 64.7053C65.0398 64.1036 65.4574 63.5617 65.6126 62.997C65.6991 62.6826 65.7596 62.3609 65.8458 62.049C65.879 61.9291 65.9526 61.6556 66.0283 61.5523C66.3834 61.0681 66.6728 60.6625 66.8901 60.0873C67.0341 59.7062 67.1524 59.2893 67.2753 58.9011C67.3267 58.739 67.3946 58.6298 67.435 58.4601C67.4702 58.3124 67.5127 58.1672 67.5491 58.0216C67.6414 57.6521 67.8065 57.3622 67.9749 57.0255C68.0977 56.7798 68.1477 56.5018 68.2334 56.2449" stroke="black" stroke-width="3" stroke-linecap="round"/>
<path d="M39.4368 70.0946C39.4368 69.897 39.4009 69.655 39.4448 69.4628C39.5239 69.1166 39.695 68.8205 39.801 68.4828C39.9034 68.1565 39.9755 67.8447 40.0887 67.5229C40.2766 66.9891 40.3967 66.432 40.5797 65.893C40.6018 65.828 40.6189 65.7611 40.6401 65.6958C40.6929 65.5329 40.8423 65.4321 40.8997 65.2732C41.0501 64.8566 41.0946 64.3775 41.1673 63.9411C41.2294 63.5688 41.4974 63.1432 41.6684 62.8123C41.9271 62.3115 42.2234 61.832 42.4793 61.3292C42.8002 60.6987 43.1697 60.0658 43.576 59.488C43.7091 59.2987 43.796 59.0845 43.9241 58.8924C43.9796 58.8092 44.0615 58.7804 44.1334 58.7133C44.5738 58.3015 45.0622 57.9073 45.5902 57.6186C45.9545 57.4195 46.3216 57.1852 46.6426 56.9244C46.7218 56.8601 46.7294 56.7925 46.8278 56.7433C46.936 56.6892 47.0668 56.6325 47.1678 56.5682C47.9924 56.0435 48.8099 55.5147 49.5222 54.8417C49.8305 54.5504 50.0423 54.4091 50.4317 54.2642C50.8829 54.0963 51.3113 53.9825 51.7759 53.8597C51.8906 53.8294 51.9872 53.7311 52.1059 53.7229C52.2396 53.7137 52.3673 53.6896 52.5003 53.6686C53.1126 53.5719 53.7279 53.4941 54.3395 53.3969C54.7887 53.3256 55.2326 53.2095 55.6857 53.1635C55.9529 53.1364 56.2262 53.1173 56.4946 53.1092C56.8348 53.0989 57.1476 53.0051 57.4827 52.9703C58.1215 52.904 58.8703 52.8398 59.503 52.9623C59.7286 53.0059 59.9465 53.0838 60.171 53.1273C60.3945 53.1705 60.6101 53.1674 60.8331 53.2319C61.3721 53.3879 61.9552 53.4123 62.4851 53.5941C62.7896 53.6986 63.0513 53.7958 63.3745 53.8497C63.7751 53.9164 64.2394 53.9774 64.6101 54.1495C64.742 54.2108 64.8667 54.2176 65.0085 54.238C65.3338 54.285 65.6414 54.4166 65.9683 54.4674C66.2363 54.5091 66.4729 54.5922 66.7471 54.5922" stroke="black" stroke-width="3" stroke-linecap="round"/>
<path d="M66.373 54.3511C66.8689 54.3511 67.3239 54.5694 67.7554 54.7852C67.9372 54.876 68.1886 54.8319 68.3898 54.8319C68.6486 54.8319 68.7728 55.0723 69.0176 55.0723" stroke="black" stroke-width="3" stroke-linecap="round"/>
<path d="M12.8975 71.1074C12.8784 71.2979 12.8114 71.5108 12.6255 71.6038C12.2198 71.8066 11.8619 72.0982 11.3803 72.1584C11.2754 72.1715 11.1786 72.2375 11.076 72.2642C10.842 72.3249 10.6047 72.3676 10.3725 72.4368C10.0962 72.5191 9.81275 72.5819 9.55022 72.7023C9.22164 72.8529 8.85579 72.9474 8.51648 73.0799C8.35368 73.1435 8.16837 73.1359 7.99853 73.1749C7.57154 73.2729 7.15586 73.4156 6.72524 73.4986C6.12818 73.6137 5.49558 73.5678 4.90594 73.6907C4.74132 73.725 4.59478 73.858 4.429 73.8655C3.81178 73.8936 3.23311 74.0986 2.60754 74.0986C1.31699 74.0986 0.0264302 74.0986 -1.26413 74.0986C-1.59856 74.0986 -1.9355 74.1103 -2.26981 74.0986C-2.43793 74.0927 -2.59509 74.019 -2.75754 73.982C-3.20484 73.8801 -3.6458 73.8148 -4.074 73.6411C-4.40929 73.505 -4.73077 73.3464 -5.06673 73.2051C-5.30703 73.104 -5.56193 73.0361 -5.8005 72.9332C-5.92509 72.8794 -6.01065 72.7782 -6.14579 72.7303C-7.12013 72.385 -8.01936 71.8642 -8.88229 71.2973C-9.37573 70.9732 -9.90779 70.5577 -10.2009 70.0391C-10.2658 69.9242 -10.3789 69.8445 -10.4491 69.7305C-10.5627 69.5461 -10.6611 69.3702 -10.7901 69.1953C-10.8841 69.0678 -10.922 68.9202 -11.0037 68.7874C-11.1371 68.5707 -11.3161 68.3853 -11.4548 68.1724C-11.9973 67.3391 -12.4462 66.4406 -12.8662 65.5395C-12.9542 65.3506 -13.057 65.1216 -13.1726 64.9481C-13.3537 64.6765 -13.4657 64.3631 -13.6539 64.0957C-13.7212 64.0001 -13.7559 63.9067 -13.7899 63.7957C-13.8438 63.6197 -13.9538 63.4833 -14.0273 63.3166C-14.1114 63.1256 -14.2247 62.9371 -14.3337 62.7555" stroke="black" stroke-width="3" stroke-linecap="round"/>
<path d="M13.0215 71.2432C13.0215 70.5842 12.8075 70.0266 12.5495 69.4178C12.4597 69.2059 12.4435 68.9952 12.4074 68.7696C12.375 68.5677 12.254 68.4217 12.1628 68.2464C12.1008 68.1271 12.0748 67.9025 11.9752 67.8171C11.8664 67.7239 11.915 67.5205 11.833 67.4162C11.5319 67.0329 11.3971 66.6438 11.2303 66.1766C10.9997 65.5311 10.5898 64.9543 10.3603 64.3115C10.0071 63.3227 9.55862 62.4007 9.14906 61.4341C8.97577 61.0252 8.85877 60.6222 8.64297 60.2286C8.43623 59.8516 8.22757 59.5152 7.99472 59.1539C7.766 58.799 7.48364 58.4545 7.22706 58.119C7.1026 57.9562 6.98353 57.7821 6.85176 57.6271C6.64178 57.3801 6.39448 57.1712 6.18645 56.9248C5.82181 56.493 5.41197 56.1141 4.89564 55.8387C4.68491 55.7264 4.46127 55.6283 4.27298 55.4777C4.10509 55.3433 3.93091 55.3298 3.75836 55.2132C3.37542 54.9545 2.96042 54.801 2.56422 54.5707C2.32189 54.4298 2.02803 54.3783 1.79087 54.2295C1.4279 54.0018 0.997771 53.8626 0.573988 53.7405C0.088971 53.6007 -0.379453 53.3072 -0.898786 53.2799C-1.83003 53.2309 -2.77148 53.1475 -3.70217 53.1263C-3.96808 53.1203 -4.2362 53.0315 -4.50395 53.024C-5.13794 53.0061 -5.76634 52.9728 -6.40321 52.9728C-6.84914 52.9728 -7.29528 52.9216 -7.74519 52.9216C-8.31519 52.9216 -8.81739 53.2466 -9.38287 53.2799C-9.77804 53.3031 -10.2212 53.5251 -10.6111 53.6125C-10.8723 53.6711 -11.1318 53.8335 -11.4015 53.8428C-11.6072 53.8499 -11.8259 53.8798 -12.027 53.9224C-12.2131 53.9619 -12.4569 54.0864 -12.6298 54.0987C-12.9857 54.1241 -13.2704 54.2151 -13.605 54.3489C-13.7476 54.4059 -13.8977 54.5 -14.0514 54.5081C-14.4663 54.53 -14.8067 55.0902 -15.2398 55.1223C-15.4309 55.1364 -15.684 55.3172 -15.7801 55.4805C-15.8774 55.646 -16.048 55.7205 -16.1497 55.8899" stroke="black" stroke-width="3" stroke-linecap="round"/>
<path d="M-0.690523 71.3982C-0.690523 71.326 -0.667152 71.3089 -0.634767 71.2495C-0.55115 71.0962 -0.488093 70.9258 -0.415872 70.7663C-0.367156 70.6587 -0.34426 70.5393 -0.291969 70.4318C-0.242735 70.3306 -0.213172 70.2021 -0.151545 70.1096C-0.112917 70.0517 -0.0339794 69.9419 0.0198541 69.9031C0.0752135 69.8633 0.191097 69.7515 0.216034 69.6842C0.260566 69.564 0.346359 69.4795 0.401888 69.3621C0.477997 69.2011 0.512657 69.0234 0.58258 68.8603C0.667795 68.6614 0.684576 68.4415 0.78702 68.248C0.852382 68.1245 0.864378 67.9745 0.926411 67.8504C1.00173 67.6998 1.07832 67.5556 1.16596 67.4116C1.24065 67.2889 1.23271 67.1145 1.26198 66.978C1.2854 66.8687 1.35588 66.7856 1.40034 66.6878C1.44308 66.5938 1.47691 66.5037 1.52011 66.4101C1.56437 66.3142 1.61259 66.2215 1.65124 66.121C1.6722 66.0665 1.72559 65.9917 1.72559 65.9341" stroke="black" stroke-linecap="round"/>
<path d="M1.66121 66.2319C1.67539 66.1185 1.80115 66.0589 1.80678 65.9408C1.8108 65.8563 1.80678 65.7707 1.80678 65.686C1.80678 65.434 1.80678 65.1819 1.80678 64.9299C1.80678 64.7452 1.80678 64.5606 1.80678 64.3759C1.80678 64.0279 1.87203 63.624 1.78858 63.2902C1.73541 63.0776 1.73399 62.7934 1.73399 62.5745C1.73399 62.4759 1.66121 62.4006 1.66121 62.3178C1.66121 62.1849 1.63081 62.0106 1.59651 61.8811C1.54609 61.6906 1.47925 61.4409 1.47925 61.2462C1.47925 61.1345 1.34285 61.1072 1.33368 60.9834C1.32856 60.9142 1.29497 60.8927 1.2609 60.8378C1.20097 60.7413 1.19887 60.6246 1.1679 60.5184C1.10239 60.2938 0.896977 60.0344 0.896977 59.8047C0.896977 59.673 0.802944 59.5972 0.751409 59.4812C0.709121 59.3861 0.616194 59.2351 0.551253 59.1557C0.469759 59.0561 0.463504 58.9788 0.403663 58.8646C0.340419 58.7438 0.186322 58.6169 0.171158 58.4804C0.138785 58.1891 -0.146495 58.0208 -0.30396 57.7971C-0.410619 57.6455 -0.688591 57.4318 -0.704272 57.2593C-0.709346 57.2035 -0.815684 57.0785 -0.857927 57.0328C-0.945625 56.9381 -0.999881 56.8311 -1.0965 56.7538C-1.17354 56.6922 -1.18282 56.5508 -1.26835 56.4748C-1.33143 56.4187 -1.42084 56.3059 -1.43413 56.2261C-1.44133 56.183 -1.56096 56.1389 -1.59992 56.1129C-1.80688 55.9749 -2.08644 55.8617 -2.19635 55.6418" stroke="black" stroke-linecap="round"/>
<path d="M-0.631836 68.0153C-0.631836 67.2673 -0.649564 66.5248 -0.696533 65.7792C-0.727685 65.2846 -0.741012 64.7828 -0.741012 64.2871C-0.741012 64.1827 -0.675821 63.903 -0.813796 63.903" stroke="black" stroke-width="3" stroke-linecap="round"/>
<path d="M-0.558584 66.4504C-0.176424 66.4156 0.051931 65.8755 0.149039 65.5426C0.260982 65.1588 0.169256 64.65 0.169256 64.2507C0.169256 63.8762 0.205648 63.5064 0.205648 63.1306C0.205648 62.7335 0.22325 62.3319 0.132864 61.9418C0.0804561 61.7156 -0.00999319 61.5173 -0.0490959 61.2827" stroke="black" stroke-width="3" stroke-linecap="round"/>
<path d="M-1.06806 61.028C-1.06806 60.7569 -1.02926 60.5268 -0.950801 60.2718C-0.900915 60.1097 -0.883684 59.8309 -0.977084 59.6815C-1.0511 59.563 -1.01698 59.376 -1.10446 59.2448" stroke="black" stroke-width="3" stroke-linecap="round"/>
<path d="M-0.704102 68.7067C-0.852327 68.7067 -0.813278 68.3482 -0.813278 68.6703" stroke="black" stroke-width="3" stroke-linecap="round"/>
<path d="M24.9619 101.774C24.9619 101.476 24.8202 101.285 24.6106 101.083C24.4352 100.914 24.3093 100.927 24.0818 100.927C23.8075 100.927 23.5888 100.921 23.3321 100.797C23.1306 100.699 22.9416 100.641 22.7454 100.521C22.6661 100.473 22.4531 100.392 22.4195 100.308C22.3602 100.16 22.1623 100.083 22.0627 99.9672C21.9667 99.8552 21.8184 99.788 21.6951 99.6956C21.6357 99.651 21.4997 99.5856 21.4235 99.5579C21.2458 99.4933 21.0851 99.2521 20.9527 99.1197C20.7636 98.9306 20.5882 98.7398 20.3823 98.5656C20.2184 98.4269 19.9684 98.403 19.7955 98.2686C19.6475 98.1535 19.5506 97.9678 19.4026 97.8467C19.3296 97.787 19.2306 97.749 19.1853 97.6674C19.1166 97.5438 18.9064 97.5331 18.8195 97.4229C18.7086 97.2824 18.5073 97.1726 18.3451 97.0734C18.3143 97.0547 18.1628 96.9313 18.1495 96.9014C18.1233 96.8426 18.0279 96.7903 17.9865 96.7294C17.9386 96.6589 17.8622 96.598 17.8072 96.5248C17.7562 96.4568 17.7095 96.3506 17.6443 96.2984C17.5009 96.1837 17.3732 96.1118 17.206 96.0177C17.1113 95.9645 16.9926 95.8215 16.9109 95.7443C16.851 95.6878 16.7387 95.5865 16.7153 95.5161" stroke="black" stroke-linecap="round"/>
<path d="M16.5602 95.2407C16.4853 95.236 16.4466 95.0721 16.4431 95.0066C16.4341 94.835 16.3858 94.688 16.313 94.5384C16.2523 94.4134 16.1673 94.0767 16.0269 94.0182C15.9389 93.9815 15.8905 93.7976 15.8006 93.7477C15.6973 93.6903 15.6595 93.5636 15.5769 93.4719C15.5121 93.3999 15.4774 93.2786 15.4313 93.191C15.3692 93.0731 15.3209 92.9681 15.2752 92.8425C15.2428 92.7534 15.2218 92.6535 15.2011 92.5603C15.1797 92.464 15.0787 92.3775 15.0606 92.2689C15.0268 92.0662 14.9762 91.8448 14.9202 91.6486C14.9084 91.6075 14.8767 91.6067 14.8747 91.5471C14.872 91.4711 14.8278 91.4086 14.8278 91.3326C14.8278 91.1875 14.8412 91.0512 14.7836 90.9216C14.7418 90.8276 14.8075 90.6932 14.7693 90.5939C14.6439 90.2678 14.7108 89.845 14.7108 89.5001C14.7108 89.416 14.7108 89.3319 14.7108 89.2478C14.7108 89.1653 14.7544 89.0798 14.7576 88.9955C14.7659 88.7803 14.781 88.5644 14.781 88.3452C14.781 88.222 14.767 88.1253 14.8512 88.0305C14.9158 87.9578 14.8917 87.8277 14.9501 87.7548C14.9723 87.727 14.9683 87.7043 14.9683 87.6676C14.9683 87.6298 15.0201 87.5861 15.0385 87.5493C15.0919 87.4426 15.1513 87.3976 15.1803 87.2671C15.225 87.0661 15.3243 86.8814 15.3663 86.6779C15.3787 86.6178 15.3989 86.4573 15.4495 86.4139C15.5419 86.3347 15.6313 86.2424 15.7395 86.172C15.9261 86.0508 16.0809 85.8741 16.2441 85.7207C16.3248 85.645 16.3652 85.5438 16.4431 85.4658C16.4855 85.4234 16.5458 85.3998 16.594 85.3631C16.7532 85.2417 16.9351 85.0866 17.0387 84.917C17.108 84.8036 17.2135 84.7631 17.3327 84.7167C17.4074 84.6877 17.4732 84.6576 17.5512 84.6309C17.6264 84.6051 17.8332 84.5948 17.8711 84.519" stroke="black" stroke-linecap="round"/>
<path d="M25.1895 86.3614C25.1895 86.2814 25.1385 86.2064 25.1048 86.1372C25.0767 86.0795 25.0722 86.0094 25.0335 85.9585C25.0032 85.9187 24.9772 85.8824 24.9496 85.8426C24.8696 85.7269 24.7622 85.6229 24.6722 85.5149C24.6051 85.4345 24.5228 85.3555 24.4418 85.2892C24.4039 85.2582 24.3602 85.2421 24.3258 85.2077C24.2785 85.1605 24.2226 85.1416 24.1698 85.1027C24.0526 85.0163 23.9164 84.9514 23.7928 84.8739C23.5976 84.7513 23.4201 84.5969 23.2301 84.4663C22.9592 84.2801 22.6353 84.1677 22.3398 84.04C22.3044 84.0246 22.2549 84.0345 22.2175 84.0329C22.1358 84.0294 22.0562 84.0098 21.9746 84.0063C21.8824 84.0023 21.7957 84.0066 21.705 83.9914C21.3518 83.9319 20.9911 83.9205 20.6391 83.8534C20.4715 83.8215 20.2792 83.8503 20.1077 83.8503C19.8527 83.8503 19.5978 83.8503 19.3428 83.8503C19.2187 83.8503 19.0972 83.8449 18.9752 83.8715C18.8643 83.8956 18.7461 83.8938 18.6484 83.9584C18.4477 84.0912 18.2134 84.1506 18.0042 84.2672C17.9337 84.3065 17.8695 84.3325 17.809 84.3879C17.7006 84.4873 17.6225 84.625 17.512 84.7171C17.4714 84.7509 17.4529 84.7783 17.4093 84.8025C17.3713 84.8237 17.3303 84.8383 17.2894 84.8519" stroke="black" stroke-linecap="round"/>
<path d="M25.6079 86.6247C25.5469 86.5333 25.9194 86.3126 26.0151 86.2832C26.1097 86.2541 26.1783 86.1172 26.2588 86.0584C26.3304 86.0061 26.3612 85.9349 26.4267 85.876C26.5498 85.7651 26.756 85.6869 26.8967 85.5884C27.0448 85.4847 27.1766 85.3893 27.3156 85.279C27.4059 85.2073 27.4758 85.1163 27.5535 85.0338C27.7125 84.8648 27.905 84.7296 28.0863 84.5871C28.1443 84.5415 28.2359 84.5137 28.3023 84.4835C28.3418 84.4655 28.3829 84.472 28.4249 84.4704C28.4939 84.4677 28.4778 84.4246 28.5241 84.3974C28.7017 84.293 28.9104 84.2864 29.1138 84.2864C29.3046 84.2864 29.4338 84.1366 29.613 84.104C29.8285 84.0648 30.0351 83.9696 30.2611 83.9507C30.6616 83.9174 31.068 83.9712 31.4667 83.9712C31.5801 83.9712 31.6934 83.9712 31.8068 83.9712C31.864 83.9712 32.047 83.9436 32.0958 83.9843C32.139 84.0203 32.2283 84.0073 32.2812 84.0296C32.3441 84.0561 32.4443 84.1439 32.5074 84.1536C32.6744 84.1793 32.8489 84.1219 32.9964 84.2222C33.0826 84.2809 33.2026 84.3337 33.3 84.3711C33.4038 84.4111 33.4458 84.5024 33.5277 84.5492C33.6262 84.6055 33.7181 84.6958 33.805 84.774C33.8311 84.7975 33.8794 84.7836 33.9115 84.8017C34.0012 84.8521 34.0941 84.8925 34.1845 84.9418C34.2599 84.9829 34.3476 85.0274 34.4253 85.0513C34.5398 85.0865 34.6286 85.2208 34.7304 85.2848C34.8614 85.3673 34.9367 85.471 35.0544 85.568C35.2142 85.6996 35.2765 85.895 35.4996 85.9942C35.6879 86.0779 35.6989 86.3187 35.7886 86.4802C35.8392 86.5714 35.9217 86.6409 35.9856 86.724C36.0116 86.7578 36.0664 86.7526 36.0849 86.794C36.1086 86.8474 36.0907 86.8651 36.1316 86.9137C36.2269 87.0269 36.1897 87.2051 36.2746 87.3399C36.3369 87.4389 36.4159 87.5497 36.4337 87.6654C36.4396 87.7035 36.5048 87.9219 36.5257 87.9398C36.6593 88.0544 36.6149 88.3051 36.7067 88.4492C36.7437 88.5074 36.7452 88.6807 36.7475 88.747C36.7517 88.8644 36.7686 88.986 36.8001 89.1002C36.928 89.564 36.9314 90.0497 36.9314 90.5306C36.9314 90.6549 36.9798 90.8315 37.0161 90.9539C37.0425 91.043 37.0365 91.1308 37.0365 91.2239C37.0365 91.3636 37.0365 91.5032 37.0365 91.6428C37.0365 91.8217 37.0088 91.9584 36.9636 92.1303C36.9025 92.3624 36.9248 92.6255 36.8789 92.8631C36.8312 93.1101 36.8291 93.4425 36.6541 93.6425C36.6162 93.6858 36.6313 93.7468 36.5899 93.7841C36.5381 93.8307 36.5178 93.9055 36.4965 93.9694C36.4018 94.2535 36.231 94.4959 36.1301 94.7751C36.0737 94.9313 36.0333 95.1636 35.9068 95.2831C35.8235 95.3617 35.6769 95.4529 35.5769 95.5108C35.456 95.5808 35.3282 95.6967 35.2164 95.7852C34.9624 95.9862 34.7719 96.2299 34.564 96.4756C34.5228 96.5242 34.4872 96.5838 34.437 96.6215C34.3023 96.7225 34.1946 96.8422 34.0823 96.9675C33.9339 97.133 33.8276 97.1096 33.6999 96.9499" stroke="black" stroke-linecap="round"/>
<path d="M33.9102 96.6609C33.9102 96.8384 33.6628 97.0021 33.5161 97.0871C33.2989 97.2128 33.1194 97.3959 32.906 97.5221C32.511 97.7554 32.2475 98.1396 31.9251 98.462C31.8412 98.546 31.67 98.7626 31.5514 98.789C31.4926 98.8021 31.3894 98.8649 31.35 98.9116C31.2273 99.0569 31.0962 99.0996 30.9676 99.221C30.8722 99.3111 30.7428 99.3622 30.6407 99.4458C30.4511 99.6009 30.2433 99.7372 30.0597 99.907C30.0131 99.9502 29.9284 100.028 29.8744 100.052C29.7141 100.121 29.562 100.282 29.4555 100.418C29.3939 100.496 29.2789 100.569 29.2 100.63C29.1242 100.687 28.997 100.779 28.9066 100.812C28.7843 100.856 28.6849 100.989 28.5826 101.067C28.3916 101.214 28.2004 101.406 27.9769 101.502C27.8888 101.541 27.8405 101.577 27.7579 101.626C27.6857 101.67 27.5989 101.692 27.5317 101.743C27.4913 101.774 27.4625 101.825 27.4091 101.835C27.2284 101.868 27.1599 102.054 27.0106 102.139C26.8203 102.246 26.6453 102.354 26.4487 102.453C26.2682 102.543 26.0871 102.655 25.894 102.742C25.752 102.805 25.6031 102.775 25.4518 102.785C25.3086 102.795 25.22 102.888 25.0825 102.888" stroke="black" stroke-linecap="round"/>
<path d="M18.5932 97.344C18.6901 97.3803 18.8172 97.4796 18.8676 97.5804C18.8978 97.6408 18.9559 97.6685 18.9873 97.7235C18.9998 97.7454 19.0331 97.7372 19.053 97.7527C19.0881 97.78 19.0788 97.8153 19.1041 97.8432C19.1759 97.9222 19.2867 98.0692 19.3872 98.1117C19.4653 98.1448 19.5025 98.1695 19.5522 98.2358C19.6574 98.3762 19.8355 98.4868 19.9725 98.5934C20.0903 98.685 20.2966 98.8056 20.3739 98.932C20.4159 99.0007 20.496 99.0229 20.5374 99.0838C20.6036 99.1812 20.6748 99.1958 20.7578 99.2853C20.7903 99.3203 20.8082 99.3087 20.8512 99.3159C20.8849 99.3215 20.9066 99.3705 20.9315 99.3918C21.0012 99.4516 21.1143 99.4618 21.1884 99.5305C21.2855 99.6204 21.4078 99.6639 21.5037 99.7407C21.6647 99.8695 21.8555 99.9705 22.016 100.103C22.0994 100.171 22.174 100.305 22.2422 100.389C22.2746 100.428 22.3341 100.545 22.3765 100.57C22.4332 100.603 22.4423 100.638 22.4874 100.675C22.566 100.739 22.7061 100.77 22.7954 100.837C22.8523 100.879 22.8888 100.923 22.9399 100.97C23.0112 101.034 23.0981 101.066 23.1793 101.113C23.2243 101.139 23.224 101.206 23.2829 101.206C23.3312 101.206 23.4367 101.305 23.4785 101.336C23.5415 101.383 23.6258 101.386 23.6901 101.422C23.77 101.467 23.8336 101.583 23.9266 101.632C24.0073 101.675 24.0474 101.723 24.1236 101.772C24.1977 101.82 24.28 101.93 24.363 101.943C24.4642 101.959 24.5193 102.031 24.5834 102.099C24.6412 102.161 24.753 102.2 24.7936 102.272C24.8383 102.35 24.9751 102.384 25.049 102.426C25.1222 102.468 25.1681 102.536 25.2402 102.572" stroke="black" stroke-linecap="round"/>
<path d="M25.62 99.0855C25.7911 99.0855 26.1189 98.5407 26.2516 98.4081C26.3564 98.3032 26.4332 98.1956 26.5189 98.0745C26.6852 97.8398 26.9796 97.6577 27.1989 97.471C27.4835 97.2285 27.7215 97.0167 28.0036 96.7783C28.468 96.3859 29.0953 96.208 29.5697 95.8284C29.7455 95.6878 29.9964 95.605 30.2038 95.5203C30.542 95.3822 30.9507 95.1678 31.2327 94.9371C31.535 94.6897 31.8165 94.4199 32.124 94.1808C32.3033 94.0413 32.5967 93.7224 32.8395 93.7224C33.0468 93.7224 33.2593 93.6064 33.4227 93.4932C33.5936 93.3749 33.7415 93.2798 33.8709 93.1163C34.0549 92.8839 34.3513 92.8279 34.4872 92.5561C34.6754 92.1796 34.6393 91.7066 34.7062 91.2981C34.7584 90.9792 34.7418 90.6554 34.7418 90.3329C34.7418 89.8628 34.8295 89.3135 34.6272 88.8865C34.5305 88.6822 34.3636 88.519 34.2656 88.3339C34.1657 88.1452 34.0015 88.067 33.9167 87.8551" stroke="black" stroke-width="5" stroke-linecap="round"/>
<path d="M32.4033 91.2013C32.3902 91.0564 32.3074 90.8452 32.1741 90.7785C32.0183 90.7006 31.8535 90.7695 31.7081 90.8422C31.3126 91.0399 30.9058 91.2272 30.5189 91.4406C30.1503 91.644 29.7853 91.8178 29.4035 91.9932C28.8841 92.2319 28.4847 92.6131 28.0283 92.9482C27.7718 93.1366 27.4528 93.3739 27.4528 93.7224" stroke="black" stroke-width="5" stroke-linecap="round"/>
<path d="M25.6653 99.4522C25.7752 99.3301 25.8371 99.1267 25.9097 98.9836C25.9611 98.8823 26.3469 97.9446 26.5184 97.9446C26.6601 97.9446 26.8643 97.9855 26.9844 98.0567C27.1011 98.1258 27.2691 98.0427 27.3893 98.0337C27.8628 97.9987 28.1532 97.7944 28.4818 97.4659C28.5849 97.3627 28.7898 97.2668 28.9198 97.1959C29.1015 97.0968 29.2723 96.976 29.4469 96.8649C29.7745 96.6564 30.1485 96.4663 30.4325 96.1977C30.7788 95.8701 31.2337 95.6767 31.6039 95.3828C31.7552 95.2626 32.0174 95.0878 32.1285 94.9244C32.1683 94.8658 32.2389 94.6687 32.294 94.6443C32.3986 94.5977 32.4989 94.5821 32.541 94.4558" stroke="black" stroke-width="5" stroke-linecap="round"/>
<path d="M27.5908 98.673C27.5247 98.6978 27.4614 98.8625 27.3616 98.9124C27.2674 98.9595 27.243 98.9938 27.1324 98.9938" stroke="black" stroke-width="5" stroke-linecap="round"/>
<path d="M24.6112 99.2231C24.6948 99.0652 24.7628 98.938 24.6112 98.808C24.5481 98.7539 24.4339 98.7119 24.3871 98.6475C24.3389 98.5813 24.3261 98.4948 24.2445 98.454C24.0196 98.3415 23.7822 98.2456 23.5569 98.1204C23.3903 98.0278 23.2044 97.8058 23.0629 97.6747C22.9435 97.5642 22.7916 97.478 22.6834 97.359C22.5 97.1572 22.2464 97.0763 22.0544 96.8598C21.7805 96.551 21.4115 96.3392 21.1275 96.0551C20.749 95.6767 20.1786 95.3744 19.9102 94.8913C19.6738 94.4658 19.2278 94.2265 18.8916 93.8956C18.8068 93.8122 18.7107 93.5942 18.6242 93.5366C18.2258 93.271 18.1369 92.694 17.9443 92.2811C17.73 91.822 17.4604 91.3051 17.4604 90.7888" stroke="black" stroke-width="5" stroke-linecap="round"/>
<path d="M17.5068 89.9179C17.5068 89.6753 17.434 89.5057 17.517 89.2659C17.5895 89.0564 17.7654 88.5041 17.9881 88.4052C18.1031 88.3541 18.1932 88.1517 18.2861 88.0589C18.4311 87.9138 18.5731 87.7666 18.7215 87.6259C18.8297 87.5234 18.9555 87.3709 19.0398 87.249C19.0925 87.1729 19.2349 86.993 19.3149 86.9485C19.5364 86.8255 19.6697 86.7092 19.9464 86.7092C20.2053 86.7092 20.4242 86.5717 20.6951 86.5717C20.9379 86.5717 21.1807 86.5717 21.4234 86.5717C21.5397 86.5717 21.7106 86.7787 21.8156 86.8365C21.9293 86.899 21.9531 86.9997 21.9531 87.1217" stroke="black" stroke-width="5" stroke-linecap="round"/>
<path d="M17.5522 88.1301C17.6798 88.0153 17.9359 88.0111 18.1022 87.9926C18.2852 87.9723 18.3996 87.8551 18.6064 87.8551" stroke="black" stroke-width="5" stroke-linecap="round"/>
<path d="M20.4397 89.7803C20.4633 90.2059 20.7835 90.493 21.1196 90.7021C22.157 91.3476 23.0545 92.0067 23.7706 93.0272C24.066 93.4481 24.3143 93.8999 24.4938 94.3819C24.5716 94.5906 24.6348 94.8082 24.7383 95.0058C24.9654 95.4393 24.9319 94.9841 24.9319 94.7308" stroke="black" stroke-width="5" stroke-linecap="round"/>
<path d="M24.6575 92.6681C25.1622 92.6681 25.6712 92.6872 26.1752 92.6579C26.5511 92.6361 26.6383 92.5831 26.873 92.3319C27.3463 91.8256 27.6479 91.2936 28.2634 90.9211C28.5297 90.76 28.6821 90.6421 28.9816 90.5391C29.5258 90.3521 30.0867 90.1425 30.5299 89.765C30.7706 89.56 30.9626 89.2867 31.1665 89.0469C31.3327 88.8513 31.3565 88.4427 31.4517 88.2065C31.5589 87.9407 31.5988 87.6277 31.7166 87.3712C31.7697 87.2557 31.8039 87.0829 31.8643 86.9841C31.8944 86.9348 32.1233 86.86 31.956 86.8466C31.8645 86.8393 31.788 86.8008 31.6911 86.8008C31.5756 86.8008 31.3849 86.766 31.2811 86.8237C31.1745 86.883 31.0563 86.8976 30.9424 86.9383C30.8358 86.9764 30.7299 87.0925 30.6368 87.1191C30.461 87.1694 30.3593 87.3453 30.1759 87.4018C29.8832 87.4918 29.6277 87.694 29.3992 87.8602C29.2323 87.9815 29.0474 88.0744 28.8873 88.2039C28.7091 88.3482 28.4591 88.4081 28.2991 88.5681C27.9165 88.9507 27.3164 89.0855 26.8755 89.3906C26.7297 89.4916 26.6235 89.6192 26.491 89.737C26.3282 89.8817 26.1221 89.978 25.9384 90.096C25.3854 90.4515 24.5893 90.4314 23.9699 90.4678" stroke="black" stroke-width="5" stroke-linecap="round"/>
<path d="M30.2031 85.9757C29.8716 85.9757 29.8446 86.2437 29.6047 86.4086C29.4069 86.5446 29.1814 86.6221 28.991 86.7779C28.7829 86.9481 28.6642 87.1988 28.4765 87.3865C28.0228 87.8403 27.5518 87.9942 26.997 88.2676C26.588 88.4692 26.1162 88.5532 25.6906 88.7235C25.3625 88.8547 25.0364 88.9356 24.7025 89.0469" stroke="black" stroke-width="5" stroke-linecap="round"/>
<path d="M23.4192 87.5801C23.4192 87.5246 23.6025 87.4657 23.6484 87.3967" stroke="black" stroke-width="5" stroke-linecap="round"/>
<path d="M55.5479 103.42C55.5479 103.689 55.4406 104.03 55.3036 104.255C55.0858 104.614 55.0951 105.042 54.9805 105.453C54.8595 105.887 54.7959 106.34 54.6653 106.769C54.62 106.918 54.5003 107.093 54.484 107.234C54.4292 107.709 54.1509 108.13 54.1294 108.613C54.1061 109.137 53.7965 109.603 53.6487 110.087C53.546 110.423 53.4635 110.755 53.3335 111.08C53.1594 111.515 53.0706 112.028 52.7267 112.372C52.4021 112.697 51.9614 112.895 51.5486 113.093C51.3497 113.189 51.1046 113.257 50.9221 113.381C50.6996 113.532 50.3981 113.613 50.201 113.775C50.0308 113.915 49.8342 113.951 49.6612 114.074C49.4479 114.227 49.2563 114.407 48.9993 114.48C48.6706 114.574 48.4301 115.002 48.097 115.126C47.7652 115.251 47.3073 115.554 47.0686 115.792C46.7438 116.117 46.1115 116.302 45.6816 116.439C45.2803 116.566 44.9534 116.717 44.5311 116.785C44.198 116.839 43.8447 117 43.5264 117.033C43.3084 117.056 43.0863 117.093 42.8684 117.108C42.7027 117.12 42.6682 117.25 42.4665 117.25C41.8643 117.25 41.2683 117.321 40.6619 117.321C39.8265 117.321 38.9912 117.321 38.1559 117.321C37.5859 117.321 37.0159 117.321 36.4459 117.321C36.1839 117.321 36.0079 117.061 35.7603 117.037C35.3755 117.001 35.1138 116.761 34.7831 116.541C34.4081 116.291 33.9136 116.202 33.5774 115.918C33.137 115.547 32.3813 115.609 32.0014 115.138C31.8697 114.975 31.6013 114.844 31.434 114.701C31.2659 114.557 31.0984 114.4 30.969 114.216C30.7288 113.875 30.3966 113.643 30.1179 113.349C30.056 113.284 30.065 113.181 29.9997 113.113C29.8631 112.971 29.6653 112.848 29.5151 112.715C29.2414 112.474 28.9962 112.46 28.9477 112.096C28.9177 111.871 28.8013 111.676 28.7546 111.458C28.6943 111.177 28.6858 110.881 28.5616 110.619C28.3877 110.252 28.015 109.632 27.675 109.413C27.4716 109.282 27.3357 108.923 27.2495 108.708C27.1627 108.491 27.1176 108.252 27.0052 108.046C26.906 107.864 26.7447 107.715 26.69 107.51C26.587 107.124 26.3275 106.791 26.3275 106.367C26.3275 105.951 26.2912 105.505 26.1502 105.111C25.9998 104.689 26.1179 104.282 25.902 103.85C25.6146 103.275 25.6892 102.496 25.6892 101.86" stroke="black" stroke-width="3" stroke-linecap="round"/>
<path d="M25.7959 102.51C25.7959 103.724 25.7613 104.951 25.2519 106.072C25.0776 106.455 25.0427 107.115 25.0427 107.532C25.0427 107.954 24.8382 108.693 24.5778 109.024C24.4391 109.201 24.0549 109.68 24.0384 109.894C24.022 110.107 23.7993 110.898 23.6665 111.047C23.5514 111.175 23.4762 111.115 23.4108 111.298C23.3574 111.447 23.3052 111.566 23.1969 111.684C22.9197 111.984 22.5576 112.238 22.2996 112.553C22.0682 112.836 21.6347 113.178 21.3092 113.353C20.9315 113.556 20.5699 113.946 20.1748 114.064C19.9644 114.127 19.7806 114.372 19.5843 114.394C19.1447 114.445 18.6881 114.879 18.2918 115.064C17.4458 115.457 16.5038 115.739 15.7067 116.235C15.3757 116.442 15.0408 116.628 14.7025 116.821C14.4056 116.991 13.8682 116.945 13.5355 116.984C12.5248 117.103 11.4783 117.093 10.4669 117.161C9.69977 117.212 8.68524 117.443 7.93294 117.203C7.23082 116.978 6.53901 116.789 5.82211 116.607C3.85627 116.109 2.29536 115.072 0.731033 113.855C0.000204444 113.287 -0.701809 112.817 -1.02644 111.879C-1.11711 111.617 -1.25807 111.446 -1.40304 111.214C-1.70663 110.728 -1.84417 110.176 -2.19343 109.708C-2.70583 109.022 -3.2987 108.391 -3.66264 107.625C-3.8134 107.307 -3.9974 106.639 -3.9974 106.286C-3.9974 105.928 -4.23829 105.591 -4.33215 105.263C-4.44728 104.86 -4.42544 104.443 -4.51813 104.035C-4.60074 103.672 -4.66691 103.385 -4.66691 103.013" stroke="black" stroke-width="3" stroke-linecap="round"/>
<path d="M25.7571 101.332C25.8502 101.436 25.9001 101.665 25.8946 101.8C25.8918 101.87 25.5512 101.966 25.859 101.871C26.0187 101.822 26.2417 101.663 26.3989 101.652C26.5221 101.644 26.1596 101.714 26.0398 101.744C25.9634 101.763 25.8075 101.9 25.7571 101.963C25.592 102.169 25.5885 102.176 25.5177 101.938C25.4701 101.777 25.3499 101.498 25.4923 101.342C25.6299 101.19 26.2471 102.073 26.4549 102.065C26.601 102.059 26.7197 101.783 26.7197 101.652" stroke="black" stroke-linecap="round"/>
<path d="M26.2158 94.135C26.1409 94.135 25.9676 94.27 25.9408 94.3438C25.8552 94.5791 25.895 94.85 25.895 95.0976" stroke="black" stroke-width="5" stroke-linecap="round"/>
<path d="M33.4147 96.7103C33.4147 96.7822 33.3584 96.792 33.3552 96.8492C33.3502 96.9399 33.3574 96.9352 33.3001 96.9925C33.2352 97.0574 33.3343 97.0476 33.375 97.0476C33.4451 97.0476 33.5205 96.9926 33.5734 96.9473C33.6663 96.8677 33.6176 96.9257 33.5933 96.9804C33.5622 97.0502 33.5054 97.0403 33.4445 97.0674C33.4187 97.0789 33.3056 97.1468 33.3651 97.1468C33.4206 97.1468 33.4817 97.1356 33.5139 97.0873" stroke="black" stroke-linecap="round"/>
<path d="M33.7715 96.8096C33.7365 96.8139 33.7212 96.8611 33.712 96.8889" stroke="black" stroke-linecap="round"/>
<path d="M14.6859 89.9176C14.6859 89.6915 14.6613 89.4638 14.6613 89.2339C14.6613 89.0434 14.6342 88.9319 14.7598 88.7854" stroke="black" stroke-linecap="round"/>
<path d="M15.5967 93.1666C15.4765 92.9376 15.3517 92.7165 15.2521 92.4774" stroke="black" stroke-linecap="round"/>
<path d="M15.9414 94.2495C15.9159 94.0836 15.8261 93.9298 15.7746 93.7709C15.7123 93.5786 15.6556 93.3844 15.5968 93.1912" stroke="black" stroke-linecap="round"/>
<path d="M15.843 94.1757C15.8832 94.1837 15.9246 94.2159 15.9414 94.2495" stroke="black" stroke-linecap="round"/>
<path d="M16.4834 94.9141C16.4085 94.8308 16.3323 94.747 16.2674 94.657C16.1964 94.5587 16.0404 94.3693 16.0404 94.2495" stroke="black" stroke-linecap="round"/>
<line y1="-1.5" x2="57.0088" y2="-1.5" transform="matrix(-0.965782 -0.259354 -0.259354 0.965782 107 112.785)" stroke="black" stroke-width="3"/>
<line y1="-1.5" x2="57.0088" y2="-1.5" transform="matrix(-0.964764 0.263117 0.263117 0.964764 108 74)" stroke="black" stroke-width="3"/>
<line y1="-1.5" x2="57.0088" y2="-1.5" transform="matrix(-0.999972 0.0074441 0.0074441 0.999972 110 94)" stroke="black" stroke-width="3"/>
</g>
<defs>
<clipPath id="clip0_15_1242">
<rect width="124" height="296" fill="white" transform="matrix(-1 0 0 1 124 0)"/>
</clipPath>
</defs>
</svg>
