<svg width="90" height="296" viewBox="0 0 90 296" fill="none" xmlns="http://www.w3.org/2000/svg">
<g clip-path="url(#clip0_15_1138)">
<path d="M86.5 258C86.5 260.391 84.3838 263.015 79.8925 265.128C75.5189 267.186 69.3714 268.5 62.5 268.5C55.6286 268.5 49.4811 267.186 45.1075 265.128C40.6162 263.015 38.5 260.391 38.5 258C38.5 255.609 40.6162 252.985 45.1075 250.872C49.4811 248.814 55.6286 247.5 62.5 247.5C69.3714 247.5 75.5189 248.814 79.8925 250.872C84.3838 252.985 86.5 255.609 86.5 258Z" fill="white" stroke="black" stroke-width="3"/>
<path d="M177.5 180C177.5 229.057 142.409 268.5 99.5 268.5C56.5913 268.5 21.5 229.057 21.5 180C21.5 130.943 56.5913 91.5 99.5 91.5C142.409 91.5 177.5 130.943 177.5 180Z" fill="white" stroke="black" stroke-width="3"/>
<path d="M34.7824 43.3702L35.0898 18.3926L72.6808 21.7928L34.7824 43.3702Z" fill="white" stroke="black" stroke-width="3"/>
<path d="M172.5 73.3995C172.5 88.7427 164.406 102.735 151.119 112.94C137.831 123.145 119.409 129.5 99 129.5C78.5909 129.5 60.169 123.145 46.8806 112.94C33.5939 102.735 25.5 88.7427 25.5 73.3995C25.5 58.0564 33.5939 44.0638 46.8806 33.8594C60.169 23.6539 78.5909 17.299 99 17.299C119.409 17.299 137.831 23.6539 151.119 33.8594C164.406 44.0638 172.5 58.0564 172.5 73.3995Z" fill="white" stroke="black" stroke-width="3"/>
<path d="M98.5 270C98.5 272.637 96.8508 275.225 93.7652 277.227C90.6941 279.219 86.3619 280.5 81.5 280.5C76.6381 280.5 72.3059 279.219 69.2348 277.227C66.1492 275.225 64.5 272.637 64.5 270C64.5 267.363 66.1492 264.775 69.2348 262.773C72.3059 260.781 76.6381 259.5 81.5 259.5C86.3619 259.5 90.6941 260.781 93.7652 262.773C96.8508 264.775 98.5 267.363 98.5 270Z" fill="white" stroke="black" stroke-width="3"/>
<line x1="71.1267" y1="261.037" x2="63.528" y2="222.289" stroke="black" stroke-width="3"/>
<path d="M71.1963 71.302C71.1963 71.2369 71.226 71.1794 71.2735 71.1318C71.3305 71.0748 71.3897 70.9874 71.4232 70.912C71.4626 70.8233 71.5582 70.7447 71.5941 70.6489C71.6349 70.5403 71.7533 70.436 71.8202 70.3409C71.886 70.2474 71.9056 70.095 71.9904 70.0226C72.0665 69.9577 72.1579 69.8125 72.2047 69.724C72.2407 69.656 72.2964 69.5988 72.3276 69.5294C72.3431 69.495 72.3759 69.4652 72.3867 69.4293C72.4148 69.3356 72.4535 69.2435 72.4836 69.1497C72.5028 69.0901 72.5138 69.0324 72.5403 68.9748C72.5894 68.8682 72.6354 68.7601 72.6766 68.6502C72.7207 68.5327 72.7425 68.4072 72.7877 68.2909C72.8025 68.2528 72.8313 68.2227 72.8499 68.1869C72.9058 68.0795 72.956 67.9701 73.0114 67.8623C73.1029 67.6845 73.1456 67.4617 73.273 67.2998C73.4025 67.1353 73.4174 66.919 73.4857 66.7239C73.507 66.663 73.521 66.5969 73.5361 66.5341C73.5573 66.4461 73.6171 66.3769 73.6354 66.2898C73.6481 66.2298 73.6638 66.1878 73.6638 66.126" stroke="black" stroke-linecap="round"/>
<path d="M70.9282 71.1283C71.0331 71.0694 70.9017 70.9797 70.858 70.932C70.7805 70.8474 70.6909 70.8356 70.6474 70.7093C70.5873 70.5349 70.5036 70.356 70.417 70.1937C70.3928 70.1483 70.3503 70.0748 70.3117 70.0424C70.2661 70.004 70.2658 69.9347 70.2174 69.8997C70.183 69.8749 70.1648 69.8106 70.1395 69.7747C70.1069 69.7285 70.0769 69.6838 70.0408 69.6387C69.9751 69.5566 69.8982 69.495 69.8225 69.4193C69.7858 69.3826 69.7136 69.2825 69.7051 69.2317C69.6959 69.1763 69.627 69.1163 69.5855 69.0748C69.429 68.9183 69.4208 68.6841 69.2696 68.5329C69.2065 68.4699 69.1613 68.398 69.093 68.3355C69.0602 68.3054 69.0114 68.3108 68.9976 68.2653C68.9774 68.1986 68.9355 68.137 68.8966 68.0788C68.7801 67.904 68.6422 67.7267 68.5544 67.5413C68.518 67.4645 68.4583 67.4158 68.4107 67.3471C68.3746 67.295 68.3663 67.2429 68.3405 67.187C68.2855 67.0679 68.1622 67.0099 68.12 66.8787C68.0928 66.7942 68.0059 66.688 68.0059 66.6067C68.0059 66.5477 67.9664 66.5024 67.9664 66.4377C67.9664 66.3759 67.9417 66.3417 67.9225 66.2864C67.893 66.2011 67.9094 66.1175 67.8381 66.0461C67.7475 65.9556 67.7102 65.8244 67.6549 65.7072C67.6299 65.6541 67.6347 65.6114 67.6297 65.5558C67.6175 65.4215 67.5544 65.2954 67.5233 65.1653C67.5075 65.0993 67.51 65.0157 67.4881 64.9524C67.4746 64.9132 67.4217 64.888 67.4136 64.8493C67.4049 64.8084 67.3675 64.7742 67.3455 64.7396C67.3232 64.7045 67.3246 64.6576 67.305 64.6223C67.2582 64.5381 67.2556 64.458 67.2556 64.3645C67.2556 64.2875 67.254 64.2112 67.2051 64.1484C67.1441 64.0699 67.1766 63.9115 67.1766 63.816C67.1766 63.6359 67.1596 63.4488 67.1766 63.2697C67.1883 63.1465 67.2438 63.0223 67.2545 62.8945C67.2624 62.7993 67.2788 62.711 67.2753 62.6137C67.2727 62.5393 67.2556 62.4678 67.2556 62.391C67.2556 62.3138 67.2161 62.255 67.2161 62.1837" stroke="black" stroke-linecap="round"/>
<path d="M73.6294 65.9102C73.6294 65.0388 73.7067 64.1763 73.7067 63.3111C73.7067 63.0832 73.7194 62.8514 73.7067 62.6238C73.6957 62.4245 73.6701 62.1248 73.5714 61.9472C73.4673 61.7597 73.5591 61.5555 73.3996 61.3694C73.3346 61.2936 73.3857 61.189 73.3029 61.1181C73.2514 61.0739 73.2149 60.8837 73.174 60.8066C73.0849 60.6382 72.8948 60.3891 72.8948 60.188C72.8948 59.9768 72.7896 59.797 72.7788 59.5866C72.7695 59.404 72.6611 59.3299 72.5468 59.2042C72.1979 58.8204 71.8573 58.4148 71.6103 57.9455C71.4683 57.6757 71.2421 57.4372 71.0862 57.1723C71.0268 57.0713 70.9274 57.0393 70.8929 56.9188C70.8517 56.7746 70.7485 56.6657 70.6352 56.573C70.4821 56.4478 70.4131 56.2247 70.285 56.0682C70.1194 55.8657 69.9849 55.6929 69.8018 55.5098" stroke="black" stroke-linecap="round"/>
<path d="M67.2495 62.1598C67.2495 61.6835 67.0814 61.0583 67.2495 60.5961C67.3243 60.3905 67.4696 60.1818 67.4815 59.956C67.4844 59.9014 67.5341 59.8799 67.5502 59.8314C67.5731 59.7628 67.5475 59.6926 67.5781 59.6252C67.6361 59.4976 67.6209 59.3612 67.6662 59.2343C67.7652 58.9572 67.8101 58.6716 68.0034 58.4353C68.0839 58.337 68.1479 58.2699 68.2075 58.1389C68.2631 58.0165 68.3848 57.83 68.4094 57.7071C68.4523 57.4925 68.5701 57.3305 68.6843 57.1465C68.9209 56.7654 69.0866 56.3393 69.3287 55.9651C69.3556 55.9236 69.3236 55.8637 69.3459 55.8191C69.3717 55.7675 69.4408 55.7625 69.4705 55.7031C69.5108 55.6224 69.5319 55.5604 69.608 55.5098" stroke="black" stroke-linecap="round"/>
<path d="M70.1494 66.1422C70.1494 66.2733 70.249 66.3367 70.2654 66.4515C70.2885 66.6134 70.3014 66.7414 70.3642 66.9004C70.417 67.0338 70.567 67.2325 70.5747 67.3794C70.5838 67.5515 70.6585 67.797 70.7508 67.9421C70.8458 68.0913 70.8385 68.3928 70.8754 68.5693C70.9125 68.7465 70.9227 68.896 70.9227 69.0805" stroke="black" stroke-width="3" stroke-linecap="round"/>
<path d="M70.111 59.9947C70.111 59.8481 70.1325 59.7582 70.0036 59.664C69.9052 59.592 69.8254 59.4689 69.7823 59.3568C69.6992 59.1408 69.8472 58.8524 69.7243 58.6501C69.5948 58.4367 69.6083 58.1688 69.6083 57.9263C69.6083 57.8253 69.6083 57.7244 69.6083 57.6234C69.6083 57.3729 69.5467 58.1625 69.6857 58.3709" stroke="black" stroke-width="3" stroke-linecap="round"/>
<path d="M69.5693 66.5674C69.4354 66.5526 69.336 66.3437 69.2428 66.256C69.03 66.0557 69.064 65.8742 68.9893 65.6223C68.8944 65.302 68.8733 64.9247 68.8733 64.5935C68.8733 64.2636 68.7536 63.9592 68.7208 63.6312C68.6361 62.7838 68.7187 61.8943 68.7187 61.0407C68.7187 60.7435 68.7538 60.4267 68.8648 60.1493C68.9173 60.0181 68.8733 59.7869 68.8733 59.6467" stroke="black" stroke-width="3" stroke-linecap="round"/>
<path d="M71.7737 66.3355C71.8204 66.3296 71.8784 65.6847 71.8875 65.6116C71.9074 65.4526 71.8657 65.9352 71.8124 66.0863C71.7762 66.1888 71.675 66.2389 71.6599 66.3527C71.6456 66.4592 71.6577 66.5739 71.6577 66.6813C71.6577 66.8367 71.6577 66.992 71.6577 67.1474C71.6577 67.2098 71.6577 67.2203 71.6577 67.1474C71.6577 66.9584 71.6577 66.7694 71.6577 66.5803C71.6577 66.4233 71.6669 66.2733 71.6276 66.1207C71.6084 66.0459 71.5459 65.9889 71.5417 65.9102C71.5105 65.3175 71.5175 64.6667 71.3806 64.078C71.3445 63.9226 71.3131 63.7338 71.2281 63.5947C71.201 63.5504 71.235 63.8277 71.241 63.8524C71.3326 64.2298 71.3484 64.5914 71.3484 64.978C71.3484 65.3792 71.3783 65.782 71.4279 66.1787C71.4499 66.3546 71.4644 66.5191 71.4644 66.7006C71.4644 66.8469 71.2433 67.3186 71.3183 66.9369C71.3512 66.7693 71.4649 66.6294 71.4988 66.4686C71.5347 66.2979 71.503 66.0908 71.503 65.9166C71.503 65.6889 71.503 65.4613 71.503 65.2336C71.503 64.9867 71.619 64.7801 71.619 64.5355C71.619 64.3578 71.5804 64.1882 71.5804 64.0157" stroke="black" stroke-width="3" stroke-linecap="round"/>
<path d="M71.8117 64.789C72.0213 64.789 71.9359 64.3246 71.9191 64.1789C71.8916 63.9406 71.7562 63.7568 71.6828 63.5367C71.629 63.3754 71.5972 63.1447 71.5819 62.9761C71.5466 62.5879 71.4457 62.1979 71.3649 61.8119C71.3248 61.62 71.2318 61.425 71.2318 61.2298C71.2318 60.9987 71.1971 60.7606 71.1372 60.5382C71.0968 60.3878 71.0384 60.1648 71.0384 60.0141C71.0384 59.8806 70.8618 59.7116 70.8451 59.5694C70.8411 59.5354 70.7355 59.4021 70.7077 59.3783C70.6198 59.3029 70.6494 59.4876 70.654 59.5329C70.678 59.7732 70.7291 59.9804 70.7291 60.2267" stroke="black" stroke-width="3" stroke-linecap="round"/>
<path d="M71.0391 61.6572C71.1269 61.6767 71.3408 62.1506 71.3484 62.2458C71.3737 62.562 71.546 62.8563 71.5803 63.1651C71.5941 63.2886 71.6481 63.5515 71.7264 63.6376C71.8622 63.787 71.8162 63.6225 71.8123 63.4744C71.8073 63.2835 71.695 63.0149 71.5803 62.8644C71.4609 62.7076 71.5008 62.4915 71.4257 62.3059C71.3927 62.2245 71.3138 61.8848 71.4944 62.0052C71.7288 62.1614 71.8003 62.4861 71.851 62.7398" stroke="black" stroke-width="3" stroke-linecap="round"/>
<path d="M85.0105 71.2091C84.7843 71.2091 84.7317 71.2598 84.5796 71.4118C84.4841 71.5074 84.3618 71.6272 84.2552 71.7084C84.1572 71.783 83.9997 71.7965 83.9156 71.868C83.6926 72.0575 83.4153 72.0275 83.1653 72.1418C82.8779 72.2732 82.5435 72.3387 82.2326 72.3952C82.0745 72.424 81.9464 72.5215 81.7815 72.5321C81.6595 72.54 81.4982 72.5564 81.3835 72.6005C80.8871 72.7915 80.3732 72.89 79.8729 73.0568C79.1033 73.3133 78.3281 73.4902 77.5285 73.4902C76.8676 73.4902 76.2455 73.5814 75.5819 73.5814C74.7099 73.5814 73.8824 73.658 73.0169 73.7157C72.2557 73.7665 71.495 73.7639 70.7307 73.7639C70.408 73.7639 70.0853 73.7639 69.7625 73.7639C69.3032 73.7639 68.9132 73.5408 68.4699 73.4902C68.0241 73.4392 67.5896 73.2012 67.1418 73.1227C66.5773 73.0236 66.0564 72.7545 65.5602 72.4789C65.0342 72.1866 64.5041 71.871 64.0344 71.4929C63.8275 71.3264 63.643 71.067 63.459 70.8694C62.9968 70.373 62.5136 69.9042 61.9966 69.4653C61.6989 69.2125 61.5674 68.8806 61.3224 68.5883C61.1233 68.3508 60.977 68.0873 60.851 67.8051C60.7451 67.5682 60.5819 67.4001 60.4302 67.1943C60.1027 66.7498 59.8516 66.2718 59.5634 65.8003C59.4135 65.555 59.2686 65.3281 59.0996 65.0957C59.0277 64.9968 58.9602 64.8312 58.9602 64.7053C58.9602 64.1037 58.5426 63.5617 58.3874 62.997C58.3009 62.6827 58.2404 62.3609 58.1542 62.0491C58.121 61.9291 58.0474 61.6557 57.9717 61.5523C57.6166 61.0681 57.3272 60.6626 57.1099 60.0873C56.9659 59.7062 56.8476 59.2893 56.7247 58.9012C56.6733 58.7391 56.6054 58.6298 56.565 58.4602C56.5298 58.3125 56.4873 58.1673 56.4509 58.0217C56.3586 57.6522 56.1935 57.3623 56.0251 57.0256C55.9023 56.7798 55.8523 56.5019 55.7666 56.2449" stroke="black" stroke-width="3" stroke-linecap="round"/>
<path d="M84.5632 70.0947C84.5632 69.8971 84.5991 69.655 84.5552 69.4628C84.4761 69.1167 84.305 68.8206 84.199 68.4828C84.0966 68.1565 84.0245 67.8447 83.9113 67.523C83.7234 66.9891 83.6033 66.4321 83.4203 65.8931C83.3982 65.8281 83.3811 65.7612 83.3599 65.6959C83.3071 65.533 83.1577 65.4321 83.1003 65.2733C82.9499 64.8567 82.9054 64.3775 82.8327 63.9412C82.7706 63.5689 82.5026 63.1432 82.3316 62.8123C82.0729 62.3116 81.7766 61.8321 81.5207 61.3293C81.1998 60.6987 80.8303 60.0658 80.424 59.4881C80.2909 59.2987 80.204 59.0845 80.0759 58.8924C80.0204 58.8092 79.9385 58.7805 79.8666 58.7134C79.4262 58.3016 78.9378 57.9073 78.4098 57.6187C78.0455 57.4195 77.6784 57.1853 77.3574 56.9245C77.2782 56.8601 77.2706 56.7925 77.1722 56.7434C77.064 56.6892 76.9332 56.6326 76.8322 56.5683C76.0076 56.0436 75.1901 55.5147 74.4778 54.8418C74.1695 54.5505 73.9577 54.4091 73.5683 54.2643C73.1171 54.0964 72.6887 53.9825 72.2241 53.8598C72.1094 53.8295 72.0128 53.7312 71.8941 53.723C71.7604 53.7137 71.6327 53.6896 71.4997 53.6686C70.8874 53.572 70.2721 53.4941 69.6605 53.397C69.2113 53.3256 68.7674 53.2095 68.3143 53.1636C68.0471 53.1365 67.7738 53.1174 67.5054 53.1092C67.1652 53.0989 66.8524 53.0052 66.5173 52.9704C65.8785 52.9041 65.1297 52.8399 64.497 52.9623C64.2714 53.006 64.0535 53.0839 63.829 53.1273C63.6055 53.1706 63.3899 53.1674 63.1669 53.232C62.6279 53.388 62.0448 53.4123 61.5149 53.5942C61.2104 53.6987 60.9487 53.7959 60.6255 53.8497C60.2249 53.9165 59.7606 53.9775 59.3899 54.1496C59.258 54.2108 59.1333 54.2176 58.9915 54.2381C58.6662 54.2851 58.3586 54.4166 58.0317 54.4675C57.7637 54.5092 57.5271 54.5923 57.2529 54.5923" stroke="black" stroke-width="3" stroke-linecap="round"/>
<path d="M57.627 54.3511C57.1311 54.3511 56.6761 54.5695 56.2446 54.7852C56.0628 54.8761 55.8114 54.832 55.6102 54.832C55.3514 54.832 55.2272 55.0724 54.9824 55.0724" stroke="black" stroke-width="3" stroke-linecap="round"/>
<path d="M98.3921 86.6247C98.4531 86.5333 98.0806 86.3126 97.9849 86.2832C97.8903 86.2541 97.8217 86.1172 97.7412 86.0584C97.6696 86.0061 97.6388 85.9349 97.5733 85.876C97.4502 85.7651 97.244 85.6869 97.1033 85.5884C96.9552 85.4847 96.8234 85.3893 96.6844 85.279C96.5941 85.2073 96.5242 85.1163 96.4465 85.0338C96.2875 84.8648 96.095 84.7296 95.9137 84.5871C95.8557 84.5415 95.7641 84.5137 95.6977 84.4835C95.6582 84.4655 95.6171 84.472 95.5751 84.4704C95.5061 84.4677 95.5222 84.4246 95.4759 84.3974C95.2983 84.293 95.0896 84.2864 94.8862 84.2864C94.6954 84.2864 94.5662 84.1366 94.387 84.104C94.1715 84.0648 93.9649 83.9696 93.7389 83.9507C93.3384 83.9174 92.932 83.9712 92.5333 83.9712C92.4199 83.9712 92.3066 83.9712 92.1932 83.9712C92.136 83.9712 91.953 83.9436 91.9042 83.9843C91.861 84.0203 91.7717 84.0073 91.7188 84.0296C91.6559 84.0561 91.5557 84.1439 91.4926 84.1536C91.3256 84.1793 91.1511 84.1219 91.0036 84.2222C90.9174 84.2809 90.7974 84.3337 90.7 84.3711C90.5962 84.4111 90.5542 84.5024 90.4723 84.5492C90.3738 84.6055 90.2819 84.6958 90.195 84.774C90.1689 84.7975 90.1206 84.7836 90.0885 84.8017C89.9988 84.8521 89.9059 84.8925 89.8155 84.9418C89.7401 84.9829 89.6524 85.0274 89.5747 85.0513C89.4602 85.0865 89.3714 85.2208 89.2696 85.2848C89.1386 85.3673 89.0633 85.471 88.9456 85.568C88.7858 85.6996 88.7235 85.895 88.5004 85.9942C88.3121 86.0779 88.3011 86.3187 88.2114 86.4802C88.1608 86.5714 88.0783 86.6409 88.0144 86.724C87.9884 86.7578 87.9336 86.7526 87.9151 86.794C87.8914 86.8474 87.9093 86.8651 87.8684 86.9137C87.7731 87.0269 87.8103 87.2051 87.7254 87.3399C87.6631 87.4389 87.5841 87.5497 87.5663 87.6654C87.5604 87.7035 87.4952 87.9219 87.4743 87.9398C87.3407 88.0544 87.3851 88.3051 87.2933 88.4492C87.2563 88.5074 87.2548 88.6807 87.2525 88.747C87.2483 88.8644 87.2314 88.986 87.1999 89.1002C87.072 89.564 87.0686 90.0497 87.0686 90.5306C87.0686 90.6549 87.0202 90.8315 86.9839 90.9539C86.9575 91.043 86.9635 91.1308 86.9635 91.2239C86.9635 91.3636 86.9635 91.5032 86.9635 91.6428C86.9635 91.8217 86.9912 91.9584 87.0364 92.1303C87.0975 92.3624 87.0752 92.6255 87.1211 92.8631C87.1688 93.1101 87.1709 93.4425 87.3459 93.6425C87.3838 93.6858 87.3687 93.7468 87.4101 93.7841C87.4619 93.8307 87.4822 93.9055 87.5035 93.9694C87.5982 94.2535 87.769 94.4959 87.8699 94.7751C87.9263 94.9313 87.9667 95.1636 88.0932 95.2831C88.1765 95.3617 88.3231 95.4529 88.4231 95.5108C88.544 95.5808 88.6718 95.6967 88.7836 95.7852C89.0376 95.9862 89.2281 96.2299 89.436 96.4756C89.4772 96.5242 89.5128 96.5838 89.563 96.6215C89.6977 96.7225 89.8054 96.8422 89.9177 96.9675C90.0661 97.133 90.1724 97.1096 90.3001 96.9499" stroke="black" stroke-linecap="round"/>
<path d="M90.0898 96.6609C90.0898 96.8384 90.3372 97.0021 90.4839 97.0871C90.7011 97.2128 90.8806 97.3959 91.094 97.5221C91.489 97.7554 91.7525 98.1396 92.0749 98.462C92.1588 98.546 92.33 98.7626 92.4486 98.789C92.5074 98.8021 92.6106 98.8649 92.65 98.9116C92.7727 99.0569 92.9038 99.0996 93.0324 99.221C93.1278 99.3111 93.2572 99.3622 93.3593 99.4458C93.5489 99.6009 93.7567 99.7372 93.9403 99.907C93.9869 99.9502 94.0716 100.028 94.1256 100.052C94.2859 100.121 94.438 100.282 94.5445 100.418C94.6061 100.496 94.7211 100.569 94.8 100.63C94.8758 100.687 95.003 100.779 95.0934 100.812C95.2157 100.856 95.3151 100.989 95.4174 101.067C95.6084 101.214 95.7996 101.406 96.0231 101.502C96.1112 101.541 96.1595 101.577 96.2421 101.626C96.3143 101.67 96.4011 101.692 96.4683 101.743C96.5087 101.774 96.5375 101.825 96.5909 101.835C96.7716 101.868 96.8401 102.054 96.9894 102.139C97.1797 102.246 97.3547 102.354 97.5513 102.453C97.7318 102.543 97.9129 102.655 98.106 102.742C98.248 102.805 98.3969 102.775 98.5482 102.785C98.6914 102.795 98.78 102.888 98.9175 102.888" stroke="black" stroke-linecap="round"/>
<path d="M98.38 99.0855C98.2089 99.0855 97.8811 98.5407 97.7484 98.4081C97.6436 98.3032 97.5668 98.1956 97.4811 98.0745C97.3148 97.8398 97.0204 97.6577 96.8011 97.471C96.5165 97.2285 96.2785 97.0167 95.9964 96.7783C95.532 96.3859 94.9047 96.208 94.4303 95.8284C94.2545 95.6878 94.0036 95.605 93.7962 95.5203C93.458 95.3822 93.0493 95.1678 92.7673 94.9371C92.465 94.6897 92.1835 94.4199 91.876 94.1808C91.6967 94.0413 91.4033 93.7224 91.1605 93.7224C90.9532 93.7224 90.7407 93.6064 90.5773 93.4932C90.4064 93.3749 90.2585 93.2798 90.1291 93.1163C89.9451 92.8839 89.6487 92.8279 89.5128 92.5561C89.3246 92.1796 89.3607 91.7066 89.2938 91.2981C89.2416 90.9792 89.2582 90.6554 89.2582 90.3329C89.2582 89.8628 89.1705 89.3135 89.3728 88.8865C89.4695 88.6822 89.6364 88.519 89.7344 88.3339C89.8343 88.1452 89.9985 88.067 90.0833 87.8551" stroke="black" stroke-width="5" stroke-linecap="round"/>
<path d="M91.5967 91.2013C91.6098 91.0564 91.6926 90.8452 91.8259 90.7785C91.9817 90.7006 92.1465 90.7695 92.2919 90.8422C92.6874 91.0399 93.0942 91.2272 93.4811 91.4406C93.8497 91.644 94.2147 91.8178 94.5965 91.9932C95.1159 92.2319 95.5153 92.6131 95.9717 92.9482C96.2282 93.1366 96.5472 93.3739 96.5472 93.7224" stroke="black" stroke-width="5" stroke-linecap="round"/>
<path d="M98.3347 99.4522C98.2248 99.3301 98.1629 99.1267 98.0903 98.9836C98.0389 98.8823 97.6531 97.9446 97.4816 97.9446C97.3399 97.9446 97.1357 97.9855 97.0156 98.0567C96.8989 98.1258 96.7309 98.0427 96.6107 98.0337C96.1372 97.9987 95.8468 97.7944 95.5182 97.4659C95.4151 97.3627 95.2102 97.2668 95.0802 97.1959C94.8985 97.0968 94.7277 96.976 94.5531 96.8649C94.2255 96.6564 93.8515 96.4663 93.5675 96.1977C93.2212 95.8701 92.7663 95.6767 92.3961 95.3828C92.2448 95.2626 91.9826 95.0878 91.8715 94.9244C91.8317 94.8658 91.7611 94.6687 91.706 94.6443C91.6014 94.5977 91.5011 94.5821 91.459 94.4558" stroke="black" stroke-width="5" stroke-linecap="round"/>
<path d="M99.3425 92.6681C98.8378 92.6681 98.3288 92.6872 97.8248 92.6579C97.4489 92.6361 97.3617 92.5831 97.127 92.3319C96.6537 91.8256 96.3521 91.2936 95.7366 90.9211C95.4703 90.76 95.3179 90.6421 95.0184 90.5391C94.4742 90.3521 93.9133 90.1425 93.4701 89.765C93.2294 89.56 93.0374 89.2867 92.8335 89.0469C92.6673 88.8513 92.6435 88.4427 92.5483 88.2065C92.4411 87.9407 92.4012 87.6277 92.2834 87.3712C92.2303 87.2557 92.1961 87.0829 92.1357 86.9841C92.1056 86.9348 91.8767 86.86 92.044 86.8466C92.1355 86.8393 92.212 86.8008 92.3089 86.8008C92.4244 86.8008 92.6151 86.766 92.7189 86.8237C92.8255 86.883 92.9437 86.8976 93.0576 86.9383C93.1642 86.9764 93.2701 87.0925 93.3632 87.1191C93.539 87.1694 93.6407 87.3453 93.8241 87.4018C94.1168 87.4918 94.3723 87.694 94.6008 87.8602C94.7677 87.9815 94.9526 88.0744 95.1127 88.2039C95.2909 88.3482 95.5409 88.4081 95.7009 88.5681C96.0835 88.9507 96.6836 89.0855 97.1245 89.3906C97.2703 89.4916 97.3765 89.6192 97.509 89.737C97.6718 89.8817 97.8779 89.978 98.0616 90.096C98.6146 90.4515 99.4107 90.4314 100.03 90.4678" stroke="black" stroke-width="5" stroke-linecap="round"/>
<path d="M68.4521 103.42C68.4521 103.689 68.5594 104.03 68.6964 104.255C68.9142 104.614 68.9049 105.042 69.0195 105.453C69.1405 105.887 69.2041 106.34 69.3347 106.769C69.38 106.918 69.4997 107.093 69.516 107.234C69.5708 107.709 69.8491 108.13 69.8706 108.613C69.8939 109.137 70.2035 109.603 70.3513 110.087C70.454 110.423 70.5365 110.755 70.6665 111.08C70.8406 111.515 70.9294 112.028 71.2733 112.372C71.5979 112.697 72.0386 112.895 72.4514 113.093C72.6503 113.189 72.8954 113.257 73.0779 113.381C73.3004 113.532 73.6019 113.613 73.799 113.775C73.9692 113.915 74.1658 113.951 74.3388 114.074C74.5521 114.227 74.7437 114.407 75.0007 114.48C75.3294 114.574 75.5699 115.002 75.903 115.126C76.2348 115.251 76.6927 115.554 76.9314 115.792C77.2562 116.117 77.8885 116.302 78.3184 116.439C78.7197 116.566 79.0466 116.717 79.4689 116.785C79.802 116.839 80.1553 117 80.4736 117.033C80.6916 117.056 80.9137 117.093 81.1316 117.108C81.2973 117.12 81.3318 117.25 81.5335 117.25C82.1357 117.25 82.7317 117.321 83.3381 117.321C84.1735 117.321 85.0088 117.321 85.8441 117.321C86.4141 117.321 86.9841 117.321 87.5541 117.321C87.8161 117.321 87.9921 117.061 88.2397 117.037C88.6245 117.001 88.8862 116.761 89.2169 116.541C89.5919 116.291 90.0864 116.202 90.4226 115.918C90.863 115.547 91.6187 115.609 91.9986 115.138C92.1303 114.975 92.3987 114.844 92.566 114.701C92.7341 114.557 92.9016 114.4 93.031 114.216C93.2712 113.875 93.6034 113.643 93.8821 113.349C93.944 113.284 93.935 113.181 94.0003 113.113C94.1369 112.971 94.3347 112.848 94.4849 112.715C94.7586 112.474 95.0038 112.46 95.0523 112.096C95.0823 111.871 95.1987 111.676 95.2454 111.458C95.3057 111.177 95.3142 110.881 95.4384 110.619C95.6123 110.252 95.985 109.632 96.325 109.413C96.5284 109.282 96.6643 108.923 96.7505 108.708C96.8373 108.491 96.8824 108.252 96.9948 108.046C97.094 107.864 97.2553 107.715 97.31 107.51C97.413 107.124 97.6725 106.791 97.6725 106.367C97.6725 105.951 97.7088 105.505 97.8498 105.111C98.0002 104.689 97.8821 104.282 98.098 103.85C98.3854 103.275 98.3108 102.496 98.3108 101.86" stroke="black" stroke-width="3" stroke-linecap="round"/>
<path d="M90.5853 96.7103C90.5853 96.7822 90.6416 96.792 90.6448 96.8492C90.6498 96.9399 90.6426 96.9352 90.6999 96.9925C90.7648 97.0574 90.6657 97.0476 90.625 97.0476C90.5549 97.0476 90.4795 96.9926 90.4266 96.9473C90.3337 96.8677 90.3824 96.9257 90.4067 96.9804C90.4378 97.0502 90.4946 97.0403 90.5555 97.0674C90.5813 97.0789 90.6944 97.1468 90.6349 97.1468C90.5794 97.1468 90.5183 97.1356 90.4861 97.0873" stroke="black" stroke-linecap="round"/>
<path d="M90.2285 96.8096C90.2635 96.8139 90.2788 96.8611 90.288 96.8889" stroke="black" stroke-linecap="round"/>
<line x1="16.611" y1="111.337" x2="71.669" y2="96.5513" stroke="black" stroke-width="3"/>
<line x1="16.3947" y1="72.5529" x2="71.3947" y2="87.5529" stroke="black" stroke-width="3"/>
<line x1="14.0112" y1="92.5" x2="71.0184" y2="92.9244" stroke="black" stroke-width="3"/>
<path d="M46.8075 49.5936C46.7524 49.4678 46.8819 49.186 46.898 49.0487C46.9069 48.9732 46.926 48.9095 46.926 48.8314C46.926 48.6525 47.0077 48.4931 47.0149 48.3194C47.0278 48.0094 47.0149 47.6964 47.0149 47.3859C47.0149 47.2279 46.9959 47.0835 47.0726 46.9431C47.1805 46.7451 47.0389 46.4022 47.2108 46.2302C47.4827 45.9584 47.7918 45.9191 48.1575 45.9191C48.315 45.9191 48.4738 45.9103 48.6299 45.9339C48.733 45.9495 48.7853 45.9752 48.8736 46.0064C49.0623 46.0729 49.276 46.0391 49.4679 46.0903C49.7026 46.1529 49.9319 46.2102 50.1676 46.2731C50.2922 46.3063 50.6857 46.2446 50.7636 46.3224C50.8994 46.4583 51.1313 46.3885 51.3118 46.4591C51.4091 46.4972 51.5213 46.4911 51.6246 46.5118C51.7644 46.5397 51.8706 46.6007 52.0131 46.6007C52.27 46.6007 52.5023 46.6599 52.7572 46.6599C52.8763 46.6599 52.9958 46.6303 53.1194 46.6303" stroke="black" stroke-width="2" stroke-linecap="round"/>
<path d="M43.3398 62.6619C43.3398 62.352 43.5081 61.9635 43.6658 61.7038C43.7433 61.5762 43.6883 61.4688 43.7284 61.3284C43.743 61.2774 43.7932 61.2376 43.814 61.1869C43.8483 61.1029 43.8521 61.0099 43.8798 60.9234C43.9416 60.7306 43.9995 60.5378 44.0576 60.344C44.0938 60.2233 44.0807 60.0919 44.0807 59.967C44.0807 59.8272 44.1242 59.751 44.1696 59.6262C44.2282 59.4651 44.3113 59.2556 44.3177 59.0829C44.3217 58.9755 44.4203 58.8797 44.4379 58.7652C44.4517 58.6753 44.4943 58.5523 44.5252 58.4688C44.6208 58.2107 44.5512 57.9169 44.6174 57.6523C44.6521 57.5132 44.7286 57.3771 44.7557 57.239C44.7987 57.0197 44.8784 56.8177 44.9236 56.6003C45.0794 55.8501 45.1496 55.1049 45.2512 54.3531C45.2977 54.0088 45.6116 53.7197 45.6216 53.3702C45.6252 53.2459 45.6586 53.124 45.6809 53.0015C45.7099 52.8421 45.7292 52.6562 45.7994 52.5109C45.8772 52.3497 45.9428 52.1034 45.9706 51.9281C45.9825 51.8532 45.9632 51.7706 45.9838 51.6976C46.0073 51.6143 46.0845 51.5471 46.0957 51.4605C46.1374 51.1413 46.3032 50.8815 46.3032 50.5633C46.3032 50.1964 46.5402 49.8987 46.5402 49.5344" stroke="black" stroke-width="2" stroke-linecap="round"/>
<path d="M47.1628 76.9749C47.1628 76.8712 47.2019 76.686 47.1036 76.6423C46.9657 76.581 46.931 76.5524 46.8896 76.4019C46.8451 76.2407 46.8665 76.0526 46.8665 75.885C46.8665 75.5223 46.8665 75.1595 46.8665 74.7968C46.8665 74.319 46.9289 73.7903 46.8435 73.3201C46.7954 73.0559 46.8369 72.7454 46.8369 72.4772C46.8369 72.1286 46.8665 71.7794 46.8665 71.4334C46.8665 71.2501 46.9948 69.87 46.8665 69.8629C46.7552 69.8567 46.6839 69.7167 46.636 69.6258C46.6087 69.5739 46.5738 69.5142 46.534 69.471C46.4516 69.3818 46.4436 69.4059 46.3282 69.3723C46.2151 69.3393 46.0492 69.3419 45.9627 69.2554C45.9188 69.2115 45.8797 69.1517 45.8129 69.1517C45.7088 69.1517 45.5564 69.0584 45.4672 69.0035C45.3106 68.9071 45.2223 68.9395 45.0457 68.908C44.7727 68.8593 44.508 68.7275 44.2423 68.6792C44.054 68.6449 43.8173 68.631 43.6661 68.5014C43.5675 68.4168 43.3849 68.4948 43.2661 68.4684C43.1409 68.4406 43.0226 68.4506 42.8923 68.4388C42.8101 68.4313 42.6927 68.4289 42.6125 68.4075C42.5314 68.3859 42.4907 68.3219 42.4083 68.3219C42.2744 68.3219 42.1405 68.3219 42.0066 68.3219C41.951 68.3219 41.7124 68.5252 41.8157 68.3334C41.869 68.2343 41.9177 68.1421 41.9177 68.0272C41.9177 67.9418 41.9143 67.8885 41.9638 67.8165C42.0862 67.6385 42.1808 67.425 42.1844 67.2057C42.1886 66.9509 42.2607 66.7072 42.2733 66.455C42.2857 66.2077 42.4319 66.0171 42.4808 65.785C42.5179 65.6085 42.4682 65.3831 42.5532 65.2252C42.5979 65.1422 42.6105 65.0484 42.6438 64.9618C42.6667 64.9022 42.7115 64.7963 42.7178 64.7363C42.7349 64.5741 42.8281 64.4201 42.8364 64.2621C42.8407 64.1792 42.866 64.1018 42.866 64.0185C42.866 63.9131 42.9378 63.883 42.9845 63.8012C43.0626 63.6646 43.1191 63.554 43.1623 63.4028C43.1982 63.2773 43.2042 63.0646 43.2809 62.9879" stroke="black" stroke-width="2" stroke-linecap="round"/>
<path d="M46.3304 87.2818C46.3304 86.9929 46.2017 86.7594 46.2951 86.4558C46.3646 86.2301 46.438 85.8854 46.2951 85.671C46.1749 85.4908 46.2245 85.2097 46.2245 85C46.2245 84.6982 46.1538 84.3973 46.1538 84.0975C46.1538 83.5689 46.0587 83.0177 46.1205 82.4926C46.1452 82.282 46.2736 82.083 46.2951 81.8784C46.3185 81.6556 46.3304 81.436 46.3304 81.2074C46.3304 80.9271 46.3598 80.6477 46.3657 80.3716C46.3758 79.8986 46.4626 79.4526 46.4717 78.9786C46.4829 78.3931 46.5626 77.8319 46.7895 77.2874" stroke="black" stroke-width="2" stroke-linecap="round"/>
<path d="M63.1402 96.9231C63.0046 96.9231 62.8852 96.9584 62.7518 96.9584C62.6232 96.9584 62.5427 97.0291 62.4163 97.0291C62.1684 97.0291 61.9205 97.0291 61.6727 97.0291C60.8403 97.0291 60.0299 97.0997 59.1947 97.0997C58.9921 97.0997 58.6874 97.1564 58.4981 97.0644C58.2484 96.9429 57.9775 96.864 57.7094 96.8152C57.2161 96.7255 56.7199 96.6617 56.2399 96.5189C56.0058 96.4494 55.8271 96.3819 55.6258 96.2678C55.4999 96.1965 55.2809 96.1625 55.1392 96.1265C55.0383 96.101 54.8785 96.1079 54.8037 96.0206C54.7251 95.929 54.4882 95.9211 54.3819 95.8774C54.2261 95.8134 54.0337 95.7523 53.8874 95.6792C53.7345 95.6027 53.6216 95.5051 53.444 95.4477C53.222 95.3758 52.9107 95.3412 52.7436 95.1612C52.6744 95.0868 52.5487 95.1281 52.4571 95.0808C52.3655 95.0335 52.2564 94.969 52.1883 94.8924C51.9994 94.6799 51.6289 94.5618 51.38 94.4235C51.2558 94.3545 51.1668 94.2454 51.0229 94.1842C50.8728 94.1203 50.7052 94.0587 50.5677 93.9703C50.4994 93.9264 50.477 93.8345 50.4107 93.78C50.3503 93.7302 50.2657 93.6684 50.2224 93.6034C50.1498 93.4945 49.9483 93.4234 49.8418 93.3562C49.6925 93.262 49.5456 93.0952 49.4415 92.952C49.2891 92.7425 49.1447 92.5378 48.9863 92.332C48.8457 92.1492 48.7254 91.9736 48.5547 91.8199C48.4319 91.7094 48.1098 91.5491 48.0956 91.3785C48.079 91.1789 47.9436 91.0073 47.8327 90.833C47.7348 90.6792 47.6174 90.5124 47.5384 90.3543C47.4655 90.2086 47.37 90.0362 47.3186 89.8756C47.2866 89.7754 47.2205 89.7124 47.195 89.6107C47.18 89.5504 47.2074 89.3844 47.1695 89.338C46.9758 89.1012 46.8773 88.7188 46.7889 88.4276C46.6405 87.9389 46.711 87.422 46.6123 86.9286" stroke="black" stroke-width="2" stroke-linecap="round"/>
<path d="M90.086 94.2228C89.9671 94.2228 89.8156 94.1937 89.711 94.2553C89.6312 94.3022 89.6695 94.3479 89.5535 94.3479C89.44 94.3479 89.3233 94.3398 89.2109 94.3571C88.6207 94.4479 87.985 94.5018 87.3865 94.5146C86.176 94.5403 84.9989 94.7646 83.7841 94.7646C82.9769 94.7646 82.1697 94.7646 81.3625 94.7646C81.1248 94.7646 80.8871 94.7646 80.6494 94.7646C80.4364 94.7646 80.2234 94.7646 80.0104 94.7646C79.728 94.7646 79.4777 94.8224 79.2094 94.8479C78.9313 94.8744 78.68 94.8733 78.4685 95.0656C78.3717 95.1536 78.2129 95.2094 78.0842 95.223C77.9611 95.236 77.8667 95.3311 77.7416 95.3573C77.592 95.3886 77.4714 95.448 77.3341 95.5147C77.1152 95.621 76.9364 95.6288 76.6998 95.649C76.2808 95.6846 75.7934 95.7359 75.4172 95.9129C75.3087 95.9639 75.1433 95.9289 75.0282 95.9314C74.8861 95.9346 74.7558 96.0203 74.6207 96.0564C74.1855 96.1729 73.7318 96.208 73.2965 96.3296C73.1827 96.3614 73.1119 96.4206 72.9909 96.4408C72.7321 96.4839 72.5274 96.6459 72.2732 96.6908C71.8564 96.7644 71.4495 96.9016 71.0322 96.9871C70.4451 97.1075 69.8828 97.2156 69.3237 97.3715C68.7407 97.5339 68.1378 97.4707 67.5503 97.5752C67.2486 97.6288 66.9529 97.6928 66.652 97.7558C66.4811 97.7915 66.2788 97.6562 66.1149 97.6076C65.986 97.5694 65.8003 97.5641 65.6657 97.5567C65.5611 97.5509 65.2553 97.5225 65.1749 97.4641C65.0417 97.3672 64.8774 97.3594 64.7165 97.3483C64.5298 97.3354 64.4499 97.1816 64.2488 97.1816C63.8917 97.1816 63.332 97.1433 63.332 96.6815" stroke="black" stroke-width="2" stroke-linecap="round"/>
<path d="M122.577 95.6281C122.088 95.6281 121.634 95.5866 121.151 95.5104C120.88 95.4678 120.607 95.4209 120.335 95.3891C120.229 95.3767 119.996 95.4007 119.905 95.3487C119.702 95.2331 119.345 95.2641 119.103 95.2641C118.749 95.2641 118.389 95.2311 118.03 95.2311C117.916 95.2311 117.908 95.1294 117.813 95.1024C117.734 95.0798 117.629 95.0987 117.547 95.0987C117.435 95.0987 117.325 95.0497 117.214 95.0325C116.956 94.9929 116.722 94.9664 116.458 94.9664C116.069 94.9664 115.64 94.9047 115.258 94.8267C114.503 94.6722 113.717 94.5694 112.935 94.5694C112.499 94.5694 112.062 94.5694 111.626 94.5694C111.118 94.5694 110.615 94.4928 110.112 94.4223C109.54 94.3423 108.916 94.4039 108.34 94.4039C107.698 94.4039 107.056 94.4039 106.413 94.4039C106.119 94.4039 105.818 94.388 105.524 94.4039C105.408 94.4102 105.235 94.4826 105.127 94.5289C105.01 94.5788 104.91 94.5694 104.781 94.5694C104.06 94.5694 103.339 94.5694 102.618 94.5694C100.868 94.5694 99.1182 94.5363 97.3702 94.5363C97.1509 94.5363 96.9315 94.5363 96.7122 94.5363C96.59 94.5363 96.4931 94.4701 96.374 94.4701C96.1205 94.4701 95.8682 94.437 95.613 94.437C94.9139 94.437 94.2149 94.437 93.5158 94.437C92.9752 94.437 92.4266 94.4039 91.891 94.4039C91.7586 94.4039 91.6263 94.4039 91.4939 94.4039C91.2314 94.4039 90.8401 94.4823 90.6172 94.3708" stroke="black" stroke-width="2" stroke-linecap="round"/>
<path d="M53.3311 44.9666C53.3311 44.5886 53.4032 44.2627 53.4379 43.898C53.4764 43.4938 53.8372 43.4754 53.8372 42.9925C53.8372 41.8949 53.8806 40.8012 53.9385 39.7023C53.9672 39.1557 54.6234 38.7715 54.7427 38.2344C54.9117 37.4742 55.239 36.8415 55.4345 36.1028C55.8024 34.7132 57.0933 33.6697 58.1454 32.8408C59.8902 31.4661 61.7842 31.5022 63.9834 31.5022C67.7179 31.5022 71.4261 31.401 75.1643 31.401C75.723 31.401 76.2817 31.401 76.8403 31.401C78.1117 31.401 79.1858 31.7302 80.4286 31.8959C81.3078 32.0131 82.1373 31.9522 82.9933 31.9071C83.9037 31.8592 84.8015 31.8059 85.7154 31.8059C86.5867 31.8059 87.4087 31.5022 88.3025 31.5022C91.4076 31.5022 94.5088 31.401 97.6163 31.401C99.428 31.401 101.392 31.2039 103.184 31.4797C104.151 31.6284 105.215 32.1767 106.216 31.8059C107.283 31.4107 108.904 31.7047 110.046 31.7047C111.306 31.7047 112.565 31.7047 113.825 31.7047C115.683 31.7047 117.515 31.5022 119.382 31.5022C121.453 31.5022 123.793 32.2239 125.811 32.7283C126.244 32.8366 126.649 33.0438 127.132 33.0207C127.353 33.0103 128.727 32.7382 127.987 32.717C127.199 32.6945 126.43 32.6158 125.636 32.6158C124.895 32.6158 124.639 32.2936 123.949 32.1096C123.086 31.8794 124.638 31.8059 125.006 31.8059C126.175 31.8059 127.463 31.9069 128.606 31.6991C130.078 31.4314 131.648 31.5022 133.156 31.5022C133.583 31.5022 134.804 31.2819 135.107 31.5247C135.305 31.6831 136.107 31.9829 135.981 31.9211" stroke="black" stroke-width="4" stroke-linecap="round"/>
<path d="M80.5 87C80.5 90.0945 78.6185 92.9573 75.4506 95.0693C72.2861 97.1789 67.8856 98.5 63 98.5C58.1144 98.5 53.7139 97.1789 50.5494 95.0693C47.3815 92.9573 45.5 90.0945 45.5 87C45.5 83.9055 47.3815 81.0427 50.5494 78.9307C53.7139 76.8211 58.1144 75.5 63 75.5C67.8856 75.5 72.2861 76.8211 75.4506 78.9307C78.6185 81.0427 80.5 83.9055 80.5 87Z" stroke="black"/>
<rect x="52.5" y="29.5" width="94" height="20" rx="10" stroke="black"/>
<path d="M143.994 71.2781C143.994 73.4188 144.184 75.6329 144.184 77.8135C144.184 78.2239 144.184 78.6343 144.184 79.0448C144.184 79.6636 143.845 80.0607 143.805 80.6023C143.725 81.6809 143.805 82.7924 143.805 83.8752C143.805 84.698 143.345 85.7559 142.763 86.3378C142.011 87.09 140.932 88.1813 140.016 88.6636C138.671 89.3713 136.884 89.0846 135.375 89.0846C134.361 89.0846 133.398 89.7671 132.312 89.716C130.042 89.6092 128.028 89.2928 125.83 88.8531C124.949 88.6769 124.213 87.948 123.251 87.948C121.717 87.948 120.18 87.7586 118.631 87.7586C116.038 87.7586 113.442 87.948 110.833 87.948C108.806 87.948 106.971 87.2225 104.971 87.1903C103.548 87.1673 102.122 87.1903 100.699 87.1903C97.9308 87.1903 95.163 87.1903 92.3952 87.1903C90.8569 87.1903 89.4659 87.5028 87.9436 87.7796C86.2936 88.0796 84.5724 87.948 82.9026 87.948C82.5841 87.948 82.3452 87.9249 82.0502 87.8007C81.4416 87.5444 80.3827 87.7586 79.756 87.7586C77.8511 87.7586 75.9463 87.7586 74.0415 87.7586C73.5775 87.7586 73.0215 87.5881 72.8102 88.0953C72.7561 88.225 72.6261 88.4621 72.4734 88.5058C72.1863 88.5878 71.7577 88.5163 71.4736 88.5163C69.7055 88.5163 67.9245 88.4545 66.159 88.5584C65.6045 88.591 65.48 88.7719 65.0856 88.8846C64.191 89.1402 62.9014 88.8952 61.9916 88.8952C61.4363 88.8952 58.0501 89.3991 60.0657 88.8952C60.5287 88.7794 60.9195 88.7346 61.4022 88.6636C61.9572 88.582 62.4679 88.1374 63.0124 88.1374C63.4451 88.1374 64.6938 89.9314 65.0014 90.3159C65.424 90.8441 67.2682 90.6754 67.885 90.5579C68.9755 90.3502 70.2277 90.0871 71.1474 89.474C71.5268 89.221 70.2353 89.4635 69.7793 89.4635C68.8812 89.4635 67.9832 89.4635 67.0851 89.4635C66.5479 89.4635 66.233 89.9546 65.7591 90.1791C65.1678 90.4592 64.5972 90.6 63.949 90.6C62.9823 90.6 62.3809 90.0813 61.5075 89.8318C60.8544 89.6452 60.0403 88.9223 59.3606 88.8952C58.7257 88.8698 57.8228 88.7208 57.4663 88.1374C57.2603 87.8004 56.6502 87.9828 56.2876 87.8533C55.4058 87.5384 55.4488 86.766 55.1405 85.9695C55.0179 85.653 54.6517 85.3228 54.5932 85.0013C54.4867 84.4157 54.5905 83.7394 54.5827 83.1491C54.5674 81.9865 54.3933 80.83 54.3933 79.6551C54.3933 78.0525 54.334 76.4366 54.3933 74.8352C54.429 73.8716 55.151 72.9895 55.151 71.9411C55.151 70.9243 55.0355 69.8342 55.1615 68.826C55.2441 68.1653 55.7751 66.5281 54.9616 66.1214C54.3754 65.8283 53.9752 65.9896 53.4461 65.4899C52.7749 64.856 52.6302 64.8614 51.8465 64.6375C51.5274 64.5463 51.486 63.7096 51.2361 63.4693C50.3369 62.6047 50.9584 63.4341 50.9835 61.9539C51.0136 60.1768 51.2346 58.8228 51.636 57.1023C52.3131 54.2005 52.3268 50.7724 54.267 48.3359C55.9925 46.169 59.6239 45.915 61.2338 43.5896C62.0343 42.4334 63.2075 41.3401 63.5281 39.9378C63.9177 38.233 66.0083 38.5281 67.4851 38.3171C71.3487 37.7652 75.272 38.2474 79.1245 37.7067C83.9867 37.0243 89.0425 37.37 93.9422 37.37C98.5461 37.37 103.138 37.1805 107.739 37.1805C111.173 37.1805 114.518 37.3319 117.874 36.728C119.491 36.4369 121.327 36.6122 122.967 36.6122C126.053 36.6122 129.351 36.5894 132.355 37.37C134.187 37.846 135.712 38.0926 136.88 39.7273C137.241 40.2323 137.75 40.5981 138.132 41.0954C139.347 42.6744 139.904 44.6459 140.711 46.4416C141.708 48.6598 143.255 50.8394 143.91 53.1769C144.365 54.8038 144.373 56.3329 144.373 58.0179C144.373 58.8879 144.373 59.7579 144.373 60.6279C144.373 63.3035 141.806 64.4628 140.058 66.0793C138.723 67.3135 137.592 68.0616 135.975 68.8786C134.466 69.6406 133.147 70.2917 132.06 71.5728C130.857 72.9901 130.166 75.8522 130.166 77.7082C130.166 79.4337 129.766 80.4246 127.85 80.7496C125.883 81.0833 123.592 81.1145 121.62 80.8128C119.272 80.4535 117.077 79.4439 114.727 79.0658C112.877 78.7682 110.995 78.8553 109.128 78.8553C106.517 78.8553 103.898 78.7955 101.288 78.8553C99.3127 78.9006 97.4191 79.5644 95.4156 79.6025C93.2636 79.6435 91.1062 79.624 88.9539 79.613C82.3 79.5793 75.6775 78.9144 69.0531 78.487C66.58 78.3274 64.7607 77.5902 62.7914 75.9928C61.2575 74.7487 59.5954 71.5495 61.739 70.1205C62.9011 69.3457 65.0228 69.7626 66.3064 69.7626C69.7221 69.7626 73.1417 69.7133 76.5567 69.7837C80.6794 69.8687 84.7695 70.4873 88.8907 70.5204C93.2239 70.5552 97.5176 70.9374 101.846 71.0571C106.51 71.1861 111.186 71.2781 115.853 71.2781C117.039 71.2781 118.224 71.2781 119.41 71.2781C120.402 71.2781 121.651 71.4528 122.599 71.0466C124.312 70.3126 125.83 68.9836 127.261 67.8262C128.626 66.7229 129.719 65.1696 130.923 63.8798C131.595 63.1605 131.99 62.6947 130.734 62.6064C128.841 62.4733 126.917 62.5643 125.019 62.5643C115.088 62.5643 105.157 62.5643 95.2262 62.5643C86.2464 62.5643 77.2611 62.4613 68.2849 62.7537C65.8483 62.8331 63.4186 62.9431 60.9813 62.9431C58.5598 62.9431 56.0602 63.0778 53.6356 62.9431C53.5314 62.9373 52.7264 62.715 52.6884 62.6485C52.4057 62.1537 51.7685 62.5643 52.7936 62.5643C54.6356 62.5643 56.3781 60.4643 57.7399 59.4281C59.8015 57.8595 62.7074 57.5443 65.0014 56.3972C68.2181 54.7889 71.9644 54.987 75.4622 54.987C81.2118 54.987 86.9614 54.987 92.7109 54.987C97.7139 54.987 102.451 55.0385 107.392 55.85C113.932 56.9242 120.452 56.9501 127.051 57.2602C131.25 57.4576 135.687 57.7503 139.806 58.6704C141.81 59.1182 144.26 59.1491 145.278 61.3119C145.663 62.1311 145.506 63.0888 145.93 63.8903C146.16 64.3229 146.448 64.4586 146.33 64.4586C145.154 64.4586 143.901 63.5508 142.984 62.901C141.218 61.6503 139.796 60.1811 137.827 59.1966C136.127 58.3467 136.228 56.461 135.049 55.1344C133.972 53.9236 132.645 52.6263 131.87 51.1879C130.819 49.2347 129.338 48.5587 127.198 47.7466C124.974 46.9026 122.954 46.5472 120.557 46.4837C116.178 46.3677 111.813 46.0574 107.434 45.9364C98.8844 45.7003 90.3077 45.8944 81.7555 45.8944C79.2594 45.8944 76.767 45.9103 74.2835 46.189C73.7727 46.2464 69.6757 46.4641 71.3789 47.2625C73.306 48.1658 75.3698 48.8665 77.367 49.5988C80.8182 50.8642 84.2062 52.2433 87.6068 53.64C91.3452 55.1754 94.8432 56.7422 98.8464 57.5338C103.898 58.5326 108.897 59.7937 113.959 60.7331C115.382 60.9972 116.729 61.0488 118.168 61.0488C121.595 61.0488 124.72 61.2161 128.019 62.1433C130.707 62.8989 133.435 63.2819 136.185 63.5535C136.973 63.6313 138.039 63.5676 138.753 63.9324C139.116 64.1179 139.166 64.2185 139.563 64.2797C140.307 64.394 142.212 64.2125 142.668 64.6691C142.902 64.9026 142.964 65.3251 143.247 65.4899C143.599 65.6951 144.032 65.7503 144.394 65.953C145.19 66.398 145.86 66.9912 146.267 65.974" stroke="black" stroke-width="13" stroke-linecap="round"/>
<path d="M65.604 75.6705C65.604 76.2719 64.3556 76.0626 63.9894 76.388C63.4142 76.8994 63.1114 77.4032 62.357 77.7514C61.9463 77.9409 61.3569 77.9703 61.0026 78.2537C60.8699 78.3598 60.8514 78.5003 60.6797 78.5766C60.1802 78.7986 61.2193 78.7347 61.3345 78.738C61.8028 78.7518 62.2664 79.2076 62.6261 79.4646C63.1176 79.8156 63.7715 79.8172 64.2406 80.2629C64.6519 80.6536 64.8923 81.3339 65.3169 81.6442C66.0324 82.167 66.8235 82.7175 67.5414 83.1331C67.97 83.3813 67.9349 84.0659 68.519 84.0659C69.7457 84.0659 71.0174 84.43 72.2414 84.5413C72.9021 84.6014 73.5882 84.5503 74.2506 84.5503C74.5737 84.5503 75.8045 84.3469 76.0624 84.622C76.462 85.0483 77.6752 85.0067 78.224 85.0257C80.9066 85.1182 83.6235 85.0655 86.3056 85.0346C86.9794 85.0269 87.6566 84.9685 88.3237 84.8732C88.6248 84.8302 88.8347 84.6021 89.113 84.5593C89.8063 84.4526 90.5725 84.5503 91.2747 84.5503C91.999 84.5503 92.3649 84.632 92.9789 84.8553C93.4691 85.0335 94.0553 85.1961 94.5844 85.1961C96.0795 85.1961 97.5742 85.3575 99.0781 85.3575C100.459 85.3575 101.841 85.3575 103.222 85.3575C105.525 85.3575 107.763 84.8732 110.057 84.8732C113.268 84.8732 116.642 85.1118 119.816 84.631C120.464 84.5327 121.452 84.3155 122.112 84.3888C122.372 84.4177 122.797 84.8726 123.081 84.9988C123.856 85.3432 124.819 85.2478 125.583 84.9539C126.827 84.4753 128.006 84.6192 128.884 83.6533C129.572 82.8961 130.593 82.1129 131.476 81.6083C132.272 81.1536 133.062 80.8083 133.934 80.5499C134.286 80.4455 134.802 80.5013 135.109 80.2629C135.494 79.9633 135.846 80.1671 136.239 79.9489C136.708 79.6883 136.947 78.1099 137.127 77.5272C137.5 76.314 137.611 75.2544 137.611 73.9663C137.611 73.256 137.241 72.6281 137.127 71.9123C136.997 71.102 136.716 70.1284 136.32 69.4098C135.972 68.7801 135.651 68.0637 135.441 67.3737C135.266 66.8 134.951 66.3426 134.786 65.813C134.582 65.1596 134.097 64.6461 134.059 63.9563C134.009 63.0261 133.5 62.0752 133.333 61.1399C133.026 59.424 132.617 57.612 132.05 55.9734C131.543 54.5076 130.75 53.0821 129.987 51.7398C129.487 50.8591 129.375 49.7961 129.054 48.8337C128.789 48.0393 128.321 46.7944 128.256 45.9545C128.126 44.2672 127.304 43.7807 125.834 43.6942C125.142 43.6535 124.716 43.2803 124.103 43.0574C122.428 42.4481 120.549 42.4765 118.847 41.8913C117.719 41.5037 116.521 41.1199 115.349 41.1199C113.92 41.1199 112.491 41.1199 111.061 41.1199C102.346 41.1199 93.6582 40.9585 84.9422 40.9585C82.6678 40.9585 80.2336 40.4143 78.1164 41.2904C77.0409 41.7354 75.761 42.0528 74.8067 42.7345C74.3531 43.0584 73.8074 43.1045 73.2818 43.2547C72.5951 43.4509 72.1411 44.1112 71.4162 44.1875C71.025 44.2287 70.9318 44.585 70.9318 44.932C70.9318 45.9264 70.8187 46.7647 70.4834 47.7036C70.0277 48.9794 69.0902 50.305 68.4383 51.5156C67.5789 53.1117 67.141 54.8273 66.7341 56.5565C66.4934 57.5793 66.4112 57.3437 66.4112 56.4578C66.4112 55.927 66.3075 55.3274 66.5368 54.8433C67.0164 53.8308 67.4827 52.8609 67.8643 51.8116C68.0173 51.3909 68.1872 50.8807 68.1872 50.4303C68.1872 49.4988 68.2285 52.4089 67.7118 53.1839C67.4168 53.6264 66.9344 54.1543 66.8956 54.7177C66.8413 55.5052 66.2786 56.1272 66.2498 56.9063C66.2139 57.8752 65.965 58.8837 65.4425 59.7048C65.0909 60.2573 65.0567 60.9458 64.7249 61.4987C64.2986 62.2093 63.9666 62.983 63.819 63.7949C63.6612 64.6628 63.086 65.5509 63.0207 66.4319C62.9278 67.6864 62.1643 68.5249 61.765 69.643C61.4553 70.51 61.2093 71.658 61.0923 72.5939C61.0024 73.3129 60.7425 73.8927 60.4016 74.5403C60.3541 74.6306 59.684 75.1532 59.8635 75.2579C60.2489 75.4827 60.9747 75.3476 61.4062 75.3476C62.5065 75.3476 63.6067 75.3476 64.707 75.3476C69.2483 75.3476 73.7823 75.3121 78.3227 75.222C90.597 74.9783 102.893 75.1861 115.169 75.1861C116.16 75.1861 117.193 75.3184 118.12 74.9081C119.339 74.369 120.418 73.9698 121.753 73.8138C123.015 73.6663 124.478 73.849 125.673 73.4012C126.112 73.2364 127 72.5025 126.848 71.9392C126.555 70.8534 125.184 70.181 124.3 69.6788C122.363 68.5773 120.364 67.8036 118.183 67.3557C111.507 65.9848 104.529 66.3063 97.7507 66.3063C91.2205 66.3063 84.697 66.3883 78.1971 65.6246C75.4293 65.2994 72.684 64.8365 69.9093 64.5573C69.5346 64.5195 67.463 64.7073 67.3889 63.9294C67.2311 62.2722 67.5878 61.1144 68.7612 59.92C70.2769 58.3773 72.5376 57.2427 74.6632 56.8973C77.934 56.3658 80.9384 57.3775 84.117 57.8929C86.0101 58.1999 87.8658 58.6815 89.7499 59.041C93.6123 59.778 97.5263 60.1223 101.446 60.3864C106.228 60.7087 111.079 60.4941 115.869 60.4941C117.566 60.4941 119.266 60.5183 120.964 60.4941C122.503 60.4721 123.043 60.2744 122.076 58.8796C121.63 58.2359 121.055 57.6689 120.757 56.9332C120.407 56.067 120.216 55.2376 119.484 54.5921C117.536 52.8761 114.322 52.5332 111.887 52.1435C107.554 51.4502 103.163 51.6143 98.7911 51.6143C94.0242 51.6143 89.2001 51.7769 84.4399 51.4169C82.9636 51.3053 81.1916 51.5899 79.8117 51.1299" stroke="#E0353F" stroke-width="13" stroke-linecap="round"/>
<path d="M66.1318 36.849L53.4038 72.0944" stroke="#E0353F"/>
<line x1="53.2397" y1="83.5612" x2="69.7185" y2="92.5607" stroke="#E0353F"/>
<line x1="46.4872" y1="44.1124" x2="40.4872" y2="70.1124" stroke="black"/>
<line x1="46.0741" y1="44.5055" x2="50.1517" y2="45.1164" stroke="black"/>
<line x1="41.0741" y1="69.5055" x2="45.1517" y2="70.1164" stroke="black"/>
<line x1="50.5427" y1="45.8764" x2="53.5173" y2="34.8696" stroke="black"/>
<line x1="50.5427" y1="45.8764" x2="53.5173" y2="34.8696" stroke="black"/>
<line x1="45.4297" y1="86.9955" x2="45.5721" y2="69.9961" stroke="black"/>
<path d="M64.2959 98.343C64.4762 98.343 64.5637 98.4311 64.7188 98.5242" stroke="black" stroke-linecap="round"/>
<path d="M63.3271 98.7685C63.4613 98.7853 63.6167 98.901 63.7428 98.9483C63.8485 98.9879 63.9679 98.9805 64.078 99.0015C64.2777 99.0397 64.4745 99.0547 64.6763 99.0734C65.4651 99.1468 66.2886 99.1163 67.0813 99.1051C67.3644 99.1011 67.6422 99.0399 67.9242 99.0289C68.2616 99.0156 68.5558 98.9072 68.8879 98.8778C69.0223 98.8659 69.1677 98.8919 69.2993 98.8548C69.4267 98.8189 69.5554 98.7417 69.6848 98.7182C69.8064 98.696 69.9459 98.7099 70.0587 98.6592C70.1986 98.5962 70.3473 98.5704 70.4931 98.524C70.6472 98.4749 70.7849 98.4023 70.9462 98.3701C71.2365 98.312 71.5131 98.2189 71.8135 98.1989C71.9318 98.191 72.0562 98.1394 72.1703 98.1083C72.4209 98.0399 72.6807 98.0188 72.9326 97.9558C73.0802 97.9189 73.2367 97.9147 73.3814 97.8623C73.5682 97.7947 73.7405 97.7023 73.9337 97.6466C74.3543 97.5253 74.7639 97.3778 75.1836 97.2553C75.3329 97.2118 75.5003 97.217 75.654 97.1777C75.9185 97.11 76.1933 97.0669 76.4624 97.0194C77.0106 96.9227 77.5723 96.9134 78.1107 96.762C78.3694 96.6892 78.6471 96.6317 78.9133 96.5937" stroke="black"/>
<path d="M78.4209 96.5937C78.665 96.586 78.9387 96.5182 79.1516 96.3952C79.3403 96.2861 79.5393 96.2106 79.7557 96.165C80.3369 96.0427 80.9386 95.9657 81.5278 95.8889C81.6908 95.8676 81.8386 95.8169 82.0053 95.8169C82.4124 95.8169 82.8194 95.8169 83.2265 95.8169C84.5107 95.8169 85.8138 95.8996 87.0785 95.6587C87.1959 95.6364 87.2775 95.6098 87.405 95.6098C87.5316 95.6098 87.6596 95.6149 87.7861 95.6084C87.9909 95.5979 88.1832 95.526 88.3859 95.5091C88.5163 95.4983 88.6656 95.5333 88.793 95.5034C89.4732 95.3433 90.1414 95.1849 90.8484 95.1697C91.0717 95.1649 91.2683 95.092 91.4899 95.092C91.7583 95.092 92.0641 95.0476 92.3213 95.1294C92.4121 95.1583 92.5097 95.1483 92.5989 95.1826C92.7972 95.2589 93.0717 95.2991 93.2822 95.2991" stroke="black"/>
<path d="M64.5433 98.5918C64.046 98.5918 63.4679 98.6677 62.987 98.5609C62.8231 98.5244 62.6508 98.5841 62.4864 98.5336C62.3622 98.4954 62.1955 98.5263 62.0659 98.5263C61.8893 98.5263 61.7127 98.5263 61.5362 98.5263C61.2981 98.5263 61.0727 98.428 60.8408 98.428" stroke="black"/>
<line x1="69" y1="92.5" x2="129" y2="92.5" stroke="#E0353F"/>
<line x1="79" y1="33.5" x2="119" y2="33.5" stroke="#E0353F"/>
<line x1="65.9012" y1="37.6461" x2="79.8583" y2="33.5205" stroke="#E0353F"/>
<line x1="53.5" y1="71" x2="53.5" y2="84" stroke="#E0353F"/>
<line x1="59" y1="64" x2="92" y2="64" stroke="white" stroke-width="10"/>
<line x1="89.091" y1="64.7699" x2="104.24" y2="53.9334" stroke="white" stroke-width="10"/>
<path d="M56.4902 39.5544C56.4902 39.3291 56.4397 39.0214 56.5012 38.7984C56.564 38.5708 56.6751 38.3503 56.7275 38.1252C56.7831 37.8859 56.9117 37.8401 57.0365 37.6561C57.226 37.3768 57.4258 37.0927 57.5828 36.7952C57.8282 36.3302 57.9894 35.7677 58.3885 35.3936C58.7878 35.0193 59.2782 34.7798 59.6687 34.3893" stroke="black" stroke-width="2" stroke-linecap="round"/>
<path d="M53.5914 41.7537C53.601 41.7525 53.6027 41.7285 53.5945 41.7262C53.5802 41.7221 53.5608 41.7258 53.546 41.7258C53.5117 41.7258 53.4988 41.7554 53.4881 41.7833C53.4733 41.8217 53.4506 41.8499 53.4306 41.8858C53.4108 41.9214 53.4031 41.9669 53.3887 42.0054" stroke="white" stroke-width="2" stroke-linecap="round"/>
<path d="M53.382 42.0054C53.382 41.9643 53.389 41.9245 53.389 41.8827C53.389 41.8329 53.4168 41.7813 53.4345 41.7363C53.4681 41.6503 53.4935 41.5584 53.532 41.4741C53.5524 41.4292 53.5662 41.3821 53.5871 41.3374C53.5981 41.3139 53.6115 41.2875 53.6127 41.2612C53.6153 41.2081 53.6197 41.1552 53.6197 41.102C53.6197 40.9874 53.6127 40.8733 53.6127 40.7574C53.6127 40.7078 53.6127 40.6583 53.6127 40.6087C53.6127 40.51 53.6264 40.4333 53.6586 40.3407C53.6789 40.2823 53.6943 40.2246 53.7168 40.1666C53.7314 40.1291 53.7415 40.092 53.7592 40.0552C53.7749 40.0225 53.7971 39.9904 53.8085 39.9561C53.824 39.9096 53.8538 39.8656 53.8644 39.8178C53.8675 39.804 53.8791 39.7945 53.885 39.7817C53.8932 39.764 53.8913 39.7463 53.9029 39.7301C53.9108 39.7191 53.9134 39.7087 53.9134 39.727C53.9134 39.7756 53.9144 39.8244 53.9118 39.873C53.9062 39.9814 53.8974 40.1024 53.8714 40.2078C53.8245 40.3981 53.694 40.5565 53.6182 40.7361C53.5644 40.8635 53.4992 40.9818 53.438 41.1043C53.3722 41.2357 53.4004 41.3951 53.3812 41.5362C53.3678 41.6353 53.3645 41.7264 53.361 41.8252C53.3601 41.8537 53.3471 41.9028 53.3269 41.9246C53.2836 41.9714 53.2621 42.0156 53.2422 42.0754" stroke="black" stroke-width="2" stroke-linecap="round"/>
<path d="M52.5146 41.6755C52.5445 41.6718 52.484 41.642 52.4774 41.6384C52.4448 41.6203 52.4632 41.6003 52.444 41.5811C52.422 41.5591 52.3996 41.5325 52.3702 41.5554C52.3221 41.5928 52.3456 41.5555 52.3615 41.5192C52.3749 41.4885 52.3795 41.4614 52.389 41.428C52.4029 41.3788 52.4326 41.3345 52.4449 41.2841C52.4558 41.2395 52.4531 41.1927 52.4586 41.1475C52.4634 41.1089 52.4631 41.1248 52.4586 41.1512C52.4491 41.2074 52.4409 41.2617 52.4238 41.3162C52.4007 41.3896 52.3754 41.4637 52.3431 41.5343C52.3175 41.5905 52.3166 41.6163 52.3166 41.6792C52.3166 41.7179 52.3115 41.76 52.317 41.7983C52.3207 41.8243 52.3412 41.7485 52.3422 41.7456C52.3731 41.664 52.4322 41.5904 52.4563 41.5059C52.4731 41.4473 52.5008 41.395 52.5187 41.3377C52.5395 41.2711 52.5476 41.2176 52.5476 41.1475C52.5476 41.1006 52.5631 41.064 52.5769 41.0192C52.5842 40.9955 52.5943 40.972 52.5989 40.9477C52.604 40.9205 52.6073 40.8744 52.6209 40.8514C52.6391 40.8204 52.6558 40.7842 52.6786 40.7565C52.6933 40.7388 52.6916 40.7139 52.7006 40.6933C52.7224 40.6435 52.6796 40.6302 52.6796 40.5819C52.6796 40.5372 52.6861 40.5001 52.708 40.4595C52.715 40.4466 52.7126 40.4313 52.7126 40.4169C52.7126 40.3848 52.7276 40.3595 52.7428 40.3321C52.8114 40.2087 52.8638 40.0706 52.8922 39.932C52.904 39.8747 52.901 39.8173 52.9206 39.7615C52.9341 39.7232 52.9314 39.6777 52.9472 39.6414C52.9714 39.586 52.9603 39.5118 52.9866 39.4562C53.0048 39.4178 53.0096 39.3638 53.0096 39.3206C53.0096 39.2732 53.0459 39.2353 53.0504 39.1886C53.0556 39.1335 53.0886 39.0809 53.0925 39.0236C53.0954 38.9818 53.1086 38.9191 53.1292 38.882C53.1438 38.8556 53.1381 38.8324 53.1434 38.8045C53.1494 38.7727 53.1706 38.7482 53.1764 38.7165C53.1883 38.6517 53.2243 38.5977 53.2424 38.5368C53.2619 38.4711 53.2992 38.4176 53.3359 38.3608C53.3432 38.3496 53.3538 38.317 53.3661 38.3113C53.3897 38.3005 53.4654 38.3796 53.4798 38.392" stroke="black" stroke-width="0.2" stroke-linecap="round"/>
<path d="M77.0542 94.389C77.0896 94.3941 76.9986 94.4313 76.9929 94.4413C76.965 94.4901 76.955 94.4833 76.902 94.4959C76.7877 94.5229 76.6745 94.5378 76.5577 94.5515C76.5044 94.5578 76.493 94.5838 76.4452 94.6004C76.4057 94.614 76.3431 94.5913 76.2963 94.6049C76.187 94.6368 76.0834 94.641 75.9816 94.6958C75.8455 94.7691 75.7331 94.9041 75.5975 94.9663C75.4061 95.0541 75.2359 95.125 75.0339 95.1913C74.8606 95.2482 74.6644 95.3267 74.4828 95.3481C74.3918 95.3588 74.3243 95.4175 74.2316 95.4367C74.1086 95.4623 73.9998 95.5158 73.8691 95.5344C73.7967 95.5448 73.7338 95.584 73.6635 95.6004C73.5147 95.635 73.3792 95.6978 73.2362 95.739C73.1675 95.7588 73.0912 95.7664 73.0249 95.7901C72.932 95.8233 72.8502 95.8772 72.7521 95.8981C72.6886 95.9116 72.6168 95.9051 72.5521 95.9128C72.4569 95.9242 72.359 95.9844 72.2681 95.9844C72.1063 95.9844 71.9484 96.0167 71.7885 96.0253C71.5944 96.0358 71.4031 96.1276 71.2045 96.1276C70.9146 96.1276 70.6481 96.2435 70.3613 96.2503C70.2486 96.253 70.141 96.3375 70.0295 96.3571C69.8489 96.389 69.6827 96.4652 69.5023 96.498C69.3575 96.5244 69.2223 96.6035 69.0796 96.6208C69.0061 96.6297 68.9283 96.6422 68.8568 96.6617C68.7967 96.6781 68.75 96.7348 68.6887 96.7412C68.573 96.7534 68.6777 96.7412 68.7364 96.7412C69.1322 96.7412 69.514 96.6389 69.9136 96.6389C70.17 96.6389 70.4265 96.6389 70.6829 96.6389C70.8357 96.6389 70.9941 96.6594 71.1499 96.6594C71.2493 96.6594 71.3465 96.642 71.4454 96.6389C71.5431 96.6359 71.6085 96.6025 71.6999 96.5821C71.8278 96.5537 71.9604 96.5892 72.0885 96.5526C72.2196 96.5152 72.3525 96.4987 72.484 96.4549C72.666 96.3942 72.8429 96.3641 73.0294 96.3276C73.1103 96.3118 73.1861 96.2789 73.2703 96.2719C73.3774 96.263 73.2955 96.2431 73.2362 96.2253C72.9378 96.1358 72.5956 96.1685 72.2885 96.1685C71.9806 96.1685 71.6726 96.1685 71.3647 96.1685C71.185 96.1685 71.0037 96.1503 70.8363 96.2253C70.7175 96.2786 70.6418 96.2736 70.5659 96.3685C70.4945 96.4577 70.5976 96.6553 70.467 96.7287C70.4429 96.7423 70.3185 96.749 70.3295 96.7867C70.3374 96.8136 70.3905 96.8578 70.4181 96.8628C70.4726 96.8727 70.5812 96.8801 70.6318 96.8594C70.6552 96.8498 70.7613 96.7964 70.6954 96.7833C70.6344 96.7711 70.9394 96.7412 70.8772 96.7412C70.7978 96.7412 70.7518 96.7663 70.6852 96.8094C70.6432 96.8366 70.5732 96.823 70.525 96.823C70.4579 96.823 70.4072 96.8465 70.3466 96.873C70.2749 96.9044 70.1881 96.9253 70.1091 96.9253C69.9718 96.9253 70.0272 96.9662 70.1295 96.9662C70.2087 96.9662 70.277 96.961 70.3545 96.9469C70.3798 96.9423 70.4066 96.907 70.3659 96.9048C70.3143 96.9021 70.2619 96.9048 70.2102 96.9048C70.0819 96.9048 70.0153 96.9266 69.8966 96.9662C69.7836 97.0039 69.6753 97.048 69.5489 97.048C69.4114 97.048 69.2182 97.1071 69.1068 97.1707C68.9174 97.279 68.7066 97.2526 68.4944 97.2526C68.2615 97.2526 68.022 97.2526 67.7887 97.2526C67.2558 97.2526 66.748 97.048 66.216 97.048C65.9167 97.048 65.5844 97.0878 65.2888 97.0435C64.9459 96.992 64.5935 96.9502 64.257 96.8685C63.9898 96.8036 63.7023 96.7707 63.4298 96.7253C63.355 96.7129 63.3925 96.7208 63.4446 96.7208C63.5387 96.7208 63.6252 96.749 63.7173 96.7605C63.9472 96.7893 64.1728 96.8446 64.4047 96.873C64.5285 96.8882 64.6596 96.8936 64.7843 96.9003C64.8968 96.9063 65.0134 96.8941 65.1252 96.9094C65.1716 96.9158 65.1846 96.9474 65.2218 96.9639C65.4784 97.078 65.7773 97.0695 66.0501 97.0992C66.3162 97.1281 66.5895 97.1198 66.8569 97.131C67.1781 97.1444 67.4968 97.1503 67.8182 97.1503C67.9767 97.1503 68.1201 97.099 68.2739 97.0583C68.4787 97.004 68.6998 97.0276 68.9137 97.0276" stroke="black" stroke-width="2" stroke-linecap="round"/>
<path d="M70.0907 97.7504C70.0907 97.7707 70.0951 97.7886 70.0789 97.8031C70.069 97.8121 70.0383 97.831 70.0516 97.8324C70.0917 97.8369 70.1446 97.7973 70.0881 97.7973C70.0182 97.7973 69.9774 97.8442 69.9083 97.8442C69.8472 97.8442 69.8101 97.9028 69.7513 97.9028C69.7115 97.9028 69.6818 97.9267 69.6413 97.9353C69.5857 97.9473 69.5361 97.9378 69.4811 97.964C69.4636 97.9723 69.454 97.9835 69.44 97.9966C69.4118 98.0229 69.4028 98.0171 69.3638 98.0207C69.3025 98.0262 69.2311 98.0197 69.1789 98.05C69.1183 98.085 69.0442 98.098 68.9783 98.119C68.9364 98.1323 68.8841 98.1255 68.8408 98.1255C68.7665 98.1255 68.6953 98.1607 68.6253 98.1607C68.4803 98.1607 68.3284 98.1459 68.1863 98.1718C68.1486 98.1786 68.1045 98.1792 68.0677 98.1835C68.031 98.1878 68.0028 98.2028 67.9674 98.2141C67.9275 98.2269 67.874 98.2223 67.8346 98.2245C67.7278 98.2306 67.621 98.2393 67.5141 98.2428C67.306 98.2496 67.099 98.2545 66.8902 98.2545C66.7447 98.2545 66.5468 98.2879 66.4102 98.231C66.3067 98.1879 66.1817 98.2173 66.0813 98.175C66.021 98.1496 65.9483 98.1319 65.8872 98.1144C65.7635 98.0791 65.6204 98.0743 65.4925 98.0604C65.3701 98.0471 65.2477 98.035 65.1252 98.0226C65.1005 98.0201 64.997 98.0234 64.9728 97.9992C64.9683 97.9947 64.9858 97.9848 64.9617 97.9848C64.9304 97.9848 64.9088 97.9802 64.8797 97.9738C64.693 97.9323 64.4945 97.913 64.3046 97.8871C64.1418 97.865 63.9912 97.7759 63.8226 97.7465C63.7218 97.7289 63.5861 97.7351 63.4957 97.6839C63.4622 97.665 63.469 97.6364 63.4481 97.6156C63.3799 97.5474 63.2688 97.5042 63.1895 97.4508C63.1081 97.3959 63.0255 97.3331 62.9629 97.258" stroke="black" stroke-width="0.5" stroke-linecap="round"/>
<path d="M93.1594 94.6698C93.1543 94.6698 93.1273 94.6825 93.1229 94.6869C93.1128 94.697 93.1163 94.7124 93.1023 94.7235C93.0932 94.7308 93.0908 94.7638 93.1057 94.7638C93.1209 94.7638 93.1389 94.7609 93.1512 94.772C93.1648 94.7843 93.1784 94.7706 93.1527 94.7706C93.1212 94.7706 93.091 94.7638 93.0587 94.7638C93.0138 94.7638 92.9742 94.7457 92.931 94.7437C92.8953 94.742 92.8592 94.7437 92.8235 94.7437C92.7587 94.7437 92.6959 94.7571 92.6316 94.7571C92.5724 94.7571 92.5131 94.7571 92.4539 94.7571C92.3027 94.7571 92.1525 94.7638 92.0015 94.7638C91.8223 94.7638 91.6358 94.7765 91.4602 94.7489C91.4113 94.7412 91.3581 94.7388 91.3105 94.7269C91.2535 94.7126 91.0756 94.7235 91.1343 94.7235C91.1735 94.7235 91.1908 94.7523 91.231 94.7504C91.2532 94.7493 91.2743 94.7437 91.2971 94.7437C91.3239 94.7437 91.3562 94.7386 91.3825 94.7452C91.4024 94.7501 91.3954 94.7622 91.3784 94.7635C91.3326 94.767 91.2851 94.7638 91.2392 94.7638C91.2085 94.7638 91.1773 94.7654 91.1466 94.7635C91.1202 94.7618 91.1036 94.7429 91.0779 94.7385C91.0535 94.7342 91.0201 94.7379 90.9992 94.7231C90.9693 94.702 90.9301 94.7101 90.895 94.7101C90.8689 94.7101 90.8748 94.7268 90.8965 94.7355C90.9123 94.7418 90.9213 94.7504 90.8984 94.7504C90.8446 94.7504 90.7909 94.7504 90.7371 94.7504C90.6951 94.7504 90.6421 94.7565 90.5964 94.7571C90.5225 94.7582 90.4452 94.7546 90.3746 94.7769C90.3437 94.7867 90.3115 94.784 90.2794 94.784C90.1967 94.784 90.1139 94.784 90.0312 94.784C89.9891 94.784 89.9504 94.7782 89.9103 94.7709C89.8721 94.764 89.8217 94.7735 89.7863 94.7586C89.7581 94.7467 89.7058 94.7515 89.7128 94.706C89.7198 94.6606 89.7519 94.6134 89.7815 94.5802C89.8181 94.539 89.8446 94.5496 89.8953 94.5585C89.9622 94.5703 90.0291 94.5816 90.0962 94.5925C90.1656 94.6038 90.274 94.6396 90.344 94.6119C90.3648 94.6037 90.4204 94.4844 90.403 94.4749C90.3947 94.4704 90.3809 94.4738 90.3709 94.4682C90.355 94.4593 90.3503 94.4404 90.3339 94.4316C90.3028 94.4149 90.2168 94.5064 90.1955 94.5227C90.1489 94.5581 90.0954 94.5895 90.0398 94.6085C90.0018 94.6216 89.9867 94.6534 89.9543 94.6713C89.9344 94.6822 89.9225 94.6973 89.9043 94.7101C89.8644 94.738 89.8028 94.7508 89.7557 94.7623C89.6878 94.7789 89.6389 94.8176 89.5672 94.8176C89.5337 94.8176 89.5063 94.8216 89.4735 94.8295C89.4343 94.8391 89.3845 94.831 89.3443 94.831C89.2191 94.831 89.0983 94.8176 88.9733 94.8176C88.8653 94.8176 88.7633 94.831 88.656 94.831C88.5499 94.831 88.4461 94.8331 88.3417 94.8135C88.2697 94.8 88.197 94.7926 88.1236 94.7907C88.0494 94.7888 87.9772 94.7694 87.903 94.765C87.8858 94.7639 87.8338 94.7638 87.8511 94.7638" stroke="black" stroke-width="0.5" stroke-linecap="round"/>
<path d="M59.7538 96.0577C59.6515 95.9895 59.4447 96.0093 59.3212 95.9869C59.2024 95.9653 59.0894 95.8942 58.9651 95.8701C58.7203 95.8225 58.4653 95.7646 58.2185 95.7342C57.6985 95.6701 57.2081 95.5408 56.6793 95.5408C56.3818 95.5408 56.0882 95.4234 55.8332 95.2651C55.4235 95.0108 54.8977 94.7782 54.4395 94.6277C54.1342 94.5273 53.8268 94.4463 53.5647 94.2639C53.3548 94.1179 53.124 93.9744 52.8889 93.883C52.3891 93.6886 51.8896 93.4124 51.4416 93.1287C51.3431 93.0663 51.2478 93.0397 51.1583 92.9583C51.0672 92.8755 51.0465 92.7465 50.9477 92.6635C50.8039 92.5427 50.6768 92.3706 50.6031 92.1964C50.4495 91.8333 50.1511 91.5145 49.9331 91.1875C49.8681 91.0901 49.757 91.0287 49.6919 90.931C49.6317 90.8407 49.6162 90.7189 49.5617 90.6209C49.4353 90.3933 49.4308 90.0883 49.2593 89.8896C49.1602 89.7749 49.114 89.5546 49.0525 89.4148C48.8484 88.951 48.7384 88.4254 48.5031 87.981C48.2786 87.557 48.195 87.0814 48.1145 86.6084C48.0236 86.0744 47.9148 85.5864 47.7469 85.0826C47.6225 84.7094 47.6933 84.2459 47.6933 83.8593C47.6933 83.6997 47.6244 83.5455 47.6244 83.3846C47.6244 83.2039 47.5802 83.0036 47.521 82.8332C47.4126 82.5215 47.4865 82.089 47.4865 81.7554C47.4865 81.4584 47.5899 81.1995 47.5899 80.9035C47.5899 80.6138 47.5899 80.3241 47.5899 80.0344" stroke="black" stroke-width="2" stroke-linecap="round"/>
<path d="M47.7786 79.4179C47.7786 79.1607 47.7606 78.6834 47.6257 78.4612C47.4487 78.1695 47.5748 77.5114 47.5748 77.1789C47.5748 76.6974 47.6257 76.2294 47.6257 75.7467C47.6257 75.2978 47.8506 74.9698 47.9201 74.5267C48.0468 73.7189 47.92 72.8742 47.9852 72.0585C48.0026 71.8416 48.1862 71.6567 48.1862 71.4443C48.1862 71.299 48.1862 71.1537 48.1862 71.0084C48.1862 70.5131 48.0843 70.0298 48.0843 69.5337" stroke="black" stroke-width="2" stroke-linecap="round"/>
<path d="M46.5175 82.124C46.4868 82.174 46.5203 82.2535 46.4959 82.3094C46.4722 82.3636 46.4733 82.4246 46.4733 82.483C46.4733 82.6639 46.4467 82.8371 46.4467 83.0181C46.4467 83.2582 46.4524 83.4991 46.4462 83.7391C46.4413 83.9279 46.4286 84.1094 46.4428 84.2963C46.444 84.3122 46.4559 84.4794 46.4664 84.4345C46.4844 84.357 46.4953 84.2777 46.5121 84.1999C46.5236 84.1468 46.534 84.0934 46.5436 84.0406C46.5509 84.0001 46.5647 83.9612 46.5775 83.922C46.5866 83.8945 46.5857 83.8766 46.579 83.9147C46.5704 83.9636 46.5472 84.006 46.5421 84.0558C46.5363 84.1125 46.5352 84.1686 46.5352 84.2255C46.5352 84.3041 46.5237 84.3617 46.4949 84.435C46.4742 84.4878 46.4446 84.5288 46.4285 84.581C46.396 84.6868 46.3847 84.8023 46.3847 84.913C46.3847 84.957 46.3732 85.0062 46.3665 85.0497C46.3638 85.0679 46.3463 85.0805 46.3405 85.0984C46.3324 85.1231 46.3316 85.148 46.3316 85.1737C46.3316 85.2387 46.3228 85.3028 46.3228 85.3689C46.3228 85.3984 46.3228 85.4279 46.3228 85.4574C46.3228 85.5006 46.3051 85.5386 46.3051 85.5804C46.3051 85.6893 46.2982 85.7935 46.279 85.8991C46.2749 85.9218 46.2769 86.0173 46.2785 86.0137C46.3038 85.9567 46.2962 85.8791 46.2962 85.8194C46.2962 85.7369 46.2938 85.654 46.2962 85.5715C46.2969 85.548 46.3092 85.5214 46.3139 85.4983C46.3265 85.4366 46.3256 85.373 46.3356 85.3109C46.3432 85.2632 46.3436 85.2127 46.3538 85.1658C46.3562 85.1547 46.3643 85.1301 46.3542 85.1201C46.3312 85.0971 46.321 85.1667 46.3159 85.1781C46.3032 85.2064 46.3203 85.2387 46.3297 85.2646C46.3493 85.3191 46.3405 85.3862 46.3405 85.4466C46.3405 85.5303 46.3316 85.2795 46.3316 85.1958C46.3316 85.1515 46.3316 85.1073 46.3316 85.063C46.3316 85.0257 46.3183 85.0015 46.312 84.9656C46.2847 84.8114 46.2962 84.6513 46.2962 84.4945C46.2962 84.3502 46.2929 84.2055 46.2874 84.0607C46.2843 83.9805 46.2785 83.8973 46.2785 83.8148C46.2785 83.7578 46.2785 83.7007 46.2785 83.6437C46.2785 83.59 46.2608 83.5434 46.2608 83.4922C46.2608 83.3263 46.252 83.1588 46.252 82.9916C46.252 82.8716 46.252 82.7516 46.252 82.6316C46.252 82.532 46.2587 82.4337 46.2608 82.3345C46.262 82.2789 46.2827 82.2228 46.3316 82.1948" stroke="black" stroke-width="0.5" stroke-linecap="round"/>
<path d="M46.5348 68.2778C46.3336 68.0949 45.9686 68.0151 45.7102 67.9761C45.405 67.9299 45.0967 67.8723 44.7944 67.8085C44.5855 67.7644 44.3802 67.7268 44.1695 67.6932C44.0645 67.6764 43.9036 67.6632 43.8129 67.5966C43.7373 67.5412 43.6394 67.5343 43.5527 67.5028C43.4217 67.4551 43.2901 67.3682 43.1679 67.3003C42.9966 67.2051 43.1346 67.2158 43.2752 67.2158C43.449 67.2158 43.6229 67.2158 43.7968 67.2158C44.1348 67.2158 44.5197 67.2919 44.8453 67.3794C44.9034 67.395 44.9843 67.3934 45.0384 67.4196C45.0809 67.4403 45.1096 67.4768 45.1591 67.4813C45.4189 67.5049 45.6761 67.5882 45.9368 67.6207C46.0072 67.6296 46.0782 67.622 46.1486 67.6315C46.1707 67.6344 46.3049 67.6718 46.2908 67.6583C46.2068 67.5779 46.0656 67.5556 45.9663 67.5014C45.8893 67.4594 45.8202 67.3876 45.7437 67.3405C45.5739 67.236 45.3198 67.2033 45.1363 67.1568C44.6793 67.0411 44.2352 67.0117 43.7713 66.9624C43.6304 66.9474 43.4903 66.9262 43.3489 66.9262C43.2137 66.9262 43.0164 66.7882 43.011 66.6419C43.0095 66.6001 42.9906 66.4775 43.0164 66.4488C43.0828 66.375 43.314 66.4917 43.3838 66.5105C43.6162 66.5733 43.8756 66.5915 44.1132 66.6366C44.3837 66.6878 44.6272 66.7244 44.8989 66.7344C45.1444 66.7435 45.8461 66.9814 45.6203 66.8846C45.4906 66.829 45.37 66.7402 45.2503 66.6661C45.1706 66.6167 45.1132 66.4874 45.0277 66.4623C44.9277 66.4328 44.8593 66.3714 44.7541 66.3523C44.624 66.3286 44.5007 66.3027 44.3707 66.2745C44.1804 66.2333 43.9848 66.2187 43.7954 66.1767C43.7524 66.1671 43.6347 66.1421 43.6158 66.1042C43.5719 66.0166 43.4376 65.9325 43.3637 65.875C43.2546 65.7901 43.5209 65.7912 43.542 65.7918C43.6355 65.7944 43.7184 65.8331 43.8102 65.8455C44.0823 65.8822 44.3507 65.9323 44.6174 65.9983C44.8265 66.0501 45.4764 66.0573 45.261 66.0573C45.2154 66.0573 45.1576 66.0672 45.1135 66.0546C45.0741 66.0434 45.1021 65.9983 45.0719 65.9849C45.0139 65.9591 44.9753 65.9169 44.9284 65.875C44.8464 65.8015 44.7366 65.7777 44.6522 65.706C44.5963 65.6585 44.5103 65.6236 44.4457 65.58C44.3894 65.5419 44.3228 65.5518 44.258 65.5397C44.1254 65.515 43.9956 65.4896 43.8611 65.4781C43.7968 65.4726 43.7342 65.4223 43.6707 65.4057C43.5568 65.3757 43.4484 65.333 43.3409 65.285C43.2083 65.2258 43.2654 65.1884 43.3717 65.1884C43.5258 65.1884 43.6751 65.2041 43.8276 65.2273C44.095 65.2681 44.3641 65.2954 44.6281 65.344C44.7461 65.3657 44.833 65.3735 44.7126 65.2716C44.5189 65.1077 44.368 64.9739 44.1266 64.8935C44.0394 64.8644 43.9602 64.8155 43.8611 64.8023C43.8066 64.795 43.7618 64.7362 43.711 64.7299C43.6698 64.7247 43.5766 64.6672 43.5568 64.632C43.4756 64.4877 43.6368 64.4885 43.7337 64.4885C44.0795 64.4885 44.4114 64.5609 44.7568 64.5609C44.8248 64.5609 45.0286 64.5609 44.9606 64.5609C44.9 64.5609 44.8459 64.5525 44.7863 64.5422C44.6832 64.5243 44.5889 64.478 44.5074 64.4108C44.3544 64.2843 44.0993 64.1655 43.904 64.1265C43.8705 64.1198 43.8526 64.06 43.8558 64.0299C43.8598 63.9913 43.9574 64.0058 43.9818 64.0058C44.1349 64.0058 44.3385 64.0565 44.3385 63.8489C44.3385 63.6853 44.2592 63.561 44.1601 63.44C44.1268 63.3993 44.1454 62.983 44.1454 63.2147C44.1454 63.6073 44.1213 64.0021 44.1213 64.392" stroke="black" stroke-width="0.5" stroke-linecap="round"/>
<path d="M114.727 34.5009C114.277 34.5009 113.826 34.5009 113.376 34.5009C112.591 34.5009 111.814 34.4139 111.031 34.4001C110.745 34.395 110.458 34.3988 110.172 34.4001C109.996 34.4009 109.914 34.4488 109.761 34.4673C109.62 34.4844 109.466 34.4758 109.328 34.5065C109.159 34.544 109.036 34.6017 108.857 34.6017C108.522 34.6017 108.187 34.6017 107.851 34.6017C107.288 34.6017 106.725 34.6017 106.162 34.6017C104.898 34.6017 103.634 34.6017 102.37 34.6017C101.773 34.6017 101.165 34.6079 100.572 34.542C99.7548 34.4512 98.9347 34.3665 98.1111 34.3665C97.2434 34.3665 96.3593 34.4013 95.4973 34.3067C94.9268 34.2441 94.3535 34.2657 93.7797 34.2657C93.516 34.2657 93.2602 34.2004 92.9956 34.1984C92.5376 34.195 92.0717 34.2166 91.6159 34.163C91.1653 34.11 90.6991 34.0976 90.2455 34.0976C89.6313 34.0976 89.0209 34.064 88.4103 34.064C87.3809 34.064 86.3516 34.064 85.3223 34.064" stroke="#E0353F" stroke-width="2" stroke-linecap="round"/>
<path d="M84.4975 34.3428C84.098 34.3428 83.6985 34.3428 83.299 34.3428C83.1945 34.3428 83.09 34.3428 82.9855 34.3428C82.8663 34.3428 82.7126 34.3146 82.5992 34.3524C82.4931 34.3878 82.3262 34.3984 82.214 34.4006C82.075 34.4033 81.9396 34.4081 81.8009 34.4156C81.3444 34.4402 80.8571 34.3745 80.4098 34.5087C80.2281 34.5632 80.0518 34.5687 79.864 34.5739C79.7715 34.5765 79.6576 34.6359 79.5687 34.6638C79.4485 34.7016 79.3259 34.7668 79.2006 34.7847C79.1276 34.7952 78.9766 34.803 78.9502 34.8821" stroke="#E0353F" stroke-width="2" stroke-linecap="round"/>
<path d="M62.5513 49.7127C62.4475 49.6998 62.6218 49.4496 62.6401 49.4002C62.6968 49.2471 62.7053 49.1475 62.7112 48.9847C62.7165 48.8363 62.8576 48.6753 62.9349 48.555C63.1213 48.2651 63.202 47.8238 63.2403 47.4896C63.2503 47.4029 63.2571 47.3045 63.2883 47.2214C63.3036 47.1806 63.3457 47.161 63.3504 47.1167C63.3614 47.0143 63.4348 46.9608 63.4481 46.8681C63.4569 46.8061 63.5001 46.6739 63.5422 46.6266C63.6063 46.5544 63.5673 46.4374 63.6399 46.3709C63.7653 46.2559 63.7688 45.9958 63.8441 45.8453C63.8862 45.761 63.8675 45.6624 63.9115 45.5718C63.9536 45.4851 63.976 45.4079 64.0287 45.3267C64.1617 45.1222 64.2315 44.8947 64.3519 44.6839C64.4201 44.5647 64.4961 44.3149 64.5011 44.1761C64.5072 44.0051 64.5517 43.8915 64.6218 43.7357C64.6513 43.6703 64.6871 43.6058 64.7106 43.5386C64.7626 43.3901 64.8688 43.2221 64.8829 43.068C64.9071 42.801 64.941 42.649 65.1101 42.4235C65.2241 42.2715 65.2211 42.0592 65.2753 41.8819C65.3347 41.6874 65.4932 41.515 65.5487 41.3136C65.6054 41.1082 65.6148 40.8678 65.7334 40.6815C65.9141 40.3975 66.1768 40.1068 66.2892 39.7883C66.3359 39.6562 66.3955 39.5279 66.4579 39.403C66.4977 39.3235 66.4709 39.2411 66.4845 39.1526C66.5254 38.8871 66.7697 38.8943 66.9054 38.6856C66.9486 38.6191 67.0036 38.5877 67.0581 38.54C67.1195 38.4862 67.2026 38.5208 67.257 38.4725C67.4005 38.3449 67.7121 38.3189 67.8962 38.2523C68.0793 38.1861 68.2833 38.183 68.4716 38.1103C68.594 38.063 68.7331 38.0077 68.8622 37.9842C69.0114 37.9571 69.1054 37.9123 69.2475 37.8581C69.5439 37.7452 69.8501 37.656 70.1514 37.5633C70.2062 37.5465 70.2356 37.4956 70.2881 37.4746C70.351 37.4494 70.422 37.4501 70.4852 37.4248C70.6327 37.3658 70.7722 37.3003 70.9238 37.2473C71.4702 37.056 72.0234 36.8835 72.5983 36.8069C73.1509 36.7332 73.6508 36.4638 74.1485 36.228C74.4617 36.0796 74.7993 35.9923 75.1127 35.8551C75.2699 35.7863 75.5521 35.8371 75.6561 35.6811" stroke="#E0353F" stroke-width="2" stroke-linecap="round"/>
<path d="M54.6833 72.3311C54.6833 72.2094 54.5889 72.1845 54.5889 72.0617C54.5889 71.8316 54.7068 71.6485 54.7953 71.4391C54.9711 71.0227 55.1241 70.5631 55.1241 70.1081C55.1241 69.9216 55.1679 69.7296 55.25 69.5606C55.4237 69.2031 55.5187 68.8168 55.6978 68.4587C55.724 68.4062 55.7767 68.3846 55.7975 68.3293C55.8363 68.2257 55.8554 68.0955 55.8797 67.9865C55.914 67.8319 55.9451 67.6792 55.9916 67.5265C56.0587 67.3059 56.1004 67.0811 56.163 66.8601C56.2352 66.6054 56.3784 66.3912 56.4324 66.129C56.5218 65.6943 56.7273 65.2894 56.8714 64.8732C57.0337 64.4041 57.2649 64.0051 57.2649 63.5019C57.2649 63.2016 57.364 62.9667 57.4538 62.6974" stroke="#E0353F" stroke-width="2" stroke-linecap="round"/>
<path d="M59.8542 55.7288C59.777 55.7442 59.7767 55.8812 59.7767 55.9365C59.7767 56.023 59.7707 56.0783 59.7358 56.1551C59.6778 56.2827 59.6924 56.4364 59.6314 56.562C59.6105 56.605 59.5593 56.6766 59.5227 56.7074C59.5079 56.7198 59.4875 56.7507 59.4764 56.7677C59.4563 56.7983 59.4376 56.8394 59.4204 56.8721C59.3863 56.9367 59.3283 57.012 59.3213 57.0852C59.3119 57.1845 59.2509 57.2342 59.1954 57.3102C59.1591 57.3599 59.1078 57.4043 59.0866 57.4653C59.0692 57.5158 59.0549 57.5694 59.0425 57.6214C59.0382 57.6395 59.0272 57.6416 59.0145 57.6553C58.9887 57.6831 58.97 57.7158 58.9531 57.7495C58.8988 57.8582 58.8692 57.9752 58.8197 58.0843C58.8059 58.1145 58.8072 58.143 58.8003 58.1758C58.7956 58.1978 58.7808 58.2195 58.7787 58.2383C58.7762 58.2613 58.7691 58.2818 58.7691 58.3061C58.7691 58.33 58.7518 58.3366 58.7497 58.3567C58.7413 58.4351 58.7294 58.5204 58.7088 58.5967C58.6971 58.6401 58.6706 58.6717 58.6549 58.7109C58.6426 58.7418 58.6169 58.7657 58.6065 58.7981C58.5992 58.8209 58.5987 58.8377 58.585 58.8584" stroke="#E0353F" stroke-width="0.5" stroke-linecap="round"/>
<path d="M54.0078 78.0072C54.0078 79.3169 54.1917 80.6474 54.1917 81.9572C54.1917 82.1525 54.3291 82.2255 54.3389 82.4211C54.3462 82.5671 54.4499 82.8901 54.6331 82.8993C54.8111 82.9082 54.8444 83.0706 54.9805 83.1506C55.1584 83.2552 55.3184 83.3872 55.4955 83.496C55.7209 83.6344 55.9306 83.7174 56.1412 83.8679C56.2452 83.9422 56.4489 84.0016 56.5703 84.0395C56.7763 84.1039 57.1546 84.0965 57.2855 84.2766C57.4808 84.545 57.9038 84.6592 58.1765 84.8119C58.4589 84.9701 58.761 85.094 59.0552 85.2411C59.1654 85.2962 59.2792 85.3304 59.3903 85.38C59.518 85.4371 59.657 85.5999 59.7704 85.6825C60.0015 85.8507 60.2283 85.9857 60.4917 86.0993C60.6773 86.1794 60.9654 86.2113 61.1109 86.3568C61.2883 86.5342 61.4644 86.7068 61.632 86.8983C61.7444 87.0268 61.8844 87.005 62.0264 87.072C62.1424 87.1268 62.2575 87.1299 62.3758 87.1865C62.5312 87.2608 62.6662 87.3683 62.8356 87.4153C63.3706 87.5639 63.7563 88.0858 64.3069 88.1959" stroke="#E0353F" stroke-width="2" stroke-linecap="round"/>
<path d="M66.7627 90.063C67.0748 90.063 67.1158 90.1999 67.3269 90.3909C67.5351 90.5792 67.9957 90.4809 68.2529 90.5838C68.3677 90.6298 68.4525 90.7659 68.5663 90.7984C68.838 90.876 69.13 91.0179 69.4272 91.0179C69.5422 91.0179 69.6119 91.0944 69.7141 91.1047C69.9344 91.1267 70.1686 91.1047 70.3893 91.1047C70.9252 91.1047 71.4307 91.1915 71.9638 91.1915C72.3376 91.1915 72.7079 91.2039 73.0706 91.1481C73.4153 91.095 73.7689 91.0613 74.1171 91.0613C74.7264 91.0613 75.4805 90.9511 76.0751 91.0854C76.7368 91.2348 77.4315 91.1915 78.1102 91.1915C80.0865 91.1915 82.0707 91.1047 84.0371 91.1047C85.4414 91.1047 86.8425 91.0613 88.2472 91.0613C88.4078 91.0613 88.583 91.0393 88.7415 91.0637C88.8811 91.0851 89.0651 91.1905 89.2165 91.2252C89.6655 91.3282 89.963 91.2783 90.4174 91.2783C91.1777 91.2783 91.9381 91.2783 92.6984 91.2783C93.4804 91.2783 94.2645 91.2349 95.0494 91.2349C95.6779 91.2349 96.2868 91.1047 96.9182 91.1047C97.2831 91.1047 97.648 91.1047 98.0129 91.1047C99.1841 91.1047 100.355 91.3217 101.529 91.3217" stroke="#E0353F" stroke-width="2" stroke-linecap="round"/>
<line x1="59" y1="64" x2="53" y2="64" stroke="white" stroke-width="10"/>
<path d="M55.1257 40.6205C55.1057 40.7204 55.0238 40.8324 54.9877 40.9335C54.9568 41.0201 54.9469 41.0934 54.9333 41.1815C54.9141 41.3065 54.7835 41.4424 54.7145 41.5436C54.6511 41.6366 54.6519 41.7245 54.6097 41.8182C54.5576 41.9341 54.5021 42.0457 54.4373 42.155C54.4034 42.2123 54.3856 42.3036 54.3405 42.35C54.2018 42.4925 53.9033 42.5306 53.8604 42.7453" stroke="black" stroke-width="2" stroke-linecap="round"/>
<path d="M47.197 46.8393C47.0336 46.8291 47.0911 46.5235 47.0911 46.4079C47.0911 46.2145 47.0205 46.0434 47.0205 45.851" stroke="black" stroke-width="2" stroke-linecap="round"/>
<path d="M62.1426 97.0568C62.1705 97.3078 62.4751 97.5357 62.6996 97.5357C62.919 97.5357 63.137 97.5346 63.356 97.5517C63.5814 97.5693 63.8425 97.5276 64.0585 97.5996" stroke="black" stroke-width="2" stroke-linecap="round"/>
<line x1="59.3427" y1="46.8789" x2="50.3408" y2="70.878" stroke="black" stroke-width="5"/>
<rect x="63.5" y="60.5" width="21" height="7" stroke="black"/>
<line x1="44.7351" y1="54.7947" x2="32.7351" y2="50.7947" stroke="black" stroke-width="8"/>
</g>
<defs>
<clipPath id="clip0_15_1138">
<rect width="90" height="296" fill="white"/>
</clipPath>
</defs>
</svg>
