<svg width="361" height="218" viewBox="0 0 361 218" fill="none" xmlns="http://www.w3.org/2000/svg">
<path d="M146.949 182.908C148.915 181.547 149.867 178.314 149.048 173.418C148.25 168.651 145.831 162.849 141.919 157.199C138.007 151.55 133.428 147.244 129.246 144.82C124.951 142.33 121.59 142.084 119.624 143.445C117.658 144.806 116.706 148.039 117.525 152.935C118.323 157.703 120.742 163.505 124.654 169.154C128.566 174.803 133.145 179.11 137.327 181.534C141.622 184.023 144.983 184.27 146.949 182.908Z" fill="white" stroke="black" stroke-width="3"/>
<path d="M232.169 169.381C232.169 172.017 233.818 174.606 236.904 176.607C239.975 178.599 244.307 179.881 249.169 179.881C254.031 179.881 258.363 178.599 261.434 176.607C264.52 174.606 266.169 172.017 266.169 169.381C266.169 166.744 264.52 164.155 261.434 162.154C258.363 160.162 254.031 158.881 249.169 158.881C244.307 158.881 239.975 160.162 236.904 162.154C233.818 164.155 232.169 166.744 232.169 169.381Z" fill="white" stroke="black" stroke-width="3"/>
<path d="M209.169 178.381C209.169 181.017 210.818 183.606 213.904 185.607C216.975 187.599 221.307 188.881 226.169 188.881C231.031 188.881 235.363 187.599 238.434 185.607C241.52 183.606 243.169 181.017 243.169 178.381C243.169 175.744 241.52 173.155 238.434 171.154C235.363 169.162 231.031 167.881 226.169 167.881C221.307 167.881 216.975 169.162 213.904 171.154C210.818 173.155 209.169 175.744 209.169 178.381Z" fill="white" stroke="black" stroke-width="3"/>
<path d="M59.069 128.043C59.3919 128.696 59.979 128.68 60.5298 129.04C61.2649 129.522 62.2285 129.184 62.9706 129.56C64.1478 130.155 65.4511 130.95 66.7955 131.101C66.9677 131.121 67.2016 130.944 67.3292 131.073C67.4538 131.199 67.5786 131.199 67.75 131.177C68.2271 131.117 68.539 131.316 68.9664 131.461C69.3099 131.577 69.8058 131.822 70.1646 131.837C70.5853 131.854 70.7824 132.03 70.4704 131.399C70.0772 130.603 69.7402 129.448 69.1447 128.769C68.4437 127.969 68.0235 126.912 67.5543 125.963C67.3489 125.548 66.6895 124.472 67.083 124.082" stroke="white" stroke-width="3" stroke-linecap="round"/>
<path d="M46.6182 127.435C46.7581 127.386 46.9864 127.609 47.1483 127.631C47.3674 127.661 47.4818 127.567 47.6749 127.485C47.9791 127.357 48.4362 127.287 48.7817 127.174C49.2537 127.019 49.572 126.979 50.0641 126.998C50.5644 127.019 51.0832 126.947 51.5384 126.722" stroke="white" stroke-width="3" stroke-linecap="round"/>
<path d="M99.5015 139.35C99.6985 139.648 100.548 139.366 100.859 139.43C101.152 139.49 101.46 139.185 101.707 139.303C102.053 139.469 102.484 139.587 102.873 139.574C103.229 139.563 103.564 139.596 103.905 139.459C104.423 139.251 104.929 139.304 105.456 139.145C106.574 138.806 107.654 138.415 108.704 137.896C109.764 137.372 110.779 136.935 111.931 136.67C112.724 136.487 113.469 135.999 114.198 135.639C114.689 135.396 115.181 135.153 115.672 134.91C115.939 134.778 116.257 134.667 116.491 134.48C116.735 134.285 116.805 134.021 117.101 133.86C117.351 133.724 118.086 133.371 118.263 133.158C118.482 132.894 116.936 132.596 116.747 132.602C116.439 132.612 116.245 132.48 115.941 132.478C115.779 132.478 115.625 132.273 115.498 132.188C115.348 132.088 115.164 132.146 115.042 132.063C114.584 131.755 114.146 131.874 113.85 131.277C113.598 130.766 112.781 131.41 112.404 131.597C111.967 131.813 111.531 132.028 111.094 132.244C110.648 132.464 110.207 132.705 109.753 132.907C109.368 133.078 108.877 132.881 108.445 133.095" stroke="white" stroke-width="3" stroke-linecap="round"/>
<path d="M38.3812 159.932C38.9225 159.735 39.3111 160.274 39.5321 159.478C39.6065 159.21 39.5667 159.084 39.4432 158.834C39.3263 158.597 39.4435 158.397 39.3542 158.19C39.1274 157.663 39.1536 157.088 38.8869 156.549C38.6679 156.106 38.423 155.727 38.0804 155.381" stroke="white" stroke-width="3" stroke-linecap="round"/>
<path d="M115.677 132.421C115.78 132.629 115.778 132.848 115.547 132.962C115.223 133.122 115.235 132.676 115.069 132.493C114.944 132.355 114.333 133.804 114.245 134.003C114.065 134.409 112.966 134.714 112.618 134.886C112.144 135.121 111.586 135.672 111.38 134.951C111.254 134.514 111.944 133.67 112.358 133.594C112.973 133.482 111.566 134.562 111.171 135.046C110.54 135.818 109.277 136.22 108.408 136.649C107.953 136.874 105.517 136.573 106.057 135.924C106.467 135.431 107.245 135.002 107.823 134.716C107.961 134.648 107.609 134.948 107.56 135.093C107.466 135.369 107.513 135.47 107.257 135.64C106.869 135.896 106.677 136.426 106.297 136.731C106.043 136.936 105.631 137.228 105.343 137.371C104.945 137.568 105.381 137.18 105.245 137.031C105.118 136.891 104.299 136.972 104.114 136.955C103.652 136.911 103.175 137.073 102.728 137.005C102.15 136.917 101.512 136.828 100.932 136.94C100.272 137.068 99.6453 136.853 99.0493 137.147C98.6152 137.362 97.7348 137.202 97.217 137.259C97.1323 137.269 96.532 137.004 96.4086 136.944C95.9451 136.72 95.9517 136.95 96.2726 136.526C96.8535 135.759 97.6768 134.508 98.772 135.141C99.645 135.645 101.015 135.646 102.037 135.609C103.709 135.548 105.418 135.422 107.065 135.091C107.557 134.992 108.297 135.117 107.516 135.503C107.008 135.754 106.5 136.005 105.991 136.256C104.216 137.134 102.451 137.012 100.602 137.112C100.364 137.125 100.132 137.323 99.8974 137.275C99.6406 137.222 99.442 137.159 99.1797 137.25C98.893 137.35 98.2153 137.656 97.9297 137.613C97.3267 137.52 96.5873 137.857 96.0272 137.618C95.7708 137.509 95.3904 137.33 95.1164 137.274C94.4741 137.143 93.5375 137.61 92.9666 137.226C92.7046 137.049 92.2122 137.186 91.8857 136.966C91.4863 136.697 91.1583 137.047 90.7648 136.947C90.1052 136.779 89.5746 136.425 89.0144 136.154C88.2872 135.802 87.8913 135.298 87.0126 135.458C86.7364 135.509 86.145 135.245 85.8504 135.177C85.6212 135.124 85.0791 135.175 84.9279 135.078C84.4421 134.765 83.3597 134.517 82.8257 134.679C82.7423 134.704 81.9947 134.459 81.9039 134.42C81.3432 134.181 80.5236 134.301 79.8998 134.22C79.4237 134.158 79.0182 133.991 78.5573 133.931C78.3398 133.903 78.2696 133.692 78.0813 133.628C77.8909 133.564 77.7007 133.702 77.5158 133.572C76.865 133.115 75.7471 133.304 75.1366 132.631C74.6213 132.064 73.7213 131.908 73.1621 131.367C72.8458 131.061 72.5326 131.142 72.1135 131.012C71.7143 130.888 71.4832 130.587 71.1049 130.417C70.8065 130.283 70.4744 130.28 70.1832 130.14C69.3088 129.723 68.3388 129.273 67.3807 128.985C66.565 128.74 65.6549 128.428 64.8846 128.093C64.6066 127.973 64.0448 127.73 63.751 127.763C63.3882 127.803 62.4096 127.689 62.0723 127.543C61.7781 127.415 61.6536 127.143 61.332 127.045C60.9964 126.942 60.6714 126.844 60.3326 126.754C59.9293 126.646 59.4779 126.535 59.0819 126.507C58.4727 126.465 56.4451 126.359 58.2148 126.662C58.7612 126.756 59.5071 126.503 59.9568 126.957C60.4835 127.488 62.6521 128.258 61.9893 127.91C60.7909 127.282 59.8922 126.548 58.4461 126.345C57.7984 126.254 56.7251 126.081 56.067 126.172C55.1633 126.297 54.258 126.01 53.3697 125.979C52.361 125.944 51.2032 125.532 50.213 125.713C49.5415 125.836 48.9358 125.877 48.2354 125.906C47.3423 125.942 46.8181 126.13 46.0047 126.532C45.4074 126.827 44.6697 126.716 44.0221 127.036C43.0438 127.519 42.0656 128.003 41.0874 128.486C39.1907 129.424 36.9255 130.237 35.302 131.593C34.9319 131.902 34.0419 132.241 33.9104 132.757C33.7924 133.22 33.269 133.741 33.0059 134.139C32.5418 134.842 32.1895 135.518 31.6387 136.156C31.2509 136.605 30.0695 138.146 30.3 138.908C30.3929 139.215 30.536 139.508 30.8572 139.25C31.1068 139.049 31.0134 138.705 31.2953 138.566C31.3082 138.559 30.9388 139.218 30.9028 139.324C30.638 140.107 30.7291 140.986 30.6899 141.802C30.6752 142.107 30.9331 142.455 31.064 142.72C31.2232 143.042 31.0518 143.456 31.1156 143.806C31.1728 144.118 30.9548 144.569 31.0502 144.958C31.1326 145.294 31.1545 145.643 31.2365 145.978C31.4325 146.777 31.6133 147.364 31.9975 148.142C32.3315 148.817 31.9742 149.725 32.4402 150.304C32.6643 150.583 33.0451 150.75 33.3177 150.973C33.6044 151.207 33.7272 151.641 33.8895 151.969C34.2579 152.715 35.1407 153.216 35.5316 154.007C35.9197 154.792 36.3974 155.437 36.7944 156.24C37.0758 156.81 37.4366 158.097 38.1252 158.291C38.3346 158.349 38.9942 159.773 38.8392 159.913C38.5583 160.169 38.7444 160.507 38.4606 160.736C38.206 160.94 37.7929 161.233 37.5064 161.375C37.2419 161.506 36.9126 161.586 36.6505 161.41C36.5156 161.319 36.2932 161.379 36.1381 161.319C35.9313 161.24 35.8452 160.872 35.6558 160.861C35.0843 160.826 34.8585 160.282 34.3045 160.179C33.9462 160.112 33.0852 159.696 32.8543 159.476C32.3631 159.006 31.6174 158.976 31.1761 158.382C30.6633 157.692 30.2836 157.074 29.65 156.491C29.2884 156.157 29.0574 156.327 28.8114 155.829C28.6891 155.581 28.3553 155.15 28.1291 155.02C27.8932 154.883 27.6602 154.312 27.4403 154.09C27.1659 153.813 27.0482 153.347 26.7373 153.167C25.974 152.726 25.515 150.261 25.4026 149.646C25.2383 148.748 25.5482 147.942 25.1103 147.056C24.7929 146.414 25.0035 145.618 24.7097 144.961C24.0022 143.379 25.2321 141.654 25.3681 140.19C25.5084 138.68 26.4043 137.024 26.8599 135.678C27.0473 135.124 27.4172 134.086 27.8169 133.652C28.0543 133.395 28.1391 133.1 28.2593 132.798C28.3508 132.569 28.8952 132.187 29.055 132.017C29.4716 131.574 30.056 131.167 30.3697 130.644C31.1696 129.311 32.2315 128.308 33.6585 127.554C34.3917 127.167 34.9883 126.963 35.334 126.161C35.5382 125.688 37.2865 125.126 37.7444 124.899C38.6983 124.428 39.5873 124.349 40.64 124.262C40.9874 124.233 41.4202 124.331 41.7507 124.189C42.2803 123.963 41.9481 124.194 41.7227 124.133C41.5541 124.086 40.8444 124.208 41.158 123.883C41.3606 123.672 41.7478 123.556 42.0088 123.427C42.7746 123.048 43.3715 122.662 44.1905 122.701C45.685 122.773 47.4375 123.032 48.8242 122.44C49.2025 122.278 49.4943 122.454 49.842 122.572C50.1498 122.676 50.72 122.554 51.0867 122.591C51.5047 122.635 51.9742 122.544 52.374 122.555C52.8609 122.568 53.379 122.567 53.9086 122.59C54.3224 122.609 54.6023 122.877 55.0255 122.708C55.3817 122.567 55.7902 122.672 56.1426 122.791C56.862 123.035 57.6347 123.173 58.3818 123.396C59.1743 123.632 59.8755 123.948 60.6554 124.212C61.0499 124.346 61.4422 124.47 61.8417 124.614C62.0631 124.694 62.9507 124.718 63.0079 124.796C63.3904 125.317 64.5102 125.217 65.0274 125.491C65.2775 125.624 65.4229 126.085 65.6255 126.166C65.8809 126.268 66.222 126.474 66.4512 126.552C66.9458 126.719 67.8155 126.638 68.2833 126.475C68.7373 126.317 69.754 126.992 70.197 127.135C70.7667 127.318 70.7667 127.427 71.1765 127.903C71.4891 128.266 71.6931 128.349 72.0575 128.579C72.3552 128.767 72.8642 128.677 72.6671 128.278C72.5055 127.951 72.7671 127.892 73.0513 127.77C73.2613 127.681 73.6688 127.992 73.9556 127.994C74.2585 127.995 74.8679 128.304 75.021 128.543C75.1586 128.758 75.6197 128.929 75.8607 128.957C76.174 128.993 76.5672 129.532 76.876 129.655C77.1765 129.775 77.7073 130.061 78.0056 130.084C78.4313 130.117 78.6639 130.457 79.008 130.506C79.2679 130.544 79.6227 131.017 79.9031 131.175C80.2245 131.357 80.586 131.41 80.9128 131.541C81.0326 131.588 81.0392 131.791 81.1447 131.867C81.2776 131.963 81.4729 131.895 81.6253 131.947C81.9488 132.056 82.2555 132.129 82.5929 132.227C83.4435 132.474 84.2076 132.639 84.9579 133.157C85.7866 133.73 86.9557 133.619 87.8464 134.076C88.2918 134.305 89.3785 134.653 89.8664 134.665C90.3795 134.678 90.8613 134.756 91.3648 134.877C91.5425 134.92 91.7844 134.877 91.973 134.894C92.1993 134.914 92.1741 135.145 92.3605 135.214C92.6861 135.335 93.2759 135.368 93.6259 135.347C93.6763 135.344 94.5827 135.214 94.4956 135.394C94.291 135.816 91.1484 134.698 90.9204 134.621C89.1856 134.033 87.6736 133.045 85.944 132.511C84.5309 132.075 82.9992 131.934 81.628 131.346C79.7674 130.548 77.2783 130.27 75.2601 130.383C74.557 130.423 73.8816 130.35 73.1958 130.204C72.6152 130.08 71.7494 130.11 71.2171 129.841C70.4898 129.473 69.9414 129.199 69.1277 128.969C68.0542 128.664 66.9021 128.404 65.8502 128.048C64.6236 127.633 63.3605 127.437 62.1561 126.999C60.6887 126.465 59.3587 125.394 57.7724 125.196C56.4011 125.026 55.1411 124.55 53.7375 124.421C52.7482 124.331 51.7849 124.632 50.823 124.556C50.0346 124.494 49.1791 124.424 48.3903 124.524C46.9669 124.704 45.6542 124.918 44.2986 125.347C42.5198 125.91 40.8667 126.849 39.1886 127.679C37.8045 128.363 36.399 128.899 35.0142 129.583C33.2197 130.47 30.8201 131.252 29.7784 133.124C29.2998 133.983 28.902 134.887 28.4085 135.741C28.17 136.154 27.8279 137.03 28.0044 137.493C28.4601 138.689 28.0208 140.077 28.0152 141.298C28.0124 141.917 28.2476 142.488 28.0633 143.145C27.9691 143.48 28.3456 143.966 28.4967 144.271C29.0545 145.4 29.1274 146.712 29.6331 147.855C29.9565 148.586 30.0657 149.373 30.429 150.108C30.6696 150.594 30.9102 151.081 31.1508 151.568C31.6665 152.611 31.7246 153.693 32.2395 154.734C32.4431 155.146 32.9159 155.269 33.1973 155.637C33.5034 156.037 33.9046 156.332 34.2819 156.618" stroke="white" stroke-width="5" stroke-linecap="round"/>
<path d="M85.9723 139.004C85.6546 139.161 85.3413 138.997 85.0235 138.974C84.8289 138.959 84.5194 138.78 84.3373 138.705C84.2332 138.662 84.128 138.688 84.0306 138.629C83.9506 138.581 83.8537 138.546 83.7616 138.53C83.5113 138.485 83.2638 138.522 83.0131 138.475C82.7192 138.42 82.4162 138.346 82.1194 138.311C81.6068 138.251 81.1146 138.064 80.6065 137.955C80.3154 137.892 80.0351 137.746 79.7521 137.661C79.4077 137.556 79.0017 137.346 78.6473 137.315C78.2343 137.279 77.858 137.08 77.4472 137.011C77.0068 136.937 76.5505 136.793 76.1325 136.641C75.6902 136.48 75.2068 136.464 74.7561 136.325C74.5231 136.254 74.3375 136.234 74.1221 136.127C73.9386 136.037 73.7463 135.949 73.5597 135.864C73.1857 135.694 72.844 135.442 72.4569 135.298C72.007 135.129 71.579 134.849 71.1124 134.742C70.7931 134.668 70.491 134.462 70.1891 134.333C69.6707 134.112 69.1547 134.001 68.6104 133.868C68.3543 133.806 68.0651 133.718 67.8291 133.607C67.4419 133.426 66.885 133.429 66.5445 133.158C66.3931 133.037 66.1386 132.921 65.9586 132.832C65.7507 132.73 65.5421 132.628 65.325 132.555C65.042 132.459 64.7344 132.329 64.4278 132.284C64.2316 132.256 63.9869 132.124 63.7886 132.136C63.5755 132.149 63.2965 131.971 63.0924 131.902C62.8874 131.832 62.7578 131.712 62.5287 131.701C62.4449 131.697 62.4044 131.599 62.3173 131.583C62.171 131.556 62.033 131.653 61.8883 131.61C61.736 131.565 61.5792 131.526 61.4223 131.482C61.2505 131.434 61.0705 131.414 60.8949 131.365C60.7115 131.313 60.5147 131.271 60.302 131.28C60.0307 131.291 59.7611 131.15 59.4885 131.138C59.346 131.132 59.1452 131.071 59.0136 131.017C58.9264 130.982 58.7462 130.996 58.6812 130.925C58.6111 130.848 58.4209 130.783 58.3096 130.743C58.1058 130.669 57.9821 130.603 57.7689 130.709" stroke="black" stroke-width="3" stroke-linecap="round"/>
<path d="M57.2003 130.189C57.1119 130.221 57.0098 130.082 56.9465 130.031C56.8568 129.958 56.7587 129.948 56.6548 129.915C56.2695 129.793 55.8252 129.819 55.4288 129.864C54.8937 129.925 54.4124 130.057 53.8833 129.936C53.6957 129.894 53.5051 129.83 53.3163 129.799C53.2118 129.782 52.9164 129.728 52.8446 129.649C52.759 129.555 52.5844 129.541 52.4628 129.532C52.337 129.522 52.2259 129.457 52.1144 129.457C51.0454 129.452 50.0172 129.75 48.9753 129.944C48.5446 130.023 48.1598 130.14 47.7232 130.17C47.44 130.189 47.1882 130.195 46.9079 130.19C46.7114 130.186 46.5577 130.187 46.3601 130.221C46.1429 130.258 45.8757 130.2 45.6743 130.283C44.7741 130.653 43.9007 131.115 43.0239 131.549C42.6501 131.733 42.2614 131.983 41.8595 132.102C41.7411 132.137 41.6154 132.145 41.4976 132.179C41.1249 132.289 40.7419 132.543 40.3976 132.713C39.9385 132.94 39.4725 133.157 39.0305 133.416C38.7453 133.583 38.4129 133.753 38.1553 133.965C37.9306 134.15 37.7347 134.43 37.5381 134.645C37.3152 134.89 37.1543 135.204 36.9174 135.429C36.7575 135.581 36.6402 135.721 36.5101 135.905C36.1174 136.46 35.6227 136.926 35.2637 137.502C34.9289 138.039 34.8884 138.692 34.7454 139.287C34.6163 139.825 34.6404 140.455 34.687 141.003C34.7086 141.258 34.6518 141.486 34.645 141.738C34.6388 141.967 34.6452 142.227 34.5556 142.442C34.4675 142.653 34.4408 142.932 34.4622 143.158C34.4976 143.532 34.4419 143.92 34.4787 144.301C34.5026 144.547 34.5915 144.851 34.584 145.094C34.5768 145.327 34.6942 145.551 34.7136 145.786C34.7452 146.167 35.0717 146.484 35.1395 146.867C35.215 147.294 35.4239 147.672 35.6134 148.056C35.8581 148.551 36.1028 149.046 36.3475 149.541C36.7409 150.337 37.0226 151.199 37.5579 151.92C37.6993 152.11 37.8349 152.333 37.999 152.503C38.1727 152.682 38.425 152.85 38.568 153.054C38.6362 153.151 38.7073 153.251 38.7657 153.354C38.8047 153.423 38.9322 153.463 38.9877 153.533C39.1272 153.711 39.344 153.804 39.4403 153.999" stroke="black" stroke-width="3" stroke-linecap="round"/>
<path d="M120.988 133.105C120.951 133.186 120.894 133.23 120.872 133.314C120.842 133.426 120.713 133.564 120.635 133.645C120.469 133.818 120.336 133.99 120.136 134.132C119.979 134.243 119.842 134.369 119.693 134.486C119.604 134.555 119.541 134.608 119.475 134.697C119.45 134.732 119.416 134.745 119.381 134.767C119.309 134.812 119.249 134.874 119.179 134.922C118.949 135.083 118.715 135.236 118.477 135.386C118.325 135.482 118.198 135.604 118.057 135.715C117.912 135.828 117.725 135.903 117.564 135.99C117.487 136.032 117.423 136.089 117.352 136.14C117.271 136.199 117.179 136.239 117.099 136.299C116.896 136.453 116.684 136.601 116.468 136.735C116.303 136.838 116.151 136.967 115.981 137.06C115.725 137.201 115.477 137.349 115.213 137.48C114.936 137.617 114.66 137.752 114.391 137.904C113.834 138.219 113.324 138.606 112.749 138.89C112.567 138.98 112.385 139.07 112.202 139.16C112.02 139.25 111.85 139.33 111.653 139.382C111.548 139.41 111.438 139.44 111.334 139.474C111.151 139.534 110.963 139.553 110.778 139.61C110.623 139.657 110.474 139.686 110.317 139.707" stroke="black" stroke-width="3" stroke-linecap="round"/>
<path d="M109.771 139.559C109.641 139.623 109.511 139.688 109.38 139.752C109.155 139.863 108.999 139.89 108.755 139.908C108.444 139.93 108.121 140.109 107.815 140.084C107.654 140.071 107.443 140.126 107.286 140.164C106.736 140.299 106.211 140.531 105.665 140.674C105.105 140.821 104.504 140.933 103.93 141.028C103.715 141.063 103.48 141.173 103.266 141.188C103.128 141.198 103.014 141.185 102.873 141.207C102.569 141.255 102.176 141.247 101.869 141.216C101.191 141.149 100.522 141.215 99.8488 141.207C99.5363 141.203 99.2796 141.042 98.958 141.054C98.8116 141.06 98.6689 141.025 98.5203 141.029C98.447 141.031 98.306 141.069 98.237 141.035C97.8723 140.859 97.4055 141.156 97.0344 141.052C96.6449 140.942 96.0485 141.021 95.6575 141.085C95.4886 141.112 95.355 141.082 95.188 141.09C94.7061 141.111 94.2259 141.095 93.7501 141.01C93.5382 140.972 93.3144 141.006 93.0995 140.973C92.8396 140.933 92.539 140.916 92.2738 140.897C92.0821 140.883 91.8544 140.847 91.666 140.812C91.4863 140.778 91.3014 140.79 91.1245 140.746C90.9375 140.7 90.7571 140.635 90.5665 140.602C90.4348 140.579 90.3287 140.421 90.1909 140.437C89.8885 140.47 89.6071 140.332 89.31 140.289C89.0359 140.249 88.7676 140.156 88.4926 140.125C88.3335 140.107 88.0976 140.112 87.9521 140.041C87.7851 139.96 87.644 139.871 87.4779 139.781C87.3816 139.73 87.064 139.654 87.0035 139.561C86.9454 139.472 86.7845 139.452 86.6932 139.403C86.5818 139.344 86.4534 139.211 86.3273 139.273" stroke="black" stroke-width="3" stroke-linecap="round"/>
<path d="M39.8356 154.069C39.9101 154.22 39.9731 154.399 40.0727 154.534C40.2466 154.77 40.487 154.953 40.7001 155.152C41.0604 155.49 41.2312 156.032 41.4454 156.465C41.6925 156.965 41.9397 157.465 42.1869 157.965C42.3055 158.205 42.4561 158.436 42.4869 158.705C42.5114 158.917 42.5627 159.127 42.6256 159.331C42.7602 159.768 42.6069 160.262 42.6083 160.702C42.6097 161.113 42.4904 161.573 42.3597 161.959C42.3047 162.121 42.1799 162.278 42.0891 162.424C41.9479 162.65 41.784 162.873 41.6265 163.089C41.3863 163.419 40.9288 163.714 40.5652 163.894C40.3946 163.978 40.2234 164.061 40.0534 164.147C39.8463 164.251 39.6523 164.381 39.4435 164.481C39.2961 164.552 39.1218 164.542 38.9632 164.562C38.5778 164.611 38.1668 164.694 37.795 164.808C37.7161 164.832 37.6129 164.896 37.5276 164.889C37.4787 164.885 37.4445 164.839 37.3966 164.83C37.1184 164.78 36.8322 164.761 36.5539 164.712C36.3799 164.681 36.183 164.544 36.0196 164.47C35.8596 164.398 35.6976 164.345 35.5332 164.285C35.3828 164.23 35.2657 164.224 35.1113 164.193C34.7163 164.116 34.3245 163.939 33.9409 163.809C32.9769 163.483 32.0854 162.996 31.1174 162.669" stroke="black" stroke-width="3" stroke-linecap="round"/>
<path d="M30.3404 162.449C30.2701 162.343 30.1189 162.326 30.0477 162.215C29.9177 162.012 29.7122 161.731 29.5019 161.612C29.3171 161.508 29.1514 161.31 29.0029 161.16C28.852 161.008 28.6463 160.888 28.4822 160.746C28.3556 160.637 28.2464 160.503 28.1062 160.409C27.7771 160.187 27.4941 159.909 27.137 159.72C26.804 159.545 26.5271 159.219 26.3153 158.917C26.1909 158.74 26.0282 158.566 25.8835 158.404C25.845 158.361 25.7701 158.354 25.7293 158.302C25.6766 158.235 25.6181 158.149 25.5802 158.073C25.4567 157.823 25.204 157.668 25.0619 157.431C24.8335 157.05 24.5119 156.705 24.2251 156.368C24.0244 156.131 23.9098 155.815 23.7739 155.54C23.6423 155.274 23.4661 155.001 23.4086 154.706C23.3488 154.4 23.1983 154.139 23.0609 153.861C22.9461 153.629 22.7677 153.374 22.7439 153.115C22.7325 152.992 22.7542 152.828 22.6989 152.716" stroke="black" stroke-width="3" stroke-linecap="round"/>
<path d="M22.0933 151.906C22.1304 151.796 22.1173 151.682 22.1247 151.57C22.1355 151.406 22.1153 151.231 22.0932 151.066C22.0454 150.71 22.0699 150.344 21.9668 149.997C21.9069 149.796 21.8361 149.61 21.8019 149.401C21.7822 149.281 21.7909 149.159 21.7632 149.041C21.7361 148.925 21.7005 148.809 21.6855 148.69C21.6731 148.592 21.6454 148.496 21.6329 148.397C21.6129 148.237 21.6353 148.076 21.6098 147.917C21.5634 147.628 21.4772 147.346 21.4584 147.053C21.4471 146.877 21.4059 146.688 21.3706 146.515C21.3379 146.355 21.307 146.219 21.3181 146.055C21.3382 145.757 21.2905 145.47 21.2753 145.174C21.2659 144.991 21.2749 144.838 21.238 144.656C21.2013 144.475 21.2427 144.293 21.2172 144.109C21.1888 143.904 21.2061 143.7 21.1907 143.494C21.1767 143.307 21.1564 143.126 21.1647 142.937C21.1728 142.753 21.1514 142.57 21.1893 142.39C21.2198 142.244 21.241 142.08 21.2499 141.932C21.2609 141.749 21.3094 141.583 21.3939 141.42C21.4832 141.247 21.54 141.063 21.6394 140.896C21.721 140.759 21.7697 140.584 21.8027 140.43C21.8788 140.074 22.071 139.749 22.1474 139.392C22.2377 138.969 22.285 138.51 22.436 138.11C22.5329 137.853 22.6421 137.591 22.7334 137.321" stroke="black" stroke-width="3" stroke-linecap="round"/>
<path d="M22.9121 136.561C22.9376 136.598 22.9803 136.463 22.9899 136.45C23.0215 136.406 23.0236 136.376 23.0353 136.325C23.0524 136.251 23.1225 136.209 23.1609 136.146C23.2113 136.064 23.2336 135.977 23.2668 135.888C23.3479 135.67 23.4716 135.473 23.5654 135.259C23.6538 135.057 23.7105 134.842 23.7931 134.637C23.8433 134.513 23.9111 134.403 23.9721 134.285C24.03 134.172 24.035 134.057 24.0745 133.941C24.1709 133.656 24.2866 133.377 24.389 133.094C24.4326 132.974 24.4386 132.845 24.483 132.727C24.5426 132.568 24.6924 132.41 24.7847 132.265C24.9553 131.997 25.1161 131.715 25.2805 131.441C25.3721 131.289 25.4745 131.143 25.5647 130.99C25.6206 130.895 25.6288 130.798 25.6706 130.702C25.7302 130.566 25.8715 130.447 25.9583 130.326C26.0644 130.179 26.1577 130.03 26.2775 129.893C26.3243 129.84 26.3253 129.779 26.3621 129.726C26.4003 129.672 26.4526 129.628 26.4902 129.566C26.5719 129.431 26.6752 129.282 26.7728 129.16C27.0073 128.867 27.2608 128.626 27.5562 128.4C28.2464 127.873 28.9018 127.286 29.5359 126.708C29.8821 126.393 30.1816 126.028 30.5349 125.719C30.7855 125.499 31.0256 125.267 31.2666 125.038C31.4717 124.842 31.7379 124.689 31.9236 124.478C32.1238 124.25 32.3439 124.081 32.5866 123.9C32.8876 123.677 33.2549 123.534 33.5461 123.296C33.8306 123.065 34.1193 122.88 34.4521 122.716" stroke="black" stroke-width="3" stroke-linecap="round"/>
<path d="M34.8979 122.504C35.0541 122.426 35.2102 122.349 35.3664 122.272C35.6254 122.144 35.9031 122.121 36.1658 122C36.2956 121.94 36.4596 121.905 36.5983 121.861C36.9013 121.765 37.1839 121.629 37.4807 121.518C37.5614 121.488 37.6529 121.477 37.7305 121.441C38.0822 121.278 38.4536 121.077 38.8354 120.994C39.1321 120.929 39.4076 120.767 39.7018 120.712C40.0328 120.65 40.3675 120.545 40.6858 120.434C41.0042 120.322 41.3193 120.189 41.6224 120.039C41.7623 119.97 41.9014 119.889 42.047 119.832C42.1753 119.783 42.3115 119.781 42.4425 119.732C43.0549 119.505 43.7077 119.507 44.3437 119.386C44.5947 119.338 44.8436 119.251 45.0955 119.214C45.2267 119.194 45.3611 119.202 45.4927 119.186C45.6352 119.169 45.7518 119.128 45.8981 119.134C46.034 119.139 46.1551 119.142 46.2918 119.127C46.4742 119.106 46.6834 119.14 46.8636 119.166C47.069 119.196 47.2793 119.198 47.4865 119.22C47.7599 119.248 48.0444 119.221 48.3136 119.172C48.5977 119.121 48.8777 119.176 49.1556 119.138C49.3575 119.11 49.5744 119.151 49.7802 119.136C50.0133 119.119 50.2675 119.159 50.4996 119.181C50.7724 119.206 51.0474 119.226 51.3214 119.233C51.4302 119.236 51.5731 119.232 51.6759 119.275C51.7998 119.326 51.9763 119.377 52.123 119.372C52.3819 119.365 52.6358 119.497 52.896 119.498C53.087 119.499 53.2517 119.552 53.4375 119.58C53.7878 119.632 54.1515 119.607 54.5046 119.652C54.6278 119.668 54.7809 119.614 54.8996 119.645C54.9931 119.669 55.0804 119.653 55.1763 119.66C55.2691 119.666 55.3436 119.703 55.4378 119.703C55.6889 119.7 55.9596 119.696 56.2023 119.735C56.4608 119.777 56.7928 119.732 57.0259 119.85" stroke="black" stroke-width="3" stroke-linecap="round"/>
<path d="M112.146 129.491C112.097 129.619 112.015 129.721 111.932 129.828C111.84 129.945 111.633 130 111.503 130.064C110.707 130.457 109.912 130.869 109.074 131.168C108.747 131.285 108.393 131.364 108.054 131.443C107.723 131.52 107.362 131.574 107.049 131.709C106.743 131.842 106.419 131.931 106.089 131.985C105.653 132.056 105.247 132.189 104.819 132.296C104.265 132.433 103.688 132.526 103.126 132.629C102.991 132.654 102.863 132.633 102.729 132.64C102.618 132.646 102.509 132.661 102.397 132.66C102.183 132.658 101.973 132.643 101.759 132.672C101.632 132.689 101.508 132.718 101.38 132.733C101.306 132.742 101.241 132.732 101.17 132.762C101.11 132.787 101.094 132.755 101.034 132.752C100.952 132.748 100.875 132.793 100.79 132.783C100.661 132.768 100.53 132.79 100.398 132.778C100.261 132.765 100.112 132.784 99.9752 132.791C99.8504 132.798 99.7106 132.765 99.5832 132.759" stroke="black" stroke-width="3" stroke-linecap="round"/>
<path d="M98.5907 132.485C98.3884 132.371 98.1097 132.43 97.8904 132.393C97.7213 132.365 97.5549 132.365 97.385 132.321C96.9429 132.207 96.4859 132.216 96.0328 132.174C95.7495 132.147 95.4791 132.142 95.2014 132.075C94.9604 132.017 94.7057 131.938 94.4602 131.909C94.1925 131.877 93.927 131.801 93.6632 131.746C93.4198 131.696 93.168 131.695 92.9285 131.622C92.7156 131.557 92.5051 131.53 92.2898 131.481C92.0091 131.417 91.7602 131.253 91.4722 131.206C91.0772 131.142 90.69 131.012 90.2953 130.943C90.099 130.908 89.9167 130.852 89.7264 130.794C89.6879 130.782 89.6148 130.798 89.5856 130.762C89.5674 130.739 89.4855 130.704 89.4533 130.705C89.422 130.705 89.4148 130.729 89.3883 130.704C89.3661 130.682 89.3579 130.668 89.3296 130.668" stroke="black" stroke-width="3" stroke-linecap="round"/>
<path d="M88.727 130.572C88.6765 130.493 88.5459 130.496 88.4674 130.469C88.3929 130.444 88.3226 130.413 88.2511 130.38C88.0456 130.285 87.8329 130.228 87.6185 130.158C87.3213 130.06 87.0245 130.01 86.7462 129.872C86.4466 129.723 86.1132 129.646 85.7915 129.56C85.7015 129.536 85.6463 129.493 85.5696 129.442C85.3978 129.326 85.2024 129.23 85.022 129.128C84.8089 129.007 84.5605 128.958 84.3427 128.847C84.2384 128.795 84.123 128.793 84.0123 128.765C83.8826 128.732 83.7457 128.683 83.6202 128.636C83.3951 128.55 83.1711 128.453 82.9387 128.389C82.7669 128.342 82.6005 128.323 82.4341 128.259C82.0725 128.12 81.6673 128.177 81.3313 127.957C81.1331 127.828 80.9579 127.677 80.7474 127.568C80.6218 127.503 80.4979 127.412 80.3827 127.33C80.0664 127.105 79.7414 126.914 79.3889 126.754C79.173 126.656 78.9427 126.591 78.7113 126.547C78.5838 126.523 78.3683 126.495 78.2641 126.41C78.1485 126.316 77.9892 126.321 77.8707 126.231" stroke="black" stroke-width="3" stroke-linecap="round"/>
<path d="M77.9539 126.028C77.8955 126.053 77.8828 126.02 77.8364 125.988C77.735 125.919 77.6528 125.881 77.5321 125.854C77.3376 125.81 77.1152 125.803 76.9289 125.735C76.7843 125.683 76.6275 125.658 76.4894 125.591C76.3004 125.498 76.1035 125.432 75.9064 125.359C75.6787 125.275 75.4583 125.263 75.2428 125.141C75.0781 125.048 74.9108 124.953 74.731 124.892C74.3933 124.778 74.0774 124.634 73.7494 124.495C73.2868 124.298 72.8002 124.17 72.3379 123.972C72.1851 123.907 72.0261 123.88 71.8701 123.828C71.6753 123.762 71.5752 123.633 71.4184 123.513C71.2627 123.393 71.0921 123.237 70.9082 123.163C70.8051 123.121 70.7105 123.054 70.5981 123.035C70.4899 123.017 70.3951 122.968 70.2858 122.961C70.1703 122.953 70.0473 122.938 69.9309 122.925C69.771 122.907 69.6182 122.845 69.4586 122.86C69.3907 122.866 69.3067 122.835 69.2415 122.817C68.9358 122.73 68.6136 122.694 68.308 122.607C68.1455 122.561 67.9552 122.576 67.8018 122.502C67.6905 122.449 67.5238 122.4 67.402 122.376C67.2701 122.349 67.149 122.305 67.0164 122.283C66.9515 122.272 66.8732 122.276 66.8164 122.243" stroke="black" stroke-width="3" stroke-linecap="round"/>
<path d="M66.6114 122.391C66.5134 122.415 66.31 122.323 66.2155 122.303C66.0753 122.274 65.9411 122.239 65.8021 122.209C65.6484 122.175 65.5044 122.113 65.3486 122.078C65.1519 122.034 64.9744 121.932 64.7971 121.84C64.4899 121.68 64.1566 121.527 63.8195 121.445C63.3963 121.342 62.9778 121.222 62.5474 121.155C62.3883 121.13 62.2422 121.064 62.0851 121.029C61.9518 121 61.8101 120.969 61.681 120.925C61.5624 120.885 61.4384 120.832 61.3226 120.783C61.1871 120.726 61.0477 120.69 60.9125 120.636C60.4477 120.449 59.8757 120.48 59.3849 120.472C59.11 120.468 58.8579 120.348 58.579 120.339C58.4457 120.335 58.329 120.307 58.1968 120.295C58.1081 120.287 58.041 120.234 57.9504 120.242C57.863 120.249 57.7138 120.232 57.6307 120.204C57.4647 120.148 57.2807 120.22 57.1014 120.164C57.0225 120.14 56.9357 120.106 56.8541 120.096C56.7782 120.088 56.7609 120.058 56.7037 120.037C56.6436 120.014 56.5888 119.993 56.5264 119.985" stroke="black" stroke-width="3" stroke-linecap="round"/>
<path d="M192.4 28.5C143.343 28.5 103.9 63.5913 103.9 106.5C103.9 149.409 143.343 184.5 192.4 184.5C241.458 184.5 280.9 149.409 280.9 106.5C280.9 63.5913 241.458 28.5 192.4 28.5Z" fill="white" stroke="black" stroke-width="3"/>
<path d="M321.218 82.045L320.91 57.0675L283.319 60.4677L321.218 82.045Z" fill="white" stroke="black" stroke-width="3"/>
<path d="M234.271 57.9686L196.777 54.2006L195.903 79.1624L234.271 57.9686Z" fill="white" stroke="black" stroke-width="3"/>
<path d="M183.5 112.074C183.5 127.417 191.594 141.41 204.881 151.614C218.169 161.82 236.591 168.175 257 168.175C277.409 168.175 295.831 161.82 309.119 151.614C322.406 141.41 330.5 127.417 330.5 112.074C330.5 96.7312 322.406 82.7386 309.119 72.5343C295.831 62.3288 277.409 55.9738 257 55.9738C236.591 55.9738 218.169 62.3288 204.881 72.5343C191.594 82.7386 183.5 96.7312 183.5 112.074Z" fill="white" stroke="black" stroke-width="3"/>
<path d="M284.805 109.991C284.805 109.925 284.775 109.868 284.727 109.82C284.67 109.763 284.611 109.676 284.578 109.601C284.538 109.512 284.443 109.433 284.407 109.337C284.366 109.229 284.248 109.125 284.181 109.029C284.115 108.936 284.095 108.783 284.011 108.711C283.934 108.646 283.843 108.501 283.796 108.413C283.76 108.345 283.705 108.287 283.673 108.218C283.658 108.184 283.625 108.154 283.614 108.118C283.586 108.024 283.548 107.932 283.517 107.838C283.498 107.779 283.487 107.721 283.461 107.663C283.412 107.557 283.366 107.449 283.324 107.339C283.28 107.221 283.259 107.096 283.213 106.979C283.198 106.941 283.17 106.911 283.151 106.875C283.095 106.768 283.045 106.659 282.99 106.551C282.898 106.373 282.855 106.15 282.728 105.988C282.598 105.824 282.584 105.608 282.515 105.412C282.494 105.352 282.48 105.285 282.465 105.223C282.444 105.135 282.384 105.065 282.366 104.978C282.353 104.918 282.337 104.876 282.337 104.814" stroke="black" stroke-linecap="round"/>
<path d="M285.073 109.817C284.968 109.758 285.099 109.668 285.143 109.62C285.22 109.536 285.31 109.524 285.354 109.398C285.414 109.223 285.497 109.044 285.584 108.882C285.608 108.837 285.651 108.763 285.689 108.731C285.735 108.693 285.735 108.623 285.784 108.588C285.818 108.563 285.836 108.499 285.861 108.463C285.894 108.417 285.924 108.372 285.96 108.327C286.026 108.245 286.103 108.184 286.178 108.108C286.215 108.071 286.287 107.971 286.296 107.92C286.305 107.865 286.374 107.805 286.415 107.763C286.572 107.607 286.58 107.373 286.731 107.221C286.794 107.158 286.84 107.087 286.908 107.024C286.941 106.994 286.99 106.999 287.003 106.954C287.024 106.887 287.066 106.825 287.104 106.767C287.221 106.592 287.359 106.415 287.447 106.23C287.483 106.153 287.543 106.104 287.59 106.036C287.626 105.984 287.635 105.931 287.66 105.875C287.715 105.756 287.839 105.698 287.881 105.567C287.908 105.483 287.995 105.376 287.995 105.295C287.995 105.236 288.035 105.191 288.035 105.126C288.035 105.064 288.059 105.03 288.078 104.975C288.108 104.89 288.092 104.806 288.163 104.735C288.253 104.644 288.291 104.513 288.346 104.396C288.371 104.343 288.366 104.3 288.371 104.244C288.384 104.11 288.447 103.984 288.478 103.854C288.493 103.788 288.491 103.704 288.513 103.641C288.526 103.602 288.579 103.577 288.587 103.538C288.596 103.497 288.633 103.463 288.655 103.428C288.678 103.393 288.676 103.346 288.696 103.311C288.743 103.227 288.745 103.147 288.745 103.053C288.745 102.976 288.747 102.9 288.796 102.837C288.857 102.758 288.824 102.6 288.824 102.505C288.824 102.324 288.841 102.137 288.824 101.958C288.813 101.835 288.757 101.711 288.746 101.583C288.739 101.488 288.722 101.4 288.726 101.302C288.728 101.228 288.745 101.156 288.745 101.08C288.745 101.002 288.785 100.944 288.785 100.872" stroke="black" stroke-linecap="round"/>
<path d="M282.372 104.599C282.372 103.727 282.294 102.865 282.294 102C282.294 101.772 282.282 101.54 282.294 101.312C282.305 101.113 282.331 100.813 282.43 100.636C282.534 100.448 282.442 100.244 282.601 100.058C282.666 99.9821 282.615 99.8775 282.698 99.8066C282.75 99.7625 282.786 99.5723 282.827 99.4951C282.916 99.3267 283.106 99.0776 283.106 98.8765C283.106 98.6654 283.211 98.4855 283.222 98.2751C283.232 98.0925 283.34 98.0184 283.454 97.8928C283.803 97.5089 284.144 97.1033 284.391 96.6341C284.533 96.3642 284.759 96.1258 284.915 95.8608C284.974 95.7598 285.074 95.7279 285.108 95.6073C285.149 95.4632 285.253 95.3542 285.366 95.2615C285.519 95.1363 285.588 94.9132 285.716 94.7568C285.882 94.5542 286.016 94.3814 286.199 94.1983" stroke="black" stroke-linecap="round"/>
<path d="M288.751 100.848C288.751 100.372 288.92 99.7469 288.751 99.2846C288.677 99.079 288.531 98.8703 288.519 98.6445C288.517 98.5899 288.467 98.5684 288.451 98.52C288.428 98.4513 288.453 98.3811 288.423 98.3138C288.365 98.1862 288.38 98.0497 288.335 97.9228C288.236 97.6457 288.191 97.3602 287.998 97.1238C287.917 97.0255 287.853 96.9584 287.793 96.8274C287.738 96.705 287.616 96.5185 287.592 96.3956C287.549 96.181 287.431 96.0191 287.317 95.835C287.08 95.4539 286.914 95.0278 286.672 94.6537C286.645 94.6121 286.677 94.5522 286.655 94.5076C286.629 94.4561 286.56 94.451 286.53 94.3916C286.49 94.311 286.469 94.249 286.393 94.1983" stroke="black" stroke-linecap="round"/>
<path d="M285.852 104.831C285.852 104.962 285.752 105.025 285.736 105.14C285.712 105.302 285.7 105.43 285.637 105.589C285.584 105.722 285.434 105.921 285.426 106.068C285.417 106.24 285.342 106.486 285.25 106.631C285.155 106.78 285.163 107.081 285.126 107.258C285.088 107.435 285.078 107.584 285.078 107.769" stroke="black" stroke-width="3" stroke-linecap="round"/>
<path d="M285.89 98.6832C285.89 98.5366 285.868 98.4467 285.997 98.3524C286.096 98.2805 286.176 98.1574 286.219 98.0453C286.302 97.8292 286.154 97.5409 286.277 97.3386C286.406 97.1252 286.393 96.8573 286.393 96.6147C286.393 96.5138 286.393 96.4128 286.393 96.3119C286.393 96.0614 286.454 96.8509 286.315 97.0594" stroke="black" stroke-width="3" stroke-linecap="round"/>
<path d="M286.432 105.256C286.566 105.241 286.665 105.032 286.758 104.944C286.971 104.744 286.937 104.563 287.012 104.311C287.107 103.991 287.128 103.613 287.128 103.282C287.128 102.952 287.247 102.648 287.28 102.32C287.365 101.472 287.282 100.583 287.282 99.7293C287.282 99.4321 287.247 99.1152 287.136 98.8379C287.084 98.7066 287.128 98.4755 287.128 98.3353" stroke="black" stroke-width="3" stroke-linecap="round"/>
<path d="M284.227 105.024C284.181 105.018 284.123 104.373 284.113 104.3C284.094 104.141 284.135 104.624 284.189 104.775C284.225 104.877 284.326 104.927 284.341 105.041C284.355 105.148 284.343 105.262 284.343 105.37C284.343 105.525 284.343 105.681 284.343 105.836C284.343 105.898 284.343 105.909 284.343 105.836C284.343 105.647 284.343 105.458 284.343 105.269C284.343 105.112 284.334 104.962 284.373 104.809C284.393 104.734 284.455 104.677 284.459 104.599C284.49 104.006 284.483 103.355 284.62 102.766C284.656 102.611 284.688 102.422 284.773 102.283C284.8 102.239 284.766 102.516 284.76 102.541C284.668 102.918 284.653 103.28 284.653 103.666C284.653 104.068 284.623 104.471 284.573 104.867C284.551 105.043 284.537 105.208 284.537 105.389C284.537 105.535 284.758 106.007 284.683 105.625C284.65 105.458 284.536 105.318 284.502 105.157C284.466 104.986 284.498 104.779 284.498 104.605C284.498 104.377 284.498 104.15 284.498 103.922C284.498 103.675 284.382 103.469 284.382 103.224C284.382 103.046 284.421 102.877 284.421 102.704" stroke="black" stroke-width="3" stroke-linecap="round"/>
<path d="M284.189 103.477C283.98 103.477 284.065 103.013 284.082 102.867C284.109 102.629 284.245 102.445 284.318 102.225C284.372 102.064 284.404 101.833 284.419 101.665C284.454 101.276 284.555 100.886 284.636 100.5C284.676 100.309 284.769 100.114 284.769 99.9183C284.769 99.6872 284.804 99.4491 284.864 99.2266C284.904 99.0763 284.963 98.8533 284.963 98.7025C284.963 98.5691 285.139 98.4001 285.156 98.2579C285.16 98.2239 285.265 98.0906 285.293 98.0668C285.381 97.9914 285.352 98.1761 285.347 98.2214C285.323 98.4617 285.272 98.6689 285.272 98.9152" stroke="black" stroke-width="3" stroke-linecap="round"/>
<path d="M284.962 100.346C284.874 100.365 284.66 100.839 284.653 100.934C284.627 101.25 284.455 101.545 284.421 101.854C284.407 101.977 284.353 102.24 284.275 102.326C284.139 102.476 284.185 102.311 284.189 102.163C284.194 101.972 284.306 101.703 284.421 101.553C284.54 101.396 284.5 101.18 284.575 100.994C284.608 100.913 284.687 100.573 284.507 100.694C284.272 100.85 284.201 101.175 284.15 101.428" stroke="black" stroke-width="3" stroke-linecap="round"/>
<path d="M270.99 109.898C271.217 109.898 271.269 109.948 271.421 110.1C271.517 110.196 271.639 110.316 271.746 110.397C271.844 110.472 272.001 110.485 272.085 110.557C272.308 110.746 272.586 110.716 272.836 110.83C273.123 110.962 273.457 111.027 273.768 111.084C273.927 111.113 274.055 111.21 274.22 111.221C274.341 111.228 274.503 111.245 274.617 111.289C275.114 111.48 275.628 111.579 276.128 111.745C276.898 112.002 277.673 112.179 278.473 112.179C279.133 112.179 279.755 112.27 280.419 112.27C281.291 112.27 282.119 112.347 282.984 112.404C283.745 112.455 284.506 112.452 285.27 112.452C285.593 112.452 285.916 112.452 286.238 112.452C286.698 112.452 287.088 112.229 287.531 112.179C287.977 112.128 288.411 111.89 288.859 111.811C289.424 111.712 289.945 111.443 290.441 111.167C290.967 110.875 291.497 110.56 291.967 110.181C292.173 110.015 292.358 109.756 292.542 109.558C293.004 109.062 293.487 108.593 294.004 108.154C294.302 107.901 294.434 107.569 294.679 107.277C294.878 107.039 295.024 106.776 295.15 106.494C295.256 106.257 295.419 106.089 295.571 105.883C295.898 105.438 296.149 104.96 296.438 104.489C296.588 104.243 296.732 104.017 296.901 103.784C296.973 103.685 297.041 103.52 297.041 103.394C297.041 102.792 297.458 102.25 297.614 101.686C297.7 101.371 297.761 101.049 297.847 100.738C297.88 100.618 297.954 100.344 298.029 100.241C298.384 99.7567 298.674 99.3511 298.891 98.7759C299.035 98.3948 299.153 97.9778 299.276 97.5897C299.328 97.4276 299.396 97.3184 299.436 97.1487C299.471 97.001 299.514 96.8558 299.55 96.7102C299.642 96.3407 299.807 96.0508 299.976 95.7141C300.099 95.4684 300.149 95.1904 300.234 94.9335" stroke="black" stroke-width="3" stroke-linecap="round"/>
<path d="M271.438 108.783C271.438 108.586 271.402 108.344 271.446 108.151C271.525 107.805 271.696 107.509 271.802 107.171C271.904 106.845 271.977 106.533 272.09 106.212C272.278 105.678 272.398 105.121 272.581 104.582C272.603 104.517 272.62 104.45 272.641 104.384C272.694 104.221 272.843 104.121 272.901 103.962C273.051 103.545 273.096 103.066 273.168 102.63C273.23 102.257 273.498 101.832 273.669 101.501C273.928 101 274.224 100.521 274.48 100.018C274.801 99.3872 275.171 98.7543 275.577 98.1766C275.71 97.9872 275.797 97.773 275.925 97.581C275.981 97.4977 276.063 97.469 276.134 97.4019C276.575 96.9901 277.063 96.5958 277.591 96.3072C277.955 96.1081 278.323 95.8738 278.644 95.613C278.723 95.5486 278.73 95.481 278.829 95.4319C278.937 95.3777 279.068 95.3211 279.169 95.2568C279.993 94.7321 280.811 94.2032 281.523 93.5303C281.831 93.239 282.043 93.0977 282.433 92.9528C282.884 92.7849 283.312 92.671 283.777 92.5483C283.892 92.518 283.988 92.4197 284.107 92.4115C284.241 92.4023 284.368 92.3781 284.501 92.3571C285.114 92.2605 285.729 92.1827 286.34 92.0855C286.79 92.0141 287.234 91.898 287.687 91.8521C287.954 91.825 288.227 91.8059 288.496 91.7977C288.836 91.7874 289.149 91.6937 289.484 91.6589C290.123 91.5926 290.871 91.5284 291.504 91.6508C291.73 91.6945 291.947 91.7724 292.172 91.8158C292.395 91.8591 292.611 91.856 292.834 91.9205C293.373 92.0765 293.956 92.1009 294.486 92.2827C294.791 92.3872 295.052 92.4844 295.376 92.5382C295.776 92.605 296.24 92.666 296.611 92.8381C296.743 92.8994 296.868 92.9061 297.009 92.9266C297.335 92.9736 297.642 93.1051 297.969 93.156C298.237 93.1977 298.474 93.2808 298.748 93.2808" stroke="black" stroke-width="3" stroke-linecap="round"/>
<path d="M298.374 93.0396C298.87 93.0396 299.325 93.258 299.756 93.4737C299.938 93.5646 300.19 93.5205 300.391 93.5205C300.65 93.5205 300.774 93.7609 301.019 93.7609" stroke="black" stroke-width="3" stroke-linecap="round"/>
<path d="M244.898 109.768C244.879 109.958 244.812 110.171 244.627 110.264C244.221 110.467 243.863 110.759 243.381 110.819C243.276 110.832 243.18 110.898 243.077 110.925C242.843 110.985 242.606 111.028 242.373 111.097C242.097 111.18 241.814 111.242 241.551 111.363C241.223 111.513 240.857 111.608 240.517 111.74C240.355 111.804 240.169 111.796 240 111.835C239.573 111.933 239.157 112.076 238.726 112.159C238.129 112.274 237.497 112.228 236.907 112.351C236.742 112.386 236.596 112.518 236.43 112.526C235.813 112.554 235.234 112.759 234.609 112.759C233.318 112.759 232.027 112.759 230.737 112.759C230.402 112.759 230.065 112.771 229.731 112.759C229.563 112.753 229.406 112.68 229.243 112.643C228.796 112.541 228.355 112.475 227.927 112.302C227.592 112.166 227.27 112.007 226.934 111.866C226.694 111.765 226.439 111.697 226.2 111.594C226.076 111.54 225.99 111.439 225.855 111.391C224.881 111.046 223.982 110.525 223.119 109.958C222.625 109.634 222.093 109.218 221.8 108.7C221.735 108.585 221.622 108.505 221.552 108.391C221.438 108.207 221.34 108.031 221.211 107.856C221.117 107.728 221.079 107.581 220.997 107.448C220.864 107.231 220.685 107.046 220.546 106.833C220.004 106 219.555 105.101 219.135 104.2C219.047 104.011 218.944 103.782 218.828 103.609C218.647 103.337 218.535 103.024 218.347 102.756C218.28 102.661 218.245 102.567 218.211 102.456C218.157 102.28 218.047 102.144 217.974 101.977C217.89 101.786 217.776 101.598 217.667 101.416" stroke="black" stroke-width="3" stroke-linecap="round"/>
<path d="M217.512 100.911C217.436 100.654 217.321 100.43 217.308 100.153C217.298 99.9329 217.256 99.7024 217.17 99.4994C217.064 99.25 217.02 98.9831 216.951 98.7221C216.855 98.3551 216.75 97.991 216.661 97.6221C216.546 97.1466 216.449 96.6744 216.324 96.2027C216.258 95.9534 216.166 95.6993 216.042 95.4743C215.999 95.3967 215.913 95.2657 215.9 95.1793C215.885 95.0833 215.84 94.9685 215.84 94.868" stroke="black" stroke-width="3" stroke-linecap="round"/>
<path d="M245.022 109.904C245.022 109.245 244.808 108.687 244.55 108.078C244.461 107.866 244.444 107.656 244.408 107.43C244.376 107.228 244.255 107.082 244.164 106.907C244.102 106.788 244.076 106.563 243.976 106.478C243.867 106.384 243.916 106.181 243.834 106.077C243.533 105.693 243.398 105.304 243.231 104.837C243.001 104.192 242.591 103.615 242.361 102.972C242.008 101.983 241.56 101.061 241.15 100.095C240.977 99.6858 240.86 99.2827 240.644 98.8892C240.437 98.5122 240.229 98.1758 239.996 97.8145C239.767 97.4595 239.485 97.1151 239.228 96.7795C239.104 96.6168 238.985 96.4427 238.853 96.2877C238.643 96.0406 238.395 95.8318 238.187 95.5854C237.823 95.1536 237.413 94.7747 236.897 94.4993C236.686 94.3869 236.462 94.2888 236.274 94.1382C236.106 94.0039 235.932 93.9904 235.759 93.8738C235.376 93.6151 234.961 93.4616 234.565 93.2312C234.323 93.0903 234.029 93.0389 233.792 92.8901C233.429 92.6623 232.999 92.5231 232.575 92.401C232.09 92.2613 231.622 91.9678 231.102 91.9404C230.171 91.8914 229.23 91.808 228.299 91.7869C228.033 91.7809 227.765 91.6921 227.497 91.6845C226.863 91.6667 226.235 91.6334 225.598 91.6334C225.152 91.6334 224.706 91.5822 224.256 91.5822C223.686 91.5822 223.184 91.9072 222.618 91.9404C222.223 91.9637 221.78 92.1857 221.39 92.2731C221.129 92.3316 220.869 92.4941 220.599 92.5034C220.394 92.5105 220.175 92.5403 219.974 92.583C219.788 92.6224 219.544 92.7469 219.371 92.7593C219.015 92.7847 218.731 92.8756 218.396 93.0095C218.253 93.0665 218.103 93.1606 217.95 93.1687C217.535 93.1905 217.194 93.7507 216.761 93.7828C216.57 93.797 216.317 93.9778 216.221 94.1411C216.124 94.3066 215.953 94.381 215.851 94.5505" stroke="black" stroke-width="3" stroke-linecap="round"/>
<path d="M231.255 110.226C231.255 110.146 231.183 110.056 231.153 109.983C231.098 109.849 231.039 109.707 230.939 109.602C230.832 109.489 230.766 109.353 230.636 109.256C230.52 109.17 230.417 109.08 230.309 108.982C230.174 108.859 230.05 108.719 229.908 108.605C229.777 108.499 229.658 108.304 229.573 108.161C229.518 108.069 229.474 107.971 229.411 107.884C229.342 107.79 229.317 107.681 229.237 107.595C229.114 107.462 229.013 107.287 228.903 107.141C228.792 106.993 228.679 106.84 228.589 106.677C228.504 106.523 228.416 106.358 228.31 106.218C228.17 106.033 227.959 105.816 227.908 105.589C227.88 105.462 227.781 105.325 227.724 105.208C227.652 105.06 227.579 104.926 227.526 104.769C227.475 104.614 227.42 104.464 227.375 104.305C227.338 104.18 227.271 104.069 227.24 103.945C227.193 103.757 227.083 103.594 227.036 103.405" stroke="black" stroke-linecap="round"/>
<path d="M231.31 110.059C231.31 109.987 231.334 109.969 231.366 109.91C231.45 109.757 231.513 109.586 231.585 109.427C231.634 109.319 231.657 109.2 231.709 109.092C231.758 108.991 231.788 108.863 231.849 108.77C231.888 108.712 231.967 108.602 232.021 108.564C232.076 108.524 232.192 108.412 232.217 108.345C232.262 108.224 232.347 108.14 232.403 108.023C232.479 107.862 232.514 107.684 232.584 107.521C232.669 107.322 232.686 107.102 232.788 106.908C232.853 106.785 232.865 106.635 232.927 106.511C233.003 106.36 233.079 106.216 233.167 106.072C233.242 105.949 233.234 105.775 233.263 105.638C233.286 105.529 233.357 105.446 233.401 105.348C233.444 105.254 233.478 105.164 233.521 105.071C233.565 104.975 233.614 104.882 233.652 104.781C233.673 104.727 233.727 104.652 233.727 104.595" stroke="black" stroke-linecap="round"/>
<path d="M233.662 104.893C233.676 104.779 233.802 104.72 233.808 104.601C233.812 104.517 233.808 104.431 233.808 104.347C233.808 104.095 233.808 103.843 233.808 103.591C233.808 103.406 233.808 103.221 233.808 103.037C233.808 102.689 233.873 102.285 233.79 101.951C233.736 101.738 233.735 101.454 233.735 101.235C233.735 101.137 233.662 101.061 233.662 100.978C233.662 100.846 233.632 100.671 233.597 100.542C233.547 100.351 233.48 100.102 233.48 99.9068C233.48 99.7951 233.344 99.7678 233.335 99.644C233.33 99.5749 233.296 99.5533 233.262 99.4984C233.202 99.4019 233.2 99.2852 233.169 99.179C233.103 98.9544 232.898 98.695 232.898 98.4653C232.898 98.3336 232.804 98.2578 232.752 98.1418C232.71 98.0467 232.617 97.8957 232.552 97.8163C232.471 97.7167 232.464 97.6394 232.405 97.5252C232.341 97.4044 232.187 97.2775 232.172 97.141C232.14 96.8497 231.854 96.6814 231.697 96.4577C231.59 96.3061 231.312 96.0924 231.297 95.9199C231.292 95.8641 231.185 95.7391 231.143 95.6934C231.055 95.5987 231.001 95.4917 230.904 95.4144C230.827 95.3528 230.818 95.2115 230.733 95.1354C230.67 95.0794 230.58 94.9665 230.567 94.8868C230.56 94.8436 230.44 94.7995 230.401 94.7735C230.194 94.6356 229.915 94.5223 229.805 94.3025" stroke="black" stroke-linecap="round"/>
<path d="M227.002 103.4C227.002 103.081 227.003 102.762 226.968 102.45C226.926 102.069 227.075 101.714 227.075 101.346C227.075 100.968 227.075 100.59 227.075 100.212C227.075 99.9996 227.07 99.808 227.14 99.6076C227.209 99.4077 227.186 99.2146 227.239 99.0152C227.297 98.7961 227.341 98.5604 227.37 98.3379C227.399 98.1243 227.452 97.8383 227.53 97.6364C227.575 97.5192 227.569 97.3885 227.621 97.2704C227.675 97.1484 227.628 97.0097 227.694 96.8944C227.742 96.8093 227.784 96.708 227.805 96.6134C227.844 96.4394 228.072 96.3342 228.139 96.1665C228.164 96.102 228.234 96.0094 228.276 95.9482C228.301 95.9125 228.396 95.7271 228.405 95.7217C228.575 95.6248 228.638 95.3101 228.749 95.1637C228.857 95.0216 229.018 94.903 229.115 94.7574C229.174 94.6686 229.242 94.5412 229.317 94.4662C229.38 94.4037 229.517 94.369 229.55 94.3025" stroke="black" stroke-linecap="round"/>
<path d="M231.369 106.676C231.369 105.928 231.351 105.185 231.304 104.44C231.273 103.945 231.26 103.443 231.26 102.948C231.26 102.843 231.325 102.563 231.187 102.563" stroke="black" stroke-width="3" stroke-linecap="round"/>
<path d="M231.442 105.111C231.825 105.076 232.053 104.536 232.15 104.203C232.262 103.819 232.17 103.311 232.17 102.911C232.17 102.537 232.207 102.167 232.207 101.791C232.207 101.394 232.224 100.992 232.134 100.602C232.081 100.376 231.991 100.178 231.952 99.9432" stroke="black" stroke-width="3" stroke-linecap="round"/>
<path d="M230.132 106.93C230.132 106.547 230.141 106.223 230.006 105.857C229.983 105.793 229.964 105.708 229.952 105.641C229.931 105.524 229.851 105.453 229.796 105.349C229.655 105.084 229.561 104.735 229.549 104.432C229.527 103.867 229.215 103.409 229.188 102.851C229.149 102.079 229.185 101.297 229.185 100.525" stroke="black" stroke-width="3" stroke-linecap="round"/>
<path d="M228.931 103.874C228.931 103.322 228.858 102.802 228.858 102.25C228.858 101.34 228.973 100.437 229.259 99.5793" stroke="black" stroke-width="3" stroke-linecap="round"/>
<path d="M229.877 101.654C230.016 101.479 229.988 101.169 230.041 100.96C230.114 100.666 230.149 100.364 230.2 100.071C230.265 99.6977 230.165 99.3081 230.241 98.9323C230.26 98.8393 230.356 98.3373 230.269 98.2409C230.16 98.1199 230.095 97.8424 230.095 97.6687C230.095 97.4923 229.986 97.3449 229.986 97.1633C229.986 96.8487 229.804 96.6044 229.804 96.304" stroke="black" stroke-width="3" stroke-linecap="round"/>
<path d="M229.731 97.0319C229.731 97.4093 229.733 97.7544 229.659 98.1236C229.635 98.2391 229.62 98.3777 229.578 98.4875C229.53 98.6139 229.423 98.7742 229.406 98.904C229.371 99.1625 229.332 99.4167 229.277 99.6703C229.251 99.7866 229.25 99.9069 229.202 100.018C229.141 100.158 229.137 100.047 229.04 100.052C228.95 100.058 228.931 100.613 228.931 100.424C228.931 99.9727 228.894 99.5306 228.894 99.0779C228.894 98.9313 228.874 98.7621 228.896 98.6149C228.908 98.5387 228.967 98.4728 228.967 98.3966C228.967 98.3104 229.053 98.2381 229.076 98.156C229.111 98.0354 229.151 97.9167 229.186 97.7961" stroke="black" stroke-width="3" stroke-linecap="round"/>
<path d="M230.933 99.6885C230.933 99.4174 230.972 99.1873 231.05 98.9323C231.1 98.7702 231.117 98.4914 231.024 98.342C230.95 98.2235 230.984 98.0365 230.897 97.9053" stroke="black" stroke-width="3" stroke-linecap="round"/>
<path d="M231.223 108.823C231.262 109.173 231.26 108.12 231.26 107.768" stroke="black" stroke-linecap="round"/>
<path d="M215.91 94.0188C215.995 94.0082 215.919 93.9666 215.87 93.9684C215.777 93.972 215.728 94.0693 215.632 94.0693C215.495 94.0693 215.354 94.1197 215.204 94.1197" stroke="black" stroke-width="3" stroke-linecap="round"/>
<path d="M231.297 107.367C231.149 107.367 231.188 107.009 231.188 107.331" stroke="black" stroke-width="3" stroke-linecap="round"/>
<path d="M256.944 140.448C256.944 140.15 256.803 139.958 256.593 139.756C256.418 139.587 256.292 139.601 256.064 139.601C255.79 139.601 255.571 139.595 255.315 139.47C255.113 139.372 254.924 139.315 254.728 139.195C254.649 139.146 254.436 139.065 254.402 138.981C254.343 138.833 254.145 138.757 254.045 138.641C253.949 138.529 253.801 138.462 253.678 138.369C253.618 138.325 253.482 138.259 253.406 138.232C253.228 138.167 253.067 137.926 252.935 137.793C252.746 137.604 252.571 137.413 252.365 137.239C252.201 137.101 251.951 137.077 251.778 136.942C251.63 136.827 251.533 136.641 251.385 136.52C251.312 136.461 251.213 136.423 251.168 136.341C251.099 136.217 250.889 136.207 250.802 136.097C250.691 135.956 250.49 135.846 250.327 135.747C250.297 135.728 250.145 135.605 250.132 135.575C250.106 135.516 250.01 135.464 249.969 135.403C249.921 135.333 249.845 135.272 249.79 135.198C249.739 135.13 249.692 135.024 249.627 134.972C249.483 134.857 249.356 134.785 249.188 134.691C249.094 134.638 248.975 134.495 248.893 134.418C248.833 134.361 248.721 134.26 248.698 134.19" stroke="black" stroke-linecap="round"/>
<path d="M248.543 133.914C248.468 133.91 248.429 133.746 248.426 133.68C248.416 133.509 248.368 133.362 248.295 133.212C248.235 133.087 248.15 132.75 248.009 132.692C247.921 132.655 247.873 132.471 247.783 132.421C247.68 132.364 247.642 132.237 247.559 132.146C247.495 132.074 247.46 131.952 247.414 131.865C247.352 131.747 247.303 131.642 247.258 131.516C247.225 131.427 247.204 131.327 247.184 131.234C247.162 131.138 247.061 131.051 247.043 130.943C247.009 130.74 246.959 130.518 246.903 130.322C246.891 130.281 246.859 130.28 246.857 130.221C246.854 130.145 246.81 130.082 246.81 130.006C246.81 129.861 246.824 129.725 246.766 129.595C246.724 129.501 246.79 129.367 246.752 129.267C246.626 128.941 246.693 128.519 246.693 128.174C246.693 128.09 246.693 128.006 246.693 127.921C246.693 127.839 246.737 127.753 246.74 127.669C246.748 127.454 246.763 127.238 246.763 127.019C246.763 126.896 246.749 126.799 246.834 126.704C246.898 126.631 246.874 126.501 246.933 126.428C246.955 126.401 246.951 126.378 246.951 126.341C246.951 126.303 247.003 126.26 247.021 126.223C247.074 126.116 247.134 126.071 247.163 125.941C247.207 125.74 247.307 125.555 247.349 125.352C247.361 125.291 247.381 125.131 247.432 125.088C247.524 125.008 247.614 124.916 247.722 124.846C247.909 124.724 248.063 124.548 248.227 124.394C248.307 124.319 248.348 124.217 248.426 124.139C248.468 124.097 248.528 124.073 248.576 124.037C248.736 123.915 248.918 123.76 249.021 123.591C249.09 123.477 249.196 123.437 249.315 123.39C249.39 123.361 249.456 123.331 249.534 123.305C249.609 123.279 249.816 123.268 249.854 123.193" stroke="black" stroke-linecap="round"/>
<path d="M257.172 125.035C257.172 124.955 257.121 124.88 257.087 124.811C257.059 124.753 257.055 124.683 257.016 124.632C256.986 124.592 256.96 124.556 256.932 124.516C256.852 124.401 256.745 124.297 256.655 124.189C256.588 124.108 256.505 124.029 256.424 123.963C256.386 123.932 256.343 123.916 256.308 123.881C256.261 123.834 256.205 123.815 256.152 123.776C256.035 123.69 255.899 123.625 255.775 123.547C255.58 123.425 255.403 123.271 255.213 123.14C254.942 122.954 254.618 122.841 254.322 122.714C254.287 122.698 254.237 122.708 254.2 122.707C254.118 122.703 254.039 122.683 253.957 122.68C253.865 122.676 253.778 122.68 253.687 122.665C253.334 122.606 252.973 122.594 252.622 122.527C252.454 122.495 252.262 122.524 252.09 122.524C251.835 122.524 251.58 122.524 251.325 122.524C251.201 122.524 251.08 122.519 250.958 122.545C250.847 122.569 250.729 122.567 250.631 122.632C250.43 122.765 250.196 122.824 249.987 122.941C249.916 122.98 249.852 123.006 249.791 123.062C249.683 123.161 249.605 123.299 249.494 123.391C249.454 123.425 249.435 123.452 249.392 123.476C249.354 123.497 249.313 123.512 249.272 123.526" stroke="black" stroke-linecap="round"/>
<path d="M257.59 125.298C257.529 125.207 257.902 124.986 257.998 124.957C258.092 124.928 258.161 124.791 258.241 124.732C258.313 124.68 258.344 124.609 258.409 124.55C258.532 124.439 258.738 124.36 258.879 124.262C259.027 124.158 259.159 124.063 259.298 123.953C259.388 123.881 259.458 123.79 259.536 123.707C259.695 123.538 259.887 123.403 260.069 123.261C260.127 123.215 260.218 123.187 260.285 123.157C260.324 123.139 260.365 123.146 260.407 123.144C260.476 123.141 260.46 123.098 260.507 123.071C260.684 122.967 260.893 122.96 261.096 122.96C261.287 122.96 261.416 122.81 261.595 122.778C261.811 122.738 262.018 122.643 262.243 122.624C262.644 122.591 263.05 122.645 263.449 122.645C263.562 122.645 263.676 122.645 263.789 122.645C263.846 122.645 264.029 122.617 264.078 122.658C264.121 122.694 264.211 122.681 264.264 122.703C264.327 122.73 264.427 122.817 264.49 122.827C264.657 122.853 264.831 122.796 264.979 122.896C265.065 122.954 265.185 123.007 265.282 123.045C265.386 123.085 265.428 123.176 265.51 123.223C265.609 123.279 265.701 123.369 265.787 123.448C265.814 123.471 265.862 123.457 265.894 123.475C265.984 123.526 266.077 123.566 266.167 123.615C266.242 123.657 266.33 123.701 266.408 123.725C266.522 123.76 266.611 123.894 266.713 123.958C266.844 124.041 266.919 124.145 267.037 124.242C267.197 124.373 267.259 124.569 267.482 124.668C267.67 124.751 267.681 124.992 267.771 125.154C267.822 125.245 267.904 125.314 267.968 125.398C267.994 125.431 268.049 125.426 268.067 125.468C268.091 125.521 268.073 125.539 268.114 125.587C268.209 125.701 268.172 125.879 268.257 126.014C268.319 126.112 268.398 126.223 268.416 126.339C268.422 126.377 268.487 126.596 268.508 126.613C268.642 126.728 268.597 126.979 268.689 127.123C268.726 127.181 268.728 127.354 268.73 127.421C268.734 127.538 268.751 127.66 268.782 127.774C268.91 128.238 268.914 128.723 268.914 129.204C268.914 129.329 268.962 129.505 268.999 129.627C269.025 129.717 269.019 129.804 269.019 129.898C269.019 130.037 269.019 130.177 269.019 130.316C269.019 130.495 268.991 130.632 268.946 130.804C268.885 131.036 268.907 131.299 268.861 131.537C268.814 131.784 268.812 132.116 268.637 132.316C268.599 132.359 268.614 132.42 268.572 132.458C268.52 132.504 268.5 132.579 268.479 132.643C268.384 132.927 268.213 133.169 268.113 133.449C268.056 133.605 268.016 133.837 267.889 133.957C267.806 134.035 267.659 134.126 267.559 134.184C267.438 134.254 267.311 134.37 267.199 134.459C266.945 134.66 266.754 134.903 266.546 135.149C266.505 135.198 266.47 135.257 266.419 135.295C266.285 135.396 266.177 135.516 266.065 135.641C265.916 135.807 265.81 135.783 265.682 135.624" stroke="black" stroke-linecap="round"/>
<path d="M265.893 135.335C265.893 135.512 265.645 135.676 265.498 135.761C265.281 135.886 265.102 136.07 264.888 136.196C264.493 136.429 264.23 136.813 263.908 137.136C263.824 137.22 263.652 137.436 263.534 137.463C263.475 137.476 263.372 137.539 263.332 137.585C263.21 137.731 263.079 137.773 262.95 137.895C262.855 137.985 262.725 138.036 262.623 138.119C262.434 138.275 262.226 138.411 262.042 138.581C261.996 138.624 261.911 138.702 261.857 138.725C261.697 138.795 261.544 138.956 261.438 139.092C261.376 139.17 261.261 139.243 261.182 139.303C261.107 139.361 260.979 139.453 260.889 139.486C260.767 139.53 260.667 139.663 260.565 139.741C260.374 139.888 260.183 140.079 259.959 140.176C259.871 140.214 259.823 140.251 259.74 140.3C259.668 140.343 259.581 140.366 259.514 140.417C259.474 140.448 259.445 140.499 259.392 140.509C259.211 140.542 259.142 140.728 258.993 140.812C258.803 140.92 258.628 141.028 258.431 141.126C258.251 141.216 258.07 141.329 257.876 141.415C257.734 141.479 257.585 141.449 257.434 141.459C257.291 141.469 257.202 141.561 257.065 141.561" stroke="black" stroke-linecap="round"/>
<path d="M250.576 136.018C250.673 136.054 250.8 136.153 250.85 136.254C250.88 136.314 250.938 136.342 250.97 136.397C250.982 136.419 251.016 136.411 251.035 136.426C251.071 136.454 251.061 136.489 251.086 136.517C251.158 136.596 251.269 136.743 251.37 136.785C251.448 136.818 251.485 136.843 251.535 136.909C251.64 137.05 251.818 137.16 251.955 137.267C252.073 137.359 252.279 137.479 252.356 137.606C252.398 137.674 252.478 137.697 252.52 137.757C252.586 137.855 252.657 137.869 252.74 137.959C252.773 137.994 252.791 137.982 252.834 137.99C252.867 137.995 252.889 138.044 252.914 138.065C252.984 138.125 253.097 138.135 253.171 138.204C253.268 138.294 253.39 138.338 253.486 138.414C253.647 138.543 253.838 138.644 253.998 138.776C254.082 138.845 254.156 138.979 254.225 139.062C254.257 139.102 254.317 139.218 254.359 139.243C254.416 139.277 254.425 139.311 254.47 139.348C254.548 139.413 254.688 139.443 254.778 139.51C254.835 139.553 254.871 139.597 254.922 139.643C254.994 139.708 255.08 139.739 255.162 139.786C255.207 139.812 255.206 139.88 255.265 139.88C255.314 139.88 255.419 139.978 255.461 140.01C255.524 140.057 255.608 140.06 255.673 140.096C255.752 140.14 255.816 140.257 255.909 140.306C255.99 140.348 256.03 140.397 256.106 140.446C256.18 140.494 256.262 140.604 256.345 140.617C256.447 140.632 256.502 140.705 256.566 140.773C256.624 140.834 256.735 140.874 256.776 140.945C256.821 141.023 256.958 141.058 257.031 141.1C257.105 141.141 257.151 141.21 257.223 141.246" stroke="black" stroke-linecap="round"/>
<path d="M257.602 137.759C257.774 137.759 258.101 137.214 258.234 137.082C258.339 136.977 258.416 136.869 258.501 136.748C258.668 136.513 258.962 136.331 259.181 136.145C259.466 135.902 259.704 135.69 259.986 135.452C260.45 135.059 261.078 134.882 261.552 134.502C261.728 134.361 261.979 134.279 262.186 134.194C262.524 134.056 262.933 133.841 263.215 133.611C263.517 133.363 263.799 133.094 264.106 132.854C264.286 132.715 264.579 132.396 264.822 132.396C265.029 132.396 265.242 132.28 265.405 132.167C265.576 132.049 265.724 131.953 265.853 131.79C266.037 131.558 266.334 131.502 266.47 131.23C266.658 130.853 266.622 130.38 266.689 129.972C266.741 129.653 266.724 129.329 266.724 129.007C266.724 128.536 266.812 127.987 266.61 127.56C266.513 127.356 266.346 127.193 266.248 127.007C266.148 126.819 265.984 126.741 265.899 126.529" stroke="black" stroke-width="5" stroke-linecap="round"/>
<path d="M264.386 129.875C264.373 129.73 264.29 129.519 264.157 129.452C264.001 129.374 263.836 129.443 263.691 129.516C263.295 129.714 262.888 129.901 262.501 130.114C262.133 130.318 261.768 130.491 261.386 130.667C260.867 130.906 260.467 131.287 260.011 131.622C259.754 131.81 259.435 132.048 259.435 132.396" stroke="black" stroke-width="5" stroke-linecap="round"/>
<path d="M257.648 138.126C257.758 138.004 257.82 137.8 257.892 137.657C257.944 137.556 258.329 136.618 258.501 136.618C258.642 136.618 258.847 136.659 258.967 136.73C259.084 136.799 259.251 136.716 259.372 136.707C259.845 136.672 260.136 136.468 260.464 136.139C260.567 136.036 260.772 135.94 260.902 135.87C261.084 135.77 261.255 135.65 261.429 135.538C261.757 135.33 262.131 135.14 262.415 134.871C262.761 134.544 263.216 134.35 263.586 134.056C263.738 133.936 264 133.761 264.111 133.598C264.151 133.539 264.221 133.342 264.276 133.318C264.381 133.271 264.481 133.256 264.523 133.129" stroke="black" stroke-width="5" stroke-linecap="round"/>
<path d="M259.573 137.347C259.507 137.371 259.444 137.536 259.344 137.586C259.25 137.633 259.225 137.667 259.115 137.667" stroke="black" stroke-width="5" stroke-linecap="round"/>
<path d="M256.594 137.897C256.677 137.739 256.745 137.612 256.594 137.482C256.531 137.427 256.416 137.385 256.37 137.321C256.321 137.255 256.309 137.168 256.227 137.128C256.002 137.015 255.765 136.919 255.539 136.794C255.373 136.701 255.187 136.479 255.045 136.348C254.926 136.238 254.774 136.152 254.666 136.033C254.482 135.831 254.229 135.75 254.037 135.533C253.763 135.225 253.394 135.013 253.11 134.729C252.731 134.35 252.161 134.048 251.893 133.565C251.656 133.139 251.21 132.9 250.874 132.569C250.789 132.486 250.693 132.268 250.607 132.21C250.208 131.945 250.119 131.368 249.927 130.955C249.712 130.496 249.443 129.979 249.443 129.462" stroke="black" stroke-width="5" stroke-linecap="round"/>
<path d="M249.489 128.591C249.489 128.349 249.416 128.179 249.499 127.94C249.572 127.73 249.748 127.178 249.971 127.079C250.086 127.028 250.176 126.825 250.268 126.732C250.414 126.587 250.555 126.44 250.704 126.3C250.812 126.197 250.938 126.045 251.022 125.923C251.075 125.847 251.217 125.667 251.297 125.622C251.519 125.499 251.652 125.383 251.929 125.383C252.188 125.383 252.407 125.245 252.678 125.245C252.92 125.245 253.163 125.245 253.406 125.245C253.522 125.245 253.693 125.452 253.798 125.51C253.912 125.573 253.936 125.673 253.936 125.795" stroke="black" stroke-width="5" stroke-linecap="round"/>
<path d="M249.535 126.804C249.662 126.689 249.918 126.685 250.085 126.666C250.268 126.646 250.382 126.529 250.589 126.529" stroke="black" stroke-width="5" stroke-linecap="round"/>
<path d="M252.422 128.454C252.446 128.88 252.766 129.167 253.102 129.376C254.139 130.021 255.037 130.68 255.753 131.701C256.048 132.122 256.297 132.574 256.476 133.056C256.554 133.264 256.617 133.482 256.721 133.679C256.948 134.113 256.914 133.658 256.914 133.404" stroke="black" stroke-width="5" stroke-linecap="round"/>
<path d="M256.64 131.342C257.145 131.342 257.654 131.361 258.158 131.332C258.534 131.31 258.621 131.257 258.855 131.006C259.329 130.499 259.63 129.967 260.246 129.595C260.512 129.434 260.664 129.316 260.964 129.213C261.508 129.026 262.069 128.816 262.512 128.439C262.753 128.234 262.945 127.96 263.149 127.721C263.315 127.525 263.339 127.116 263.434 126.88C263.541 126.614 263.581 126.301 263.699 126.045C263.752 125.929 263.786 125.757 263.847 125.658C263.877 125.608 264.106 125.534 263.938 125.52C263.847 125.513 263.77 125.474 263.674 125.474C263.558 125.474 263.367 125.44 263.264 125.497C263.157 125.557 263.039 125.571 262.925 125.612C262.818 125.65 262.712 125.766 262.619 125.793C262.443 125.843 262.342 126.019 262.158 126.075C261.866 126.165 261.61 126.368 261.382 126.534C261.215 126.655 261.03 126.748 260.87 126.878C260.692 127.022 260.441 127.082 260.281 127.242C259.899 127.624 259.299 127.759 258.858 128.064C258.712 128.165 258.606 128.293 258.473 128.411C258.311 128.555 258.104 128.652 257.921 128.77C257.368 129.125 256.572 129.105 255.952 129.141" stroke="black" stroke-width="5" stroke-linecap="round"/>
<path d="M262.186 124.649C261.854 124.649 261.827 124.917 261.587 125.082C261.389 125.218 261.164 125.296 260.973 125.452C260.765 125.622 260.647 125.872 260.459 126.06C260.005 126.514 259.534 126.668 258.979 126.941C258.57 127.143 258.099 127.227 257.673 127.397C257.345 127.528 257.019 127.609 256.685 127.721" stroke="black" stroke-width="5" stroke-linecap="round"/>
<path d="M255.402 126.254C255.402 126.198 255.585 126.139 255.631 126.07" stroke="black" stroke-width="5" stroke-linecap="round"/>
<path d="M287.53 142.094C287.53 142.363 287.423 142.703 287.286 142.929C287.068 143.288 287.078 143.715 286.963 144.127C286.842 144.561 286.778 145.014 286.648 145.443C286.602 145.592 286.483 145.767 286.466 145.908C286.412 146.383 286.133 146.804 286.112 147.287C286.089 147.811 285.779 148.277 285.631 148.761C285.528 149.096 285.446 149.428 285.316 149.753C285.142 150.189 285.053 150.702 284.709 151.046C284.385 151.37 283.944 151.568 283.531 151.767C283.332 151.863 283.087 151.931 282.905 152.055C282.682 152.206 282.381 152.286 282.183 152.449C282.013 152.589 281.817 152.624 281.644 152.748C281.43 152.9 281.239 153.08 280.982 153.154C280.653 153.248 280.413 153.675 280.079 153.8C279.748 153.924 279.29 154.227 279.051 154.466C278.726 154.791 278.094 154.975 277.664 155.112C277.263 155.24 276.936 155.39 276.514 155.459C276.18 155.513 275.827 155.674 275.509 155.707C275.291 155.73 275.069 155.766 274.851 155.782C274.685 155.794 274.651 155.924 274.449 155.924C273.847 155.924 273.251 155.995 272.644 155.995C271.809 155.995 270.974 155.995 270.138 155.995C269.568 155.995 268.998 155.995 268.428 155.995C268.166 155.995 267.99 155.735 267.743 155.711C267.358 155.674 267.096 155.435 266.766 155.215C266.391 154.965 265.896 154.876 265.56 154.592C265.119 154.22 264.364 154.282 263.984 153.812C263.852 153.649 263.584 153.518 263.416 153.374C263.248 153.23 263.081 153.074 262.951 152.89C262.711 152.548 262.379 152.316 262.1 152.023C262.038 151.958 262.047 151.854 261.982 151.787C261.845 151.645 261.648 151.521 261.498 151.389C261.224 151.147 260.979 151.134 260.93 150.77C260.9 150.545 260.784 150.35 260.737 150.132C260.677 149.85 260.668 149.555 260.544 149.292C260.37 148.925 259.997 148.305 259.657 148.087C259.454 147.956 259.318 147.597 259.232 147.381C259.145 147.165 259.1 146.926 258.988 146.72C258.888 146.538 258.727 146.389 258.672 146.184C258.569 145.798 258.31 145.464 258.31 145.041C258.31 144.624 258.274 144.179 258.133 143.784C257.982 143.363 258.1 142.955 257.884 142.523C257.597 141.948 257.672 141.169 257.672 140.533" stroke="black" stroke-width="3" stroke-linecap="round"/>
<path d="M257.778 141.184C257.778 142.398 257.744 143.625 257.234 144.746C257.06 145.129 257.025 145.788 257.025 146.205C257.025 146.627 256.821 147.366 256.56 147.698C256.421 147.874 256.037 148.354 256.021 148.567C256.004 148.781 255.782 149.572 255.649 149.72C255.534 149.849 255.459 149.788 255.393 149.971C255.34 150.121 255.288 150.24 255.179 150.357C254.902 150.658 254.54 150.911 254.282 151.227C254.051 151.51 253.617 151.851 253.292 152.026C252.914 152.23 252.552 152.619 252.157 152.738C251.947 152.801 251.763 153.045 251.567 153.068C251.127 153.119 250.671 153.553 250.274 153.737C249.428 154.131 248.486 154.413 247.689 154.909C247.358 155.115 247.023 155.302 246.685 155.495C246.388 155.665 245.851 155.619 245.518 155.658C244.507 155.777 243.461 155.767 242.449 155.834C241.682 155.885 240.668 156.117 239.915 155.876C239.213 155.652 238.521 155.463 237.805 155.281C235.839 154.782 234.278 153.745 232.713 152.529C231.983 151.96 231.281 151.49 230.956 150.553C230.865 150.291 230.724 150.12 230.579 149.888C230.276 149.402 230.138 148.849 229.789 148.381C229.277 147.695 228.684 147.065 228.32 146.298C228.169 145.981 227.985 145.313 227.985 144.959C227.985 144.602 227.744 144.265 227.65 143.937C227.535 143.534 227.557 143.117 227.464 142.709C227.382 142.346 227.316 142.058 227.316 141.686" stroke="black" stroke-width="3" stroke-linecap="round"/>
<path d="M257.74 140.005C257.833 140.11 257.882 140.338 257.877 140.474C257.874 140.544 257.534 140.64 257.841 140.545C258.001 140.496 258.224 140.337 258.381 140.326C258.505 140.318 258.142 140.388 258.022 140.418C257.946 140.437 257.79 140.574 257.74 140.637C257.574 140.843 257.571 140.85 257.5 140.611C257.453 140.451 257.332 140.172 257.475 140.015C257.612 139.864 258.23 140.747 258.437 140.739C258.583 140.733 258.702 140.457 258.702 140.326" stroke="black" stroke-linecap="round"/>
<path d="M258.198 132.809C258.123 132.809 257.95 132.944 257.923 133.017C257.838 133.253 257.877 133.524 257.877 133.771" stroke="black" stroke-width="5" stroke-linecap="round"/>
<path d="M265.397 135.384C265.397 135.456 265.341 135.466 265.338 135.523C265.333 135.614 265.34 135.609 265.283 135.666C265.218 135.731 265.317 135.721 265.357 135.721C265.428 135.721 265.503 135.666 265.556 135.621C265.649 135.541 265.6 135.599 265.576 135.654C265.545 135.724 265.488 135.714 265.427 135.741C265.401 135.753 265.288 135.82 265.348 135.82C265.403 135.82 265.464 135.809 265.496 135.761" stroke="black" stroke-linecap="round"/>
<path d="M265.754 135.483C265.719 135.488 265.704 135.535 265.694 135.563" stroke="black" stroke-linecap="round"/>
<path d="M246.668 128.591C246.668 128.365 246.644 128.137 246.644 127.908C246.644 127.717 246.617 127.606 246.742 127.459" stroke="black" stroke-linecap="round"/>
<path d="M247.579 131.84C247.459 131.611 247.334 131.39 247.235 131.151" stroke="black" stroke-linecap="round"/>
<path d="M247.924 132.923C247.898 132.757 247.809 132.603 247.757 132.445C247.695 132.252 247.638 132.058 247.579 131.865" stroke="black" stroke-linecap="round"/>
<path d="M247.825 132.849C247.866 132.857 247.907 132.89 247.924 132.923" stroke="black" stroke-linecap="round"/>
<path d="M248.466 133.588C248.391 133.504 248.315 133.421 248.25 133.331C248.179 133.232 248.023 133.043 248.023 132.923" stroke="black" stroke-linecap="round"/>
<line y1="-1.5" x2="57.0088" y2="-1.5" transform="matrix(-0.965782 -0.259354 -0.259354 0.965782 338.986 151.459)" stroke="black" stroke-width="3"/>
<line y1="-1.5" x2="57.0088" y2="-1.5" transform="matrix(-0.96579 0.259325 0.259325 0.96579 230.986 137.673)" stroke="black" stroke-width="3"/>
<line y1="-1.5" x2="57.0088" y2="-1.5" transform="matrix(-0.964764 0.263117 0.263117 0.964764 339.986 112.673)" stroke="black" stroke-width="3"/>
<line y1="-1.5" x2="57.0088" y2="-1.5" transform="matrix(-0.964741 -0.2632 -0.2632 0.964741 229.986 128.678)" stroke="black" stroke-width="3"/>
<line y1="-1.5" x2="57.0088" y2="-1.5" transform="matrix(-0.999972 0.0074441 0.0074441 0.999972 341.986 132.673)" stroke="black" stroke-width="3"/>
<line y1="-1.5" x2="57.0088" y2="-1.5" transform="matrix(-0.999972 0.0074441 0.0074441 0.999972 229.986 132.673)" stroke="black" stroke-width="3"/>
</svg>
