<svg width="361" height="99" viewBox="0 0 361 99" fill="none" xmlns="http://www.w3.org/2000/svg">
<g clip-path="url(#clip0_15_736)">
<path d="M245.323 132.421C245.22 132.628 245.222 132.848 245.453 132.962C245.777 133.122 245.765 132.676 245.931 132.493C246.056 132.355 246.667 133.804 246.755 134.003C246.935 134.409 248.034 134.714 248.382 134.886C248.856 135.12 249.414 135.672 249.62 134.951C249.746 134.514 249.056 133.67 248.642 133.594C248.027 133.482 249.434 134.562 249.829 135.046C250.46 135.818 251.723 136.22 252.592 136.649C253.047 136.874 255.483 136.573 254.943 135.924C254.533 135.431 253.755 135.002 253.177 134.716C253.039 134.648 253.391 134.948 253.44 135.093C253.534 135.369 253.487 135.47 253.743 135.64C254.131 135.896 254.323 136.426 254.703 136.731C254.957 136.936 255.369 137.228 255.657 137.371C256.055 137.568 255.619 137.18 255.755 137.031C255.882 136.891 256.701 136.972 256.886 136.955C257.348 136.911 257.825 137.073 258.272 137.005C258.85 136.917 259.488 136.828 260.068 136.94C260.728 137.068 261.355 136.853 261.951 137.147C262.385 137.362 263.265 137.202 263.783 137.259C263.868 137.269 264.468 137.004 264.591 136.944C265.055 136.72 265.048 136.95 264.727 136.526C264.146 135.759 263.323 134.508 262.228 135.141C261.355 135.645 259.985 135.646 258.963 135.609C257.291 135.548 255.582 135.422 253.935 135.091C253.443 134.992 252.703 135.117 253.484 135.503C253.992 135.754 254.5 136.005 255.009 136.256C256.784 137.134 258.549 137.012 260.398 137.112C260.636 137.125 260.868 137.323 261.103 137.275C261.359 137.222 261.558 137.159 261.82 137.25C262.107 137.35 262.785 137.656 263.07 137.612C263.673 137.52 264.413 137.857 264.973 137.618C265.229 137.509 265.61 137.33 265.884 137.274C266.526 137.143 267.463 137.61 268.033 137.226C268.295 137.049 268.788 137.186 269.114 136.966C269.514 136.697 269.842 137.047 270.235 136.947C270.895 136.779 271.425 136.425 271.986 136.154C272.713 135.802 273.109 135.298 273.987 135.458C274.264 135.509 274.855 135.245 275.15 135.177C275.379 135.124 275.921 135.175 276.072 135.077C276.558 134.765 277.64 134.517 278.174 134.679C278.258 134.704 279.005 134.459 279.096 134.42C279.657 134.181 280.476 134.301 281.1 134.22C281.576 134.158 281.982 133.991 282.443 133.931C282.66 133.903 282.73 133.692 282.919 133.628C283.109 133.564 283.299 133.702 283.484 133.572C284.135 133.115 285.253 133.304 285.863 132.631C286.379 132.064 287.279 131.908 287.838 131.367C288.154 131.061 288.467 131.142 288.887 131.012C289.286 130.888 289.517 130.586 289.895 130.417C290.194 130.283 290.526 130.28 290.817 130.14C291.691 129.723 292.661 129.273 293.619 128.985C294.435 128.74 295.345 128.428 296.115 128.093C296.393 127.973 296.955 127.73 297.249 127.763C297.612 127.803 298.59 127.689 298.928 127.543C299.222 127.415 299.346 127.143 299.668 127.045C300.004 126.942 300.329 126.844 300.667 126.754C301.071 126.646 301.522 126.535 301.918 126.507C302.527 126.465 304.555 126.359 302.785 126.662C302.239 126.756 301.493 126.503 301.043 126.957C300.516 127.488 298.348 128.258 299.011 127.91C300.209 127.282 301.108 126.548 302.554 126.345C303.202 126.254 304.275 126.081 304.933 126.172C305.837 126.297 306.742 126.01 307.63 125.979C308.639 125.944 309.797 125.532 310.787 125.713C311.458 125.836 312.064 125.877 312.765 125.906C313.658 125.942 314.182 126.13 314.995 126.532C315.593 126.827 316.33 126.716 316.978 127.036C317.956 127.519 318.934 128.003 319.913 128.486C321.809 129.424 324.074 130.237 325.698 131.593C326.068 131.902 326.958 132.241 327.09 132.757C327.208 133.22 327.731 133.741 327.994 134.139C328.458 134.842 328.811 135.518 329.361 136.156C329.749 136.605 330.931 138.146 330.7 138.908C330.607 139.215 330.464 139.508 330.143 139.25C329.893 139.049 329.987 138.705 329.705 138.566C329.692 138.559 330.061 139.218 330.097 139.324C330.362 140.107 330.271 140.986 330.31 141.802C330.325 142.107 330.067 142.455 329.936 142.72C329.777 143.042 329.948 143.456 329.884 143.806C329.827 144.118 330.045 144.569 329.95 144.958C329.867 145.294 329.846 145.643 329.763 145.977C329.567 146.777 329.387 147.364 329.003 148.142C328.669 148.817 329.026 149.725 328.56 150.304C328.336 150.583 327.955 150.75 327.682 150.973C327.396 151.207 327.273 151.641 327.11 151.969C326.742 152.715 325.859 153.216 325.468 154.007C325.08 154.792 324.603 155.437 324.206 156.24C323.924 156.81 323.563 158.097 322.875 158.29C322.665 158.349 322.006 159.773 322.161 159.913C322.442 160.168 322.256 160.507 322.539 160.736C322.794 160.94 323.207 161.233 323.494 161.375C323.758 161.506 324.087 161.586 324.35 161.41C324.484 161.319 324.707 161.379 324.862 161.319C325.069 161.24 325.155 160.872 325.344 160.861C325.916 160.826 326.142 160.282 326.696 160.179C327.054 160.112 327.915 159.696 328.146 159.476C328.637 159.006 329.383 158.976 329.824 158.382C330.337 157.692 330.716 157.074 331.35 156.491C331.712 156.157 331.943 156.327 332.189 155.829C332.311 155.581 332.645 155.15 332.871 155.02C333.107 154.883 333.34 154.312 333.56 154.09C333.834 153.813 333.952 153.347 334.263 153.167C335.026 152.726 335.485 150.261 335.597 149.646C335.762 148.748 335.452 147.942 335.89 147.056C336.207 146.414 335.997 145.618 336.29 144.961C336.998 143.379 335.768 141.654 335.632 140.19C335.492 138.68 334.596 137.024 334.14 135.678C333.953 135.124 333.583 134.086 333.183 133.652C332.946 133.395 332.861 133.1 332.741 132.798C332.649 132.569 332.105 132.187 331.945 132.017C331.528 131.574 330.944 131.167 330.63 130.644C329.83 129.311 328.769 128.308 327.342 127.554C326.608 127.167 326.012 126.963 325.666 126.161C325.462 125.688 323.713 125.126 323.256 124.899C322.302 124.428 321.413 124.349 320.36 124.262C320.013 124.233 319.58 124.33 319.249 124.189C318.72 123.963 319.052 124.194 319.277 124.133C319.446 124.086 320.156 124.208 319.842 123.883C319.639 123.672 319.252 123.556 318.991 123.427C318.225 123.048 317.629 122.662 316.81 122.701C315.315 122.773 313.562 123.032 312.176 122.44C311.797 122.278 311.506 122.454 311.158 122.572C310.85 122.676 310.28 122.554 309.913 122.591C309.495 122.635 309.026 122.544 308.626 122.555C308.139 122.568 307.621 122.567 307.091 122.59C306.678 122.609 306.398 122.877 305.974 122.708C305.618 122.567 305.21 122.672 304.857 122.791C304.138 123.035 303.365 123.173 302.618 123.396C301.826 123.632 301.125 123.948 300.345 124.212C299.95 124.346 299.558 124.47 299.158 124.614C298.937 124.694 298.049 124.718 297.992 124.796C297.61 125.317 296.49 125.217 295.973 125.491C295.722 125.624 295.577 126.085 295.375 126.166C295.119 126.268 294.778 126.474 294.549 126.552C294.054 126.719 293.184 126.638 292.717 126.475C292.263 126.317 291.246 126.992 290.803 127.135C290.233 127.318 290.233 127.427 289.823 127.903C289.511 128.266 289.307 128.349 288.943 128.579C288.645 128.767 288.136 128.676 288.333 128.278C288.494 127.951 288.233 127.892 287.949 127.77C287.739 127.681 287.331 127.992 287.044 127.994C286.741 127.995 286.132 128.304 285.979 128.543C285.841 128.758 285.38 128.929 285.139 128.957C284.826 128.993 284.433 129.532 284.124 129.655C283.823 129.775 283.293 130.061 282.994 130.084C282.569 130.117 282.336 130.457 281.992 130.506C281.732 130.544 281.377 131.017 281.097 131.175C280.775 131.357 280.414 131.41 280.087 131.541C279.967 131.588 279.961 131.791 279.855 131.867C279.722 131.963 279.527 131.895 279.375 131.947C279.051 132.056 278.744 132.129 278.407 132.227C277.556 132.474 276.792 132.639 276.042 133.157C275.213 133.73 274.044 133.619 273.154 134.076C272.708 134.305 271.622 134.653 271.134 134.665C270.62 134.678 270.139 134.756 269.635 134.877C269.457 134.92 269.216 134.877 269.027 134.894C268.801 134.914 268.826 135.145 268.64 135.214C268.314 135.335 267.724 135.368 267.374 135.347C267.324 135.344 266.417 135.214 266.504 135.394C266.709 135.816 269.852 134.698 270.08 134.621C271.814 134.033 273.326 133.045 275.056 132.511C276.469 132.075 278.001 131.934 279.372 131.346C281.233 130.548 283.722 130.27 285.74 130.383C286.443 130.422 287.118 130.35 287.804 130.204C288.385 130.08 289.251 130.11 289.783 129.841C290.51 129.473 291.059 129.199 291.872 128.969C292.946 128.664 294.098 128.404 295.15 128.048C296.376 127.633 297.639 127.437 298.844 126.999C300.311 126.465 301.641 125.394 303.228 125.196C304.599 125.026 305.859 124.55 307.262 124.421C308.252 124.331 309.215 124.632 310.177 124.556C310.965 124.494 311.821 124.424 312.61 124.524C314.033 124.704 315.346 124.918 316.701 125.347C318.48 125.91 320.133 126.849 321.811 127.679C323.195 128.363 324.601 128.899 325.986 129.583C327.78 130.47 330.18 131.252 331.222 133.124C331.7 133.983 332.098 134.887 332.592 135.741C332.83 136.154 333.172 137.03 332.996 137.493C332.54 138.689 332.979 140.077 332.985 141.298C332.988 141.917 332.752 142.488 332.937 143.145C333.031 143.48 332.654 143.965 332.503 144.271C331.946 145.4 331.873 146.712 331.367 147.855C331.044 148.586 330.934 149.373 330.571 150.108C330.33 150.594 330.09 151.081 329.849 151.568C329.333 152.611 329.275 153.693 328.76 154.734C328.557 155.146 328.084 155.269 327.803 155.637C327.497 156.037 327.095 156.332 326.718 156.618" stroke="white" stroke-width="5" stroke-linecap="round"/>
<path d="M168.6 28.5C217.657 28.5 257.1 63.5913 257.1 106.5C257.1 149.409 217.657 184.5 168.6 184.5C119.542 184.5 80.0996 149.409 80.0996 106.5C80.0996 63.5913 119.542 28.5 168.6 28.5Z" fill="white" stroke="black" stroke-width="3"/>
<path d="M39.7824 82.045L40.0898 57.0674L77.6808 60.4676L39.7824 82.045Z" fill="white" stroke="black" stroke-width="3"/>
<path d="M126.729 57.9686L164.223 54.2005L165.097 79.1623L126.729 57.9686Z" fill="white" stroke="black" stroke-width="3"/>
<path d="M177.5 112.074C177.5 127.417 169.406 141.41 156.119 151.614C142.831 161.82 124.409 168.175 104 168.175C83.5909 168.175 65.169 161.82 51.8806 151.614C38.5939 141.41 30.5 127.417 30.5 112.074C30.5 96.7312 38.5939 82.7386 51.8806 72.5343C65.169 62.3287 83.5909 55.9738 104 55.9738C124.409 55.9738 142.831 62.3287 156.119 72.5343C169.406 82.7386 177.5 96.7312 177.5 112.074Z" fill="white" stroke="black" stroke-width="3"/>
<path d="M78.6284 104.599C78.6284 103.727 78.7058 102.865 78.7058 102C78.7058 101.772 78.7184 101.54 78.7058 101.312C78.6947 101.113 78.6691 100.813 78.5704 100.636C78.4663 100.448 78.5581 100.244 78.3986 100.058C78.3336 99.9821 78.3847 99.8776 78.3019 99.8066C78.2505 99.7625 78.2139 99.5723 78.1731 99.4952C78.0839 99.3267 77.8938 99.0776 77.8938 98.8765C77.8938 98.6654 77.7886 98.4856 77.7778 98.2751C77.7685 98.0925 77.6601 98.0184 77.5459 97.8928C77.1969 97.509 76.8563 97.1034 76.6094 96.6341C76.4673 96.3642 76.2411 96.1258 76.0853 95.8608C76.0259 95.7599 75.9264 95.7279 75.8919 95.6074C75.8507 95.4632 75.7475 95.3542 75.6342 95.2615C75.4811 95.1363 75.4121 94.9132 75.2841 94.7568C75.1184 94.5543 74.9839 94.3814 74.8008 94.1983" stroke="black" stroke-linecap="round"/>
<path d="M72.2485 100.848C72.2485 100.372 72.0804 99.7469 72.2485 99.2847C72.3233 99.079 72.4686 98.8703 72.4805 98.6446C72.4834 98.59 72.5331 98.5685 72.5492 98.52C72.5721 98.4514 72.5466 98.3811 72.5772 98.3138C72.6352 98.1862 72.6199 98.0497 72.6652 97.9229C72.7642 97.6457 72.8091 97.3602 73.0025 97.1238C73.0829 97.0255 73.147 96.9584 73.2065 96.8274C73.2621 96.705 73.3838 96.5185 73.4084 96.3957C73.4514 96.181 73.5691 96.0191 73.6834 95.835C73.9199 95.4539 74.0856 95.0278 74.3277 94.6537C74.3546 94.6121 74.3226 94.5522 74.3449 94.5076C74.3707 94.4561 74.4398 94.451 74.4695 94.3916C74.5098 94.311 74.531 94.249 74.607 94.1983" stroke="black" stroke-linecap="round"/>
<path d="M75.11 98.6832C75.11 98.5366 75.1315 98.4467 75.0026 98.3524C74.9042 98.2805 74.8245 98.1574 74.7813 98.0453C74.6983 97.8292 74.8462 97.5409 74.7234 97.3386C74.5938 97.1252 74.6074 96.8573 74.6074 96.6147C74.6074 96.5138 74.6074 96.4128 74.6074 96.3119C74.6074 96.0614 74.5457 96.8509 74.6847 97.0594" stroke="black" stroke-width="3" stroke-linecap="round"/>
<path d="M74.5683 105.256C74.4345 105.241 74.335 105.032 74.2418 104.945C74.029 104.744 74.063 104.563 73.9884 104.311C73.8935 103.991 73.8724 103.613 73.8724 103.282C73.8724 102.952 73.7527 102.648 73.7199 102.32C73.6351 101.472 73.7177 100.583 73.7177 99.7293C73.7177 99.4321 73.7529 99.1152 73.8638 98.8379C73.9163 98.7066 73.8724 98.4755 73.8724 98.3353" stroke="black" stroke-width="3" stroke-linecap="round"/>
<path d="M76.8107 103.477C77.0204 103.477 76.9349 103.013 76.9181 102.867C76.8906 102.629 76.7552 102.445 76.6818 102.225C76.6281 102.064 76.5962 101.833 76.5809 101.665C76.5456 101.276 76.4447 100.886 76.3639 100.5C76.3238 100.309 76.2308 100.114 76.2308 99.9183C76.2308 99.6872 76.1962 99.4491 76.1363 99.2267C76.0958 99.0764 76.0375 98.8534 76.0375 98.7026C76.0375 98.5691 75.8609 98.4001 75.8441 98.258C75.8401 98.2239 75.7345 98.0907 75.7067 98.0668C75.6188 97.9915 75.6484 98.1761 75.653 98.2215C75.677 98.4617 75.7282 98.6689 75.7282 98.9152" stroke="black" stroke-width="3" stroke-linecap="round"/>
<path d="M76.0381 100.346C76.1259 100.365 76.3398 100.839 76.3474 100.934C76.3727 101.25 76.5451 101.545 76.5794 101.854C76.5931 101.977 76.6471 102.24 76.7254 102.326C76.8612 102.476 76.8152 102.311 76.8113 102.163C76.8063 101.972 76.6941 101.703 76.5794 101.553C76.4599 101.396 76.4998 101.18 76.4247 100.994C76.3918 100.913 76.3129 100.573 76.4935 100.694C76.7278 100.85 76.7993 101.175 76.85 101.428" stroke="black" stroke-width="3" stroke-linecap="round"/>
<path d="M90.0095 109.898C89.7833 109.898 89.7307 109.948 89.5787 110.1C89.4831 110.196 89.3608 110.316 89.2542 110.397C89.1562 110.472 88.9987 110.485 88.9146 110.557C88.6917 110.746 88.4143 110.716 88.1644 110.83C87.8769 110.962 87.5426 111.027 87.2316 111.084C87.0735 111.113 86.9454 111.21 86.7805 111.221C86.6586 111.229 86.4972 111.245 86.3826 111.289C85.8861 111.48 85.3722 111.579 84.872 111.745C84.1023 112.002 83.3271 112.179 82.5275 112.179C81.8666 112.179 81.2445 112.27 80.5809 112.27C79.7089 112.27 78.8814 112.347 78.0159 112.404C77.2548 112.455 76.494 112.452 75.7297 112.452C75.407 112.452 75.0843 112.452 74.7615 112.452C74.3023 112.452 73.9122 112.229 73.4689 112.179C73.0231 112.128 72.5886 111.89 72.1408 111.811C71.5763 111.712 71.0554 111.443 70.5592 111.167C70.0332 110.875 69.5031 110.56 69.0334 110.181C68.8266 110.015 68.642 109.756 68.4581 109.558C67.9959 109.062 67.5126 108.593 66.9956 108.154C66.6979 107.901 66.5664 107.569 66.3214 107.277C66.1223 107.039 65.9761 106.776 65.85 106.494C65.7441 106.257 65.5809 106.089 65.4292 105.883C65.1017 105.438 64.8506 104.96 64.5624 104.489C64.4125 104.243 64.2676 104.017 64.0986 103.784C64.0267 103.685 63.9592 103.52 63.9592 103.394C63.9592 102.792 63.5417 102.25 63.3864 101.686C63.2999 101.371 63.2394 101.049 63.1532 100.738C63.12 100.618 63.0465 100.344 62.9707 100.241C62.6156 99.7567 62.3263 99.3511 62.1089 98.7759C61.965 98.3948 61.8466 97.9779 61.7237 97.5897C61.6724 97.4276 61.6044 97.3184 61.564 97.1487C61.5289 97.001 61.4864 96.8558 61.45 96.7102C61.3576 96.3407 61.1925 96.0508 61.0242 95.7141C60.9013 95.4684 60.8513 95.1904 60.7656 94.9335" stroke="black" stroke-width="3" stroke-linecap="round"/>
<path d="M89.5623 108.783C89.5623 108.586 89.5981 108.344 89.5542 108.151C89.4751 107.805 89.304 107.509 89.198 107.171C89.0957 106.845 89.0235 106.533 88.9103 106.212C88.7225 105.678 88.6024 105.121 88.4193 104.582C88.3972 104.517 88.3801 104.45 88.3589 104.384C88.3061 104.222 88.1567 104.121 88.0993 103.962C87.9489 103.545 87.9044 103.066 87.8317 102.63C87.7697 102.257 87.5016 101.832 87.3307 101.501C87.072 101 86.7756 100.521 86.5197 100.018C86.1988 99.3873 85.8293 98.7544 85.4231 98.1766C85.2899 97.9873 85.203 97.7731 85.0749 97.581C85.0194 97.4978 84.9375 97.469 84.8657 97.4019C84.4252 96.9901 83.9368 96.5959 83.4088 96.3072C83.0445 96.1081 82.6774 95.8738 82.3564 95.613C82.2772 95.5486 82.2696 95.4811 82.1713 95.4319C82.063 95.3778 81.9322 95.3211 81.8312 95.2568C81.0066 94.7321 80.1891 94.2033 79.4768 93.5303C79.1685 93.239 78.9567 93.0977 78.5673 92.9528C78.1161 92.7849 77.6877 92.6711 77.2231 92.5483C77.1084 92.518 77.0118 92.4197 76.8931 92.4115C76.7594 92.4023 76.6317 92.3782 76.4987 92.3572C75.8865 92.2605 75.2711 92.1827 74.6595 92.0855C74.2103 92.0142 73.7664 91.8981 73.3133 91.8521C73.0461 91.825 72.7728 91.8059 72.5044 91.7978C72.1643 91.7875 71.8515 91.6937 71.5164 91.6589C70.8775 91.5926 70.1287 91.5284 69.4961 91.6509C69.2704 91.6945 69.0525 91.7724 68.828 91.8159C68.6046 91.8591 68.3889 91.856 68.166 91.9205C67.627 92.0765 67.0438 92.1009 66.5139 92.2827C66.2094 92.3872 65.9477 92.4844 65.6245 92.5383C65.2239 92.605 64.7596 92.666 64.389 92.8381C64.257 92.8994 64.1323 92.9062 63.9905 92.9266C63.6653 92.9736 63.3577 93.1052 63.0307 93.156C62.7627 93.1977 62.5261 93.2808 62.252 93.2808" stroke="black" stroke-width="3" stroke-linecap="round"/>
<path d="M62.626 93.0397C62.1301 93.0397 61.6751 93.258 61.2436 93.4738C61.0619 93.5646 60.8105 93.5205 60.6092 93.5205C60.3504 93.5205 60.2262 93.7609 59.9814 93.7609" stroke="black" stroke-width="3" stroke-linecap="round"/>
<path d="M143.488 100.911C143.564 100.654 143.679 100.43 143.692 100.153C143.702 99.9329 143.744 99.7024 143.83 99.4994C143.936 99.25 143.98 98.9831 144.049 98.7221C144.145 98.3551 144.25 97.991 144.339 97.6221C144.454 97.1466 144.551 96.6744 144.676 96.2027C144.742 95.9534 144.834 95.6993 144.958 95.4743C145.001 95.3967 145.087 95.2657 145.1 95.1793C145.115 95.0833 145.16 94.9685 145.16 94.868" stroke="black" stroke-width="3" stroke-linecap="round"/>
<path d="M115.978 109.904C115.978 109.245 116.192 108.687 116.45 108.078C116.539 107.866 116.556 107.656 116.592 107.43C116.624 107.228 116.745 107.082 116.836 106.907C116.898 106.788 116.924 106.563 117.024 106.478C117.133 106.384 117.084 106.181 117.166 106.077C117.467 105.693 117.602 105.304 117.769 104.837C117.999 104.192 118.409 103.615 118.639 102.972C118.992 101.983 119.44 101.061 119.85 100.095C120.023 99.6857 120.14 99.2827 120.356 98.8892C120.563 98.5122 120.771 98.1757 121.004 97.8144C121.233 97.4595 121.515 97.115 121.772 96.7795C121.896 96.6168 122.015 96.4427 122.147 96.2876C122.357 96.0406 122.605 95.8317 122.813 95.5854C123.177 95.1536 123.587 94.7746 124.103 94.4993C124.314 94.3869 124.538 94.2888 124.726 94.1382C124.894 94.0039 125.068 93.9904 125.241 93.8738C125.624 93.615 126.039 93.4615 126.435 93.2312C126.677 93.0903 126.971 93.0388 127.208 92.89C127.571 92.6623 128.001 92.5231 128.425 92.401C128.91 92.2612 129.378 91.9677 129.898 91.9404C130.829 91.8914 131.77 91.808 132.701 91.7869C132.967 91.7808 133.235 91.6921 133.503 91.6845C134.137 91.6666 134.765 91.6333 135.402 91.6333C135.848 91.6333 136.294 91.5822 136.744 91.5822C137.314 91.5822 137.816 91.9071 138.382 91.9404C138.777 91.9636 139.22 92.1856 139.61 92.273C139.871 92.3316 140.131 92.494 140.401 92.5033C140.606 92.5104 140.825 92.5403 141.026 92.583C141.212 92.6224 141.456 92.7469 141.629 92.7592C141.985 92.7847 142.269 92.8756 142.604 93.0094C142.747 93.0665 142.897 93.1606 143.05 93.1687C143.465 93.1905 143.806 93.7507 144.239 93.7828C144.43 93.7969 144.683 93.9777 144.779 94.141C144.876 94.3065 145.047 94.381 145.149 94.5504" stroke="black" stroke-width="3" stroke-linecap="round"/>
<path d="M127.338 104.893C127.324 104.779 127.198 104.72 127.192 104.601C127.188 104.517 127.192 104.431 127.192 104.347C127.192 104.095 127.192 103.843 127.192 103.59C127.192 103.406 127.192 103.221 127.192 103.037C127.192 102.689 127.127 102.285 127.21 101.951C127.264 101.738 127.265 101.454 127.265 101.235C127.265 101.137 127.338 101.061 127.338 100.978C127.338 100.845 127.368 100.671 127.403 100.542C127.453 100.351 127.52 100.102 127.52 99.9068C127.52 99.7951 127.656 99.7678 127.665 99.644C127.67 99.5748 127.704 99.5533 127.738 99.4984C127.798 99.4019 127.8 99.2851 127.831 99.179C127.897 98.9544 128.102 98.695 128.102 98.4653C128.102 98.3335 128.196 98.2577 128.248 98.1418C128.29 98.0466 128.383 97.8957 128.448 97.8163C128.529 97.7167 128.536 97.6394 128.595 97.5251C128.659 97.4044 128.813 97.2775 128.828 97.141C128.86 96.8497 129.146 96.6814 129.303 96.4576C129.41 96.3061 129.688 96.0923 129.703 95.9199C129.708 95.864 129.815 95.739 129.857 95.6934C129.945 95.5987 129.999 95.4917 130.096 95.4144C130.173 95.3528 130.182 95.2114 130.267 95.1354C130.33 95.0793 130.42 94.9665 130.433 94.8867C130.44 94.8435 130.56 94.7995 130.599 94.7735C130.806 94.6355 131.085 94.5222 131.195 94.3024" stroke="black" stroke-linecap="round"/>
<path d="M133.998 103.4C133.998 103.081 133.997 102.762 134.032 102.45C134.074 102.069 133.925 101.714 133.925 101.346C133.925 100.968 133.925 100.59 133.925 100.212C133.925 99.9995 133.93 99.808 133.86 99.6076C133.791 99.4076 133.814 99.2146 133.761 99.0152C133.703 98.7961 133.659 98.5604 133.63 98.3379C133.601 98.1243 133.548 97.8383 133.47 97.6363C133.425 97.5192 133.431 97.3884 133.379 97.2704C133.325 97.1484 133.372 97.0097 133.306 96.8944C133.258 96.8093 133.216 96.708 133.195 96.6133C133.156 96.4394 132.928 96.3342 132.861 96.1665C132.836 96.1019 132.766 96.0094 132.724 95.9482C132.699 95.9125 132.604 95.7271 132.595 95.7217C132.425 95.6248 132.362 95.3101 132.251 95.1637C132.143 95.0216 131.982 94.903 131.885 94.7573C131.826 94.6686 131.758 94.5412 131.683 94.4662C131.62 94.4037 131.483 94.369 131.45 94.3024" stroke="black" stroke-linecap="round"/>
<path d="M129.558 105.111C129.175 105.076 128.947 104.536 128.85 104.203C128.738 103.819 128.83 103.311 128.83 102.911C128.83 102.537 128.793 102.167 128.793 101.791C128.793 101.394 128.776 100.992 128.866 100.602C128.919 100.376 129.009 100.178 129.048 99.9432" stroke="black" stroke-width="3" stroke-linecap="round"/>
<path d="M132.069 103.874C132.069 103.322 132.142 102.802 132.142 102.25C132.142 101.34 132.027 100.437 131.741 99.5793" stroke="black" stroke-width="3" stroke-linecap="round"/>
<path d="M131.123 101.654C130.984 101.479 131.012 101.169 130.959 100.96C130.886 100.666 130.851 100.364 130.8 100.071C130.735 99.6977 130.835 99.3081 130.759 98.9323C130.74 98.8393 130.644 98.3372 130.731 98.2409C130.84 98.1199 130.905 97.8423 130.905 97.6687C130.905 97.4923 131.014 97.3448 131.014 97.1633C131.014 96.8487 131.196 96.6043 131.196 96.304" stroke="black" stroke-width="3" stroke-linecap="round"/>
<path d="M131.269 97.0319C131.269 97.4093 131.267 97.7544 131.341 98.1236C131.365 98.2391 131.38 98.3777 131.422 98.4875C131.47 98.6139 131.577 98.7742 131.594 98.904C131.629 99.1625 131.668 99.4167 131.723 99.6703C131.749 99.7866 131.75 99.9069 131.798 100.018C131.859 100.158 131.863 100.047 131.96 100.052C132.05 100.058 132.069 100.613 132.069 100.424C132.069 99.9727 132.106 99.5306 132.106 99.0779C132.106 98.9313 132.126 98.7621 132.104 98.6149C132.092 98.5387 132.033 98.4728 132.033 98.3966C132.033 98.3104 131.947 98.2381 131.924 98.156C131.889 98.0354 131.849 97.9167 131.814 97.7961" stroke="black" stroke-width="3" stroke-linecap="round"/>
<path d="M130.067 99.6885C130.067 99.4174 130.028 99.1873 129.95 98.9323C129.9 98.7702 129.883 98.4914 129.976 98.342C130.05 98.2235 130.016 98.0365 130.103 97.9053" stroke="black" stroke-width="3" stroke-linecap="round"/>
<path d="M145.09 94.0188C145.005 94.0081 145.081 93.9665 145.13 93.9684C145.223 93.972 145.272 94.0692 145.368 94.0692C145.505 94.0692 145.646 94.1197 145.796 94.1197" stroke="black" stroke-width="3" stroke-linecap="round"/>
</g>
<defs>
<clipPath id="clip0_15_736">
<rect width="361" height="99" fill="white"/>
</clipPath>
</defs>
</svg>
