<svg width="361" height="218" viewBox="0 0 361 218" fill="none" xmlns="http://www.w3.org/2000/svg">
<path d="M214.051 182.908C212.085 181.547 211.133 178.314 211.952 173.418C212.75 168.651 215.169 162.849 219.081 157.199C222.993 151.55 227.572 147.244 231.754 144.82C236.049 142.33 239.41 142.084 241.376 143.445C243.342 144.806 244.294 148.039 243.475 152.935C242.677 157.703 240.258 163.505 236.346 169.154C232.434 174.803 227.855 179.11 223.673 181.534C219.378 184.023 216.017 184.27 214.051 182.908Z" fill="white" stroke="black" stroke-width="3"/>
<path d="M128.831 169.381C128.831 172.017 127.182 174.606 124.096 176.607C121.025 178.599 116.693 179.881 111.831 179.881C106.969 179.881 102.637 178.599 99.5659 176.607C96.4802 174.606 94.8311 172.017 94.8311 169.381C94.8311 166.744 96.4802 164.155 99.5659 162.154C102.637 160.162 106.969 158.881 111.831 158.881C116.693 158.881 121.025 160.162 124.096 162.154C127.182 164.155 128.831 166.744 128.831 169.381Z" fill="white" stroke="black" stroke-width="3"/>
<path d="M151.831 178.381C151.831 181.017 150.182 183.606 147.096 185.607C144.025 187.599 139.693 188.881 134.831 188.881C129.969 188.881 125.637 187.599 122.566 185.607C119.48 183.606 117.831 181.017 117.831 178.381C117.831 175.744 119.48 173.155 122.566 171.154C125.637 169.162 129.969 167.881 134.831 167.881C139.693 167.881 144.025 169.162 147.096 171.154C150.182 173.155 151.831 175.744 151.831 178.381Z" fill="white" stroke="black" stroke-width="3"/>
<path d="M301.931 128.043C301.608 128.696 301.021 128.68 300.47 129.04C299.735 129.522 298.772 129.184 298.029 129.56C296.852 130.155 295.549 130.95 294.204 131.101C294.032 131.121 293.798 130.944 293.671 131.073C293.546 131.199 293.421 131.199 293.25 131.177C292.773 131.117 292.461 131.316 292.034 131.461C291.69 131.577 291.194 131.822 290.835 131.837C290.415 131.854 290.218 132.03 290.53 131.399C290.923 130.603 291.26 129.448 291.855 128.769C292.556 127.969 292.977 126.912 293.446 125.963C293.651 125.548 294.31 124.472 293.917 124.082" stroke="white" stroke-width="3" stroke-linecap="round"/>
<path d="M314.382 127.435C314.242 127.386 314.014 127.609 313.852 127.631C313.633 127.661 313.518 127.567 313.325 127.485C313.021 127.357 312.564 127.287 312.218 127.174C311.746 127.019 311.428 126.979 310.936 126.998C310.436 127.019 309.917 126.947 309.462 126.722" stroke="white" stroke-width="3" stroke-linecap="round"/>
<path d="M261.499 139.35C261.301 139.648 260.452 139.366 260.141 139.43C259.848 139.49 259.54 139.185 259.293 139.303C258.947 139.469 258.516 139.587 258.127 139.574C257.771 139.563 257.436 139.596 257.095 139.459C256.577 139.251 256.071 139.304 255.544 139.145C254.426 138.806 253.346 138.415 252.296 137.896C251.236 137.372 250.221 136.935 249.069 136.67C248.276 136.487 247.531 135.999 246.802 135.639C246.311 135.396 245.819 135.153 245.328 134.91C245.061 134.778 244.743 134.667 244.509 134.48C244.265 134.285 244.195 134.021 243.899 133.86C243.649 133.724 242.914 133.371 242.737 133.158C242.518 132.894 244.064 132.596 244.253 132.602C244.561 132.612 244.755 132.48 245.059 132.478C245.221 132.478 245.375 132.273 245.502 132.188C245.652 132.088 245.836 132.146 245.958 132.063C246.416 131.755 246.854 131.874 247.15 131.277C247.402 130.766 248.219 131.41 248.596 131.597C249.033 131.813 249.469 132.028 249.906 132.244C250.352 132.464 250.793 132.705 251.247 132.907C251.632 133.078 252.123 132.881 252.555 133.095" stroke="white" stroke-width="3" stroke-linecap="round"/>
<path d="M322.619 159.932C322.077 159.735 321.689 160.274 321.468 159.478C321.394 159.21 321.433 159.084 321.557 158.834C321.674 158.597 321.557 158.397 321.646 158.19C321.873 157.663 321.846 157.088 322.113 156.549C322.332 156.106 322.577 155.727 322.92 155.381" stroke="white" stroke-width="3" stroke-linecap="round"/>
<path d="M245.323 132.421C245.22 132.629 245.222 132.848 245.453 132.962C245.777 133.122 245.765 132.676 245.931 132.493C246.056 132.355 246.667 133.804 246.755 134.003C246.935 134.409 248.034 134.714 248.382 134.886C248.856 135.121 249.414 135.672 249.62 134.951C249.746 134.514 249.056 133.67 248.642 133.594C248.027 133.482 249.434 134.562 249.829 135.046C250.46 135.818 251.723 136.22 252.592 136.649C253.047 136.874 255.483 136.573 254.943 135.924C254.533 135.431 253.755 135.002 253.177 134.716C253.039 134.648 253.391 134.948 253.44 135.093C253.534 135.369 253.487 135.47 253.743 135.64C254.131 135.896 254.323 136.426 254.703 136.731C254.957 136.936 255.369 137.228 255.657 137.371C256.055 137.568 255.619 137.18 255.755 137.031C255.882 136.891 256.701 136.972 256.886 136.955C257.348 136.911 257.825 137.073 258.272 137.005C258.85 136.917 259.488 136.828 260.068 136.94C260.728 137.068 261.355 136.853 261.951 137.147C262.385 137.362 263.265 137.202 263.783 137.259C263.868 137.269 264.468 137.004 264.591 136.944C265.055 136.72 265.048 136.95 264.727 136.526C264.146 135.759 263.323 134.508 262.228 135.141C261.355 135.645 259.985 135.646 258.963 135.609C257.291 135.548 255.582 135.422 253.935 135.091C253.443 134.992 252.703 135.117 253.484 135.503C253.992 135.754 254.5 136.005 255.009 136.256C256.784 137.134 258.549 137.012 260.398 137.112C260.636 137.125 260.868 137.323 261.103 137.275C261.359 137.222 261.558 137.159 261.82 137.25C262.107 137.35 262.785 137.656 263.07 137.613C263.673 137.52 264.413 137.857 264.973 137.618C265.229 137.509 265.61 137.33 265.884 137.274C266.526 137.143 267.463 137.61 268.033 137.226C268.295 137.049 268.788 137.186 269.114 136.966C269.514 136.697 269.842 137.047 270.235 136.947C270.895 136.779 271.425 136.425 271.986 136.154C272.713 135.802 273.109 135.298 273.987 135.458C274.264 135.509 274.855 135.245 275.15 135.177C275.379 135.124 275.921 135.175 276.072 135.078C276.558 134.765 277.64 134.517 278.174 134.679C278.258 134.704 279.005 134.459 279.096 134.42C279.657 134.181 280.476 134.301 281.1 134.22C281.576 134.158 281.982 133.991 282.443 133.931C282.66 133.903 282.73 133.692 282.919 133.628C283.109 133.564 283.299 133.702 283.484 133.572C284.135 133.115 285.253 133.304 285.863 132.631C286.379 132.064 287.279 131.908 287.838 131.367C288.154 131.061 288.467 131.142 288.887 131.012C289.286 130.888 289.517 130.587 289.895 130.417C290.194 130.283 290.526 130.28 290.817 130.14C291.691 129.723 292.661 129.273 293.619 128.985C294.435 128.74 295.345 128.428 296.115 128.093C296.393 127.973 296.955 127.73 297.249 127.763C297.612 127.803 298.59 127.689 298.928 127.543C299.222 127.415 299.346 127.143 299.668 127.045C300.004 126.942 300.329 126.844 300.667 126.754C301.071 126.646 301.522 126.535 301.918 126.507C302.527 126.465 304.555 126.359 302.785 126.662C302.239 126.756 301.493 126.503 301.043 126.957C300.516 127.488 298.348 128.258 299.011 127.91C300.209 127.282 301.108 126.548 302.554 126.345C303.202 126.254 304.275 126.081 304.933 126.172C305.837 126.297 306.742 126.01 307.63 125.979C308.639 125.944 309.797 125.532 310.787 125.713C311.458 125.836 312.064 125.877 312.765 125.906C313.658 125.942 314.182 126.13 314.995 126.532C315.593 126.827 316.33 126.716 316.978 127.036C317.956 127.519 318.934 128.003 319.913 128.486C321.809 129.424 324.074 130.237 325.698 131.593C326.068 131.902 326.958 132.241 327.09 132.757C327.208 133.22 327.731 133.741 327.994 134.139C328.458 134.842 328.811 135.518 329.361 136.156C329.749 136.605 330.931 138.146 330.7 138.908C330.607 139.215 330.464 139.508 330.143 139.25C329.893 139.049 329.987 138.705 329.705 138.566C329.692 138.559 330.061 139.218 330.097 139.324C330.362 140.107 330.271 140.986 330.31 141.802C330.325 142.107 330.067 142.455 329.936 142.72C329.777 143.042 329.948 143.456 329.884 143.806C329.827 144.118 330.045 144.569 329.95 144.958C329.867 145.294 329.846 145.643 329.763 145.978C329.567 146.777 329.387 147.364 329.003 148.142C328.669 148.817 329.026 149.725 328.56 150.304C328.336 150.583 327.955 150.75 327.682 150.973C327.396 151.207 327.273 151.641 327.11 151.969C326.742 152.715 325.859 153.216 325.468 154.007C325.08 154.792 324.603 155.437 324.206 156.24C323.924 156.81 323.563 158.097 322.875 158.291C322.665 158.349 322.006 159.773 322.161 159.913C322.442 160.169 322.256 160.507 322.539 160.736C322.794 160.94 323.207 161.233 323.494 161.375C323.758 161.506 324.087 161.586 324.35 161.41C324.484 161.319 324.707 161.379 324.862 161.319C325.069 161.24 325.155 160.872 325.344 160.861C325.916 160.826 326.142 160.282 326.696 160.179C327.054 160.112 327.915 159.696 328.146 159.476C328.637 159.006 329.383 158.976 329.824 158.382C330.337 157.692 330.716 157.074 331.35 156.491C331.712 156.157 331.943 156.327 332.189 155.829C332.311 155.581 332.645 155.15 332.871 155.02C333.107 154.883 333.34 154.312 333.56 154.09C333.834 153.813 333.952 153.347 334.263 153.167C335.026 152.726 335.485 150.261 335.597 149.646C335.762 148.748 335.452 147.942 335.89 147.056C336.207 146.414 335.997 145.618 336.29 144.961C336.998 143.379 335.768 141.654 335.632 140.19C335.492 138.68 334.596 137.024 334.14 135.678C333.953 135.124 333.583 134.086 333.183 133.652C332.946 133.395 332.861 133.1 332.741 132.798C332.649 132.569 332.105 132.187 331.945 132.017C331.528 131.574 330.944 131.167 330.63 130.644C329.83 129.311 328.769 128.308 327.342 127.554C326.608 127.167 326.012 126.963 325.666 126.161C325.462 125.688 323.713 125.126 323.256 124.899C322.302 124.428 321.413 124.349 320.36 124.262C320.013 124.233 319.58 124.331 319.249 124.189C318.72 123.963 319.052 124.194 319.277 124.133C319.446 124.086 320.156 124.208 319.842 123.883C319.639 123.672 319.252 123.556 318.991 123.427C318.225 123.048 317.629 122.662 316.81 122.701C315.315 122.773 313.562 123.032 312.176 122.44C311.797 122.278 311.506 122.454 311.158 122.572C310.85 122.676 310.28 122.554 309.913 122.591C309.495 122.635 309.026 122.544 308.626 122.555C308.139 122.568 307.621 122.567 307.091 122.59C306.678 122.609 306.398 122.877 305.974 122.708C305.618 122.567 305.21 122.672 304.857 122.791C304.138 123.035 303.365 123.173 302.618 123.396C301.826 123.632 301.125 123.948 300.345 124.212C299.95 124.346 299.558 124.47 299.158 124.614C298.937 124.694 298.049 124.718 297.992 124.796C297.61 125.317 296.49 125.217 295.973 125.491C295.722 125.624 295.577 126.085 295.375 126.166C295.119 126.268 294.778 126.474 294.549 126.552C294.054 126.719 293.184 126.638 292.717 126.475C292.263 126.317 291.246 126.992 290.803 127.135C290.233 127.318 290.233 127.427 289.823 127.903C289.511 128.266 289.307 128.349 288.943 128.579C288.645 128.767 288.136 128.677 288.333 128.278C288.494 127.951 288.233 127.892 287.949 127.77C287.739 127.681 287.331 127.992 287.044 127.994C286.741 127.995 286.132 128.304 285.979 128.543C285.841 128.758 285.38 128.929 285.139 128.957C284.826 128.993 284.433 129.532 284.124 129.655C283.823 129.775 283.293 130.061 282.994 130.084C282.569 130.117 282.336 130.457 281.992 130.506C281.732 130.544 281.377 131.017 281.097 131.175C280.775 131.357 280.414 131.41 280.087 131.541C279.967 131.588 279.961 131.791 279.855 131.867C279.722 131.963 279.527 131.895 279.375 131.947C279.051 132.056 278.744 132.129 278.407 132.227C277.556 132.474 276.792 132.639 276.042 133.157C275.213 133.73 274.044 133.619 273.154 134.076C272.708 134.305 271.622 134.653 271.134 134.665C270.62 134.678 270.139 134.756 269.635 134.877C269.457 134.92 269.216 134.877 269.027 134.894C268.801 134.914 268.826 135.145 268.64 135.214C268.314 135.335 267.724 135.368 267.374 135.347C267.324 135.344 266.417 135.214 266.504 135.394C266.709 135.816 269.852 134.698 270.08 134.621C271.814 134.033 273.326 133.045 275.056 132.511C276.469 132.075 278.001 131.934 279.372 131.346C281.233 130.548 283.722 130.27 285.74 130.383C286.443 130.423 287.118 130.35 287.804 130.204C288.385 130.08 289.251 130.11 289.783 129.841C290.51 129.473 291.059 129.199 291.872 128.969C292.946 128.664 294.098 128.404 295.15 128.048C296.376 127.633 297.639 127.437 298.844 126.999C300.311 126.465 301.641 125.394 303.228 125.196C304.599 125.026 305.859 124.55 307.262 124.421C308.252 124.331 309.215 124.632 310.177 124.556C310.965 124.494 311.821 124.424 312.61 124.524C314.033 124.704 315.346 124.918 316.701 125.347C318.48 125.91 320.133 126.849 321.811 127.679C323.195 128.363 324.601 128.899 325.986 129.583C327.78 130.47 330.18 131.252 331.222 133.124C331.7 133.983 332.098 134.887 332.592 135.741C332.83 136.154 333.172 137.03 332.996 137.493C332.54 138.689 332.979 140.077 332.985 141.298C332.988 141.917 332.752 142.488 332.937 143.145C333.031 143.48 332.654 143.966 332.503 144.271C331.946 145.4 331.873 146.712 331.367 147.855C331.044 148.586 330.934 149.373 330.571 150.108C330.33 150.594 330.09 151.081 329.849 151.568C329.333 152.611 329.275 153.693 328.76 154.734C328.557 155.146 328.084 155.269 327.803 155.637C327.497 156.037 327.095 156.332 326.718 156.618" stroke="white" stroke-width="5" stroke-linecap="round"/>
<path d="M275.028 139.004C275.345 139.161 275.659 138.997 275.977 138.974C276.171 138.959 276.481 138.78 276.663 138.705C276.767 138.662 276.872 138.688 276.969 138.629C277.049 138.581 277.146 138.546 277.238 138.53C277.489 138.485 277.736 138.522 277.987 138.475C278.281 138.42 278.584 138.346 278.881 138.311C279.393 138.251 279.885 138.064 280.393 137.955C280.685 137.892 280.965 137.746 281.248 137.661C281.592 137.556 281.998 137.346 282.353 137.315C282.766 137.279 283.142 137.08 283.553 137.011C283.993 136.937 284.449 136.793 284.868 136.641C285.31 136.48 285.793 136.464 286.244 136.325C286.477 136.254 286.662 136.234 286.878 136.127C287.061 136.037 287.254 135.949 287.44 135.864C287.814 135.694 288.156 135.442 288.543 135.298C288.993 135.129 289.421 134.849 289.888 134.742C290.207 134.668 290.509 134.462 290.811 134.333C291.329 134.112 291.845 134.001 292.39 133.868C292.646 133.806 292.935 133.718 293.171 133.607C293.558 133.426 294.115 133.429 294.456 133.158C294.607 133.037 294.861 132.921 295.041 132.832C295.249 132.73 295.458 132.628 295.675 132.555C295.958 132.459 296.266 132.329 296.572 132.284C296.768 132.256 297.013 132.124 297.211 132.136C297.425 132.149 297.703 131.971 297.908 131.902C298.113 131.832 298.242 131.712 298.471 131.701C298.555 131.697 298.596 131.599 298.683 131.583C298.829 131.556 298.967 131.653 299.112 131.61C299.264 131.565 299.421 131.526 299.578 131.482C299.749 131.434 299.929 131.414 300.105 131.365C300.288 131.313 300.485 131.271 300.698 131.28C300.969 131.291 301.239 131.15 301.512 131.138C301.654 131.132 301.855 131.071 301.986 131.017C302.074 130.982 302.254 130.996 302.319 130.925C302.389 130.848 302.579 130.783 302.69 130.743C302.894 130.669 303.018 130.603 303.231 130.709" stroke="black" stroke-width="3" stroke-linecap="round"/>
<path d="M303.8 130.189C303.888 130.221 303.99 130.082 304.054 130.031C304.143 129.958 304.241 129.948 304.345 129.915C304.73 129.793 305.175 129.819 305.571 129.864C306.106 129.925 306.588 130.057 307.117 129.936C307.304 129.894 307.495 129.83 307.684 129.799C307.788 129.782 308.084 129.728 308.155 129.649C308.241 129.555 308.416 129.541 308.537 129.532C308.663 129.522 308.774 129.457 308.886 129.457C309.955 129.452 310.983 129.75 312.025 129.944C312.455 130.023 312.84 130.14 313.277 130.17C313.56 130.189 313.812 130.195 314.092 130.19C314.289 130.186 314.442 130.187 314.64 130.221C314.857 130.258 315.124 130.2 315.326 130.283C316.226 130.653 317.099 131.115 317.976 131.549C318.35 131.733 318.739 131.983 319.141 132.102C319.259 132.137 319.385 132.145 319.502 132.179C319.875 132.289 320.258 132.543 320.602 132.713C321.061 132.94 321.527 133.157 321.97 133.416C322.255 133.583 322.587 133.753 322.845 133.965C323.069 134.15 323.265 134.43 323.462 134.645C323.685 134.89 323.846 135.204 324.083 135.429C324.243 135.581 324.36 135.721 324.49 135.905C324.883 136.46 325.377 136.926 325.736 137.502C326.071 138.039 326.112 138.692 326.255 139.287C326.384 139.825 326.36 140.455 326.313 141.003C326.291 141.258 326.348 141.486 326.355 141.738C326.361 141.967 326.355 142.227 326.444 142.442C326.532 142.653 326.559 142.932 326.538 143.158C326.502 143.532 326.558 143.92 326.521 144.301C326.497 144.547 326.408 144.851 326.416 145.094C326.423 145.327 326.306 145.551 326.286 145.786C326.255 146.167 325.928 146.484 325.861 146.867C325.785 147.294 325.576 147.672 325.387 148.056C325.142 148.551 324.897 149.046 324.652 149.541C324.259 150.337 323.977 151.199 323.442 151.92C323.301 152.11 323.165 152.333 323.001 152.503C322.827 152.682 322.575 152.85 322.432 153.054C322.364 153.151 322.293 153.251 322.234 153.354C322.195 153.423 322.068 153.463 322.012 153.533C321.873 153.711 321.656 153.804 321.56 153.999" stroke="black" stroke-width="3" stroke-linecap="round"/>
<path d="M240.012 133.105C240.049 133.186 240.106 133.23 240.128 133.314C240.158 133.426 240.287 133.564 240.365 133.645C240.531 133.818 240.664 133.99 240.864 134.132C241.021 134.243 241.158 134.369 241.307 134.486C241.396 134.555 241.459 134.608 241.525 134.697C241.55 134.732 241.584 134.745 241.619 134.767C241.691 134.812 241.751 134.874 241.821 134.922C242.051 135.083 242.285 135.236 242.523 135.386C242.675 135.482 242.802 135.604 242.943 135.715C243.088 135.828 243.275 135.903 243.436 135.99C243.513 136.032 243.577 136.089 243.648 136.14C243.729 136.199 243.821 136.239 243.901 136.299C244.104 136.453 244.316 136.601 244.532 136.735C244.697 136.838 244.849 136.967 245.019 137.06C245.275 137.201 245.523 137.349 245.787 137.48C246.064 137.617 246.34 137.752 246.609 137.904C247.166 138.219 247.676 138.606 248.251 138.89C248.433 138.98 248.615 139.07 248.798 139.16C248.98 139.25 249.15 139.33 249.347 139.382C249.452 139.41 249.562 139.44 249.666 139.474C249.849 139.534 250.037 139.553 250.222 139.61C250.377 139.657 250.526 139.686 250.683 139.707" stroke="black" stroke-width="3" stroke-linecap="round"/>
<path d="M251.229 139.559C251.359 139.623 251.489 139.688 251.62 139.752C251.845 139.863 252.001 139.89 252.245 139.908C252.556 139.93 252.879 140.109 253.185 140.084C253.346 140.071 253.557 140.126 253.714 140.164C254.264 140.299 254.789 140.531 255.335 140.674C255.895 140.821 256.496 140.933 257.07 141.028C257.285 141.063 257.52 141.173 257.734 141.188C257.872 141.198 257.986 141.185 258.127 141.207C258.431 141.255 258.824 141.247 259.131 141.216C259.809 141.149 260.478 141.215 261.151 141.207C261.464 141.203 261.72 141.042 262.042 141.054C262.188 141.06 262.331 141.025 262.48 141.029C262.553 141.031 262.694 141.069 262.763 141.035C263.128 140.859 263.595 141.156 263.966 141.052C264.355 140.942 264.952 141.021 265.343 141.085C265.511 141.112 265.645 141.082 265.812 141.09C266.294 141.111 266.774 141.095 267.25 141.01C267.462 140.972 267.686 141.006 267.9 140.973C268.16 140.933 268.461 140.916 268.726 140.897C268.918 140.883 269.146 140.847 269.334 140.812C269.514 140.778 269.699 140.79 269.876 140.746C270.063 140.7 270.243 140.635 270.433 140.602C270.565 140.579 270.671 140.421 270.809 140.437C271.111 140.47 271.393 140.332 271.69 140.289C271.964 140.249 272.232 140.156 272.507 140.125C272.666 140.107 272.902 140.112 273.048 140.041C273.215 139.96 273.356 139.871 273.522 139.781C273.618 139.73 273.936 139.654 273.997 139.561C274.055 139.472 274.215 139.452 274.307 139.403C274.418 139.344 274.547 139.211 274.673 139.273" stroke="black" stroke-width="3" stroke-linecap="round"/>
<path d="M321.164 154.069C321.09 154.22 321.027 154.399 320.927 154.534C320.753 154.77 320.513 154.953 320.3 155.152C319.94 155.49 319.769 156.032 319.555 156.465C319.307 156.965 319.06 157.465 318.813 157.965C318.694 158.205 318.544 158.436 318.513 158.705C318.489 158.917 318.437 159.127 318.374 159.331C318.24 159.768 318.393 160.262 318.392 160.702C318.39 161.113 318.51 161.573 318.64 161.959C318.695 162.121 318.82 162.278 318.911 162.424C319.052 162.65 319.216 162.873 319.373 163.089C319.614 163.419 320.071 163.714 320.435 163.894C320.605 163.978 320.777 164.061 320.947 164.147C321.154 164.251 321.348 164.381 321.556 164.481C321.704 164.552 321.878 164.542 322.037 164.562C322.422 164.611 322.833 164.694 323.205 164.808C323.284 164.832 323.387 164.896 323.472 164.889C323.521 164.885 323.556 164.839 323.603 164.83C323.882 164.78 324.168 164.761 324.446 164.712C324.62 164.681 324.817 164.544 324.98 164.47C325.14 164.398 325.302 164.345 325.467 164.285C325.617 164.23 325.734 164.224 325.889 164.193C326.284 164.116 326.675 163.939 327.059 163.809C328.023 163.483 328.915 162.996 329.883 162.669" stroke="black" stroke-width="3" stroke-linecap="round"/>
<path d="M330.66 162.449C330.73 162.343 330.881 162.326 330.952 162.215C331.082 162.012 331.288 161.731 331.498 161.612C331.683 161.508 331.849 161.31 331.997 161.16C332.148 161.008 332.354 160.888 332.518 160.746C332.644 160.637 332.754 160.503 332.894 160.409C333.223 160.187 333.506 159.909 333.863 159.72C334.196 159.545 334.473 159.219 334.685 158.917C334.809 158.74 334.972 158.566 335.117 158.404C335.155 158.361 335.23 158.354 335.271 158.302C335.323 158.235 335.382 158.149 335.42 158.073C335.543 157.823 335.796 157.668 335.938 157.431C336.166 157.05 336.488 156.705 336.775 156.368C336.976 156.131 337.09 155.815 337.226 155.54C337.358 155.274 337.534 155.001 337.591 154.706C337.651 154.4 337.802 154.139 337.939 153.861C338.054 153.629 338.232 153.374 338.256 153.115C338.267 152.992 338.246 152.828 338.301 152.716" stroke="black" stroke-width="3" stroke-linecap="round"/>
<path d="M338.907 151.906C338.87 151.796 338.883 151.682 338.875 151.57C338.865 151.406 338.885 151.231 338.907 151.066C338.955 150.71 338.93 150.344 339.033 149.997C339.093 149.796 339.164 149.61 339.198 149.401C339.218 149.281 339.209 149.159 339.237 149.041C339.264 148.925 339.3 148.809 339.314 148.69C339.327 148.592 339.355 148.496 339.367 148.397C339.387 148.237 339.365 148.076 339.39 147.917C339.437 147.628 339.523 147.346 339.542 147.053C339.553 146.877 339.594 146.688 339.629 146.515C339.662 146.355 339.693 146.219 339.682 146.055C339.662 145.757 339.71 145.47 339.725 145.174C339.734 144.991 339.725 144.838 339.762 144.656C339.799 144.475 339.757 144.293 339.783 144.109C339.811 143.904 339.794 143.7 339.809 143.494C339.823 143.307 339.844 143.126 339.835 142.937C339.827 142.753 339.849 142.57 339.811 142.39C339.78 142.244 339.759 142.08 339.75 141.932C339.739 141.749 339.691 141.583 339.606 141.42C339.517 141.247 339.46 141.063 339.361 140.896C339.279 140.759 339.23 140.584 339.197 140.43C339.121 140.074 338.929 139.749 338.853 139.392C338.762 138.969 338.715 138.51 338.564 138.11C338.467 137.853 338.358 137.591 338.267 137.321" stroke="black" stroke-width="3" stroke-linecap="round"/>
<path d="M338.088 136.561C338.062 136.598 338.02 136.463 338.01 136.45C337.979 136.406 337.976 136.376 337.965 136.325C337.948 136.251 337.878 136.209 337.839 136.146C337.789 136.064 337.766 135.977 337.733 135.888C337.652 135.67 337.528 135.473 337.435 135.259C337.346 135.057 337.29 134.842 337.207 134.637C337.157 134.513 337.089 134.403 337.028 134.285C336.97 134.172 336.965 134.057 336.926 133.941C336.829 133.656 336.713 133.377 336.611 133.094C336.567 132.974 336.561 132.845 336.517 132.727C336.457 132.568 336.308 132.41 336.215 132.265C336.045 131.997 335.884 131.715 335.719 131.441C335.628 131.289 335.525 131.143 335.435 130.99C335.379 130.895 335.371 130.798 335.329 130.702C335.27 130.566 335.128 130.447 335.042 130.326C334.936 130.179 334.842 130.03 334.723 129.893C334.676 129.84 334.675 129.779 334.638 129.726C334.6 129.672 334.547 129.628 334.51 129.566C334.428 129.431 334.325 129.282 334.227 129.16C333.993 128.867 333.739 128.626 333.444 128.4C332.754 127.873 332.098 127.286 331.464 126.708C331.118 126.393 330.818 126.028 330.465 125.719C330.215 125.499 329.974 125.267 329.733 125.038C329.528 124.842 329.262 124.689 329.076 124.478C328.876 124.25 328.656 124.081 328.413 123.9C328.112 123.677 327.745 123.534 327.454 123.296C327.169 123.065 326.881 122.88 326.548 122.716" stroke="black" stroke-width="3" stroke-linecap="round"/>
<path d="M326.102 122.504C325.946 122.426 325.79 122.349 325.634 122.272C325.375 122.144 325.097 122.121 324.834 122C324.704 121.94 324.54 121.905 324.402 121.861C324.099 121.765 323.816 121.629 323.519 121.518C323.439 121.488 323.347 121.477 323.27 121.441C322.918 121.278 322.546 121.077 322.165 120.994C321.868 120.929 321.592 120.767 321.298 120.712C320.967 120.65 320.633 120.545 320.314 120.434C319.996 120.322 319.681 120.189 319.378 120.039C319.238 119.97 319.099 119.889 318.953 119.832C318.825 119.783 318.688 119.781 318.558 119.732C317.945 119.505 317.292 119.507 316.656 119.386C316.405 119.338 316.156 119.251 315.904 119.214C315.773 119.194 315.639 119.202 315.507 119.186C315.365 119.169 315.248 119.128 315.102 119.134C314.966 119.139 314.845 119.142 314.708 119.127C314.526 119.106 314.317 119.14 314.136 119.166C313.931 119.196 313.721 119.198 313.513 119.22C313.24 119.248 312.956 119.221 312.686 119.172C312.402 119.121 312.122 119.176 311.844 119.138C311.643 119.11 311.426 119.151 311.22 119.136C310.987 119.119 310.733 119.159 310.5 119.181C310.228 119.206 309.953 119.226 309.679 119.233C309.57 119.236 309.427 119.232 309.324 119.275C309.2 119.326 309.024 119.377 308.877 119.372C308.618 119.365 308.364 119.497 308.104 119.498C307.913 119.499 307.748 119.552 307.562 119.58C307.212 119.632 306.848 119.607 306.495 119.652C306.372 119.668 306.219 119.614 306.1 119.645C306.007 119.669 305.92 119.653 305.824 119.66C305.731 119.666 305.656 119.703 305.562 119.703C305.311 119.7 305.04 119.696 304.798 119.735C304.539 119.777 304.207 119.732 303.974 119.85" stroke="black" stroke-width="3" stroke-linecap="round"/>
<path d="M248.854 129.491C248.903 129.619 248.985 129.721 249.068 129.828C249.16 129.945 249.367 130 249.497 130.064C250.293 130.457 251.088 130.869 251.926 131.168C252.253 131.285 252.607 131.364 252.946 131.443C253.277 131.52 253.638 131.574 253.951 131.709C254.257 131.842 254.581 131.931 254.911 131.985C255.347 132.056 255.753 132.189 256.181 132.296C256.735 132.433 257.312 132.526 257.874 132.629C258.009 132.654 258.137 132.633 258.271 132.64C258.382 132.646 258.491 132.661 258.603 132.66C258.817 132.658 259.027 132.643 259.241 132.672C259.368 132.689 259.492 132.718 259.62 132.733C259.694 132.742 259.759 132.732 259.83 132.762C259.89 132.787 259.906 132.755 259.966 132.752C260.048 132.748 260.125 132.793 260.21 132.783C260.339 132.768 260.47 132.79 260.602 132.778C260.739 132.765 260.888 132.784 261.025 132.791C261.15 132.798 261.289 132.765 261.417 132.759" stroke="black" stroke-width="3" stroke-linecap="round"/>
<path d="M262.409 132.485C262.612 132.371 262.89 132.43 263.11 132.393C263.279 132.365 263.445 132.365 263.615 132.321C264.057 132.207 264.514 132.216 264.967 132.174C265.251 132.147 265.521 132.142 265.799 132.075C266.04 132.017 266.294 131.938 266.54 131.909C266.808 131.877 267.073 131.801 267.337 131.746C267.58 131.696 267.832 131.695 268.072 131.622C268.284 131.557 268.495 131.53 268.71 131.481C268.991 131.417 269.24 131.253 269.528 131.206C269.923 131.142 270.31 131.012 270.705 130.943C270.901 130.908 271.083 130.852 271.274 130.794C271.312 130.782 271.385 130.798 271.414 130.762C271.433 130.739 271.515 130.704 271.547 130.705C271.578 130.705 271.585 130.729 271.612 130.704C271.634 130.682 271.642 130.668 271.67 130.668" stroke="black" stroke-width="3" stroke-linecap="round"/>
<path d="M272.273 130.572C272.324 130.493 272.454 130.496 272.533 130.469C272.607 130.444 272.677 130.413 272.749 130.38C272.954 130.285 273.167 130.228 273.382 130.158C273.679 130.06 273.975 130.01 274.254 129.872C274.553 129.723 274.887 129.646 275.209 129.56C275.298 129.536 275.354 129.493 275.43 129.442C275.602 129.326 275.798 129.23 275.978 129.128C276.191 129.007 276.439 128.958 276.657 128.847C276.762 128.795 276.877 128.793 276.988 128.765C277.117 128.732 277.254 128.683 277.38 128.636C277.605 128.55 277.829 128.453 278.061 128.389C278.233 128.342 278.399 128.323 278.566 128.259C278.928 128.12 279.333 128.177 279.669 127.957C279.867 127.828 280.042 127.677 280.253 127.568C280.378 127.503 280.502 127.412 280.617 127.33C280.934 127.105 281.259 126.914 281.611 126.754C281.827 126.656 282.057 126.591 282.289 126.547C282.416 126.523 282.632 126.495 282.736 126.41C282.851 126.316 283.011 126.321 283.129 126.231" stroke="black" stroke-width="3" stroke-linecap="round"/>
<path d="M283.046 126.028C283.105 126.053 283.117 126.02 283.164 125.988C283.265 125.919 283.347 125.881 283.468 125.854C283.662 125.81 283.885 125.803 284.071 125.735C284.216 125.683 284.372 125.658 284.511 125.591C284.7 125.498 284.897 125.432 285.094 125.359C285.321 125.275 285.542 125.263 285.757 125.141C285.922 125.048 286.089 124.953 286.269 124.892C286.607 124.778 286.923 124.634 287.251 124.495C287.713 124.298 288.2 124.17 288.662 123.972C288.815 123.907 288.974 123.88 289.13 123.828C289.325 123.762 289.425 123.633 289.582 123.513C289.737 123.393 289.908 123.237 290.092 123.163C290.195 123.121 290.29 123.054 290.402 123.035C290.51 123.017 290.605 122.968 290.714 122.961C290.83 122.953 290.953 122.938 291.069 122.925C291.229 122.907 291.382 122.845 291.541 122.86C291.609 122.866 291.693 122.835 291.758 122.817C292.064 122.73 292.386 122.694 292.692 122.607C292.855 122.561 293.045 122.576 293.198 122.502C293.31 122.449 293.476 122.4 293.598 122.376C293.73 122.349 293.851 122.305 293.984 122.283C294.048 122.272 294.127 122.276 294.184 122.243" stroke="black" stroke-width="3" stroke-linecap="round"/>
<path d="M294.389 122.391C294.487 122.415 294.69 122.323 294.784 122.303C294.925 122.274 295.059 122.239 295.198 122.209C295.352 122.175 295.496 122.113 295.651 122.078C295.848 122.034 296.026 121.932 296.203 121.84C296.51 121.68 296.843 121.527 297.18 121.445C297.604 121.342 298.022 121.222 298.453 121.155C298.612 121.13 298.758 121.064 298.915 121.029C299.048 121 299.19 120.969 299.319 120.925C299.438 120.885 299.562 120.832 299.677 120.783C299.813 120.726 299.952 120.69 300.087 120.636C300.552 120.449 301.124 120.48 301.615 120.472C301.89 120.468 302.142 120.348 302.421 120.339C302.554 120.335 302.671 120.307 302.803 120.295C302.892 120.287 302.959 120.234 303.05 120.242C303.137 120.249 303.286 120.232 303.369 120.204C303.535 120.148 303.719 120.22 303.899 120.164C303.977 120.14 304.064 120.106 304.146 120.096C304.222 120.088 304.239 120.058 304.296 120.037C304.356 120.014 304.411 119.993 304.474 119.985" stroke="black" stroke-width="3" stroke-linecap="round"/>
<path d="M168.6 28.5C217.657 28.5 257.1 63.5913 257.1 106.5C257.1 149.409 217.657 184.5 168.6 184.5C119.542 184.5 80.0996 149.409 80.0996 106.5C80.0996 63.5913 119.542 28.5 168.6 28.5Z" fill="white" stroke="black" stroke-width="3"/>
<path d="M39.7824 82.045L40.0898 57.0675L77.6808 60.4677L39.7824 82.045Z" fill="white" stroke="black" stroke-width="3"/>
<path d="M126.729 57.9686L164.223 54.2006L165.097 79.1624L126.729 57.9686Z" fill="white" stroke="black" stroke-width="3"/>
<path d="M177.5 112.074C177.5 127.417 169.406 141.41 156.119 151.614C142.831 161.82 124.409 168.175 104 168.175C83.5909 168.175 65.169 161.82 51.8806 151.614C38.5939 141.41 30.5 127.417 30.5 112.074C30.5 96.7312 38.5939 82.7386 51.8806 72.5343C65.169 62.3288 83.5909 55.9738 104 55.9738C124.409 55.9738 142.831 62.3288 156.119 72.5343C169.406 82.7386 177.5 96.7312 177.5 112.074Z" fill="white" stroke="black" stroke-width="3"/>
<path d="M76.1953 109.991C76.1953 109.925 76.225 109.868 76.2725 109.82C76.3296 109.763 76.3887 109.676 76.4222 109.601C76.4616 109.512 76.5572 109.433 76.5932 109.337C76.6339 109.229 76.7523 109.125 76.8193 109.029C76.885 108.936 76.9046 108.783 76.9894 108.711C77.0655 108.646 77.1569 108.501 77.2037 108.413C77.2397 108.345 77.2954 108.287 77.3266 108.218C77.3421 108.184 77.375 108.154 77.3857 108.118C77.4138 108.024 77.4525 107.932 77.4826 107.838C77.5018 107.779 77.5128 107.721 77.5393 107.663C77.5884 107.557 77.6344 107.449 77.6756 107.339C77.7197 107.221 77.7415 107.096 77.7867 106.979C77.8016 106.941 77.8303 106.911 77.849 106.875C77.9048 106.768 77.9551 106.659 78.0105 106.551C78.1019 106.373 78.1446 106.15 78.272 105.988C78.4016 105.824 78.4165 105.608 78.4847 105.412C78.5061 105.352 78.5201 105.285 78.5352 105.223C78.5563 105.135 78.6161 105.065 78.6344 104.978C78.6471 104.918 78.6628 104.876 78.6628 104.814" stroke="black" stroke-linecap="round"/>
<path d="M75.9272 109.817C76.0321 109.758 75.9007 109.668 75.857 109.62C75.7795 109.536 75.69 109.524 75.6464 109.398C75.5863 109.223 75.5026 109.044 75.4161 108.882C75.3918 108.837 75.3494 108.763 75.3108 108.731C75.2651 108.693 75.2648 108.623 75.2164 108.588C75.182 108.563 75.1638 108.499 75.1385 108.463C75.1059 108.417 75.0759 108.372 75.0398 108.327C74.9741 108.245 74.8973 108.184 74.8215 108.108C74.7849 108.071 74.7126 107.971 74.7041 107.92C74.6949 107.865 74.6261 107.805 74.5846 107.763C74.428 107.607 74.4199 107.373 74.2686 107.221C74.2056 107.158 74.1603 107.087 74.092 107.024C74.0592 106.994 74.0104 106.999 73.9966 106.954C73.9764 106.887 73.9345 106.825 73.8957 106.767C73.7791 106.592 73.6412 106.415 73.5534 106.23C73.5171 106.153 73.4573 106.104 73.4097 106.036C73.3736 105.984 73.3653 105.931 73.3395 105.875C73.2846 105.756 73.1612 105.698 73.119 105.567C73.0918 105.483 73.0049 105.376 73.0049 105.295C73.0049 105.236 72.9654 105.191 72.9654 105.126C72.9654 105.064 72.9407 105.03 72.9216 104.975C72.8921 104.89 72.9084 104.806 72.8371 104.735C72.7466 104.644 72.7092 104.513 72.6539 104.396C72.6289 104.343 72.6337 104.3 72.6287 104.244C72.6165 104.11 72.5534 103.984 72.5223 103.854C72.5065 103.788 72.5091 103.704 72.4872 103.641C72.4736 103.602 72.4207 103.577 72.4126 103.538C72.404 103.497 72.3666 103.463 72.3446 103.428C72.3222 103.393 72.3236 103.346 72.304 103.311C72.2572 103.227 72.2546 103.147 72.2546 103.053C72.2546 102.976 72.253 102.9 72.2042 102.837C72.1431 102.758 72.1756 102.6 72.1756 102.505C72.1756 102.324 72.1586 102.137 72.1756 101.958C72.1874 101.835 72.2429 101.711 72.2535 101.583C72.2615 101.488 72.2778 101.4 72.2744 101.302C72.2717 101.228 72.2546 101.156 72.2546 101.08C72.2546 101.002 72.2151 100.944 72.2151 100.872" stroke="black" stroke-linecap="round"/>
<path d="M78.6284 104.599C78.6284 103.727 78.7058 102.865 78.7058 102C78.7058 101.772 78.7184 101.54 78.7058 101.312C78.6947 101.113 78.6691 100.813 78.5704 100.636C78.4663 100.448 78.5581 100.244 78.3986 100.058C78.3336 99.9821 78.3847 99.8775 78.3019 99.8066C78.2505 99.7625 78.2139 99.5723 78.1731 99.4951C78.0839 99.3267 77.8938 99.0776 77.8938 98.8765C77.8938 98.6654 77.7886 98.4855 77.7778 98.2751C77.7685 98.0925 77.6601 98.0184 77.5459 97.8928C77.1969 97.5089 76.8563 97.1033 76.6094 96.6341C76.4673 96.3642 76.2411 96.1258 76.0853 95.8608C76.0259 95.7598 75.9264 95.7279 75.8919 95.6073C75.8507 95.4632 75.7475 95.3542 75.6342 95.2615C75.4811 95.1363 75.4121 94.9132 75.2841 94.7568C75.1184 94.5542 74.9839 94.3814 74.8008 94.1983" stroke="black" stroke-linecap="round"/>
<path d="M72.2485 100.848C72.2485 100.372 72.0804 99.7469 72.2485 99.2846C72.3233 99.079 72.4686 98.8703 72.4805 98.6445C72.4834 98.5899 72.5331 98.5684 72.5492 98.52C72.5721 98.4513 72.5466 98.3811 72.5772 98.3138C72.6352 98.1862 72.6199 98.0497 72.6652 97.9228C72.7642 97.6457 72.8091 97.3602 73.0025 97.1238C73.0829 97.0255 73.147 96.9584 73.2065 96.8274C73.2621 96.705 73.3838 96.5185 73.4084 96.3956C73.4514 96.181 73.5691 96.0191 73.6834 95.835C73.9199 95.4539 74.0856 95.0278 74.3277 94.6537C74.3546 94.6121 74.3226 94.5522 74.3449 94.5076C74.3707 94.4561 74.4398 94.451 74.4695 94.3916C74.5098 94.311 74.531 94.249 74.607 94.1983" stroke="black" stroke-linecap="round"/>
<path d="M75.1484 104.831C75.1484 104.962 75.248 105.025 75.2644 105.14C75.2876 105.302 75.3004 105.43 75.3632 105.589C75.416 105.722 75.566 105.921 75.5737 106.068C75.5828 106.24 75.6575 106.486 75.7499 106.631C75.8448 106.78 75.8375 107.081 75.8744 107.258C75.9115 107.435 75.9217 107.584 75.9217 107.769" stroke="black" stroke-width="3" stroke-linecap="round"/>
<path d="M75.11 98.6832C75.11 98.5366 75.1315 98.4467 75.0026 98.3524C74.9042 98.2805 74.8245 98.1574 74.7813 98.0453C74.6983 97.8292 74.8462 97.5409 74.7234 97.3386C74.5938 97.1252 74.6074 96.8573 74.6074 96.6147C74.6074 96.5138 74.6074 96.4128 74.6074 96.3119C74.6074 96.0614 74.5457 96.8509 74.6847 97.0594" stroke="black" stroke-width="3" stroke-linecap="round"/>
<path d="M74.5683 105.256C74.4345 105.241 74.335 105.032 74.2418 104.944C74.029 104.744 74.063 104.563 73.9884 104.311C73.8935 103.991 73.8724 103.613 73.8724 103.282C73.8724 102.952 73.7527 102.648 73.7199 102.32C73.6351 101.472 73.7177 100.583 73.7177 99.7293C73.7177 99.4321 73.7529 99.1152 73.8638 98.8379C73.9163 98.7066 73.8724 98.4755 73.8724 98.3353" stroke="black" stroke-width="3" stroke-linecap="round"/>
<path d="M76.7727 105.024C76.8194 105.018 76.8774 104.373 76.8866 104.3C76.9064 104.141 76.8647 104.624 76.8114 104.775C76.7752 104.877 76.674 104.927 76.6589 105.041C76.6447 105.148 76.6567 105.262 76.6567 105.37C76.6567 105.525 76.6567 105.681 76.6567 105.836C76.6567 105.898 76.6567 105.909 76.6567 105.836C76.6567 105.647 76.6567 105.458 76.6567 105.269C76.6567 105.112 76.6659 104.962 76.6267 104.809C76.6074 104.734 76.5449 104.677 76.5407 104.599C76.5095 104.006 76.5165 103.355 76.3796 102.766C76.3435 102.611 76.3122 102.422 76.2271 102.283C76.2001 102.239 76.234 102.516 76.24 102.541C76.3316 102.918 76.3474 103.28 76.3474 103.666C76.3474 104.068 76.3773 104.471 76.4269 104.867C76.4489 105.043 76.4634 105.208 76.4634 105.389C76.4634 105.535 76.2424 106.007 76.3173 105.625C76.3503 105.458 76.4639 105.318 76.4978 105.157C76.5337 104.986 76.5021 104.779 76.5021 104.605C76.5021 104.377 76.5021 104.15 76.5021 103.922C76.5021 103.675 76.6181 103.469 76.6181 103.224C76.6181 103.046 76.5794 102.877 76.5794 102.704" stroke="black" stroke-width="3" stroke-linecap="round"/>
<path d="M76.8107 103.477C77.0204 103.477 76.9349 103.013 76.9181 102.867C76.8906 102.629 76.7552 102.445 76.6818 102.225C76.6281 102.064 76.5962 101.833 76.5809 101.665C76.5456 101.276 76.4447 100.886 76.3639 100.5C76.3238 100.309 76.2308 100.114 76.2308 99.9183C76.2308 99.6872 76.1962 99.4491 76.1363 99.2266C76.0958 99.0763 76.0375 98.8533 76.0375 98.7025C76.0375 98.5691 75.8609 98.4001 75.8441 98.2579C75.8401 98.2239 75.7345 98.0906 75.7067 98.0668C75.6188 97.9914 75.6484 98.1761 75.653 98.2214C75.677 98.4617 75.7282 98.6689 75.7282 98.9152" stroke="black" stroke-width="3" stroke-linecap="round"/>
<path d="M76.0381 100.346C76.1259 100.365 76.3398 100.839 76.3474 100.934C76.3727 101.25 76.5451 101.545 76.5794 101.854C76.5931 101.977 76.6471 102.24 76.7254 102.326C76.8612 102.476 76.8152 102.311 76.8113 102.163C76.8063 101.972 76.6941 101.703 76.5794 101.553C76.4599 101.396 76.4998 101.18 76.4247 100.994C76.3918 100.913 76.3129 100.573 76.4935 100.694C76.7278 100.85 76.7993 101.175 76.85 101.428" stroke="black" stroke-width="3" stroke-linecap="round"/>
<path d="M90.0095 109.898C89.7833 109.898 89.7307 109.948 89.5787 110.1C89.4831 110.196 89.3608 110.316 89.2542 110.397C89.1562 110.472 88.9987 110.485 88.9146 110.557C88.6917 110.746 88.4143 110.716 88.1644 110.83C87.8769 110.962 87.5426 111.027 87.2316 111.084C87.0735 111.113 86.9454 111.21 86.7805 111.221C86.6586 111.228 86.4972 111.245 86.3826 111.289C85.8861 111.48 85.3722 111.579 84.872 111.745C84.1023 112.002 83.3271 112.179 82.5275 112.179C81.8666 112.179 81.2445 112.27 80.5809 112.27C79.7089 112.27 78.8814 112.347 78.0159 112.404C77.2548 112.455 76.494 112.452 75.7297 112.452C75.407 112.452 75.0843 112.452 74.7615 112.452C74.3023 112.452 73.9122 112.229 73.4689 112.179C73.0231 112.128 72.5886 111.89 72.1408 111.811C71.5763 111.712 71.0554 111.443 70.5592 111.167C70.0332 110.875 69.5031 110.56 69.0334 110.181C68.8266 110.015 68.642 109.756 68.4581 109.558C67.9959 109.062 67.5126 108.593 66.9956 108.154C66.6979 107.901 66.5664 107.569 66.3214 107.277C66.1223 107.039 65.9761 106.776 65.85 106.494C65.7441 106.257 65.5809 106.089 65.4292 105.883C65.1017 105.438 64.8506 104.96 64.5624 104.489C64.4125 104.243 64.2676 104.017 64.0986 103.784C64.0267 103.685 63.9592 103.52 63.9592 103.394C63.9592 102.792 63.5417 102.25 63.3864 101.686C63.2999 101.371 63.2394 101.049 63.1532 100.738C63.12 100.618 63.0465 100.344 62.9707 100.241C62.6156 99.7567 62.3263 99.3511 62.1089 98.7759C61.965 98.3948 61.8466 97.9778 61.7237 97.5897C61.6724 97.4276 61.6044 97.3184 61.564 97.1487C61.5289 97.001 61.4864 96.8558 61.45 96.7102C61.3576 96.3407 61.1925 96.0508 61.0242 95.7141C60.9013 95.4684 60.8513 95.1904 60.7656 94.9335" stroke="black" stroke-width="3" stroke-linecap="round"/>
<path d="M89.5623 108.783C89.5623 108.586 89.5981 108.344 89.5542 108.151C89.4751 107.805 89.304 107.509 89.198 107.171C89.0957 106.845 89.0235 106.533 88.9103 106.212C88.7225 105.678 88.6024 105.121 88.4193 104.582C88.3972 104.517 88.3801 104.45 88.3589 104.384C88.3061 104.221 88.1567 104.121 88.0993 103.962C87.9489 103.545 87.9044 103.066 87.8317 102.63C87.7697 102.257 87.5016 101.832 87.3307 101.501C87.072 101 86.7756 100.521 86.5197 100.018C86.1988 99.3872 85.8293 98.7543 85.4231 98.1766C85.2899 97.9872 85.203 97.773 85.0749 97.581C85.0194 97.4977 84.9375 97.469 84.8657 97.4019C84.4252 96.9901 83.9368 96.5958 83.4088 96.3072C83.0445 96.1081 82.6774 95.8738 82.3564 95.613C82.2772 95.5486 82.2696 95.481 82.1713 95.4319C82.063 95.3777 81.9322 95.3211 81.8312 95.2568C81.0066 94.7321 80.1891 94.2032 79.4768 93.5303C79.1685 93.239 78.9567 93.0977 78.5673 92.9528C78.1161 92.7849 77.6877 92.671 77.2231 92.5483C77.1084 92.518 77.0118 92.4197 76.8931 92.4115C76.7594 92.4023 76.6317 92.3781 76.4987 92.3571C75.8865 92.2605 75.2711 92.1827 74.6595 92.0855C74.2103 92.0141 73.7664 91.898 73.3133 91.8521C73.0461 91.825 72.7728 91.8059 72.5044 91.7977C72.1643 91.7874 71.8515 91.6937 71.5164 91.6589C70.8775 91.5926 70.1287 91.5284 69.4961 91.6508C69.2704 91.6945 69.0525 91.7724 68.828 91.8158C68.6046 91.8591 68.3889 91.856 68.166 91.9205C67.627 92.0765 67.0438 92.1009 66.5139 92.2827C66.2094 92.3872 65.9477 92.4844 65.6245 92.5382C65.2239 92.605 64.7596 92.666 64.389 92.8381C64.257 92.8994 64.1323 92.9061 63.9905 92.9266C63.6653 92.9736 63.3577 93.1051 63.0307 93.156C62.7627 93.1977 62.5261 93.2808 62.252 93.2808" stroke="black" stroke-width="3" stroke-linecap="round"/>
<path d="M62.626 93.0396C62.1301 93.0396 61.6751 93.258 61.2436 93.4737C61.0619 93.5646 60.8105 93.5205 60.6092 93.5205C60.3504 93.5205 60.2262 93.7609 59.9814 93.7609" stroke="black" stroke-width="3" stroke-linecap="round"/>
<path d="M116.102 109.768C116.121 109.958 116.188 110.171 116.373 110.264C116.779 110.467 117.137 110.759 117.619 110.819C117.724 110.832 117.82 110.898 117.923 110.925C118.157 110.985 118.394 111.028 118.627 111.097C118.903 111.18 119.186 111.242 119.449 111.363C119.777 111.513 120.143 111.608 120.483 111.74C120.645 111.804 120.831 111.796 121 111.835C121.427 111.933 121.843 112.076 122.274 112.159C122.871 112.274 123.503 112.228 124.093 112.351C124.258 112.386 124.404 112.518 124.57 112.526C125.187 112.554 125.766 112.759 126.391 112.759C127.682 112.759 128.973 112.759 130.263 112.759C130.598 112.759 130.935 112.771 131.269 112.759C131.437 112.753 131.594 112.68 131.757 112.643C132.204 112.541 132.645 112.475 133.073 112.302C133.408 112.166 133.73 112.007 134.066 111.866C134.306 111.765 134.561 111.697 134.8 111.594C134.924 111.54 135.01 111.439 135.145 111.391C136.119 111.046 137.018 110.525 137.881 109.958C138.375 109.634 138.907 109.218 139.2 108.7C139.265 108.585 139.378 108.505 139.448 108.391C139.562 108.207 139.66 108.031 139.789 107.856C139.883 107.728 139.921 107.581 140.003 107.448C140.136 107.231 140.315 107.046 140.454 106.833C140.996 106 141.445 105.101 141.865 104.2C141.953 104.011 142.056 103.782 142.172 103.609C142.353 103.337 142.465 103.024 142.653 102.756C142.72 102.661 142.755 102.567 142.789 102.456C142.843 102.28 142.953 102.144 143.026 101.977C143.11 101.786 143.224 101.598 143.333 101.416" stroke="black" stroke-width="3" stroke-linecap="round"/>
<path d="M143.488 100.911C143.564 100.654 143.679 100.43 143.692 100.153C143.702 99.9329 143.744 99.7024 143.83 99.4994C143.936 99.25 143.98 98.9831 144.049 98.7221C144.145 98.3551 144.25 97.991 144.339 97.6221C144.454 97.1466 144.551 96.6744 144.676 96.2027C144.742 95.9534 144.834 95.6993 144.958 95.4743C145.001 95.3967 145.087 95.2657 145.1 95.1793C145.115 95.0833 145.16 94.9685 145.16 94.868" stroke="black" stroke-width="3" stroke-linecap="round"/>
<path d="M115.978 109.904C115.978 109.245 116.192 108.687 116.45 108.078C116.539 107.866 116.556 107.656 116.592 107.43C116.624 107.228 116.745 107.082 116.836 106.907C116.898 106.788 116.924 106.563 117.024 106.478C117.133 106.384 117.084 106.181 117.166 106.077C117.467 105.693 117.602 105.304 117.769 104.837C117.999 104.192 118.409 103.615 118.639 102.972C118.992 101.983 119.44 101.061 119.85 100.095C120.023 99.6858 120.14 99.2827 120.356 98.8892C120.563 98.5122 120.771 98.1758 121.004 97.8145C121.233 97.4595 121.515 97.1151 121.772 96.7795C121.896 96.6168 122.015 96.4427 122.147 96.2877C122.357 96.0406 122.605 95.8318 122.813 95.5854C123.177 95.1536 123.587 94.7747 124.103 94.4993C124.314 94.3869 124.538 94.2888 124.726 94.1382C124.894 94.0039 125.068 93.9904 125.241 93.8738C125.624 93.6151 126.039 93.4616 126.435 93.2312C126.677 93.0903 126.971 93.0389 127.208 92.8901C127.571 92.6623 128.001 92.5231 128.425 92.401C128.91 92.2613 129.378 91.9678 129.898 91.9404C130.829 91.8914 131.77 91.808 132.701 91.7869C132.967 91.7809 133.235 91.6921 133.503 91.6845C134.137 91.6667 134.765 91.6334 135.402 91.6334C135.848 91.6334 136.294 91.5822 136.744 91.5822C137.314 91.5822 137.816 91.9072 138.382 91.9404C138.777 91.9637 139.22 92.1857 139.61 92.2731C139.871 92.3316 140.131 92.4941 140.401 92.5034C140.606 92.5105 140.825 92.5403 141.026 92.583C141.212 92.6224 141.456 92.7469 141.629 92.7593C141.985 92.7847 142.269 92.8756 142.604 93.0095C142.747 93.0665 142.897 93.1606 143.05 93.1687C143.465 93.1905 143.806 93.7507 144.239 93.7828C144.43 93.797 144.683 93.9778 144.779 94.1411C144.876 94.3066 145.047 94.381 145.149 94.5505" stroke="black" stroke-width="3" stroke-linecap="round"/>
<path d="M129.745 110.226C129.745 110.146 129.817 110.056 129.847 109.983C129.902 109.849 129.961 109.707 130.061 109.602C130.168 109.489 130.234 109.353 130.364 109.256C130.48 109.17 130.583 109.08 130.691 108.982C130.826 108.859 130.95 108.719 131.092 108.605C131.223 108.499 131.342 108.304 131.427 108.161C131.482 108.069 131.526 107.971 131.589 107.884C131.658 107.79 131.683 107.681 131.763 107.595C131.886 107.462 131.987 107.287 132.097 107.141C132.208 106.993 132.321 106.84 132.411 106.677C132.496 106.523 132.584 106.358 132.69 106.218C132.83 106.033 133.041 105.816 133.092 105.589C133.12 105.462 133.219 105.325 133.276 105.208C133.348 105.06 133.421 104.926 133.474 104.769C133.525 104.614 133.58 104.464 133.625 104.305C133.662 104.18 133.729 104.069 133.76 103.945C133.807 103.757 133.917 103.594 133.964 103.405" stroke="black" stroke-linecap="round"/>
<path d="M129.69 110.059C129.69 109.987 129.666 109.969 129.634 109.91C129.55 109.757 129.487 109.586 129.415 109.427C129.366 109.319 129.343 109.2 129.291 109.092C129.242 108.991 129.212 108.863 129.151 108.77C129.112 108.712 129.033 108.602 128.979 108.564C128.924 108.524 128.808 108.412 128.783 108.345C128.738 108.224 128.653 108.14 128.597 108.023C128.521 107.862 128.486 107.684 128.416 107.521C128.331 107.322 128.314 107.102 128.212 106.908C128.147 106.785 128.135 106.635 128.073 106.511C127.997 106.36 127.921 106.216 127.833 106.072C127.758 105.949 127.766 105.775 127.737 105.638C127.714 105.529 127.643 105.446 127.599 105.348C127.556 105.254 127.522 105.164 127.479 105.071C127.435 104.975 127.386 104.882 127.348 104.781C127.327 104.727 127.273 104.652 127.273 104.595" stroke="black" stroke-linecap="round"/>
<path d="M127.338 104.893C127.324 104.779 127.198 104.72 127.192 104.601C127.188 104.517 127.192 104.431 127.192 104.347C127.192 104.095 127.192 103.843 127.192 103.591C127.192 103.406 127.192 103.221 127.192 103.037C127.192 102.689 127.127 102.285 127.21 101.951C127.264 101.738 127.265 101.454 127.265 101.235C127.265 101.137 127.338 101.061 127.338 100.978C127.338 100.846 127.368 100.671 127.403 100.542C127.453 100.351 127.52 100.102 127.52 99.9068C127.52 99.7951 127.656 99.7678 127.665 99.644C127.67 99.5749 127.704 99.5533 127.738 99.4984C127.798 99.4019 127.8 99.2852 127.831 99.179C127.897 98.9544 128.102 98.695 128.102 98.4653C128.102 98.3336 128.196 98.2578 128.248 98.1418C128.29 98.0467 128.383 97.8957 128.448 97.8163C128.529 97.7167 128.536 97.6394 128.595 97.5252C128.659 97.4044 128.813 97.2775 128.828 97.141C128.86 96.8497 129.146 96.6814 129.303 96.4577C129.41 96.3061 129.688 96.0924 129.703 95.9199C129.708 95.8641 129.815 95.7391 129.857 95.6934C129.945 95.5987 129.999 95.4917 130.096 95.4144C130.173 95.3528 130.182 95.2115 130.267 95.1354C130.33 95.0794 130.42 94.9665 130.433 94.8868C130.44 94.8436 130.56 94.7995 130.599 94.7735C130.806 94.6356 131.085 94.5223 131.195 94.3025" stroke="black" stroke-linecap="round"/>
<path d="M133.998 103.4C133.998 103.081 133.997 102.762 134.032 102.45C134.074 102.069 133.925 101.714 133.925 101.346C133.925 100.968 133.925 100.59 133.925 100.212C133.925 99.9996 133.93 99.808 133.86 99.6076C133.791 99.4077 133.814 99.2146 133.761 99.0152C133.703 98.7961 133.659 98.5604 133.63 98.3379C133.601 98.1243 133.548 97.8383 133.47 97.6364C133.425 97.5192 133.431 97.3885 133.379 97.2704C133.325 97.1484 133.372 97.0097 133.306 96.8944C133.258 96.8093 133.216 96.708 133.195 96.6134C133.156 96.4394 132.928 96.3342 132.861 96.1665C132.836 96.102 132.766 96.0094 132.724 95.9482C132.699 95.9125 132.604 95.7271 132.595 95.7217C132.425 95.6248 132.362 95.3101 132.251 95.1637C132.143 95.0216 131.982 94.903 131.885 94.7574C131.826 94.6686 131.758 94.5412 131.683 94.4662C131.62 94.4037 131.483 94.369 131.45 94.3025" stroke="black" stroke-linecap="round"/>
<path d="M129.631 106.676C129.631 105.928 129.649 105.185 129.696 104.44C129.727 103.945 129.74 103.443 129.74 102.948C129.74 102.843 129.675 102.563 129.813 102.563" stroke="black" stroke-width="3" stroke-linecap="round"/>
<path d="M129.558 105.111C129.175 105.076 128.947 104.536 128.85 104.203C128.738 103.819 128.83 103.311 128.83 102.911C128.83 102.537 128.793 102.167 128.793 101.791C128.793 101.394 128.776 100.992 128.866 100.602C128.919 100.376 129.009 100.178 129.048 99.9432" stroke="black" stroke-width="3" stroke-linecap="round"/>
<path d="M130.868 106.93C130.868 106.547 130.859 106.223 130.994 105.857C131.017 105.793 131.036 105.708 131.048 105.641C131.069 105.524 131.149 105.453 131.204 105.349C131.345 105.084 131.439 104.735 131.451 104.432C131.473 103.867 131.785 103.409 131.812 102.851C131.851 102.079 131.815 101.297 131.815 100.525" stroke="black" stroke-width="3" stroke-linecap="round"/>
<path d="M132.069 103.874C132.069 103.322 132.142 102.802 132.142 102.25C132.142 101.34 132.027 100.437 131.741 99.5793" stroke="black" stroke-width="3" stroke-linecap="round"/>
<path d="M131.123 101.654C130.984 101.479 131.012 101.169 130.959 100.96C130.886 100.666 130.851 100.364 130.8 100.071C130.735 99.6977 130.835 99.3081 130.759 98.9323C130.74 98.8393 130.644 98.3373 130.731 98.2409C130.84 98.1199 130.905 97.8424 130.905 97.6687C130.905 97.4923 131.014 97.3449 131.014 97.1633C131.014 96.8487 131.196 96.6044 131.196 96.304" stroke="black" stroke-width="3" stroke-linecap="round"/>
<path d="M131.269 97.0319C131.269 97.4093 131.267 97.7544 131.341 98.1236C131.365 98.2391 131.38 98.3777 131.422 98.4875C131.47 98.6139 131.577 98.7742 131.594 98.904C131.629 99.1625 131.668 99.4167 131.723 99.6703C131.749 99.7866 131.75 99.9069 131.798 100.018C131.859 100.158 131.863 100.047 131.96 100.052C132.05 100.058 132.069 100.613 132.069 100.424C132.069 99.9727 132.106 99.5306 132.106 99.0779C132.106 98.9313 132.126 98.7621 132.104 98.6149C132.092 98.5387 132.033 98.4728 132.033 98.3966C132.033 98.3104 131.947 98.2381 131.924 98.156C131.889 98.0354 131.849 97.9167 131.814 97.7961" stroke="black" stroke-width="3" stroke-linecap="round"/>
<path d="M130.067 99.6885C130.067 99.4174 130.028 99.1873 129.95 98.9323C129.9 98.7702 129.883 98.4914 129.976 98.342C130.05 98.2235 130.016 98.0365 130.103 97.9053" stroke="black" stroke-width="3" stroke-linecap="round"/>
<path d="M129.777 108.823C129.738 109.173 129.74 108.12 129.74 107.768" stroke="black" stroke-linecap="round"/>
<path d="M145.09 94.0188C145.005 94.0082 145.081 93.9666 145.13 93.9684C145.223 93.972 145.272 94.0693 145.368 94.0693C145.505 94.0693 145.646 94.1197 145.796 94.1197" stroke="black" stroke-width="3" stroke-linecap="round"/>
<path d="M129.703 107.367C129.851 107.367 129.812 107.009 129.812 107.331" stroke="black" stroke-width="3" stroke-linecap="round"/>
<path d="M104.056 140.448C104.056 140.15 104.197 139.958 104.407 139.756C104.582 139.587 104.708 139.601 104.936 139.601C105.21 139.601 105.429 139.595 105.685 139.47C105.887 139.372 106.076 139.315 106.272 139.195C106.351 139.146 106.564 139.065 106.598 138.981C106.657 138.833 106.855 138.757 106.955 138.641C107.051 138.529 107.199 138.462 107.322 138.369C107.382 138.325 107.518 138.259 107.594 138.232C107.772 138.167 107.933 137.926 108.065 137.793C108.254 137.604 108.429 137.413 108.635 137.239C108.799 137.101 109.049 137.077 109.222 136.942C109.37 136.827 109.467 136.641 109.615 136.52C109.688 136.461 109.787 136.423 109.832 136.341C109.901 136.217 110.111 136.207 110.198 136.097C110.309 135.956 110.51 135.846 110.673 135.747C110.703 135.728 110.855 135.605 110.868 135.575C110.894 135.516 110.99 135.464 111.031 135.403C111.079 135.333 111.155 135.272 111.21 135.198C111.261 135.13 111.308 135.024 111.373 134.972C111.517 134.857 111.644 134.785 111.812 134.691C111.906 134.638 112.025 134.495 112.107 134.418C112.167 134.361 112.279 134.26 112.302 134.19" stroke="black" stroke-linecap="round"/>
<path d="M112.457 133.914C112.532 133.91 112.571 133.746 112.574 133.68C112.584 133.509 112.632 133.362 112.705 133.212C112.765 133.087 112.85 132.75 112.991 132.692C113.079 132.655 113.127 132.471 113.217 132.421C113.32 132.364 113.358 132.237 113.441 132.146C113.505 132.074 113.54 131.952 113.586 131.865C113.648 131.747 113.697 131.642 113.742 131.516C113.775 131.427 113.796 131.327 113.816 131.234C113.838 131.138 113.939 131.051 113.957 130.943C113.991 130.74 114.041 130.518 114.097 130.322C114.109 130.281 114.141 130.28 114.143 130.221C114.146 130.145 114.19 130.082 114.19 130.006C114.19 129.861 114.176 129.725 114.234 129.595C114.276 129.501 114.21 129.367 114.248 129.267C114.374 128.941 114.307 128.519 114.307 128.174C114.307 128.09 114.307 128.006 114.307 127.921C114.307 127.839 114.263 127.753 114.26 127.669C114.252 127.454 114.237 127.238 114.237 127.019C114.237 126.896 114.251 126.799 114.166 126.704C114.102 126.631 114.126 126.501 114.067 126.428C114.045 126.401 114.049 126.378 114.049 126.341C114.049 126.303 113.997 126.26 113.979 126.223C113.926 126.116 113.866 126.071 113.837 125.941C113.793 125.74 113.693 125.555 113.651 125.352C113.639 125.291 113.619 125.131 113.568 125.088C113.476 125.008 113.386 124.916 113.278 124.846C113.091 124.724 112.937 124.548 112.773 124.394C112.693 124.319 112.652 124.217 112.574 124.139C112.532 124.097 112.472 124.073 112.424 124.037C112.264 123.915 112.082 123.76 111.979 123.591C111.91 123.477 111.804 123.437 111.685 123.39C111.61 123.361 111.544 123.331 111.466 123.305C111.391 123.279 111.184 123.268 111.146 123.193" stroke="black" stroke-linecap="round"/>
<path d="M103.828 125.035C103.828 124.955 103.879 124.88 103.913 124.811C103.941 124.753 103.945 124.683 103.984 124.632C104.014 124.592 104.04 124.556 104.068 124.516C104.148 124.401 104.255 124.297 104.345 124.189C104.412 124.108 104.495 124.029 104.576 123.963C104.614 123.932 104.657 123.916 104.692 123.881C104.739 123.834 104.795 123.815 104.848 123.776C104.965 123.69 105.101 123.625 105.225 123.547C105.42 123.425 105.597 123.271 105.787 123.14C106.058 122.954 106.382 122.841 106.678 122.714C106.713 122.698 106.763 122.708 106.8 122.707C106.882 122.703 106.961 122.683 107.043 122.68C107.135 122.676 107.222 122.68 107.313 122.665C107.666 122.606 108.027 122.594 108.378 122.527C108.546 122.495 108.738 122.524 108.91 122.524C109.165 122.524 109.42 122.524 109.675 122.524C109.799 122.524 109.92 122.519 110.042 122.545C110.153 122.569 110.271 122.567 110.369 122.632C110.57 122.765 110.804 122.824 111.013 122.941C111.084 122.98 111.148 123.006 111.209 123.062C111.317 123.161 111.395 123.299 111.506 123.391C111.546 123.425 111.565 123.452 111.608 123.476C111.646 123.497 111.687 123.512 111.728 123.526" stroke="black" stroke-linecap="round"/>
<path d="M103.41 125.298C103.471 125.207 103.098 124.986 103.002 124.957C102.908 124.928 102.839 124.791 102.759 124.732C102.687 124.68 102.656 124.609 102.591 124.55C102.468 124.439 102.262 124.36 102.121 124.262C101.973 124.158 101.841 124.063 101.702 123.953C101.612 123.881 101.542 123.79 101.464 123.707C101.305 123.538 101.113 123.403 100.931 123.261C100.873 123.215 100.782 123.187 100.715 123.157C100.676 123.139 100.635 123.146 100.593 123.144C100.524 123.141 100.54 123.098 100.493 123.071C100.316 122.967 100.107 122.96 99.9038 122.96C99.713 122.96 99.5838 122.81 99.4046 122.778C99.189 122.738 98.9824 122.643 98.7565 122.624C98.3559 122.591 97.9496 122.645 97.5509 122.645C97.4375 122.645 97.3242 122.645 97.2108 122.645C97.1536 122.645 96.9706 122.617 96.9218 122.658C96.8786 122.694 96.7893 122.681 96.7364 122.703C96.6735 122.73 96.5733 122.817 96.5102 122.827C96.3432 122.853 96.1687 122.796 96.0212 122.896C95.935 122.954 95.8149 123.007 95.7176 123.045C95.6138 123.085 95.5718 123.176 95.4899 123.223C95.3914 123.279 95.2995 123.369 95.2126 123.448C95.1865 123.471 95.1382 123.457 95.1061 123.475C95.0164 123.526 94.9235 123.566 94.8331 123.615C94.7577 123.657 94.6699 123.701 94.5923 123.725C94.4778 123.76 94.3889 123.894 94.2872 123.958C94.1561 124.041 94.0809 124.145 93.9632 124.242C93.8034 124.373 93.7411 124.569 93.518 124.668C93.3297 124.751 93.3187 124.992 93.229 125.154C93.1784 125.245 93.0959 125.314 93.032 125.398C93.0059 125.431 92.9511 125.426 92.9327 125.468C92.909 125.521 92.9269 125.539 92.886 125.587C92.7907 125.701 92.8278 125.879 92.743 126.014C92.6807 126.112 92.6017 126.223 92.5839 126.339C92.578 126.377 92.5128 126.596 92.4919 126.613C92.3583 126.728 92.4026 126.979 92.3109 127.123C92.2739 127.181 92.2724 127.354 92.27 127.421C92.2659 127.538 92.249 127.66 92.2175 127.774C92.0895 128.238 92.0861 128.723 92.0861 129.204C92.0861 129.329 92.0378 129.505 92.0015 129.627C91.9751 129.717 91.981 129.804 91.981 129.898C91.981 130.037 91.981 130.177 91.981 130.316C91.981 130.495 92.0088 130.632 92.054 130.804C92.1151 131.036 92.0928 131.299 92.1387 131.537C92.1864 131.784 92.1885 132.116 92.3635 132.316C92.4014 132.359 92.3862 132.42 92.4277 132.458C92.4795 132.504 92.4998 132.579 92.5211 132.643C92.6158 132.927 92.7866 133.169 92.8875 133.449C92.9439 133.605 92.9843 133.837 93.1108 133.957C93.194 134.035 93.3407 134.126 93.4406 134.184C93.5616 134.254 93.6894 134.37 93.8012 134.459C94.0551 134.66 94.2457 134.903 94.4536 135.149C94.4948 135.198 94.5303 135.257 94.5806 135.295C94.7153 135.396 94.823 135.516 94.9353 135.641C95.0837 135.807 95.19 135.783 95.3177 135.624" stroke="black" stroke-linecap="round"/>
<path d="M95.1074 135.335C95.1074 135.512 95.3548 135.676 95.5015 135.761C95.7187 135.886 95.8982 136.07 96.1116 136.196C96.5066 136.429 96.7701 136.813 97.0925 137.136C97.1764 137.22 97.3476 137.436 97.4661 137.463C97.5249 137.476 97.6282 137.539 97.6676 137.585C97.7903 137.731 97.9214 137.773 98.05 137.895C98.1454 137.985 98.2748 138.036 98.3769 138.119C98.5664 138.275 98.7743 138.411 98.9578 138.581C99.0045 138.624 99.0892 138.702 99.1432 138.725C99.3035 138.795 99.4556 138.956 99.5621 139.092C99.6237 139.17 99.7387 139.243 99.8176 139.303C99.8933 139.361 100.021 139.453 100.111 139.486C100.233 139.53 100.333 139.663 100.435 139.741C100.626 139.888 100.817 140.079 101.041 140.176C101.129 140.214 101.177 140.251 101.26 140.3C101.332 140.343 101.419 140.366 101.486 140.417C101.526 140.448 101.555 140.499 101.608 140.509C101.789 140.542 101.858 140.728 102.007 140.812C102.197 140.92 102.372 141.028 102.569 141.126C102.749 141.216 102.93 141.329 103.124 141.415C103.266 141.479 103.415 141.449 103.566 141.459C103.709 141.469 103.798 141.561 103.935 141.561" stroke="black" stroke-linecap="round"/>
<path d="M110.424 136.018C110.327 136.054 110.2 136.153 110.15 136.254C110.12 136.314 110.062 136.342 110.03 136.397C110.018 136.419 109.984 136.411 109.965 136.426C109.929 136.454 109.939 136.489 109.914 136.517C109.842 136.596 109.731 136.743 109.63 136.785C109.552 136.818 109.515 136.843 109.465 136.909C109.36 137.05 109.182 137.16 109.045 137.267C108.927 137.359 108.721 137.479 108.644 137.606C108.602 137.674 108.522 137.697 108.48 137.757C108.414 137.855 108.343 137.869 108.26 137.959C108.227 137.994 108.209 137.982 108.166 137.99C108.133 137.995 108.111 138.044 108.086 138.065C108.016 138.125 107.903 138.135 107.829 138.204C107.732 138.294 107.61 138.338 107.514 138.414C107.353 138.543 107.162 138.644 107.002 138.776C106.918 138.845 106.844 138.979 106.775 139.062C106.743 139.102 106.683 139.218 106.641 139.243C106.584 139.277 106.575 139.311 106.53 139.348C106.452 139.413 106.312 139.443 106.222 139.51C106.165 139.553 106.129 139.597 106.078 139.643C106.006 139.708 105.92 139.739 105.838 139.786C105.793 139.812 105.794 139.88 105.735 139.88C105.686 139.88 105.581 139.978 105.539 140.01C105.476 140.057 105.392 140.06 105.327 140.096C105.248 140.14 105.184 140.257 105.091 140.306C105.01 140.348 104.97 140.397 104.894 140.446C104.82 140.494 104.738 140.604 104.655 140.617C104.553 140.632 104.498 140.705 104.434 140.773C104.376 140.834 104.265 140.874 104.224 140.945C104.179 141.023 104.042 141.058 103.969 141.1C103.895 141.141 103.849 141.21 103.777 141.246" stroke="black" stroke-linecap="round"/>
<path d="M103.398 137.759C103.226 137.759 102.899 137.214 102.766 137.082C102.661 136.977 102.584 136.869 102.499 136.748C102.332 136.513 102.038 136.331 101.819 136.145C101.534 135.902 101.296 135.69 101.014 135.452C100.55 135.059 99.9223 134.882 99.4478 134.502C99.2721 134.361 99.0212 134.279 98.8137 134.194C98.4756 134.056 98.0669 133.841 97.7849 133.611C97.4825 133.363 97.2011 133.094 96.8936 132.854C96.7143 132.715 96.4209 132.396 96.178 132.396C95.9708 132.396 95.7583 132.28 95.5949 132.167C95.424 132.049 95.2761 131.953 95.1467 131.79C94.9627 131.558 94.6663 131.502 94.5304 131.23C94.3422 130.853 94.3782 130.38 94.3114 129.972C94.2592 129.653 94.2758 129.329 94.2758 129.007C94.2758 128.536 94.188 127.987 94.3903 127.56C94.4871 127.356 94.6539 127.193 94.752 127.007C94.8519 126.819 95.0161 126.741 95.1008 126.529" stroke="black" stroke-width="5" stroke-linecap="round"/>
<path d="M96.6143 129.875C96.6274 129.73 96.7102 129.519 96.8434 129.452C96.9993 129.374 97.1641 129.443 97.3095 129.516C97.705 129.714 98.1118 129.901 98.4987 130.114C98.8673 130.318 99.2323 130.491 99.6141 130.667C100.133 130.906 100.533 131.287 100.989 131.622C101.246 131.81 101.565 132.048 101.565 132.396" stroke="black" stroke-width="5" stroke-linecap="round"/>
<path d="M103.352 138.126C103.242 138.004 103.18 137.8 103.108 137.657C103.056 137.556 102.671 136.618 102.499 136.618C102.358 136.618 102.153 136.659 102.033 136.73C101.916 136.799 101.749 136.716 101.628 136.707C101.155 136.672 100.864 136.468 100.536 136.139C100.433 136.036 100.228 135.94 100.098 135.87C99.9161 135.77 99.7453 135.65 99.5706 135.538C99.2431 135.33 98.8691 135.14 98.5851 134.871C98.2388 134.544 97.7838 134.35 97.4137 134.056C97.2624 133.936 97.0002 133.761 96.8891 133.598C96.8492 133.539 96.7786 133.342 96.7236 133.318C96.6189 133.271 96.5187 133.256 96.4766 133.129" stroke="black" stroke-width="5" stroke-linecap="round"/>
<path d="M101.427 137.347C101.493 137.371 101.556 137.536 101.656 137.586C101.75 137.633 101.775 137.667 101.885 137.667" stroke="black" stroke-width="5" stroke-linecap="round"/>
<path d="M104.406 137.897C104.323 137.739 104.255 137.612 104.406 137.482C104.469 137.427 104.584 137.385 104.63 137.321C104.679 137.255 104.691 137.168 104.773 137.128C104.998 137.015 105.235 136.919 105.461 136.794C105.627 136.701 105.813 136.479 105.955 136.348C106.074 136.238 106.226 136.152 106.334 136.033C106.518 135.831 106.771 135.75 106.963 135.533C107.237 135.225 107.606 135.013 107.89 134.729C108.269 134.35 108.839 134.048 109.107 133.565C109.344 133.139 109.79 132.9 110.126 132.569C110.211 132.486 110.307 132.268 110.393 132.21C110.792 131.945 110.881 131.368 111.073 130.955C111.288 130.496 111.557 129.979 111.557 129.462" stroke="black" stroke-width="5" stroke-linecap="round"/>
<path d="M111.511 128.591C111.511 128.349 111.584 128.179 111.501 127.94C111.428 127.73 111.252 127.178 111.029 127.079C110.914 127.028 110.824 126.825 110.732 126.732C110.586 126.587 110.445 126.44 110.296 126.3C110.188 126.197 110.062 126.045 109.978 125.923C109.925 125.847 109.783 125.667 109.703 125.622C109.481 125.499 109.348 125.383 109.071 125.383C108.812 125.383 108.593 125.245 108.322 125.245C108.08 125.245 107.837 125.245 107.594 125.245C107.478 125.245 107.307 125.452 107.202 125.51C107.088 125.573 107.064 125.673 107.064 125.795" stroke="black" stroke-width="5" stroke-linecap="round"/>
<path d="M111.465 126.804C111.338 126.689 111.082 126.685 110.915 126.666C110.732 126.646 110.618 126.529 110.411 126.529" stroke="black" stroke-width="5" stroke-linecap="round"/>
<path d="M108.578 128.454C108.554 128.88 108.234 129.167 107.898 129.376C106.861 130.021 105.963 130.68 105.247 131.701C104.952 132.122 104.703 132.574 104.524 133.056C104.446 133.264 104.383 133.482 104.279 133.679C104.052 134.113 104.086 133.658 104.086 133.404" stroke="black" stroke-width="5" stroke-linecap="round"/>
<path d="M104.36 131.342C103.855 131.342 103.346 131.361 102.842 131.332C102.466 131.31 102.379 131.257 102.145 131.006C101.671 130.499 101.37 129.967 100.754 129.595C100.488 129.434 100.336 129.316 100.036 129.213C99.4918 129.026 98.9309 128.816 98.4877 128.439C98.247 128.234 98.055 127.96 97.8511 127.721C97.6848 127.525 97.6611 127.116 97.5658 126.88C97.4587 126.614 97.4188 126.301 97.301 126.045C97.2479 125.929 97.2136 125.757 97.1533 125.658C97.1232 125.608 96.8942 125.534 97.0616 125.52C97.1531 125.513 97.2296 125.474 97.3265 125.474C97.442 125.474 97.6327 125.44 97.7365 125.497C97.8431 125.557 97.9613 125.571 98.0752 125.612C98.1818 125.65 98.2877 125.766 98.3808 125.793C98.5566 125.843 98.6583 126.019 98.8417 126.075C99.1344 126.165 99.3899 126.368 99.6184 126.534C99.7853 126.655 99.9702 126.748 100.13 126.878C100.308 127.022 100.559 127.082 100.719 127.242C101.101 127.624 101.701 127.759 102.142 128.064C102.288 128.165 102.394 128.293 102.527 128.411C102.689 128.555 102.896 128.652 103.079 128.77C103.632 129.125 104.428 129.105 105.048 129.141" stroke="black" stroke-width="5" stroke-linecap="round"/>
<path d="M98.8145 124.649C99.146 124.649 99.173 124.917 99.4129 125.082C99.6107 125.218 99.8362 125.296 100.027 125.452C100.235 125.622 100.353 125.872 100.541 126.06C100.995 126.514 101.466 126.668 102.021 126.941C102.43 127.143 102.901 127.227 103.327 127.397C103.655 127.528 103.981 127.609 104.315 127.721" stroke="black" stroke-width="5" stroke-linecap="round"/>
<path d="M105.598 126.254C105.598 126.198 105.415 126.139 105.369 126.07" stroke="black" stroke-width="5" stroke-linecap="round"/>
<path d="M73.4697 142.094C73.4697 142.363 73.577 142.703 73.714 142.929C73.9318 143.288 73.9224 143.715 74.0371 144.127C74.158 144.561 74.2217 145.014 74.3523 145.443C74.3976 145.592 74.5173 145.767 74.5336 145.908C74.5883 146.383 74.8667 146.804 74.8882 147.287C74.9115 147.811 75.2211 148.277 75.3689 148.761C75.4715 149.096 75.5541 149.428 75.6841 149.753C75.8582 150.189 75.947 150.702 76.2909 151.046C76.6155 151.37 77.0562 151.568 77.469 151.767C77.6679 151.863 77.913 151.931 78.0955 152.055C78.318 152.206 78.6195 152.286 78.8165 152.449C78.9868 152.589 79.1834 152.624 79.3564 152.748C79.5696 152.9 79.7613 153.08 80.0183 153.154C80.3469 153.248 80.5875 153.675 80.9206 153.8C81.2524 153.924 81.7103 154.227 81.949 154.466C82.2738 154.791 82.9061 154.975 83.3359 155.112C83.7373 155.24 84.0642 155.39 84.4865 155.459C84.8195 155.513 85.1728 155.674 85.4912 155.707C85.7092 155.73 85.9313 155.766 86.1492 155.782C86.3148 155.794 86.3494 155.924 86.5511 155.924C87.1533 155.924 87.7493 155.995 88.3557 155.995C89.191 155.995 90.0264 155.995 90.8617 155.995C91.4317 155.995 92.0017 155.995 92.5717 155.995C92.8336 155.995 93.0097 155.735 93.2573 155.711C93.6421 155.674 93.9038 155.435 94.2345 155.215C94.6094 154.965 95.1039 154.876 95.4402 154.592C95.8806 154.22 96.6363 154.282 97.0162 153.812C97.1478 153.649 97.4163 153.518 97.5836 153.374C97.7517 153.23 97.9192 153.074 98.0486 152.89C98.2888 152.548 98.621 152.316 98.8996 152.023C98.9616 151.958 98.9526 151.854 99.0178 151.787C99.1545 151.645 99.3523 151.521 99.5025 151.389C99.7762 151.147 100.021 151.134 100.07 150.77C100.1 150.545 100.216 150.35 100.263 150.132C100.323 149.85 100.332 149.555 100.456 149.292C100.63 148.925 101.003 148.305 101.343 148.087C101.546 147.956 101.682 147.597 101.768 147.381C101.855 147.165 101.9 146.926 102.012 146.72C102.112 146.538 102.273 146.389 102.328 146.184C102.431 145.798 102.69 145.464 102.69 145.041C102.69 144.624 102.726 144.179 102.867 143.784C103.018 143.363 102.9 142.955 103.116 142.523C103.403 141.948 103.328 141.169 103.328 140.533" stroke="black" stroke-width="3" stroke-linecap="round"/>
<path d="M103.222 141.184C103.222 142.398 103.256 143.625 103.766 144.746C103.94 145.129 103.975 145.788 103.975 146.205C103.975 146.627 104.179 147.366 104.44 147.698C104.579 147.874 104.963 148.354 104.979 148.567C104.996 148.781 105.218 149.572 105.351 149.72C105.466 149.849 105.541 149.788 105.607 149.971C105.66 150.121 105.712 150.24 105.821 150.357C106.098 150.658 106.46 150.911 106.718 151.227C106.949 151.51 107.383 151.851 107.708 152.026C108.086 152.23 108.448 152.619 108.843 152.738C109.053 152.801 109.237 153.045 109.433 153.068C109.873 153.119 110.329 153.553 110.726 153.737C111.572 154.131 112.514 154.413 113.311 154.909C113.642 155.115 113.977 155.302 114.315 155.495C114.612 155.665 115.149 155.619 115.482 155.658C116.493 155.777 117.539 155.767 118.551 155.834C119.318 155.885 120.332 156.117 121.085 155.876C121.787 155.652 122.479 155.463 123.195 155.281C125.161 154.782 126.722 153.745 128.287 152.529C129.017 151.96 129.719 151.49 130.044 150.553C130.135 150.291 130.276 150.12 130.421 149.888C130.724 149.402 130.862 148.849 131.211 148.381C131.723 147.695 132.316 147.065 132.68 146.298C132.831 145.981 133.015 145.313 133.015 144.959C133.015 144.602 133.256 144.265 133.35 143.937C133.465 143.534 133.443 143.117 133.536 142.709C133.618 142.346 133.684 142.058 133.684 141.686" stroke="black" stroke-width="3" stroke-linecap="round"/>
<path d="M103.26 140.005C103.167 140.11 103.118 140.338 103.123 140.474C103.126 140.544 103.466 140.64 103.159 140.545C102.999 140.496 102.776 140.337 102.619 140.326C102.495 140.318 102.858 140.388 102.978 140.418C103.054 140.437 103.21 140.574 103.26 140.637C103.426 140.843 103.429 140.85 103.5 140.611C103.547 140.451 103.668 140.172 103.525 140.015C103.388 139.864 102.77 140.747 102.563 140.739C102.417 140.733 102.298 140.457 102.298 140.326" stroke="black" stroke-linecap="round"/>
<path d="M102.802 132.809C102.877 132.809 103.05 132.944 103.077 133.017C103.162 133.253 103.123 133.524 103.123 133.771" stroke="black" stroke-width="5" stroke-linecap="round"/>
<path d="M95.6029 135.384C95.6029 135.456 95.6592 135.466 95.6624 135.523C95.6674 135.614 95.6602 135.609 95.7175 135.666C95.7824 135.731 95.6832 135.721 95.6425 135.721C95.5725 135.721 95.4971 135.666 95.4441 135.621C95.3513 135.541 95.4 135.599 95.4243 135.654C95.4553 135.724 95.5122 135.714 95.5731 135.741C95.5989 135.753 95.712 135.82 95.6525 135.82C95.597 135.82 95.5359 135.809 95.5037 135.761" stroke="black" stroke-linecap="round"/>
<path d="M95.2461 135.483C95.281 135.488 95.2963 135.535 95.3056 135.563" stroke="black" stroke-linecap="round"/>
<path d="M114.332 128.591C114.332 128.365 114.356 128.137 114.356 127.908C114.356 127.717 114.383 127.606 114.258 127.459" stroke="black" stroke-linecap="round"/>
<path d="M113.421 131.84C113.541 131.611 113.666 131.39 113.765 131.151" stroke="black" stroke-linecap="round"/>
<path d="M113.076 132.923C113.102 132.757 113.191 132.603 113.243 132.445C113.305 132.252 113.362 132.058 113.421 131.865" stroke="black" stroke-linecap="round"/>
<path d="M113.175 132.849C113.134 132.857 113.093 132.89 113.076 132.923" stroke="black" stroke-linecap="round"/>
<path d="M112.534 133.588C112.609 133.504 112.685 133.421 112.75 133.331C112.821 133.232 112.977 133.043 112.977 132.923" stroke="black" stroke-linecap="round"/>
<line x1="21.6246" y1="150.01" x2="76.6827" y2="135.225" stroke="black" stroke-width="3"/>
<line x1="130.403" y1="136.225" x2="185.461" y2="151.008" stroke="black" stroke-width="3"/>
<line x1="21.4083" y1="111.226" x2="76.4083" y2="126.226" stroke="black" stroke-width="3"/>
<line x1="130.619" y1="127.231" x2="185.618" y2="112.226" stroke="black" stroke-width="3"/>
<line x1="19.0248" y1="131.173" x2="76.032" y2="131.598" stroke="black" stroke-width="3"/>
<line x1="131.025" y1="131.173" x2="188.032" y2="131.598" stroke="black" stroke-width="3"/>
</svg>
