<svg width="361" height="66" viewBox="0 0 361 66" fill="none" xmlns="http://www.w3.org/2000/svg">
<g clip-path="url(#clip0_15_833)">
<path d="M245.323 84.4214C245.22 84.6285 245.222 84.8479 245.453 84.9618C245.777 85.1224 245.765 84.6761 245.931 84.4928C246.056 84.3554 246.667 85.8042 246.755 86.0026C246.935 86.409 248.034 86.7141 248.382 86.8863C248.856 87.1205 249.414 87.6722 249.62 86.9513C249.746 86.5137 249.056 85.6701 248.642 85.5943C248.027 85.4819 249.434 86.5617 249.829 87.0458C250.46 87.8181 251.723 88.2198 252.592 88.6492C253.047 88.8742 255.483 88.5732 254.943 87.9241C254.533 87.4308 253.755 87.0016 253.177 86.7157C253.039 86.6478 253.391 86.9477 253.44 87.0929C253.534 87.3688 253.487 87.4705 253.743 87.6396C254.131 87.8959 254.323 88.4256 254.703 88.7315C254.957 88.9361 255.369 89.2281 255.657 89.3707C256.055 89.5675 255.619 89.1805 255.755 89.0308C255.882 88.8909 256.701 88.9723 256.886 88.9549C257.348 88.9112 257.825 89.0734 258.272 89.0051C258.85 88.9167 259.488 88.8283 260.068 88.9403C260.728 89.0676 261.355 88.8527 261.951 89.1473C262.385 89.3619 263.265 89.2018 263.783 89.2592C263.868 89.2685 264.468 89.004 264.591 88.9443C265.055 88.7199 265.048 88.9502 264.727 88.5264C264.146 87.7592 263.323 86.5085 262.228 87.141C261.355 87.6451 259.985 87.6457 258.963 87.6086C257.291 87.5481 255.582 87.4218 253.935 87.0906C253.443 86.9916 252.703 87.1168 253.484 87.5029C253.992 87.754 254.5 88.0051 255.009 88.2562C256.784 89.1337 258.549 89.0118 260.398 89.112C260.636 89.1249 260.868 89.323 261.103 89.275C261.359 89.2224 261.558 89.1592 261.82 89.2505C262.107 89.3502 262.785 89.6562 263.07 89.6125C263.673 89.5204 264.413 89.8568 264.973 89.6179C265.229 89.5086 265.61 89.3304 265.884 89.2743C266.526 89.1428 267.463 89.6099 268.033 89.2255C268.295 89.0491 268.788 89.1858 269.114 88.966C269.514 88.6971 269.842 89.047 270.235 88.9467C270.895 88.7786 271.425 88.4247 271.986 88.1536C272.713 87.8017 273.109 87.2978 273.987 87.4584C274.264 87.5089 274.855 87.2452 275.15 87.1772C275.379 87.1244 275.921 87.1747 276.072 87.0775C276.558 86.7652 277.64 86.5173 278.174 86.6789C278.258 86.7041 279.005 86.4588 279.096 86.4201C279.657 86.1809 280.476 86.3008 281.1 86.2199C281.576 86.1582 281.982 85.9906 282.443 85.9308C282.66 85.9026 282.73 85.6918 282.919 85.6281C283.109 85.5636 283.299 85.7024 283.484 85.5724C284.135 85.1153 285.253 85.3036 285.863 84.6315C286.379 84.0641 287.279 83.9078 287.838 83.3671C288.154 83.0611 288.467 83.1421 288.887 83.0122C289.286 82.8884 289.517 82.5865 289.895 82.417C290.194 82.2833 290.526 82.2796 290.817 82.1405C291.691 81.7226 292.661 81.2733 293.619 80.9854C294.435 80.7403 295.345 80.4277 296.115 80.0934C296.393 79.9728 296.955 79.7304 297.249 79.7629C297.612 79.8031 298.59 79.6894 298.928 79.543C299.222 79.4154 299.346 79.1426 299.668 79.0446C300.004 78.9422 300.329 78.8436 300.667 78.7535C301.071 78.6464 301.522 78.5347 301.918 78.5073C302.527 78.4652 304.555 78.3592 302.785 78.6625C302.239 78.7561 301.493 78.503 301.043 78.9569C300.516 79.4885 298.348 80.2579 299.011 79.9104C300.209 79.282 301.108 78.5481 302.554 78.3453C303.202 78.2544 304.275 78.0808 304.933 78.1717C305.837 78.2966 306.742 78.01 307.63 77.979C308.639 77.9438 309.797 77.5325 310.787 77.7134C311.458 77.8362 312.064 77.8773 312.765 77.9059C313.658 77.9424 314.182 78.1302 314.995 78.5322C315.593 78.8275 316.33 78.7158 316.978 79.0359C317.956 79.5194 318.934 80.0029 319.913 80.4864C321.809 81.4239 324.074 82.2369 325.698 83.593C326.068 83.9022 326.958 84.2412 327.09 84.7571C327.208 85.2205 327.731 85.7408 327.994 86.1392C328.458 86.8419 328.811 87.5178 329.361 88.1557C329.749 88.6049 330.931 90.1462 330.7 90.9078C330.607 91.2146 330.464 91.5083 330.143 91.2498C329.893 91.0489 329.987 90.7052 329.705 90.5658C329.692 90.5594 330.061 91.218 330.097 91.3243C330.362 92.1067 330.271 92.9864 330.31 93.8022C330.325 94.1073 330.067 94.4549 329.936 94.7198C329.777 95.0418 329.948 95.4565 329.884 95.8057C329.827 96.1183 330.045 96.5689 329.95 96.9582C329.867 97.2942 329.846 97.643 329.763 97.9775C329.567 98.7771 329.387 99.3643 329.003 100.142C328.669 100.817 329.026 101.725 328.56 102.304C328.336 102.583 327.955 102.75 327.682 102.973C327.396 103.207 327.273 103.641 327.11 103.969C326.742 104.715 325.859 105.216 325.468 106.007C325.08 106.792 324.603 107.437 324.206 108.24C323.924 108.81 323.563 110.097 322.875 110.291C322.665 110.349 322.006 111.773 322.161 111.913C322.442 112.169 322.256 112.507 322.539 112.736C322.794 112.94 323.207 113.233 323.494 113.375C323.758 113.506 324.087 113.586 324.35 113.41C324.484 113.319 324.707 113.379 324.862 113.319C325.069 113.24 325.155 112.872 325.344 112.861C325.916 112.826 326.142 112.282 326.696 112.179C327.054 112.112 327.915 111.696 328.146 111.476C328.637 111.006 329.383 110.976 329.824 110.382C330.337 109.692 330.716 109.074 331.35 108.491C331.712 108.157 331.943 108.327 332.189 107.829C332.311 107.581 332.645 107.15 332.871 107.02C333.107 106.883 333.34 106.312 333.56 106.09C333.834 105.813 333.952 105.347 334.263 105.167C335.026 104.726 335.485 102.261 335.597 101.646C335.762 100.748 335.452 99.9423 335.89 99.0563C336.207 98.4142 335.997 97.6177 336.29 96.961C336.998 95.3792 335.768 93.6545 335.632 92.1901C335.492 90.6799 334.596 89.0236 334.14 87.6776C333.953 87.1239 333.583 86.0859 333.183 85.6522C332.946 85.3946 332.861 85.1003 332.741 84.7984C332.649 84.5686 332.105 84.1868 331.945 84.017C331.528 83.5742 330.944 83.1669 330.63 82.6439C329.83 81.3108 328.769 80.3081 327.342 79.5542C326.608 79.1667 326.012 78.9629 325.666 78.1615C325.462 77.6881 323.713 77.1258 323.256 76.8995C322.302 76.428 321.413 76.3492 320.36 76.2621C320.013 76.2334 319.58 76.3305 319.249 76.1894C318.72 75.9632 319.052 76.1945 319.277 76.1327C319.446 76.0865 320.156 76.2084 319.842 75.8826C319.639 75.672 319.252 75.5558 318.991 75.4268C318.225 75.0482 317.629 74.6618 316.81 74.7012C315.315 74.7731 313.562 75.0317 312.176 74.4396C311.797 74.278 311.506 74.4539 311.158 74.5715C310.85 74.6757 310.28 74.5535 309.913 74.5914C309.495 74.6345 309.026 74.5437 308.626 74.5549C308.139 74.5684 307.621 74.5666 307.091 74.5902C306.678 74.6086 306.398 74.8772 305.974 74.7085C305.618 74.5665 305.21 74.6721 304.857 74.7914C304.138 75.0349 303.365 75.1734 302.618 75.3958C301.826 75.6317 301.125 75.9485 300.345 76.2125C299.95 76.346 299.558 76.4699 299.158 76.614C298.937 76.6937 298.049 76.7183 297.992 76.7961C297.61 77.3167 296.49 77.217 295.973 77.4914C295.722 77.6241 295.577 78.0854 295.375 78.166C295.119 78.2677 294.778 78.4742 294.549 78.5517C294.054 78.7191 293.184 78.638 292.717 78.4753C292.263 78.3174 291.246 78.9921 290.803 79.1347C290.233 79.3181 290.233 79.4269 289.823 79.903C289.511 80.2661 289.307 80.3489 288.943 80.579C288.645 80.7669 288.136 80.6765 288.333 80.2777C288.494 79.9508 288.233 79.8916 287.949 79.7702C287.739 79.6805 287.331 79.9923 287.044 79.9936C286.741 79.995 286.132 80.3041 285.979 80.5431C285.841 80.7578 285.38 80.9292 285.139 80.9571C284.826 80.9934 284.433 81.5319 284.124 81.6549C283.823 81.7745 283.293 82.0615 282.994 82.0844C282.569 82.1171 282.336 82.4567 281.992 82.5063C281.732 82.5438 281.377 83.0167 281.097 83.1752C280.775 83.3569 280.414 83.4104 280.087 83.5405C279.967 83.5882 279.961 83.7908 279.855 83.8669C279.722 83.9628 279.527 83.8954 279.375 83.9469C279.051 84.0564 278.744 84.1291 278.407 84.2272C277.556 84.4745 276.792 84.639 276.042 85.1575C275.213 85.7301 274.044 85.6189 273.154 86.076C272.708 86.3046 271.622 86.6528 271.134 86.6652C270.62 86.6783 270.139 86.7563 269.635 86.8772C269.457 86.9199 269.216 86.8772 269.027 86.8941C268.801 86.9144 268.826 87.1451 268.64 87.2142C268.314 87.3348 267.724 87.3685 267.374 87.3473C267.324 87.3442 266.417 87.2136 266.504 87.3937C266.709 87.8164 269.852 86.6977 270.08 86.6205C271.814 86.0334 273.326 85.0451 275.056 84.5113C276.469 84.0753 278.001 83.9338 279.372 83.3458C281.233 82.5479 283.722 82.2696 285.74 82.383C286.443 82.4225 287.118 82.3504 287.804 82.2038C288.385 82.0797 289.251 82.1103 289.783 81.8411C290.51 81.4732 291.059 81.1995 291.872 80.9687C292.946 80.6642 294.098 80.4043 295.15 80.0484C296.376 79.6332 297.639 79.4372 298.844 78.9988C300.311 78.4647 301.641 77.3937 303.228 77.1965C304.599 77.026 305.859 76.5497 307.262 76.4212C308.252 76.3306 309.215 76.6323 310.177 76.5563C310.965 76.4941 311.821 76.4242 312.61 76.524C314.033 76.704 315.346 76.918 316.701 77.3468C318.48 77.9096 320.133 78.8491 321.811 79.6785C323.195 80.3627 324.601 80.8986 325.986 81.5831C327.78 82.4701 330.18 83.2525 331.222 85.1236C331.7 85.9834 332.098 86.8867 332.592 87.7413C332.83 88.1542 333.172 89.0302 332.996 89.4934C332.54 90.6892 332.979 92.0768 332.985 93.2984C332.988 93.9169 332.752 94.4884 332.937 95.1446C333.031 95.4801 332.654 95.9655 332.503 96.2711C331.946 97.3996 331.873 98.7122 331.367 99.855C331.044 100.586 330.934 101.373 330.571 102.108C330.33 102.594 330.09 103.081 329.849 103.568C329.333 104.611 329.275 105.693 328.76 106.734C328.557 107.146 328.084 107.269 327.803 107.637C327.497 108.037 327.095 108.332 326.718 108.618" stroke="white" stroke-width="5" stroke-linecap="round"/>
<path d="M326.102 74.5036C325.946 74.4264 325.79 74.3493 325.634 74.2721C325.375 74.1441 325.097 74.1214 324.834 73.9997C324.704 73.9395 324.54 73.9049 324.402 73.8609C324.099 73.7648 323.816 73.6293 323.519 73.5185C323.439 73.4883 323.347 73.477 323.27 73.441C322.918 73.278 322.546 73.0768 322.165 72.9937C321.868 72.9292 321.592 72.7672 321.298 72.7121C320.967 72.65 320.633 72.545 320.314 72.4337C319.996 72.3223 319.681 72.1887 319.378 72.0389C319.238 71.9698 319.099 71.8886 318.953 71.8324C318.825 71.7829 318.688 71.7811 318.558 71.7324C317.945 71.5047 317.292 71.5071 316.656 71.3858C316.405 71.3379 316.156 71.2505 315.904 71.2136C315.773 71.1944 315.639 71.2021 315.507 71.1861C315.365 71.1687 315.248 71.1285 315.102 71.1339C314.966 71.139 314.845 71.1423 314.708 71.1269C314.526 71.1062 314.317 71.1405 314.136 71.1664C313.931 71.1959 313.721 71.1981 313.513 71.2198C313.24 71.2484 312.956 71.2208 312.686 71.1723C312.402 71.1212 312.122 71.1763 311.844 71.1379C311.643 71.1101 311.426 71.1508 311.22 71.136C310.987 71.1192 310.733 71.1595 310.5 71.181C310.228 71.2063 309.953 71.2263 309.679 71.2333C309.57 71.2361 309.427 71.232 309.324 71.2746C309.2 71.3259 309.024 71.3766 308.877 71.3723C308.618 71.3647 308.364 71.4969 308.104 71.4981C307.913 71.499 307.748 71.5525 307.562 71.5799C307.212 71.6316 306.848 71.6067 306.495 71.6524C306.372 71.6684 306.219 71.6144 306.1 71.6447C306.007 71.6685 305.92 71.653 305.824 71.6596C305.731 71.666 305.656 71.7035 305.562 71.7025C305.311 71.6999 305.04 71.6959 304.798 71.7354C304.539 71.7774 304.207 71.732 303.974 71.8499" stroke="black" stroke-width="3" stroke-linecap="round"/>
<path d="M168.6 -19.5C217.657 -19.5 257.1 15.5913 257.1 58.5C257.1 101.409 217.657 136.5 168.6 136.5C119.542 136.5 80.0996 101.409 80.0996 58.5C80.0996 15.5913 119.542 -19.5 168.6 -19.5Z" fill="white" stroke="black" stroke-width="3"/>
<path d="M39.7824 34.045L40.0898 9.06751L77.6808 12.4677L39.7824 34.045Z" fill="white" stroke="black" stroke-width="3"/>
<path d="M126.729 9.9686L164.223 6.20057L165.097 31.1624L126.729 9.9686Z" fill="white" stroke="black" stroke-width="3"/>
<path d="M177.5 64.0743C177.5 79.4175 169.406 93.4101 156.119 103.614C142.831 113.82 124.409 120.175 104 120.175C83.5909 120.175 65.169 113.82 51.8806 103.614C38.5939 93.4101 30.5 79.4175 30.5 64.0743C30.5 48.7312 38.5939 34.7386 51.8806 24.5343C65.169 14.3287 83.5909 7.97382 104 7.97382C124.409 7.97382 142.831 14.3287 156.119 24.5343C169.406 34.7386 177.5 48.7312 177.5 64.0743Z" fill="white" stroke="black" stroke-width="3"/>
<path d="M76.1953 61.9905C76.1953 61.9254 76.225 61.8679 76.2725 61.8204C76.3296 61.7633 76.3887 61.6759 76.4222 61.6006C76.4616 61.5119 76.5572 61.4333 76.5932 61.3374C76.6339 61.2288 76.7523 61.1245 76.8193 61.0294C76.885 60.936 76.9046 60.7835 76.9894 60.7111C77.0655 60.6462 77.1569 60.501 77.2037 60.4125C77.2397 60.3446 77.2954 60.2874 77.3266 60.2179C77.3421 60.1835 77.375 60.1537 77.3857 60.1179C77.4138 60.0242 77.4525 59.932 77.4826 59.8382C77.5018 59.7786 77.5128 59.7209 77.5393 59.6633C77.5884 59.5567 77.6344 59.4486 77.6756 59.3387C77.7197 59.2212 77.7415 59.0958 77.7867 58.9795C77.8016 58.9413 77.8303 58.9113 77.849 58.8755C77.9048 58.7681 77.9551 58.6586 78.0105 58.5509C78.1019 58.3731 78.1446 58.1502 78.272 57.9884C78.4016 57.8238 78.4165 57.6076 78.4847 57.4125C78.5061 57.3515 78.5201 57.2854 78.5352 57.2226C78.5563 57.1346 78.6161 57.0654 78.6344 56.9784C78.6471 56.9183 78.6628 56.8763 78.6628 56.8145" stroke="black" stroke-linecap="round"/>
<path d="M75.9272 61.8169C76.0321 61.7579 75.9007 61.6682 75.857 61.6205C75.7795 61.5359 75.69 61.5241 75.6464 61.3978C75.5863 61.2234 75.5026 61.0445 75.4161 60.8822C75.3918 60.8368 75.3494 60.7633 75.3108 60.7309C75.2651 60.6925 75.2648 60.6232 75.2164 60.5883C75.182 60.5634 75.1638 60.4991 75.1385 60.4632C75.1059 60.417 75.0759 60.3723 75.0398 60.3272C74.9741 60.2451 74.8973 60.1835 74.8215 60.1078C74.7849 60.0711 74.7126 59.971 74.7041 59.9202C74.6949 59.8648 74.6261 59.8048 74.5846 59.7633C74.428 59.6068 74.4199 59.3727 74.2686 59.2214C74.2056 59.1584 74.1603 59.0865 74.092 59.024C74.0592 58.9939 74.0104 58.9993 73.9966 58.9538C73.9764 58.8871 73.9345 58.8255 73.8957 58.7673C73.7791 58.5925 73.6412 58.4152 73.5534 58.2298C73.5171 58.153 73.4573 58.1043 73.4097 58.0356C73.3736 57.9835 73.3653 57.9314 73.3395 57.8755C73.2846 57.7564 73.1612 57.6984 73.119 57.5672C73.0918 57.4827 73.0049 57.3765 73.0049 57.2952C73.0049 57.2363 72.9654 57.1909 72.9654 57.1262C72.9654 57.0644 72.9407 57.0302 72.9216 56.9749C72.8921 56.8896 72.9084 56.806 72.8371 56.7346C72.7466 56.6441 72.7092 56.5129 72.6539 56.3957C72.6289 56.3426 72.6337 56.2999 72.6287 56.2443C72.6165 56.11 72.5534 55.9839 72.5223 55.8538C72.5065 55.7878 72.5091 55.7042 72.4872 55.641C72.4736 55.6017 72.4207 55.5765 72.4126 55.5378C72.404 55.4969 72.3666 55.4627 72.3446 55.4281C72.3222 55.393 72.3236 55.3461 72.304 55.3108C72.2572 55.2266 72.2546 55.1465 72.2546 55.053C72.2546 54.976 72.253 54.8997 72.2042 54.8369C72.1431 54.7584 72.1756 54.6 72.1756 54.5045C72.1756 54.3244 72.1586 54.1373 72.1756 53.9582C72.1874 53.835 72.2429 53.7108 72.2535 53.5831C72.2615 53.4878 72.2778 53.3996 72.2744 53.3022C72.2717 53.2278 72.2546 53.1563 72.2546 53.0795C72.2546 53.0023 72.2151 52.9435 72.2151 52.8722" stroke="black" stroke-linecap="round"/>
<path d="M78.6284 56.5987C78.6284 55.7274 78.7058 54.8648 78.7058 53.9997C78.7058 53.7717 78.7184 53.5399 78.7058 53.3123C78.6947 53.1131 78.6691 52.8133 78.5704 52.6357C78.4663 52.4483 78.5581 52.244 78.3986 52.0579C78.3336 51.9821 78.3847 51.8776 78.3019 51.8066C78.2505 51.7625 78.2139 51.5723 78.1731 51.4952C78.0839 51.3267 77.8938 51.0776 77.8938 50.8765C77.8938 50.6654 77.7886 50.4856 77.7778 50.2751C77.7685 50.0925 77.6601 50.0184 77.5459 49.8928C77.1969 49.509 76.8563 49.1034 76.6094 48.6341C76.4673 48.3642 76.2411 48.1258 76.0853 47.8608C76.0259 47.7599 75.9264 47.7279 75.8919 47.6074C75.8507 47.4632 75.7475 47.3542 75.6342 47.2615C75.4811 47.1363 75.4121 46.9132 75.2841 46.7568C75.1184 46.5543 74.9839 46.3814 74.8008 46.1983" stroke="black" stroke-linecap="round"/>
<path d="M72.2485 52.8484C72.2485 52.372 72.0804 51.7469 72.2485 51.2847C72.3233 51.079 72.4686 50.8703 72.4805 50.6446C72.4834 50.59 72.5331 50.5685 72.5492 50.52C72.5721 50.4514 72.5466 50.3811 72.5772 50.3138C72.6352 50.1862 72.6199 50.0497 72.6652 49.9229C72.7642 49.6457 72.8091 49.3602 73.0025 49.1238C73.0829 49.0255 73.147 48.9584 73.2065 48.8274C73.2621 48.705 73.3838 48.5185 73.4084 48.3957C73.4514 48.181 73.5691 48.0191 73.6834 47.835C73.9199 47.4539 74.0856 47.0278 74.3277 46.6537C74.3546 46.6121 74.3226 46.5522 74.3449 46.5076C74.3707 46.4561 74.4398 46.451 74.4695 46.3916C74.5098 46.311 74.531 46.249 74.607 46.1983" stroke="black" stroke-linecap="round"/>
<path d="M75.1484 56.8307C75.1484 56.9618 75.248 57.0252 75.2644 57.14C75.2876 57.302 75.3004 57.4299 75.3632 57.5889C75.416 57.7223 75.566 57.921 75.5737 58.0679C75.5828 58.24 75.6575 58.4855 75.7499 58.6306C75.8448 58.7798 75.8375 59.0813 75.8744 59.2578C75.9115 59.435 75.9217 59.5845 75.9217 59.7691" stroke="black" stroke-width="3" stroke-linecap="round"/>
<path d="M75.11 50.6832C75.11 50.5366 75.1315 50.4467 75.0026 50.3524C74.9042 50.2805 74.8245 50.1574 74.7813 50.0453C74.6983 49.8292 74.8462 49.5409 74.7234 49.3386C74.5938 49.1252 74.6074 48.8573 74.6074 48.6147C74.6074 48.5138 74.6074 48.4128 74.6074 48.3119C74.6074 48.0614 74.5457 48.8509 74.6847 49.0594" stroke="black" stroke-width="3" stroke-linecap="round"/>
<path d="M74.5683 57.256C74.4345 57.2411 74.335 57.0323 74.2418 56.9445C74.029 56.7442 74.063 56.5627 73.9884 56.3109C73.8935 55.9906 73.8724 55.6133 73.8724 55.282C73.8724 54.9521 73.7527 54.6478 73.7199 54.3197C73.6351 53.4723 73.7177 52.5828 73.7177 51.7293C73.7177 51.4321 73.7529 51.1152 73.8638 50.8379C73.9163 50.7066 73.8724 50.4755 73.8724 50.3353" stroke="black" stroke-width="3" stroke-linecap="round"/>
<path d="M76.7727 57.024C76.8194 57.0181 76.8774 56.3732 76.8866 56.3001C76.9064 56.1411 76.8647 56.6237 76.8114 56.7748C76.7752 56.8773 76.674 56.9274 76.6589 57.0411C76.6447 57.1477 76.6567 57.2623 76.6567 57.3698C76.6567 57.5251 76.6567 57.6805 76.6567 57.8359C76.6567 57.8983 76.6567 57.9088 76.6567 57.8359C76.6567 57.6469 76.6567 57.4578 76.6567 57.2688C76.6567 57.1118 76.6659 56.9618 76.6267 56.8092C76.6074 56.7343 76.5449 56.6774 76.5407 56.5987C76.5095 56.006 76.5165 55.3552 76.3796 54.7665C76.3435 54.6111 76.3122 54.4223 76.2271 54.2832C76.2001 54.2389 76.234 54.5162 76.24 54.5409C76.3316 54.9183 76.3474 55.2799 76.3474 55.6664C76.3474 56.0677 76.3773 56.4705 76.4269 56.8672C76.4489 57.0431 76.4634 57.2075 76.4634 57.3891C76.4634 57.5354 76.2424 58.0071 76.3173 57.6254C76.3503 57.4578 76.4639 57.3179 76.4978 57.1571C76.5337 56.9864 76.5021 56.7793 76.5021 56.6051C76.5021 56.3774 76.5021 56.1497 76.5021 55.9221C76.5021 55.6751 76.6181 55.4686 76.6181 55.224C76.6181 55.0463 76.5794 54.8767 76.5794 54.7042" stroke="black" stroke-width="3" stroke-linecap="round"/>
<path d="M76.8107 55.4774C77.0204 55.4774 76.9349 55.013 76.9181 54.8674C76.8906 54.6291 76.7552 54.4452 76.6818 54.2252C76.6281 54.0638 76.5962 53.8331 76.5809 53.6646C76.5456 53.2763 76.4447 52.8864 76.3639 52.5004C76.3238 52.3085 76.2308 52.1135 76.2308 51.9183C76.2308 51.6872 76.1962 51.4491 76.1363 51.2266C76.0958 51.0763 76.0375 50.8533 76.0375 50.7025C76.0375 50.569 75.8609 50.4001 75.8441 50.2579C75.8401 50.2239 75.7345 50.0906 75.7067 50.0667C75.6188 49.9914 75.6484 50.1761 75.653 50.2214C75.677 50.4616 75.7282 50.6689 75.7282 50.9152" stroke="black" stroke-width="3" stroke-linecap="round"/>
<path d="M76.0381 52.3457C76.1259 52.3652 76.3398 52.8391 76.3474 52.9343C76.3727 53.2505 76.5451 53.5448 76.5794 53.8536C76.5931 53.9771 76.6471 54.24 76.7254 54.3261C76.8612 54.4755 76.8152 54.311 76.8113 54.1629C76.8063 53.9721 76.6941 53.7034 76.5794 53.5529C76.4599 53.3961 76.4998 53.18 76.4247 52.9944C76.3918 52.913 76.3129 52.5733 76.4935 52.6937C76.7278 52.8499 76.7993 53.1746 76.85 53.4283" stroke="black" stroke-width="3" stroke-linecap="round"/>
<path d="M90.0095 61.8976C89.7833 61.8976 89.7307 61.9483 89.5787 62.1004C89.4831 62.1959 89.3608 62.3157 89.2542 62.3969C89.1562 62.4716 88.9987 62.4851 88.9146 62.5566C88.6917 62.7461 88.4143 62.7161 88.1644 62.8303C87.8769 62.9617 87.5426 63.0272 87.2316 63.0838C87.0735 63.1125 86.9454 63.21 86.7805 63.2206C86.6586 63.2285 86.4972 63.245 86.3826 63.2891C85.8861 63.48 85.3722 63.5785 84.872 63.7453C84.1023 64.0018 83.3271 64.1787 82.5275 64.1787C81.8666 64.1787 81.2445 64.27 80.5809 64.27C79.7089 64.27 78.8814 64.3466 78.0159 64.4043C77.2548 64.455 76.494 64.4524 75.7297 64.4524C75.407 64.4524 75.0843 64.4524 74.7615 64.4524C74.3023 64.4524 73.9122 64.2294 73.4689 64.1787C73.0231 64.1278 72.5886 63.8898 72.1408 63.8112C71.5763 63.7122 71.0554 63.4431 70.5592 63.1674C70.0332 62.8752 69.5031 62.5595 69.0334 62.1815C68.8266 62.015 68.642 61.7555 68.4581 61.558C67.9959 61.0615 67.5126 60.5928 66.9956 60.1538C66.6979 59.9011 66.5664 59.5692 66.3214 59.2768C66.1223 59.0393 65.9761 58.7759 65.85 58.4937C65.7441 58.2568 65.5809 58.0886 65.4292 57.8828C65.1017 57.4384 64.8506 56.9604 64.5624 56.4888C64.4125 56.2435 64.2676 56.0167 64.0986 55.7842C64.0267 55.6854 63.9592 55.5197 63.9592 55.3939C63.9592 54.7922 63.5417 54.2503 63.3864 53.6856C63.2999 53.3712 63.2394 53.0495 63.1532 52.7376C63.12 52.6177 63.0465 52.3442 62.9707 52.2409C62.6156 51.7567 62.3263 51.3511 62.1089 50.7759C61.965 50.3948 61.8466 49.9779 61.7237 49.5897C61.6724 49.4276 61.6044 49.3184 61.564 49.1487C61.5289 49.001 61.4864 48.8558 61.45 48.7102C61.3576 48.3407 61.1925 48.0508 61.0242 47.7141C60.9013 47.4684 60.8513 47.1904 60.7656 46.9335" stroke="black" stroke-width="3" stroke-linecap="round"/>
<path d="M89.5623 60.7832C89.5623 60.5856 89.5981 60.3436 89.5542 60.1513C89.4751 59.8052 89.304 59.5091 89.198 59.1714C89.0957 58.845 89.0235 58.5332 88.9103 58.2115C88.7225 57.6777 88.6024 57.1206 88.4193 56.5816C88.3972 56.5166 88.3801 56.4497 88.3589 56.3844C88.3061 56.2215 88.1567 56.1207 88.0993 55.9618C87.9489 55.5452 87.9044 55.066 87.8317 54.6297C87.7697 54.2574 87.5016 53.8317 87.3307 53.5008C87.072 53.0001 86.7756 52.5206 86.5197 52.0178C86.1988 51.3872 85.8293 50.7543 85.4231 50.1766C85.2899 49.9872 85.203 49.773 85.0749 49.581C85.0194 49.4977 84.9375 49.469 84.8657 49.4019C84.4252 48.9901 83.9368 48.5958 83.4088 48.3072C83.0445 48.1081 82.6774 47.8738 82.3564 47.613C82.2772 47.5486 82.2696 47.481 82.1713 47.4319C82.063 47.3777 81.9322 47.3211 81.8312 47.2568C81.0066 46.7321 80.1891 46.2032 79.4768 45.5303C79.1685 45.239 78.9567 45.0977 78.5673 44.9528C78.1161 44.7849 77.6877 44.671 77.2231 44.5483C77.1084 44.518 77.0118 44.4197 76.8931 44.4115C76.7594 44.4023 76.6317 44.3781 76.4987 44.3571C75.8865 44.2605 75.2711 44.1827 74.6595 44.0855C74.2103 44.0141 73.7664 43.898 73.3133 43.8521C73.0461 43.825 72.7728 43.8059 72.5044 43.7977C72.1643 43.7874 71.8515 43.6937 71.5164 43.6589C70.8775 43.5926 70.1287 43.5284 69.4961 43.6508C69.2704 43.6945 69.0525 43.7724 68.828 43.8158C68.6046 43.8591 68.3889 43.856 68.166 43.9205C67.627 44.0765 67.0438 44.1009 66.5139 44.2827C66.2094 44.3872 65.9477 44.4844 65.6245 44.5382C65.2239 44.605 64.7596 44.666 64.389 44.8381C64.257 44.8994 64.1323 44.9061 63.9905 44.9266C63.6653 44.9736 63.3577 45.1051 63.0307 45.156C62.7627 45.1977 62.5261 45.2808 62.252 45.2808" stroke="black" stroke-width="3" stroke-linecap="round"/>
<path d="M62.626 45.0396C62.1301 45.0396 61.6751 45.258 61.2436 45.4737C61.0619 45.5646 60.8105 45.5205 60.6092 45.5205C60.3504 45.5205 60.2262 45.7609 59.9814 45.7609" stroke="black" stroke-width="3" stroke-linecap="round"/>
<path d="M116.102 61.7679C116.121 61.9584 116.188 62.1714 116.373 62.2643C116.779 62.4672 117.137 62.7588 117.619 62.8189C117.724 62.8321 117.82 62.8981 117.923 62.9247C118.157 62.9855 118.394 63.0282 118.627 63.0973C118.903 63.1796 119.186 63.2425 119.449 63.3628C119.777 63.5134 120.143 63.6079 120.483 63.7405C120.645 63.8041 120.831 63.7964 121 63.8354C121.427 63.9334 121.843 64.0762 122.274 64.1591C122.871 64.2742 123.503 64.2284 124.093 64.3512C124.258 64.3855 124.404 64.5185 124.57 64.526C125.187 64.5541 125.766 64.7591 126.391 64.7591C127.682 64.7591 128.973 64.7591 130.263 64.7591C130.598 64.7591 130.935 64.7708 131.269 64.7591C131.437 64.7532 131.594 64.6796 131.757 64.6426C132.204 64.5406 132.645 64.4753 133.073 64.3016C133.408 64.1655 133.73 64.007 134.066 63.8656C134.306 63.7646 134.561 63.6966 134.8 63.5937C134.924 63.54 135.01 63.4387 135.145 63.3908C136.119 63.0455 137.018 62.5247 137.881 61.9579C138.375 61.6337 138.907 61.2183 139.2 60.6997C139.265 60.5848 139.378 60.505 139.448 60.3911C139.562 60.2067 139.66 60.0307 139.789 59.8558C139.883 59.7283 139.921 59.5807 140.003 59.448C140.136 59.2312 140.315 59.0458 140.454 58.8329C140.996 57.9997 141.445 57.1012 141.865 56.2C141.953 56.0111 142.056 55.7822 142.172 55.6087C142.353 55.337 142.465 55.0236 142.653 54.7562C142.72 54.6606 142.755 54.5672 142.789 54.4562C142.843 54.2802 142.953 54.1438 143.026 53.9771C143.11 53.7861 143.224 53.5976 143.333 53.416" stroke="black" stroke-width="3" stroke-linecap="round"/>
<path d="M143.488 52.9106C143.564 52.6541 143.679 52.4296 143.692 52.1529C143.702 51.9329 143.744 51.7024 143.83 51.4994C143.936 51.25 143.98 50.9831 144.049 50.7221C144.145 50.3551 144.25 49.991 144.339 49.6221C144.454 49.1466 144.551 48.6744 144.676 48.2027C144.742 47.9534 144.834 47.6993 144.958 47.4743C145.001 47.3967 145.087 47.2657 145.1 47.1793C145.115 47.0833 145.16 46.9685 145.16 46.868" stroke="black" stroke-width="3" stroke-linecap="round"/>
<path d="M115.978 61.9037C115.978 61.2448 116.192 60.6872 116.45 60.0784C116.539 59.8665 116.556 59.6558 116.592 59.4301C116.624 59.2282 116.745 59.0822 116.836 58.907C116.898 58.7876 116.924 58.5631 117.024 58.4777C117.133 58.3844 117.084 58.1811 117.166 58.0768C117.467 57.6935 117.602 57.3043 117.769 56.8371C117.999 56.1917 118.409 55.6148 118.639 54.972C118.992 53.9832 119.44 53.0613 119.85 52.0947C120.023 51.6858 120.14 51.2827 120.356 50.8892C120.563 50.5122 120.771 50.1758 121.004 49.8145C121.233 49.4595 121.515 49.1151 121.772 48.7795C121.896 48.6168 122.015 48.4427 122.147 48.2877C122.357 48.0406 122.605 47.8318 122.813 47.5854C123.177 47.1536 123.587 46.7747 124.103 46.4993C124.314 46.3869 124.538 46.2888 124.726 46.1382C124.894 46.0039 125.068 45.9904 125.241 45.8738C125.624 45.6151 126.039 45.4616 126.435 45.2312C126.677 45.0903 126.971 45.0389 127.208 44.8901C127.571 44.6623 128.001 44.5231 128.425 44.401C128.91 44.2613 129.378 43.9678 129.898 43.9404C130.829 43.8914 131.77 43.808 132.701 43.7869C132.967 43.7809 133.235 43.6921 133.503 43.6845C134.137 43.6667 134.765 43.6334 135.402 43.6334C135.848 43.6334 136.294 43.5822 136.744 43.5822C137.314 43.5822 137.816 43.9072 138.382 43.9404C138.777 43.9637 139.22 44.1857 139.61 44.2731C139.871 44.3316 140.131 44.4941 140.401 44.5034C140.606 44.5105 140.825 44.5403 141.026 44.583C141.212 44.6224 141.456 44.7469 141.629 44.7593C141.985 44.7847 142.269 44.8756 142.604 45.0095C142.747 45.0665 142.897 45.1606 143.05 45.1687C143.465 45.1905 143.806 45.7507 144.239 45.7828C144.43 45.797 144.683 45.9778 144.779 46.1411C144.876 46.3066 145.047 46.381 145.149 46.5505" stroke="black" stroke-width="3" stroke-linecap="round"/>
<path d="M129.745 62.226C129.745 62.1461 129.817 62.0564 129.847 61.9833C129.902 61.8493 129.961 61.7075 130.061 61.6023C130.168 61.4895 130.234 61.3531 130.364 61.2564C130.48 61.1698 130.583 61.0797 130.691 60.9818C130.826 60.8592 130.95 60.7188 131.092 60.6049C131.223 60.4989 131.342 60.3044 131.427 60.1609C131.482 60.0692 131.526 59.9708 131.589 59.8842C131.658 59.7904 131.683 59.681 131.763 59.5951C131.886 59.4618 131.987 59.2873 132.097 59.1408C132.208 58.9933 132.321 58.8401 132.411 58.6772C132.496 58.5235 132.584 58.3579 132.69 58.2177C132.83 58.0331 133.041 57.8159 133.092 57.5889C133.12 57.462 133.219 57.3253 133.276 57.2079C133.348 57.0601 133.421 56.926 133.474 56.7691C133.525 56.6144 133.58 56.4638 133.625 56.3055C133.662 56.1799 133.729 56.0691 133.76 55.9451C133.807 55.7568 133.917 55.5937 133.964 55.4051" stroke="black" stroke-linecap="round"/>
<path d="M129.69 62.0587C129.69 61.9866 129.666 61.9694 129.634 61.91C129.55 61.7567 129.487 61.5863 129.415 61.4268C129.366 61.3192 129.343 61.1998 129.291 61.0923C129.242 60.9911 129.212 60.8626 129.151 60.7701C129.112 60.7122 129.033 60.6024 128.979 60.5636C128.924 60.5238 128.808 60.4121 128.783 60.3447C128.738 60.2245 128.653 60.1401 128.597 60.0226C128.521 59.8616 128.486 59.6839 128.416 59.5208C128.331 59.3219 128.314 59.102 128.212 58.9085C128.147 58.785 128.135 58.635 128.073 58.511C127.997 58.3603 127.921 58.2161 127.833 58.0721C127.758 57.9494 127.766 57.7751 127.737 57.6385C127.714 57.5292 127.643 57.4462 127.599 57.3483C127.556 57.2543 127.522 57.1642 127.479 57.0706C127.435 56.9747 127.386 56.882 127.348 56.7815C127.327 56.727 127.273 56.6522 127.273 56.5946" stroke="black" stroke-linecap="round"/>
<path d="M127.338 56.8925C127.324 56.7791 127.198 56.7196 127.192 56.6014C127.188 56.5169 127.192 56.4313 127.192 56.3467C127.192 56.0946 127.192 55.8426 127.192 55.5905C127.192 55.4059 127.192 55.2212 127.192 55.0365C127.192 54.6886 127.127 54.2846 127.21 53.9509C127.264 53.7382 127.265 53.454 127.265 53.2351C127.265 53.1365 127.338 53.0612 127.338 52.9784C127.338 52.8455 127.368 52.6712 127.403 52.5417C127.453 52.3512 127.52 52.1015 127.52 51.9068C127.52 51.7951 127.656 51.7678 127.665 51.644C127.67 51.5749 127.704 51.5533 127.738 51.4984C127.798 51.4019 127.8 51.2852 127.831 51.179C127.897 50.9544 128.102 50.695 128.102 50.4653C128.102 50.3336 128.196 50.2578 128.248 50.1418C128.29 50.0467 128.383 49.8957 128.448 49.8163C128.529 49.7167 128.536 49.6394 128.595 49.5252C128.659 49.4044 128.813 49.2775 128.828 49.141C128.86 48.8497 129.146 48.6814 129.303 48.4577C129.41 48.3061 129.688 48.0924 129.703 47.9199C129.708 47.8641 129.815 47.7391 129.857 47.6934C129.945 47.5987 129.999 47.4917 130.096 47.4144C130.173 47.3528 130.182 47.2115 130.267 47.1354C130.33 47.0794 130.42 46.9665 130.433 46.8868C130.44 46.8436 130.56 46.7995 130.599 46.7735C130.806 46.6356 131.085 46.5223 131.195 46.3025" stroke="black" stroke-linecap="round"/>
<path d="M133.998 55.4005C133.998 55.0807 133.997 54.762 134.032 54.4502C134.074 54.0691 133.925 53.7136 133.925 53.3463C133.925 52.9683 133.925 52.5902 133.925 52.2121C133.925 51.9996 133.93 51.808 133.86 51.6076C133.791 51.4077 133.814 51.2146 133.761 51.0152C133.703 50.7961 133.659 50.5604 133.63 50.3379C133.601 50.1243 133.548 49.8383 133.47 49.6364C133.425 49.5192 133.431 49.3885 133.379 49.2704C133.325 49.1484 133.372 49.0097 133.306 48.8944C133.258 48.8093 133.216 48.708 133.195 48.6134C133.156 48.4394 132.928 48.3342 132.861 48.1665C132.836 48.102 132.766 48.0094 132.724 47.9482C132.699 47.9125 132.604 47.7271 132.595 47.7217C132.425 47.6248 132.362 47.3101 132.251 47.1637C132.143 47.0216 131.982 46.903 131.885 46.7574C131.826 46.6686 131.758 46.5412 131.683 46.4662C131.62 46.4037 131.483 46.369 131.45 46.3025" stroke="black" stroke-linecap="round"/>
<path d="M129.631 58.6758C129.631 57.9278 129.649 57.1853 129.696 56.4397C129.727 55.9451 129.74 55.4433 129.74 54.9476C129.74 54.8432 129.675 54.5635 129.813 54.5635" stroke="black" stroke-width="3" stroke-linecap="round"/>
<path d="M129.558 57.1109C129.175 57.0762 128.947 56.5361 128.85 56.2031C128.738 55.8193 128.83 55.3106 128.83 54.9112C128.83 54.5368 128.793 54.1669 128.793 53.7911C128.793 53.394 128.776 52.9924 128.866 52.6023C128.919 52.3762 129.009 52.1779 129.048 51.9432" stroke="black" stroke-width="3" stroke-linecap="round"/>
<path d="M130.868 58.9305C130.868 58.5475 130.859 58.223 130.994 57.8569C131.017 57.7931 131.036 57.7076 131.048 57.6406C131.069 57.5241 131.149 57.4528 131.204 57.3495C131.345 57.0837 131.439 56.7353 131.451 56.4316C131.473 55.8671 131.785 55.4092 131.812 54.8506C131.851 54.079 131.815 53.2974 131.815 52.5255" stroke="black" stroke-width="3" stroke-linecap="round"/>
<path d="M132.069 55.8736C132.069 55.3216 132.142 54.8023 132.142 54.2501C132.142 53.3402 132.027 52.4366 131.741 51.5793" stroke="black" stroke-width="3" stroke-linecap="round"/>
<path d="M131.123 53.6536C130.984 53.4791 131.012 53.1688 130.959 52.9602C130.886 52.666 130.851 52.3638 130.8 52.0706C130.735 51.6977 130.835 51.3081 130.759 50.9323C130.74 50.8393 130.644 50.3372 130.731 50.2409C130.84 50.1199 130.905 49.8423 130.905 49.6687C130.905 49.4923 131.014 49.3448 131.014 49.1633C131.014 48.8487 131.196 48.6043 131.196 48.304" stroke="black" stroke-width="3" stroke-linecap="round"/>
<path d="M131.269 49.0319C131.269 49.4093 131.267 49.7544 131.341 50.1236C131.365 50.2391 131.38 50.3777 131.422 50.4875C131.47 50.6139 131.577 50.7742 131.594 50.904C131.629 51.1625 131.668 51.4167 131.723 51.6703C131.749 51.7866 131.75 51.9069 131.798 52.018C131.859 52.1577 131.863 52.0467 131.96 52.0524C132.05 52.0577 132.069 52.6127 132.069 52.4244C132.069 51.9727 132.106 51.5306 132.106 51.0779C132.106 50.9313 132.126 50.7621 132.104 50.6149C132.092 50.5387 132.033 50.4728 132.033 50.3966C132.033 50.3104 131.947 50.2381 131.924 50.156C131.889 50.0354 131.849 49.9167 131.814 49.7961" stroke="black" stroke-width="3" stroke-linecap="round"/>
<path d="M130.067 51.6885C130.067 51.4174 130.028 51.1873 129.95 50.9323C129.9 50.7702 129.883 50.4914 129.976 50.342C130.05 50.2235 130.016 50.0365 130.103 49.9053" stroke="black" stroke-width="3" stroke-linecap="round"/>
<path d="M129.777 60.8229C129.738 61.1727 129.74 60.1195 129.74 59.7675" stroke="black" stroke-linecap="round"/>
<path d="M145.09 46.0188C145.005 46.0082 145.081 45.9666 145.13 45.9684C145.223 45.972 145.272 46.0693 145.368 46.0693C145.505 46.0693 145.646 46.1197 145.796 46.1197" stroke="black" stroke-width="3" stroke-linecap="round"/>
<path d="M129.703 59.3672C129.851 59.3672 129.812 59.0087 129.812 59.3308" stroke="black" stroke-width="3" stroke-linecap="round"/>
<line x1="21.4083" y1="63.2262" x2="76.4083" y2="78.2262" stroke="black" stroke-width="3"/>
<line x1="130.619" y1="79.231" x2="185.618" y2="64.2263" stroke="black" stroke-width="3"/>
</g>
<defs>
<clipPath id="clip0_15_833">
<rect width="361" height="66" fill="white"/>
</clipPath>
</defs>
</svg>
