<svg width="270" height="296" viewBox="0 0 270 296" fill="none" xmlns="http://www.w3.org/2000/svg">
<path d="M86.5 258C86.5 260.391 84.3838 263.015 79.8925 265.128C75.5189 267.186 69.3714 268.5 62.5 268.5C55.6286 268.5 49.4811 267.186 45.1075 265.128C40.6162 263.015 38.5 260.391 38.5 258C38.5 255.609 40.6162 252.985 45.1075 250.872C49.4811 248.814 55.6286 247.5 62.5 247.5C69.3714 247.5 75.5189 248.814 79.8925 250.872C84.3838 252.985 86.5 255.609 86.5 258Z" fill="white" stroke="black" stroke-width="3"/>
<path d="M157.5 258C157.5 260.391 155.384 263.015 150.893 265.128C146.519 267.186 140.371 268.5 133.5 268.5C126.629 268.5 120.481 267.186 116.107 265.128C111.616 263.015 109.5 260.391 109.5 258C109.5 255.609 111.616 252.985 116.107 250.872C120.481 248.814 126.629 247.5 133.5 247.5C140.371 247.5 146.519 248.814 150.893 250.872C155.384 252.985 157.5 255.609 157.5 258Z" fill="white" stroke="black" stroke-width="3"/>
<path d="M207.267 212.684C207.267 213.412 206.733 213.657 206.399 214.225C205.953 214.982 204.94 215.107 204.441 215.772C203.649 216.827 202.833 218.117 201.695 218.849C201.549 218.943 201.262 218.888 201.204 219.06C201.148 219.228 201.036 219.283 200.873 219.34C200.419 219.497 200.227 219.814 199.908 220.133C199.652 220.39 199.316 220.829 199.001 221.001C198.631 221.203 198.533 221.448 198.533 220.744C198.533 219.857 198.323 218.671 198.555 217.798C198.83 216.771 198.738 215.638 198.738 214.579C198.738 214.115 198.853 212.859 198.327 212.684" stroke="white" stroke-width="3" stroke-linecap="round"/>
<path d="M218.158 206.621C218.011 206.64 217.905 206.94 217.77 207.032C217.587 207.157 217.443 207.123 217.234 207.135C216.904 207.154 216.463 207.295 216.103 207.346C215.611 207.416 215.308 207.521 214.876 207.757C214.436 207.997 213.939 208.162 213.432 208.162" stroke="white" stroke-width="3" stroke-linecap="round"/>
<path d="M176.03 240.735C175.986 241.09 175.1 241.214 174.848 241.409C174.612 241.593 174.202 241.456 174.032 241.672C173.795 241.973 173.461 242.27 173.107 242.431C172.783 242.578 172.497 242.756 172.131 242.785C171.575 242.827 171.144 243.099 170.601 243.19C169.449 243.382 168.308 243.51 167.136 243.51C165.954 243.51 164.85 243.568 163.7 243.841C162.908 244.028 162.024 243.921 161.211 243.921C160.663 243.921 160.115 243.921 159.567 243.921C159.268 243.921 158.934 243.962 158.642 243.898C158.337 243.831 158.157 243.625 157.82 243.612C157.536 243.601 156.72 243.611 156.467 243.498C156.154 243.359 157.408 242.406 157.58 242.328C157.861 242.2 157.976 241.996 158.248 241.86C158.392 241.788 158.44 241.536 158.516 241.403C158.606 241.247 158.797 241.218 158.87 241.089C159.144 240.611 159.59 240.523 159.59 239.856C159.59 239.287 160.607 239.502 161.028 239.502C161.515 239.502 162.002 239.502 162.489 239.502C162.987 239.502 163.488 239.522 163.985 239.502C164.406 239.485 164.759 239.091 165.241 239.091" stroke="white" stroke-width="3" stroke-linecap="round"/>
<path d="M239.943 232.104C239.37 232.168 239.26 232.822 238.71 232.207C238.524 232 238.504 231.869 238.504 231.59C238.504 231.327 238.31 231.199 238.298 230.974C238.268 230.401 237.99 229.897 237.99 229.295C237.99 228.801 238.042 228.353 238.196 227.891" stroke="white" stroke-width="3" stroke-linecap="round"/>
<path d="M158.459 241.692C158.459 241.923 158.558 242.119 158.815 242.119C159.177 242.119 158.968 241.724 159.036 241.486C159.087 241.308 160.277 242.336 160.444 242.475C160.785 242.759 161.906 242.546 162.294 242.546C162.823 242.546 163.567 242.794 163.433 242.056C163.351 241.608 162.359 241.157 161.954 241.273C161.353 241.445 163.093 241.789 163.662 242.048C164.57 242.461 165.879 242.261 166.849 242.261C167.356 242.261 169.407 240.912 168.636 240.569C168.049 240.309 167.161 240.269 166.516 240.269C166.363 240.269 166.811 240.382 166.92 240.49C167.126 240.696 167.129 240.808 167.434 240.846C167.895 240.904 168.302 241.294 168.778 241.399C169.096 241.47 169.595 241.55 169.917 241.55C170.361 241.55 169.798 241.396 169.853 241.202C169.905 241.02 170.676 240.73 170.834 240.632C171.229 240.389 171.729 240.322 172.099 240.063C172.578 239.728 173.111 239.366 173.68 239.209C174.328 239.031 174.795 238.561 175.459 238.561C175.944 238.561 176.662 238.027 177.152 237.849C177.232 237.82 177.653 237.317 177.737 237.209C178.053 236.802 178.149 237.012 177.674 236.774C176.813 236.343 175.521 235.587 174.819 236.639C174.26 237.478 173.032 238.085 172.099 238.505C170.574 239.192 168.985 239.836 167.363 240.269C166.877 240.398 166.27 240.838 167.141 240.838C167.708 240.838 168.274 240.838 168.841 240.838C170.821 240.838 172.35 239.947 174.052 239.217C174.271 239.123 174.567 239.198 174.756 239.051C174.963 238.89 175.113 238.745 175.388 238.711C175.689 238.673 176.433 238.647 176.669 238.482C177.169 238.132 177.981 238.106 178.377 237.644C178.559 237.432 178.821 237.104 179.041 236.932C179.559 236.529 180.606 236.533 180.947 235.936C181.104 235.661 181.606 235.566 181.801 235.224C182.04 234.806 182.489 234.974 182.797 234.71C183.314 234.267 183.633 233.715 184.015 233.223C184.511 232.586 184.643 231.959 185.502 231.713C185.772 231.636 186.185 231.138 186.419 230.946C186.601 230.797 187.109 230.602 187.202 230.448C187.499 229.953 188.359 229.251 188.91 229.159C188.996 229.145 189.557 228.594 189.621 228.519C190.018 228.056 190.806 227.8 191.329 227.451C191.729 227.185 192.018 226.855 192.405 226.597C192.587 226.476 192.557 226.255 192.697 226.115C192.839 225.973 193.071 226.013 193.18 225.814C193.56 225.116 194.646 224.79 194.895 223.917C195.106 223.18 195.844 222.641 196.105 221.908C196.253 221.494 196.57 221.428 196.888 221.125C197.191 220.838 197.265 220.464 197.529 220.145C197.737 219.893 198.033 219.742 198.232 219.489C198.831 218.727 199.501 217.894 200.233 217.211C200.855 216.63 201.533 215.947 202.075 215.306C202.271 215.074 202.667 214.608 202.945 214.507C203.288 214.382 204.115 213.847 204.352 213.566C204.56 213.321 204.55 213.022 204.795 212.791C205.051 212.551 205.298 212.318 205.562 212.087C205.876 211.813 206.232 211.513 206.574 211.313C207.102 211.005 208.873 210.011 207.42 211.067C206.972 211.394 206.191 211.497 205.989 212.103C205.753 212.813 204.15 214.464 204.59 213.859C205.386 212.764 205.866 211.708 207.073 210.886C207.613 210.517 208.498 209.886 209.128 209.676C209.994 209.387 210.678 208.729 211.461 208.308C212.35 207.829 213.205 206.948 214.173 206.671C214.83 206.483 215.391 206.252 216.031 205.967C216.848 205.604 217.401 205.54 218.309 205.54C218.975 205.54 219.587 205.113 220.309 205.113C221.4 205.113 222.492 205.113 223.583 205.113C225.699 205.113 228.089 204.838 230.146 205.335C230.615 205.448 231.563 205.357 231.909 205.762C232.22 206.125 232.92 206.359 233.332 206.6C234.06 207.024 234.675 207.474 235.452 207.802C235.998 208.033 237.74 208.891 237.871 209.676C237.924 209.992 237.926 210.319 237.523 210.229C237.21 210.16 237.142 209.81 236.827 209.81C236.813 209.81 237.436 210.237 237.515 210.316C238.099 210.9 238.408 211.729 238.804 212.443C238.953 212.71 238.875 213.136 238.875 213.432C238.875 213.791 239.213 214.087 239.31 214.428C239.398 214.734 239.793 215.041 239.88 215.432C239.955 215.77 240.09 216.092 240.164 216.429C240.343 217.232 240.441 217.839 240.441 218.706C240.441 219.46 241.164 220.115 241.002 220.841C240.925 221.19 240.658 221.509 240.512 221.829C240.359 222.166 240.441 222.609 240.441 222.976C240.441 223.807 239.872 224.648 239.872 225.53C239.872 226.405 239.729 227.196 239.729 228.092C239.729 228.727 239.976 230.041 239.445 230.519C239.283 230.665 239.322 232.233 239.524 232.29C239.889 232.395 239.872 232.781 240.228 232.86C240.546 232.931 241.047 233.01 241.366 233.01C241.661 233.01 241.992 232.936 242.149 232.662C242.23 232.521 242.455 232.476 242.568 232.354C242.718 232.191 242.633 231.823 242.797 231.729C243.294 231.445 243.256 230.857 243.707 230.519C243.998 230.3 244.586 229.546 244.695 229.246C244.927 228.607 245.583 228.25 245.715 227.522C245.869 226.676 245.936 225.954 246.245 225.15C246.421 224.691 246.704 224.741 246.704 224.185C246.704 223.909 246.812 223.375 246.957 223.158C247.108 222.931 247.063 222.315 247.162 222.019C247.285 221.649 247.184 221.179 247.384 220.88C247.872 220.147 247.192 217.733 247.02 217.132C246.769 216.254 246.134 215.669 246.134 214.681C246.134 213.965 245.593 213.344 245.565 212.625C245.498 210.894 243.631 209.892 242.861 208.64C242.066 207.348 240.529 206.26 239.524 205.256C239.11 204.842 238.319 204.076 237.768 203.864C237.441 203.738 237.235 203.512 236.993 203.295C236.81 203.129 236.152 203.028 235.934 202.947C235.364 202.734 234.66 202.628 234.147 202.298C232.839 201.458 231.443 201.029 229.83 200.986C229 200.963 228.375 201.045 227.71 200.48C227.318 200.146 225.501 200.416 224.99 200.416C223.926 200.416 223.094 200.74 222.112 201.128C221.788 201.256 221.443 201.535 221.084 201.555C220.509 201.587 220.909 201.647 221.084 201.492C221.215 201.376 221.905 201.171 221.479 201.017C221.205 200.918 220.806 200.986 220.515 200.986C219.661 200.986 218.954 200.904 218.238 201.302C216.93 202.029 215.473 203.037 213.968 203.121C213.557 203.143 213.373 203.43 213.114 203.69C212.884 203.92 212.319 204.063 212.007 204.259C211.651 204.483 211.19 204.61 210.836 204.797C210.406 205.025 209.941 205.253 209.476 205.509C209.114 205.709 208.982 206.073 208.527 206.11C208.145 206.14 207.826 206.416 207.563 206.679C207.026 207.216 206.394 207.682 205.823 208.213C205.217 208.776 204.729 209.37 204.147 209.952C203.852 210.247 203.556 210.532 203.261 210.838C203.098 211.008 202.313 211.423 202.297 211.518C202.184 212.154 201.136 212.561 200.794 213.036C200.629 213.266 200.703 213.744 200.557 213.906C200.373 214.11 200.159 214.447 199.988 214.618C199.618 214.987 198.803 215.3 198.311 215.361C197.834 215.421 197.222 216.476 196.888 216.8C196.459 217.217 196.507 217.315 196.35 217.923C196.231 218.387 196.085 218.552 195.86 218.919C195.677 219.22 195.18 219.364 195.18 218.919C195.18 218.555 194.919 218.617 194.611 218.635C194.383 218.647 194.156 219.107 193.899 219.236C193.628 219.371 193.219 219.918 193.187 220.2C193.159 220.454 192.822 220.812 192.618 220.944C192.353 221.115 192.24 221.772 192.017 222.019C191.801 222.259 191.452 222.752 191.195 222.905C190.828 223.122 190.77 223.53 190.483 223.727C190.267 223.876 190.158 224.457 189.977 224.723C189.77 225.029 189.469 225.237 189.234 225.498C189.148 225.594 189.231 225.778 189.171 225.893C189.094 226.038 188.889 226.064 188.775 226.178C188.534 226.42 188.291 226.621 188.032 226.858C187.379 227.457 186.767 227.943 186.324 228.74C185.835 229.621 184.738 230.039 184.142 230.843C183.844 231.246 183.024 232.039 182.592 232.267C182.138 232.506 181.74 232.789 181.342 233.121C181.202 233.238 180.966 233.307 180.805 233.405C180.611 233.524 180.736 233.719 180.599 233.864C180.361 234.116 179.847 234.408 179.524 234.544C179.477 234.564 178.607 234.848 178.765 234.971C179.135 235.259 181.457 232.864 181.627 232.694C182.922 231.399 183.84 229.843 185.154 228.598C186.227 227.581 187.538 226.775 188.506 225.64C189.821 224.101 191.929 222.748 193.788 221.956C194.436 221.68 195.01 221.316 195.56 220.88C196.025 220.512 196.815 220.156 197.173 219.678C197.662 219.026 198.032 218.538 198.659 217.97C199.487 217.222 200.404 216.478 201.19 215.693C202.105 214.777 203.151 214.042 204.036 213.115C205.115 211.986 205.833 210.437 207.167 209.557C208.321 208.797 209.24 207.811 210.441 207.074C211.288 206.555 212.285 206.398 213.114 205.904C213.793 205.499 214.529 205.057 215.28 204.797C216.636 204.328 217.908 203.938 219.313 203.722C221.157 203.438 223.055 203.548 224.927 203.548C226.471 203.548 227.968 203.405 229.513 203.405C231.515 203.405 234.013 203.043 235.776 204.259C236.586 204.818 237.343 205.451 238.164 205.999C238.56 206.263 239.255 206.897 239.302 207.391C239.424 208.665 240.432 209.714 240.979 210.806C241.255 211.36 241.298 211.976 241.754 212.483C241.987 212.742 241.864 213.344 241.864 213.685C241.864 214.944 242.38 216.153 242.434 217.401C242.468 218.2 242.718 218.953 242.718 219.773C242.718 220.316 242.718 220.859 242.718 221.402C242.718 222.566 243.145 223.561 243.145 224.723C243.145 225.183 242.776 225.502 242.687 225.957C242.59 226.451 242.361 226.893 242.149 227.317" stroke="white" stroke-width="5" stroke-linecap="round"/>
<path d="M188.005 234.431C188.359 234.431 188.567 234.145 188.842 233.983C189.01 233.884 189.208 233.587 189.338 233.438C189.412 233.353 189.518 233.33 189.58 233.235C189.63 233.156 189.701 233.082 189.777 233.026C189.981 232.875 190.22 232.799 190.423 232.645C190.662 232.465 190.902 232.266 191.152 232.103C191.585 231.821 191.944 231.436 192.35 231.113C192.584 230.927 192.77 230.673 192.986 230.47C193.249 230.224 193.519 229.855 193.823 229.671C194.178 229.456 194.427 229.111 194.765 228.867C195.127 228.605 195.471 228.274 195.779 227.952C196.104 227.612 196.53 227.383 196.873 227.06C197.05 226.892 197.208 226.792 197.354 226.601C197.478 226.438 197.612 226.275 197.741 226.116C198.001 225.798 198.196 225.421 198.479 225.119C198.808 224.769 199.067 224.329 199.438 224.025C199.691 223.818 199.871 223.499 200.085 223.25C200.451 222.822 200.865 222.494 201.294 222.134C201.496 221.964 201.716 221.757 201.879 221.554C202.145 221.219 202.646 220.975 202.831 220.581C202.913 220.406 203.09 220.189 203.212 220.03C203.353 219.846 203.495 219.662 203.657 219.5C203.868 219.289 204.086 219.036 204.341 218.86C204.505 218.748 204.666 218.521 204.849 218.444C205.045 218.361 205.217 218.078 205.369 217.926C205.522 217.773 205.585 217.607 205.785 217.496C205.859 217.455 205.852 217.35 205.923 217.297C206.042 217.207 206.208 217.233 206.319 217.131C206.436 217.023 206.559 216.918 206.68 216.809C206.813 216.69 206.965 216.593 207.101 216.471C207.243 216.343 207.4 216.218 207.595 216.132C207.843 216.021 208.022 215.775 208.262 215.644C208.387 215.576 208.54 215.432 208.634 215.325C208.696 215.255 208.864 215.188 208.891 215.095C208.919 214.995 209.061 214.853 209.143 214.767C209.293 214.611 209.375 214.497 209.613 214.497" stroke="black" stroke-width="3" stroke-linecap="round"/>
<path d="M209.893 213.78C209.986 213.769 210.016 213.599 210.05 213.525C210.098 213.42 210.182 213.368 210.26 213.292C210.552 213.012 210.961 212.838 211.337 212.703C211.843 212.521 212.333 212.426 212.754 212.083C212.903 211.962 213.046 211.82 213.202 211.709C213.288 211.647 213.529 211.468 213.558 211.365C213.593 211.243 213.743 211.153 213.848 211.091C213.957 211.026 214.028 210.919 214.127 210.869C215.083 210.391 216.137 210.203 217.157 209.915C217.579 209.796 217.975 209.73 218.38 209.563C218.642 209.454 218.871 209.349 219.12 209.219C219.294 209.129 219.432 209.062 219.625 209.004C219.836 208.942 220.05 208.771 220.267 208.756C221.238 208.689 222.226 208.716 223.204 208.716C223.621 208.716 224.08 208.768 224.493 208.697C224.614 208.676 224.73 208.627 224.851 208.606C225.234 208.539 225.69 208.597 226.074 208.597C226.586 208.597 227.1 208.585 227.611 208.621C227.941 208.645 228.314 208.649 228.639 208.725C228.922 208.792 229.222 208.956 229.494 209.062C229.802 209.182 230.085 209.393 230.397 209.489C230.608 209.555 230.775 209.628 230.973 209.735C231.572 210.059 232.221 210.257 232.798 210.615C233.336 210.948 233.662 211.515 234.054 211.986C234.408 212.41 234.666 212.986 234.867 213.498C234.96 213.736 235.112 213.916 235.23 214.138C235.337 214.341 235.447 214.577 235.622 214.73C235.794 214.879 235.942 215.118 236.023 215.33C236.157 215.681 236.379 216.005 236.515 216.362C236.603 216.594 236.657 216.905 236.772 217.119C236.881 217.325 236.876 217.578 236.962 217.797C237.103 218.153 236.951 218.582 237.06 218.956C237.181 219.371 237.161 219.803 237.161 220.231C237.161 220.784 237.161 221.336 237.161 221.888C237.161 222.776 237.291 223.674 237.13 224.557C237.088 224.79 237.065 225.05 236.993 225.274C236.917 225.512 236.765 225.775 236.727 226.021C236.709 226.138 236.69 226.259 236.683 226.377C236.679 226.456 236.582 226.549 236.563 226.637C236.517 226.857 236.364 227.037 236.364 227.255" stroke="black" stroke-width="3" stroke-linecap="round"/>
<path d="M154 244.658C154.069 244.715 154.14 244.729 154.197 244.794C154.274 244.881 154.451 244.948 154.556 244.986C154.782 245.068 154.977 245.163 155.219 245.202C155.409 245.232 155.587 245.284 155.773 245.322C155.883 245.345 155.963 245.364 156.062 245.415C156.1 245.435 156.137 245.432 156.178 245.437C156.262 245.445 156.343 245.474 156.427 245.486C156.705 245.528 156.983 245.562 157.262 245.591C157.442 245.61 157.609 245.663 157.784 245.699C157.964 245.737 158.165 245.721 158.348 245.728C158.436 245.731 158.519 245.754 158.605 245.768C158.704 245.784 158.803 245.78 158.902 245.799C159.153 245.846 159.407 245.885 159.661 245.91C159.854 245.929 160.048 245.977 160.241 245.986C160.534 245.999 160.822 246.021 161.116 246.021C161.425 246.021 161.733 246.02 162.041 246.038C162.68 246.073 163.308 246.194 163.95 246.194C164.153 246.194 164.356 246.194 164.56 246.194C164.763 246.194 164.95 246.19 165.15 246.15C165.257 246.128 165.369 246.106 165.477 246.09C165.667 246.063 165.845 245.997 166.036 245.966C166.195 245.94 166.342 245.899 166.492 245.849" stroke="black" stroke-width="3" stroke-linecap="round"/>
<path d="M166.916 245.474C167.061 245.474 167.207 245.474 167.352 245.474C167.603 245.474 167.755 245.428 167.981 245.336C168.27 245.219 168.639 245.235 168.903 245.077C169.041 244.994 169.254 244.951 169.412 244.915C169.966 244.793 170.538 244.768 171.091 244.654C171.659 244.537 172.247 244.372 172.803 244.202C173.012 244.139 173.271 244.133 173.47 244.052C173.598 243.999 173.694 243.937 173.831 243.894C174.124 243.803 174.473 243.622 174.734 243.458C175.312 243.097 175.942 242.86 176.542 242.554C176.82 242.413 176.979 242.154 177.273 242.023C177.406 241.963 177.518 241.868 177.653 241.806C177.72 241.775 177.863 241.747 177.91 241.686C178.159 241.367 178.709 241.426 178.996 241.168C179.296 240.897 179.866 240.704 180.245 240.588C180.408 240.538 180.515 240.451 180.668 240.384C181.109 240.19 181.533 239.963 181.921 239.675C182.095 239.547 182.311 239.479 182.488 239.354C182.704 239.203 182.966 239.054 183.195 238.92C183.361 238.823 183.549 238.689 183.702 238.574C183.848 238.465 184.019 238.393 184.158 238.275C184.305 238.151 184.438 238.013 184.595 237.899C184.703 237.82 184.728 237.632 184.858 237.584C185.144 237.48 185.335 237.232 185.583 237.062C185.811 236.904 186.01 236.702 186.243 236.552C186.377 236.466 186.591 236.365 186.69 236.238C186.804 236.091 186.891 235.949 187 235.795C187.063 235.706 187.315 235.498 187.328 235.387C187.34 235.281 187.476 235.193 187.536 235.108C187.609 235.005 187.666 234.829 187.806 234.829" stroke="black" stroke-width="3" stroke-linecap="round"/>
<path d="M236.041 227.493C236.041 227.661 236.064 227.85 236.035 228.015C235.983 228.303 235.848 228.573 235.746 228.847C235.573 229.309 235.659 229.87 235.659 230.354C235.659 230.912 235.659 231.469 235.659 232.027C235.659 232.295 235.627 232.569 235.718 232.823C235.791 233.025 235.838 233.236 235.872 233.446C235.944 233.897 236.301 234.272 236.495 234.668C236.675 235.036 236.986 235.396 237.274 235.684C237.396 235.805 237.577 235.89 237.723 235.981C237.95 236.121 238.195 236.248 238.432 236.372C238.794 236.562 239.335 236.623 239.74 236.623C239.931 236.623 240.121 236.622 240.311 236.623C240.543 236.625 240.775 236.656 241.006 236.653C241.169 236.651 241.321 236.565 241.472 236.513C241.84 236.386 242.245 236.278 242.629 236.216C242.71 236.202 242.831 236.214 242.905 236.17C242.947 236.145 242.957 236.088 242.996 236.059C243.223 235.89 243.471 235.747 243.699 235.58C243.841 235.475 243.957 235.265 244.071 235.126C244.182 234.99 244.304 234.871 244.425 234.744C244.535 234.628 244.637 234.571 244.762 234.475C245.082 234.231 245.355 233.899 245.641 233.613C246.361 232.893 246.945 232.062 247.667 231.339" stroke="black" stroke-width="3" stroke-linecap="round"/>
<path d="M248.267 230.798C248.282 230.671 248.41 230.589 248.425 230.458C248.452 230.218 248.511 229.875 248.647 229.676C248.767 229.5 248.828 229.25 248.894 229.049C248.962 228.846 249.094 228.648 249.178 228.448C249.243 228.293 249.281 228.125 249.365 227.978C249.562 227.634 249.692 227.259 249.929 226.932C250.15 226.627 250.254 226.212 250.31 225.848C250.343 225.634 250.412 225.406 250.47 225.197C250.485 225.141 250.549 225.102 250.563 225.037C250.58 224.953 250.595 224.851 250.595 224.765C250.595 224.486 250.753 224.235 250.775 223.96C250.811 223.518 250.947 223.066 251.054 222.636C251.129 222.335 251.092 222.001 251.092 221.694C251.092 221.397 251.129 221.074 251.05 220.785C250.968 220.484 250.987 220.183 250.987 219.873C250.987 219.614 251.034 219.307 250.941 219.064C250.896 218.948 250.804 218.811 250.804 218.686" stroke="black" stroke-width="3" stroke-linecap="round"/>
<path d="M250.988 217.692C250.906 217.61 250.867 217.501 250.811 217.404C250.729 217.263 250.669 217.096 250.616 216.939C250.501 216.599 250.317 216.281 250.256 215.925C250.22 215.718 250.201 215.52 250.139 215.317C250.104 215.201 250.042 215.096 250.014 214.977C249.987 214.861 249.967 214.741 249.929 214.628C249.896 214.534 249.878 214.436 249.846 214.342C249.793 214.19 249.702 214.056 249.654 213.902C249.567 213.622 249.52 213.331 249.407 213.06C249.339 212.897 249.292 212.71 249.247 212.539C249.205 212.381 249.173 212.245 249.09 212.103C248.94 211.845 248.856 211.566 248.738 211.295C248.665 211.126 248.59 210.993 248.542 210.814C248.495 210.635 248.377 210.49 248.318 210.314C248.253 210.117 248.147 209.942 248.07 209.751C247.999 209.577 247.937 209.405 247.846 209.24C247.757 209.078 247.695 208.905 247.581 208.76C247.49 208.643 247.398 208.505 247.324 208.376C247.233 208.217 247.116 208.09 246.968 207.981C246.812 207.866 246.679 207.726 246.516 207.621C246.382 207.534 246.261 207.398 246.163 207.275C245.937 206.989 245.621 206.784 245.394 206.497C245.126 206.158 244.88 205.767 244.567 205.476C244.367 205.288 244.153 205.102 243.951 204.9" stroke="black" stroke-width="3" stroke-linecap="round"/>
<path d="M243.454 204.298C243.448 204.343 243.349 204.241 243.335 204.233C243.287 204.208 243.272 204.182 243.239 204.141C243.191 204.083 243.109 204.076 243.047 204.037C242.966 203.986 242.907 203.917 242.838 203.852C242.668 203.693 242.47 203.571 242.291 203.421C242.123 203.279 241.976 203.111 241.812 202.964C241.712 202.875 241.602 202.807 241.495 202.727C241.393 202.652 241.338 202.551 241.251 202.464C241.038 202.252 240.811 202.053 240.594 201.845C240.501 201.757 240.439 201.644 240.347 201.558C240.223 201.441 240.019 201.366 239.872 201.277C239.6 201.112 239.331 200.931 239.062 200.758C238.912 200.662 238.756 200.576 238.607 200.479C238.515 200.419 238.465 200.336 238.385 200.268C238.271 200.172 238.092 200.129 237.96 200.059C237.8 199.974 237.65 199.882 237.482 199.812C237.417 199.785 237.389 199.731 237.333 199.7C237.274 199.668 237.208 199.652 237.147 199.613C237.014 199.529 236.855 199.441 236.714 199.375C236.373 199.216 236.039 199.112 235.674 199.04C234.822 198.873 233.974 198.638 233.15 198.401C232.7 198.272 232.27 198.077 231.816 197.956C231.494 197.87 231.176 197.769 230.858 197.67C230.588 197.586 230.281 197.566 230.021 197.459C229.741 197.344 229.469 197.29 229.171 197.235C228.802 197.168 228.409 197.203 228.043 197.119C227.685 197.037 227.345 197 226.974 197" stroke="black" stroke-width="3" stroke-linecap="round"/>
<path d="M226.481 197.007C226.307 197.007 226.132 197.007 225.958 197.007C225.669 197.007 225.41 197.11 225.121 197.117C224.978 197.121 224.815 197.162 224.672 197.184C224.357 197.233 224.044 197.236 223.729 197.268C223.643 197.277 223.556 197.308 223.471 197.31C223.083 197.319 222.661 197.304 222.282 197.398C221.987 197.472 221.668 197.449 221.38 197.53C221.056 197.621 220.709 197.675 220.375 197.716C220.04 197.757 219.698 197.777 219.36 197.777C219.204 197.777 219.044 197.766 218.888 197.78C218.751 197.793 218.628 197.852 218.489 197.866C217.839 197.933 217.255 198.225 216.631 198.398C216.385 198.466 216.123 198.498 215.881 198.576C215.755 198.617 215.638 198.684 215.513 198.728C215.377 198.775 215.255 198.791 215.126 198.861C215.007 198.925 214.9 198.982 214.77 199.029C214.598 199.091 214.425 199.214 214.275 199.317C214.104 199.435 213.916 199.53 213.74 199.641C213.508 199.788 213.241 199.89 212.978 199.965C212.701 200.045 212.474 200.219 212.208 200.308C212.014 200.372 211.838 200.505 211.647 200.583C211.431 200.671 211.221 200.82 211.022 200.942C210.789 201.085 210.551 201.225 210.308 201.353C210.212 201.403 210.082 201.463 210.009 201.547C209.921 201.648 209.785 201.771 209.651 201.833C209.416 201.94 209.247 202.172 209.014 202.288C208.843 202.373 208.719 202.494 208.565 202.601C208.274 202.803 207.937 202.942 207.641 203.139C207.537 203.208 207.376 203.227 207.283 203.307C207.21 203.37 207.125 203.395 207.042 203.443C206.961 203.49 206.911 203.557 206.826 203.597C206.6 203.706 206.355 203.823 206.155 203.966C205.942 204.118 205.625 204.224 205.468 204.433" stroke="black" stroke-width="3" stroke-linecap="round"/>
<path d="M160.326 237.501C160.427 237.593 160.545 237.648 160.668 237.707C160.802 237.772 161.012 237.729 161.157 237.729C162.044 237.729 162.94 237.745 163.823 237.643C164.168 237.602 164.521 237.517 164.859 237.437C165.191 237.359 165.538 237.248 165.878 237.231C166.212 237.214 166.541 237.15 166.861 237.052C167.284 236.922 167.707 236.862 168.137 236.768C168.695 236.646 169.254 236.473 169.803 236.317C169.935 236.279 170.04 236.203 170.163 236.151C170.266 236.107 170.37 236.072 170.47 236.021C170.661 235.925 170.843 235.818 171.047 235.749C171.169 235.708 171.293 235.679 171.414 235.636C171.484 235.611 171.538 235.574 171.615 235.569C171.68 235.565 171.68 235.529 171.733 235.5C171.805 235.459 171.894 235.466 171.966 235.419C172.074 235.349 172.201 235.311 172.314 235.241C172.431 235.169 172.574 235.12 172.699 235.066C172.814 235.017 172.925 234.925 173.036 234.863" stroke="black" stroke-width="3" stroke-linecap="round"/>
<path d="M173.805 234.178C173.936 233.986 174.212 233.915 174.392 233.785C174.531 233.685 174.68 233.612 174.813 233.497C175.159 233.199 175.573 233.005 175.96 232.765C176.202 232.616 176.442 232.492 176.661 232.309C176.852 232.149 177.045 231.966 177.252 231.831C177.478 231.684 177.683 231.499 177.895 231.332C178.091 231.179 178.316 231.067 178.498 230.895C178.66 230.742 178.837 230.625 179.008 230.486C179.232 230.304 179.382 230.047 179.62 229.877C179.945 229.645 180.235 229.357 180.558 229.119C180.719 229.001 180.857 228.871 181.002 228.734C181.031 228.706 181.104 228.688 181.114 228.643C181.12 228.615 181.178 228.547 181.207 228.533C181.236 228.52 181.253 228.538 181.265 228.503C181.276 228.474 181.277 228.458 181.302 228.446" stroke="black" stroke-width="3" stroke-linecap="round"/>
<path d="M181.8 228.093C181.81 228 181.928 227.944 181.987 227.885C182.042 227.829 182.092 227.771 182.141 227.71C182.283 227.533 182.449 227.388 182.61 227.23C182.833 227.01 183.077 226.834 183.265 226.587C183.468 226.32 183.733 226.104 183.983 225.884C184.053 225.823 184.083 225.76 184.129 225.68C184.232 225.5 184.365 225.328 184.481 225.156C184.619 224.953 184.819 224.799 184.966 224.603C185.036 224.51 185.139 224.457 185.225 224.383C185.327 224.296 185.428 224.192 185.52 224.094C185.684 223.917 185.841 223.731 186.022 223.571C186.155 223.452 186.295 223.361 186.416 223.23C186.679 222.946 187.067 222.817 187.271 222.471C187.391 222.268 187.481 222.054 187.622 221.863C187.706 221.749 187.776 221.613 187.843 221.488C188.027 221.147 188.234 220.832 188.479 220.532C188.629 220.348 188.807 220.188 188.995 220.046C189.098 219.968 189.28 219.848 189.335 219.725C189.397 219.589 189.542 219.524 189.609 219.391" stroke="black" stroke-width="3" stroke-linecap="round"/>
<path d="M189.443 219.245C189.507 219.242 189.503 219.206 189.531 219.158C189.592 219.051 189.648 218.98 189.745 218.903C189.899 218.777 190.096 218.672 190.233 218.529C190.339 218.418 190.469 218.326 190.563 218.205C190.691 218.038 190.838 217.891 190.983 217.738C191.149 217.562 191.342 217.454 191.481 217.249C191.587 217.093 191.695 216.933 191.829 216.799C192.082 216.547 192.301 216.278 192.533 216.008C192.861 215.627 193.24 215.296 193.567 214.914C193.675 214.788 193.806 214.693 193.922 214.577C194.068 214.432 194.101 214.272 194.188 214.095C194.274 213.918 194.358 213.703 194.49 213.555C194.564 213.472 194.619 213.37 194.712 213.303C194.801 213.239 194.864 213.153 194.959 213.098C195.059 213.04 195.162 212.972 195.261 212.909C195.396 212.822 195.506 212.698 195.655 212.641C195.719 212.616 195.781 212.551 195.831 212.506C196.066 212.293 196.339 212.118 196.575 211.905C196.7 211.791 196.877 211.72 196.982 211.586C197.058 211.489 197.186 211.371 197.285 211.296C197.391 211.213 197.48 211.12 197.589 211.042C197.643 211.003 197.714 210.972 197.751 210.917" stroke="black" stroke-width="3" stroke-linecap="round"/>
<path d="M198 210.959C198.099 210.937 198.24 210.764 198.316 210.705C198.429 210.617 198.534 210.526 198.645 210.437C198.768 210.339 198.869 210.219 198.993 210.119C199.15 209.992 199.264 209.822 199.382 209.661C199.587 209.382 199.818 209.096 200.084 208.874C200.418 208.594 200.739 208.301 201.096 208.05C201.227 207.957 201.329 207.833 201.454 207.733C201.561 207.647 201.674 207.557 201.771 207.46C201.859 207.372 201.947 207.269 202.029 207.174C202.125 207.063 202.234 206.969 202.331 206.86C202.665 206.487 203.192 206.261 203.628 206.037C203.873 205.911 204.045 205.691 204.292 205.56C204.409 205.497 204.502 205.421 204.615 205.351C204.691 205.305 204.727 205.227 204.812 205.194C204.894 205.163 205.02 205.081 205.082 205.019C205.206 204.895 205.403 204.878 205.539 204.749C205.599 204.692 205.661 204.623 205.73 204.578C205.795 204.537 205.797 204.503 205.839 204.458C205.883 204.412 205.923 204.368 205.975 204.334" stroke="black" stroke-width="3" stroke-linecap="round"/>
<path d="M177.5 180C177.5 229.057 142.409 268.5 99.5 268.5C56.5913 268.5 21.5 229.057 21.5 180C21.5 130.943 56.5913 91.5 99.5 91.5C142.409 91.5 177.5 130.943 177.5 180Z" fill="white" stroke="black" stroke-width="3"/>
<path d="M34.7824 43.3702L35.0898 18.3927L72.6808 21.7928L34.7824 43.3702Z" fill="white" stroke="black" stroke-width="3"/>
<path d="M121.729 19.2938L159.223 15.5257L160.097 40.4875L121.729 19.2938Z" fill="white" stroke="black" stroke-width="3"/>
<path d="M172.5 73.3995C172.5 88.7427 164.406 102.735 151.119 112.94C137.831 123.145 119.409 129.5 99 129.5C78.5909 129.5 60.169 123.145 46.8806 112.94C33.5939 102.735 25.5 88.7427 25.5 73.3995C25.5 58.0563 33.5939 44.0637 46.8806 33.8594C60.169 23.6539 78.5909 17.299 99 17.299C119.409 17.299 137.831 23.6539 151.119 33.8594C164.406 44.0637 172.5 58.0563 172.5 73.3995Z" fill="white" stroke="black" stroke-width="3"/>
<path d="M98.5 270C98.5 272.637 96.8508 275.225 93.7652 277.227C90.6941 279.219 86.3619 280.5 81.5 280.5C76.6381 280.5 72.3059 279.219 69.2348 277.227C66.1492 275.225 64.5 272.637 64.5 270C64.5 267.363 66.1492 264.775 69.2348 262.773C72.3059 260.781 76.6381 259.5 81.5 259.5C86.3619 259.5 90.6941 260.781 93.7652 262.773C96.8508 264.775 98.5 267.363 98.5 270Z" fill="white" stroke="black" stroke-width="3"/>
<line x1="95.5078" y1="263.866" x2="100.008" y2="219.847" stroke="black" stroke-width="3"/>
<line x1="71.1267" y1="261.037" x2="63.528" y2="222.289" stroke="black" stroke-width="3"/>
<path d="M135.5 270C135.5 272.637 133.851 275.225 130.765 277.227C127.694 279.219 123.362 280.5 118.5 280.5C113.638 280.5 109.306 279.219 106.235 277.227C103.149 275.225 101.5 272.637 101.5 270C101.5 267.363 103.149 264.775 106.235 262.773C109.306 260.781 113.638 259.5 118.5 259.5C123.362 259.5 127.694 260.781 130.765 262.773C133.851 264.775 135.5 267.363 135.5 270Z" fill="white" stroke="black" stroke-width="3"/>
<line x1="100.492" y1="219.843" x2="105.117" y2="263.849" stroke="black" stroke-width="3"/>
<line x1="136.007" y1="222.286" x2="128.472" y2="261.047" stroke="black" stroke-width="3"/>
<path d="M71.1963 71.302C71.1963 71.2369 71.226 71.1794 71.2735 71.1318C71.3305 71.0748 71.3897 70.9874 71.4232 70.912C71.4626 70.8233 71.5582 70.7447 71.5941 70.6489C71.6349 70.5403 71.7533 70.436 71.8202 70.3409C71.886 70.2474 71.9056 70.095 71.9904 70.0226C72.0665 69.9577 72.1579 69.8125 72.2047 69.724C72.2407 69.6561 72.2964 69.5988 72.3276 69.5294C72.3431 69.495 72.3759 69.4652 72.3867 69.4294C72.4148 69.3357 72.4535 69.2435 72.4836 69.1497C72.5028 69.0901 72.5138 69.0324 72.5403 68.9748C72.5894 68.8682 72.6354 68.7601 72.6766 68.6502C72.7207 68.5327 72.7425 68.4072 72.7877 68.2909C72.8025 68.2528 72.8313 68.2228 72.8499 68.1869C72.9058 68.0795 72.956 67.9701 73.0114 67.8624C73.1029 67.6845 73.1456 67.4617 73.273 67.2999C73.4025 67.1353 73.4174 66.919 73.4857 66.724C73.507 66.663 73.521 66.5969 73.5361 66.5341C73.5573 66.4461 73.6171 66.3769 73.6354 66.2899C73.6481 66.2298 73.6638 66.1878 73.6638 66.126" stroke="black" stroke-linecap="round"/>
<path d="M70.9282 71.1283C71.0331 71.0694 70.9017 70.9797 70.858 70.932C70.7805 70.8474 70.6909 70.8356 70.6474 70.7093C70.5873 70.5349 70.5036 70.356 70.417 70.1937C70.3928 70.1483 70.3503 70.0748 70.3117 70.0424C70.2661 70.004 70.2658 69.9347 70.2174 69.8997C70.183 69.8749 70.1648 69.8106 70.1395 69.7747C70.1069 69.7285 70.0769 69.6838 70.0408 69.6387C69.9751 69.5566 69.8982 69.495 69.8225 69.4193C69.7858 69.3826 69.7136 69.2825 69.7051 69.2317C69.6959 69.1763 69.627 69.1163 69.5855 69.0748C69.429 68.9183 69.4208 68.6841 69.2696 68.5329C69.2065 68.4699 69.1613 68.398 69.093 68.3355C69.0602 68.3054 69.0114 68.3108 68.9976 68.2653C68.9774 68.1986 68.9355 68.137 68.8966 68.0788C68.7801 67.904 68.6422 67.7267 68.5544 67.5413C68.518 67.4645 68.4583 67.4158 68.4107 67.3471C68.3746 67.295 68.3663 67.2429 68.3405 67.187C68.2855 67.0679 68.1622 67.0099 68.12 66.8787C68.0928 66.7942 68.0059 66.688 68.0059 66.6067C68.0059 66.5477 67.9664 66.5024 67.9664 66.4377C67.9664 66.3759 67.9417 66.3417 67.9225 66.2864C67.893 66.2011 67.9094 66.1175 67.8381 66.0461C67.7475 65.9556 67.7102 65.8244 67.6549 65.7072C67.6299 65.6541 67.6347 65.6114 67.6297 65.5558C67.6175 65.4215 67.5544 65.2954 67.5233 65.1653C67.5075 65.0993 67.51 65.0157 67.4881 64.9524C67.4746 64.9132 67.4217 64.888 67.4136 64.8493C67.4049 64.8084 67.3675 64.7742 67.3455 64.7396C67.3232 64.7045 67.3246 64.6576 67.305 64.6223C67.2582 64.5381 67.2556 64.458 67.2556 64.3645C67.2556 64.2875 67.254 64.2112 67.2051 64.1484C67.1441 64.0699 67.1766 63.9115 67.1766 63.816C67.1766 63.6359 67.1596 63.4488 67.1766 63.2697C67.1883 63.1465 67.2438 63.0223 67.2545 62.8945C67.2624 62.7993 67.2788 62.711 67.2753 62.6137C67.2727 62.5393 67.2556 62.4678 67.2556 62.391C67.2556 62.3138 67.2161 62.255 67.2161 62.1837" stroke="black" stroke-linecap="round"/>
<path d="M73.6294 65.9102C73.6294 65.0388 73.7067 64.1763 73.7067 63.3111C73.7067 63.0832 73.7194 62.8514 73.7067 62.6238C73.6957 62.4246 73.6701 62.1248 73.5714 61.9472C73.4673 61.7597 73.5591 61.5555 73.3996 61.3694C73.3346 61.2936 73.3857 61.189 73.3029 61.1181C73.2514 61.074 73.2149 60.8837 73.174 60.8066C73.0849 60.6382 72.8948 60.3891 72.8948 60.188C72.8948 59.9768 72.7896 59.797 72.7788 59.5866C72.7695 59.404 72.6611 59.3299 72.5468 59.2043C72.1979 58.8204 71.8573 58.4148 71.6103 57.9456C71.4683 57.6757 71.2421 57.4373 71.0862 57.1723C71.0268 57.0713 70.9274 57.0394 70.8929 56.9188C70.8517 56.7746 70.7485 56.6657 70.6352 56.573C70.4821 56.4478 70.4131 56.2247 70.285 56.0682C70.1194 55.8657 69.9849 55.6929 69.8018 55.5098" stroke="black" stroke-linecap="round"/>
<path d="M67.2495 62.1598C67.2495 61.6835 67.0814 61.0584 67.2495 60.5961C67.3243 60.3905 67.4696 60.1818 67.4815 59.956C67.4844 59.9014 67.5341 59.8799 67.5502 59.8315C67.5731 59.7628 67.5475 59.6926 67.5781 59.6253C67.6361 59.4977 67.6209 59.3612 67.6662 59.2343C67.7652 58.9572 67.8101 58.6717 68.0034 58.4353C68.0839 58.337 68.1479 58.2699 68.2075 58.1389C68.2631 58.0165 68.3848 57.83 68.4094 57.7071C68.4523 57.4925 68.5701 57.3306 68.6843 57.1465C68.9209 56.7654 69.0866 56.3393 69.3287 55.9651C69.3556 55.9236 69.3236 55.8637 69.3459 55.8191C69.3717 55.7675 69.4408 55.7625 69.4705 55.7031C69.5108 55.6225 69.5319 55.5605 69.608 55.5098" stroke="black" stroke-linecap="round"/>
<path d="M70.1494 66.1422C70.1494 66.2733 70.249 66.3367 70.2654 66.4515C70.2885 66.6134 70.3014 66.7414 70.3642 66.9004C70.417 67.0338 70.567 67.2325 70.5747 67.3794C70.5838 67.5515 70.6585 67.797 70.7508 67.9421C70.8458 68.0913 70.8385 68.3928 70.8754 68.5693C70.9125 68.7465 70.9227 68.896 70.9227 69.0805" stroke="black" stroke-width="3" stroke-linecap="round"/>
<path d="M70.111 59.9947C70.111 59.8481 70.1325 59.7582 70.0036 59.6639C69.9052 59.592 69.8254 59.4689 69.7823 59.3568C69.6992 59.1407 69.8472 58.8524 69.7243 58.6501C69.5948 58.4367 69.6083 58.1688 69.6083 57.9262C69.6083 57.8253 69.6083 57.7243 69.6083 57.6234C69.6083 57.3729 69.5467 58.1624 69.6857 58.3709" stroke="black" stroke-width="3" stroke-linecap="round"/>
<path d="M69.5693 66.5674C69.4354 66.5526 69.336 66.3437 69.2428 66.256C69.03 66.0557 69.064 65.8742 68.9893 65.6223C68.8944 65.3021 68.8733 64.9247 68.8733 64.5935C68.8733 64.2636 68.7536 63.9592 68.7208 63.6312C68.6361 62.7838 68.7187 61.8943 68.7187 61.0408C68.7187 60.7436 68.7538 60.4267 68.8648 60.1494C68.9173 60.0181 68.8733 59.787 68.8733 59.6467" stroke="black" stroke-width="3" stroke-linecap="round"/>
<path d="M71.7737 66.3355C71.8204 66.3296 71.8784 65.6847 71.8875 65.6116C71.9074 65.4526 71.8657 65.9352 71.8124 66.0863C71.7762 66.1888 71.675 66.2389 71.6599 66.3526C71.6456 66.4592 71.6577 66.5738 71.6577 66.6813C71.6577 66.8366 71.6577 66.992 71.6577 67.1474C71.6577 67.2098 71.6577 67.2203 71.6577 67.1474C71.6577 66.9584 71.6577 66.7693 71.6577 66.5803C71.6577 66.4233 71.6669 66.2733 71.6276 66.1207C71.6084 66.0459 71.5459 65.9889 71.5417 65.9102C71.5105 65.3175 71.5175 64.6667 71.3806 64.078C71.3445 63.9226 71.3131 63.7338 71.2281 63.5947C71.201 63.5504 71.235 63.8277 71.241 63.8524C71.3326 64.2298 71.3484 64.5914 71.3484 64.978C71.3484 65.3792 71.3783 65.782 71.4279 66.1787C71.4499 66.3546 71.4644 66.5191 71.4644 66.7006C71.4644 66.8469 71.2433 67.3186 71.3183 66.9369C71.3512 66.7693 71.4649 66.6294 71.4988 66.4686C71.5347 66.2979 71.503 66.0908 71.503 65.9166C71.503 65.6889 71.503 65.4612 71.503 65.2336C71.503 64.9867 71.619 64.7801 71.619 64.5355C71.619 64.3578 71.5804 64.1882 71.5804 64.0157" stroke="black" stroke-width="3" stroke-linecap="round"/>
<path d="M71.8117 64.7889C72.0213 64.7889 71.9359 64.3246 71.9191 64.1789C71.8916 63.9406 71.7562 63.7567 71.6828 63.5367C71.629 63.3754 71.5972 63.1447 71.5819 62.9761C71.5466 62.5878 71.4457 62.1979 71.3649 61.8119C71.3248 61.62 71.2318 61.425 71.2318 61.2298C71.2318 60.9987 71.1971 60.7606 71.1372 60.5381C71.0968 60.3878 71.0384 60.1648 71.0384 60.014C71.0384 59.8806 70.8618 59.7116 70.8451 59.5694C70.8411 59.5354 70.7355 59.4021 70.7077 59.3782C70.6198 59.3029 70.6494 59.4876 70.654 59.5329C70.678 59.7731 70.7291 59.9804 70.7291 60.2267" stroke="black" stroke-width="3" stroke-linecap="round"/>
<path d="M71.0391 61.6572C71.1269 61.6767 71.3408 62.1506 71.3484 62.2458C71.3737 62.562 71.546 62.8563 71.5803 63.1651C71.5941 63.2886 71.6481 63.5515 71.7264 63.6376C71.8622 63.787 71.8162 63.6225 71.8123 63.4744C71.8073 63.2835 71.695 63.0149 71.5803 62.8644C71.4609 62.7076 71.5008 62.4915 71.4257 62.3059C71.3927 62.2245 71.3138 61.8848 71.4944 62.0052C71.7288 62.1614 71.8003 62.4861 71.851 62.7398" stroke="black" stroke-width="3" stroke-linecap="round"/>
<path d="M85.0105 71.2091C84.7843 71.2091 84.7317 71.2598 84.5796 71.4118C84.4841 71.5074 84.3618 71.6272 84.2552 71.7084C84.1572 71.7831 83.9997 71.7965 83.9156 71.8681C83.6926 72.0576 83.4153 72.0275 83.1653 72.1418C82.8779 72.2732 82.5435 72.3387 82.2326 72.3953C82.0745 72.424 81.9464 72.5215 81.7815 72.5321C81.6595 72.54 81.4982 72.5565 81.3835 72.6006C80.8871 72.7915 80.3732 72.89 79.8729 73.0568C79.1033 73.3133 78.3281 73.4902 77.5285 73.4902C76.8676 73.4902 76.2455 73.5814 75.5819 73.5814C74.7099 73.5814 73.8824 73.6581 73.0169 73.7158C72.2557 73.7665 71.495 73.7639 70.7307 73.7639C70.408 73.7639 70.0853 73.7639 69.7625 73.7639C69.3032 73.7639 68.9132 73.5408 68.4699 73.4902C68.0241 73.4392 67.5896 73.2012 67.1418 73.1227C66.5773 73.0236 66.0564 72.7545 65.5602 72.4789C65.0342 72.1867 64.5041 71.871 64.0344 71.4929C63.8275 71.3265 63.643 71.067 63.459 70.8694C62.9968 70.373 62.5136 69.9042 61.9966 69.4653C61.6989 69.2125 61.5674 68.8806 61.3224 68.5883C61.1233 68.3508 60.977 68.0873 60.851 67.8051C60.7451 67.5682 60.5819 67.4001 60.4302 67.1943C60.1027 66.7498 59.8516 66.2719 59.5634 65.8003C59.4135 65.555 59.2686 65.3281 59.0996 65.0957C59.0277 64.9968 58.9602 64.8312 58.9602 64.7054C58.9602 64.1037 58.5426 63.5617 58.3874 62.9971C58.3009 62.6827 58.2404 62.361 58.1542 62.0491C58.121 61.9291 58.0474 61.6557 57.9717 61.5523C57.6166 61.0682 57.3272 60.6626 57.1099 60.0874C56.9659 59.7062 56.8476 59.2893 56.7247 58.9012C56.6733 58.7391 56.6054 58.6299 56.565 58.4602C56.5298 58.3125 56.4873 58.1673 56.4509 58.0217C56.3586 57.6522 56.1935 57.3623 56.0251 57.0256C55.9023 56.7799 55.8523 56.5019 55.7666 56.2449" stroke="black" stroke-width="3" stroke-linecap="round"/>
<path d="M84.5632 70.0947C84.5632 69.8971 84.5991 69.655 84.5552 69.4628C84.4761 69.1167 84.305 68.8206 84.199 68.4828C84.0966 68.1565 84.0245 67.8447 83.9113 67.523C83.7234 66.9891 83.6033 66.4321 83.4203 65.8931C83.3982 65.8281 83.3811 65.7612 83.3599 65.6959C83.3071 65.533 83.1577 65.4321 83.1003 65.2733C82.9499 64.8567 82.9054 64.3775 82.8327 63.9412C82.7706 63.5689 82.5026 63.1432 82.3316 62.8123C82.0729 62.3116 81.7766 61.8321 81.5207 61.3293C81.1998 60.6987 80.8303 60.0658 80.424 59.4881C80.2909 59.2987 80.204 59.0845 80.0759 58.8924C80.0204 58.8092 79.9385 58.7805 79.8666 58.7134C79.4262 58.3016 78.9378 57.9073 78.4098 57.6187C78.0455 57.4195 77.6784 57.1853 77.3574 56.9245C77.2782 56.8601 77.2706 56.7925 77.1722 56.7434C77.064 56.6892 76.9332 56.6326 76.8322 56.5683C76.0076 56.0436 75.1901 55.5147 74.4778 54.8418C74.1695 54.5505 73.9577 54.4091 73.5683 54.2643C73.1171 54.0964 72.6887 53.9825 72.2241 53.8598C72.1094 53.8295 72.0128 53.7312 71.8941 53.723C71.7604 53.7137 71.6327 53.6896 71.4997 53.6686C70.8874 53.572 70.2721 53.4941 69.6605 53.397C69.2113 53.3256 68.7674 53.2095 68.3143 53.1636C68.0471 53.1365 67.7738 53.1174 67.5054 53.1092C67.1652 53.0989 66.8524 53.0052 66.5173 52.9704C65.8785 52.9041 65.1297 52.8399 64.497 52.9623C64.2714 53.006 64.0535 53.0839 63.829 53.1273C63.6055 53.1706 63.3899 53.1674 63.1669 53.232C62.6279 53.388 62.0448 53.4123 61.5149 53.5942C61.2104 53.6987 60.9487 53.7959 60.6255 53.8497C60.2249 53.9165 59.7606 53.9775 59.3899 54.1496C59.258 54.2108 59.1333 54.2176 58.9915 54.2381C58.6662 54.2851 58.3586 54.4166 58.0317 54.4675C57.7637 54.5092 57.5271 54.5923 57.2529 54.5923" stroke="black" stroke-width="3" stroke-linecap="round"/>
<path d="M57.627 54.3511C57.1311 54.3511 56.6761 54.5695 56.2446 54.7852C56.0628 54.8761 55.8114 54.832 55.6102 54.832C55.3514 54.832 55.2272 55.0724 54.9824 55.0724" stroke="black" stroke-width="3" stroke-linecap="round"/>
<path d="M111.103 71.1073C111.122 71.2978 111.189 71.5108 111.374 71.6037C111.78 71.8066 112.138 72.0981 112.62 72.1583C112.725 72.1715 112.821 72.2375 112.924 72.2641C113.158 72.3248 113.395 72.3676 113.628 72.4367C113.904 72.519 114.187 72.5818 114.45 72.7022C114.778 72.8528 115.144 72.9473 115.484 73.0799C115.646 73.1434 115.832 73.1358 116.001 73.1748C116.428 73.2728 116.844 73.4155 117.275 73.4985C117.872 73.6136 118.504 73.5678 119.094 73.6906C119.259 73.7249 119.405 73.8579 119.571 73.8654C120.188 73.8935 120.767 74.0985 121.392 74.0985C122.683 74.0985 123.974 74.0985 125.264 74.0985C125.599 74.0985 125.936 74.1102 126.27 74.0985C126.438 74.0926 126.595 74.019 126.758 73.9819C127.205 73.88 127.646 73.8147 128.074 73.641C128.409 73.5049 128.731 73.3463 129.067 73.205C129.307 73.1039 129.562 73.036 129.8 72.9331C129.925 72.8794 130.011 72.7781 130.146 72.7302C131.12 72.3849 132.019 71.8641 132.882 71.2972C133.376 70.9731 133.908 70.5576 134.201 70.0391C134.266 69.9242 134.379 69.8444 134.449 69.7304C134.563 69.546 134.661 69.3701 134.79 69.1952C134.884 69.0677 134.922 68.9201 135.004 68.7873C135.137 68.5706 135.316 68.3852 135.455 68.1723C135.997 67.339 136.446 66.4406 136.866 65.5394C136.954 65.3505 137.057 65.1215 137.173 64.9481C137.354 64.6764 137.466 64.363 137.654 64.0956C137.721 64 137.756 63.9066 137.79 63.7956C137.844 63.6196 137.954 63.4832 138.027 63.3165C138.111 63.1255 138.225 62.937 138.334 62.7554" stroke="black" stroke-width="3" stroke-linecap="round"/>
<path d="M138.489 62.25C138.565 61.9934 138.68 61.769 138.693 61.4923C138.703 61.2723 138.745 61.0418 138.831 60.8388C138.937 60.5894 138.981 60.3225 139.05 60.0615C139.146 59.6945 139.251 59.3304 139.34 58.9615C139.455 58.486 139.552 58.0138 139.677 57.5421C139.743 57.2928 139.835 57.0387 139.959 56.8136C140.002 56.736 140.088 56.6051 140.101 56.5187C140.116 56.4227 140.161 56.3079 140.161 56.2074" stroke="black" stroke-width="3" stroke-linecap="round"/>
<path d="M110.979 71.2431C110.979 70.5842 111.193 70.0266 111.45 69.4178C111.54 69.2059 111.557 68.9952 111.593 68.7695C111.625 68.5676 111.746 68.4216 111.837 68.2464C111.899 68.127 111.925 67.9025 112.025 67.8171C112.134 67.7238 112.085 67.5205 112.167 67.4162C112.468 67.0329 112.603 66.6437 112.77 66.1765C113 65.5311 113.41 64.9542 113.64 64.3114C113.993 63.3226 114.441 62.4006 114.851 61.4341C115.024 61.0251 115.141 60.6221 115.357 60.2286C115.564 59.8516 115.772 59.5152 116.005 59.1538C116.234 58.7989 116.516 58.4544 116.773 58.1189C116.897 57.9562 117.016 57.7821 117.148 57.6271C117.358 57.38 117.606 57.1711 117.814 56.9248C118.178 56.493 118.588 56.1141 119.104 55.8387C119.315 55.7263 119.539 55.6282 119.727 55.4776C119.895 55.3433 120.069 55.3298 120.242 55.2132C120.625 54.9544 121.04 54.801 121.436 54.5706C121.678 54.4297 121.972 54.3782 122.209 54.2294C122.572 54.0017 123.002 53.8625 123.426 53.7404C123.911 53.6007 124.379 53.3071 124.899 53.2798C125.83 53.2308 126.771 53.1474 127.702 53.1263C127.968 53.1202 128.236 53.0315 128.504 53.0239C129.138 53.0061 129.766 52.9727 130.403 52.9727C130.849 52.9727 131.295 52.9216 131.745 52.9216C132.315 52.9216 132.817 53.2465 133.383 53.2798C133.778 53.3031 134.221 53.5251 134.611 53.6125C134.872 53.671 135.132 53.8335 135.402 53.8428C135.607 53.8499 135.826 53.8797 136.027 53.9224C136.213 53.9618 136.457 54.0863 136.63 54.0987C136.986 54.1241 137.27 54.215 137.605 54.3489C137.748 54.4059 137.898 54.5 138.051 54.5081C138.466 54.5299 138.807 55.0901 139.24 55.1222C139.431 55.1364 139.684 55.3171 139.78 55.4804C139.877 55.646 140.048 55.7204 140.15 55.8899" stroke="black" stroke-width="3" stroke-linecap="round"/>
<path d="M124.746 71.5654C124.746 71.4855 124.818 71.3958 124.848 71.3227C124.903 71.1887 124.962 71.0468 125.062 70.9417C125.169 70.8289 125.235 70.6925 125.365 70.5958C125.481 70.5092 125.584 70.419 125.692 70.3212C125.827 70.1986 125.951 70.0582 126.093 69.9443C126.224 69.8383 126.343 69.6437 126.428 69.5003C126.483 69.4086 126.527 69.3102 126.59 69.2236C126.659 69.1297 126.684 69.0203 126.764 68.9345C126.887 68.8011 126.988 68.6267 127.098 68.4802C127.209 68.3327 127.322 68.1795 127.412 68.0166C127.497 67.8629 127.585 67.6973 127.691 67.5571C127.831 67.3725 128.042 67.1552 128.093 66.9283C128.121 66.8013 128.22 66.6647 128.277 66.5473C128.349 66.3995 128.422 66.2654 128.475 66.1085C128.526 65.9538 128.581 65.8032 128.626 65.6449C128.663 65.5193 128.73 65.4085 128.761 65.2845C128.808 65.0962 128.918 64.9331 128.965 64.7445" stroke="black" stroke-linecap="round"/>
<path d="M124.691 71.3981C124.691 71.3259 124.667 71.3088 124.635 71.2494C124.551 71.0961 124.488 70.9257 124.416 70.7662C124.367 70.6586 124.344 70.5391 124.292 70.4317C124.243 70.3305 124.213 70.2019 124.152 70.1095C124.113 70.0516 124.034 69.9418 123.98 69.903C123.925 69.8631 123.809 69.7514 123.784 69.6841C123.739 69.5639 123.654 69.4794 123.598 69.362C123.522 69.201 123.487 69.0233 123.417 68.8602C123.332 68.6613 123.315 68.4414 123.213 68.2479C123.148 68.1244 123.136 67.9744 123.074 67.8503C122.998 67.6997 122.922 67.5555 122.834 67.4115C122.759 67.2888 122.767 67.1144 122.738 66.9779C122.715 66.8686 122.644 66.7855 122.6 66.6877C122.557 66.5937 122.523 66.5036 122.48 66.41C122.436 66.3141 122.387 66.2214 122.349 66.1209C122.328 66.0664 122.274 65.9916 122.274 65.934" stroke="black" stroke-linecap="round"/>
<path d="M122.339 66.2319C122.325 66.1185 122.199 66.0589 122.193 65.9408C122.189 65.8563 122.193 65.7707 122.193 65.686C122.193 65.434 122.193 65.1819 122.193 64.9299C122.193 64.7452 122.193 64.5606 122.193 64.3759C122.193 64.0279 122.128 63.624 122.211 63.2902C122.265 63.0776 122.266 62.7934 122.266 62.5745C122.266 62.4759 122.339 62.4006 122.339 62.3178C122.339 62.1849 122.369 62.0106 122.403 61.8811C122.454 61.6906 122.521 61.4409 122.521 61.2462C122.521 61.1345 122.657 61.1072 122.666 60.9834C122.671 60.9142 122.705 60.8927 122.739 60.8378C122.799 60.7413 122.801 60.6246 122.832 60.5184C122.898 60.2938 123.103 60.0344 123.103 59.8047C123.103 59.673 123.197 59.5972 123.249 59.4812C123.291 59.3861 123.384 59.2351 123.449 59.1557C123.53 59.0561 123.536 58.9788 123.596 58.8646C123.66 58.7438 123.814 58.6169 123.829 58.4804C123.861 58.1891 124.146 58.0208 124.304 57.7971C124.411 57.6455 124.689 57.4318 124.704 57.2593C124.709 57.2035 124.816 57.0785 124.858 57.0328C124.946 56.9381 125 56.8311 125.096 56.7538C125.174 56.6922 125.183 56.5508 125.268 56.4748C125.331 56.4187 125.421 56.3059 125.434 56.2261C125.441 56.183 125.561 56.1389 125.6 56.1129C125.807 55.9749 126.086 55.8617 126.196 55.6418" stroke="black" stroke-linecap="round"/>
<path d="M128.999 64.7399C128.999 64.4201 128.998 64.1013 129.033 63.7896C129.075 63.4085 128.926 63.053 128.926 62.6857C128.926 62.3077 128.926 61.9296 128.926 61.5515C128.926 61.339 128.931 61.1474 128.861 60.947C128.792 60.747 128.815 60.554 128.762 60.3546C128.704 60.1355 128.66 59.8998 128.631 59.6773C128.602 59.4637 128.549 59.1777 128.471 58.9758C128.426 58.8586 128.432 58.7279 128.38 58.6098C128.326 58.4878 128.373 58.3491 128.307 58.2338C128.259 58.1487 128.217 58.0474 128.196 57.9527C128.157 57.7788 127.929 57.6736 127.862 57.5059C127.837 57.4414 127.767 57.3488 127.725 57.2876C127.7 57.2519 127.605 57.0665 127.595 57.0611C127.426 56.9642 127.363 56.6495 127.252 56.5031C127.144 56.361 126.983 56.2424 126.886 56.0967C126.827 56.008 126.759 55.8806 126.684 55.8056C126.621 55.7431 126.484 55.7084 126.451 55.6418" stroke="black" stroke-linecap="round"/>
<path d="M124.632 68.0151C124.632 67.2672 124.65 66.5247 124.697 65.7791C124.728 65.2845 124.741 64.7827 124.741 64.287C124.741 64.1825 124.676 63.9028 124.814 63.9028" stroke="black" stroke-width="3" stroke-linecap="round"/>
<path d="M124.559 66.4503C124.176 66.4155 123.948 65.8755 123.851 65.5425C123.739 65.1587 123.831 64.6499 123.831 64.2506C123.831 63.8762 123.794 63.5063 123.794 63.1305C123.794 62.7334 123.777 62.3318 123.867 61.9417C123.92 61.7155 124.01 61.5172 124.049 61.2826" stroke="black" stroke-width="3" stroke-linecap="round"/>
<path d="M125.869 68.2699C125.869 67.8868 125.86 67.5623 125.995 67.1963C126.018 67.1325 126.037 67.047 126.049 66.98C126.07 66.8635 126.15 66.7922 126.205 66.6888C126.346 66.423 126.44 66.0747 126.452 65.771C126.474 65.2065 126.786 64.7486 126.813 64.1899C126.852 63.4184 126.815 62.6368 126.815 61.8649" stroke="black" stroke-width="3" stroke-linecap="round"/>
<path d="M127.07 65.213C127.07 64.661 127.142 64.1417 127.142 63.5895C127.142 62.6796 127.028 61.7759 126.742 60.9187" stroke="black" stroke-width="3" stroke-linecap="round"/>
<path d="M126.124 62.993C125.985 62.8185 126.013 62.5082 125.96 62.2996C125.887 62.0054 125.852 61.7032 125.801 61.41C125.736 61.0371 125.836 60.6475 125.76 60.2717C125.741 60.1787 125.645 59.6766 125.732 59.5803C125.841 59.4593 125.906 59.1817 125.906 59.0081C125.906 58.8317 126.015 58.6842 126.015 58.5027C126.015 58.1881 126.197 57.9437 126.197 57.6434" stroke="black" stroke-width="3" stroke-linecap="round"/>
<path d="M126.27 58.3712C126.27 58.7487 126.268 59.0938 126.342 59.463C126.366 59.5785 126.381 59.717 126.423 59.8269C126.471 59.9533 126.578 60.1136 126.595 60.2434C126.629 60.5018 126.669 60.7561 126.724 61.0097C126.75 61.126 126.751 61.2463 126.799 61.3574C126.86 61.4971 126.864 61.3861 126.961 61.3918C127.051 61.3971 127.07 61.9521 127.07 61.7638C127.07 61.3121 127.107 60.87 127.107 60.4173C127.107 60.2707 127.127 60.1015 127.105 59.9543C127.093 59.8781 127.034 59.8122 127.034 59.7359C127.034 59.6498 126.948 59.5775 126.925 59.4954C126.89 59.3748 126.85 59.2561 126.815 59.1355" stroke="black" stroke-width="3" stroke-linecap="round"/>
<path d="M125.068 61.0279C125.068 60.7568 125.029 60.5267 124.951 60.2717C124.901 60.1096 124.884 59.8308 124.977 59.6814C125.051 59.5629 125.017 59.3759 125.104 59.2447" stroke="black" stroke-width="3" stroke-linecap="round"/>
<path d="M124.778 70.1623C124.739 70.5121 124.741 69.4589 124.741 69.1069" stroke="black" stroke-linecap="round"/>
<path d="M140.091 55.3582C140.006 55.3475 140.082 55.3059 140.13 55.3078C140.224 55.3114 140.273 55.4087 140.369 55.4087C140.506 55.4087 140.647 55.4591 140.797 55.4591" stroke="black" stroke-width="3" stroke-linecap="round"/>
<path d="M124.704 68.7066C124.852 68.7066 124.813 68.3481 124.813 68.6702" stroke="black" stroke-width="3" stroke-linecap="round"/>
<path d="M99.0381 101.774C99.0381 101.476 99.1798 101.285 99.3894 101.083C99.5648 100.914 99.6907 100.927 99.9182 100.927C100.192 100.927 100.411 100.921 100.668 100.797C100.869 100.699 101.058 100.641 101.255 100.521C101.334 100.473 101.547 100.392 101.581 100.308C101.64 100.16 101.838 100.083 101.937 99.9672C102.033 99.8552 102.182 99.788 102.305 99.6956C102.364 99.651 102.5 99.5857 102.576 99.558C102.754 99.4933 102.915 99.2521 103.047 99.1197C103.236 98.9306 103.412 98.7399 103.618 98.5656C103.782 98.4269 104.032 98.4031 104.204 98.2686C104.352 98.1535 104.449 97.9678 104.597 97.8467C104.67 97.787 104.769 97.7491 104.815 97.6674C104.883 97.5439 105.094 97.5331 105.181 97.423C105.291 97.2825 105.493 97.1726 105.655 97.0735C105.686 97.0547 105.837 96.9313 105.851 96.9014C105.877 96.8426 105.972 96.7903 106.013 96.7294C106.061 96.659 106.138 96.598 106.193 96.5248C106.244 96.4568 106.291 96.3506 106.356 96.2984C106.499 96.1837 106.627 96.1118 106.794 96.0178C106.889 95.9645 107.007 95.8216 107.089 95.7443C107.149 95.6878 107.261 95.5865 107.285 95.5161" stroke="black" stroke-linecap="round"/>
<path d="M107.44 95.2407C107.515 95.2361 107.553 95.0721 107.557 95.0066C107.566 94.8351 107.614 94.6881 107.687 94.5384C107.748 94.4135 107.833 94.0767 107.973 94.0182C108.061 93.9816 108.11 93.7976 108.199 93.7477C108.303 93.6903 108.341 93.5637 108.423 93.472C108.488 93.4 108.523 93.2787 108.569 93.1911C108.631 93.0732 108.679 92.9682 108.725 92.8425C108.757 92.7535 108.778 92.6536 108.799 92.5603C108.82 92.4641 108.921 92.3776 108.939 92.269C108.973 92.0663 109.024 91.8448 109.08 91.6487C109.092 91.6076 109.123 91.6067 109.125 91.5472C109.128 91.4711 109.172 91.4087 109.172 91.3326C109.172 91.1875 109.159 91.0513 109.216 90.9217C109.258 90.8277 109.192 90.6932 109.231 90.5939C109.356 90.2679 109.289 89.8451 109.289 89.5002C109.289 89.4161 109.289 89.332 109.289 89.2479C109.289 89.1653 109.246 89.0798 109.242 88.9956C109.234 88.7803 109.219 88.5645 109.219 88.3453C109.219 88.222 109.233 88.1254 109.149 88.0306C109.084 87.9579 109.108 87.8278 109.05 87.7548C109.028 87.7271 109.032 87.7044 109.032 87.6677C109.032 87.6298 108.98 87.5862 108.961 87.5494C108.908 87.4427 108.849 87.3977 108.82 87.2671C108.775 87.0661 108.676 86.8815 108.634 86.678C108.621 86.6178 108.601 86.4574 108.551 86.414C108.458 86.3347 108.369 86.2424 108.26 86.1721C108.074 86.0508 107.919 85.8742 107.756 85.7208C107.675 85.645 107.635 85.5438 107.557 85.4659C107.515 85.4235 107.454 85.3999 107.406 85.3632C107.247 85.2418 107.065 85.0866 106.961 84.9171C106.892 84.8037 106.787 84.7631 106.667 84.7168C106.593 84.6877 106.527 84.6576 106.449 84.631C106.374 84.6052 106.167 84.5949 106.129 84.5191" stroke="black" stroke-linecap="round"/>
<path d="M98.8105 86.3614C98.8105 86.2815 98.8615 86.2064 98.8952 86.1373C98.9233 86.0795 98.9278 86.0094 98.9665 85.9586C98.9968 85.9188 99.0228 85.8825 99.0504 85.8426C99.1304 85.727 99.2378 85.623 99.3278 85.515C99.3949 85.4345 99.4772 85.3555 99.5582 85.2893C99.5961 85.2583 99.6398 85.2421 99.6742 85.2078C99.7215 85.1605 99.7774 85.1416 99.8302 85.1027C99.9474 85.0164 100.084 84.9515 100.207 84.8739C100.402 84.7513 100.58 84.597 100.77 84.4663C101.041 84.2801 101.365 84.1678 101.66 84.04C101.696 84.0247 101.745 84.0345 101.782 84.0329C101.864 84.0295 101.944 84.0098 102.025 84.0063C102.118 84.0023 102.204 84.0067 102.295 83.9914C102.648 83.9319 103.009 83.9205 103.361 83.8535C103.529 83.8215 103.721 83.8503 103.892 83.8503C104.147 83.8503 104.402 83.8503 104.657 83.8503C104.781 83.8503 104.903 83.845 105.025 83.8715C105.136 83.8956 105.254 83.8939 105.352 83.9585C105.552 84.0912 105.787 84.1507 105.996 84.2673C106.066 84.3066 106.13 84.3325 106.191 84.388C106.299 84.4874 106.377 84.625 106.488 84.7171C106.529 84.751 106.547 84.7783 106.591 84.8026C106.629 84.8237 106.67 84.8383 106.711 84.8519" stroke="black" stroke-linecap="round"/>
<path d="M98.3921 86.6247C98.4531 86.5333 98.0806 86.3126 97.9849 86.2832C97.8903 86.2541 97.8217 86.1172 97.7412 86.0584C97.6696 86.0061 97.6388 85.9349 97.5733 85.876C97.4502 85.7651 97.244 85.6869 97.1033 85.5884C96.9552 85.4847 96.8234 85.3893 96.6844 85.279C96.5941 85.2073 96.5242 85.1163 96.4465 85.0338C96.2875 84.8648 96.095 84.7296 95.9137 84.5871C95.8557 84.5415 95.7641 84.5137 95.6977 84.4835C95.6582 84.4655 95.6171 84.472 95.5751 84.4704C95.5061 84.4677 95.5222 84.4246 95.4759 84.3974C95.2983 84.293 95.0896 84.2864 94.8862 84.2864C94.6954 84.2864 94.5662 84.1366 94.387 84.104C94.1715 84.0648 93.9649 83.9696 93.7389 83.9507C93.3384 83.9174 92.932 83.9712 92.5333 83.9712C92.4199 83.9712 92.3066 83.9712 92.1932 83.9712C92.136 83.9712 91.953 83.9436 91.9042 83.9843C91.861 84.0203 91.7717 84.0073 91.7188 84.0296C91.6559 84.0561 91.5557 84.1439 91.4926 84.1536C91.3256 84.1793 91.1511 84.1219 91.0036 84.2222C90.9174 84.2809 90.7974 84.3337 90.7 84.3711C90.5962 84.4111 90.5542 84.5024 90.4723 84.5492C90.3738 84.6055 90.2819 84.6958 90.195 84.774C90.1689 84.7975 90.1206 84.7836 90.0885 84.8017C89.9988 84.8521 89.9059 84.8925 89.8155 84.9418C89.7401 84.9829 89.6524 85.0274 89.5747 85.0513C89.4602 85.0865 89.3714 85.2208 89.2696 85.2848C89.1386 85.3673 89.0633 85.471 88.9456 85.568C88.7858 85.6996 88.7235 85.895 88.5004 85.9942C88.3121 86.0779 88.3011 86.3187 88.2114 86.4802C88.1608 86.5714 88.0783 86.6409 88.0144 86.724C87.9884 86.7578 87.9336 86.7526 87.9151 86.794C87.8914 86.8474 87.9093 86.8651 87.8684 86.9137C87.7731 87.0269 87.8103 87.2051 87.7254 87.3399C87.6631 87.4389 87.5841 87.5497 87.5663 87.6654C87.5604 87.7035 87.4952 87.9219 87.4743 87.9398C87.3407 88.0544 87.3851 88.3051 87.2933 88.4492C87.2563 88.5074 87.2548 88.6807 87.2525 88.747C87.2483 88.8644 87.2314 88.986 87.1999 89.1002C87.072 89.564 87.0686 90.0497 87.0686 90.5306C87.0686 90.6549 87.0202 90.8315 86.9839 90.9539C86.9575 91.043 86.9635 91.1308 86.9635 91.2239C86.9635 91.3636 86.9635 91.5032 86.9635 91.6428C86.9635 91.8217 86.9912 91.9584 87.0364 92.1303C87.0975 92.3624 87.0752 92.6255 87.1211 92.8631C87.1688 93.1101 87.1709 93.4425 87.3459 93.6425C87.3838 93.6858 87.3687 93.7468 87.4101 93.7841C87.4619 93.8307 87.4822 93.9055 87.5035 93.9694C87.5982 94.2535 87.769 94.4959 87.8699 94.7751C87.9263 94.9313 87.9667 95.1636 88.0932 95.2831C88.1765 95.3617 88.3231 95.4529 88.4231 95.5108C88.544 95.5808 88.6718 95.6967 88.7836 95.7852C89.0376 95.9862 89.2281 96.2299 89.436 96.4756C89.4772 96.5242 89.5128 96.5838 89.563 96.6215C89.6977 96.7225 89.8054 96.8422 89.9177 96.9675C90.0661 97.133 90.1724 97.1096 90.3001 96.9499" stroke="black" stroke-linecap="round"/>
<path d="M90.0898 96.6609C90.0898 96.8385 90.3372 97.0022 90.4839 97.0872C90.7011 97.2129 90.8806 97.396 91.094 97.5221C91.489 97.7555 91.7525 98.1397 92.0749 98.4621C92.1588 98.546 92.33 98.7627 92.4486 98.789C92.5074 98.8021 92.6106 98.865 92.65 98.9117C92.7727 99.057 92.9038 99.0996 93.0324 99.2211C93.1278 99.3112 93.2572 99.3623 93.3593 99.4459C93.5489 99.6009 93.7567 99.7373 93.9403 99.9071C93.9869 99.9502 94.0716 100.028 94.1256 100.052C94.2859 100.121 94.438 100.282 94.5445 100.418C94.6061 100.496 94.7211 100.569 94.8 100.63C94.8758 100.688 95.003 100.779 95.0934 100.812C95.2157 100.857 95.3151 100.989 95.4174 101.067C95.6084 101.214 95.7996 101.406 96.0231 101.502C96.1112 101.541 96.1595 101.577 96.2421 101.627C96.3143 101.67 96.4011 101.692 96.4683 101.743C96.5087 101.774 96.5375 101.826 96.5909 101.835C96.7716 101.868 96.8401 102.054 96.9894 102.139C97.1797 102.246 97.3547 102.354 97.5513 102.453C97.7318 102.543 97.9129 102.655 98.106 102.742C98.248 102.805 98.3969 102.775 98.5482 102.785C98.6914 102.795 98.78 102.888 98.9175 102.888" stroke="black" stroke-linecap="round"/>
<path d="M105.407 97.344C105.31 97.3804 105.183 97.4797 105.132 97.5805C105.102 97.6408 105.044 97.6685 105.013 97.7235C105 97.7454 104.967 97.7373 104.947 97.7527C104.912 97.78 104.921 97.8154 104.896 97.8432C104.824 97.9222 104.713 98.0692 104.613 98.1118C104.535 98.1448 104.498 98.1696 104.448 98.2358C104.343 98.3762 104.164 98.4869 104.027 98.5934C103.91 98.685 103.703 98.8056 103.626 98.9321C103.584 99.0007 103.504 99.023 103.463 99.0839C103.396 99.1812 103.325 99.1959 103.242 99.2853C103.21 99.3203 103.192 99.3088 103.149 99.3159C103.115 99.3216 103.093 99.3705 103.069 99.3918C102.999 99.4516 102.886 99.4619 102.812 99.5305C102.715 99.6204 102.592 99.664 102.496 99.7407C102.335 99.8695 102.144 99.9706 101.984 100.103C101.901 100.171 101.826 100.305 101.758 100.389C101.725 100.428 101.666 100.545 101.624 100.57C101.567 100.603 101.558 100.638 101.513 100.675C101.434 100.739 101.294 100.77 101.205 100.837C101.148 100.879 101.111 100.923 101.06 100.97C100.989 101.035 100.902 101.066 100.821 101.113C100.776 101.139 100.776 101.206 100.717 101.206C100.669 101.206 100.563 101.305 100.522 101.336C100.459 101.383 100.374 101.386 100.31 101.422C100.23 101.467 100.166 101.583 100.073 101.632C99.9927 101.675 99.9526 101.723 99.8764 101.772C99.8023 101.82 99.72 101.93 99.637 101.943C99.5358 101.959 99.4807 102.032 99.4166 102.099C99.3588 102.161 99.247 102.201 99.2064 102.272C99.1617 102.35 99.0249 102.384 98.951 102.426C98.8778 102.468 98.8319 102.536 98.7598 102.572" stroke="black" stroke-linecap="round"/>
<path d="M98.38 99.0855C98.2089 99.0855 97.8811 98.5407 97.7484 98.4081C97.6436 98.3033 97.5668 98.1956 97.4811 98.0745C97.3148 97.8398 97.0204 97.6577 96.8011 97.471C96.5165 97.2285 96.2785 97.0168 95.9964 96.7783C95.532 96.3859 94.9047 96.208 94.4303 95.8285C94.2545 95.6879 94.0036 95.605 93.7962 95.5203C93.458 95.3822 93.0493 95.1679 92.7673 94.9372C92.465 94.6897 92.1835 94.4199 91.876 94.1808C91.6967 94.0413 91.4033 93.7224 91.1605 93.7224C90.9532 93.7224 90.7407 93.6064 90.5773 93.4932C90.4064 93.3749 90.2585 93.2798 90.1291 93.1164C89.9451 92.884 89.6487 92.8279 89.5128 92.5561C89.3246 92.1797 89.3607 91.7066 89.2938 91.2981C89.2416 90.9792 89.2582 90.6554 89.2582 90.3329C89.2582 89.8629 89.1705 89.3136 89.3728 88.8865C89.4695 88.6822 89.6364 88.519 89.7344 88.3339C89.8343 88.1452 89.9985 88.0671 90.0833 87.8551" stroke="black" stroke-width="5" stroke-linecap="round"/>
<path d="M91.5967 91.2013C91.6098 91.0565 91.6926 90.8452 91.8259 90.7786C91.9817 90.7007 92.1465 90.7696 92.2919 90.8423C92.6874 91.04 93.0942 91.2272 93.4811 91.4407C93.8497 91.644 94.2147 91.8179 94.5965 91.9933C95.1159 92.2319 95.5153 92.6132 95.9717 92.9483C96.2282 93.1366 96.5472 93.374 96.5472 93.7224" stroke="black" stroke-width="5" stroke-linecap="round"/>
<path d="M98.3347 99.4522C98.2248 99.3301 98.1629 99.1267 98.0903 98.9836C98.0389 98.8824 97.6531 97.9446 97.4816 97.9446C97.3399 97.9446 97.1357 97.9855 97.0156 98.0567C96.8989 98.1259 96.7309 98.0427 96.6107 98.0338C96.1372 97.9987 95.8468 97.7945 95.5182 97.4659C95.4151 97.3628 95.2102 97.2669 95.0802 97.196C94.8985 97.0968 94.7277 96.976 94.5531 96.8649C94.2255 96.6565 93.8515 96.4663 93.5675 96.1977C93.2212 95.8701 92.7663 95.6767 92.3961 95.3828C92.2448 95.2626 91.9826 95.0878 91.8715 94.9244C91.8317 94.8658 91.7611 94.6688 91.706 94.6443C91.6014 94.5978 91.5011 94.5821 91.459 94.4558" stroke="black" stroke-width="5" stroke-linecap="round"/>
<path d="M96.4092 98.673C96.4753 98.6978 96.5386 98.8625 96.6384 98.9124C96.7326 98.9595 96.757 98.9938 96.8676 98.9938" stroke="black" stroke-width="5" stroke-linecap="round"/>
<path d="M99.3888 99.223C99.3052 99.0652 99.2372 98.9379 99.3888 98.8079C99.4519 98.7539 99.5661 98.7118 99.6129 98.6475C99.6611 98.5813 99.6739 98.4948 99.7555 98.454C99.9804 98.3415 100.218 98.2455 100.443 98.1204C100.61 98.0278 100.796 97.8058 100.937 97.6747C101.057 97.5642 101.208 97.478 101.317 97.3589C101.5 97.1571 101.754 97.0763 101.946 96.8598C102.22 96.5509 102.588 96.3391 102.873 96.0551C103.251 95.6766 103.821 95.3744 104.09 94.8913C104.326 94.4658 104.772 94.2265 105.108 93.8956C105.193 93.8122 105.289 93.5942 105.376 93.5365C105.774 93.271 105.863 92.694 106.056 92.2811C106.27 91.8219 106.54 91.3051 106.54 90.7888" stroke="black" stroke-width="5" stroke-linecap="round"/>
<path d="M106.493 89.9179C106.493 89.6753 106.566 89.5057 106.483 89.2659C106.41 89.0564 106.235 88.5041 106.012 88.4052C105.897 88.3541 105.807 88.1517 105.714 88.0589C105.569 87.9138 105.427 87.7666 105.278 87.6259C105.17 87.5234 105.045 87.3709 104.96 87.249C104.907 87.1729 104.765 86.993 104.685 86.9485C104.464 86.8255 104.33 86.7092 104.054 86.7092C103.795 86.7092 103.576 86.5717 103.305 86.5717C103.062 86.5717 102.819 86.5717 102.577 86.5717C102.46 86.5717 102.289 86.7787 102.184 86.8365C102.071 86.899 102.047 86.9997 102.047 87.1217" stroke="black" stroke-width="5" stroke-linecap="round"/>
<path d="M106.448 88.1302C106.32 88.0153 106.064 88.0111 105.898 87.9926C105.715 87.9723 105.6 87.8551 105.394 87.8551" stroke="black" stroke-width="5" stroke-linecap="round"/>
<path d="M103.56 89.7803C103.537 90.2059 103.217 90.493 102.88 90.7022C101.843 91.3476 100.945 92.0068 100.229 93.0272C99.934 93.4481 99.6857 93.8999 99.5062 94.382C99.4284 94.5907 99.3652 94.8083 99.2617 95.0059C99.0346 95.4393 99.0681 94.9842 99.0681 94.7309" stroke="black" stroke-width="5" stroke-linecap="round"/>
<path d="M99.3425 92.6681C98.8378 92.6681 98.3288 92.6872 97.8248 92.658C97.4489 92.6361 97.3617 92.5831 97.127 92.332C96.6537 91.8257 96.3521 91.2936 95.7366 90.9212C95.4703 90.7601 95.3179 90.6422 95.0184 90.5392C94.4742 90.3521 93.9133 90.1426 93.4701 89.7651C93.2294 89.56 93.0374 89.2868 92.8335 89.0469C92.6673 88.8514 92.6435 88.4428 92.5483 88.2065C92.4411 87.9407 92.4012 87.6277 92.2834 87.3713C92.2303 87.2557 92.1961 87.0829 92.1357 86.9842C92.1056 86.9349 91.8767 86.8601 92.044 86.8467C92.1355 86.8394 92.212 86.8008 92.3089 86.8008C92.4244 86.8008 92.6151 86.7661 92.7189 86.8238C92.8255 86.883 92.9437 86.8977 93.0576 86.9384C93.1642 86.9764 93.2701 87.0926 93.3632 87.1192C93.539 87.1694 93.6407 87.3454 93.8241 87.4018C94.1168 87.4919 94.3723 87.694 94.6008 87.8602C94.7677 87.9816 94.9526 88.0744 95.1127 88.204C95.2909 88.3483 95.5409 88.4082 95.7009 88.5682C96.0835 88.9508 96.6836 89.0855 97.1245 89.3907C97.2703 89.4917 97.3765 89.6193 97.509 89.737C97.6718 89.8817 97.8779 89.978 98.0616 90.0961C98.6146 90.4516 99.4107 90.4315 100.03 90.4679" stroke="black" stroke-width="5" stroke-linecap="round"/>
<path d="M93.7969 85.9758C94.1284 85.9758 94.1554 86.2437 94.3953 86.4087C94.5931 86.5447 94.8186 86.6221 95.009 86.7779C95.2171 86.9481 95.3358 87.1989 95.5235 87.3866C95.9772 87.8403 96.4482 87.9943 97.003 88.2677C97.412 88.4692 97.8838 88.5533 98.3094 88.7235C98.6375 88.8547 98.9636 88.9356 99.2975 89.0469" stroke="black" stroke-width="5" stroke-linecap="round"/>
<path d="M100.581 87.5801C100.581 87.5246 100.398 87.4657 100.352 87.3968" stroke="black" stroke-width="5" stroke-linecap="round"/>
<path d="M68.4521 103.42C68.4521 103.689 68.5594 104.03 68.6964 104.255C68.9142 104.614 68.9049 105.042 69.0195 105.453C69.1405 105.887 69.2041 106.34 69.3347 106.769C69.38 106.918 69.4997 107.093 69.516 107.234C69.5708 107.709 69.8491 108.13 69.8706 108.613C69.8939 109.137 70.2035 109.603 70.3513 110.087C70.454 110.423 70.5365 110.755 70.6665 111.08C70.8406 111.515 70.9294 112.028 71.2733 112.372C71.5979 112.697 72.0386 112.895 72.4514 113.093C72.6503 113.189 72.8954 113.257 73.0779 113.381C73.3004 113.532 73.6019 113.613 73.799 113.775C73.9692 113.915 74.1658 113.951 74.3388 114.074C74.5521 114.227 74.7437 114.407 75.0007 114.48C75.3294 114.574 75.5699 115.002 75.903 115.126C76.2348 115.251 76.6927 115.554 76.9314 115.792C77.2562 116.117 77.8885 116.302 78.3184 116.439C78.7197 116.566 79.0466 116.717 79.4689 116.785C79.802 116.839 80.1553 117 80.4736 117.033C80.6916 117.056 80.9137 117.093 81.1316 117.108C81.2973 117.12 81.3318 117.25 81.5335 117.25C82.1357 117.25 82.7317 117.321 83.3381 117.321C84.1735 117.321 85.0088 117.321 85.8441 117.321C86.4141 117.321 86.9841 117.321 87.5541 117.321C87.8161 117.321 87.9921 117.061 88.2397 117.037C88.6245 117.001 88.8862 116.761 89.2169 116.541C89.5919 116.291 90.0864 116.202 90.4226 115.918C90.863 115.547 91.6187 115.609 91.9986 115.138C92.1303 114.975 92.3987 114.844 92.566 114.701C92.7341 114.557 92.9016 114.4 93.031 114.216C93.2712 113.875 93.6034 113.643 93.8821 113.349C93.944 113.284 93.935 113.181 94.0003 113.113C94.1369 112.971 94.3347 112.848 94.4849 112.715C94.7586 112.474 95.0038 112.46 95.0523 112.096C95.0823 111.871 95.1987 111.676 95.2454 111.458C95.3057 111.177 95.3142 110.881 95.4384 110.619C95.6123 110.252 95.985 109.632 96.325 109.413C96.5284 109.282 96.6643 108.923 96.7505 108.708C96.8373 108.491 96.8824 108.252 96.9948 108.046C97.094 107.864 97.2553 107.715 97.31 107.51C97.413 107.124 97.6725 106.791 97.6725 106.367C97.6725 105.951 97.7088 105.505 97.8498 105.111C98.0002 104.689 97.8821 104.282 98.098 103.85C98.3854 103.275 98.3108 102.496 98.3108 101.86" stroke="black" stroke-width="3" stroke-linecap="round"/>
<path d="M98.2041 102.511C98.2041 103.724 98.2387 104.951 98.7481 106.072C98.9224 106.455 98.9573 107.115 98.9573 107.532C98.9573 107.954 99.1618 108.693 99.4222 109.024C99.5609 109.201 99.9451 109.68 99.9616 109.894C99.978 110.107 100.201 110.898 100.334 111.047C100.449 111.175 100.524 111.115 100.589 111.298C100.643 111.447 100.695 111.566 100.803 111.684C101.08 111.984 101.442 112.238 101.7 112.553C101.932 112.836 102.365 113.178 102.691 113.353C103.068 113.556 103.43 113.946 103.825 114.064C104.036 114.127 104.219 114.372 104.416 114.394C104.855 114.445 105.312 114.879 105.708 115.064C106.554 115.457 107.496 115.739 108.293 116.236C108.624 116.442 108.959 116.628 109.298 116.821C109.594 116.991 110.132 116.945 110.465 116.984C111.475 117.103 112.522 117.093 113.533 117.161C114.3 117.212 115.315 117.443 116.067 117.203C116.769 116.978 117.461 116.789 118.178 116.607C120.144 116.109 121.705 115.072 123.269 113.855C124 113.287 124.702 112.817 125.026 111.879C125.117 111.617 125.258 111.446 125.403 111.214C125.707 110.728 125.844 110.176 126.193 109.708C126.706 109.022 127.299 108.391 127.663 107.625C127.813 107.307 127.997 106.639 127.997 106.286C127.997 105.928 128.238 105.591 128.332 105.263C128.447 104.86 128.425 104.443 128.518 104.036C128.601 103.672 128.667 103.385 128.667 103.013" stroke="black" stroke-width="3" stroke-linecap="round"/>
<path d="M98.2429 101.332C98.1498 101.436 98.0999 101.665 98.1054 101.8C98.1082 101.87 98.4488 101.966 98.141 101.871C97.9813 101.822 97.7583 101.663 97.6011 101.652C97.4779 101.644 97.8404 101.714 97.9602 101.744C98.0366 101.763 98.1925 101.9 98.2429 101.963C98.408 102.17 98.4115 102.176 98.4823 101.938C98.5299 101.777 98.6501 101.498 98.5077 101.342C98.3701 101.19 97.7529 102.073 97.5451 102.065C97.399 102.059 97.2803 101.783 97.2803 101.652" stroke="black" stroke-linecap="round"/>
<path d="M97.7842 94.135C97.8591 94.135 98.0324 94.27 98.0592 94.3438C98.1448 94.5791 98.105 94.85 98.105 95.0976" stroke="black" stroke-width="5" stroke-linecap="round"/>
<path d="M90.5853 96.7104C90.5853 96.7823 90.6416 96.792 90.6448 96.8493C90.6498 96.94 90.6426 96.9353 90.6999 96.9925C90.7648 97.0575 90.6657 97.0476 90.625 97.0476C90.5549 97.0476 90.4795 96.9927 90.4266 96.9474C90.3337 96.8677 90.3824 96.9257 90.4067 96.9804C90.4378 97.0502 90.4946 97.0404 90.5555 97.0675C90.5813 97.0789 90.6944 97.1468 90.6349 97.1468C90.5794 97.1468 90.5183 97.1356 90.4861 97.0873" stroke="black" stroke-linecap="round"/>
<path d="M90.2285 96.8096C90.2635 96.8139 90.2788 96.8611 90.288 96.8889" stroke="black" stroke-linecap="round"/>
<path d="M109.314 89.9177C109.314 89.6916 109.339 89.4638 109.339 89.234C109.339 89.0435 109.366 88.9319 109.24 88.7855" stroke="black" stroke-linecap="round"/>
<path d="M108.403 93.1666C108.524 92.9376 108.648 92.7165 108.748 92.4774" stroke="black" stroke-linecap="round"/>
<path d="M108.059 94.2496C108.084 94.0836 108.174 93.9299 108.225 93.771C108.288 93.5787 108.344 93.3845 108.403 93.1912" stroke="black" stroke-linecap="round"/>
<path d="M108.157 94.1757C108.117 94.1837 108.075 94.2159 108.059 94.2495" stroke="black" stroke-linecap="round"/>
<path d="M107.517 94.9141C107.592 94.8309 107.668 94.747 107.733 94.657C107.804 94.5587 107.96 94.3693 107.96 94.2495" stroke="black" stroke-linecap="round"/>
<line x1="16.611" y1="111.337" x2="71.669" y2="96.5513" stroke="black" stroke-width="3"/>
<line x1="125.389" y1="97.5513" x2="180.447" y2="112.335" stroke="black" stroke-width="3"/>
<line x1="16.3947" y1="72.5529" x2="71.3947" y2="87.5529" stroke="black" stroke-width="3"/>
<line x1="125.605" y1="88.5576" x2="180.604" y2="73.5529" stroke="black" stroke-width="3"/>
<line x1="14.0112" y1="92.5" x2="71.0184" y2="92.9244" stroke="black" stroke-width="3"/>
<line x1="126.011" y1="92.5" x2="183.018" y2="92.9244" stroke="black" stroke-width="3"/>
</svg>
