<svg width="270" height="129" viewBox="0 0 270 129" fill="none" xmlns="http://www.w3.org/2000/svg">
<g clip-path="url(#clip0_15_1658)">
<path d="M101.5 105C101.5 107.391 99.3838 110.015 94.8925 112.128C90.5189 114.186 84.3714 115.5 77.5 115.5C70.6286 115.5 64.4811 114.186 60.1075 112.128C55.6162 110.015 53.5 107.391 53.5 105C53.5 102.609 55.6162 99.9855 60.1075 97.8719C64.4811 95.8138 70.6286 94.5 77.5 94.5C84.3714 94.5 90.5189 95.8138 94.8925 97.8719C99.3838 99.9855 101.5 102.609 101.5 105Z" fill="white" stroke="black" stroke-width="3"/>
<path d="M172.5 105C172.5 107.391 170.384 110.015 165.893 112.128C161.519 114.186 155.371 115.5 148.5 115.5C141.629 115.5 135.481 114.186 131.107 112.128C126.616 110.015 124.5 107.391 124.5 105C124.5 102.609 126.616 99.9855 131.107 97.8719C135.481 95.8138 141.629 94.5 148.5 94.5C155.371 94.5 161.519 95.8138 165.893 97.8719C170.384 99.9855 172.5 102.609 172.5 105Z" fill="white" stroke="black" stroke-width="3"/>
<path d="M222.267 59.6836C222.267 60.4123 221.733 60.6573 221.399 61.2249C220.953 61.9824 219.94 62.1066 219.441 62.7719C218.649 63.8272 217.833 65.1172 216.695 65.8488C216.549 65.9425 216.262 65.8881 216.204 66.06C216.148 66.2279 216.036 66.2832 215.873 66.3397C215.419 66.497 215.227 66.8142 214.908 67.1332C214.652 67.3896 214.316 67.829 214.001 68.0009C213.631 68.2025 213.533 68.4482 213.533 67.744C213.533 66.8566 213.323 65.6713 213.555 64.7984C213.83 63.7708 213.738 62.6375 213.738 61.5788C213.738 61.1152 213.853 59.8588 213.327 59.6836" stroke="white" stroke-width="3" stroke-linecap="round"/>
<path d="M233.158 53.6212C233.011 53.6395 232.905 53.9402 232.77 54.0322C232.587 54.1566 232.443 54.1226 232.234 54.1349C231.904 54.1543 231.463 54.2947 231.103 54.3461C230.611 54.4164 230.308 54.5213 229.876 54.7572C229.436 54.9969 228.939 55.1625 228.432 55.1625" stroke="white" stroke-width="3" stroke-linecap="round"/>
<path d="M191.03 87.7353C190.986 88.0903 190.1 88.2136 189.848 88.4089C189.612 88.5927 189.202 88.4556 189.032 88.6715C188.795 88.9726 188.461 89.2698 188.107 89.4307C187.783 89.5783 187.497 89.7565 187.131 89.7847C186.575 89.8275 186.144 90.0994 185.601 90.19C184.449 90.3821 183.308 90.5096 182.136 90.5096C180.954 90.5096 179.85 90.5682 178.7 90.8407C177.908 91.0281 177.024 90.9207 176.211 90.9207C175.663 90.9207 175.115 90.9207 174.567 90.9207C174.268 90.9207 173.934 90.9619 173.642 90.8978C173.337 90.8308 173.157 90.6254 172.82 90.6124C172.536 90.6015 171.72 90.6109 171.467 90.4982C171.154 90.3591 172.408 89.4063 172.58 89.328C172.861 89.2005 172.976 88.9959 173.248 88.8599C173.392 88.7877 173.44 88.5358 173.516 88.4032C173.606 88.2475 173.797 88.2178 173.87 88.0892C174.144 87.6108 174.59 87.5231 174.59 86.8562C174.59 86.2868 175.607 86.5023 176.028 86.5023C176.515 86.5023 177.002 86.5023 177.489 86.5023C177.987 86.5023 178.488 86.5221 178.985 86.5023C179.406 86.4854 179.759 86.0912 180.241 86.0912" stroke="white" stroke-width="3" stroke-linecap="round"/>
<path d="M254.943 79.104C254.37 79.1676 254.26 79.8224 253.71 79.2068C253.524 78.9997 253.504 78.8689 253.504 78.5902C253.504 78.3265 253.31 78.1992 253.298 77.9737C253.268 77.4007 252.99 76.8972 252.99 76.2954C252.99 75.8011 253.042 75.3528 253.196 74.8911" stroke="white" stroke-width="3" stroke-linecap="round"/>
<path d="M173.459 88.6921C173.459 88.9231 173.558 89.119 173.815 89.119C174.177 89.119 173.968 88.7245 174.036 88.4865C174.087 88.308 175.277 89.336 175.444 89.4749C175.785 89.7595 176.906 89.546 177.294 89.546C177.823 89.546 178.567 89.7936 178.433 89.0558C178.351 88.6079 177.359 88.1572 176.954 88.273C176.353 88.4447 178.093 88.7892 178.662 89.0479C179.57 89.4606 180.879 89.2614 181.849 89.2614C182.356 89.2614 184.407 87.912 183.636 87.5692C183.049 87.3087 182.161 87.2688 181.516 87.2688C181.363 87.2688 181.811 87.3817 181.92 87.4902C182.126 87.6961 182.129 87.8079 182.434 87.846C182.895 87.9037 183.302 88.2937 183.778 88.3995C184.096 88.4703 184.595 88.5497 184.917 88.5497C185.361 88.5497 184.798 88.3962 184.853 88.2018C184.905 88.0202 185.676 87.7301 185.834 87.6325C186.229 87.3885 186.729 87.3224 187.099 87.0632C187.578 86.7278 188.111 86.3659 188.68 86.2092C189.328 86.0311 189.795 85.5608 190.459 85.5608C190.944 85.5608 191.662 85.0272 192.152 84.8492C192.232 84.82 192.653 84.3169 192.737 84.2087C193.053 83.8022 193.149 84.0115 192.674 83.7738C191.813 83.3434 190.521 82.587 189.819 83.6393C189.26 84.4781 188.032 85.0855 187.099 85.5054C185.574 86.1918 183.985 86.836 182.363 87.2688C181.877 87.3981 181.27 87.8381 182.141 87.8381C182.708 87.8381 183.274 87.8381 183.841 87.8381C185.821 87.8381 187.35 86.9466 189.052 86.2171C189.271 86.1232 189.567 86.1978 189.756 86.051C189.963 85.8901 190.113 85.7455 190.388 85.711C190.689 85.6734 191.433 85.6474 191.669 85.4817C192.169 85.1319 192.981 85.1059 193.377 84.6436C193.559 84.432 193.821 84.1036 194.041 83.9319C194.559 83.5294 195.606 83.5332 195.947 82.9356C196.104 82.6614 196.606 82.5657 196.801 82.224C197.04 81.806 197.489 81.9743 197.797 81.71C198.314 81.267 198.633 80.7147 199.015 80.2234C199.511 79.5857 199.643 78.9586 200.502 78.7132C200.772 78.636 201.185 78.1376 201.419 77.9461C201.601 77.7972 202.109 77.6021 202.202 77.448C202.499 76.9527 203.359 76.2508 203.91 76.1591C203.996 76.1448 204.557 75.5936 204.621 75.5186C205.018 75.0558 205.806 74.8001 206.329 74.4512C206.729 74.1849 207.018 73.855 207.405 73.5972C207.587 73.4755 207.557 73.2554 207.697 73.1148C207.839 72.9727 208.071 73.0128 208.18 72.8144C208.56 72.1162 209.646 71.7897 209.895 70.9166C210.106 70.1796 210.844 69.6407 211.105 68.9082C211.253 68.4938 211.57 68.4276 211.888 68.1254C212.191 67.8375 212.265 67.4645 212.529 67.1449C212.737 66.8928 213.033 66.7424 213.232 66.4886C213.831 65.7266 214.501 64.8939 215.233 64.2113C215.855 63.6302 216.533 62.9466 217.075 62.3057C217.271 62.0743 217.667 61.6081 217.945 61.507C218.288 61.3823 219.115 60.8468 219.352 60.5661C219.56 60.3213 219.55 60.0216 219.795 59.7912C220.051 59.5508 220.298 59.3183 220.562 59.0874C220.876 58.8127 221.232 58.5125 221.574 58.3125C222.102 58.0049 223.873 57.0114 222.42 58.0674C221.972 58.3935 221.191 58.4971 220.989 59.1033C220.753 59.8132 219.15 61.4639 219.59 60.8587C220.386 59.7643 220.866 58.7082 222.073 57.8855C222.613 57.5171 223.498 56.8858 224.128 56.6757C224.994 56.3872 225.678 55.7292 226.461 55.3078C227.35 54.8293 228.205 53.9475 229.173 53.671C229.83 53.4835 230.391 53.252 231.031 52.9673C231.848 52.6042 232.401 52.5403 233.309 52.5403C233.975 52.5403 234.587 52.1133 235.309 52.1133C236.4 52.1133 237.492 52.1133 238.583 52.1133C240.699 52.1133 243.089 51.8383 245.146 52.3347C245.615 52.4478 246.563 52.3574 246.909 52.7617C247.22 53.1247 247.92 53.3593 248.332 53.5998C249.06 54.0242 249.675 54.4739 250.452 54.8017C250.998 55.0326 252.74 55.8908 252.871 56.6757C252.924 56.992 252.926 57.3187 252.523 57.2292C252.21 57.1597 252.142 56.8102 251.827 56.8102C251.813 56.8102 252.436 57.2369 252.515 57.3162C253.099 57.9002 253.408 58.7293 253.804 59.4433C253.953 59.7102 253.875 60.1361 253.875 60.4317C253.875 60.7908 254.213 61.0866 254.31 61.428C254.398 61.7335 254.793 62.0408 254.88 62.4322C254.955 62.7699 255.09 63.0922 255.164 63.4285C255.343 64.2321 255.441 64.8386 255.441 65.7058C255.441 66.4595 256.164 67.1152 256.002 67.8407C255.925 68.1896 255.658 68.5086 255.512 68.8291C255.359 69.1662 255.441 69.6093 255.441 69.9757C255.441 70.8071 254.872 71.6476 254.872 72.5297C254.872 73.4055 254.729 74.1957 254.729 75.0916C254.729 75.7267 254.976 77.0407 254.445 77.5192C254.283 77.6646 254.322 79.2328 254.524 79.2904C254.889 79.3946 254.872 79.7807 255.228 79.8597C255.546 79.9306 256.047 80.0099 256.366 80.0099C256.661 80.0099 256.992 79.9364 257.149 79.662C257.23 79.5208 257.455 79.4757 257.568 79.3536C257.718 79.1909 257.633 78.8231 257.797 78.729C258.294 78.4449 258.256 77.8573 258.707 77.5192C258.998 77.3005 259.586 76.5463 259.695 76.2461C259.927 75.6074 260.583 75.2504 260.715 74.5223C260.869 73.6763 260.936 72.9543 261.245 72.1502C261.421 71.6912 261.704 71.7405 261.704 71.1855C261.704 70.9093 261.812 70.3749 261.957 70.1575C262.108 69.9309 262.063 69.3153 262.162 69.0189C262.285 68.6491 262.184 68.1791 262.384 67.8803C262.872 67.1469 262.192 64.7335 262.02 64.1322C261.769 63.2539 261.134 62.6693 261.134 61.681C261.134 60.9648 260.593 60.344 260.565 59.6251C260.498 57.8936 258.631 56.8924 257.861 55.6399C257.066 54.3482 255.529 53.2605 254.524 52.2556C254.11 51.8423 253.319 51.0757 252.768 50.8639C252.441 50.7382 252.235 50.512 251.993 50.2946C251.81 50.1291 251.152 50.0281 250.934 49.9467C250.364 49.7344 249.66 49.6281 249.147 49.2983C247.839 48.4576 246.443 48.0293 244.83 47.9857C244 47.9633 243.375 48.0449 242.71 47.4796C242.318 47.1457 240.501 47.4164 239.99 47.4164C238.926 47.4164 238.094 47.7397 237.112 48.128C236.788 48.2562 236.443 48.5351 236.084 48.555C235.509 48.587 235.909 48.6471 236.084 48.4918C236.215 48.3757 236.905 48.1705 236.479 48.0173C236.205 47.9184 235.806 47.9857 235.515 47.9857C234.661 47.9857 233.954 47.9038 233.238 48.302C231.93 49.0286 230.473 50.037 228.968 50.1207C228.557 50.1435 228.373 50.4304 228.114 50.69C227.884 50.9197 227.319 51.0629 227.007 51.2593C226.651 51.4832 226.19 51.6098 225.836 51.797C225.406 52.0249 224.941 52.2528 224.476 52.5086C224.114 52.7086 223.982 53.0732 223.527 53.1096C223.145 53.1402 222.826 53.4159 222.563 53.6789C222.026 54.216 221.394 54.6825 220.823 55.2129C220.217 55.7755 219.729 56.3703 219.147 56.9525C218.852 57.247 218.556 57.5319 218.261 57.8381C218.098 58.0077 217.313 58.4231 217.297 58.5181C217.184 59.1543 216.136 59.5612 215.794 60.0363C215.629 60.266 215.703 60.744 215.557 60.9061C215.373 61.1105 215.159 61.4467 214.988 61.6177C214.618 61.987 213.803 62.2996 213.311 62.361C212.834 62.4206 212.222 63.476 211.888 63.8001C211.459 64.217 211.507 64.3145 211.35 64.923C211.231 65.3869 211.085 65.5516 210.86 65.9193C210.677 66.2197 210.18 66.3642 210.18 65.9193C210.18 65.5547 209.919 65.6175 209.611 65.6346C209.383 65.6473 209.156 66.1073 208.899 66.2356C208.628 66.3711 208.219 66.9182 208.187 67.2002C208.159 67.4537 207.822 67.8117 207.618 67.9435C207.353 68.1148 207.24 68.7719 207.017 69.0189C206.801 69.2593 206.452 69.7518 206.195 69.9045C205.828 70.1225 205.77 70.5299 205.483 70.7269C205.267 70.8756 205.158 71.4568 204.977 71.7232C204.77 72.0285 204.469 72.2366 204.234 72.4981C204.148 72.5939 204.231 72.7785 204.171 72.8934C204.094 73.0383 203.889 73.0644 203.775 73.1781C203.534 73.4196 203.291 73.6207 203.032 73.8581C202.379 74.4567 201.767 74.9428 201.324 75.74C200.835 76.6206 199.738 77.0389 199.142 77.8434C198.844 78.2457 198.024 79.0393 197.592 79.2667C197.138 79.5057 196.74 79.7891 196.342 80.1206C196.202 80.2376 195.966 80.3066 195.805 80.4053C195.611 80.5238 195.736 80.7194 195.599 80.8639C195.361 81.1164 194.847 81.4079 194.524 81.5439C194.477 81.5635 193.607 81.8481 193.765 81.9709C194.135 82.2592 196.457 79.8638 196.627 79.6936C197.922 78.3986 198.84 76.8426 200.154 75.5977C201.227 74.5806 202.538 73.7751 203.506 72.6404C204.821 71.1007 206.929 69.7482 208.788 68.9556C209.436 68.6795 210.01 68.3156 210.56 67.8803C211.025 67.5117 211.815 67.1556 212.173 66.6784C212.662 66.0263 213.032 65.5379 213.659 64.9704C214.487 64.2218 215.404 63.4783 216.19 62.6931C217.105 61.7774 218.151 61.042 219.036 60.1154C220.115 58.9863 220.833 57.4368 222.167 56.5571C223.321 55.7967 224.24 54.8114 225.441 54.0743C226.288 53.5547 227.285 53.3983 228.114 52.904C228.793 52.4989 229.529 52.0571 230.28 51.797C231.636 51.3277 232.908 50.9378 234.313 50.7216C236.157 50.4379 238.055 50.5476 239.927 50.5476C241.471 50.5476 242.968 50.4053 244.513 50.4053C246.515 50.4053 249.013 50.0434 250.776 51.2593C251.586 51.818 252.343 52.4515 253.164 52.9989C253.56 53.2634 254.255 53.8971 254.302 54.3906C254.424 55.6645 255.432 56.7138 255.979 57.8065C256.255 58.3596 256.298 58.9762 256.754 59.4828C256.987 59.7419 256.864 60.3438 256.864 60.6847C256.864 61.9436 257.38 63.1525 257.434 64.4011C257.468 65.1998 257.718 65.9534 257.718 66.7733C257.718 67.3162 257.718 67.8592 257.718 68.4021C257.718 69.5662 258.145 70.5611 258.145 71.7232C258.145 72.1826 257.776 72.5021 257.687 72.9567C257.59 73.4513 257.361 73.8934 257.149 74.3167" stroke="white" stroke-width="5" stroke-linecap="round"/>
<path d="M203.005 81.4305C203.359 81.4305 203.567 81.1447 203.842 80.9831C204.01 80.8842 204.208 80.5866 204.338 80.4383C204.412 80.3535 204.518 80.3301 204.58 80.2345C204.63 80.156 204.701 80.0818 204.777 80.0263C204.981 79.8755 205.22 79.7989 205.423 79.6454C205.662 79.4655 205.902 79.2656 206.152 79.1027C206.585 78.8214 206.944 78.4361 207.35 78.1127C207.584 77.9274 207.77 77.6727 207.986 77.4704C208.249 77.2243 208.519 76.8555 208.823 76.6709C209.178 76.4557 209.427 76.1108 209.765 75.8669C210.127 75.6055 210.471 75.2736 210.779 74.9522C211.104 74.6121 211.53 74.3835 211.873 74.0596C212.05 73.8921 212.208 73.792 212.354 73.6011C212.478 73.4385 212.612 73.2746 212.741 73.1161C213.001 72.7982 213.196 72.4206 213.479 72.1194C213.808 71.7693 214.067 71.3285 214.438 71.0253C214.691 70.8178 214.871 70.4993 215.085 70.2501C215.451 69.8222 215.865 69.4942 216.294 69.1338C216.496 68.9643 216.716 68.7574 216.879 68.5536C217.145 68.2191 217.646 67.9749 217.831 67.5812C217.913 67.4062 218.09 67.1889 218.212 67.0298C218.353 66.8459 218.495 66.6625 218.657 66.5004C218.868 66.2892 219.086 66.0362 219.341 65.8603C219.505 65.7478 219.666 65.521 219.849 65.4439C220.045 65.3611 220.217 65.0781 220.369 64.9257C220.522 64.7726 220.585 64.6074 220.785 64.496C220.859 64.4552 220.852 64.3498 220.923 64.2967C221.042 64.2074 221.208 64.2328 221.319 64.1306C221.436 64.0229 221.559 63.9184 221.68 63.8094C221.813 63.69 221.965 63.5926 222.101 63.4705C222.243 63.3431 222.4 63.2181 222.595 63.1317C222.843 63.0214 223.022 62.7754 223.262 62.6444C223.387 62.576 223.54 62.4322 223.634 62.3255C223.696 62.2548 223.864 62.1882 223.891 62.0951C223.919 61.995 224.061 61.8526 224.143 61.7673C224.293 61.6112 224.375 61.4971 224.613 61.4971" stroke="black" stroke-width="3" stroke-linecap="round"/>
<path d="M224.893 60.7795C224.986 60.7692 225.016 60.5988 225.05 60.5248C225.098 60.4202 225.182 60.3678 225.26 60.2923C225.552 60.0121 225.961 59.8383 226.337 59.7031C226.843 59.5207 227.333 59.4256 227.754 59.083C227.903 58.9616 228.046 58.8198 228.202 58.7087C228.288 58.6471 228.529 58.4682 228.558 58.3654C228.593 58.2431 228.743 58.153 228.848 58.0907C228.957 58.0264 229.028 57.9191 229.127 57.8693C230.083 57.3912 231.137 57.2029 232.157 56.9147C232.579 56.7955 232.975 56.7297 233.38 56.5625C233.642 56.4541 233.871 56.3486 234.12 56.2192C234.294 56.1285 234.432 56.0616 234.625 56.0044C234.836 55.9415 235.05 55.7713 235.267 55.7563C236.238 55.6894 237.226 55.7165 238.204 55.7165C238.621 55.7165 239.08 55.7678 239.493 55.6965C239.614 55.6755 239.73 55.6268 239.851 55.6057C240.234 55.5391 240.69 55.5969 241.074 55.5969C241.586 55.5969 242.1 55.5847 242.611 55.6212C242.941 55.6448 243.314 55.6493 243.639 55.7253C243.922 55.7917 244.222 55.9561 244.494 56.062C244.802 56.182 245.085 56.3926 245.397 56.4894C245.608 56.5548 245.775 56.6279 245.973 56.7353C246.572 57.0593 247.221 57.2573 247.798 57.6146C248.336 57.9477 248.662 58.515 249.054 58.9855C249.408 59.4102 249.666 59.9863 249.867 60.4983C249.96 60.7358 250.112 60.9155 250.23 61.1383C250.337 61.3408 250.447 61.5771 250.622 61.7297C250.794 61.8795 250.942 62.1181 251.023 62.3299C251.157 62.681 251.379 63.0047 251.515 63.362C251.603 63.5937 251.657 63.9049 251.772 64.1195C251.881 64.3253 251.876 64.5782 251.962 64.7972C252.103 65.1532 251.951 65.5822 252.06 65.9556C252.181 66.3714 252.161 66.8034 252.161 67.2313C252.161 67.7835 252.161 68.3358 252.161 68.888C252.161 69.7757 252.291 70.6737 252.13 71.5569C252.088 71.7901 252.065 72.05 251.993 72.2745C251.917 72.512 251.765 72.7747 251.727 73.0209C251.709 73.1383 251.69 73.259 251.683 73.3774C251.679 73.4565 251.582 73.5486 251.563 73.6366C251.517 73.8573 251.364 74.0372 251.364 74.2545" stroke="black" stroke-width="3" stroke-linecap="round"/>
<path d="M169 91.6581C169.069 91.715 169.14 91.7287 169.197 91.7943C169.274 91.8814 169.451 91.948 169.556 91.986C169.782 92.0675 169.977 92.1634 170.219 92.2017C170.409 92.2316 170.587 92.2835 170.773 92.3224C170.883 92.3455 170.963 92.3643 171.062 92.4154C171.1 92.4351 171.137 92.4324 171.178 92.4365C171.262 92.4449 171.343 92.4737 171.427 92.4863C171.705 92.5283 171.983 92.5617 172.262 92.5908C172.442 92.6096 172.609 92.6625 172.784 92.6992C172.964 92.7367 173.165 92.721 173.348 92.7279C173.436 92.7312 173.519 92.754 173.605 92.7682C173.704 92.7844 173.803 92.7802 173.902 92.7988C174.153 92.8462 174.407 92.8852 174.661 92.91C174.854 92.929 175.048 92.9774 175.241 92.9858C175.534 92.9985 175.822 93.0212 176.116 93.0212C176.425 93.0212 176.733 93.0204 177.041 93.0375C177.68 93.0731 178.308 93.1938 178.95 93.1938C179.153 93.1938 179.356 93.1938 179.56 93.1938C179.763 93.1938 179.95 93.1904 180.15 93.1497C180.257 93.1279 180.369 93.1057 180.477 93.0903C180.667 93.063 180.845 92.9969 181.036 92.9656C181.195 92.9395 181.342 92.8988 181.492 92.8487" stroke="black" stroke-width="3" stroke-linecap="round"/>
<path d="M181.916 92.4736C182.061 92.4736 182.207 92.4736 182.352 92.4736C182.603 92.4736 182.755 92.4283 182.981 92.3363C183.27 92.2186 183.639 92.2354 183.903 92.0772C184.041 91.9944 184.254 91.9505 184.412 91.9155C184.966 91.7925 185.538 91.7679 186.091 91.6541C186.659 91.5373 187.247 91.3716 187.803 91.2023C188.012 91.1387 188.271 91.1327 188.47 91.0517C188.598 90.9995 188.694 90.9369 188.831 90.8945C189.124 90.8033 189.473 90.6216 189.734 90.4581C190.312 90.0969 190.942 89.86 191.542 89.5545C191.82 89.4126 191.979 89.1542 192.273 89.0229C192.406 88.9631 192.518 88.868 192.653 88.8059C192.72 88.7752 192.863 88.7468 192.91 88.6863C193.159 88.3665 193.709 88.4258 193.996 88.168C194.296 87.8973 194.866 87.7038 195.245 87.5877C195.408 87.5376 195.515 87.4513 195.668 87.384C196.109 87.1897 196.533 86.9626 196.921 86.6752C197.095 86.5472 197.311 86.4792 197.488 86.3541C197.704 86.2027 197.966 86.0544 198.195 85.92C198.361 85.8228 198.549 85.6895 198.702 85.5745C198.848 85.4648 199.019 85.3932 199.158 85.2755C199.305 85.151 199.438 85.0127 199.595 84.8989C199.703 84.8203 199.728 84.6318 199.858 84.5844C200.144 84.4805 200.335 84.2322 200.583 84.0617C200.811 83.9045 201.01 83.7023 201.243 83.5523C201.377 83.4656 201.591 83.3653 201.69 83.2378C201.804 83.0913 201.891 82.9487 202 82.7949C202.063 82.7057 202.315 82.4976 202.328 82.3873C202.34 82.2814 202.476 82.1926 202.536 82.1083C202.609 82.0055 202.666 81.8292 202.806 81.8292" stroke="black" stroke-width="3" stroke-linecap="round"/>
<path d="M251.041 74.4929C251.041 74.6611 251.064 74.8495 251.035 75.0148C250.983 75.3034 250.848 75.5732 250.746 75.8466C250.573 76.309 250.659 76.8705 250.659 77.3537C250.659 77.9115 250.659 78.4693 250.659 79.0272C250.659 79.2949 250.627 79.5685 250.718 79.8231C250.791 80.0247 250.838 80.2355 250.872 80.4462C250.944 80.897 251.301 81.2724 251.495 81.6678C251.675 82.036 251.986 82.3956 252.274 82.6839C252.396 82.8053 252.577 82.8905 252.723 82.9808C252.95 83.1213 253.195 83.2481 253.432 83.3722C253.794 83.5616 254.335 83.6234 254.74 83.6234C254.931 83.6234 255.121 83.6222 255.311 83.6234C255.543 83.6249 255.775 83.6557 256.006 83.6528C256.169 83.6507 256.321 83.5645 256.472 83.5125C256.84 83.3861 257.245 83.2783 257.629 83.2157C257.71 83.2024 257.831 83.214 257.905 83.17C257.947 83.1447 257.957 83.0881 257.996 83.0591C258.223 82.8903 258.471 82.7469 258.699 82.5796C258.841 82.4749 258.957 82.2646 259.071 82.1261C259.182 81.9905 259.304 81.8712 259.425 81.7445C259.535 81.6284 259.637 81.5709 259.762 81.4753C260.082 81.2308 260.355 80.8989 260.641 80.6125C261.361 79.8929 261.945 79.0615 262.667 78.3389" stroke="black" stroke-width="3" stroke-linecap="round"/>
<path d="M263.267 77.7977C263.282 77.671 263.41 77.5888 263.425 77.4576C263.452 77.2181 263.511 76.8753 263.647 76.6757C263.767 76.5003 263.828 76.2496 263.894 76.0494C263.962 75.846 264.094 75.6477 264.178 75.4477C264.243 75.2934 264.281 75.1251 264.365 74.9783C264.562 74.6338 264.692 74.2588 264.929 73.9319C265.15 73.6271 265.254 73.2124 265.31 72.8478C265.343 72.6337 265.412 72.4058 265.47 72.1967C265.485 72.1411 265.549 72.1016 265.563 72.0368C265.58 71.9533 265.595 71.8506 265.595 71.7651C265.595 71.4865 265.753 71.2352 265.775 70.96C265.811 70.5177 265.947 70.0659 266.054 69.636C266.129 69.3352 266.092 69.0008 266.092 68.6943C266.092 68.3972 266.129 68.0742 266.05 67.7845C265.968 67.4837 265.987 67.1834 265.987 66.8733C265.987 66.6144 266.034 66.3068 265.941 66.0638C265.896 65.9483 265.804 65.8108 265.804 65.686" stroke="black" stroke-width="3" stroke-linecap="round"/>
<path d="M265.988 64.6919C265.906 64.61 265.867 64.5014 265.811 64.4042C265.729 64.2625 265.669 64.0962 265.616 63.9391C265.501 63.5988 265.317 63.281 265.256 62.9247C265.22 62.7177 265.201 62.5197 265.139 62.3173C265.104 62.2008 265.042 62.0956 265.014 61.9772C264.987 61.8611 264.967 61.7409 264.929 61.6284C264.896 61.5344 264.878 61.4362 264.846 61.3421C264.793 61.1898 264.702 61.0557 264.654 60.9017C264.567 60.6218 264.52 60.3308 264.407 60.0603C264.339 59.8973 264.292 59.7096 264.247 59.5386C264.205 59.3806 264.173 59.2448 264.09 59.1026C263.94 58.8452 263.856 58.5664 263.738 58.2946C263.665 58.126 263.59 57.9928 263.542 57.8135C263.495 57.635 263.377 57.4903 263.318 57.3136C263.253 57.1171 263.147 56.9422 263.07 56.7512C262.999 56.5769 262.937 56.4052 262.846 56.2396C262.757 56.0782 262.695 55.905 262.581 55.76C262.49 55.6434 262.398 55.5052 262.324 55.3763C262.233 55.2172 262.116 55.0898 261.968 54.9811C261.812 54.8663 261.679 54.7261 261.516 54.6206C261.382 54.534 261.261 54.3985 261.163 54.2748C260.937 53.9893 260.621 53.7839 260.394 53.4972C260.126 53.1584 259.88 52.7674 259.567 52.4756C259.367 52.2883 259.153 52.1015 258.951 51.9001" stroke="black" stroke-width="3" stroke-linecap="round"/>
<path d="M258.454 51.2984C258.448 51.3432 258.349 51.2407 258.335 51.233C258.287 51.2077 258.272 51.182 258.239 51.1415C258.191 51.0828 258.109 51.0759 258.047 51.0368C257.966 50.9858 257.907 50.9174 257.838 50.8523C257.668 50.6929 257.47 50.5708 257.291 50.4206C257.123 50.2789 256.976 50.1108 256.812 49.9643C256.712 49.8752 256.602 49.8067 256.495 49.7274C256.393 49.6523 256.338 49.5515 256.251 49.4644C256.038 49.2516 255.811 49.0529 255.594 48.8453C255.501 48.7568 255.439 48.644 255.347 48.5575C255.223 48.4414 255.019 48.3664 254.872 48.277C254.6 48.112 254.331 47.9308 254.062 47.7582C253.912 47.6621 253.756 47.5765 253.607 47.4792C253.515 47.4188 253.465 47.3357 253.385 47.2684C253.271 47.1725 253.092 47.1289 252.96 47.0592C252.8 46.9739 252.65 46.8818 252.482 46.8121C252.417 46.7849 252.389 46.7312 252.333 46.7002C252.274 46.668 252.208 46.6518 252.147 46.613C252.014 46.5287 251.855 46.4409 251.714 46.3747C251.373 46.2156 251.039 46.112 250.674 46.0404C249.822 45.8733 248.974 45.6375 248.15 45.401C247.7 45.2718 247.27 45.0773 246.816 44.9563C246.494 44.8704 246.176 44.7689 245.858 44.67C245.588 44.5857 245.281 44.5663 245.021 44.4592C244.741 44.3438 244.469 44.2895 244.171 44.2354C243.802 44.1684 243.409 44.2029 243.043 44.1192C242.685 44.0374 242.345 44 241.974 44" stroke="black" stroke-width="3" stroke-linecap="round"/>
<path d="M241.481 44.0072C241.307 44.0072 241.132 44.0072 240.958 44.0072C240.669 44.0072 240.41 44.11 240.121 44.1172C239.978 44.1208 239.815 44.1624 239.672 44.1844C239.357 44.2325 239.044 44.2363 238.729 44.2685C238.643 44.2772 238.556 44.3076 238.471 44.3097C238.083 44.3194 237.661 44.3036 237.282 44.3983C236.987 44.472 236.668 44.4488 236.38 44.5297C236.056 44.6208 235.709 44.6749 235.375 44.7162C235.04 44.7574 234.698 44.7773 234.36 44.7773C234.204 44.7773 234.044 44.7662 233.888 44.7803C233.751 44.7928 233.628 44.8515 233.489 44.8659C232.839 44.9331 232.255 45.2245 231.631 45.3976C231.385 45.466 231.123 45.4979 230.881 45.5764C230.755 45.6173 230.638 45.6838 230.513 45.7277C230.377 45.7752 230.255 45.7909 230.126 45.8606C230.007 45.9254 229.9 45.982 229.77 46.0287C229.598 46.0911 229.425 46.2144 229.275 46.3175C229.104 46.435 228.916 46.5302 228.74 46.6414C228.508 46.7882 228.241 46.8896 227.978 46.9654C227.701 47.0454 227.474 47.2189 227.208 47.3076C227.014 47.3721 226.838 47.5047 226.647 47.5827C226.431 47.6709 226.221 47.8196 226.022 47.9417C225.789 48.0853 225.551 48.2251 225.308 48.3528C225.212 48.4035 225.082 48.4631 225.009 48.5468C224.921 48.6478 224.785 48.7714 224.651 48.8326C224.416 48.9405 224.247 49.1715 224.014 49.2879C223.843 49.3733 223.719 49.4942 223.565 49.6011C223.274 49.8027 222.937 49.9415 222.641 50.139C222.537 50.2079 222.376 50.2274 222.283 50.3071C222.21 50.3699 222.125 50.3947 222.042 50.4431C221.961 50.49 221.911 50.5565 221.826 50.5974C221.6 50.7064 221.355 50.8228 221.155 50.9656C220.942 51.1179 220.625 51.2242 220.468 51.4332" stroke="black" stroke-width="3" stroke-linecap="round"/>
<path d="M175.326 84.5006C175.427 84.5935 175.545 84.6485 175.668 84.7071C175.802 84.7717 176.012 84.7291 176.157 84.7291C177.044 84.7291 177.94 84.7453 178.823 84.6425C179.168 84.6024 179.521 84.5169 179.859 84.4372C180.191 84.3593 180.538 84.2477 180.878 84.2306C181.212 84.2139 181.541 84.1499 181.861 84.0518C182.284 83.9222 182.707 83.8625 183.137 83.768C183.695 83.6455 184.254 83.4734 184.803 83.3168C184.935 83.2794 185.04 83.2035 185.163 83.1507C185.266 83.1068 185.37 83.072 185.47 83.0214C185.661 82.9251 185.843 82.8182 186.047 82.7492C186.169 82.7081 186.293 82.679 186.414 82.6361C186.484 82.6112 186.538 82.5736 186.615 82.5692C186.68 82.5654 186.68 82.5294 186.733 82.4999C186.805 82.4593 186.894 82.4659 186.966 82.4192C187.074 82.3488 187.201 82.3111 187.314 82.2415C187.431 82.1692 187.574 82.1199 187.699 82.0661C187.814 82.0169 187.925 81.925 188.036 81.863" stroke="black" stroke-width="3" stroke-linecap="round"/>
<path d="M188.805 81.1777C188.936 80.9862 189.212 80.9153 189.392 80.7854C189.531 80.6852 189.68 80.6115 189.813 80.4969C190.159 80.1986 190.573 80.0046 190.96 79.7654C191.202 79.616 191.442 79.4919 191.661 79.3085C191.852 79.1493 192.045 78.9658 192.252 78.8309C192.478 78.6837 192.683 78.4985 192.895 78.3324C193.091 78.1792 193.316 78.0671 193.498 77.8951C193.66 77.7423 193.837 77.6249 194.008 77.4855C194.232 77.3039 194.382 77.0471 194.62 76.8775C194.945 76.6449 195.235 76.3568 195.558 76.1194C195.719 76.0013 195.857 75.8709 196.002 75.7341C196.031 75.7064 196.104 75.6884 196.114 75.6429C196.12 75.6146 196.178 75.5471 196.207 75.5333C196.236 75.5199 196.253 75.538 196.265 75.5033C196.276 75.4744 196.277 75.4583 196.302 75.4456" stroke="black" stroke-width="3" stroke-linecap="round"/>
<path d="M196.8 75.0926C196.81 74.9995 196.928 74.9435 196.987 74.8849C197.042 74.8292 197.092 74.7708 197.141 74.7095C197.283 74.5333 197.449 74.3877 197.61 74.2295C197.833 74.0104 198.077 73.8344 198.265 73.5869C198.468 73.3205 198.733 73.104 198.983 72.8842C199.053 72.8227 199.083 72.7602 199.129 72.68C199.232 72.5002 199.365 72.3278 199.481 72.1561C199.619 71.9533 199.819 71.7988 199.966 71.6035C200.036 71.51 200.139 71.457 200.225 71.3831C200.327 71.2965 200.428 71.1918 200.52 71.0935C200.684 70.9172 200.841 70.7309 201.022 70.5708C201.155 70.4525 201.295 70.3614 201.416 70.2305C201.679 69.9458 202.067 69.8166 202.271 69.4713C202.391 69.2676 202.481 69.0542 202.622 68.8632C202.706 68.7493 202.776 68.6127 202.843 68.4882C203.027 68.1466 203.234 67.8318 203.479 67.5317C203.629 67.3479 203.807 67.1882 203.995 67.046C204.098 66.9676 204.28 66.8477 204.335 66.7252C204.397 66.5894 204.542 66.5236 204.609 66.3906" stroke="black" stroke-width="3" stroke-linecap="round"/>
<path d="M204.443 66.2453C204.507 66.2415 204.503 66.2062 204.531 66.1576C204.592 66.0511 204.648 65.9804 204.745 65.9026C204.899 65.7771 205.096 65.672 205.233 65.5287C205.339 65.4175 205.469 65.3263 205.563 65.2045C205.691 65.0378 205.838 64.8913 205.983 64.7384C206.149 64.5617 206.342 64.4539 206.481 64.2492C206.587 64.0927 206.695 63.9334 206.829 63.7992C207.082 63.5471 207.301 63.2779 207.533 63.0077C207.861 62.6268 208.24 62.2959 208.567 61.9139C208.675 61.7876 208.806 61.6935 208.922 61.577C209.068 61.4316 209.101 61.2723 209.188 61.0947C209.274 60.9183 209.358 60.7031 209.49 60.5547C209.564 60.4716 209.619 60.3697 209.712 60.3032C209.801 60.2391 209.864 60.1527 209.959 60.0978C210.059 60.0398 210.162 59.9717 210.261 59.9086C210.396 59.8219 210.506 59.6985 210.655 59.6409C210.719 59.6164 210.781 59.5514 210.831 59.5059C211.066 59.2927 211.339 59.1179 211.575 58.9048C211.7 58.7914 211.877 58.7201 211.982 58.5863C212.058 58.4893 212.186 58.3715 212.285 58.2956C212.391 58.2135 212.48 58.1203 212.589 58.0418C212.643 58.0033 212.714 57.9717 212.751 57.9171" stroke="black" stroke-width="3" stroke-linecap="round"/>
<path d="M213 57.9587C213.099 57.9368 213.24 57.7643 213.316 57.7049C213.429 57.6165 213.534 57.5261 213.645 57.4372C213.768 57.3389 213.869 57.2187 213.993 57.1187C214.15 56.9924 214.264 56.8217 214.382 56.6607C214.587 56.3816 214.818 56.0963 215.084 55.8738C215.418 55.5943 215.739 55.3006 216.096 55.05C216.227 54.9573 216.329 54.8332 216.454 54.7327C216.561 54.6474 216.674 54.5567 216.771 54.4604C216.859 54.3718 216.947 54.2694 217.029 54.1742C217.125 54.063 217.234 53.969 217.331 53.8604C217.665 53.4868 218.192 53.2608 218.628 53.0366C218.873 52.911 219.045 52.6914 219.292 52.5601C219.409 52.4973 219.502 52.4208 219.615 52.3512C219.691 52.3045 219.727 52.2273 219.812 52.1943C219.894 52.1625 220.02 52.081 220.082 52.0189C220.206 51.895 220.403 51.878 220.539 51.749C220.599 51.6922 220.661 51.6227 220.73 51.5782C220.795 51.5368 220.797 51.5025 220.839 51.4582C220.883 51.4116 220.923 51.3685 220.975 51.3336" stroke="black" stroke-width="3" stroke-linecap="round"/>
<path d="M192.5 27C192.5 76.0575 157.409 115.5 114.5 115.5C71.5913 115.5 36.5 76.0575 36.5 27C36.5 -22.0575 71.5913 -61.5 114.5 -61.5C157.409 -61.5 192.5 -22.0575 192.5 27Z" fill="white" stroke="black" stroke-width="3"/>
<path d="M113.5 117C113.5 119.637 111.851 122.225 108.765 124.227C105.694 126.219 101.362 127.5 96.5 127.5C91.6381 127.5 87.3059 126.219 84.2348 124.227C81.1492 122.225 79.5 119.637 79.5 117C79.5 114.363 81.1492 111.775 84.2348 109.773C87.3059 107.781 91.6381 106.5 96.5 106.5C101.362 106.5 105.694 107.781 108.765 109.773C111.851 111.775 113.5 114.363 113.5 117Z" fill="white" stroke="black" stroke-width="3"/>
<line x1="110.508" y1="110.866" x2="115.008" y2="66.8475" stroke="black" stroke-width="3"/>
<line x1="86.1267" y1="108.037" x2="78.528" y2="69.2887" stroke="black" stroke-width="3"/>
<path d="M150.5 117C150.5 119.637 148.851 122.225 145.765 124.227C142.694 126.219 138.362 127.5 133.5 127.5C128.638 127.5 124.306 126.219 121.235 124.227C118.149 122.225 116.5 119.637 116.5 117C116.5 114.363 118.149 111.775 121.235 109.773C124.306 107.781 128.638 106.5 133.5 106.5C138.362 106.5 142.694 107.781 145.765 109.773C148.851 111.775 150.5 114.363 150.5 117Z" fill="white" stroke="black" stroke-width="3"/>
<line x1="115.492" y1="66.8432" x2="120.117" y2="110.849" stroke="black" stroke-width="3"/>
<line x1="151.007" y1="69.2862" x2="143.472" y2="108.047" stroke="black" stroke-width="3"/>
</g>
<defs>
<clipPath id="clip0_15_1658">
<rect width="270" height="129" fill="white"/>
</clipPath>
</defs>
</svg>
