<svg width="218" height="361" viewBox="0 0 218 361" fill="none" xmlns="http://www.w3.org/2000/svg">
<g clip-path="url(#clip0_15_442)">
<path d="M214.051 182.908C212.085 181.547 211.133 178.314 211.952 173.418C212.75 168.651 215.169 162.849 219.081 157.199C222.993 151.55 227.572 147.244 231.754 144.819C236.049 142.33 239.41 142.084 241.376 143.445C243.342 144.806 244.294 148.039 243.475 152.935C242.677 157.702 240.258 163.505 236.346 169.154C232.434 174.803 227.855 179.11 223.673 181.534C219.378 184.023 216.017 184.27 214.051 182.908Z" fill="white" stroke="black" stroke-width="3"/>
<path d="M128.831 169.38C128.831 172.017 127.182 174.606 124.096 176.607C121.025 178.599 116.693 179.88 111.831 179.88C106.969 179.88 102.637 178.599 99.5659 176.607C96.4802 174.606 94.8311 172.017 94.8311 169.38C94.8311 166.744 96.4802 164.155 99.5659 162.154C102.637 160.162 106.969 158.88 111.831 158.88C116.693 158.88 121.025 160.162 124.096 162.154C127.182 164.155 128.831 166.744 128.831 169.38Z" fill="white" stroke="black" stroke-width="3"/>
<path d="M151.831 178.38C151.831 181.017 150.182 183.606 147.096 185.607C144.025 187.599 139.693 188.88 134.831 188.88C129.969 188.88 125.637 187.599 122.566 185.607C119.48 183.606 117.831 181.017 117.831 178.38C117.831 175.744 119.48 173.155 122.566 171.154C125.637 169.162 129.969 167.88 134.831 167.88C139.693 167.88 144.025 169.162 147.096 171.154C150.182 173.155 151.831 175.744 151.831 178.38Z" fill="white" stroke="black" stroke-width="3"/>
<path d="M168.6 28.5C217.657 28.5 257.1 63.5913 257.1 106.5C257.1 149.409 217.657 184.5 168.6 184.5C119.542 184.5 80.0996 149.409 80.0996 106.5C80.0996 63.5913 119.542 28.5 168.6 28.5Z" fill="white" stroke="black" stroke-width="3"/>
<path d="M39.7824 82.045L40.0898 57.0674L77.6808 60.4676L39.7824 82.045Z" fill="white" stroke="black" stroke-width="3"/>
<path d="M126.729 57.9686L164.223 54.2005L165.097 79.1623L126.729 57.9686Z" fill="white" stroke="black" stroke-width="3"/>
<path d="M177.5 112.074C177.5 127.417 169.406 141.41 156.119 151.614C142.831 161.82 124.409 168.175 104 168.175C83.5909 168.175 65.169 161.82 51.8806 151.614C38.5939 141.41 30.5 127.417 30.5 112.074C30.5 96.7312 38.5939 82.7386 51.8806 72.5343C65.169 62.3287 83.5909 55.9738 104 55.9738C124.409 55.9738 142.831 62.3287 156.119 72.5343C169.406 82.7386 177.5 96.7312 177.5 112.074Z" fill="white" stroke="black" stroke-width="3"/>
<path d="M76.1953 109.991C76.1953 109.925 76.225 109.868 76.2725 109.82C76.3296 109.763 76.3887 109.676 76.4222 109.601C76.4616 109.512 76.5572 109.433 76.5932 109.337C76.6339 109.229 76.7523 109.125 76.8193 109.029C76.885 108.936 76.9046 108.783 76.9894 108.711C77.0655 108.646 77.1569 108.501 77.2037 108.413C77.2397 108.345 77.2954 108.287 77.3266 108.218C77.3421 108.184 77.375 108.154 77.3857 108.118C77.4138 108.024 77.4525 107.932 77.4826 107.838C77.5018 107.779 77.5128 107.721 77.5393 107.663C77.5884 107.557 77.6344 107.449 77.6756 107.339C77.7197 107.221 77.7415 107.096 77.7867 106.979C77.8016 106.941 77.8303 106.911 77.849 106.875C77.9048 106.768 77.9551 106.659 78.0105 106.551C78.1019 106.373 78.1446 106.15 78.272 105.988C78.4016 105.824 78.4165 105.608 78.4847 105.412C78.5061 105.352 78.5201 105.285 78.5352 105.223C78.5563 105.135 78.6161 105.065 78.6344 104.978C78.6471 104.918 78.6628 104.876 78.6628 104.815" stroke="black" stroke-linecap="round"/>
<path d="M75.9272 109.817C76.0321 109.758 75.9007 109.668 75.857 109.621C75.7795 109.536 75.69 109.524 75.6464 109.398C75.5863 109.223 75.5026 109.045 75.4161 108.882C75.3918 108.837 75.3494 108.763 75.3108 108.731C75.2651 108.693 75.2648 108.623 75.2164 108.588C75.182 108.563 75.1638 108.499 75.1385 108.463C75.1059 108.417 75.0759 108.372 75.0398 108.327C74.9741 108.245 74.8973 108.184 74.8215 108.108C74.7849 108.071 74.7126 107.971 74.7041 107.92C74.6949 107.865 74.6261 107.805 74.5846 107.763C74.428 107.607 74.4199 107.373 74.2686 107.221C74.2056 107.158 74.1603 107.087 74.092 107.024C74.0592 106.994 74.0104 106.999 73.9966 106.954C73.9764 106.887 73.9345 106.826 73.8957 106.767C73.7791 106.593 73.6412 106.415 73.5534 106.23C73.5171 106.153 73.4573 106.104 73.4097 106.036C73.3736 105.984 73.3653 105.931 73.3395 105.875C73.2846 105.756 73.1612 105.698 73.119 105.567C73.0918 105.483 73.0049 105.377 73.0049 105.295C73.0049 105.236 72.9654 105.191 72.9654 105.126C72.9654 105.064 72.9407 105.03 72.9216 104.975C72.8921 104.89 72.9084 104.806 72.8371 104.735C72.7466 104.644 72.7092 104.513 72.6539 104.396C72.6289 104.343 72.6337 104.3 72.6287 104.244C72.6165 104.11 72.5534 103.984 72.5223 103.854C72.5065 103.788 72.5091 103.704 72.4872 103.641C72.4736 103.602 72.4207 103.577 72.4126 103.538C72.404 103.497 72.3666 103.463 72.3446 103.428C72.3222 103.393 72.3236 103.346 72.304 103.311C72.2572 103.227 72.2546 103.147 72.2546 103.053C72.2546 102.976 72.253 102.9 72.2042 102.837C72.1431 102.758 72.1756 102.6 72.1756 102.505C72.1756 102.324 72.1586 102.137 72.1756 101.958C72.1874 101.835 72.2429 101.711 72.2535 101.583C72.2615 101.488 72.2778 101.4 72.2744 101.302C72.2717 101.228 72.2546 101.156 72.2546 101.08C72.2546 101.002 72.2151 100.944 72.2151 100.872" stroke="black" stroke-linecap="round"/>
<path d="M78.6284 104.599C78.6284 103.727 78.7058 102.865 78.7058 102C78.7058 101.772 78.7184 101.54 78.7058 101.312C78.6947 101.113 78.6691 100.813 78.5704 100.636C78.4663 100.448 78.5581 100.244 78.3986 100.058C78.3336 99.9821 78.3847 99.8776 78.3019 99.8066C78.2505 99.7625 78.2139 99.5723 78.1731 99.4952C78.0839 99.3267 77.8938 99.0776 77.8938 98.8765C77.8938 98.6654 77.7886 98.4856 77.7778 98.2751C77.7685 98.0925 77.6601 98.0184 77.5459 97.8928C77.1969 97.509 76.8563 97.1034 76.6094 96.6341C76.4673 96.3642 76.2411 96.1258 76.0853 95.8608C76.0259 95.7599 75.9264 95.7279 75.8919 95.6074C75.8507 95.4632 75.7475 95.3542 75.6342 95.2615C75.4811 95.1363 75.4121 94.9132 75.2841 94.7568C75.1184 94.5543 74.9839 94.3814 74.8008 94.1983" stroke="black" stroke-linecap="round"/>
<path d="M72.2485 100.848C72.2485 100.372 72.0804 99.7469 72.2485 99.2847C72.3233 99.079 72.4686 98.8703 72.4805 98.6446C72.4834 98.59 72.5331 98.5685 72.5492 98.52C72.5721 98.4514 72.5466 98.3811 72.5772 98.3138C72.6352 98.1862 72.6199 98.0497 72.6652 97.9229C72.7642 97.6457 72.8091 97.3602 73.0025 97.1238C73.0829 97.0255 73.147 96.9584 73.2065 96.8274C73.2621 96.705 73.3838 96.5185 73.4084 96.3957C73.4514 96.181 73.5691 96.0191 73.6834 95.835C73.9199 95.4539 74.0856 95.0278 74.3277 94.6537C74.3546 94.6121 74.3226 94.5522 74.3449 94.5076C74.3707 94.4561 74.4398 94.451 74.4695 94.3916C74.5098 94.311 74.531 94.249 74.607 94.1983" stroke="black" stroke-linecap="round"/>
<path d="M75.1484 104.831C75.1484 104.962 75.248 105.025 75.2644 105.14C75.2876 105.302 75.3004 105.43 75.3632 105.589C75.416 105.722 75.566 105.921 75.5737 106.068C75.5828 106.24 75.6575 106.486 75.7499 106.631C75.8448 106.78 75.8375 107.081 75.8744 107.258C75.9115 107.435 75.9217 107.584 75.9217 107.769" stroke="black" stroke-width="3" stroke-linecap="round"/>
<path d="M75.11 98.6832C75.11 98.5366 75.1315 98.4467 75.0026 98.3524C74.9042 98.2805 74.8245 98.1574 74.7813 98.0453C74.6983 97.8292 74.8462 97.5409 74.7234 97.3386C74.5938 97.1252 74.6074 96.8573 74.6074 96.6147C74.6074 96.5138 74.6074 96.4128 74.6074 96.3119C74.6074 96.0614 74.5457 96.8509 74.6847 97.0594" stroke="black" stroke-width="3" stroke-linecap="round"/>
<path d="M74.5683 105.256C74.4345 105.241 74.335 105.032 74.2418 104.945C74.029 104.744 74.063 104.563 73.9884 104.311C73.8935 103.991 73.8724 103.613 73.8724 103.282C73.8724 102.952 73.7527 102.648 73.7199 102.32C73.6351 101.472 73.7177 100.583 73.7177 99.7293C73.7177 99.4321 73.7529 99.1152 73.8638 98.8379C73.9163 98.7066 73.8724 98.4755 73.8724 98.3353" stroke="black" stroke-width="3" stroke-linecap="round"/>
<path d="M76.7727 105.024C76.8194 105.018 76.8774 104.373 76.8866 104.3C76.9064 104.141 76.8647 104.624 76.8114 104.775C76.7752 104.877 76.674 104.927 76.6589 105.041C76.6447 105.148 76.6567 105.262 76.6567 105.37C76.6567 105.525 76.6567 105.681 76.6567 105.836C76.6567 105.898 76.6567 105.909 76.6567 105.836C76.6567 105.647 76.6567 105.458 76.6567 105.269C76.6567 105.112 76.6659 104.962 76.6267 104.809C76.6074 104.734 76.5449 104.677 76.5407 104.599C76.5095 104.006 76.5165 103.355 76.3796 102.767C76.3435 102.611 76.3122 102.422 76.2271 102.283C76.2001 102.239 76.234 102.516 76.24 102.541C76.3316 102.918 76.3474 103.28 76.3474 103.667C76.3474 104.068 76.3773 104.471 76.4269 104.867C76.4489 105.043 76.4634 105.208 76.4634 105.389C76.4634 105.535 76.2424 106.007 76.3173 105.625C76.3503 105.458 76.4639 105.318 76.4978 105.157C76.5337 104.986 76.5021 104.779 76.5021 104.605C76.5021 104.377 76.5021 104.15 76.5021 103.922C76.5021 103.675 76.6181 103.469 76.6181 103.224C76.6181 103.046 76.5794 102.877 76.5794 102.704" stroke="black" stroke-width="3" stroke-linecap="round"/>
<path d="M76.8107 103.477C77.0204 103.477 76.9349 103.013 76.9181 102.867C76.8906 102.629 76.7552 102.445 76.6818 102.225C76.6281 102.064 76.5962 101.833 76.5809 101.665C76.5456 101.276 76.4447 100.886 76.3639 100.5C76.3238 100.309 76.2308 100.114 76.2308 99.9183C76.2308 99.6872 76.1962 99.4491 76.1363 99.2267C76.0958 99.0764 76.0375 98.8534 76.0375 98.7026C76.0375 98.5691 75.8609 98.4001 75.8441 98.258C75.8401 98.2239 75.7345 98.0907 75.7067 98.0668C75.6188 97.9915 75.6484 98.1761 75.653 98.2215C75.677 98.4617 75.7282 98.6689 75.7282 98.9152" stroke="black" stroke-width="3" stroke-linecap="round"/>
<path d="M76.0381 100.346C76.1259 100.365 76.3398 100.839 76.3474 100.934C76.3727 101.25 76.5451 101.545 76.5794 101.854C76.5931 101.977 76.6471 102.24 76.7254 102.326C76.8612 102.476 76.8152 102.311 76.8113 102.163C76.8063 101.972 76.6941 101.703 76.5794 101.553C76.4599 101.396 76.4998 101.18 76.4247 100.994C76.3918 100.913 76.3129 100.573 76.4935 100.694C76.7278 100.85 76.7993 101.175 76.85 101.428" stroke="black" stroke-width="3" stroke-linecap="round"/>
<path d="M90.0095 109.898C89.7833 109.898 89.7307 109.948 89.5787 110.1C89.4831 110.196 89.3608 110.316 89.2542 110.397C89.1562 110.472 88.9987 110.485 88.9146 110.557C88.6917 110.746 88.4143 110.716 88.1644 110.83C87.8769 110.962 87.5426 111.027 87.2316 111.084C87.0735 111.113 86.9454 111.21 86.7805 111.221C86.6586 111.229 86.4972 111.245 86.3826 111.289C85.8861 111.48 85.3722 111.579 84.872 111.745C84.1023 112.002 83.3271 112.179 82.5275 112.179C81.8666 112.179 81.2445 112.27 80.5809 112.27C79.7089 112.27 78.8814 112.347 78.0159 112.404C77.2548 112.455 76.494 112.452 75.7297 112.452C75.407 112.452 75.0843 112.452 74.7615 112.452C74.3023 112.452 73.9122 112.229 73.4689 112.179C73.0231 112.128 72.5886 111.89 72.1408 111.811C71.5763 111.712 71.0554 111.443 70.5592 111.167C70.0332 110.875 69.5031 110.56 69.0334 110.181C68.8266 110.015 68.642 109.756 68.4581 109.558C67.9959 109.062 67.5126 108.593 66.9956 108.154C66.6979 107.901 66.5664 107.569 66.3214 107.277C66.1223 107.039 65.9761 106.776 65.85 106.494C65.7441 106.257 65.5809 106.089 65.4292 105.883C65.1017 105.438 64.8506 104.96 64.5624 104.489C64.4125 104.243 64.2676 104.017 64.0986 103.784C64.0267 103.685 63.9592 103.52 63.9592 103.394C63.9592 102.792 63.5417 102.25 63.3864 101.686C63.2999 101.371 63.2394 101.049 63.1532 100.738C63.12 100.618 63.0465 100.344 62.9707 100.241C62.6156 99.7567 62.3263 99.3511 62.1089 98.7759C61.965 98.3948 61.8466 97.9779 61.7237 97.5897C61.6724 97.4276 61.6044 97.3184 61.564 97.1487C61.5289 97.001 61.4864 96.8558 61.45 96.7102C61.3576 96.3407 61.1925 96.0508 61.0242 95.7141C60.9013 95.4684 60.8513 95.1904 60.7656 94.9335" stroke="black" stroke-width="3" stroke-linecap="round"/>
<path d="M89.5623 108.783C89.5623 108.586 89.5981 108.344 89.5542 108.151C89.4751 107.805 89.304 107.509 89.198 107.171C89.0957 106.845 89.0235 106.533 88.9103 106.212C88.7225 105.678 88.6024 105.121 88.4193 104.582C88.3972 104.517 88.3801 104.45 88.3589 104.384C88.3061 104.222 88.1567 104.121 88.0993 103.962C87.9489 103.545 87.9044 103.066 87.8317 102.63C87.7697 102.257 87.5016 101.832 87.3307 101.501C87.072 101 86.7756 100.521 86.5197 100.018C86.1988 99.3873 85.8293 98.7544 85.4231 98.1766C85.2899 97.9873 85.203 97.7731 85.0749 97.581C85.0194 97.4978 84.9375 97.469 84.8657 97.4019C84.4252 96.9901 83.9368 96.5959 83.4088 96.3072C83.0445 96.1081 82.6774 95.8738 82.3564 95.613C82.2772 95.5486 82.2696 95.4811 82.1713 95.4319C82.063 95.3778 81.9322 95.3211 81.8312 95.2568C81.0066 94.7321 80.1891 94.2033 79.4768 93.5303C79.1685 93.239 78.9567 93.0977 78.5673 92.9528C78.1161 92.7849 77.6877 92.6711 77.2231 92.5483C77.1084 92.518 77.0118 92.4197 76.8931 92.4115C76.7594 92.4023 76.6317 92.3782 76.4987 92.3572C75.8865 92.2605 75.2711 92.1827 74.6595 92.0855C74.2103 92.0142 73.7664 91.8981 73.3133 91.8521C73.0461 91.825 72.7728 91.8059 72.5044 91.7978C72.1643 91.7875 71.8515 91.6937 71.5164 91.6589C70.8775 91.5926 70.1287 91.5284 69.4961 91.6509C69.2704 91.6945 69.0525 91.7724 68.828 91.8159C68.6046 91.8591 68.3889 91.856 68.166 91.9205C67.627 92.0765 67.0438 92.1009 66.5139 92.2827C66.2094 92.3872 65.9477 92.4844 65.6245 92.5383C65.2239 92.605 64.7596 92.666 64.389 92.8381C64.257 92.8994 64.1323 92.9062 63.9905 92.9266C63.6653 92.9736 63.3577 93.1052 63.0307 93.156C62.7627 93.1977 62.5261 93.2808 62.252 93.2808" stroke="black" stroke-width="3" stroke-linecap="round"/>
<path d="M62.626 93.0397C62.1301 93.0397 61.6751 93.258 61.2436 93.4738C61.0619 93.5646 60.8105 93.5205 60.6092 93.5205C60.3504 93.5205 60.2262 93.7609 59.9814 93.7609" stroke="black" stroke-width="3" stroke-linecap="round"/>
<path d="M116.102 109.768C116.121 109.958 116.188 110.171 116.373 110.264C116.779 110.467 117.137 110.759 117.619 110.819C117.724 110.832 117.82 110.898 117.923 110.925C118.157 110.985 118.394 111.028 118.627 111.097C118.903 111.18 119.186 111.242 119.449 111.363C119.777 111.513 120.143 111.608 120.483 111.74C120.645 111.804 120.831 111.796 121 111.835C121.427 111.933 121.843 112.076 122.274 112.159C122.871 112.274 123.503 112.228 124.093 112.351C124.258 112.386 124.404 112.518 124.57 112.526C125.187 112.554 125.766 112.759 126.391 112.759C127.682 112.759 128.973 112.759 130.263 112.759C130.598 112.759 130.935 112.771 131.269 112.759C131.437 112.753 131.594 112.68 131.757 112.643C132.204 112.541 132.645 112.475 133.073 112.302C133.408 112.166 133.73 112.007 134.066 111.866C134.306 111.765 134.561 111.697 134.8 111.594C134.924 111.54 135.01 111.439 135.145 111.391C136.119 111.046 137.018 110.525 137.881 109.958C138.375 109.634 138.907 109.218 139.2 108.7C139.265 108.585 139.378 108.505 139.448 108.391C139.562 108.207 139.66 108.031 139.789 107.856C139.883 107.728 139.921 107.581 140.003 107.448C140.136 107.231 140.315 107.046 140.454 106.833C140.996 106 141.445 105.101 141.865 104.2C141.953 104.011 142.056 103.782 142.172 103.609C142.353 103.337 142.465 103.024 142.653 102.756C142.72 102.661 142.755 102.567 142.789 102.456C142.843 102.28 142.953 102.144 143.026 101.977C143.11 101.786 143.224 101.598 143.333 101.416" stroke="black" stroke-width="3" stroke-linecap="round"/>
<path d="M143.488 100.911C143.564 100.654 143.679 100.43 143.692 100.153C143.702 99.9329 143.744 99.7024 143.83 99.4994C143.936 99.25 143.98 98.9831 144.049 98.7221C144.145 98.3551 144.25 97.991 144.339 97.6221C144.454 97.1466 144.551 96.6744 144.676 96.2027C144.742 95.9534 144.834 95.6993 144.958 95.4743C145.001 95.3967 145.087 95.2657 145.1 95.1793C145.115 95.0833 145.16 94.9685 145.16 94.868" stroke="black" stroke-width="3" stroke-linecap="round"/>
<path d="M115.978 109.904C115.978 109.245 116.192 108.687 116.45 108.078C116.539 107.866 116.556 107.656 116.592 107.43C116.624 107.228 116.745 107.082 116.836 106.907C116.898 106.788 116.924 106.563 117.024 106.478C117.133 106.384 117.084 106.181 117.166 106.077C117.467 105.693 117.602 105.304 117.769 104.837C117.999 104.192 118.409 103.615 118.639 102.972C118.992 101.983 119.44 101.061 119.85 100.095C120.023 99.6857 120.14 99.2827 120.356 98.8892C120.563 98.5122 120.771 98.1757 121.004 97.8144C121.233 97.4595 121.515 97.115 121.772 96.7795C121.896 96.6168 122.015 96.4427 122.147 96.2876C122.357 96.0406 122.605 95.8317 122.813 95.5854C123.177 95.1536 123.587 94.7746 124.103 94.4993C124.314 94.3869 124.538 94.2888 124.726 94.1382C124.894 94.0039 125.068 93.9904 125.241 93.8738C125.624 93.615 126.039 93.4615 126.435 93.2312C126.677 93.0903 126.971 93.0388 127.208 92.89C127.571 92.6623 128.001 92.5231 128.425 92.401C128.91 92.2612 129.378 91.9677 129.898 91.9404C130.829 91.8914 131.77 91.808 132.701 91.7869C132.967 91.7808 133.235 91.6921 133.503 91.6845C134.137 91.6666 134.765 91.6333 135.402 91.6333C135.848 91.6333 136.294 91.5822 136.744 91.5822C137.314 91.5822 137.816 91.9071 138.382 91.9404C138.777 91.9636 139.22 92.1856 139.61 92.273C139.871 92.3316 140.131 92.494 140.401 92.5033C140.606 92.5104 140.825 92.5403 141.026 92.583C141.212 92.6224 141.456 92.7469 141.629 92.7592C141.985 92.7847 142.269 92.8756 142.604 93.0094C142.747 93.0665 142.897 93.1606 143.05 93.1687C143.465 93.1905 143.806 93.7507 144.239 93.7828C144.43 93.7969 144.683 93.9777 144.779 94.141C144.876 94.3065 145.047 94.381 145.149 94.5504" stroke="black" stroke-width="3" stroke-linecap="round"/>
<path d="M129.745 110.226C129.745 110.146 129.817 110.056 129.847 109.983C129.902 109.849 129.961 109.707 130.061 109.602C130.168 109.489 130.234 109.353 130.364 109.256C130.48 109.17 130.583 109.08 130.691 108.982C130.826 108.859 130.95 108.719 131.092 108.605C131.223 108.499 131.342 108.304 131.427 108.161C131.482 108.069 131.526 107.971 131.589 107.884C131.658 107.79 131.683 107.681 131.763 107.595C131.886 107.462 131.987 107.287 132.097 107.141C132.208 106.993 132.321 106.84 132.411 106.677C132.496 106.523 132.584 106.358 132.69 106.218C132.83 106.033 133.041 105.816 133.092 105.589C133.12 105.462 133.219 105.325 133.276 105.208C133.348 105.06 133.421 104.926 133.474 104.769C133.525 104.614 133.58 104.464 133.625 104.305C133.662 104.18 133.729 104.069 133.76 103.945C133.807 103.757 133.917 103.594 133.964 103.405" stroke="black" stroke-linecap="round"/>
<path d="M129.69 110.059C129.69 109.987 129.666 109.969 129.634 109.91C129.55 109.757 129.487 109.586 129.415 109.427C129.366 109.319 129.343 109.2 129.291 109.092C129.242 108.991 129.212 108.863 129.151 108.77C129.112 108.712 129.033 108.602 128.979 108.564C128.924 108.524 128.808 108.412 128.783 108.345C128.738 108.224 128.653 108.14 128.597 108.023C128.521 107.862 128.486 107.684 128.416 107.521C128.331 107.322 128.314 107.102 128.212 106.908C128.147 106.785 128.135 106.635 128.073 106.511C127.997 106.36 127.921 106.216 127.833 106.072C127.758 105.949 127.766 105.775 127.737 105.638C127.714 105.529 127.643 105.446 127.599 105.348C127.556 105.254 127.522 105.164 127.479 105.071C127.435 104.975 127.386 104.882 127.348 104.781C127.327 104.727 127.273 104.652 127.273 104.595" stroke="black" stroke-linecap="round"/>
<path d="M127.338 104.893C127.324 104.779 127.198 104.72 127.192 104.601C127.188 104.517 127.192 104.431 127.192 104.347C127.192 104.095 127.192 103.843 127.192 103.59C127.192 103.406 127.192 103.221 127.192 103.037C127.192 102.689 127.127 102.285 127.21 101.951C127.264 101.738 127.265 101.454 127.265 101.235C127.265 101.137 127.338 101.061 127.338 100.978C127.338 100.845 127.368 100.671 127.403 100.542C127.453 100.351 127.52 100.102 127.52 99.9068C127.52 99.7951 127.656 99.7678 127.665 99.644C127.67 99.5748 127.704 99.5533 127.738 99.4984C127.798 99.4019 127.8 99.2851 127.831 99.179C127.897 98.9544 128.102 98.695 128.102 98.4653C128.102 98.3335 128.196 98.2577 128.248 98.1418C128.29 98.0466 128.383 97.8957 128.448 97.8163C128.529 97.7167 128.536 97.6394 128.595 97.5251C128.659 97.4044 128.813 97.2775 128.828 97.141C128.86 96.8497 129.146 96.6814 129.303 96.4576C129.41 96.3061 129.688 96.0923 129.703 95.9199C129.708 95.864 129.815 95.739 129.857 95.6934C129.945 95.5987 129.999 95.4917 130.096 95.4144C130.173 95.3528 130.182 95.2114 130.267 95.1354C130.33 95.0793 130.42 94.9665 130.433 94.8867C130.44 94.8435 130.56 94.7995 130.599 94.7735C130.806 94.6355 131.085 94.5222 131.195 94.3024" stroke="black" stroke-linecap="round"/>
<path d="M133.998 103.4C133.998 103.081 133.997 102.762 134.032 102.45C134.074 102.069 133.925 101.714 133.925 101.346C133.925 100.968 133.925 100.59 133.925 100.212C133.925 99.9995 133.93 99.808 133.86 99.6076C133.791 99.4076 133.814 99.2146 133.761 99.0152C133.703 98.7961 133.659 98.5604 133.63 98.3379C133.601 98.1243 133.548 97.8383 133.47 97.6363C133.425 97.5192 133.431 97.3884 133.379 97.2704C133.325 97.1484 133.372 97.0097 133.306 96.8944C133.258 96.8093 133.216 96.708 133.195 96.6133C133.156 96.4394 132.928 96.3342 132.861 96.1665C132.836 96.1019 132.766 96.0094 132.724 95.9482C132.699 95.9125 132.604 95.7271 132.595 95.7217C132.425 95.6248 132.362 95.3101 132.251 95.1637C132.143 95.0216 131.982 94.903 131.885 94.7573C131.826 94.6686 131.758 94.5412 131.683 94.4662C131.62 94.4037 131.483 94.369 131.45 94.3024" stroke="black" stroke-linecap="round"/>
<path d="M129.631 106.676C129.631 105.928 129.649 105.185 129.696 104.44C129.727 103.945 129.74 103.443 129.74 102.948C129.74 102.843 129.675 102.563 129.813 102.563" stroke="black" stroke-width="3" stroke-linecap="round"/>
<path d="M129.558 105.111C129.175 105.076 128.947 104.536 128.85 104.203C128.738 103.819 128.83 103.311 128.83 102.911C128.83 102.537 128.793 102.167 128.793 101.791C128.793 101.394 128.776 100.992 128.866 100.602C128.919 100.376 129.009 100.178 129.048 99.9432" stroke="black" stroke-width="3" stroke-linecap="round"/>
<path d="M130.868 106.93C130.868 106.547 130.859 106.223 130.994 105.857C131.017 105.793 131.036 105.708 131.048 105.641C131.069 105.524 131.149 105.453 131.204 105.349C131.345 105.084 131.439 104.735 131.451 104.432C131.473 103.867 131.785 103.409 131.812 102.85C131.851 102.079 131.815 101.297 131.815 100.525" stroke="black" stroke-width="3" stroke-linecap="round"/>
<path d="M132.069 103.874C132.069 103.322 132.142 102.802 132.142 102.25C132.142 101.34 132.027 100.437 131.741 99.5793" stroke="black" stroke-width="3" stroke-linecap="round"/>
<path d="M131.123 101.654C130.984 101.479 131.012 101.169 130.959 100.96C130.886 100.666 130.851 100.364 130.8 100.071C130.735 99.6977 130.835 99.3081 130.759 98.9323C130.74 98.8393 130.644 98.3372 130.731 98.2409C130.84 98.1199 130.905 97.8423 130.905 97.6687C130.905 97.4923 131.014 97.3448 131.014 97.1633C131.014 96.8487 131.196 96.6043 131.196 96.304" stroke="black" stroke-width="3" stroke-linecap="round"/>
<path d="M131.269 97.0319C131.269 97.4093 131.267 97.7544 131.341 98.1236C131.365 98.2391 131.38 98.3777 131.422 98.4875C131.47 98.6139 131.577 98.7742 131.594 98.904C131.629 99.1625 131.668 99.4167 131.723 99.6703C131.749 99.7866 131.75 99.9069 131.798 100.018C131.859 100.158 131.863 100.047 131.96 100.052C132.05 100.058 132.069 100.613 132.069 100.424C132.069 99.9727 132.106 99.5306 132.106 99.0779C132.106 98.9313 132.126 98.7621 132.104 98.6149C132.092 98.5387 132.033 98.4728 132.033 98.3966C132.033 98.3104 131.947 98.2381 131.924 98.156C131.889 98.0354 131.849 97.9167 131.814 97.7961" stroke="black" stroke-width="3" stroke-linecap="round"/>
<path d="M130.067 99.6885C130.067 99.4174 130.028 99.1873 129.95 98.9323C129.9 98.7702 129.883 98.4914 129.976 98.342C130.05 98.2235 130.016 98.0365 130.103 97.9053" stroke="black" stroke-width="3" stroke-linecap="round"/>
<path d="M129.777 108.823C129.738 109.173 129.74 108.119 129.74 107.767" stroke="black" stroke-linecap="round"/>
<path d="M145.09 94.0188C145.005 94.0081 145.081 93.9665 145.13 93.9684C145.223 93.972 145.272 94.0692 145.368 94.0692C145.505 94.0692 145.646 94.1197 145.796 94.1197" stroke="black" stroke-width="3" stroke-linecap="round"/>
<path d="M129.703 107.367C129.851 107.367 129.812 107.009 129.812 107.331" stroke="black" stroke-width="3" stroke-linecap="round"/>
<path d="M104.056 140.448C104.056 140.149 104.197 139.958 104.407 139.756C104.582 139.587 104.708 139.601 104.936 139.601C105.21 139.601 105.429 139.595 105.685 139.47C105.887 139.372 106.076 139.315 106.272 139.195C106.351 139.146 106.564 139.065 106.598 138.981C106.657 138.833 106.855 138.757 106.955 138.641C107.051 138.529 107.199 138.462 107.322 138.369C107.382 138.325 107.518 138.259 107.594 138.232C107.772 138.167 107.933 137.926 108.065 137.793C108.254 137.604 108.429 137.413 108.635 137.239C108.799 137.1 109.049 137.077 109.222 136.942C109.37 136.827 109.467 136.641 109.615 136.52C109.688 136.461 109.787 136.423 109.832 136.341C109.901 136.217 110.111 136.207 110.198 136.097C110.309 135.956 110.51 135.846 110.673 135.747C110.703 135.728 110.855 135.605 110.868 135.575C110.894 135.516 110.99 135.464 111.031 135.403C111.079 135.333 111.155 135.272 111.21 135.198C111.261 135.13 111.308 135.024 111.373 134.972C111.517 134.857 111.644 134.785 111.812 134.691C111.906 134.638 112.025 134.495 112.107 134.418C112.167 134.361 112.279 134.26 112.302 134.19" stroke="black" stroke-linecap="round"/>
<path d="M112.457 133.914C112.532 133.91 112.571 133.746 112.574 133.68C112.584 133.509 112.632 133.362 112.705 133.212C112.765 133.087 112.85 132.75 112.991 132.692C113.079 132.655 113.127 132.471 113.217 132.421C113.32 132.364 113.358 132.237 113.441 132.146C113.505 132.074 113.54 131.952 113.586 131.865C113.648 131.747 113.697 131.642 113.742 131.516C113.775 131.427 113.796 131.327 113.816 131.234C113.838 131.138 113.939 131.051 113.957 130.943C113.991 130.74 114.041 130.518 114.097 130.322C114.109 130.281 114.141 130.28 114.143 130.221C114.146 130.145 114.19 130.082 114.19 130.006C114.19 129.861 114.176 129.725 114.234 129.595C114.276 129.501 114.21 129.367 114.248 129.267C114.374 128.941 114.307 128.519 114.307 128.174C114.307 128.09 114.307 128.005 114.307 127.921C114.307 127.839 114.263 127.753 114.26 127.669C114.252 127.454 114.237 127.238 114.237 127.019C114.237 126.896 114.251 126.799 114.166 126.704C114.102 126.631 114.126 126.501 114.067 126.428C114.045 126.401 114.049 126.378 114.049 126.341C114.049 126.303 113.997 126.26 113.979 126.223C113.926 126.116 113.866 126.071 113.837 125.941C113.793 125.74 113.693 125.555 113.651 125.352C113.639 125.291 113.619 125.131 113.568 125.088C113.476 125.008 113.386 124.916 113.278 124.846C113.091 124.724 112.937 124.548 112.773 124.394C112.693 124.319 112.652 124.217 112.574 124.139C112.532 124.097 112.472 124.073 112.424 124.037C112.264 123.915 112.082 123.76 111.979 123.591C111.91 123.477 111.804 123.437 111.685 123.39C111.61 123.361 111.544 123.331 111.466 123.304C111.391 123.279 111.184 123.268 111.146 123.193" stroke="black" stroke-linecap="round"/>
<path d="M103.828 125.035C103.828 124.955 103.879 124.88 103.913 124.811C103.941 124.753 103.945 124.683 103.984 124.632C104.014 124.592 104.04 124.556 104.068 124.516C104.148 124.401 104.255 124.297 104.345 124.189C104.412 124.108 104.495 124.029 104.576 123.963C104.614 123.932 104.657 123.916 104.692 123.881C104.739 123.834 104.795 123.815 104.848 123.776C104.965 123.69 105.101 123.625 105.225 123.547C105.42 123.425 105.597 123.271 105.787 123.14C106.058 122.954 106.382 122.841 106.678 122.714C106.713 122.698 106.763 122.708 106.8 122.706C106.882 122.703 106.961 122.683 107.043 122.68C107.135 122.676 107.222 122.68 107.313 122.665C107.666 122.606 108.027 122.594 108.378 122.527C108.546 122.495 108.738 122.524 108.91 122.524C109.165 122.524 109.42 122.524 109.675 122.524C109.799 122.524 109.92 122.519 110.042 122.545C110.153 122.569 110.271 122.567 110.369 122.632C110.57 122.765 110.804 122.824 111.013 122.941C111.084 122.98 111.148 123.006 111.209 123.062C111.317 123.161 111.395 123.299 111.506 123.391C111.546 123.425 111.565 123.452 111.608 123.476C111.646 123.497 111.687 123.512 111.728 123.525" stroke="black" stroke-linecap="round"/>
<path d="M103.41 125.298C103.471 125.207 103.098 124.986 103.002 124.957C102.908 124.928 102.839 124.791 102.759 124.732C102.687 124.68 102.656 124.609 102.591 124.55C102.468 124.439 102.262 124.36 102.121 124.262C101.973 124.158 101.841 124.063 101.702 123.953C101.612 123.881 101.542 123.79 101.464 123.707C101.305 123.538 101.113 123.403 100.931 123.261C100.873 123.215 100.782 123.187 100.715 123.157C100.676 123.139 100.635 123.146 100.593 123.144C100.524 123.141 100.54 123.098 100.493 123.071C100.316 122.967 100.107 122.96 99.9038 122.96C99.713 122.96 99.5838 122.81 99.4046 122.778C99.189 122.738 98.9824 122.643 98.7565 122.624C98.3559 122.591 97.9496 122.645 97.5509 122.645C97.4375 122.645 97.3242 122.645 97.2108 122.645C97.1536 122.645 96.9706 122.617 96.9218 122.658C96.8786 122.694 96.7893 122.681 96.7364 122.703C96.6735 122.73 96.5733 122.817 96.5102 122.827C96.3432 122.853 96.1687 122.796 96.0212 122.896C95.935 122.954 95.8149 123.007 95.7176 123.045C95.6138 123.085 95.5718 123.176 95.4899 123.223C95.3914 123.279 95.2995 123.369 95.2126 123.448C95.1865 123.471 95.1382 123.457 95.1061 123.475C95.0164 123.526 94.9235 123.566 94.8331 123.615C94.7577 123.657 94.6699 123.701 94.5923 123.725C94.4778 123.76 94.3889 123.894 94.2872 123.958C94.1561 124.041 94.0809 124.145 93.9632 124.242C93.8034 124.373 93.7411 124.569 93.518 124.668C93.3297 124.751 93.3187 124.992 93.229 125.154C93.1784 125.245 93.0959 125.314 93.032 125.398C93.0059 125.431 92.9511 125.426 92.9327 125.468C92.909 125.521 92.9269 125.539 92.886 125.587C92.7907 125.701 92.8278 125.879 92.743 126.014C92.6807 126.112 92.6017 126.223 92.5839 126.339C92.578 126.377 92.5128 126.596 92.4919 126.613C92.3583 126.728 92.4026 126.979 92.3109 127.123C92.2739 127.181 92.2724 127.354 92.27 127.421C92.2659 127.538 92.249 127.66 92.2175 127.774C92.0895 128.238 92.0861 128.723 92.0861 129.204C92.0861 129.329 92.0378 129.505 92.0015 129.627C91.9751 129.717 91.981 129.804 91.981 129.898C91.981 130.037 91.981 130.177 91.981 130.316C91.981 130.495 92.0088 130.632 92.054 130.804C92.1151 131.036 92.0928 131.299 92.1387 131.537C92.1864 131.784 92.1885 132.116 92.3635 132.316C92.4014 132.359 92.3862 132.42 92.4277 132.458C92.4795 132.504 92.4998 132.579 92.5211 132.643C92.6158 132.927 92.7866 133.169 92.8875 133.449C92.9439 133.605 92.9843 133.837 93.1108 133.957C93.194 134.035 93.3407 134.126 93.4406 134.184C93.5616 134.254 93.6894 134.37 93.8012 134.459C94.0551 134.66 94.2457 134.903 94.4536 135.149C94.4948 135.198 94.5303 135.257 94.5806 135.295C94.7153 135.396 94.823 135.516 94.9353 135.641C95.0837 135.807 95.19 135.783 95.3177 135.624" stroke="black" stroke-linecap="round"/>
<path d="M95.1074 135.334C95.1074 135.512 95.3548 135.676 95.5015 135.761C95.7187 135.886 95.8982 136.07 96.1116 136.196C96.5066 136.429 96.7701 136.813 97.0925 137.136C97.1764 137.22 97.3476 137.436 97.4661 137.463C97.5249 137.476 97.6282 137.539 97.6676 137.585C97.7903 137.73 97.9214 137.773 98.05 137.895C98.1454 137.985 98.2748 138.036 98.3769 138.119C98.5664 138.274 98.7743 138.411 98.9578 138.581C99.0045 138.624 99.0892 138.702 99.1432 138.725C99.3035 138.795 99.4556 138.956 99.5621 139.091C99.6237 139.17 99.7387 139.243 99.8176 139.303C99.8933 139.361 100.021 139.453 100.111 139.486C100.233 139.53 100.333 139.662 100.435 139.741C100.626 139.888 100.817 140.079 101.041 140.176C101.129 140.214 101.177 140.25 101.26 140.3C101.332 140.343 101.419 140.366 101.486 140.417C101.526 140.448 101.555 140.499 101.608 140.509C101.789 140.542 101.858 140.728 102.007 140.812C102.197 140.92 102.372 141.028 102.569 141.126C102.749 141.216 102.93 141.329 103.124 141.415C103.266 141.479 103.415 141.449 103.566 141.459C103.709 141.469 103.798 141.561 103.935 141.561" stroke="black" stroke-linecap="round"/>
<path d="M110.424 136.018C110.327 136.054 110.2 136.153 110.15 136.254C110.12 136.314 110.062 136.342 110.03 136.397C110.018 136.419 109.984 136.411 109.965 136.426C109.929 136.454 109.939 136.489 109.914 136.517C109.842 136.596 109.731 136.743 109.63 136.785C109.552 136.818 109.515 136.843 109.465 136.909C109.36 137.05 109.182 137.16 109.045 137.267C108.927 137.359 108.721 137.479 108.644 137.606C108.602 137.674 108.522 137.697 108.48 137.757C108.414 137.855 108.343 137.869 108.26 137.959C108.227 137.994 108.209 137.982 108.166 137.989C108.133 137.995 108.111 138.044 108.086 138.065C108.016 138.125 107.903 138.135 107.829 138.204C107.732 138.294 107.61 138.338 107.514 138.414C107.353 138.543 107.162 138.644 107.002 138.776C106.918 138.845 106.844 138.979 106.775 139.062C106.743 139.102 106.683 139.218 106.641 139.243C106.584 139.277 106.575 139.311 106.53 139.348C106.452 139.413 106.312 139.443 106.222 139.51C106.165 139.553 106.129 139.597 106.078 139.643C106.006 139.708 105.92 139.739 105.838 139.786C105.793 139.812 105.794 139.88 105.735 139.88C105.686 139.88 105.581 139.978 105.539 140.01C105.476 140.057 105.392 140.06 105.327 140.096C105.248 140.14 105.184 140.257 105.091 140.306C105.01 140.348 104.97 140.397 104.894 140.446C104.82 140.494 104.738 140.604 104.655 140.617C104.553 140.632 104.498 140.705 104.434 140.773C104.376 140.834 104.265 140.874 104.224 140.945C104.179 141.023 104.042 141.058 103.969 141.1C103.895 141.141 103.849 141.21 103.777 141.246" stroke="black" stroke-linecap="round"/>
<path d="M103.398 137.759C103.226 137.759 102.899 137.214 102.766 137.082C102.661 136.977 102.584 136.869 102.499 136.748C102.332 136.513 102.038 136.331 101.819 136.145C101.534 135.902 101.296 135.69 101.014 135.452C100.55 135.059 99.9223 134.882 99.4478 134.502C99.2721 134.361 99.0212 134.279 98.8137 134.194C98.4756 134.056 98.0669 133.841 97.7849 133.611C97.4825 133.363 97.2011 133.093 96.8936 132.854C96.7143 132.715 96.4209 132.396 96.178 132.396C95.9708 132.396 95.7583 132.28 95.5949 132.167C95.424 132.048 95.2761 131.953 95.1467 131.79C94.9627 131.558 94.6663 131.501 94.5304 131.23C94.3422 130.853 94.3782 130.38 94.3114 129.972C94.2592 129.653 94.2758 129.329 94.2758 129.007C94.2758 128.536 94.188 127.987 94.3903 127.56C94.4871 127.356 94.6539 127.193 94.752 127.007C94.8519 126.819 95.0161 126.741 95.1008 126.529" stroke="black" stroke-width="5" stroke-linecap="round"/>
<path d="M96.6143 129.875C96.6274 129.73 96.7102 129.519 96.8434 129.452C96.9993 129.374 97.1641 129.443 97.3095 129.516C97.705 129.714 98.1118 129.901 98.4987 130.114C98.8673 130.318 99.2323 130.491 99.6141 130.667C100.133 130.905 100.533 131.287 100.989 131.622C101.246 131.81 101.565 132.047 101.565 132.396" stroke="black" stroke-width="5" stroke-linecap="round"/>
<path d="M103.352 138.126C103.242 138.004 103.18 137.8 103.108 137.657C103.056 137.556 102.671 136.618 102.499 136.618C102.358 136.618 102.153 136.659 102.033 136.73C101.916 136.799 101.749 136.716 101.628 136.707C101.155 136.672 100.864 136.468 100.536 136.139C100.433 136.036 100.228 135.94 100.098 135.87C99.9161 135.77 99.7453 135.65 99.5706 135.538C99.2431 135.33 98.8691 135.14 98.5851 134.871C98.2388 134.544 97.7838 134.35 97.4137 134.056C97.2624 133.936 97.0002 133.761 96.8891 133.598C96.8492 133.539 96.7786 133.342 96.7236 133.318C96.6189 133.271 96.5187 133.256 96.4766 133.129" stroke="black" stroke-width="5" stroke-linecap="round"/>
<path d="M101.427 137.347C101.493 137.371 101.556 137.536 101.656 137.586C101.75 137.633 101.775 137.667 101.885 137.667" stroke="black" stroke-width="5" stroke-linecap="round"/>
<path d="M104.406 137.897C104.323 137.739 104.255 137.611 104.406 137.481C104.469 137.427 104.584 137.385 104.63 137.321C104.679 137.255 104.691 137.168 104.773 137.128C104.998 137.015 105.235 136.919 105.461 136.794C105.627 136.701 105.813 136.479 105.955 136.348C106.074 136.238 106.226 136.152 106.334 136.032C106.518 135.831 106.771 135.75 106.963 135.533C107.237 135.224 107.606 135.013 107.89 134.729C108.269 134.35 108.839 134.048 109.107 133.565C109.344 133.139 109.79 132.9 110.126 132.569C110.211 132.486 110.307 132.268 110.393 132.21C110.792 131.945 110.881 131.368 111.073 130.955C111.288 130.495 111.557 129.979 111.557 129.462" stroke="black" stroke-width="5" stroke-linecap="round"/>
<path d="M111.511 128.591C111.511 128.349 111.584 128.179 111.501 127.94C111.428 127.73 111.252 127.178 111.029 127.079C110.914 127.028 110.824 126.825 110.732 126.732C110.586 126.587 110.445 126.44 110.296 126.3C110.188 126.197 110.062 126.045 109.978 125.923C109.925 125.847 109.783 125.667 109.703 125.622C109.481 125.499 109.348 125.383 109.071 125.383C108.812 125.383 108.593 125.245 108.322 125.245C108.08 125.245 107.837 125.245 107.594 125.245C107.478 125.245 107.307 125.452 107.202 125.51C107.088 125.573 107.064 125.673 107.064 125.795" stroke="black" stroke-width="5" stroke-linecap="round"/>
<path d="M111.465 126.804C111.338 126.689 111.082 126.685 110.915 126.666C110.732 126.646 110.618 126.529 110.411 126.529" stroke="black" stroke-width="5" stroke-linecap="round"/>
<path d="M108.578 128.454C108.554 128.879 108.234 129.167 107.898 129.376C106.861 130.021 105.963 130.68 105.247 131.701C104.952 132.122 104.703 132.573 104.524 133.056C104.446 133.264 104.383 133.482 104.279 133.679C104.052 134.113 104.086 133.658 104.086 133.404" stroke="black" stroke-width="5" stroke-linecap="round"/>
<path d="M104.36 131.342C103.855 131.342 103.346 131.361 102.842 131.331C102.466 131.31 102.379 131.257 102.145 131.006C101.671 130.499 101.37 129.967 100.754 129.595C100.488 129.434 100.336 129.316 100.036 129.213C99.4918 129.026 98.9309 128.816 98.4877 128.439C98.247 128.234 98.055 127.96 97.8511 127.72C97.6848 127.525 97.6611 127.116 97.5658 126.88C97.4587 126.614 97.4188 126.301 97.301 126.045C97.2479 125.929 97.2136 125.756 97.1533 125.658C97.1232 125.608 96.8942 125.534 97.0616 125.52C97.1531 125.513 97.2296 125.474 97.3265 125.474C97.442 125.474 97.6327 125.44 97.7365 125.497C97.8431 125.557 97.9613 125.571 98.0752 125.612C98.1818 125.65 98.2877 125.766 98.3808 125.793C98.5566 125.843 98.6583 126.019 98.8417 126.075C99.1344 126.165 99.3899 126.368 99.6184 126.534C99.7853 126.655 99.9702 126.748 100.13 126.878C100.308 127.022 100.559 127.082 100.719 127.242C101.101 127.624 101.701 127.759 102.142 128.064C102.288 128.165 102.394 128.293 102.527 128.411C102.689 128.555 102.896 128.652 103.079 128.77C103.632 129.125 104.428 129.105 105.048 129.141" stroke="black" stroke-width="5" stroke-linecap="round"/>
<path d="M98.8145 124.649C99.146 124.649 99.173 124.917 99.4129 125.082C99.6107 125.218 99.8362 125.296 100.027 125.451C100.235 125.622 100.353 125.872 100.541 126.06C100.995 126.514 101.466 126.668 102.021 126.941C102.43 127.143 102.901 127.227 103.327 127.397C103.655 127.528 103.981 127.609 104.315 127.72" stroke="black" stroke-width="5" stroke-linecap="round"/>
<path d="M105.598 126.254C105.598 126.198 105.415 126.139 105.369 126.07" stroke="black" stroke-width="5" stroke-linecap="round"/>
<path d="M73.4697 142.094C73.4697 142.363 73.577 142.703 73.714 142.929C73.9318 143.288 73.9224 143.715 74.0371 144.127C74.158 144.561 74.2217 145.014 74.3523 145.443C74.3976 145.592 74.5173 145.767 74.5336 145.908C74.5883 146.383 74.8667 146.804 74.8882 147.287C74.9115 147.811 75.2211 148.277 75.3689 148.761C75.4715 149.096 75.5541 149.428 75.6841 149.753C75.8582 150.189 75.947 150.702 76.2909 151.046C76.6155 151.37 77.0562 151.568 77.469 151.767C77.6679 151.863 77.913 151.931 78.0955 152.055C78.318 152.206 78.6195 152.286 78.8165 152.449C78.9868 152.589 79.1834 152.624 79.3564 152.748C79.5696 152.9 79.7613 153.08 80.0183 153.154C80.3469 153.248 80.5875 153.675 80.9206 153.8C81.2524 153.924 81.7103 154.227 81.949 154.466C82.2738 154.791 82.9061 154.975 83.3359 155.112C83.7373 155.24 84.0642 155.39 84.4865 155.459C84.8195 155.513 85.1728 155.674 85.4912 155.707C85.7092 155.73 85.9313 155.766 86.1492 155.782C86.3148 155.794 86.3494 155.924 86.5511 155.924C87.1533 155.924 87.7493 155.995 88.3557 155.995C89.191 155.995 90.0264 155.995 90.8617 155.995C91.4317 155.995 92.0017 155.995 92.5717 155.995C92.8336 155.995 93.0097 155.735 93.2573 155.711C93.6421 155.674 93.9038 155.435 94.2345 155.215C94.6094 154.965 95.1039 154.876 95.4402 154.592C95.8806 154.22 96.6363 154.282 97.0162 153.812C97.1478 153.649 97.4163 153.518 97.5836 153.374C97.7517 153.23 97.9192 153.074 98.0486 152.89C98.2888 152.548 98.621 152.316 98.8996 152.023C98.9616 151.958 98.9526 151.854 99.0178 151.787C99.1545 151.645 99.3523 151.521 99.5025 151.389C99.7762 151.147 100.021 151.134 100.07 150.77C100.1 150.545 100.216 150.35 100.263 150.132C100.323 149.85 100.332 149.555 100.456 149.292C100.63 148.925 101.003 148.305 101.343 148.087C101.546 147.956 101.682 147.597 101.768 147.381C101.855 147.165 101.9 146.926 102.012 146.72C102.112 146.538 102.273 146.389 102.328 146.184C102.431 145.798 102.69 145.464 102.69 145.041C102.69 144.624 102.726 144.179 102.867 143.784C103.018 143.363 102.9 142.955 103.116 142.523C103.403 141.948 103.328 141.169 103.328 140.533" stroke="black" stroke-width="3" stroke-linecap="round"/>
<path d="M103.222 141.184C103.222 142.398 103.256 143.625 103.766 144.746C103.94 145.129 103.975 145.788 103.975 146.205C103.975 146.627 104.179 147.366 104.44 147.698C104.579 147.874 104.963 148.354 104.979 148.567C104.996 148.781 105.218 149.572 105.351 149.72C105.466 149.849 105.541 149.788 105.607 149.971C105.66 150.121 105.712 150.24 105.821 150.357C106.098 150.658 106.46 150.911 106.718 151.227C106.949 151.51 107.383 151.851 107.708 152.026C108.086 152.23 108.448 152.619 108.843 152.738C109.053 152.801 109.237 153.045 109.433 153.068C109.873 153.119 110.329 153.553 110.726 153.737C111.572 154.131 112.514 154.413 113.311 154.909C113.642 155.115 113.977 155.302 114.315 155.495C114.612 155.665 115.149 155.618 115.482 155.658C116.493 155.777 117.539 155.767 118.551 155.834C119.318 155.885 120.332 156.117 121.085 155.876C121.787 155.651 122.479 155.463 123.195 155.281C125.161 154.782 126.722 153.745 128.287 152.529C129.017 151.96 129.719 151.49 130.044 150.553C130.135 150.291 130.276 150.12 130.421 149.888C130.724 149.402 130.862 148.849 131.211 148.381C131.723 147.695 132.316 147.065 132.68 146.298C132.831 145.981 133.015 145.313 133.015 144.959C133.015 144.602 133.256 144.265 133.35 143.937C133.465 143.534 133.443 143.117 133.536 142.709C133.618 142.346 133.684 142.058 133.684 141.686" stroke="black" stroke-width="3" stroke-linecap="round"/>
<path d="M103.26 140.005C103.167 140.11 103.118 140.338 103.123 140.474C103.126 140.544 103.466 140.64 103.159 140.545C102.999 140.496 102.776 140.336 102.619 140.326C102.495 140.318 102.858 140.388 102.978 140.418C103.054 140.437 103.21 140.574 103.26 140.637C103.426 140.843 103.429 140.85 103.5 140.611C103.547 140.451 103.668 140.172 103.525 140.015C103.388 139.864 102.77 140.747 102.563 140.739C102.417 140.733 102.298 140.457 102.298 140.326" stroke="black" stroke-linecap="round"/>
<path d="M102.802 132.809C102.877 132.809 103.05 132.944 103.077 133.017C103.162 133.253 103.123 133.524 103.123 133.771" stroke="black" stroke-width="5" stroke-linecap="round"/>
<path d="M95.6029 135.384C95.6029 135.456 95.6592 135.466 95.6624 135.523C95.6674 135.613 95.6602 135.609 95.7175 135.666C95.7824 135.731 95.6832 135.721 95.6425 135.721C95.5725 135.721 95.4971 135.666 95.4441 135.621C95.3513 135.541 95.4 135.599 95.4243 135.654C95.4553 135.724 95.5122 135.714 95.5731 135.741C95.5989 135.752 95.712 135.82 95.6525 135.82C95.597 135.82 95.5359 135.809 95.5037 135.761" stroke="black" stroke-linecap="round"/>
<path d="M95.2461 135.483C95.281 135.488 95.2963 135.535 95.3056 135.563" stroke="black" stroke-linecap="round"/>
<path d="M114.332 128.591C114.332 128.365 114.356 128.137 114.356 127.907C114.356 127.717 114.383 127.605 114.258 127.459" stroke="black" stroke-linecap="round"/>
<path d="M113.421 131.84C113.541 131.611 113.666 131.39 113.765 131.151" stroke="black" stroke-linecap="round"/>
<path d="M113.076 132.923C113.102 132.757 113.191 132.603 113.243 132.445C113.305 132.252 113.362 132.058 113.421 131.865" stroke="black" stroke-linecap="round"/>
<path d="M113.175 132.849C113.134 132.857 113.093 132.889 113.076 132.923" stroke="black" stroke-linecap="round"/>
<path d="M112.534 133.588C112.609 133.504 112.685 133.421 112.75 133.331C112.821 133.232 112.977 133.043 112.977 132.923" stroke="black" stroke-linecap="round"/>
<line x1="21.6246" y1="150.01" x2="76.6827" y2="135.225" stroke="black" stroke-width="3"/>
<line x1="130.403" y1="136.225" x2="185.461" y2="151.008" stroke="black" stroke-width="3"/>
<line x1="21.4083" y1="111.226" x2="76.4083" y2="126.226" stroke="black" stroke-width="3"/>
<line x1="130.619" y1="127.231" x2="185.618" y2="112.226" stroke="black" stroke-width="3"/>
<line x1="19.0248" y1="131.173" x2="76.032" y2="131.598" stroke="black" stroke-width="3"/>
<line x1="131.025" y1="131.173" x2="188.032" y2="131.598" stroke="black" stroke-width="3"/>
</g>
<defs>
<clipPath id="clip0_15_442">
<rect width="218" height="361" fill="white"/>
</clipPath>
</defs>
</svg>
