<svg width="63" height="296" viewBox="0 0 63 296" fill="none" xmlns="http://www.w3.org/2000/svg">
<g clip-path="url(#clip0_24_3894)">
<path d="M26.6016 258C26.6016 260.391 28.7178 263.015 33.209 265.128C37.5826 267.186 43.7302 268.5 50.6016 268.5C57.4729 268.5 63.6205 267.186 67.9941 265.128C72.4853 263.015 74.6016 260.391 74.6016 258C74.6016 255.609 72.4853 252.985 67.9941 250.872C63.6205 248.814 57.4729 247.5 50.6016 247.5C43.7302 247.5 37.5826 248.814 33.209 250.872C28.7178 252.985 26.6016 255.609 26.6016 258Z" fill="white" stroke="black" stroke-width="3"/>
<path d="M-44.3984 258C-44.3984 260.391 -42.2822 263.015 -37.791 265.128C-33.4174 267.186 -27.2698 268.5 -20.3984 268.5C-13.5271 268.5 -7.37951 267.186 -3.00591 265.128C1.48532 263.015 3.60156 260.391 3.60156 258C3.60156 255.609 1.48532 252.985 -3.00591 250.872C-7.37951 248.814 -13.5271 247.5 -20.3984 247.5C-27.2698 247.5 -33.4174 248.814 -37.791 250.872C-42.2822 252.985 -44.3984 255.609 -44.3984 258Z" fill="white" stroke="black" stroke-width="3"/>
<path d="M-64.3984 180C-64.3984 229.057 -29.3072 268.5 13.6016 268.5C56.5103 268.5 91.6016 229.057 91.6016 180C91.6016 130.943 56.5103 91.5 13.6016 91.5C-29.3072 91.5 -64.3984 130.943 -64.3984 180Z" fill="white" stroke="black" stroke-width="3"/>
<path d="M78.3191 43.3702L78.0118 18.3927L40.4208 21.7929L78.3191 43.3702Z" fill="white" stroke="black" stroke-width="3"/>
<path d="M-59.3984 73.3995C-59.3984 88.7426 -51.3046 102.735 -38.0178 112.94C-24.7295 123.145 -6.3075 129.5 14.1016 129.5C34.5106 129.5 52.9326 123.145 66.2209 112.94C79.5077 102.735 87.6016 88.7426 87.6016 73.3995C87.6016 58.0563 79.5077 44.0637 66.2209 33.8594C52.9326 23.6539 34.5106 17.299 14.1016 17.299C-6.3075 17.299 -24.7295 23.6539 -38.0178 33.8594C-51.3046 44.0637 -59.3984 58.0563 -59.3984 73.3995Z" fill="white" stroke="black" stroke-width="3"/>
<path d="M14.6016 270C14.6016 272.637 16.2508 275.225 19.3364 277.227C22.4074 279.219 26.7396 280.5 31.6016 280.5C36.4635 280.5 40.7957 279.219 43.8668 277.227C46.9524 275.225 48.6016 272.637 48.6016 270C48.6016 267.363 46.9524 264.775 43.8668 262.773C40.7957 260.781 36.4635 259.5 31.6016 259.5C26.7396 259.5 22.4074 260.781 19.3364 262.773C16.2508 264.775 14.6016 267.363 14.6016 270Z" fill="white" stroke="black" stroke-width="3"/>
<line y1="-1.5" x2="44.248" y2="-1.5" transform="matrix(-0.1017 -0.994815 -0.994815 0.1017 16.1016 264.019)" stroke="black" stroke-width="3"/>
<line y1="-1.5" x2="39.4867" y2="-1.5" transform="matrix(0.192435 -0.98131 -0.98131 -0.192435 40.5029 260.749)" stroke="black" stroke-width="3"/>
<path d="M-22.3984 270C-22.3984 272.637 -20.7492 275.225 -17.6636 277.227C-14.5926 279.219 -10.2604 280.5 -5.39844 280.5C-0.536516 280.5 3.79569 279.219 6.86675 277.227C9.95237 275.225 11.6016 272.637 11.6016 270C11.6016 267.363 9.95237 264.775 6.86675 262.773C3.79569 260.781 -0.536516 259.5 -5.39844 259.5C-10.2604 259.5 -14.5926 260.781 -17.6636 262.773C-20.7492 264.775 -22.3984 267.363 -22.3984 270Z" fill="white" stroke="black" stroke-width="3"/>
<line y1="-1.5" x2="44.248" y2="-1.5" transform="matrix(-0.104528 0.994522 0.994522 0.104528 14.1016 220)" stroke="black" stroke-width="3"/>
<path d="M41.9053 71.302C41.9053 71.2369 41.8756 71.1794 41.8281 71.1318C41.771 71.0748 41.7119 70.9874 41.6784 70.912C41.639 70.8233 41.5434 70.7447 41.5074 70.6489C41.4667 70.5403 41.3483 70.436 41.2813 70.3409C41.2156 70.2474 41.196 70.095 41.1111 70.0226C41.0351 69.9577 40.9437 69.8125 40.8969 69.724C40.8609 69.656 40.8052 69.5988 40.774 69.5294C40.7585 69.495 40.7256 69.4652 40.7149 69.4293C40.6868 69.3356 40.6481 69.2435 40.618 69.1497C40.5988 69.0901 40.5878 69.0324 40.5612 68.9748C40.5122 68.8682 40.4662 68.7601 40.4249 68.6502C40.3809 68.5327 40.3591 68.4072 40.3139 68.2909C40.299 68.2528 40.2702 68.2227 40.2516 68.1869C40.1958 68.0795 40.1455 67.9701 40.0901 67.8623C39.9987 67.6845 39.956 67.4617 39.8286 67.2998C39.699 67.1353 39.6841 66.919 39.6158 66.7239C39.5945 66.663 39.5805 66.5969 39.5654 66.5341C39.5443 66.4461 39.4845 66.3769 39.4662 66.2898C39.4535 66.2298 39.4378 66.1878 39.4378 66.126" stroke="black" stroke-linecap="round"/>
<path d="M42.1733 71.1282C42.0685 71.0692 42.1998 70.9795 42.2435 70.9319C42.3211 70.8473 42.4106 70.8355 42.4542 70.7092C42.5143 70.5348 42.598 70.3558 42.6845 70.1936C42.7088 70.1482 42.7512 70.0747 42.7898 70.0422C42.8355 70.0039 42.8358 69.9346 42.8842 69.8996C42.9186 69.8748 42.9367 69.8104 42.9621 69.7746C42.9947 69.7284 43.0247 69.6837 43.0608 69.6385C43.1265 69.5564 43.2033 69.4949 43.2791 69.4192C43.3157 69.3825 43.388 69.2824 43.3965 69.2316C43.4057 69.1761 43.4745 69.1162 43.516 69.0747C43.6726 68.9181 43.6807 68.684 43.8319 68.5328C43.895 68.4697 43.9403 68.3979 44.0086 68.3354C44.0414 68.3053 44.0902 68.3107 44.104 68.2652C44.1242 68.1985 44.1661 68.1369 44.2049 68.0787C44.3215 67.9038 44.4593 67.7266 44.5472 67.5412C44.5835 67.4644 44.6433 67.4157 44.6909 67.347C44.7269 67.2949 44.7353 67.2428 44.7611 67.1868C44.816 67.0678 44.9394 67.0098 44.9816 66.8786C45.0087 66.794 45.0956 66.6879 45.0956 66.6065C45.0956 66.5476 45.1351 66.5023 45.1351 66.4376C45.1351 66.3758 45.1599 66.3416 45.179 66.2862C45.2085 66.201 45.1921 66.1173 45.2635 66.046C45.354 65.9554 45.3914 65.8243 45.4467 65.707C45.4717 65.654 45.4668 65.6113 45.4719 65.5557C45.4841 65.4214 45.5472 65.2953 45.5783 65.1651C45.5941 65.0992 45.5915 65.0155 45.6134 64.9523C45.627 64.9131 45.6799 64.8879 45.688 64.8492C45.6966 64.8082 45.734 64.7741 45.756 64.7395C45.7784 64.7043 45.777 64.6575 45.7966 64.6221C45.8434 64.538 45.846 64.4579 45.846 64.3644C45.846 64.2874 45.8475 64.2111 45.8964 64.1483C45.9574 64.0698 45.925 63.9114 45.925 63.8159C45.925 63.6358 45.942 63.4487 45.925 63.2696C45.9132 63.1464 45.8577 63.0222 45.8471 62.8944C45.8391 62.7992 45.8227 62.7109 45.8262 62.6136C45.8289 62.5392 45.846 62.4676 45.846 62.3909C45.846 62.3137 45.8855 62.2549 45.8855 62.1836" stroke="black" stroke-linecap="round"/>
<path d="M39.4722 65.9102C39.4722 65.0388 39.3948 64.1763 39.3948 63.3111C39.3948 63.0832 39.3822 62.8514 39.3948 62.6238C39.4059 62.4245 39.4315 62.1248 39.5301 61.9472C39.6343 61.7597 39.5425 61.5555 39.702 61.3694C39.7669 61.2936 39.7159 61.189 39.7986 61.1181C39.8501 61.0739 39.8867 60.8837 39.9275 60.8066C40.0167 60.6382 40.2068 60.3891 40.2068 60.188C40.2068 59.9768 40.312 59.797 40.3227 59.5866C40.3321 59.404 40.4405 59.3299 40.5547 59.2042C40.9036 58.8204 41.2442 58.4148 41.4912 57.9455C41.6333 57.6757 41.8595 57.4372 42.0153 57.1723C42.0747 57.0713 42.1742 57.0393 42.2086 56.9188C42.2498 56.7746 42.3531 56.6657 42.4664 56.573C42.6195 56.4478 42.6885 56.2247 42.8165 56.0682C42.9822 55.8657 43.1167 55.6929 43.2998 55.5098" stroke="black" stroke-linecap="round"/>
<path d="M45.8521 62.1598C45.8521 61.6835 46.0201 61.0583 45.8521 60.5961C45.7773 60.3905 45.632 60.1818 45.6201 59.956C45.6172 59.9014 45.5675 59.8799 45.5513 59.8314C45.5285 59.7628 45.554 59.6926 45.5234 59.6252C45.4654 59.4976 45.4807 59.3612 45.4354 59.2343C45.3364 58.9572 45.2915 58.6716 45.0981 58.4353C45.0177 58.337 44.9536 58.2699 44.8941 58.1389C44.8384 58.0165 44.7167 57.83 44.6922 57.7071C44.6492 57.4925 44.5315 57.3305 44.4172 57.1465C44.1806 56.7654 44.0149 56.3393 43.7728 55.9651C43.746 55.9236 43.778 55.8637 43.7557 55.8191C43.7299 55.7675 43.6608 55.7625 43.6311 55.7031C43.5908 55.6224 43.5696 55.5604 43.4936 55.5098" stroke="black" stroke-linecap="round"/>
<path d="M42.9521 66.1421C42.9521 66.2732 42.8525 66.3367 42.8362 66.4514C42.813 66.6134 42.8002 66.7413 42.7374 66.9003C42.6846 67.0337 42.5346 67.2325 42.5269 67.3793C42.5178 67.5514 42.4431 67.797 42.3507 67.9421C42.2558 68.0913 42.2631 68.3927 42.2261 68.5693C42.1891 68.7464 42.1789 68.8959 42.1789 69.0805" stroke="black" stroke-width="3" stroke-linecap="round"/>
<path d="M42.9906 59.9946C42.9906 59.848 42.9691 59.7581 43.098 59.6638C43.1964 59.5919 43.2761 59.4688 43.3192 59.3567C43.4023 59.1406 43.2544 58.8523 43.3772 58.65C43.5068 58.4366 43.4932 58.1687 43.4932 57.9261C43.4932 57.8252 43.4932 57.7242 43.4932 57.6233C43.4932 57.3728 43.5548 58.1623 43.4159 58.3708" stroke="black" stroke-width="3" stroke-linecap="round"/>
<path d="M43.5323 66.5674C43.6661 66.5526 43.7655 66.3437 43.8588 66.256C44.0716 66.0557 44.0376 65.8742 44.1122 65.6223C44.2071 65.302 44.2282 64.9247 44.2282 64.5935C44.2282 64.2636 44.3479 63.9592 44.3807 63.6312C44.4655 62.7838 44.3829 61.8943 44.3829 61.0407C44.3829 60.7435 44.3477 60.4267 44.2368 60.1493C44.1843 60.0181 44.2282 59.7869 44.2282 59.6467" stroke="black" stroke-width="3" stroke-linecap="round"/>
<path d="M41.3279 66.3354C41.2812 66.3296 41.2232 65.6846 41.214 65.6116C41.1942 65.4526 41.2359 65.9352 41.2892 66.0863C41.3254 66.1887 41.4265 66.2388 41.4417 66.3526C41.4559 66.4592 41.4439 66.5738 41.4439 66.6812C41.4439 66.8366 41.4439 66.992 41.4439 67.1473C41.4439 67.2098 41.4439 67.2203 41.4439 67.1473C41.4439 66.9583 41.4439 66.7693 41.4439 66.5803C41.4439 66.4232 41.4347 66.2733 41.4739 66.1206C41.4932 66.0458 41.5557 65.9889 41.5598 65.9101C41.591 65.3175 41.584 64.6666 41.7209 64.0779C41.7571 63.9226 41.7884 63.7338 41.8735 63.5946C41.9005 63.5503 41.8666 63.8277 41.8606 63.8524C41.769 64.2297 41.7532 64.5913 41.7532 64.9779C41.7532 65.3791 41.7233 65.782 41.6737 66.1786C41.6517 66.3545 41.6372 66.519 41.6372 66.7006C41.6372 66.8469 41.8582 67.3186 41.7832 66.9368C41.7503 66.7692 41.6366 66.6293 41.6028 66.4686C41.5669 66.2978 41.5985 66.0908 41.5985 65.9166C41.5985 65.6889 41.5985 65.4612 41.5985 65.2335C41.5985 64.9866 41.4825 64.78 41.4825 64.5354C41.4825 64.3578 41.5212 64.1881 41.5212 64.0156" stroke="black" stroke-width="3" stroke-linecap="round"/>
<path d="M41.2899 64.7889C41.0802 64.7889 41.1657 64.3245 41.1825 64.1789C41.21 63.9405 41.3454 63.7567 41.4187 63.5366C41.4725 63.3753 41.5044 63.1446 41.5197 62.976C41.555 62.5878 41.6559 62.1978 41.7366 61.8118C41.7768 61.62 41.8698 61.4249 41.8698 61.2297C41.8698 60.9986 41.9044 60.7605 41.9643 60.5381C42.0048 60.3878 42.0631 60.1648 42.0631 60.014C42.0631 59.8805 42.2397 59.7115 42.2564 59.5694C42.2604 59.5353 42.3661 59.4021 42.3939 59.3782C42.4818 59.3029 42.4521 59.4875 42.4476 59.5329C42.4236 59.7731 42.3724 59.9803 42.3724 60.2266" stroke="black" stroke-width="3" stroke-linecap="round"/>
<path d="M42.0625 61.6572C41.9747 61.6767 41.7608 62.1506 41.7532 62.2458C41.7279 62.562 41.5555 62.8563 41.5212 63.1651C41.5075 63.2886 41.4535 63.5515 41.3752 63.6376C41.2394 63.787 41.2853 63.6225 41.2892 63.4744C41.2943 63.2835 41.4065 63.0149 41.5212 62.8644C41.6407 62.7076 41.6007 62.4915 41.6759 62.3059C41.7088 62.2245 41.7877 61.8848 41.6071 62.0052C41.3728 62.1614 41.3013 62.4861 41.2506 62.7398" stroke="black" stroke-width="3" stroke-linecap="round"/>
<path d="M28.0911 71.209C28.3173 71.209 28.3699 71.2597 28.5219 71.4118C28.6175 71.5073 28.7398 71.6271 28.8464 71.7083C28.9444 71.783 29.1019 71.7965 29.186 71.868C29.4089 72.0575 29.6863 72.0275 29.9362 72.1417C30.2237 72.2731 30.558 72.3386 30.8689 72.3952C31.0271 72.4239 31.1552 72.5214 31.3201 72.532C31.442 72.5399 31.6034 72.5564 31.718 72.6005C32.2144 72.7914 32.7284 72.8899 33.2286 73.0567C33.9983 73.3132 34.7735 73.4901 35.5731 73.4901C36.234 73.4901 36.8561 73.5814 37.5197 73.5814C38.3917 73.5814 39.2191 73.658 40.0847 73.7157C40.8458 73.7664 41.6066 73.7638 42.3708 73.7638C42.6936 73.7638 43.0163 73.7638 43.339 73.7638C43.7983 73.7638 44.1884 73.5408 44.6317 73.4901C45.0775 73.4392 45.5119 73.2012 45.9598 73.1226C46.5243 73.0236 47.0452 72.7545 47.5414 72.4788C48.0674 72.1866 48.5975 71.8709 49.0672 71.4929C49.274 71.3264 49.4586 71.0669 49.6425 70.8694C50.1047 70.3729 50.588 69.9042 51.105 69.4652C51.4027 69.2125 51.5342 68.8806 51.7792 68.5882C51.9783 68.3507 52.1245 68.0873 52.2506 67.8051C52.3565 67.5682 52.5197 67.4 52.6713 67.1942C52.9989 66.7498 53.25 66.2718 53.5382 65.8002C53.6881 65.5549 53.8329 65.3281 54.002 65.0956C54.0739 64.9968 54.1414 64.8311 54.1414 64.7053C54.1414 64.1036 54.5589 63.5617 54.7142 62.997C54.8007 62.6826 54.8611 62.3609 54.9474 62.049C54.9806 61.9291 55.0541 61.6556 55.1299 61.5523C55.485 61.0681 55.7743 60.6625 55.9916 60.0873C56.1356 59.7062 56.254 59.2893 56.3769 58.9011C56.4282 58.739 56.4962 58.6298 56.5366 58.4601C56.5717 58.3124 56.6142 58.1672 56.6506 58.0216C56.743 57.6521 56.9081 57.3622 57.0764 57.0255C57.1993 56.7798 57.2493 56.5018 57.335 56.2449" stroke="black" stroke-width="3" stroke-linecap="round"/>
<path d="M28.5383 70.0946C28.5383 69.897 28.5024 69.655 28.5464 69.4628C28.6255 69.1166 28.7966 68.8205 28.9025 68.4828C29.0049 68.1565 29.0771 67.8447 29.1903 67.5229C29.3781 66.9891 29.4982 66.432 29.6813 65.893C29.7034 65.828 29.7205 65.7611 29.7417 65.6958C29.7945 65.5329 29.9439 65.4321 30.0012 65.2732C30.1517 64.8566 30.1961 64.3775 30.2689 63.9411C30.3309 63.5688 30.5989 63.1432 30.7699 62.8123C31.0286 62.3115 31.325 61.832 31.5809 61.3292C31.9017 60.6987 32.2713 60.0658 32.6775 59.488C32.8107 59.2987 32.8976 59.0845 33.0257 58.8924C33.0811 58.8092 33.1631 58.7804 33.2349 58.7133C33.6754 58.3015 34.1638 57.9073 34.6918 57.6186C35.0561 57.4195 35.4232 57.1852 35.7442 56.9244C35.8234 56.8601 35.831 56.7925 35.9293 56.7433C36.0376 56.6892 36.1684 56.6325 36.2694 56.5682C37.094 56.0435 37.9115 55.5147 38.6237 54.8417C38.9321 54.5504 39.1439 54.4091 39.5333 54.2642C39.9845 54.0963 40.4129 53.9825 40.8775 53.8597C40.9922 53.8294 41.0888 53.7311 41.2075 53.7229C41.3412 53.7137 41.4689 53.6896 41.6019 53.6686C42.2141 53.5719 42.8295 53.4941 43.4411 53.3969C43.8903 53.3256 44.3342 53.2095 44.7873 53.1635C45.0545 53.1364 45.3277 53.1173 45.5962 53.1092C45.9363 53.0989 46.2491 53.0051 46.5842 52.9703C47.2231 52.904 47.9719 52.8398 48.6045 52.9623C48.8301 53.0059 49.0481 53.0838 49.2726 53.1273C49.496 53.1705 49.7117 53.1674 49.9346 53.2319C50.4736 53.3879 51.0568 53.4123 51.5867 53.5941C51.8912 53.6986 52.1529 53.7958 52.4761 53.8497C52.8767 53.9164 53.341 53.9774 53.7116 54.1495C53.8436 54.2108 53.9683 54.2176 54.11 54.238C54.4353 54.285 54.7429 54.4166 55.0699 54.4674C55.3379 54.5091 55.5745 54.5922 55.8486 54.5922" stroke="black" stroke-width="3" stroke-linecap="round"/>
<path d="M55.4745 54.3511C55.9705 54.3511 56.4255 54.5694 56.8569 54.7852C57.0387 54.876 57.2901 54.8319 57.4914 54.8319C57.7502 54.8319 57.8744 55.0723 58.1191 55.0723" stroke="black" stroke-width="3" stroke-linecap="round"/>
<path d="M1.99902 71.1074C1.97998 71.2979 1.91298 71.5108 1.7271 71.6038C1.32138 71.8066 0.963421 72.0982 0.481865 72.1584C0.376924 72.1715 0.280122 72.2375 0.17757 72.2642C-0.0564643 72.3249 -0.293743 72.3676 -0.525977 72.4368C-0.802273 72.5191 -1.08568 72.5819 -1.34822 72.7023C-1.67679 72.8529 -2.04265 72.9474 -2.38196 73.0799C-2.54475 73.1435 -2.73006 73.1359 -2.89991 73.1749C-3.3269 73.2729 -3.74258 73.4156 -4.1732 73.4986C-4.77026 73.6137 -5.40286 73.5678 -5.9925 73.6907C-6.15712 73.725 -6.30366 73.858 -6.46944 73.8655C-7.08665 73.8936 -7.66533 74.0986 -8.29089 74.0986C-9.58145 74.0986 -10.872 74.0986 -12.1626 74.0986C-12.497 74.0986 -12.8339 74.1103 -13.1682 74.0986C-13.3364 74.0927 -13.4935 74.019 -13.656 73.982C-14.1033 73.8801 -14.5442 73.8148 -14.9724 73.6411C-15.3077 73.505 -15.6292 73.3464 -15.9652 73.2051C-16.2055 73.104 -16.4604 73.0361 -16.6989 72.9332C-16.8235 72.8794 -16.9091 72.7782 -17.0442 72.7303C-18.0186 72.385 -18.9178 71.8642 -19.7807 71.2973C-20.2742 70.9732 -20.8062 70.5577 -21.0993 70.0391C-21.1643 69.9242 -21.2773 69.8445 -21.3475 69.7305C-21.4612 69.5461 -21.5596 69.3702 -21.6885 69.1953C-21.7826 69.0678 -21.8205 68.9202 -21.9022 68.7874C-22.0356 68.5707 -22.2146 68.3853 -22.3532 68.1724C-22.8958 67.3391 -23.3447 66.4406 -23.7646 65.5395C-23.8526 65.3506 -23.9554 65.1216 -24.0711 64.9481C-24.2522 64.6765 -24.3642 64.3631 -24.5523 64.0957C-24.6196 64.0001 -24.6543 63.9067 -24.6883 63.7957C-24.7422 63.6197 -24.8523 63.4833 -24.9257 63.3166C-25.0098 63.1256 -25.1232 62.9371 -25.2321 62.7555" stroke="black" stroke-width="3" stroke-linecap="round"/>
<path d="M2.12305 71.2432C2.12305 70.5842 1.90905 70.0266 1.65108 69.4178C1.56128 69.2059 1.54502 68.9952 1.50892 68.7696C1.47661 68.5677 1.35553 68.4217 1.2644 68.2464C1.20234 68.1271 1.17641 67.9025 1.07675 67.8171C0.96798 67.7239 1.01653 67.5205 0.934592 67.4162C0.633429 67.0329 0.498688 66.6438 0.331836 66.1766C0.101312 65.5311 -0.308608 64.9543 -0.538181 64.3115C-0.891318 63.3227 -1.33982 62.4007 -1.74938 61.4341C-1.92267 61.0252 -2.03966 60.6222 -2.25547 60.2286C-2.46221 59.8516 -2.67087 59.5152 -2.90372 59.1539C-3.13244 58.799 -3.4148 58.4545 -3.67138 58.119C-3.79583 57.9562 -3.9149 57.7821 -4.04668 57.6271C-4.25665 57.3801 -4.50395 57.1712 -4.71199 56.9248C-5.07663 56.493 -5.48647 56.1141 -6.0028 55.8387C-6.21353 55.7264 -6.43716 55.6283 -6.62546 55.4777C-6.79334 55.3433 -6.96752 55.3298 -7.14007 55.2132C-7.52302 54.9545 -7.93802 54.801 -8.33421 54.5707C-8.57654 54.4298 -8.87041 54.3783 -9.10756 54.2295C-9.47054 54.0018 -9.90067 53.8626 -10.3244 53.7405C-10.8095 53.6007 -11.2779 53.3072 -11.7972 53.2799C-12.7285 53.2309 -13.6699 53.1475 -14.6006 53.1263C-14.8665 53.1203 -15.1346 53.0315 -15.4024 53.024C-16.0364 53.0061 -16.6648 52.9728 -17.3016 52.9728C-17.7476 52.9728 -18.1937 52.9216 -18.6436 52.9216C-19.2136 52.9216 -19.7158 53.2466 -20.2813 53.2799C-20.6765 53.3031 -21.1196 53.5251 -21.5096 53.6125C-21.7708 53.6711 -22.0302 53.8335 -22.3 53.8428C-22.5056 53.8499 -22.7243 53.8798 -22.9255 53.9224C-23.1115 53.9619 -23.3553 54.0864 -23.5282 54.0987C-23.8842 54.1241 -24.1688 54.2151 -24.5034 54.3489C-24.646 54.4059 -24.7961 54.5 -24.9498 54.5081C-25.3647 54.53 -25.7051 55.0902 -26.1383 55.1223C-26.3293 55.1364 -26.5824 55.3172 -26.6785 55.4805C-26.7759 55.646 -26.9464 55.7205 -27.0481 55.8899" stroke="black" stroke-width="3" stroke-linecap="round"/>
<path d="M14.0635 101.774C14.0635 101.476 13.9218 101.285 13.7122 101.083C13.5368 100.914 13.4109 100.927 13.1834 100.927C12.9091 100.927 12.6904 100.921 12.4337 100.797C12.2322 100.699 12.0431 100.641 11.847 100.521C11.7677 100.473 11.5547 100.392 11.521 100.308C11.4618 100.16 11.2639 100.083 11.1643 99.9672C11.0683 99.8552 10.92 99.788 10.7967 99.6956C10.7372 99.651 10.6013 99.5856 10.5251 99.5579C10.3473 99.4933 10.1866 99.2521 10.0542 99.1197C9.86515 98.9306 9.68975 98.7398 9.48383 98.5656C9.31992 98.4269 9.06994 98.403 8.89711 98.2686C8.7491 98.1535 8.65215 97.9678 8.50415 97.8467C8.43119 97.787 8.33221 97.749 8.28685 97.6674C8.2182 97.5438 8.008 97.5331 7.92106 97.4229C7.81013 97.2824 7.60882 97.1726 7.44662 97.0734C7.41589 97.0547 7.26433 96.9313 7.25104 96.9014C7.22491 96.8426 7.1295 96.7903 7.08807 96.7294C7.04016 96.6589 6.96372 96.598 6.90879 96.5248C6.85781 96.4568 6.81106 96.3506 6.74581 96.2984C6.60242 96.1837 6.47479 96.1118 6.30759 96.0177C6.21291 95.9645 6.09421 95.8215 6.01242 95.7443C5.95261 95.6878 5.84029 95.5865 5.81685 95.5161" stroke="black" stroke-linecap="round"/>
<path d="M5.66171 95.2407C5.58688 95.236 5.54811 95.0721 5.54467 95.0066C5.53564 94.835 5.4874 94.688 5.41461 94.5384C5.35382 94.4134 5.26889 94.0767 5.12849 94.0182C5.04047 93.9815 4.99203 93.7976 4.9022 93.7477C4.79889 93.6903 4.76101 93.5636 4.67851 93.4719C4.6137 93.3999 4.57893 93.2786 4.53285 93.191C4.4708 93.0731 4.42247 92.9681 4.37678 92.8425C4.34439 92.7534 4.32337 92.6535 4.30265 92.5603C4.28126 92.464 4.18029 92.3775 4.16219 92.2689C4.1284 92.0662 4.07778 91.8448 4.02174 91.6486C4.01 91.6075 3.97827 91.6067 3.97622 91.5471C3.97359 91.4711 3.9294 91.4086 3.9294 91.3326C3.9294 91.1875 3.94279 91.0512 3.88518 90.9216C3.84341 90.8276 3.90907 90.6932 3.87087 90.5939C3.74548 90.2678 3.81235 89.845 3.81235 89.5001C3.81235 89.416 3.81235 89.3319 3.81235 89.2478C3.81235 89.1653 3.85593 89.0798 3.85917 88.9955C3.86745 88.7803 3.88258 88.5644 3.88258 88.3452C3.88258 88.222 3.86854 88.1253 3.95281 88.0305C4.01739 87.9578 3.99327 87.8277 4.05165 87.7548C4.07384 87.727 4.06986 87.7043 4.06986 87.6676C4.06986 87.6298 4.12169 87.5861 4.14009 87.5493C4.19342 87.4426 4.25283 87.3976 4.28184 87.2671C4.32651 87.0661 4.42587 86.8814 4.46782 86.6779C4.48023 86.6178 4.50045 86.4573 4.55106 86.4139C4.64351 86.3347 4.73287 86.2424 4.84108 86.172C5.02764 86.0508 5.18243 85.8741 5.34568 85.7207C5.42635 85.645 5.46674 85.5438 5.54467 85.4658C5.58706 85.4234 5.64733 85.3998 5.69553 85.3631C5.85479 85.2417 6.03669 85.0866 6.14031 84.917C6.2096 84.8036 6.31502 84.7631 6.43423 84.7167C6.50898 84.6877 6.5748 84.6576 6.65272 84.6309C6.72797 84.6051 6.93477 84.5948 6.97266 84.519" stroke="black" stroke-linecap="round"/>
<path d="M14.291 86.3614C14.291 86.2814 14.24 86.2064 14.2064 86.1372C14.1783 86.0795 14.1738 86.0094 14.1351 85.9585C14.1047 85.9187 14.0788 85.8824 14.0512 85.8426C13.9711 85.7269 13.8637 85.6229 13.7737 85.5149C13.7067 85.4345 13.6243 85.3555 13.5433 85.2892C13.5054 85.2582 13.4617 85.2421 13.4273 85.2077C13.3801 85.1605 13.3242 85.1416 13.2714 85.1027C13.1542 85.0163 13.018 84.9514 12.8944 84.8739C12.6992 84.7513 12.5217 84.5969 12.3317 84.4663C12.0608 84.2801 11.7369 84.1677 11.4413 84.04C11.4059 84.0246 11.3565 84.0345 11.3191 84.0329C11.2374 84.0294 11.1577 84.0098 11.0761 84.0063C10.984 84.0023 10.8973 84.0066 10.8065 83.9914C10.4533 83.9319 10.0926 83.9205 9.74064 83.8534C9.57304 83.8215 9.3808 83.8503 9.20927 83.8503C8.95429 83.8503 8.69932 83.8503 8.44434 83.8503C8.32027 83.8503 8.19875 83.8449 8.07677 83.8715C7.96584 83.8956 7.84765 83.8938 7.74995 83.9584C7.54926 84.0912 7.31493 84.1506 7.10572 84.2672C7.03522 84.3065 6.97107 84.3325 6.91057 84.3879C6.80215 84.4873 6.72408 84.625 6.61353 84.7171C6.57293 84.7509 6.55446 84.7783 6.51086 84.8025C6.47285 84.8237 6.43189 84.8383 6.39095 84.8519" stroke="black" stroke-linecap="round"/>
<path d="M14.7094 86.6247C14.6485 86.5333 15.0209 86.3126 15.1166 86.2832C15.2113 86.2541 15.2799 86.1172 15.3604 86.0584C15.432 86.0061 15.4627 85.9349 15.5283 85.876C15.6514 85.7651 15.8575 85.6869 15.9982 85.5884C16.1464 85.4847 16.2782 85.3893 16.4172 85.279C16.5074 85.2073 16.5774 85.1163 16.6551 85.0338C16.8141 84.8648 17.0065 84.7296 17.1878 84.5871C17.2459 84.5415 17.3375 84.5137 17.4038 84.4835C17.4434 84.4655 17.4845 84.472 17.5265 84.4704C17.5955 84.4677 17.5793 84.4246 17.6257 84.3974C17.8032 84.293 18.012 84.2864 18.2154 84.2864C18.4061 84.2864 18.5353 84.1366 18.7146 84.104C18.9301 84.0648 19.1367 83.9696 19.3626 83.9507C19.7632 83.9174 20.1696 83.9712 20.5683 83.9712C20.6816 83.9712 20.795 83.9712 20.9083 83.9712C20.9655 83.9712 21.1485 83.9436 21.1973 83.9843C21.2406 84.0203 21.3299 84.0073 21.3827 84.0296C21.4457 84.0561 21.5459 84.1439 21.609 84.1536C21.7759 84.1793 21.9505 84.1219 22.0979 84.2222C22.1842 84.2809 22.3042 84.3337 22.4015 84.3711C22.5054 84.4111 22.5474 84.5024 22.6292 84.5492C22.7278 84.6055 22.8197 84.6958 22.9065 84.774C22.9327 84.7975 22.981 84.7836 23.0131 84.8017C23.1028 84.8521 23.1956 84.8925 23.286 84.9418C23.3614 84.9829 23.4492 85.0274 23.5269 85.0513C23.6414 85.0865 23.7302 85.2208 23.8319 85.2848C23.963 85.3673 24.0382 85.471 24.156 85.568C24.3157 85.6996 24.3781 85.895 24.6011 85.9942C24.7894 86.0779 24.8004 86.3187 24.8901 86.4802C24.9408 86.5714 25.0233 86.6409 25.0872 86.724C25.1132 86.7578 25.168 86.7526 25.1864 86.794C25.2102 86.8474 25.1922 86.8651 25.2331 86.9137C25.3285 87.0269 25.2913 87.2051 25.3762 87.3399C25.4385 87.4389 25.5175 87.5497 25.5353 87.6654C25.5411 87.7035 25.6063 87.9219 25.6272 87.9398C25.7609 88.0544 25.7165 88.3051 25.8082 88.4492C25.8452 88.5074 25.8467 88.6807 25.8491 88.747C25.8533 88.8644 25.8701 88.986 25.9016 89.1002C26.0296 89.564 26.033 90.0497 26.033 90.5306C26.033 90.6549 26.0814 90.8315 26.1177 90.9539C26.1441 91.043 26.1381 91.1308 26.1381 91.2239C26.1381 91.3636 26.1381 91.5032 26.1381 91.6428C26.1381 91.8217 26.1104 91.9584 26.0651 92.1303C26.004 92.3624 26.0264 92.6255 25.9805 92.8631C25.9327 93.1101 25.9306 93.4425 25.7557 93.6425C25.7178 93.6858 25.7329 93.7468 25.6915 93.7841C25.6396 93.8307 25.6193 93.9055 25.598 93.9694C25.5034 94.2535 25.3325 94.4959 25.2317 94.7751C25.1753 94.9313 25.1348 95.1636 25.0084 95.2831C24.9251 95.3617 24.7785 95.4529 24.6785 95.5108C24.5575 95.5808 24.4298 95.6967 24.318 95.7852C24.064 95.9862 23.8734 96.2299 23.6655 96.4756C23.6244 96.5242 23.5888 96.5838 23.5385 96.6215C23.4039 96.7225 23.2962 96.8422 23.1839 96.9675C23.0354 97.133 22.9292 97.1096 22.8014 96.9499" stroke="black" stroke-linecap="round"/>
<path d="M23.0117 96.6609C23.0117 96.8384 22.7644 97.0021 22.6176 97.0871C22.4005 97.2128 22.2209 97.3959 22.0075 97.5221C21.6126 97.7554 21.3491 98.1396 21.0267 98.462C20.9427 98.546 20.7716 98.7626 20.653 98.789C20.5942 98.8021 20.491 98.8649 20.4516 98.9116C20.3289 99.0569 20.1978 99.0996 20.0692 99.221C19.9738 99.3111 19.8444 99.3622 19.7422 99.4458C19.5527 99.6009 19.3449 99.7372 19.1613 99.907C19.1147 99.9502 19.03 100.028 18.9759 100.052C18.8157 100.121 18.6635 100.282 18.557 100.418C18.4954 100.496 18.3805 100.569 18.3016 100.63C18.2258 100.687 18.0986 100.779 18.0082 100.812C17.8858 100.856 17.7865 100.989 17.6842 101.067C17.4931 101.214 17.302 101.406 17.0784 101.502C16.9904 101.541 16.9421 101.577 16.8595 101.626C16.7873 101.67 16.7004 101.692 16.6333 101.743C16.5929 101.774 16.564 101.825 16.5107 101.835C16.3299 101.868 16.2614 102.054 16.1122 102.139C15.9219 102.246 15.7468 102.354 15.5502 102.453C15.3697 102.543 15.1887 102.655 14.9956 102.742C14.8535 102.805 14.7046 102.775 14.5533 102.785C14.4101 102.795 14.3215 102.888 14.1841 102.888" stroke="black" stroke-linecap="round"/>
<path d="M7.69478 97.344C7.79169 97.3803 7.91878 97.4796 7.96918 97.5804C7.99933 97.6408 8.05742 97.6685 8.08887 97.7235C8.10139 97.7454 8.13468 97.7372 8.15455 97.7527C8.18965 97.78 8.18034 97.8153 8.20564 97.8432C8.27744 97.9222 8.38825 98.0692 8.4888 98.1117C8.56687 98.1448 8.60402 98.1695 8.65373 98.2358C8.759 98.3762 8.93707 98.4868 9.0741 98.5934C9.19187 98.685 9.3982 98.8056 9.47549 98.932C9.51744 99.0007 9.59755 99.0229 9.63896 99.0838C9.70516 99.1812 9.77633 99.1958 9.85936 99.2853C9.89185 99.3203 9.90974 99.3087 9.95278 99.3159C9.98642 99.3215 10.0082 99.3705 10.0331 99.3918C10.1028 99.4516 10.2158 99.4618 10.2899 99.5305C10.387 99.6204 10.5093 99.6639 10.6052 99.7407C10.7662 99.8695 10.9571 99.9705 11.1175 100.103C11.201 100.171 11.2755 100.305 11.3438 100.389C11.3762 100.428 11.4357 100.545 11.4781 100.57C11.5348 100.603 11.5439 100.638 11.589 100.675C11.6676 100.739 11.8076 100.77 11.897 100.837C11.9538 100.879 11.9904 100.923 12.0415 100.97C12.1128 101.034 12.1996 101.066 12.2808 101.113C12.3258 101.139 12.3255 101.206 12.3845 101.206C12.4327 101.206 12.5383 101.305 12.5801 101.336C12.6431 101.383 12.7274 101.386 12.7917 101.422C12.8716 101.467 12.9351 101.583 13.0282 101.632C13.1089 101.675 13.149 101.723 13.2252 101.772C13.2993 101.82 13.3816 101.93 13.4646 101.943C13.5658 101.959 13.6209 102.031 13.685 102.099C13.7427 102.161 13.8545 102.2 13.8952 102.272C13.9398 102.35 14.0767 102.384 14.1506 102.426C14.2237 102.468 14.2696 102.536 14.3418 102.572" stroke="black" stroke-linecap="round"/>
<path d="M14.7216 99.0855C14.8927 99.0855 15.2205 98.5407 15.3531 98.4081C15.458 98.3032 15.5347 98.1956 15.6205 98.0745C15.7868 97.8398 16.0812 97.6577 16.3004 97.471C16.5851 97.2285 16.823 97.0167 17.1052 96.7783C17.5695 96.3859 18.1968 96.208 18.6713 95.8284C18.847 95.6878 19.098 95.605 19.3054 95.5203C19.6436 95.3822 20.0522 95.1678 20.3342 94.9371C20.6366 94.6897 20.9181 94.4199 21.2255 94.1808C21.4049 94.0413 21.6983 93.7224 21.9411 93.7224C22.1483 93.7224 22.3608 93.6064 22.5243 93.4932C22.6952 93.3749 22.8431 93.2798 22.9725 93.1163C23.1564 92.8839 23.4528 92.8279 23.5887 92.5561C23.777 92.1796 23.7409 91.7066 23.8077 91.2981C23.8599 90.9792 23.8434 90.6554 23.8434 90.3329C23.8434 89.8628 23.9311 89.3135 23.7288 88.8865C23.632 88.6822 23.4652 88.519 23.3672 88.3339C23.2673 88.1452 23.1031 88.067 23.0183 87.8551" stroke="black" stroke-width="5" stroke-linecap="round"/>
<path d="M21.5049 91.2013C21.4917 91.0564 21.4089 90.8452 21.2757 90.7785C21.1199 90.7006 20.955 90.7695 20.8097 90.8422C20.4142 91.0399 20.0074 91.2272 19.6204 91.4406C19.2519 91.644 18.8868 91.8178 18.505 91.9932C17.9856 92.2319 17.5862 92.6131 17.1299 92.9482C16.8733 93.1366 16.5543 93.3739 16.5543 93.7224" stroke="black" stroke-width="5" stroke-linecap="round"/>
<path d="M14.7668 99.4522C14.8767 99.3301 14.9387 99.1267 15.0113 98.9836C15.0627 98.8823 15.4485 97.9446 15.6199 97.9446C15.7616 97.9446 15.9659 97.9855 16.086 98.0567C16.2027 98.1258 16.3706 98.0427 16.4909 98.0337C16.9643 97.9987 17.2548 97.7944 17.5833 97.4659C17.6865 97.3627 17.8913 97.2668 18.0214 97.1959C18.2031 97.0968 18.3739 96.976 18.5485 96.8649C18.876 96.6564 19.25 96.4663 19.534 96.1977C19.8803 95.8701 20.3353 95.6767 20.7054 95.3828C20.8568 95.2626 21.1189 95.0878 21.23 94.9244C21.2699 94.8658 21.3405 94.6687 21.3956 94.6443C21.5002 94.5977 21.6005 94.5821 21.6426 94.4558" stroke="black" stroke-width="5" stroke-linecap="round"/>
<path d="M16.6924 98.673C16.6263 98.6978 16.5629 98.8625 16.4632 98.9124C16.3689 98.9595 16.3445 98.9938 16.234 98.9938" stroke="black" stroke-width="5" stroke-linecap="round"/>
<path d="M13.7127 99.2231C13.7963 99.0652 13.8644 98.938 13.7127 98.808C13.6497 98.7539 13.5354 98.7119 13.4886 98.6475C13.4405 98.5813 13.4277 98.4948 13.346 98.454C13.1211 98.3415 12.8838 98.2456 12.6585 98.1204C12.4919 98.0278 12.306 97.8058 12.1644 97.6747C12.045 97.5642 11.8932 97.478 11.785 97.359C11.6015 97.1572 11.348 97.0763 11.156 96.8598C10.8821 96.551 10.5131 96.3392 10.229 96.0551C9.85058 95.6767 9.28016 95.3744 9.01177 94.8913C8.77538 94.4658 8.32934 94.2265 7.99314 93.8956C7.90834 93.8122 7.81226 93.5942 7.72575 93.5366C7.32739 93.271 7.2385 92.694 7.04581 92.2811C6.83154 91.822 6.56197 91.3051 6.56197 90.7888" stroke="black" stroke-width="5" stroke-linecap="round"/>
<path d="M6.60837 89.9179C6.60837 89.6753 6.53556 89.5057 6.61856 89.2659C6.69107 89.0564 6.86701 88.5041 7.08967 88.4052C7.2047 88.3541 7.2948 88.1517 7.38762 88.0589C7.53271 87.9138 7.67462 87.7666 7.82309 87.6259C7.9313 87.5234 8.05702 87.3709 8.14141 87.249C8.19411 87.1729 8.33643 86.993 8.41644 86.9485C8.63799 86.8255 8.77125 86.7092 9.04799 86.7092C9.30688 86.7092 9.52572 86.5717 9.79668 86.5717C10.0395 86.5717 10.2822 86.5717 10.525 86.5717C10.6413 86.5717 10.8122 86.7787 10.9172 86.8365C11.0309 86.899 11.0547 86.9997 11.0547 87.1217" stroke="black" stroke-width="5" stroke-linecap="round"/>
<path d="M6.65373 88.1301C6.78137 88.0153 7.03751 88.0111 7.20379 87.9926C7.38672 87.9723 7.50116 87.8551 7.70801 87.8551" stroke="black" stroke-width="5" stroke-linecap="round"/>
<path d="M9.54126 89.7803C9.56491 90.2059 9.88502 90.493 10.2212 90.7021C11.2585 91.3476 12.1561 92.0067 12.8722 93.0272C13.1676 93.4481 13.4158 93.8999 13.5954 94.3819C13.6732 94.5906 13.7364 94.8082 13.8399 95.0058C14.0669 95.4393 14.0334 94.9841 14.0334 94.7308" stroke="black" stroke-width="5" stroke-linecap="round"/>
<path d="M13.759 92.6681C14.2638 92.6681 14.7728 92.6872 15.2768 92.6579C15.6527 92.6361 15.7398 92.5831 15.9746 92.3319C16.4479 91.8256 16.7495 91.2936 17.365 90.9211C17.6313 90.76 17.7836 90.6421 18.0831 90.5391C18.6274 90.3521 19.1882 90.1425 19.6314 89.765C19.8721 89.56 20.0642 89.2867 20.2681 89.0469C20.4343 88.8513 20.458 88.4427 20.5533 88.2065C20.6605 87.9407 20.7003 87.6277 20.8181 87.3712C20.8712 87.2557 20.9055 87.0829 20.9658 86.9841C20.996 86.9348 21.2249 86.86 21.0575 86.8466C20.966 86.8393 20.8895 86.8008 20.7927 86.8008C20.6771 86.8008 20.4865 86.766 20.3827 86.8237C20.276 86.883 20.1579 86.8976 20.044 86.9383C19.9373 86.9764 19.8314 87.0925 19.7384 87.1191C19.5625 87.1694 19.4609 87.3453 19.2775 87.4018C18.9848 87.4918 18.7292 87.694 18.5008 87.8602C18.3339 87.9815 18.149 88.0744 17.9889 88.2039C17.8107 88.3482 17.5606 88.4081 17.4006 88.5681C17.018 88.9507 16.4179 89.0855 15.9771 89.3906C15.8312 89.4916 15.725 89.6192 15.5926 89.737C15.4298 89.8817 15.2236 89.978 15.04 90.096C14.487 90.4515 13.6909 90.4314 13.0715 90.4678" stroke="black" stroke-width="5" stroke-linecap="round"/>
<path d="M19.3047 85.9757C18.9731 85.9757 18.9462 86.2437 18.7062 86.4086C18.5085 86.5446 18.2829 86.6221 18.0925 86.7779C17.8845 86.9481 17.7658 87.1988 17.5781 87.3865C17.1244 87.8403 16.6534 87.9942 16.0986 88.2676C15.6895 88.4692 15.2178 88.5532 14.7922 88.7235C14.4641 88.8547 14.138 88.9356 13.8041 89.0469" stroke="black" stroke-width="5" stroke-linecap="round"/>
<path d="M12.5208 87.5801C12.5208 87.5246 12.704 87.4657 12.75 87.3967" stroke="black" stroke-width="5" stroke-linecap="round"/>
<path d="M44.6494 103.42C44.6494 103.689 44.5421 104.03 44.4051 104.255C44.1874 104.614 44.1967 105.042 44.082 105.453C43.9611 105.887 43.8975 106.34 43.7668 106.769C43.7215 106.918 43.6019 107.093 43.5856 107.234C43.5308 107.709 43.2524 108.13 43.231 108.613C43.2077 109.137 42.8981 109.603 42.7502 110.087C42.6476 110.423 42.565 110.755 42.435 111.08C42.2609 111.515 42.1722 112.028 41.8282 112.372C41.5037 112.697 41.0629 112.895 40.6501 113.093C40.4512 113.189 40.2062 113.257 40.0236 113.381C39.8011 113.532 39.4997 113.613 39.3026 113.775C39.1324 113.915 38.9357 113.951 38.7628 114.074C38.5495 114.227 38.3578 114.407 38.1008 114.48C37.7722 114.574 37.5317 115.002 37.1985 115.126C36.8667 115.251 36.4089 115.554 36.1702 115.792C35.8454 116.117 35.213 116.302 34.7832 116.439C34.3818 116.566 34.055 116.717 33.6327 116.785C33.2996 116.839 32.9463 117 32.6279 117.033C32.41 117.056 32.1879 117.093 31.9699 117.108C31.8043 117.12 31.7697 117.25 31.568 117.25C30.9658 117.25 30.3698 117.321 29.7634 117.321C28.9281 117.321 28.0928 117.321 27.2575 117.321C26.6875 117.321 26.1174 117.321 25.5474 117.321C25.2855 117.321 25.1094 117.061 24.8618 117.037C24.4771 117.001 24.2153 116.761 23.8847 116.541C23.5097 116.291 23.0152 116.202 22.679 115.918C22.2385 115.547 21.4828 115.609 21.1029 115.138C20.9713 114.975 20.7028 114.844 20.5355 114.701C20.3675 114.557 20.2 114.4 20.0706 114.216C19.8303 113.875 19.4981 113.643 19.2195 113.349C19.1575 113.284 19.1665 113.181 19.1013 113.113C18.9646 112.971 18.7668 112.848 18.6167 112.715C18.3429 112.474 18.0978 112.46 18.0493 112.096C18.0193 111.871 17.9029 111.676 17.8562 111.458C17.7959 111.177 17.7874 110.881 17.6631 110.619C17.4893 110.252 17.1166 109.632 16.7766 109.413C16.5732 109.282 16.4373 108.923 16.3511 108.708C16.2643 108.491 16.2191 108.252 16.1068 108.046C16.0076 107.864 15.8463 107.715 15.7916 107.51C15.6886 107.124 15.4291 106.791 15.4291 106.367C15.4291 105.951 15.3928 105.505 15.2518 105.111C15.1013 104.689 15.2195 104.282 15.0035 103.85C14.7161 103.275 14.7908 102.496 14.7908 101.86" stroke="black" stroke-width="3" stroke-linecap="round"/>
<path d="M14.8975 102.51C14.8975 103.724 14.8629 104.951 14.3535 106.072C14.1792 106.455 14.1443 107.115 14.1443 107.532C14.1443 107.954 13.9398 108.693 13.6793 109.024C13.5406 109.201 13.1564 109.68 13.14 109.894C13.1236 110.107 12.9008 110.898 12.768 111.047C12.6529 111.175 12.5778 111.115 12.5123 111.298C12.4589 111.447 12.4068 111.566 12.2985 111.684C12.0213 111.984 11.6592 112.238 11.4011 112.553C11.1697 112.836 10.7363 113.178 10.4108 113.353C10.0331 113.556 9.6715 113.946 9.27635 114.064C9.06596 114.127 8.88216 114.372 8.68587 114.394C8.24627 114.445 7.78968 114.879 7.39334 115.064C6.5474 115.457 5.60537 115.739 4.80828 116.235C4.47726 116.442 4.14238 116.628 3.80401 116.821C3.50716 116.991 2.96972 116.945 2.63702 116.984C1.62639 117.103 0.579817 117.093 -0.431581 117.161C-1.19867 117.212 -2.2132 117.443 -2.9655 117.203C-3.66762 116.978 -4.35943 116.789 -5.07632 116.607C-7.04217 116.109 -8.60308 115.072 -10.1674 113.855C-10.8982 113.287 -11.6002 112.817 -11.9249 111.879C-12.0156 111.617 -12.1565 111.446 -12.3015 111.214C-12.6051 110.728 -12.7426 110.176 -13.0919 109.708C-13.6043 109.022 -14.1971 108.391 -14.5611 107.625C-14.7118 107.307 -14.8958 106.639 -14.8958 106.286C-14.8958 105.928 -15.1367 105.591 -15.2306 105.263C-15.3457 104.86 -15.3239 104.443 -15.4166 104.035C-15.4992 103.672 -15.5653 103.385 -15.5653 103.013" stroke="black" stroke-width="3" stroke-linecap="round"/>
<path d="M14.8587 101.332C14.9517 101.436 15.0016 101.665 14.9962 101.8C14.9934 101.87 14.6528 101.966 14.9605 101.871C15.1203 101.822 15.3432 101.663 15.5004 101.652C15.6237 101.644 15.2612 101.714 15.1414 101.744C15.065 101.763 14.9091 101.9 14.8587 101.963C14.6936 102.169 14.69 102.176 14.6193 101.938C14.5717 101.777 14.4514 101.498 14.5938 101.342C14.7315 101.19 15.3487 102.073 15.5564 102.065C15.7026 102.059 15.8213 101.783 15.8213 101.652" stroke="black" stroke-linecap="round"/>
<path d="M15.3174 94.135C15.2425 94.135 15.0692 94.27 15.0424 94.3438C14.9568 94.5791 14.9965 94.85 14.9965 95.0976" stroke="black" stroke-width="5" stroke-linecap="round"/>
<path d="M22.5163 96.7103C22.5163 96.7822 22.4599 96.792 22.4568 96.8492C22.4517 96.9399 22.4589 96.9352 22.4017 96.9925C22.3367 97.0574 22.4359 97.0476 22.4766 97.0476C22.5467 97.0476 22.6221 96.9926 22.675 96.9473C22.7679 96.8677 22.7191 96.9257 22.6948 96.9804C22.6638 97.0502 22.607 97.0403 22.546 97.0674C22.5203 97.0789 22.4072 97.1468 22.4667 97.1468C22.5222 97.1468 22.5833 97.1356 22.6155 97.0873" stroke="black" stroke-linecap="round"/>
<path d="M22.873 96.8096C22.8381 96.8139 22.8228 96.8611 22.8135 96.8889" stroke="black" stroke-linecap="round"/>
<path d="M3.78749 89.9176C3.78749 89.6915 3.76288 89.4638 3.76288 89.2339C3.76288 89.0434 3.73577 88.9319 3.86133 88.7854" stroke="black" stroke-linecap="round"/>
<path d="M4.69824 93.1666C4.57805 92.9376 4.45329 92.7165 4.35366 92.4774" stroke="black" stroke-linecap="round"/>
<path d="M5.04297 94.2495C5.01744 94.0836 4.92765 93.9298 4.87615 93.7709C4.81382 93.5786 4.75721 93.3844 4.69839 93.1912" stroke="black" stroke-linecap="round"/>
<path d="M4.94452 94.1757C4.98474 94.1837 5.02617 94.2159 5.04297 94.2495" stroke="black" stroke-linecap="round"/>
<path d="M5.58496 94.9141C5.51004 94.8308 5.4339 94.747 5.36891 94.657C5.29793 94.5587 5.14193 94.3693 5.14193 94.2495" stroke="black" stroke-linecap="round"/>
<line y1="-1.5" x2="57.0088" y2="-1.5" transform="matrix(-0.965782 -0.259354 -0.259354 0.965782 96.1016 112.785)" stroke="black" stroke-width="3"/>
<line y1="-1.5" x2="57.0088" y2="-1.5" transform="matrix(-0.964764 0.263117 0.263117 0.964764 97.1016 74)" stroke="black" stroke-width="3"/>
<line y1="-1.5" x2="57.0088" y2="-1.5" transform="matrix(-0.999972 0.0074441 0.0074441 0.999972 99.1016 94)" stroke="black" stroke-width="3"/>
<path d="M5.08601 95.2228C4.96714 95.2228 4.81563 95.1937 4.71095 95.2553C4.63115 95.3022 4.66947 95.3479 4.55352 95.3479C4.44004 95.3479 4.3233 95.3398 4.21088 95.3571C3.62075 95.4479 2.98502 95.5018 2.38653 95.5146C1.17603 95.5403 -0.00114012 95.7646 -1.21586 95.7646C-2.02308 95.7646 -2.83029 95.7646 -3.63751 95.7646C-3.8752 95.7646 -4.11289 95.7646 -4.35058 95.7646C-4.56357 95.7646 -4.77657 95.7646 -4.98956 95.7646C-5.27198 95.7646 -5.52232 95.8224 -5.79061 95.8479C-6.06867 95.8744 -6.32 95.8733 -6.53146 96.0656C-6.6283 96.1536 -6.78713 96.2094 -6.91578 96.223C-7.03891 96.236 -7.13332 96.3311 -7.25842 96.3573C-7.40798 96.3886 -7.52855 96.448 -7.66589 96.5147C-7.88484 96.621 -8.06363 96.6288 -8.30024 96.649C-8.71921 96.6846 -9.20664 96.7359 -9.58284 96.9129C-9.6913 96.9639 -9.8567 96.9289 -9.97179 96.9314C-10.1139 96.9346 -10.2442 97.0203 -10.3793 97.0564C-10.8145 97.1729 -11.2682 97.208 -11.7035 97.3296C-11.8173 97.3614 -11.8881 97.4206 -12.0091 97.4408C-12.2679 97.4839 -12.4726 97.6459 -12.7268 97.6908C-13.1436 97.7644 -13.5505 97.9016 -13.9678 97.9871C-14.5549 98.1075 -15.1172 98.2156 -15.6763 98.3715C-16.2593 98.5339 -16.8622 98.4707 -17.4497 98.5752C-17.7514 98.6288 -18.0471 98.6928 -18.348 98.7558C-18.5189 98.7915 -18.7212 98.6562 -18.8851 98.6076C-19.014 98.5694 -19.1997 98.5641 -19.3343 98.5567C-19.4389 98.5509 -19.7447 98.5225 -19.8251 98.4641C-19.9583 98.3672 -20.1226 98.3594 -20.2835 98.3483C-20.4702 98.3354 -20.5501 98.1816 -20.7512 98.1816C-21.1083 98.1816 -21.668 98.1433 -21.668 97.6815" stroke="black" stroke-width="2" stroke-linecap="round"/>
<path d="M37.5773 96.6281C37.0877 96.6281 36.6345 96.5866 36.151 96.5104C35.8801 96.4678 35.6069 96.4209 35.3349 96.3891C35.2289 96.3767 34.9957 96.4007 34.9048 96.3487C34.7025 96.2331 34.3446 96.2641 34.1034 96.2641C33.7491 96.2641 33.389 96.2311 33.0299 96.2311C32.9159 96.2311 32.9077 96.1294 32.8131 96.1024C32.7341 96.0798 32.6292 96.0987 32.5465 96.0987C32.4346 96.0987 32.3251 96.0497 32.2138 96.0325C31.9559 95.9929 31.7216 95.9664 31.4584 95.9664C31.0685 95.9664 30.6396 95.9047 30.2582 95.8267C29.5027 95.6722 28.7165 95.5694 27.9349 95.5694C27.4986 95.5694 27.0624 95.5694 26.6262 95.5694C26.1185 95.5694 25.6151 95.4928 25.1116 95.4223C24.54 95.3423 23.916 95.4039 23.3397 95.4039C22.6976 95.4039 22.0555 95.4039 21.4134 95.4039C21.1188 95.4039 20.8184 95.388 20.5238 95.4039C20.4077 95.4102 20.2348 95.4826 20.1268 95.5289C20.0103 95.5788 19.9097 95.5694 19.7812 95.5694C19.0601 95.5694 18.339 95.5694 17.6179 95.5694C15.8682 95.5694 14.1182 95.5363 12.3702 95.5363C12.1509 95.5363 11.9315 95.5363 11.7122 95.5363C11.59 95.5363 11.4931 95.4701 11.374 95.4701C11.1205 95.4701 10.8682 95.437 10.613 95.437C9.91395 95.437 9.21487 95.437 8.5158 95.437C7.97521 95.437 7.42657 95.4039 6.89096 95.4039C6.75862 95.4039 6.62628 95.4039 6.49394 95.4039C6.23142 95.4039 5.84014 95.4823 5.61719 95.3708" stroke="black" stroke-width="2" stroke-linecap="round"/>
<path d="M61.8953 95.1392C61.8198 95.1439 61.8001 95.2096 61.7446 95.255C61.6907 95.2991 61.5762 95.3433 61.5369 95.3891C61.49 95.4438 61.4929 95.4244 61.4138 95.4388C61.3023 95.459 61.1821 95.5315 61.0755 95.5656C60.8312 95.6439 60.5615 95.6876 60.3293 95.799C60.2245 95.8493 60.1235 95.9288 60.0095 95.9589C59.8889 95.9908 59.715 95.9821 59.6051 96.0472C59.4478 96.1404 59.2553 96.1554 59.1162 96.2806C59.0028 96.3826 58.8513 96.3222 58.7522 96.446C58.6427 96.5829 58.3485 96.5749 58.1898 96.6353C58.0388 96.6929 57.8126 96.6711 57.6862 96.7861C57.4534 96.9977 57.1186 97.1321 56.8168 97.2235C56.2922 97.3825 55.6984 97.3544 55.1974 97.5948C54.9432 97.7168 54.5256 97.7198 54.2545 97.7198C54.141 97.7198 54.0182 97.7663 53.9053 97.786C53.732 97.8161 53.5457 97.8112 53.3833 97.8834C53.0895 98.014 52.7058 97.9514 52.3926 97.9514C52.1074 97.9514 51.8268 97.9743 51.5434 97.9845C50.5585 98.0196 49.5735 98.0641 48.5952 98.0176C48.4152 98.009 48.1144 98.0262 47.95 97.9348C47.914 97.9149 47.8852 97.9209 47.8452 97.9183C47.7222 97.9103 47.6222 97.8432 47.507 97.808C47.3879 97.7716 47.2572 97.7282 47.1339 97.718C46.5582 97.67 45.9994 97.5544 45.419 97.5544C44.7657 97.5544 44.1494 97.5254 43.5001 97.4533C43.1337 97.4126 42.7814 97.3882 42.4266 97.3154C42.1107 97.2506 41.8373 97.1904 41.5168 97.1904C41.2496 97.1904 40.9515 97.2263 40.6878 97.1886C40.4816 97.1591 40.2933 97.0143 40.0923 96.9919C39.6864 96.9468 39.2718 96.8276 38.8682 96.7603" stroke="black" stroke-width="3" stroke-linecap="round"/>
<path d="M66.7314 76.1882C66.5714 76.3682 66.6876 77.1028 66.6876 77.325C66.6876 77.7709 66.6438 78.1997 66.6438 78.6419C66.6438 79.1085 66.5462 79.7034 66.712 80.1535C66.8569 80.5469 66.6876 80.9888 66.6876 81.3973C66.6876 83.1813 66.6438 84.9585 66.6438 86.7379C66.6438 87.1282 66.6438 87.5185 66.6438 87.9087C66.6438 88.2736 66.5699 88.5023 66.4247 88.8288C66.2871 89.1385 66.2313 89.5132 66.1594 89.8366C66.1281 89.9774 65.9847 90.2276 65.9209 90.3624C65.829 90.5563 65.8572 90.7201 65.7894 90.9101C65.68 91.2165 65.5485 91.5149 65.417 91.8107C65.3307 92.0049 65.3357 92.222 65.2515 92.3998C65.1645 92.5833 64.9866 92.6188 64.8474 92.7503C64.6752 92.9129 64.4472 93.0425 64.2973 93.2225C64.081 93.4821 63.9242 93.756 63.7082 94.0355C63.6544 94.1051 63.5877 94.216 63.5232 94.2741C63.4945 94.2999 63.4386 94.2846 63.4039 94.3106C63.3549 94.3474 63.3631 94.4257 63.3041 94.4493C63.152 94.5102 62.9523 94.5029 62.7881 94.5029" stroke="black" stroke-width="3" stroke-linecap="round"/>
<path d="M60.7129 46.4652C60.8831 46.5078 60.8048 47.2418 60.8568 47.3977C60.9955 47.8138 61.1824 48.1774 61.3603 48.5726C61.4533 48.7792 61.4859 48.8151 61.7013 48.8151C61.7887 48.8151 62.1195 48.8757 62.1489 48.7432C62.199 48.5179 62.304 48.5597 62.4873 48.5753C62.8229 48.6039 63.172 48.6076 63.4997 48.6925C63.5984 48.7181 63.6762 48.7457 63.7235 48.6339C63.8512 48.332 64.2089 48.2029 64.5121 48.1916C64.8319 48.1798 65.5475 48.1759 65.7004 47.832C65.7346 47.7549 65.9337 47.649 66.0094 47.6215C66.2354 47.5393 66.0753 47.5833 66.0414 47.6934C65.9673 47.9343 66.0361 48.3242 66.0361 48.5753C66.0361 48.7532 66.1733 48.9055 66.18 49.0922C66.1854 49.2435 66.2067 49.4348 66.2386 49.5824C66.3579 50.1342 66.3481 50.7032 66.441 51.2609C66.6251 52.3652 66.5238 53.6134 66.9579 54.6445C67.0052 54.7569 67.1312 54.924 67.1391 55.0388C67.1497 55.1924 67.1642 55.3518 67.1977 55.5024C67.2875 55.9064 67.3443 56.3396 67.5467 56.704C67.8005 57.1608 67.7625 56.3065 67.7625 56.1258C67.7625 55.7449 67.3514 55.4973 67.3309 55.1187C67.315 54.8248 67.073 54.6155 67.0059 54.3408C66.914 53.9651 66.8581 53.5895 66.8513 53.2005C66.8454 52.853 66.8521 52.6173 66.7075 52.2919C66.5327 51.8986 66.6037 53.1524 66.6382 53.5814C66.6653 53.9185 66.692 54.2796 66.7821 54.6072C66.8286 54.7762 66.918 54.9193 66.9473 55.0947C66.9986 55.4026 67.1517 55.6475 67.2803 55.9207C67.4895 56.3651 67.589 56.9 67.8478 57.3141C67.9116 57.4162 67.8611 57.6682 67.8957 57.7936C67.9439 57.9681 67.9648 58.1376 68.0236 58.3105C68.1258 58.611 68.1826 58.8994 68.29 59.195C68.3913 59.4734 68.4394 59.773 68.4845 60.0663C68.5415 60.4364 68.6542 60.8168 68.6737 61.1879C68.6879 61.4576 68.8561 61.7027 68.8655 61.9659C68.884 62.4823 69.2492 62.9645 69.2492 63.4898C69.2492 63.6643 69.3398 63.9028 69.417 64.0573C69.5251 64.2736 69.4581 64.5501 69.4916 64.7847C69.5144 64.9443 69.5865 65.0839 69.6275 65.2376C69.6642 65.3754 69.5928 65.5362 69.6541 65.6692C69.7831 65.9485 69.8146 66.341 69.9685 66.591C70.054 66.7298 69.9824 66.8827 70.0271 67.028C70.0752 67.1842 70.2083 67.306 70.2083 67.4676C70.2083 67.7247 70.343 67.9683 70.3975 68.2136C70.4265 68.3442 70.4245 68.4213 70.4961 68.5466C70.5318 68.6092 70.6572 68.7766 70.4961 68.6691" stroke="black" stroke-width="4" stroke-linecap="round"/>
<path d="M51.846 33.3847C51.846 33.2999 51.8722 33.1621 51.8344 33.0865C51.8022 33.0221 51.8323 33.0269 51.8908 33.0269C51.9322 33.0269 52.0383 33.0001 52.0547 32.9673" stroke="white" stroke-width="4" stroke-linecap="round"/>
<path d="M61.012 47.7036C60.9706 48.0763 60.7582 46.8736 60.701 46.7707C60.5274 46.4582 60.5677 46.1427 60.5677 45.7934C60.5677 45.4729 60.7706 45.0892 60.6368 44.7716C60.4692 44.3734 60.5858 43.9189 60.4098 43.5277C60.2493 43.1712 60.2142 42.892 60.1284 42.506C60.0883 42.3252 60.1615 42.1279 60.1038 41.9482C60.0017 41.6307 59.8692 40.8721 59.6348 40.6846C59.494 40.5719 59.5026 39.8825 59.4325 39.7072C59.281 39.3285 59.3325 38.9725 59.0771 38.6213C58.9652 38.4675 58.9793 38.2757 58.8303 38.1079C58.7646 38.0341 58.55 37.7131 58.5292 37.6193C58.4871 37.4302 58.4808 37.292 58.4156 37.1109C58.3492 36.9264 58.1136 36.7646 58.0849 36.5926C58.0173 36.1871 57.6023 35.7705 57.458 35.3536C57.3574 35.063 57.2778 34.8253 57.1421 34.554C57.0142 34.2982 56.8609 34.4465 56.6584 34.3565C56.483 34.2786 56.3769 34.122 56.2141 34.0406C56.0677 33.9674 55.893 34.0415 55.7699 33.8876C55.6744 33.7683 55.4124 33.8753 55.2763 33.7544C55.128 33.6225 54.8924 33.6217 54.7037 33.5273C54.059 33.205 53.6234 32.9547 52.8379 32.9547" stroke="black" stroke-width="4" stroke-linecap="round"/>
<path d="M-31.6689 45.9666C-31.6689 45.5886 -31.5968 45.2627 -31.5621 44.898C-31.5236 44.4938 -31.1628 44.4754 -31.1628 43.9925C-31.1628 42.8949 -31.1194 41.8012 -31.0615 40.7023C-31.0328 40.1557 -30.3766 39.7715 -30.2573 39.2344C-30.0883 38.4742 -29.761 37.8415 -29.5655 37.1028C-29.1976 35.7132 -27.9067 34.6697 -26.8546 33.8408C-25.1098 32.4661 -23.2158 32.5022 -21.0166 32.5022C-17.2821 32.5022 -13.5739 32.401 -9.83567 32.401C-9.277 32.401 -8.71832 32.401 -8.15965 32.401C-6.88832 32.401 -5.81422 32.7302 -4.57139 32.8959C-3.69218 33.0131 -2.86272 32.9522 -2.00674 32.9071C-1.0963 32.8592 -0.198546 32.8059 0.715389 32.8059C1.58667 32.8059 2.40873 32.5022 3.30254 32.5022C6.40756 32.5022 9.50876 32.401 12.6163 32.401C14.428 32.401 16.3916 32.2039 18.1843 32.4797C19.1507 32.6284 20.2145 33.1767 21.2157 32.8059C22.2827 32.4107 23.9043 32.7047 25.0458 32.7047C26.3057 32.7047 27.5655 32.7047 28.8253 32.7047C30.6827 32.7047 32.5148 32.5022 34.382 32.5022C36.453 32.5022 38.7932 33.2239 40.8105 33.7283C41.2439 33.8366 41.6491 34.0438 42.1322 34.0207C42.3526 34.0103 43.7274 33.7382 42.9871 33.717C42.1993 33.6945 41.4296 33.6158 40.6362 33.6158C39.895 33.6158 39.6388 33.2936 38.9489 33.1096C38.0857 32.8794 39.6379 32.8059 40.0063 32.8059C41.1754 32.8059 42.4625 32.9069 43.6058 32.6991C45.0779 32.4314 46.6484 32.5022 48.1558 32.5022C48.5827 32.5022 49.8039 32.2819 50.1074 32.5247C50.3054 32.6831 51.1074 32.9829 50.9812 32.9211" stroke="black" stroke-width="4" stroke-linecap="round"/>
<path d="M68.5 88C68.5 91.0945 66.6185 93.9573 63.4506 96.0693C60.2861 98.1789 55.8856 99.5 51 99.5C46.1144 99.5 41.7139 98.1789 38.5494 96.0693C35.3815 93.9573 33.5 91.0945 33.5 88C33.5 84.9055 35.3815 82.0427 38.5494 79.9307C41.7139 77.8211 46.1144 76.5 51 76.5C55.8856 76.5 60.2861 77.8211 63.4506 79.9307C66.6185 82.0427 68.5 84.9055 68.5 88Z" stroke="black"/>
<rect x="-32.5" y="30.5" width="94" height="20" rx="10" stroke="black"/>
<path d="M58.9941 72.278C58.9941 74.4187 59.1835 76.6329 59.1835 78.8134C59.1835 79.2238 59.1835 79.6343 59.1835 80.0447C59.1835 80.6635 58.8448 81.0607 58.8046 81.6022C58.7247 82.6808 58.8046 83.7923 58.8046 84.8752C58.8046 85.6979 58.3447 86.7559 57.7628 87.3378C57.0107 88.0899 55.9324 89.1813 55.016 89.6636C53.6714 90.3713 51.8838 90.0845 50.375 90.0845C49.3611 90.0845 48.3982 90.7671 47.3125 90.716C45.0421 90.6091 43.0282 90.2927 40.8298 89.853C39.9491 89.6769 39.2132 88.9479 38.2514 88.9479C36.7167 88.9479 35.1805 88.7585 33.6314 88.7585C31.038 88.7585 28.4421 88.9479 25.8331 88.9479C23.8058 88.9479 21.9711 88.2225 19.9713 88.1902C18.5482 88.1673 17.1221 88.1902 15.6986 88.1902C12.9308 88.1902 10.163 88.1902 7.39521 88.1902C5.85685 88.1902 4.46589 88.5028 2.94358 88.7796C1.29357 89.0796 -0.427612 88.9479 -2.09738 88.9479C-2.41593 88.9479 -2.65478 88.9248 -2.94982 88.8006C-3.55837 88.5444 -4.61731 88.7585 -5.24404 88.7585C-7.14887 88.7585 -9.0537 88.7585 -10.9585 88.7585C-11.4225 88.7585 -11.9785 88.5881 -12.1898 89.0953C-12.2439 89.2249 -12.3739 89.4621 -12.5266 89.5057C-12.8137 89.5877 -13.2423 89.5162 -13.5264 89.5162C-15.2945 89.5162 -17.0755 89.4545 -18.841 89.5583C-19.3955 89.591 -19.52 89.7719 -19.9144 89.8846C-20.809 90.1402 -22.0986 89.8951 -23.0084 89.8951C-23.5637 89.8951 -26.9499 90.399 -24.9343 89.8951C-24.4713 89.7794 -24.0805 89.7346 -23.5978 89.6636C-23.0428 89.582 -22.5321 89.1374 -21.9876 89.1374C-21.5549 89.1374 -20.3062 90.9313 -19.9986 91.3158C-19.576 91.8441 -17.7318 91.6754 -17.115 91.5579C-16.0245 91.3502 -14.7723 91.087 -13.8526 90.4739C-13.4732 90.2209 -14.7647 90.4634 -15.2207 90.4634C-16.1188 90.4634 -17.0168 90.4634 -17.9149 90.4634C-18.4521 90.4634 -18.767 90.9545 -19.2409 91.179C-19.8322 91.4591 -20.4028 91.6 -21.051 91.6C-22.0177 91.6 -22.6191 91.0813 -23.4925 90.8317C-24.1456 90.6451 -24.9597 89.9223 -25.6394 89.8951C-26.2743 89.8697 -27.1772 89.7208 -27.5337 89.1374C-27.7397 88.8003 -28.3498 88.9827 -28.7124 88.8532C-29.5942 88.5383 -29.5512 87.766 -29.8595 86.9694C-29.9821 86.6529 -30.3483 86.3227 -30.4068 86.0012C-30.5133 85.4156 -30.4095 84.7393 -30.4173 84.149C-30.4326 82.9864 -30.6067 81.8299 -30.6067 80.6551C-30.6067 79.0525 -30.666 77.4366 -30.6067 75.8351C-30.571 74.8715 -29.849 73.9895 -29.849 72.941C-29.849 71.9242 -29.9645 70.8342 -29.8385 69.826C-29.7559 69.1652 -29.2249 67.5281 -30.0384 67.1213C-30.6246 66.8282 -31.0248 66.9895 -31.5539 66.4899C-32.2251 65.856 -32.3698 65.8613 -33.1535 65.6374C-33.4726 65.5462 -33.514 64.7096 -33.7639 64.4693C-34.6631 63.6046 -34.0416 64.434 -34.0165 62.9538C-33.9864 61.1767 -33.7654 59.8227 -33.364 58.1023C-32.6869 55.2005 -32.6732 51.7724 -30.733 49.3358C-29.0075 47.1689 -25.3761 46.915 -23.7662 44.5896C-22.9657 43.4333 -21.7925 42.3401 -21.4719 40.9377C-21.0823 39.2329 -18.9917 39.528 -17.5149 39.3171C-13.6513 38.7651 -9.72797 39.2474 -5.87547 38.7067C-1.01334 38.0243 4.04254 38.3699 8.94223 38.3699C13.5461 38.3699 18.1381 38.1805 22.7391 38.1805C26.1732 38.1805 29.5184 38.3319 32.8737 37.7279C34.4911 37.4368 36.3267 37.6122 37.9672 37.6122C41.0533 37.6122 44.3505 37.5893 47.3546 38.3699C49.1867 38.846 50.7122 39.0925 51.8799 40.7273C52.2406 41.2322 52.7496 41.598 53.1322 42.0954C54.3468 43.6743 54.9035 45.6458 55.7106 47.4415C56.7075 49.6597 58.2554 51.8393 58.9099 54.1769C59.3654 55.8038 59.3729 57.3329 59.3729 59.0179C59.3729 59.8878 59.3729 60.7578 59.3729 61.6278C59.3729 64.3034 56.8063 65.4628 55.0581 67.0792C53.7233 68.3135 52.5925 69.0616 50.9748 69.8786C49.4661 70.6406 48.1469 71.2916 47.0599 72.5727C45.8573 73.99 45.1656 76.8522 45.1656 78.7082C45.1656 80.4336 44.7661 81.4246 42.8503 81.7496C40.8832 82.0833 38.5919 82.1144 36.6202 81.8127C34.2718 81.4534 32.0767 80.4439 29.727 80.0657C27.8774 79.7681 25.9946 79.8553 24.1283 79.8553C21.517 79.8553 18.8984 79.7955 16.2879 79.8553C14.3127 79.9005 12.4191 80.5643 10.4156 80.6025C8.26358 80.6435 6.10618 80.6239 3.95388 80.613C-2.69998 80.5792 -9.32249 79.9143 -15.9469 79.4869C-18.42 79.3274 -20.2393 78.5901 -22.2086 76.9928C-23.7425 75.7486 -25.4046 72.5494 -23.261 71.1204C-22.0989 70.3457 -19.9772 70.7626 -18.6936 70.7626C-15.2779 70.7626 -11.8583 70.7132 -8.44331 70.7836C-4.32056 70.8686 -0.230496 71.4872 3.89074 71.5203C8.22391 71.5551 12.5176 71.9374 16.8457 72.057C21.5104 72.186 26.1857 72.278 30.8531 72.278C32.0388 72.278 33.2245 72.278 34.4102 72.278C35.4015 72.278 36.651 72.4528 37.5989 72.0465C39.3115 71.3125 40.8295 69.9835 42.261 68.8262C43.6256 67.7229 44.7195 66.1696 45.9233 64.8797C46.5946 64.1605 46.9903 63.6946 45.7339 63.6063C43.8408 63.4732 41.9166 63.5642 40.0194 63.5642C30.0883 63.5642 20.1572 63.5642 10.2262 63.5642C1.24643 63.5642 -7.73889 63.4613 -16.7151 63.7536C-19.1517 63.833 -21.5814 63.9431 -24.0187 63.9431C-26.4402 63.9431 -28.9398 64.0778 -31.3644 63.9431C-31.4686 63.9373 -32.2736 63.7149 -32.3116 63.6484C-32.5943 63.1537 -33.2315 63.5642 -32.2064 63.5642C-30.3644 63.5642 -28.6219 61.4642 -27.2601 60.4281C-25.1985 58.8595 -22.2926 58.5442 -19.9986 57.3972C-16.7819 55.7888 -13.0356 55.987 -9.5378 55.987C-3.78823 55.987 1.96135 55.987 7.71093 55.987C12.7139 55.987 17.4511 56.0384 22.3918 56.8499C28.932 57.9242 35.4517 57.95 42.0505 58.2601C46.2497 58.4575 50.6869 58.7502 54.8055 59.6704C56.8099 60.1181 59.2602 60.1491 60.278 62.3119C60.6635 63.131 60.5062 64.0888 60.9305 64.8902C61.1595 65.3229 61.4482 65.4585 61.3304 65.4585C60.1545 65.4585 58.9011 64.5507 57.9838 63.901C56.218 62.6502 54.796 61.181 52.827 60.1965C51.1271 59.3466 51.228 57.461 50.0487 56.1343C48.9725 54.9235 47.645 53.6262 46.8705 52.1878C45.8188 50.2347 44.3377 49.5586 42.1979 48.7465C39.9742 47.9026 37.9545 47.5471 35.5573 47.4836C31.1779 47.3676 26.8126 47.0573 22.4339 46.9364C13.8844 46.7002 5.30769 46.8943 -3.24449 46.8943C-5.74059 46.8943 -8.23296 46.9102 -10.7165 47.189C-11.2273 47.2463 -15.3243 47.464 -13.6211 48.2624C-11.694 49.1657 -9.63018 49.8664 -7.63297 50.5987C-4.18177 51.8642 -0.793779 53.2432 2.60682 54.6399C6.34519 56.1753 9.84321 57.7422 13.8464 58.5338C18.8975 59.5326 23.8975 60.7936 28.9588 61.733C30.3818 61.9972 31.7285 62.0488 33.1683 62.0488C36.5949 62.0488 39.7197 62.2161 43.0187 63.1433C45.7072 63.8988 48.4352 64.2818 51.1853 64.5535C51.9726 64.6312 53.0388 64.5675 53.7532 64.9323C54.1164 65.1178 54.166 65.2185 54.5635 65.2796C55.3068 65.394 57.2115 65.2125 57.6681 65.669C57.9016 65.9026 57.9643 66.325 58.2469 66.4899C58.5986 66.695 59.0317 66.7503 59.394 66.9529C60.1897 67.398 60.8604 67.9912 61.2672 66.974" stroke="black" stroke-width="13" stroke-linecap="round"/>
<path d="M-19.396 76.6704C-19.396 77.2718 -20.6444 77.0625 -21.0106 77.388C-21.5858 77.8993 -21.8886 78.4031 -22.643 78.7513C-23.0537 78.9409 -23.6431 78.9702 -23.9974 79.2536C-24.1301 79.3598 -24.1486 79.5002 -24.3203 79.5765C-24.8198 79.7985 -23.7807 79.7346 -23.6655 79.738C-23.1972 79.7518 -22.7336 80.2076 -22.3739 80.4645C-21.8824 80.8156 -21.2285 80.8171 -20.7594 81.2628C-20.3481 81.6535 -20.1077 82.3338 -19.6831 82.6441C-18.9676 83.1669 -18.1765 83.7174 -17.4586 84.133C-17.03 84.3812 -17.0651 85.0659 -16.481 85.0659C-15.2543 85.0659 -13.9826 85.43 -12.7586 85.5413C-12.0979 85.6013 -11.4118 85.5502 -10.7494 85.5502C-10.4263 85.5502 -9.19551 85.3469 -8.9376 85.622C-8.538 86.0482 -7.3248 86.0067 -6.77595 86.0256C-4.09339 86.1181 -1.37649 86.0654 1.30557 86.0346C1.97939 86.0268 2.65656 85.9684 3.32371 85.8731C3.62484 85.8301 3.83467 85.602 4.11303 85.5592C4.80633 85.4525 5.57251 85.5502 6.27468 85.5502C6.99902 85.5502 7.36489 85.6319 7.97889 85.8552C8.46909 86.0334 9.05525 86.196 9.58443 86.196C11.0795 86.196 12.5742 86.3575 14.0781 86.3575C15.4595 86.3575 16.8408 86.3575 18.2221 86.3575C20.5248 86.3575 22.7632 85.8731 25.0568 85.8731C28.2678 85.8731 31.6422 86.1118 34.8156 85.631C35.4643 85.5327 36.4522 85.3155 37.1118 85.3888C37.3718 85.4177 37.7967 85.8725 38.0805 85.9987C38.8556 86.3432 39.8189 86.2477 40.583 85.9539C41.8273 85.4753 43.0057 85.6192 43.8838 84.6533C44.5722 83.896 45.593 83.1128 46.476 82.6082C47.2717 82.1535 48.0617 81.8082 48.9336 81.5498C49.2858 81.4455 49.8021 81.5012 50.1087 81.2628C50.4938 80.9633 50.8461 81.1671 51.2388 80.9489C51.7079 80.6883 51.9475 79.1098 52.1268 78.5271C52.5001 77.3139 52.6111 76.2544 52.6111 74.9662C52.6111 74.256 52.2413 73.628 52.1268 72.9122C51.9972 72.102 51.7161 71.1284 51.3195 70.4097C50.9721 69.78 50.6505 69.0636 50.4405 68.3736C50.2659 67.7999 49.9513 67.3426 49.7858 66.8129C49.5816 66.1596 49.0965 65.6461 49.0592 64.9562C49.0089 64.026 48.4997 63.0751 48.3327 62.1398C48.0263 60.4239 47.6173 58.612 47.0501 56.9734C46.5426 55.5075 45.7497 54.082 44.9871 52.7398C44.4866 51.859 44.375 50.796 44.0542 49.8337C43.7894 49.0392 43.3206 47.7944 43.256 46.9544C43.1262 45.2671 42.3042 44.7806 40.8342 44.6941C40.142 44.6534 39.7162 44.2802 39.1031 44.0573C37.4277 43.4481 35.5494 43.4765 33.8469 42.8913C32.7192 42.5036 31.5211 42.1199 30.3488 42.1199C28.9197 42.1199 27.4906 42.1199 26.0614 42.1199C17.3461 42.1199 8.65823 41.9584 -0.0577927 41.9584C-2.3322 41.9584 -4.76644 41.4142 -6.88359 42.2903C-7.95914 42.7354 -9.23901 43.0527 -10.1933 43.7344C-10.6469 44.0584 -11.1926 44.1045 -11.7182 44.2546C-12.4049 44.4508 -12.8589 45.1111 -13.5838 45.1874C-13.975 45.2286 -14.0682 45.5849 -14.0682 45.9319C-14.0682 46.9263 -14.1813 47.7646 -14.5166 48.7035C-14.9723 49.9794 -15.9098 51.3049 -16.5617 52.5155C-17.4211 54.1117 -17.859 55.8273 -18.2659 57.5564C-18.5066 58.5792 -18.5888 58.3436 -18.5888 57.4577C-18.5888 56.9269 -18.6925 56.3273 -18.4632 55.8432C-17.9836 54.8307 -17.5173 53.8609 -17.1357 52.8115C-16.9827 52.3908 -16.8128 51.8806 -16.8128 51.4302C-16.8128 50.4988 -16.7715 53.4088 -17.2882 54.1839C-17.5832 54.6263 -18.0656 55.1542 -18.1044 55.7176C-18.1587 56.5051 -18.7214 57.1272 -18.7502 57.9062C-18.7861 58.8752 -19.035 59.8836 -19.5575 60.7047C-19.9091 61.2572 -19.9433 61.9457 -20.2751 62.4986C-20.7014 63.2092 -21.0334 63.9829 -21.181 64.7948C-21.3388 65.6627 -21.914 66.5509 -21.9793 67.4318C-22.0722 68.6863 -22.8357 69.5249 -23.235 70.6429C-23.5447 71.51 -23.7907 72.6579 -23.9077 73.5939C-23.9976 74.3128 -24.2575 74.8926 -24.5984 75.5403C-24.6459 75.6305 -25.316 76.1531 -25.1365 76.2578C-24.7511 76.4827 -24.0253 76.3475 -23.5938 76.3475C-22.4935 76.3475 -21.3933 76.3475 -20.293 76.3475C-15.7517 76.3475 -11.2177 76.3121 -6.67729 76.2219C5.59696 75.9783 17.8926 76.1861 30.1694 76.1861C31.1599 76.1861 32.1928 76.3183 33.1204 75.908C34.3391 75.369 35.4185 74.9697 36.7531 74.8137C38.0152 74.6662 39.4785 74.849 40.6727 74.4011C41.1122 74.2363 41.9998 73.5025 41.8477 72.9391C41.5548 71.8534 40.1836 71.181 39.3004 70.6788C37.3633 69.5773 35.364 68.8035 33.1832 68.3557C26.5072 66.9847 19.529 67.3063 12.7507 67.3063C6.22048 67.3063 -0.303039 67.3883 -6.80286 66.6246C-9.57066 66.2994 -12.316 65.8364 -15.0907 65.5572C-15.4654 65.5195 -17.537 65.7073 -17.6111 64.9293C-17.7689 63.2721 -17.4122 62.1144 -16.2388 60.92C-14.7231 59.3772 -12.4624 58.2426 -10.3368 57.8972C-7.06599 57.3657 -4.06163 58.3774 -0.882986 58.8929C1.01011 59.1998 2.86583 59.6815 4.74986 60.041C8.61227 60.7779 12.5263 61.1222 16.4461 61.3864C21.2278 61.7086 26.0785 61.494 30.8691 61.494C32.5664 61.494 34.2665 61.5183 35.9637 61.494C37.5029 61.472 38.0428 61.2743 37.076 59.8795C36.6298 59.2358 36.0552 58.6688 35.7574 57.9331C35.4068 57.0669 35.2164 56.2375 34.4838 55.5921C32.5358 53.876 29.3223 53.5331 26.8866 53.1434C22.5537 52.4501 18.1629 52.6142 13.7911 52.6142C9.02419 52.6142 4.20007 52.7769 -0.560083 52.4169C-2.03639 52.3052 -3.80845 52.5898 -5.18835 52.1298" stroke="#E0353F" stroke-width="13" stroke-linecap="round"/>
<line x1="43.7603" y1="93.5612" x2="60.2389" y2="84.5612" stroke="#E0353F"/>
<path d="M60.5352 72.9434L46.9999 37.9999" stroke="#E0353F"/>
<line x1="62.9259" y1="46.1164" x2="67.0035" y2="45.5055" stroke="black"/>
<line x1="60.4827" y1="35.8696" x2="63.4567" y2="46.8766" stroke="black"/>
<line x1="60.4827" y1="35.8696" x2="63.4567" y2="46.8766" stroke="black"/>
<path d="M-6.5791 97.5937C-6.33503 97.586 -6.06129 97.5182 -5.84841 97.3952C-5.65966 97.2861 -5.46072 97.2106 -5.24429 97.165C-4.6631 97.0427 -4.06137 96.9657 -3.47222 96.8889C-3.30916 96.8676 -3.16142 96.8169 -2.99468 96.8169C-2.58762 96.8169 -2.18056 96.8169 -1.7735 96.8169C-0.489289 96.8169 0.813827 96.8996 2.07846 96.6587C2.19589 96.6364 2.27749 96.6098 2.40497 96.6098C2.53158 96.6098 2.65964 96.6149 2.78614 96.6084C2.99091 96.5979 3.18323 96.526 3.38594 96.5091C3.51633 96.4983 3.66565 96.5333 3.793 96.5034C4.47317 96.3433 5.14142 96.1849 5.84843 96.1697C6.07169 96.1649 6.26827 96.092 6.48994 96.092C6.75831 96.092 7.06407 96.0476 7.32132 96.1294C7.41214 96.1583 7.50975 96.1483 7.59893 96.1826C7.79718 96.2589 8.07168 96.2991 8.28215 96.2991" stroke="black"/>
<path d="M5.78809 96.536C6.67027 96.6162 7.5164 96.4954 8.39875 96.4954C9.67772 96.4954 10.9477 96.5107 12.2222 96.4163C13.0231 96.357 13.8476 96.4141 14.6522 96.4141C15.3834 96.4141 16.1071 96.3328 16.845 96.3328C18.5316 96.3328 20.2192 96.4141 21.9083 96.4141C23.2317 96.4141 24.5299 96.4954 25.8536 96.4954C26.13 96.4954 26.4466 96.4519 26.7209 96.4976C26.8971 96.527 27.1183 96.6173 27.2967 96.6173C28.0024 96.6173 28.7448 96.6284 29.4467 96.6986C29.5352 96.7075 29.6135 96.7768 29.7019 96.7957C29.8639 96.8304 30.0331 96.8293 30.1965 96.859C30.2892 96.8758 30.3716 96.9342 30.463 96.9425C30.6413 96.9587 30.7565 97.0825 30.9192 97.1232C31.0742 97.162 31.1938 97.1513 31.3347 97.218C31.7141 97.3978 32.1949 97.2969 32.5949 97.3897C32.9967 97.4829 33.445 97.5234 33.8573 97.55C35.0966 97.63 36.373 97.6982 37.5949 97.9204C37.655 97.9313 37.6964 98.0022 37.7484 98.0311C37.8619 98.0938 38.0174 98.1158 38.1459 98.1214C38.3396 98.1298 38.507 98.1981 38.697 98.2411C38.9215 98.2919 39.1437 98.2737 39.3654 98.3337C39.5418 98.3813 39.7114 98.4624 39.8939 98.4872C40.2496 98.5358 40.7081 98.6685 41.0231 98.8531C41.1512 98.9282 41.2552 98.8979 41.3776 98.9931C41.5025 99.0903 41.7347 99.0871 41.8812 99.1941C42.0633 99.3271 42.5314 99.4629 42.7598 99.4629C43.0191 99.4629 43.2466 99.5848 43.5118 99.5848" stroke="black"/>
<path d="M42.8623 99.1782C42.8916 99.4125 43.7652 99.5997 44.0005 99.666C44.49 99.8039 44.9954 100.02 45.5136 100.032C46.6124 100.057 47.6995 100.032 48.7973 100.032C48.9928 100.032 49.1891 100.038 49.3845 100.03C49.638 100.019 49.8622 99.9207 50.1162 99.9077C50.2969 99.8984 50.4713 99.8496 50.6491 99.8309C50.7518 99.8201 51.09 99.8896 51.155 99.8083C51.2748 99.6586 51.7278 99.6897 51.9048 99.6254C52.1448 99.5381 52.3822 99.4996 52.6184 99.3815" stroke="black"/>
<path d="M47.1298 99.2595C46.8887 99.2268 46.6065 99.2577 46.3755 99.1737C46.0658 99.0611 45.7315 98.9725 45.4022 98.9163C45.1692 98.8765 44.9343 98.9037 44.6998 98.8937C44.3504 98.8788 43.9316 98.7505 43.6023 98.6407C43.5545 98.6248 43.3225 98.5329 43.4939 98.5278C43.6973 98.5218 43.9127 98.547 44.1036 98.6182C44.3431 98.7075 44.5455 98.8421 44.7947 98.9027C44.9164 98.9323 45.0389 98.9623 45.1537 99.0134C45.4553 99.1474 45.785 99.0879 46.0955 99.1782C46.3108 99.2409 46.5418 99.2558 46.764 99.3002" stroke="black"/>
<line x1="-16" y1="93.5" x2="44" y2="93.5" stroke="#E0353F"/>
<line x1="-6" y1="34.5" x2="34" y2="34.5" stroke="#E0353F"/>
<line x1="33.1847" y1="34.5203" x2="47.1416" y2="38.6465" stroke="#E0353F"/>
<line x1="60.5" y1="72" x2="60.5" y2="85" stroke="#E0353F"/>
<line x1="-26" y1="65" x2="7" y2="65" stroke="white" stroke-width="10"/>
<line x1="16" y1="56" x2="51" y2="56" stroke="white" stroke-width="10"/>
<line x1="4.09095" y1="65.7699" x2="19.2396" y2="54.9334" stroke="white" stroke-width="10"/>
<path d="M60.5117 44.1218C60.5915 44.0752 60.6801 44.0307 60.7547 43.976C60.7922 43.9485 60.7983 43.9042 60.8499 43.8889C60.9867 43.8482 61.1488 43.9163 61.2873 43.8808C61.339 43.8675 61.3679 43.6012 61.348 43.5467C61.3407 43.5266 61.2824 43.4156 61.266 43.4029C61.2007 43.3521 61.18 43.2706 61.1233 43.2105C61.0734 43.1578 61.0319 43.0331 61.0038 42.9635C60.9309 42.7828 60.823 42.6371 60.775 42.4451C60.7226 42.2357 60.6981 42.0352 60.6676 41.8194C60.6568 41.7427 60.6029 41.5213 60.6413 41.5885C60.682 41.6597 60.7068 41.739 60.7507 41.8103C60.8141 41.9133 60.9064 42.0219 60.9339 42.1413C60.9721 42.3068 61.0582 42.4771 61.1273 42.6314C61.212 42.8204 61.2631 43.1077 61.423 43.2409C61.5088 43.3124 61.5158 43.4595 61.5677 43.5548C61.6081 43.6287 61.6003 43.6861 61.6315 43.571C61.6746 43.412 61.679 43.2374 61.6234 43.083C61.5931 42.9987 61.5914 42.9155 61.5505 42.8359C61.5012 42.7399 61.4217 42.607 61.3501 42.5281C61.3112 42.4853 61.2725 42.4516 61.2427 42.3985C61.176 42.2794 61.1736 42.136 61.1091 42.0198C61.0615 41.9343 61.019 41.8349 60.9997 41.7384C60.9747 41.6133 60.9226 41.5126 60.8691 41.3972C60.8122 41.2743 60.8298 41.0926 60.8114 40.9588C60.7994 40.8715 60.7946 40.7834 60.7831 40.6965C60.7756 40.6409 60.7334 40.6019 60.7213 40.5457C60.6791 40.3488 60.5559 40.1911 60.5441 39.9827C60.5378 39.8712 60.6542 39.9982 60.6818 40.0313C60.7104 40.0657 60.6993 40.1013 60.7203 40.1346C60.7746 40.2209 60.8315 40.2935 60.8671 40.3948C60.9298 40.5733 61.0106 40.7377 61.0362 40.9264C61.0426 40.9733 61.0297 41.0289 61.0443 41.0742C61.0537 41.1036 61.0756 41.1224 61.0767 41.1552C61.0795 41.2364 61.0766 41.3129 61.1131 41.3881C61.1402 41.4437 61.1724 41.5044 61.1901 41.5622C61.2152 41.6446 61.2243 41.7346 61.2589 41.8143C61.316 41.9455 61.325 42.0962 61.3865 42.2264C61.4205 42.2984 61.4369 42.349 61.4412 42.4269C61.444 42.4769 61.4905 42.5224 61.4969 42.5737C61.5119 42.694 61.5614 42.7812 61.586 42.8916C61.6015 42.9613 61.5305 42.8168 61.5242 42.8096C61.481 42.7602 61.4845 42.5847 61.4736 42.516C61.4573 42.4136 61.4162 42.3 61.4047 42.2041C61.3998 42.1633 61.3678 42.1195 61.3561 42.0786C61.3064 41.9045 61.264 41.7267 61.1972 41.5582C61.1242 41.3742 61.0966 41.1783 61.0321 40.9912C60.9855 40.8558 60.9339 40.7272 60.8944 40.5902C60.8542 40.4507 60.7851 40.2935 60.7851 40.1488C60.7851 40.0307 60.7386 39.9441 60.7132 39.8298C60.7029 39.7837 60.7241 39.7304 60.7112 39.6851C60.6952 39.6292 60.6757 39.5923 60.6757 39.5291C60.6757 39.4684 60.6671 39.652 60.6798 39.7114C60.7076 39.8413 60.7589 39.9569 60.8114 40.0769C60.8484 40.1614 60.8549 40.258 60.9036 40.3391C60.9471 40.4117 60.9922 40.4747 61.0048 40.5568C61.0286 40.7113 61.0727 40.8643 61.0767 41.0236C61.0782 41.0823 61.1097 41.1532 61.1273 41.2099C61.1643 41.329 61.1601 41.4569 61.1941 41.5784C61.2321 41.714 61.2225 41.8679 61.2225 42.0077" stroke="black" stroke-width="0.5" stroke-linecap="round"/>
<path d="M62.6387 46.86C62.6568 46.862 62.6774 46.8755 62.694 46.8827C62.7245 46.8961 62.7358 46.8771 62.7607 46.8646C62.7875 46.8512 62.8158 46.8413 62.8414 46.8258C62.8674 46.8101 62.9144 46.7949 62.9293 46.771C62.9385 46.7563 63.0933 46.7576 63.1175 46.7576C63.1919 46.7576 63.2627 46.739 63.3367 46.739C63.417 46.739 63.4974 46.739 63.5777 46.739C63.6483 46.739 63.7279 46.7493 63.7954 46.724C63.9344 46.6719 64.0902 46.6831 64.2364 46.6831C64.3493 46.6831 64.4622 46.6831 64.5751 46.6831C64.6261 46.6831 64.6758 46.6666 64.7277 46.665C64.8253 46.662 64.9184 46.6366 65.0162 46.6366C65.1265 46.6366 65.2368 46.6366 65.3471 46.6366" stroke="black" stroke-width="0.5" stroke-linecap="round"/>
<path d="M59.2139 94.6824C59.4782 94.4181 59.8724 94.2648 60.1873 94.048C60.4909 93.839 60.8033 93.6614 61.1131 93.4691C61.2544 93.3814 61.3544 93.3197 61.4799 93.2193C61.5689 93.1481 61.6591 93.0338 61.7456 92.9516C61.805 92.8951 61.8939 92.8906 61.9418 92.8426C62.0704 92.714 62.1825 92.6077 62.3344 92.5056C62.6371 92.3019 62.7563 92.1224 62.8895 91.7998C62.968 91.6097 63.0987 91.527 63.2285 91.3834C63.3001 91.3043 63.3987 91.2599 63.4783 91.1892C63.5587 91.1177 63.6013 91.0438 63.6726 90.9592C63.8451 90.7544 63.8229 90.4461 63.9046 90.2058C63.975 89.9983 64.0513 89.762 64.1385 89.5615C64.1746 89.4785 64.1529 89.3635 64.2099 89.2938C64.3167 89.1633 64.4005 89.0099 64.4438 88.8458C64.5229 88.546 64.637 88.2576 64.6817 87.9497C64.7502 87.4782 64.995 87.0385 64.995 86.5599C64.995 86.3491 64.995 86.1383 64.995 85.9275C64.995 85.6594 65.0306 85.4275 65.0306 85.1543" stroke="black" stroke-width="2" stroke-linecap="round"/>
<path d="M34.9932 95.246C35.146 95.5058 35.613 95.4805 35.8399 95.6257C35.8866 95.6555 35.9748 95.6391 36.0248 95.6391C36.2561 95.6391 36.4874 95.6391 36.7187 95.6391C36.9703 95.6391 37.2503 95.5952 37.4882 95.6828C37.689 95.7568 37.9292 95.7708 38.1384 95.8206C38.39 95.8805 38.5925 95.9549 38.8205 96.0625C38.992 96.1435 39.2303 96.0912 39.4169 96.1096C39.54 96.1217 39.7621 96.1192 39.8622 96.2137C40.0413 96.3829 39.7103 96.2654 39.6085 96.3061C39.5737 96.3201 39.6994 96.4132 39.711 96.4187C39.7571 96.4407 39.9221 96.434 39.9462 96.4691C40.0309 96.5923 40.4725 96.5399 40.6182 96.5447C40.6399 96.5454 40.9395 96.5233 40.8148 96.6203C40.7459 96.6739 40.6207 96.616 40.5409 96.6522C40.5076 96.6674 40.4744 96.6674 40.4385 96.6674C40.3651 96.6674 40.6508 96.7606 40.672 96.7682C40.7913 96.8108 40.9172 96.8353 41.0349 96.8791C41.1254 96.9127 41.1999 96.9093 41.297 96.9093C41.418 96.9093 41.4939 96.9822 41.6028 97.0319C41.8224 97.1323 42.0296 97.2625 42.2816 97.2722C42.3457 97.2747 42.4105 97.2722 42.4748 97.2722C42.5425 97.2722 42.3392 97.2722 42.2715 97.2722C42.0835 97.2722 41.9004 97.2764 41.7204 97.2436C41.604 97.2225 41.4823 97.182 41.3978 97.1008C41.2244 96.9341 41.4162 97.094 41.4969 97.1395C41.6934 97.25 41.9319 97.4585 42.1606 97.4839C42.2477 97.4936 42.4497 97.4925 42.5 97.5746C42.57 97.6892 42.9199 97.6654 43.051 97.6654C43.1316 97.6654 43.071 97.7459 43.1283 97.7796C43.177 97.8082 43.2674 97.8166 43.3215 97.8166C43.5298 97.8166 43.7372 97.877 43.9449 97.877C44.1106 97.877 44.2764 97.877 44.4422 97.877C44.5473 97.877 44.7607 97.8902 44.8521 97.9308C45.1783 98.0758 45.6789 97.998 46.0249 97.998C46.219 97.998 46.4104 98.0283 46.6062 98.0283C46.6783 98.0283 46.7113 98.0887 46.7742 98.0887C46.8493 98.0887 46.9243 98.0887 46.9993 98.0887C47.467 98.0887 47.9813 98.1811 48.4644 98.082C48.7016 98.0334 48.9538 98.0585 49.1953 98.0585C49.2945 98.0585 49.3292 98.0092 49.4103 97.9997C49.5827 97.9794 49.7567 97.9689 49.9295 97.9476C50.2672 97.906 50.6208 97.8166 50.9611 97.8166" stroke="black" stroke-width="2" stroke-linecap="round"/>
<path d="M8.15944 95.6698C8.15431 95.6698 8.12731 95.6825 8.12286 95.6869C8.11283 95.697 8.11629 95.7124 8.10233 95.7235C8.09318 95.7308 8.0908 95.7638 8.10569 95.7638C8.12091 95.7638 8.13886 95.7609 8.15123 95.772C8.1648 95.7843 8.17841 95.7706 8.15272 95.7706C8.12119 95.7706 8.09103 95.7638 8.05865 95.7638C8.01378 95.7638 7.97424 95.7457 7.93098 95.7437C7.89533 95.742 7.85918 95.7437 7.82347 95.7437C7.75874 95.7437 7.69595 95.7571 7.6316 95.7571C7.57237 95.7571 7.51314 95.7571 7.45391 95.7571C7.3027 95.7571 7.15254 95.7638 7.00147 95.7638C6.8223 95.7638 6.63579 95.7765 6.46019 95.7489C6.41127 95.7412 6.35813 95.7388 6.31049 95.7269C6.25351 95.7126 6.07556 95.7235 6.1343 95.7235C6.17349 95.7235 6.19083 95.7523 6.23098 95.7504C6.25322 95.7493 6.27425 95.7437 6.29706 95.7437C6.32395 95.7437 6.35621 95.7386 6.38254 95.7452C6.40236 95.7501 6.39542 95.7622 6.37844 95.7635C6.33257 95.767 6.28514 95.7638 6.23919 95.7638C6.20848 95.7638 6.17729 95.7654 6.14662 95.7635C6.12018 95.7618 6.10359 95.7429 6.07793 95.7385C6.05349 95.7342 6.02013 95.7379 5.99916 95.7231C5.96927 95.702 5.93007 95.7101 5.89501 95.7101C5.86891 95.7101 5.87483 95.7268 5.89651 95.7355C5.91235 95.7418 5.92132 95.7504 5.89837 95.7504C5.84462 95.7504 5.79086 95.7504 5.73711 95.7504C5.69506 95.7504 5.64211 95.7565 5.59637 95.7571C5.52247 95.7582 5.44524 95.7546 5.37464 95.7769C5.34367 95.7867 5.3115 95.784 5.27944 95.784C5.1967 95.784 5.11395 95.784 5.0312 95.784C4.98914 95.784 4.95039 95.7782 4.91025 95.7709C4.87213 95.764 4.82169 95.7735 4.78632 95.7586C4.75812 95.7467 4.70578 95.7515 4.71278 95.706C4.71976 95.6606 4.75191 95.6134 4.78146 95.5802C4.81811 95.539 4.84464 95.5496 4.89532 95.5585C4.96221 95.5703 5.02912 95.5816 5.09615 95.5925C5.16556 95.6038 5.27396 95.6396 5.34403 95.6119C5.36481 95.6037 5.42036 95.4844 5.40301 95.4749C5.39474 95.4704 5.3809 95.4738 5.3709 95.4682C5.355 95.4593 5.35026 95.4404 5.33395 95.4316C5.30285 95.4149 5.21679 95.5064 5.19545 95.5227C5.14891 95.5581 5.09538 95.5895 5.03979 95.6085C5.00185 95.6216 4.98668 95.6534 4.9543 95.6713C4.93438 95.6822 4.9225 95.6973 4.90428 95.7101C4.86441 95.738 4.80283 95.7508 4.75571 95.7623C4.6878 95.7789 4.63892 95.8176 4.56719 95.8176C4.53373 95.8176 4.50631 95.8216 4.47349 95.8295C4.43434 95.8391 4.38455 95.831 4.34433 95.831C4.21913 95.831 4.09834 95.8176 3.97327 95.8176C3.86534 95.8176 3.76335 95.831 3.65597 95.831C3.54987 95.831 3.44615 95.8331 3.34165 95.8135C3.26973 95.8 3.19702 95.7926 3.12365 95.7907C3.04938 95.7888 2.9772 95.7694 2.90303 95.765C2.88576 95.7639 2.83384 95.7638 2.85114 95.7638" stroke="black" stroke-width="0.5" stroke-linecap="round"/>
<path d="M57.0625 83.0752C57.2516 83.2299 57.6182 83.3033 57.8435 83.3533C57.9519 83.3774 58.0369 83.4874 58.1528 83.5247C58.4882 83.6325 58.7456 83.663 59.0962 83.676C59.2146 83.6803 59.2631 83.721 59.203 83.5491C59.145 83.3835 59.1096 83.2254 59.1051 83.053C59.1013 82.9096 59.0896 82.6968 59.0049 82.5746C58.8488 82.349 58.6195 82.2515 58.4331 82.065C58.3995 82.0315 58.1581 81.7981 58.2484 81.758C58.451 81.668 58.7152 81.9481 58.9271 81.9538C59.0649 81.9575 59.233 81.981 59.3654 81.9516C59.4733 81.9276 59.4375 81.6438 59.3943 81.5844C59.3143 81.4744 59.3076 81.2903 59.2163 81.1661C59.1399 81.0622 58.9469 80.82 58.8069 80.7946C58.5832 80.7539 58.6533 80.5291 58.6156 80.3696C58.5717 80.1844 58.4787 79.9504 58.5065 79.7555C58.5239 79.634 58.8592 79.779 58.9226 79.8334C58.9662 79.8707 59.197 80.187 59.2564 80.1738C59.3226 80.1591 59.2653 78.9143 59.2653 78.7898C59.2653 78.3123 59.2927 77.8243 59.2564 77.348C59.2327 77.0375 59.1852 76.7123 59.1852 76.4024C59.1852 75.43 59.1852 74.4577 59.1852 73.4854C59.1852 73.2766 59.2102 72.9213 59.0049 72.7845C58.9426 72.7429 58.8561 72.5424 58.8158 72.4619C58.752 72.3343 58.7281 72.1766 58.6823 72.0391C58.631 71.8851 58.5725 71.7515 58.5043 71.603C58.4519 71.489 58.5052 71.3374 58.442 71.2381C58.2827 70.9878 58.4326 70.6183 58.1839 70.4193" stroke="#E0353F" stroke-width="2" stroke-linecap="round"/>
<path d="M58.0275 70.0597C58.0177 69.9618 57.9589 69.8751 57.9068 69.7945C57.76 69.5677 57.8099 69.3094 57.7177 69.0725C57.6445 68.8841 57.569 68.6973 57.4972 68.5106C57.4112 68.2872 57.413 68.0741 57.3607 67.8385C57.3345 67.7207 57.2426 67.6372 57.2268 67.5103C57.2086 67.3652 57.2218 67.2691 57.1086 67.1558C56.9291 66.9764 56.8002 66.7009 56.6465 66.4942C56.4413 66.2183 56.2012 65.8976 56.0899 65.57C55.9625 65.1948 55.8778 64.7812 55.809 64.3912C55.7429 64.0167 55.5228 63.687 55.5228 63.2937C55.5228 62.8014 55.3983 62.1922 55.1894 61.7394C54.9283 61.1737 54.8579 60.5224 54.5304 59.9829C54.2807 59.5717 54.0605 59.2384 54.0079 58.7647C53.9877 58.5828 53.9268 58.2746 53.8582 58.1031C53.7793 57.9059 53.843 57.7938 53.6797 57.6305" stroke="#E0353F" stroke-width="2" stroke-linecap="round"/>
<path d="M51.594 51.2518C51.594 51.2119 51.5825 51.1439 51.5541 51.1154C51.5119 51.0733 51.4324 51.042 51.4056 50.9883C51.366 50.9093 51.3153 50.8363 51.2872 50.7522C51.2662 50.6892 51.2335 50.6328 51.2122 50.5691C51.1963 50.5213 51.2004 50.4701 51.1816 50.423C51.1548 50.3562 51.0771 50.3025 51.0603 50.2355C51.0457 50.1771 51.0071 50.1254 50.998 50.0641C50.9871 49.9907 50.9502 49.9361 50.9245 49.8674C50.9122 49.8348 50.9179 49.8031 50.9016 49.7705C50.8888 49.7449 50.8828 49.7181 50.8714 49.6921C50.8449 49.6317 50.822 49.5686 50.7905 49.5105C50.7447 49.4257 50.7228 49.3388 50.6859 49.2514C50.6321 49.1245 50.5939 48.9881 50.551 48.857C50.529 48.7899 50.5053 48.7306 50.4935 48.6617C50.4835 48.6033 50.4651 48.5478 50.439 48.4947C50.3838 48.3824 50.3327 48.2715 50.29 48.1519C50.2532 48.049 50.2223 47.9392 50.1955 47.8334C50.1706 47.7351 50.1261 47.6406 50.0884 47.5462C50.0652 47.4882 50.0538 47.4297 50.0251 47.3733C49.9974 47.3189 49.9598 47.2467 49.955 47.1848C49.9513 47.1387 49.9305 47.1008 49.9111 47.0621" stroke="#E0353F" stroke-width="0.5" stroke-linecap="round"/>
<path d="M47.4363 41.5212C47.4363 41.4212 47.3684 41.4146 47.3306 41.339C47.2775 41.2328 47.1986 41.1415 47.1348 41.0352C47.0903 40.961 47.0975 40.8727 47.056 40.7967C47.0381 40.7638 47.0213 40.727 47.011 40.6909C46.9666 40.5354 46.8796 40.3309 46.795 40.1914C46.7466 40.1115 46.7065 39.987 46.6274 39.9326C46.5989 39.913 46.559 39.9031 46.534 39.8808C46.4703 39.8242 46.3221 39.7948 46.2403 39.7683C45.9795 39.6839 45.7371 39.5453 45.4944 39.4308C45.4014 39.3869 45.3107 39.3808 45.212 39.361C45.0391 39.3265 44.875 39.2672 44.7001 39.2373C44.4738 39.1986 44.2287 39.1753 44.0239 39.0696C43.6502 38.8768 43.2761 38.7445 42.8662 38.6297C42.5259 38.5344 42.1884 38.4185 41.8446 38.335C41.7353 38.3084 41.6334 38.3063 41.5363 38.2416C41.5113 38.2249 41.5012 38.1961 41.4745 38.1808C41.4056 38.1415 41.3158 38.1346 41.2416 38.1077C40.992 38.0173 40.753 37.919 40.508 37.8152C40.3799 37.7609 40.2432 37.7557 40.1176 37.6948C40.0123 37.6437 39.9022 37.6039 39.7891 37.5733C39.4996 37.4948 39.2011 37.5105 38.9092 37.4416C38.7417 37.4021 38.5722 37.3883 38.4041 37.3539C38.3478 37.3424 38.2832 37.3486 38.2331 37.3156C38.1407 37.2549 38.0396 37.231 37.9338 37.1986C37.7731 37.1494 37.6134 37.0528 37.45 37.0231C37.3489 37.0047 37.2581 36.938 37.1597 36.9083C37.0205 36.8664 36.8737 36.853 36.7344 36.8116C36.5766 36.7646 36.4127 36.7448 36.2506 36.7148C36.0064 36.6696 35.7714 36.6177 35.5306 36.5506C35.1262 36.4378 34.7317 36.2966 34.3301 36.177C34.1448 36.1218 33.9456 36.1127 33.7664 36.0375C33.6359 35.9828 33.5176 35.9266 33.3839 35.8901C33.3111 35.8703 33.274 35.79 33.1893 35.79C33.1393 35.79 33.0547 35.732 33.0014 35.7135C32.697 35.6081 32.3576 35.6665 32.0394 35.6291C31.4197 35.5562 30.8207 35.5875 30.2021 35.5875" stroke="#E0353F" stroke-width="2" stroke-linecap="round"/>
<path d="M29.7273 35.501C29.2767 35.501 28.8262 35.501 28.3756 35.501C27.5913 35.501 26.8136 35.414 26.0307 35.4001C25.7446 35.3951 25.4579 35.3989 25.1719 35.4001C24.996 35.4009 24.9136 35.4489 24.7611 35.4674C24.6202 35.4844 24.4659 35.4759 24.328 35.5066C24.159 35.5441 24.0362 35.6018 23.8575 35.6018C23.5221 35.6018 23.1866 35.6018 22.8512 35.6018C22.288 35.6018 21.7248 35.6018 21.1616 35.6018C19.8976 35.6018 18.6337 35.6018 17.3697 35.6018C16.7728 35.6018 16.1654 35.608 15.5718 35.542C14.7548 35.4513 13.9347 35.3665 13.1111 35.3665C12.2434 35.3665 11.3593 35.4014 10.4973 35.3068C9.92676 35.2442 9.35353 35.2657 8.77971 35.2657C8.51596 35.2657 8.26023 35.2005 7.99558 35.1985C7.53761 35.1951 7.07167 35.2167 6.61588 35.163C6.16532 35.11 5.69909 35.0977 5.24551 35.0977C4.63129 35.0977 4.02093 35.0641 3.41026 35.0641C2.38093 35.0641 1.3516 35.0641 0.322266 35.0641" stroke="#E0353F" stroke-width="2" stroke-linecap="round"/>
<path d="M-0.502473 35.3427C-0.901973 35.3427 -1.30147 35.3427 -1.70097 35.3427C-1.80548 35.3427 -1.90999 35.3427 -2.01451 35.3427C-2.13367 35.3427 -2.28741 35.3146 -2.40081 35.3524C-2.50689 35.3877 -2.67376 35.3983 -2.78604 35.4005C-2.925 35.4032 -3.06042 35.408 -3.19909 35.4155C-3.65559 35.4402 -4.14288 35.3744 -4.59021 35.5086C-4.77187 35.5631 -4.94823 35.5687 -5.13595 35.5739C-5.22851 35.5764 -5.34241 35.6359 -5.43129 35.6638C-5.5515 35.7015 -5.67405 35.7668 -5.7994 35.7847C-5.87243 35.7951 -6.02345 35.803 -6.0498 35.8821" stroke="#E0353F" stroke-width="2" stroke-linecap="round"/>
<path d="M-18.2373 91.063C-17.9252 91.063 -17.8842 91.1999 -17.6731 91.3909C-17.4649 91.5792 -17.0043 91.4809 -16.7471 91.5838C-16.6323 91.6298 -16.5475 91.7659 -16.4337 91.7984C-16.162 91.876 -15.87 92.0179 -15.5728 92.0179C-15.4578 92.0179 -15.3881 92.0944 -15.2859 92.1047C-15.0656 92.1267 -14.8314 92.1047 -14.6107 92.1047C-14.0748 92.1047 -13.5693 92.1915 -13.0362 92.1915C-12.6624 92.1915 -12.2921 92.2039 -11.9294 92.1481C-11.5847 92.095 -11.2311 92.0613 -10.8829 92.0613C-10.2736 92.0613 -9.51949 91.9511 -8.92494 92.0854C-8.26316 92.2348 -7.56851 92.1915 -6.88982 92.1915C-4.91349 92.1915 -2.92934 92.1047 -0.962887 92.1047C0.441419 92.1047 1.84245 92.0613 3.24721 92.0613C3.40776 92.0613 3.58303 92.0393 3.74152 92.0637C3.88107 92.0851 4.0651 92.1905 4.21655 92.2252C4.66548 92.3282 4.963 92.2783 5.41736 92.2783C6.17772 92.2783 6.93808 92.2783 7.69844 92.2783C8.48041 92.2783 9.2645 92.2349 10.0494 92.2349C10.6779 92.2349 11.2868 92.1047 11.9182 92.1047C12.2831 92.1047 12.648 92.1047 13.0129 92.1047C14.1841 92.1047 15.3546 92.3217 16.5285 92.3217" stroke="#E0353F" stroke-width="2" stroke-linecap="round"/>
<path d="M16.9238 92.7069C17.3932 92.7069 17.8577 92.6997 18.3217 92.6653C18.7771 92.6316 19.2137 92.5081 19.673 92.4915C20.0959 92.4763 20.4469 92.5187 20.8554 92.5747C21.3619 92.6442 21.8778 92.6188 22.3879 92.6188C23.2213 92.6188 24.0274 92.6069 24.8531 92.5087C25.5705 92.4232 26.3238 92.4866 27.0465 92.4866C27.3783 92.4866 27.7018 92.4426 28.0331 92.4426C28.4652 92.4426 28.9692 92.5145 29.3795 92.3691C29.6387 92.2773 29.8462 92.1341 30.1286 92.1341C30.2437 92.1341 30.3587 92.1341 30.4738 92.1341C30.7536 92.1341 30.9835 92.3104 31.2694 92.3104C31.829 92.3104 32.3932 92.3152 32.9488 92.3887C33.3085 92.4363 33.6288 92.5307 33.9965 92.5307C34.8076 92.5307 35.6188 92.5277 36.4299 92.5307C38.0594 92.5367 39.6819 92.7069 41.3015 92.7069C41.5986 92.7069 41.8956 92.7069 42.1926 92.7069C42.4045 92.7069 42.5325 92.5307 42.7263 92.5307C43.2146 92.5307 43.5568 92.2448 44.0384 92.1806C44.1886 92.1606 44.3784 92.0923 44.4987 91.9921C44.6513 91.8649 44.9028 91.8802 45.0373 91.7032C45.1395 91.5687 45.3541 91.4032 45.5195 91.3825C45.7284 91.3564 45.9404 91.0731 46.1438 90.986C46.4432 90.8576 46.6777 90.6409 46.9712 90.5037C47.3567 90.3236 47.81 90.1813 48.1218 89.8868C48.3032 89.7154 48.5291 89.5949 48.7289 89.4461C48.7956 89.3965 49.0145 89.3657 49.0423 89.2895C49.0825 89.1787 49.0775 89.077 49.1353 88.9614" stroke="#E0353F" stroke-width="2" stroke-linecap="round"/>
<path d="M49.6953 88.9004C49.8787 88.9004 49.9914 88.7556 50.142 88.6662C50.4574 88.4789 50.8114 88.2987 51.1673 88.1869C51.6361 88.0396 52.0554 87.7949 52.4857 87.5618C52.6775 87.4579 52.8823 87.4061 53.086 87.3369C53.3542 87.2458 53.613 87.099 53.8771 86.991C54.2199 86.8508 54.5301 86.621 54.8666 86.459C55.3033 86.2488 55.6617 85.9147 56.1137 85.7238C56.3082 85.6416 56.5102 85.5815 56.6783 85.4492C56.8752 85.2943 57.1313 85.1246 57.2848 84.925C57.3778 84.804 57.421 84.7472 57.5686 84.6783C57.7496 84.5939 57.9571 84.5184 58.1457 84.4581C58.283 84.4141 58.3623 84.3157 58.4621 84.2657" stroke="#E0353F" stroke-width="2" stroke-linecap="round"/>
<line x1="57" y1="56" x2="51" y2="56" stroke="white" stroke-width="10"/>
<path d="M43.7999 98.6177C43.5857 98.6177 43.3976 98.6868 43.1778 98.6868C42.8616 98.6868 42.5472 98.4943 42.2793 98.3412" stroke="black" stroke-width="2" stroke-linecap="round"/>
<path d="M52.4567 31.3546C52.2997 31.215 52.0244 31.2487 51.8213 31.2487" stroke="black" stroke-width="2" stroke-linecap="round"/>
<path d="M68.6668 54.5025C68.6668 54.2882 68.6668 54.074 68.6668 53.8597C68.6668 53.6923 68.6583 53.5159 68.6203 53.3523C68.5858 53.2039 68.4839 53.1049 68.4765 52.9422C68.4665 52.7221 68.3247 52.5263 68.2905 52.3037C68.2311 51.9176 68.2142 51.5187 68.1678 51.1303C68.1182 50.7146 68.0198 50.3466 68.0198 49.9231C68.0198 49.7743 67.9242 49.6981 67.8676 49.5679C67.7854 49.3788 67.5945 49.1456 67.5674 48.9421C67.5316 48.6733 67.4493 48.4199 67.411 48.1514C67.3705 47.8685 67.227 47.5743 67.1361 47.3015C67.0277 46.9764 66.9615 46.6905 66.8866 46.3628C66.8751 46.3124 66.8967 46.2291 66.857 46.1895C66.8237 46.1561 66.8021 46.1657 66.8021 46.1112C66.8021 45.9537 66.8345 46.051 66.783 46.0922C66.7309 46.134 66.7938 46.2262 66.7556 46.274C66.6557 46.3988 66.4883 46.4605 66.3454 46.532C65.7112 46.8491 64.9919 47.1578 64.2524 47.1578C63.9894 47.1578 63.7252 47.178 63.4722 47.1218C63.3685 47.0988 63.1105 47.0561 63.0346 46.9886C62.8906 46.8606 62.7208 46.7624 62.5991 46.6059C62.5027 46.4821 62.4215 46.3544 62.3115 46.2444" stroke="black" stroke-width="2" stroke-linecap="round"/>
<line x1="60.8742" y1="66.4609" x2="51.3948" y2="41.9836" stroke="black" stroke-width="4"/>
<rect x="33.0889" y="42" width="6" height="25" fill="black"/>
<rect x="33.082" y="42" width="6" height="15" transform="rotate(42.2321 33.082 42)" fill="black"/>
<rect x="26.0889" y="67" width="20" height="6" fill="black"/>
</g>
<defs>
<clipPath id="clip0_24_3894">
<rect width="63" height="296" fill="white" transform="matrix(-1 0 0 1 63 0)"/>
</clipPath>
</defs>
</svg>
