<svg width="270" height="296" viewBox="0 0 270 296" fill="none" xmlns="http://www.w3.org/2000/svg">
<path d="M183.5 258C183.5 260.391 185.616 263.015 190.107 265.128C194.481 267.186 200.629 268.5 207.5 268.5C214.371 268.5 220.519 267.186 224.893 265.128C229.384 263.015 231.5 260.391 231.5 258C231.5 255.609 229.384 252.985 224.893 250.872C220.519 248.814 214.371 247.5 207.5 247.5C200.629 247.5 194.481 248.814 190.107 250.872C185.616 252.985 183.5 255.609 183.5 258Z" fill="white" stroke="black" stroke-width="3"/>
<path d="M112.5 258C112.5 260.391 114.616 263.015 119.107 265.128C123.481 267.186 129.629 268.5 136.5 268.5C143.371 268.5 149.519 267.186 153.893 265.128C158.384 263.015 160.5 260.391 160.5 258C160.5 255.609 158.384 252.985 153.893 250.872C149.519 248.814 143.371 247.5 136.5 247.5C129.629 247.5 123.481 248.814 119.107 250.872C114.616 252.985 112.5 255.609 112.5 258Z" fill="white" stroke="black" stroke-width="3"/>
<path d="M62.7333 212.684C62.7333 213.412 63.2671 213.657 63.601 214.225C64.0466 214.982 65.06 215.107 65.559 215.772C66.3505 216.827 67.1667 218.117 68.3048 218.849C68.4506 218.943 68.7384 218.888 68.7958 219.06C68.8517 219.228 68.9636 219.283 69.1268 219.34C69.5813 219.497 69.7725 219.814 70.0916 220.133C70.348 220.39 70.684 220.829 70.9992 221.001C71.3689 221.203 71.4673 221.448 71.4673 220.744C71.4673 219.857 71.6773 218.671 71.4445 217.798C71.1705 216.771 71.2618 215.638 71.2618 214.579C71.2618 214.115 71.1474 212.859 71.6729 212.684" stroke="white" stroke-width="3" stroke-linecap="round"/>
<path d="M51.8417 206.621C51.9888 206.64 52.0947 206.94 52.2299 207.032C52.4128 207.157 52.5572 207.123 52.7665 207.135C53.0963 207.154 53.5367 207.295 53.8968 207.346C54.3886 207.416 54.6917 207.521 55.1241 207.757C55.5637 207.997 56.0606 208.162 56.5684 208.162" stroke="white" stroke-width="3" stroke-linecap="round"/>
<path d="M93.9699 240.735C94.0143 241.09 94.9004 241.214 95.1516 241.409C95.3879 241.593 95.7983 241.456 95.9679 241.672C96.2045 241.973 96.5387 242.27 96.8927 242.431C97.2175 242.578 97.5027 242.756 97.8689 242.785C98.4253 242.827 98.8556 243.099 99.3987 243.19C100.551 243.382 101.692 243.51 102.864 243.51C104.046 243.51 105.15 243.568 106.3 243.841C107.092 244.028 107.976 243.921 108.789 243.921C109.337 243.921 109.885 243.921 110.433 243.921C110.732 243.921 111.066 243.962 111.358 243.898C111.663 243.831 111.843 243.625 112.18 243.612C112.464 243.601 113.28 243.611 113.533 243.498C113.846 243.359 112.592 242.406 112.42 242.328C112.139 242.2 112.024 241.996 111.752 241.86C111.608 241.788 111.56 241.536 111.484 241.403C111.394 241.247 111.203 241.218 111.13 241.089C110.856 240.611 110.41 240.523 110.41 239.856C110.41 239.287 109.393 239.502 108.972 239.502C108.485 239.502 107.998 239.502 107.511 239.502C107.013 239.502 106.512 239.522 106.015 239.502C105.594 239.485 105.241 239.091 104.759 239.091" stroke="white" stroke-width="3" stroke-linecap="round"/>
<path d="M30.0575 232.104C30.6299 232.168 30.7397 232.822 31.2905 232.207C31.4758 232 31.496 231.869 31.496 231.59C31.496 231.327 31.6896 231.199 31.7015 230.974C31.7317 230.401 32.0098 229.897 32.0098 229.295C32.0098 228.801 31.9582 228.353 31.8043 227.891" stroke="white" stroke-width="3" stroke-linecap="round"/>
<path d="M111.541 241.692C111.541 241.923 111.442 242.119 111.185 242.119C110.823 242.119 111.032 241.724 110.964 241.486C110.913 241.308 109.723 242.336 109.556 242.475C109.215 242.759 108.094 242.546 107.706 242.546C107.177 242.546 106.433 242.794 106.567 242.056C106.649 241.608 107.641 241.157 108.046 241.273C108.647 241.445 106.907 241.789 106.338 242.048C105.43 242.461 104.121 242.261 103.151 242.261C102.644 242.261 100.593 240.912 101.364 240.569C101.951 240.309 102.839 240.269 103.484 240.269C103.637 240.269 103.189 240.382 103.08 240.49C102.874 240.696 102.871 240.808 102.566 240.846C102.105 240.904 101.698 241.294 101.222 241.399C100.904 241.47 100.405 241.55 100.083 241.55C99.6392 241.55 100.202 241.396 100.147 241.202C100.095 241.02 99.3242 240.73 99.1662 240.632C98.7713 240.389 98.2714 240.322 97.9011 240.063C97.422 239.728 96.8893 239.366 96.3196 239.209C95.6719 239.031 95.2053 238.561 94.5405 238.561C94.0563 238.561 93.338 238.027 92.8484 237.849C92.7683 237.82 92.3474 237.317 92.2632 237.209C91.947 236.802 91.8509 237.012 92.3265 236.774C93.1872 236.343 94.4794 235.587 95.181 236.639C95.7401 237.478 96.9678 238.085 97.9011 238.505C99.4263 239.192 101.015 239.836 102.637 240.269C103.123 240.398 103.73 240.838 102.859 240.838C102.292 240.838 101.726 240.838 101.159 240.838C99.1786 240.838 97.6501 239.947 95.948 239.217C95.7289 239.123 95.433 239.198 95.2442 239.051C95.0374 238.89 94.8873 238.745 94.6117 238.711C94.3105 238.673 93.5674 238.647 93.3307 238.482C92.831 238.132 92.019 238.106 91.6227 237.644C91.4414 237.432 91.1793 237.104 90.9585 236.932C90.441 236.529 89.3944 236.533 89.0529 235.936C88.8962 235.661 88.3942 235.566 88.1989 235.224C87.9601 234.806 87.511 234.974 87.2026 234.71C86.6858 234.267 86.367 233.715 85.9849 233.223C85.4889 232.586 85.3573 231.959 84.4983 231.713C84.2284 231.636 83.8151 231.138 83.5811 230.946C83.399 230.797 82.8908 230.602 82.7983 230.448C82.5011 229.953 81.6407 229.251 81.0903 229.159C81.0044 229.145 80.4429 228.594 80.3787 228.519C79.982 228.056 79.1941 227.8 78.6707 227.451C78.2713 227.185 77.982 226.855 77.5953 226.597C77.4129 226.476 77.4433 226.255 77.3028 226.115C77.1606 225.973 76.9287 226.013 76.8204 225.814C76.4396 225.116 75.354 224.79 75.1046 223.917C74.894 223.18 74.1564 222.641 73.8948 221.908C73.7467 221.494 73.4301 221.428 73.1119 221.125C72.8089 220.838 72.7355 220.464 72.4715 220.145C72.2632 219.893 71.9671 219.742 71.7677 219.489C71.169 218.727 70.4985 217.894 69.7672 217.211C69.1446 216.63 68.4672 215.947 67.9248 215.306C67.7291 215.074 67.3328 214.608 67.055 214.507C66.7119 214.382 65.885 213.847 65.6475 213.566C65.4404 213.321 65.4496 213.022 65.2047 212.791C64.9493 212.551 64.7016 212.318 64.4377 212.087C64.1237 211.813 63.7685 211.513 63.4256 211.313C62.8982 211.005 61.1275 210.011 62.5795 211.067C63.0279 211.394 63.8087 211.497 64.0107 212.103C64.2474 212.813 65.8505 214.464 65.4103 213.859C64.6145 212.764 64.134 211.708 62.9274 210.886C62.3871 210.517 61.5019 209.886 60.8716 209.676C60.0061 209.387 59.3215 208.729 58.5389 208.308C57.6503 207.829 56.7946 206.948 55.8268 206.671C55.1704 206.483 54.6092 206.252 53.9686 205.967C53.1518 205.604 52.5987 205.54 51.6913 205.54C51.025 205.54 50.4132 205.113 49.6908 205.113C48.5996 205.113 47.5084 205.113 46.4172 205.113C44.3014 205.113 41.9105 204.838 39.8542 205.335C39.3854 205.448 38.4374 205.357 38.0909 205.762C37.7797 206.125 37.08 206.359 36.6676 206.6C35.9402 207.024 35.3248 207.474 34.5484 207.802C34.0017 208.033 32.2597 208.891 32.1288 209.676C32.0761 209.992 32.0743 210.319 32.4768 210.229C32.7896 210.16 32.8581 209.81 33.1726 209.81C33.187 209.81 32.564 210.237 32.4847 210.316C31.9006 210.9 31.5924 211.729 31.1958 212.443C31.0475 212.71 31.1246 213.136 31.1246 213.432C31.1246 213.791 30.7873 214.087 30.6897 214.428C30.6024 214.734 30.2074 215.041 30.1204 215.432C30.0454 215.77 29.9105 216.092 29.8357 216.429C29.6572 217.232 29.559 217.839 29.559 218.706C29.559 219.46 28.8363 220.115 28.9976 220.841C29.0751 221.19 29.3421 221.509 29.4878 221.829C29.641 222.166 29.559 222.609 29.559 222.976C29.559 223.807 30.1283 224.648 30.1283 225.53C30.1283 226.405 30.2706 227.196 30.2706 228.092C30.2706 228.727 30.0237 230.041 30.5553 230.519C30.7169 230.665 30.6776 232.233 30.4762 232.29C30.1114 232.395 30.1282 232.781 29.7725 232.86C29.4535 232.931 28.9535 233.01 28.6339 233.01C28.3388 233.01 28.0079 232.936 27.851 232.662C27.7704 232.521 27.5446 232.476 27.432 232.354C27.2817 232.191 27.3674 231.823 27.2026 231.729C26.7056 231.445 26.7442 230.857 26.2933 230.519C26.0017 230.3 25.4141 229.546 25.3049 229.246C25.0727 228.607 24.4173 228.25 24.2849 227.522C24.1311 226.676 24.0644 225.954 23.7551 225.15C23.5786 224.691 23.2965 224.741 23.2965 224.185C23.2965 223.909 23.1883 223.375 23.0434 223.158C22.8923 222.931 22.9367 222.315 22.8379 222.019C22.7146 221.649 22.8157 221.179 22.6165 220.88C22.1275 220.147 22.8084 217.733 22.9802 217.132C23.2311 216.254 23.8658 215.669 23.8658 214.681C23.8658 213.965 24.4075 213.344 24.4351 212.625C24.5017 210.894 26.3686 209.892 27.1394 208.64C27.9343 207.348 29.4714 206.26 30.4762 205.256C30.8896 204.842 31.6811 204.076 32.2316 203.864C32.5586 203.738 32.765 203.512 33.0065 203.295C33.1904 203.129 33.8476 203.028 34.0661 202.947C34.6358 202.734 35.3401 202.628 35.8531 202.298C37.1609 201.458 38.5571 201.029 40.1705 200.986C40.9995 200.963 41.6246 201.045 42.2896 200.48C42.6825 200.146 44.4989 200.416 45.0097 200.416C46.0737 200.416 46.9056 200.74 47.8879 201.128C48.2121 201.256 48.5571 201.535 48.9159 201.555C49.4909 201.587 49.0906 201.647 48.9159 201.492C48.7852 201.376 48.095 201.171 48.5205 201.017C48.7954 200.918 49.194 200.986 49.4852 200.986C50.3394 200.986 51.0457 200.904 51.7625 201.302C53.0704 202.029 54.5269 203.037 56.0324 203.121C56.4431 203.143 56.6268 203.43 56.8863 203.69C57.1161 203.92 57.6814 204.063 57.9933 204.259C58.349 204.483 58.8101 204.61 59.1636 204.797C59.5941 205.025 60.0593 205.253 60.5237 205.509C60.8865 205.709 61.0183 206.073 61.4725 206.11C61.8547 206.14 62.1742 206.416 62.4372 206.679C62.9743 207.216 63.6056 207.682 64.1768 208.213C64.7827 208.776 65.2709 209.37 65.8531 209.952C66.1476 210.247 66.4443 210.532 66.7387 210.838C66.9018 211.008 67.6866 211.423 67.7034 211.518C67.8157 212.154 68.8637 212.561 69.2058 213.036C69.3712 213.266 69.2971 213.744 69.443 213.906C69.6269 214.11 69.8412 214.447 70.0123 214.618C70.3815 214.987 71.1972 215.3 71.6886 215.361C72.1655 215.421 72.778 216.476 73.1119 216.8C73.5414 217.217 73.4932 217.315 73.6496 217.923C73.7689 218.387 73.9152 218.552 74.1399 218.919C74.3235 219.22 74.8199 219.364 74.8199 218.919C74.8199 218.555 75.0807 218.617 75.3892 218.635C75.6172 218.647 75.8443 219.107 76.1009 219.236C76.3719 219.371 76.7812 219.918 76.8125 220.2C76.8407 220.454 77.1781 220.812 77.3818 220.944C77.6466 221.115 77.7604 221.772 77.9828 222.019C78.1992 222.259 78.5479 222.752 78.8051 222.905C79.1723 223.122 79.2303 223.53 79.5168 223.727C79.7332 223.876 79.8417 224.457 80.0229 224.723C80.2305 225.029 80.5308 225.237 80.7661 225.498C80.8524 225.594 80.7685 225.778 80.8294 225.893C80.9061 226.038 81.111 226.064 81.2247 226.178C81.4663 226.42 81.709 226.621 81.968 226.858C82.621 227.457 83.2331 227.943 83.676 228.74C84.1652 229.621 85.2625 230.039 85.8584 230.843C86.1564 231.246 86.9763 232.039 87.4082 232.267C87.8624 232.506 88.2597 232.789 88.6575 233.121C88.7979 233.238 89.0337 233.307 89.1952 233.405C89.3892 233.524 89.2643 233.719 89.4008 233.864C89.6393 234.116 90.1531 234.408 90.4762 234.544C90.5227 234.564 91.3932 234.848 91.2353 234.971C90.8646 235.259 88.5431 232.864 88.3729 232.694C87.0778 231.399 86.1603 229.843 84.8463 228.598C83.7727 227.581 82.4622 226.775 81.4936 225.64C80.1792 224.101 78.0711 222.748 76.2116 221.956C75.5637 221.68 74.9903 221.316 74.4404 220.88C73.9749 220.512 73.1852 220.156 72.8273 219.678C72.3382 219.026 71.968 218.538 71.3407 217.97C70.5133 217.222 69.5956 216.478 68.8104 215.693C67.8947 214.777 66.8493 214.042 65.9638 213.115C64.885 211.986 64.1673 210.437 62.8326 209.557C61.6788 208.797 60.7603 207.811 59.559 207.074C58.7122 206.555 57.715 206.398 56.8863 205.904C56.2071 205.499 55.4712 205.057 54.7198 204.797C53.364 204.328 52.0924 203.938 50.6871 203.722C48.8431 203.438 46.9449 203.548 45.073 203.548C43.529 203.548 42.0315 203.405 40.4868 203.405C38.485 203.405 35.9872 203.043 34.2243 204.259C33.4142 204.818 32.6574 205.451 31.8363 205.999C31.4395 206.263 30.7446 206.897 30.6976 207.391C30.5763 208.665 29.5676 209.714 29.0213 210.806C28.7447 211.36 28.7023 211.976 28.2464 212.483C28.0132 212.742 28.1357 213.344 28.1357 213.685C28.1357 214.944 27.6195 216.153 27.5664 217.401C27.5324 218.2 27.2817 218.953 27.2817 219.773C27.2817 220.316 27.2817 220.859 27.2817 221.402C27.2817 222.566 26.8547 223.561 26.8547 224.723C26.8547 225.183 27.2242 225.502 27.3133 225.957C27.4103 226.451 27.6394 226.893 27.851 227.317" stroke="white" stroke-width="5" stroke-linecap="round"/>
<path d="M81.9951 234.431C81.6407 234.431 81.4325 234.145 81.1579 233.983C80.9898 233.884 80.7916 233.587 80.6618 233.438C80.5876 233.353 80.4818 233.33 80.4204 233.235C80.3699 233.156 80.2986 233.082 80.2233 233.026C80.0185 232.875 79.7804 232.799 79.5765 232.645C79.3376 232.465 79.0984 232.266 78.8479 232.103C78.4151 231.821 78.0565 231.436 77.6496 231.113C77.4164 230.927 77.2297 230.673 77.014 230.47C76.7515 230.224 76.4809 229.855 76.1768 229.671C75.8225 229.456 75.5732 229.111 75.2355 228.867C74.8735 228.605 74.5285 228.274 74.2211 227.952C73.8958 227.612 73.4696 227.383 73.127 227.06C72.9498 226.892 72.7923 226.792 72.6464 226.601C72.522 226.438 72.3885 226.275 72.2588 226.116C71.9987 225.798 71.8041 225.421 71.5212 225.119C71.1923 224.769 70.9328 224.329 70.5622 224.025C70.3086 223.818 70.1291 223.499 69.9155 223.25C69.5487 222.822 69.1352 222.494 68.7062 222.134C68.5043 221.964 68.2839 221.757 68.1215 221.554C67.8549 221.219 67.3544 220.975 67.1691 220.581C67.0867 220.406 66.9103 220.189 66.7882 220.03C66.6471 219.846 66.505 219.662 66.343 219.5C66.1317 219.289 65.9136 219.036 65.6586 218.86C65.4954 218.748 65.3344 218.521 65.1514 218.444C64.9546 218.361 64.7833 218.078 64.6309 217.926C64.4779 217.773 64.415 217.607 64.2145 217.496C64.1411 217.455 64.1481 217.35 64.0772 217.297C63.9582 217.207 63.7916 217.233 63.6808 217.131C63.5641 217.023 63.4409 216.918 63.3197 216.809C63.1871 216.69 63.0345 216.593 62.8989 216.471C62.7573 216.343 62.5995 216.218 62.405 216.132C62.1569 216.021 61.9777 215.775 61.7384 215.644C61.6133 215.576 61.4603 215.432 61.3663 215.325C61.304 215.255 61.1359 215.188 61.1094 215.095C61.0807 214.995 60.9389 214.853 60.8569 214.767C60.7067 214.611 60.6252 214.497 60.3873 214.497" stroke="black" stroke-width="3" stroke-linecap="round"/>
<path d="M60.1074 213.78C60.0139 213.769 59.9843 213.599 59.9502 213.525C59.9019 213.42 59.8183 213.368 59.7398 213.292C59.4484 213.012 59.0388 212.838 58.6634 212.703C58.1566 212.521 57.6668 212.426 57.2459 212.083C57.0967 211.962 56.9541 211.82 56.7985 211.709C56.7123 211.647 56.4713 211.468 56.4419 211.365C56.407 211.243 56.2567 211.153 56.1518 211.091C56.0432 211.026 55.9724 210.919 55.8727 210.869C54.9165 210.391 53.8626 210.203 52.8428 209.915C52.4213 209.796 52.0245 209.73 51.6202 209.563C51.3579 209.454 51.1292 209.349 50.8805 209.219C50.706 209.129 50.5677 209.062 50.3755 209.004C50.1643 208.942 49.9504 208.771 49.7332 208.756C48.7621 208.689 47.7745 208.716 46.7963 208.716C46.3794 208.716 45.9205 208.768 45.5073 208.697C45.3856 208.676 45.2695 208.627 45.1485 208.606C44.7657 208.539 44.3099 208.597 43.9259 208.597C43.4138 208.597 42.9 208.585 42.3889 208.621C42.059 208.645 41.6861 208.649 41.3612 208.725C41.0776 208.792 40.7779 208.956 40.5063 209.062C40.1983 209.182 39.9147 209.393 39.6026 209.489C39.3919 209.555 39.2249 209.628 39.0268 209.735C38.4285 210.059 37.7789 210.257 37.2017 210.615C36.6636 210.948 36.338 211.515 35.9459 211.986C35.592 212.41 35.3342 212.986 35.1331 213.498C35.0398 213.736 34.8876 213.916 34.7699 214.138C34.6629 214.341 34.5533 214.577 34.3778 214.73C34.2056 214.879 34.0578 215.118 33.977 215.33C33.8429 215.681 33.6208 216.005 33.4853 216.362C33.3974 216.594 33.3428 216.905 33.2283 217.119C33.1186 217.325 33.1245 217.578 33.0379 217.797C32.8971 218.153 33.0493 218.582 32.9404 218.956C32.8191 219.371 32.8385 219.803 32.8385 220.231C32.8385 220.784 32.8385 221.336 32.8385 221.888C32.8385 222.776 32.709 223.674 32.8695 224.557C32.912 224.79 32.9347 225.05 33.0069 225.274C33.0832 225.512 33.2348 225.775 33.2726 226.021C33.2907 226.138 33.3104 226.259 33.3169 226.377C33.3213 226.456 33.418 226.549 33.4365 226.637C33.483 226.857 33.6359 227.037 33.6359 227.255" stroke="black" stroke-width="3" stroke-linecap="round"/>
<path d="M116 244.658C115.931 244.715 115.86 244.729 115.803 244.794C115.726 244.881 115.549 244.948 115.444 244.986C115.218 245.068 115.023 245.163 114.781 245.202C114.591 245.232 114.413 245.284 114.227 245.322C114.117 245.345 114.037 245.364 113.938 245.415C113.9 245.435 113.863 245.432 113.822 245.437C113.738 245.445 113.657 245.474 113.573 245.486C113.295 245.528 113.017 245.562 112.738 245.591C112.558 245.61 112.391 245.663 112.216 245.699C112.036 245.737 111.835 245.721 111.652 245.728C111.564 245.731 111.481 245.754 111.395 245.768C111.296 245.784 111.197 245.78 111.098 245.799C110.847 245.846 110.593 245.885 110.339 245.91C110.146 245.929 109.952 245.977 109.759 245.986C109.466 245.999 109.178 246.021 108.884 246.021C108.575 246.021 108.267 246.02 107.959 246.038C107.32 246.073 106.692 246.194 106.05 246.194C105.847 246.194 105.644 246.194 105.44 246.194C105.237 246.194 105.05 246.19 104.85 246.15C104.743 246.128 104.631 246.106 104.523 246.09C104.333 246.063 104.155 245.997 103.964 245.966C103.805 245.94 103.658 245.899 103.508 245.849" stroke="black" stroke-width="3" stroke-linecap="round"/>
<path d="M103.084 245.474C102.939 245.474 102.793 245.474 102.648 245.474C102.397 245.474 102.245 245.428 102.019 245.336C101.73 245.219 101.361 245.235 101.097 245.077C100.959 244.994 100.746 244.951 100.588 244.915C100.034 244.793 99.4616 244.768 98.909 244.654C98.3414 244.537 97.7533 244.372 97.197 244.202C96.9879 244.139 96.7292 244.133 96.5303 244.052C96.4021 243.999 96.306 243.937 96.1693 243.894C95.8756 243.803 95.5272 243.622 95.2657 243.458C94.6877 243.097 94.058 242.86 93.4584 242.554C93.1799 242.413 93.0213 242.154 92.7275 242.023C92.5937 241.963 92.4815 241.868 92.3465 241.806C92.2799 241.775 92.1367 241.747 92.0896 241.686C91.8409 241.367 91.2908 241.426 91.0043 241.168C90.7036 240.897 90.134 240.704 89.7552 240.588C89.5916 240.538 89.4852 240.451 89.3322 240.384C88.8907 240.19 88.4673 239.963 88.0786 239.675C87.9054 239.547 87.6894 239.479 87.5116 239.354C87.2965 239.203 87.0344 239.054 86.805 238.92C86.6393 238.823 86.4512 238.689 86.2979 238.574C86.1516 238.465 85.9808 238.393 85.8416 238.275C85.6945 238.151 85.5617 238.013 85.4053 237.899C85.2972 237.82 85.272 237.632 85.1417 237.584C84.8558 237.48 84.6646 237.232 84.4175 237.062C84.1894 236.904 83.9902 236.702 83.7575 236.552C83.6229 236.466 83.4092 236.365 83.3101 236.238C83.1961 236.091 83.1092 235.949 83 235.795C82.9367 235.706 82.6852 235.498 82.6722 235.387C82.6597 235.281 82.5242 235.193 82.464 235.108C82.3906 235.005 82.3345 234.829 82.1938 234.829" stroke="black" stroke-width="3" stroke-linecap="round"/>
<path d="M33.9588 227.493C33.9588 227.661 33.936 227.85 33.9654 228.015C34.0167 228.303 34.1515 228.573 34.2541 228.847C34.4274 229.309 34.3405 229.87 34.3405 230.354C34.3405 230.912 34.3405 231.469 34.3405 232.027C34.3405 232.295 34.3732 232.569 34.2818 232.823C34.2094 233.025 34.1624 233.236 34.1285 233.446C34.0558 233.897 33.6993 234.272 33.5054 234.668C33.3249 235.036 33.0141 235.396 32.7258 235.684C32.6045 235.805 32.4231 235.89 32.2773 235.981C32.0502 236.121 31.8047 236.248 31.5678 236.372C31.2062 236.562 30.6653 236.623 30.2597 236.623C30.0694 236.623 29.8791 236.622 29.6888 236.623C29.4571 236.625 29.2254 236.656 28.994 236.653C28.8306 236.651 28.6787 236.565 28.5275 236.513C28.1601 236.386 27.7549 236.278 27.3711 236.216C27.2897 236.202 27.1688 236.214 27.0955 236.17C27.0534 236.145 27.0431 236.088 27.0041 236.059C26.7772 235.89 26.5288 235.747 26.3011 235.58C26.1588 235.475 26.043 235.265 25.9293 235.126C25.8178 234.99 25.696 234.871 25.5753 234.744C25.4648 234.628 25.3627 234.571 25.2377 234.475C24.918 234.231 24.645 233.899 24.3586 233.613C23.639 232.893 23.0555 232.062 22.3328 231.339" stroke="black" stroke-width="3" stroke-linecap="round"/>
<path d="M21.7334 230.798C21.7176 230.671 21.5896 230.589 21.575 230.458C21.5484 230.218 21.4885 229.875 21.3526 229.676C21.2332 229.5 21.1723 229.25 21.1056 229.049C21.0378 228.846 20.9064 228.648 20.8222 228.448C20.7572 228.293 20.7186 228.125 20.6347 227.978C20.4379 227.634 20.3075 227.259 20.0708 226.932C19.8501 226.627 19.7462 226.212 19.6901 225.848C19.6571 225.634 19.5883 225.406 19.5302 225.197C19.5148 225.141 19.4508 225.102 19.4372 225.037C19.4197 224.953 19.4052 224.851 19.4052 224.765C19.4052 224.486 19.2475 224.235 19.225 223.96C19.1889 223.518 19.0535 223.066 18.946 222.636C18.8708 222.335 18.9082 222.001 18.9082 221.694C18.9082 221.397 18.8714 221.074 18.9504 220.785C19.0324 220.484 19.0128 220.183 19.0128 219.873C19.0128 219.614 18.9659 219.307 19.0593 219.064C19.1038 218.948 19.196 218.811 19.196 218.686" stroke="black" stroke-width="3" stroke-linecap="round"/>
<path d="M19.012 217.692C19.094 217.61 19.133 217.501 19.1893 217.404C19.2713 217.263 19.331 217.096 19.3841 216.939C19.499 216.599 19.6834 216.281 19.7445 215.925C19.78 215.718 19.7989 215.52 19.8607 215.317C19.8963 215.201 19.958 215.096 19.9857 214.977C20.0129 214.861 20.0325 214.741 20.0715 214.628C20.104 214.534 20.1216 214.436 20.1543 214.342C20.2072 214.19 20.2985 214.056 20.3461 213.902C20.4328 213.622 20.4805 213.331 20.5932 213.06C20.6611 212.897 20.7079 212.71 20.753 212.539C20.7947 212.381 20.8273 212.245 20.91 212.103C21.0596 211.845 21.1443 211.566 21.2617 211.295C21.3345 211.126 21.4104 210.993 21.4579 210.814C21.5051 210.635 21.6228 210.49 21.6817 210.314C21.7472 210.117 21.853 209.942 21.9302 209.751C22.0007 209.577 22.0629 209.405 22.154 209.24C22.2428 209.078 22.3046 208.905 22.4185 208.76C22.5101 208.643 22.6021 208.505 22.6757 208.376C22.7667 208.217 22.8837 208.09 23.0318 207.981C23.1881 207.866 23.3208 207.726 23.4838 207.621C23.6177 207.534 23.739 207.398 23.8369 207.275C24.0629 206.989 24.3788 206.784 24.6057 206.497C24.874 206.158 25.12 205.767 25.4326 205.476C25.6333 205.288 25.8474 205.102 26.0488 204.9" stroke="black" stroke-width="3" stroke-linecap="round"/>
<path d="M26.5461 204.298C26.5525 204.343 26.6507 204.241 26.6653 204.233C26.713 204.208 26.728 204.182 26.7612 204.141C26.8091 204.083 26.8908 204.076 26.953 204.037C27.0344 203.986 27.0931 203.917 27.1623 203.852C27.3316 203.693 27.5299 203.571 27.7087 203.421C27.8775 203.279 28.0237 203.111 28.1883 202.964C28.2884 202.875 28.3979 202.807 28.5051 202.727C28.6067 202.652 28.6621 202.551 28.7493 202.464C28.962 202.252 29.1893 202.053 29.4062 201.845C29.4985 201.757 29.561 201.644 29.6532 201.558C29.777 201.441 29.9813 201.366 30.1284 201.277C30.4002 201.112 30.6692 200.931 30.9379 200.758C31.0876 200.662 31.2442 200.576 31.3928 200.479C31.485 200.419 31.5352 200.336 31.6152 200.268C31.7291 200.172 31.9083 200.129 32.0395 200.059C32.2 199.974 32.3496 199.882 32.5176 199.812C32.5833 199.785 32.611 199.731 32.6673 199.7C32.7258 199.668 32.7922 199.652 32.8534 199.613C32.9862 199.529 33.1448 199.441 33.2864 199.375C33.6266 199.216 33.9605 199.112 34.3255 199.04C35.178 198.873 36.0256 198.638 36.8499 198.401C37.2999 198.272 37.7302 198.077 38.184 197.956C38.506 197.87 38.824 197.769 39.1417 197.67C39.4122 197.586 39.7187 197.566 39.9788 197.459C40.2592 197.344 40.5315 197.29 40.829 197.235C41.1979 197.168 41.5906 197.203 41.9567 197.119C42.3145 197.037 42.655 197 43.0264 197" stroke="black" stroke-width="3" stroke-linecap="round"/>
<path d="M43.5193 197.007C43.6935 197.007 43.8677 197.007 44.0419 197.007C44.3308 197.007 44.5898 197.11 44.8792 197.117C45.0222 197.121 45.1846 197.162 45.3284 197.184C45.6426 197.233 45.9561 197.236 46.2712 197.268C46.3569 197.277 46.444 197.308 46.5294 197.31C46.917 197.319 47.3391 197.304 47.7182 197.398C48.0128 197.472 48.3315 197.449 48.6197 197.53C48.9439 197.621 49.2905 197.675 49.6251 197.716C49.96 197.757 50.3016 197.777 50.6397 197.777C50.7958 197.777 50.9564 197.766 51.1119 197.78C51.2488 197.793 51.3717 197.852 51.5107 197.866C52.1606 197.933 52.7448 198.225 53.3687 198.398C53.6149 198.466 53.8768 198.498 54.119 198.576C54.2451 198.617 54.3622 198.684 54.4872 198.728C54.6227 198.775 54.745 198.791 54.8738 198.861C54.9934 198.925 55.1004 198.982 55.2298 199.029C55.4025 199.091 55.5748 199.214 55.7249 199.317C55.896 199.435 56.0835 199.53 56.2597 199.641C56.4921 199.788 56.7594 199.89 57.0222 199.965C57.2995 200.045 57.5261 200.219 57.7923 200.308C57.9856 200.372 58.1619 200.505 58.353 200.583C58.5694 200.671 58.7795 200.82 58.978 200.942C59.2113 201.085 59.449 201.225 59.6916 201.353C59.7879 201.403 59.9178 201.463 59.991 201.547C60.0794 201.648 60.2152 201.771 60.3486 201.833C60.584 201.94 60.753 202.172 60.9858 202.288C61.1566 202.373 61.2806 202.494 61.435 202.601C61.7261 202.803 62.0632 202.942 62.3594 203.139C62.4628 203.208 62.624 203.227 62.717 203.307C62.7902 203.37 62.8754 203.395 62.9584 203.443C63.0388 203.49 63.089 203.557 63.1738 203.597C63.4001 203.706 63.6446 203.823 63.8446 203.966C64.0578 204.118 64.3755 204.224 64.5322 204.433" stroke="black" stroke-width="3" stroke-linecap="round"/>
<path d="M109.674 237.501C109.573 237.593 109.455 237.648 109.332 237.707C109.198 237.772 108.988 237.729 108.843 237.729C107.956 237.729 107.06 237.745 106.177 237.643C105.832 237.602 105.479 237.517 105.141 237.437C104.809 237.359 104.462 237.248 104.122 237.231C103.788 237.214 103.459 237.15 103.139 237.052C102.716 236.922 102.293 236.862 101.863 236.768C101.305 236.646 100.746 236.473 100.197 236.317C100.065 236.279 99.9598 236.203 99.8366 236.151C99.7341 236.107 99.6296 236.072 99.5296 236.021C99.339 235.925 99.1568 235.818 98.9527 235.749C98.8315 235.708 98.7069 235.679 98.5858 235.636C98.5156 235.611 98.4617 235.574 98.3851 235.569C98.3196 235.565 98.3197 235.529 98.2674 235.5C98.1952 235.459 98.1062 235.466 98.0343 235.419C97.9261 235.349 97.7987 235.311 97.6859 235.241C97.5687 235.169 97.4261 235.12 97.3005 235.066C97.1856 235.017 97.0751 234.925 96.9636 234.863" stroke="black" stroke-width="3" stroke-linecap="round"/>
<path d="M96.1953 234.178C96.0643 233.986 95.7884 233.915 95.608 233.785C95.4689 233.685 95.3197 233.612 95.1869 233.497C94.8412 233.199 94.4273 233.005 94.04 232.765C93.7979 232.616 93.5576 232.492 93.3385 232.309C93.1484 232.149 92.9549 231.966 92.7478 231.831C92.5219 231.684 92.3173 231.499 92.1051 231.332C91.9093 231.179 91.6838 231.067 91.5017 230.895C91.3398 230.742 91.163 230.625 90.9917 230.486C90.7684 230.304 90.6176 230.047 90.3802 229.877C90.0546 229.645 89.765 229.357 89.4421 229.119C89.2815 229.001 89.1426 228.871 88.9979 228.734C88.9687 228.706 88.8961 228.688 88.886 228.643C88.8797 228.615 88.8217 228.547 88.7926 228.533C88.7642 228.52 88.7473 228.538 88.7349 228.503C88.7244 228.474 88.7233 228.458 88.6979 228.446" stroke="black" stroke-width="3" stroke-linecap="round"/>
<path d="M88.2002 228.093C88.1899 228 88.0719 227.944 88.0133 227.885C87.9576 227.829 87.9081 227.771 87.8587 227.71C87.7165 227.533 87.5513 227.388 87.3902 227.23C87.1671 227.01 86.923 226.834 86.7349 226.587C86.5324 226.32 86.2674 226.104 86.0172 225.884C85.9473 225.823 85.9165 225.76 85.8707 225.68C85.7679 225.5 85.6352 225.328 85.5188 225.156C85.3813 224.953 85.1806 224.799 85.0342 224.603C84.964 224.51 84.8615 224.457 84.7746 224.383C84.6727 224.296 84.5718 224.192 84.4804 224.094C84.3163 223.917 84.1586 223.731 83.9785 223.571C83.8453 223.452 83.7047 223.361 83.5839 223.23C83.3211 222.946 82.933 222.817 82.7289 222.471C82.6085 222.268 82.5186 222.054 82.3781 221.863C82.2944 221.749 82.2236 221.613 82.1566 221.488C81.9727 221.147 81.7657 220.832 81.5209 220.532C81.3709 220.348 81.1929 220.188 81.0051 220.046C80.9016 219.968 80.7204 219.848 80.6647 219.725C80.603 219.589 80.4578 219.524 80.3913 219.391" stroke="black" stroke-width="3" stroke-linecap="round"/>
<path d="M80.5566 219.245C80.4933 219.242 80.4966 219.206 80.469 219.158C80.4085 219.051 80.3516 218.98 80.2555 218.903C80.1005 218.777 79.9044 218.672 79.7674 218.529C79.6611 218.418 79.5313 218.326 79.4375 218.205C79.3089 218.038 79.1617 217.891 79.0175 217.738C78.8508 217.562 78.6582 217.454 78.519 217.249C78.4127 217.093 78.3048 216.933 78.1706 216.799C77.9185 216.547 77.6992 216.278 77.4668 216.008C77.1391 215.627 76.7598 215.296 76.433 214.914C76.3249 214.788 76.1941 214.693 76.0776 214.577C75.9322 214.432 75.8993 214.272 75.8122 214.095C75.7257 213.918 75.6418 213.703 75.5099 213.555C75.436 213.472 75.3808 213.37 75.2884 213.303C75.1993 213.239 75.1363 213.153 75.0415 213.098C74.9413 213.04 74.8378 212.972 74.7392 212.909C74.6037 212.822 74.4942 212.698 74.3446 212.641C74.2809 212.616 74.2195 212.551 74.1692 212.506C73.9335 212.293 73.6605 212.118 73.425 211.905C73.2997 211.791 73.1228 211.72 73.0177 211.586C72.9415 211.489 72.8138 211.371 72.7154 211.296C72.609 211.213 72.5199 211.12 72.4108 211.042C72.3574 211.003 72.2857 210.972 72.2493 210.917" stroke="black" stroke-width="3" stroke-linecap="round"/>
<path d="M72 210.959C71.9015 210.937 71.7598 210.764 71.6839 210.705C71.5711 210.617 71.4661 210.526 71.355 210.437C71.2321 210.339 71.1309 210.219 71.0066 210.119C70.8495 209.992 70.7359 209.822 70.6178 209.661C70.4131 209.382 70.1822 209.096 69.9162 208.874C69.5823 208.594 69.2606 208.301 68.9044 208.05C68.7727 207.957 68.6711 207.833 68.5455 207.733C68.439 207.647 68.3257 207.557 68.2294 207.46C68.1408 207.372 68.0531 207.269 67.9709 207.174C67.8749 207.063 67.7657 206.969 67.6686 206.86C67.3348 206.487 66.8085 206.261 66.3718 206.037C66.1272 205.911 65.9546 205.691 65.7083 205.56C65.5907 205.497 65.4983 205.421 65.3853 205.351C65.3094 205.305 65.2727 205.227 65.188 205.194C65.1062 205.163 64.98 205.081 64.918 205.019C64.7941 204.895 64.5973 204.878 64.4611 204.749C64.4011 204.692 64.3386 204.623 64.2696 204.578C64.2053 204.537 64.203 204.503 64.1611 204.458C64.1171 204.412 64.0773 204.368 64.025 204.334" stroke="black" stroke-width="3" stroke-linecap="round"/>
<path d="M92.5 180C92.5 229.057 127.591 268.5 170.5 268.5C213.409 268.5 248.5 229.057 248.5 180C248.5 130.943 213.409 91.5 170.5 91.5C127.591 91.5 92.5 130.943 92.5 180Z" fill="white" stroke="black" stroke-width="3"/>
<path d="M235.218 43.3702L234.91 18.3927L197.319 21.7928L235.218 43.3702Z" fill="white" stroke="black" stroke-width="3"/>
<path d="M148.271 19.2938L110.777 15.5257L109.903 40.4875L148.271 19.2938Z" fill="white" stroke="black" stroke-width="3"/>
<path d="M97.5 73.3995C97.5 88.7427 105.594 102.735 118.881 112.94C132.169 123.145 150.591 129.5 171 129.5C191.409 129.5 209.831 123.145 223.119 112.94C236.406 102.735 244.5 88.7427 244.5 73.3995C244.5 58.0563 236.406 44.0637 223.119 33.8594C209.831 23.6539 191.409 17.299 171 17.299C150.591 17.299 132.169 23.6539 118.881 33.8594C105.594 44.0637 97.5 58.0563 97.5 73.3995Z" fill="white" stroke="black" stroke-width="3"/>
<path d="M171.5 270C171.5 272.637 173.149 275.225 176.235 277.227C179.306 279.219 183.638 280.5 188.5 280.5C193.362 280.5 197.694 279.219 200.765 277.227C203.851 275.225 205.5 272.637 205.5 270C205.5 267.363 203.851 264.775 200.765 262.773C197.694 260.781 193.362 259.5 188.5 259.5C183.638 259.5 179.306 260.781 176.235 262.773C173.149 264.775 171.5 267.363 171.5 270Z" fill="white" stroke="black" stroke-width="3"/>
<line y1="-1.5" x2="44.248" y2="-1.5" transform="matrix(-0.1017 -0.994815 -0.994815 0.1017 173 264.019)" stroke="black" stroke-width="3"/>
<line y1="-1.5" x2="39.4867" y2="-1.5" transform="matrix(0.192435 -0.98131 -0.98131 -0.192435 197.401 260.749)" stroke="black" stroke-width="3"/>
<path d="M134.5 270C134.5 272.637 136.149 275.225 139.235 277.227C142.306 279.219 146.638 280.5 151.5 280.5C156.362 280.5 160.694 279.219 163.765 277.227C166.851 275.225 168.5 272.637 168.5 270C168.5 267.363 166.851 264.775 163.765 262.773C160.694 260.781 156.362 259.5 151.5 259.5C146.638 259.5 142.306 260.781 139.235 262.773C136.149 264.775 134.5 267.363 134.5 270Z" fill="white" stroke="black" stroke-width="3"/>
<line y1="-1.5" x2="44.248" y2="-1.5" transform="matrix(-0.104528 0.994522 0.994522 0.104528 171 220)" stroke="black" stroke-width="3"/>
<line y1="-1.5" x2="39.4867" y2="-1.5" transform="matrix(0.190809 0.981627 0.981627 -0.190809 135.466 222)" stroke="black" stroke-width="3"/>
<path d="M198.804 71.302C198.804 71.2369 198.774 71.1794 198.727 71.1318C198.669 71.0748 198.61 70.9874 198.577 70.912C198.537 70.8233 198.442 70.7447 198.406 70.6489C198.365 70.5403 198.247 70.436 198.18 70.3409C198.114 70.2474 198.094 70.095 198.01 70.0226C197.933 69.9577 197.842 69.8125 197.795 69.724C197.759 69.6561 197.704 69.5988 197.672 69.5294C197.657 69.495 197.624 69.4652 197.613 69.4294C197.585 69.3357 197.547 69.2435 197.516 69.1497C197.497 69.0901 197.486 69.0324 197.46 68.9748C197.411 68.8682 197.365 68.7601 197.323 68.6502C197.279 68.5327 197.258 68.4072 197.212 68.2909C197.197 68.2528 197.169 68.2228 197.15 68.1869C197.094 68.0795 197.044 67.9701 196.989 67.8624C196.897 67.6845 196.854 67.4617 196.727 67.2999C196.597 67.1353 196.583 66.919 196.514 66.724C196.493 66.663 196.479 66.5969 196.464 66.5341C196.443 66.4461 196.383 66.3769 196.365 66.2899C196.352 66.2298 196.336 66.1878 196.336 66.126" stroke="black" stroke-linecap="round"/>
<path d="M199.072 71.1283C198.967 71.0694 199.098 70.9797 199.142 70.932C199.22 70.8474 199.309 70.8356 199.353 70.7093C199.413 70.5349 199.496 70.356 199.583 70.1937C199.607 70.1483 199.65 70.0748 199.688 70.0424C199.734 70.004 199.734 69.9347 199.783 69.8997C199.817 69.8749 199.835 69.8106 199.86 69.7747C199.893 69.7285 199.923 69.6838 199.959 69.6387C200.025 69.5566 200.102 69.495 200.178 69.4193C200.214 69.3826 200.286 69.2825 200.295 69.2317C200.304 69.1763 200.373 69.1163 200.414 69.0748C200.571 68.9183 200.579 68.6841 200.73 68.5329C200.793 68.4699 200.839 68.398 200.907 68.3355C200.94 68.3054 200.989 68.3108 201.002 68.2653C201.023 68.1986 201.065 68.137 201.103 68.0788C201.22 67.904 201.358 67.7267 201.446 67.5413C201.482 67.4645 201.542 67.4158 201.589 67.3471C201.625 67.295 201.634 67.2429 201.66 67.187C201.714 67.0679 201.838 67.0099 201.88 66.8787C201.907 66.7942 201.994 66.688 201.994 66.6067C201.994 66.5477 202.034 66.5024 202.034 66.4377C202.034 66.3759 202.058 66.3417 202.077 66.2864C202.107 66.2011 202.091 66.1175 202.162 66.0461C202.252 65.9556 202.29 65.8244 202.345 65.7072C202.37 65.6541 202.365 65.6114 202.37 65.5558C202.383 65.4215 202.446 65.2954 202.477 65.1653C202.493 65.0993 202.49 65.0157 202.512 64.9524C202.525 64.9132 202.578 64.888 202.586 64.8493C202.595 64.8084 202.632 64.7742 202.654 64.7396C202.677 64.7045 202.675 64.6576 202.695 64.6223C202.742 64.5381 202.744 64.458 202.744 64.3645C202.744 64.2875 202.746 64.2112 202.795 64.1484C202.856 64.0699 202.823 63.9115 202.823 63.816C202.823 63.6359 202.84 63.4488 202.823 63.2697C202.812 63.1465 202.756 63.0223 202.746 62.8945C202.738 62.7993 202.721 62.711 202.725 62.6137C202.727 62.5393 202.744 62.4678 202.744 62.391C202.744 62.3138 202.784 62.255 202.784 62.1837" stroke="black" stroke-linecap="round"/>
<path d="M196.371 65.9102C196.371 65.0388 196.293 64.1763 196.293 63.3111C196.293 63.0832 196.281 62.8514 196.293 62.6238C196.304 62.4246 196.33 62.1248 196.429 61.9472C196.533 61.7597 196.441 61.5555 196.6 61.3694C196.665 61.2936 196.614 61.189 196.697 61.1181C196.749 61.074 196.785 60.8837 196.826 60.8066C196.915 60.6382 197.105 60.3891 197.105 60.188C197.105 59.9768 197.21 59.797 197.221 59.5866C197.231 59.404 197.339 59.3299 197.453 59.2043C197.802 58.8204 198.143 58.4148 198.39 57.9456C198.532 57.6757 198.758 57.4373 198.914 57.1723C198.973 57.0713 199.073 57.0394 199.107 56.9188C199.148 56.7746 199.252 56.6657 199.365 56.573C199.518 56.4478 199.587 56.2247 199.715 56.0682C199.881 55.8657 200.015 55.6929 200.198 55.5098" stroke="black" stroke-linecap="round"/>
<path d="M202.75 62.1598C202.75 61.6835 202.919 61.0584 202.75 60.5961C202.676 60.3905 202.53 60.1818 202.519 59.956C202.516 59.9014 202.466 59.8799 202.45 59.8315C202.427 59.7628 202.452 59.6926 202.422 59.6253C202.364 59.4977 202.379 59.3612 202.334 59.2343C202.235 58.9572 202.19 58.6717 201.997 58.4353C201.916 58.337 201.852 58.2699 201.793 58.1389C201.737 58.0165 201.615 57.83 201.591 57.7071C201.548 57.4925 201.43 57.3306 201.316 57.1465C201.079 56.7654 200.913 56.3393 200.671 55.9651C200.644 55.9236 200.676 55.8637 200.654 55.8191C200.628 55.7675 200.559 55.7625 200.53 55.7031C200.489 55.6225 200.468 55.5605 200.392 55.5098" stroke="black" stroke-linecap="round"/>
<path d="M199.851 66.1422C199.851 66.2733 199.751 66.3367 199.735 66.4515C199.711 66.6134 199.699 66.7414 199.636 66.9004C199.583 67.0338 199.433 67.2325 199.425 67.3794C199.416 67.5515 199.342 67.797 199.249 67.9421C199.154 68.0913 199.162 68.3928 199.125 68.5693C199.088 68.7465 199.077 68.896 199.077 69.0805" stroke="black" stroke-width="3" stroke-linecap="round"/>
<path d="M199.889 59.9947C199.889 59.8481 199.867 59.7582 199.996 59.6639C200.095 59.592 200.175 59.4689 200.218 59.3568C200.301 59.1407 200.153 58.8524 200.276 58.6501C200.405 58.4367 200.392 58.1688 200.392 57.9262C200.392 57.8253 200.392 57.7243 200.392 57.6234C200.392 57.3729 200.453 58.1624 200.314 58.3709" stroke="black" stroke-width="3" stroke-linecap="round"/>
<path d="M200.431 66.5674C200.565 66.5526 200.664 66.3437 200.757 66.256C200.97 66.0557 200.936 65.8742 201.011 65.6223C201.106 65.3021 201.127 64.9247 201.127 64.5935C201.127 64.2636 201.246 63.9592 201.279 63.6312C201.364 62.7838 201.281 61.8943 201.281 61.0408C201.281 60.7436 201.246 60.4267 201.135 60.1494C201.083 60.0181 201.127 59.787 201.127 59.6467" stroke="black" stroke-width="3" stroke-linecap="round"/>
<path d="M198.226 66.3355C198.18 66.3296 198.122 65.6847 198.112 65.6116C198.093 65.4526 198.134 65.9352 198.188 66.0863C198.224 66.1888 198.325 66.2389 198.34 66.3526C198.354 66.4592 198.342 66.5738 198.342 66.6813C198.342 66.8366 198.342 66.992 198.342 67.1474C198.342 67.2098 198.342 67.2203 198.342 67.1474C198.342 66.9584 198.342 66.7693 198.342 66.5803C198.342 66.4233 198.333 66.2733 198.372 66.1207C198.392 66.0459 198.454 65.9889 198.458 65.9102C198.489 65.3175 198.482 64.6667 198.619 64.078C198.656 63.9226 198.687 63.7338 198.772 63.5947C198.799 63.5504 198.765 63.8277 198.759 63.8524C198.667 64.2298 198.652 64.5914 198.652 64.978C198.652 65.3792 198.622 65.782 198.572 66.1787C198.55 66.3546 198.536 66.5191 198.536 66.7006C198.536 66.8469 198.757 67.3186 198.682 66.9369C198.649 66.7693 198.535 66.6294 198.501 66.4686C198.465 66.2979 198.497 66.0908 198.497 65.9166C198.497 65.6889 198.497 65.4612 198.497 65.2336C198.497 64.9867 198.381 64.7801 198.381 64.5355C198.381 64.3578 198.42 64.1882 198.42 64.0157" stroke="black" stroke-width="3" stroke-linecap="round"/>
<path d="M198.188 64.7889C197.979 64.7889 198.064 64.3246 198.081 64.1789C198.108 63.9406 198.244 63.7567 198.317 63.5367C198.371 63.3754 198.403 63.1447 198.418 62.9761C198.453 62.5878 198.554 62.1979 198.635 61.8119C198.675 61.62 198.768 61.425 198.768 61.2298C198.768 60.9987 198.803 60.7606 198.863 60.5381C198.903 60.3878 198.962 60.1648 198.962 60.014C198.962 59.8806 199.138 59.7116 199.155 59.5694C199.159 59.5354 199.264 59.4021 199.292 59.3782C199.38 59.3029 199.351 59.4876 199.346 59.5329C199.322 59.7731 199.271 59.9804 199.271 60.2267" stroke="black" stroke-width="3" stroke-linecap="round"/>
<path d="M198.961 61.6572C198.873 61.6767 198.659 62.1506 198.652 62.2458C198.626 62.562 198.454 62.8563 198.42 63.1651C198.406 63.2886 198.352 63.5515 198.274 63.6376C198.138 63.787 198.184 63.6225 198.188 63.4744C198.193 63.2835 198.305 63.0149 198.42 62.8644C198.539 62.7076 198.499 62.4915 198.574 62.3059C198.607 62.2245 198.686 61.8848 198.506 62.0052C198.271 62.1614 198.2 62.4861 198.149 62.7398" stroke="black" stroke-width="3" stroke-linecap="round"/>
<path d="M184.989 71.2091C185.216 71.2091 185.268 71.2598 185.42 71.4118C185.516 71.5074 185.638 71.6272 185.745 71.7084C185.843 71.7831 186 71.7965 186.084 71.8681C186.307 72.0576 186.585 72.0275 186.835 72.1418C187.122 72.2732 187.456 72.3387 187.767 72.3953C187.926 72.424 188.054 72.5215 188.219 72.5321C188.34 72.54 188.502 72.5565 188.616 72.6006C189.113 72.7915 189.627 72.89 190.127 73.0568C190.897 73.3133 191.672 73.4902 192.472 73.4902C193.132 73.4902 193.754 73.5814 194.418 73.5814C195.29 73.5814 196.118 73.6581 196.983 73.7158C197.744 73.7665 198.505 73.7639 199.269 73.7639C199.592 73.7639 199.915 73.7639 200.237 73.7639C200.697 73.7639 201.087 73.5408 201.53 73.4902C201.976 73.4392 202.41 73.2012 202.858 73.1227C203.423 73.0236 203.944 72.7545 204.44 72.4789C204.966 72.1867 205.496 71.871 205.966 71.4929C206.172 71.3265 206.357 71.067 206.541 70.8694C207.003 70.373 207.486 69.9042 208.003 69.4653C208.301 69.2125 208.433 68.8806 208.678 68.5883C208.877 68.3508 209.023 68.0873 209.149 67.8051C209.255 67.5682 209.418 67.4001 209.57 67.1943C209.897 66.7498 210.148 66.2719 210.437 65.8003C210.587 65.555 210.731 65.3281 210.9 65.0957C210.972 64.9968 211.04 64.8312 211.04 64.7054C211.04 64.1037 211.457 63.5617 211.613 62.9971C211.699 62.6827 211.76 62.361 211.846 62.0491C211.879 61.9291 211.953 61.6557 212.028 61.5523C212.383 61.0682 212.673 60.6626 212.89 60.0874C213.034 59.7062 213.152 59.2893 213.275 58.9012C213.327 58.7391 213.395 58.6299 213.435 58.4602C213.47 58.3125 213.513 58.1673 213.549 58.0217C213.641 57.6522 213.807 57.3623 213.975 57.0256C214.098 56.7799 214.148 56.5019 214.233 56.2449" stroke="black" stroke-width="3" stroke-linecap="round"/>
<path d="M185.437 70.0947C185.437 69.8971 185.401 69.655 185.445 69.4628C185.524 69.1167 185.695 68.8206 185.801 68.4828C185.903 68.1565 185.976 67.8447 186.089 67.523C186.277 66.9891 186.397 66.4321 186.58 65.8931C186.602 65.8281 186.619 65.7612 186.64 65.6959C186.693 65.533 186.842 65.4321 186.9 65.2733C187.05 64.8567 187.095 64.3775 187.167 63.9412C187.229 63.5689 187.497 63.1432 187.668 62.8123C187.927 62.3116 188.223 61.8321 188.479 61.3293C188.8 60.6987 189.17 60.0658 189.576 59.4881C189.709 59.2987 189.796 59.0845 189.924 58.8924C189.98 58.8092 190.062 58.7805 190.133 58.7134C190.574 58.3016 191.062 57.9073 191.59 57.6187C191.955 57.4195 192.322 57.1853 192.643 56.9245C192.722 56.8601 192.729 56.7925 192.828 56.7434C192.936 56.6892 193.067 56.6326 193.168 56.5683C193.992 56.0436 194.81 55.5147 195.522 54.8418C195.831 54.5505 196.042 54.4091 196.432 54.2643C196.883 54.0964 197.311 53.9825 197.776 53.8598C197.891 53.8295 197.987 53.7312 198.106 53.723C198.24 53.7137 198.367 53.6896 198.5 53.6686C199.113 53.572 199.728 53.4941 200.34 53.397C200.789 53.3256 201.233 53.2095 201.686 53.1636C201.953 53.1365 202.226 53.1174 202.495 53.1092C202.835 53.0989 203.148 53.0052 203.483 52.9704C204.122 52.9041 204.87 52.8399 205.503 52.9623C205.729 53.006 205.946 53.0839 206.171 53.1273C206.394 53.1706 206.61 53.1674 206.833 53.232C207.372 53.388 207.955 53.4123 208.485 53.5942C208.79 53.6987 209.051 53.7959 209.375 53.8497C209.775 53.9165 210.239 53.9775 210.61 54.1496C210.742 54.2108 210.867 54.2176 211.008 54.2381C211.334 54.2851 211.641 54.4166 211.968 54.4675C212.236 54.5092 212.473 54.5923 212.747 54.5923" stroke="black" stroke-width="3" stroke-linecap="round"/>
<path d="M212.373 54.3511C212.869 54.3511 213.324 54.5695 213.755 54.7852C213.937 54.8761 214.189 54.832 214.39 54.832C214.649 54.832 214.773 55.0724 215.018 55.0724" stroke="black" stroke-width="3" stroke-linecap="round"/>
<path d="M158.897 71.1073C158.878 71.2978 158.811 71.5108 158.626 71.6037C158.22 71.8066 157.862 72.0981 157.38 72.1583C157.275 72.1715 157.179 72.2375 157.076 72.2641C156.842 72.3248 156.605 72.3676 156.372 72.4367C156.096 72.519 155.813 72.5818 155.55 72.7022C155.222 72.8528 154.856 72.9473 154.516 73.0799C154.354 73.1434 154.168 73.1358 153.999 73.1748C153.572 73.2728 153.156 73.4155 152.725 73.4985C152.128 73.6136 151.496 73.5678 150.906 73.6906C150.741 73.7249 150.595 73.8579 150.429 73.8654C149.812 73.8935 149.233 74.0985 148.608 74.0985C147.317 74.0985 146.026 74.0985 144.736 74.0985C144.401 74.0985 144.064 74.1102 143.73 74.0985C143.562 74.0926 143.405 74.019 143.242 73.9819C142.795 73.88 142.354 73.8147 141.926 73.641C141.591 73.5049 141.269 73.3463 140.933 73.205C140.693 73.1039 140.438 73.036 140.2 72.9331C140.075 72.8794 139.989 72.7781 139.854 72.7302C138.88 72.3849 137.981 71.8641 137.118 71.2972C136.624 70.9731 136.092 70.5576 135.799 70.0391C135.734 69.9242 135.621 69.8444 135.551 69.7304C135.437 69.546 135.339 69.3701 135.21 69.1952C135.116 69.0677 135.078 68.9201 134.996 68.7873C134.863 68.5706 134.684 68.3852 134.545 68.1723C134.003 67.339 133.554 66.4406 133.134 65.5394C133.046 65.3505 132.943 65.1215 132.827 64.9481C132.646 64.6764 132.534 64.363 132.346 64.0956C132.279 64 132.244 63.9066 132.21 63.7956C132.156 63.6196 132.046 63.4832 131.973 63.3165C131.889 63.1255 131.775 62.937 131.666 62.7554" stroke="black" stroke-width="3" stroke-linecap="round"/>
<path d="M131.511 62.25C131.435 61.9934 131.32 61.769 131.307 61.4923C131.297 61.2723 131.255 61.0418 131.169 60.8388C131.063 60.5894 131.019 60.3225 130.95 60.0615C130.854 59.6945 130.749 59.3304 130.66 58.9615C130.545 58.486 130.448 58.0138 130.323 57.5421C130.257 57.2928 130.165 57.0387 130.041 56.8136C129.998 56.736 129.912 56.6051 129.899 56.5187C129.884 56.4227 129.839 56.3079 129.839 56.2074" stroke="black" stroke-width="3" stroke-linecap="round"/>
<path d="M159.021 71.2431C159.021 70.5842 158.807 70.0266 158.55 69.4178C158.46 69.2059 158.443 68.9952 158.407 68.7695C158.375 68.5676 158.254 68.4216 158.163 68.2464C158.101 68.127 158.075 67.9025 157.975 67.8171C157.866 67.7238 157.915 67.5205 157.833 67.4162C157.532 67.0329 157.397 66.6437 157.23 66.1765C157 65.5311 156.59 64.9542 156.36 64.3114C156.007 63.3226 155.559 62.4006 155.149 61.4341C154.976 61.0251 154.859 60.6221 154.643 60.2286C154.436 59.8516 154.228 59.5152 153.995 59.1538C153.766 58.7989 153.484 58.4544 153.227 58.1189C153.103 57.9562 152.984 57.7821 152.852 57.6271C152.642 57.38 152.394 57.1711 152.186 56.9248C151.822 56.493 151.412 56.1141 150.896 55.8387C150.685 55.7263 150.461 55.6282 150.273 55.4776C150.105 55.3433 149.931 55.3298 149.758 55.2132C149.375 54.9544 148.96 54.801 148.564 54.5706C148.322 54.4297 148.028 54.3782 147.791 54.2294C147.428 54.0017 146.998 53.8625 146.574 53.7404C146.089 53.6007 145.621 53.3071 145.101 53.2798C144.17 53.2308 143.229 53.1474 142.298 53.1263C142.032 53.1202 141.764 53.0315 141.496 53.0239C140.862 53.0061 140.234 52.9727 139.597 52.9727C139.151 52.9727 138.705 52.9216 138.255 52.9216C137.685 52.9216 137.183 53.2465 136.617 53.2798C136.222 53.3031 135.779 53.5251 135.389 53.6125C135.128 53.671 134.868 53.8335 134.598 53.8428C134.393 53.8499 134.174 53.8797 133.973 53.9224C133.787 53.9618 133.543 54.0863 133.37 54.0987C133.014 54.1241 132.73 54.215 132.395 54.3489C132.252 54.4059 132.102 54.5 131.949 54.5081C131.534 54.5299 131.193 55.0901 130.76 55.1222C130.569 55.1364 130.316 55.3171 130.22 55.4804C130.123 55.646 129.952 55.7204 129.85 55.8899" stroke="black" stroke-width="3" stroke-linecap="round"/>
<path d="M145.254 71.5654C145.254 71.4855 145.182 71.3958 145.152 71.3227C145.097 71.1887 145.038 71.0468 144.938 70.9417C144.831 70.8289 144.765 70.6925 144.635 70.5958C144.519 70.5092 144.416 70.419 144.308 70.3212C144.173 70.1986 144.049 70.0582 143.907 69.9443C143.776 69.8383 143.657 69.6437 143.572 69.5003C143.517 69.4086 143.473 69.3102 143.41 69.2236C143.341 69.1297 143.316 69.0203 143.236 68.9345C143.113 68.8011 143.012 68.6267 142.902 68.4802C142.791 68.3327 142.678 68.1795 142.588 68.0166C142.503 67.8629 142.415 67.6973 142.309 67.5571C142.169 67.3725 141.958 67.1552 141.907 66.9283C141.879 66.8013 141.78 66.6647 141.723 66.5473C141.651 66.3995 141.578 66.2654 141.525 66.1085C141.474 65.9538 141.419 65.8032 141.374 65.6449C141.337 65.5193 141.27 65.4085 141.239 65.2845C141.192 65.0962 141.082 64.9331 141.035 64.7445" stroke="black" stroke-linecap="round"/>
<path d="M145.309 71.3981C145.309 71.3259 145.333 71.3088 145.365 71.2494C145.449 71.0961 145.512 70.9257 145.584 70.7662C145.633 70.6586 145.656 70.5391 145.708 70.4317C145.757 70.3305 145.787 70.2019 145.848 70.1095C145.887 70.0516 145.966 69.9418 146.02 69.903C146.075 69.8631 146.191 69.7514 146.216 69.6841C146.261 69.5639 146.346 69.4794 146.402 69.362C146.478 69.201 146.513 69.0233 146.583 68.8602C146.668 68.6613 146.685 68.4414 146.787 68.2479C146.852 68.1244 146.864 67.9744 146.926 67.8503C147.002 67.6997 147.078 67.5555 147.166 67.4115C147.241 67.2888 147.233 67.1144 147.262 66.9779C147.285 66.8686 147.356 66.7855 147.4 66.6877C147.443 66.5937 147.477 66.5036 147.52 66.41C147.564 66.3141 147.613 66.2214 147.651 66.1209C147.672 66.0664 147.726 65.9916 147.726 65.934" stroke="black" stroke-linecap="round"/>
<path d="M147.661 66.2319C147.675 66.1185 147.801 66.0589 147.807 65.9408C147.811 65.8563 147.807 65.7707 147.807 65.686C147.807 65.434 147.807 65.1819 147.807 64.9299C147.807 64.7452 147.807 64.5606 147.807 64.3759C147.807 64.0279 147.872 63.624 147.789 63.2902C147.735 63.0776 147.734 62.7934 147.734 62.5745C147.734 62.4759 147.661 62.4006 147.661 62.3178C147.661 62.1849 147.631 62.0106 147.597 61.8811C147.546 61.6906 147.479 61.4409 147.479 61.2462C147.479 61.1345 147.343 61.1072 147.334 60.9834C147.329 60.9142 147.295 60.8927 147.261 60.8378C147.201 60.7413 147.199 60.6246 147.168 60.5184C147.102 60.2938 146.897 60.0344 146.897 59.8047C146.897 59.673 146.803 59.5972 146.751 59.4812C146.709 59.3861 146.616 59.2351 146.551 59.1557C146.47 59.0561 146.464 58.9788 146.404 58.8646C146.34 58.7438 146.186 58.6169 146.171 58.4804C146.139 58.1891 145.854 58.0208 145.696 57.7971C145.589 57.6455 145.311 57.4318 145.296 57.2593C145.291 57.2035 145.184 57.0785 145.142 57.0328C145.054 56.9381 145 56.8311 144.904 56.7538C144.826 56.6922 144.817 56.5508 144.732 56.4748C144.669 56.4187 144.579 56.3059 144.566 56.2261C144.559 56.183 144.439 56.1389 144.4 56.1129C144.193 55.9749 143.914 55.8617 143.804 55.6418" stroke="black" stroke-linecap="round"/>
<path d="M141.001 64.7399C141.001 64.4201 141.002 64.1013 140.967 63.7896C140.925 63.4085 141.074 63.053 141.074 62.6857C141.074 62.3077 141.074 61.9296 141.074 61.5515C141.074 61.339 141.069 61.1474 141.139 60.947C141.208 60.747 141.185 60.554 141.238 60.3546C141.296 60.1355 141.34 59.8998 141.369 59.6773C141.398 59.4637 141.451 59.1777 141.529 58.9758C141.574 58.8586 141.568 58.7279 141.62 58.6098C141.674 58.4878 141.627 58.3491 141.693 58.2338C141.741 58.1487 141.783 58.0474 141.804 57.9527C141.843 57.7788 142.071 57.6736 142.138 57.5059C142.163 57.4414 142.233 57.3488 142.275 57.2876C142.3 57.2519 142.395 57.0665 142.405 57.0611C142.574 56.9642 142.637 56.6495 142.748 56.5031C142.856 56.361 143.017 56.2424 143.114 56.0967C143.173 56.008 143.241 55.8806 143.316 55.8056C143.379 55.7431 143.516 55.7084 143.549 55.6418" stroke="black" stroke-linecap="round"/>
<path d="M145.368 68.0151C145.368 67.2672 145.35 66.5247 145.303 65.7791C145.272 65.2845 145.259 64.7827 145.259 64.287C145.259 64.1825 145.324 63.9028 145.186 63.9028" stroke="black" stroke-width="3" stroke-linecap="round"/>
<path d="M145.441 66.4503C145.824 66.4155 146.052 65.8755 146.149 65.5425C146.261 65.1587 146.169 64.6499 146.169 64.2506C146.169 63.8762 146.206 63.5063 146.206 63.1305C146.206 62.7334 146.223 62.3318 146.133 61.9417C146.08 61.7155 145.99 61.5172 145.951 61.2826" stroke="black" stroke-width="3" stroke-linecap="round"/>
<path d="M144.131 68.2699C144.131 67.8868 144.14 67.5623 144.005 67.1963C143.982 67.1325 143.963 67.047 143.951 66.98C143.93 66.8635 143.85 66.7922 143.795 66.6888C143.654 66.423 143.56 66.0747 143.548 65.771C143.526 65.2065 143.214 64.7486 143.187 64.1899C143.148 63.4184 143.185 62.6368 143.185 61.8649" stroke="black" stroke-width="3" stroke-linecap="round"/>
<path d="M142.93 65.213C142.93 64.661 142.858 64.1417 142.858 63.5895C142.858 62.6796 142.972 61.7759 143.258 60.9187" stroke="black" stroke-width="3" stroke-linecap="round"/>
<path d="M143.876 62.993C144.015 62.8185 143.987 62.5082 144.04 62.2996C144.113 62.0054 144.148 61.7032 144.199 61.41C144.264 61.0371 144.164 60.6475 144.24 60.2717C144.259 60.1787 144.355 59.6766 144.268 59.5803C144.159 59.4593 144.094 59.1817 144.094 59.0081C144.094 58.8317 143.985 58.6842 143.985 58.5027C143.985 58.1881 143.803 57.9437 143.803 57.6434" stroke="black" stroke-width="3" stroke-linecap="round"/>
<path d="M143.73 58.3712C143.73 58.7487 143.732 59.0938 143.658 59.463C143.634 59.5785 143.619 59.717 143.577 59.8269C143.529 59.9533 143.422 60.1136 143.405 60.2434C143.371 60.5018 143.331 60.7561 143.276 61.0097C143.25 61.126 143.249 61.2463 143.201 61.3574C143.14 61.4971 143.136 61.3861 143.039 61.3918C142.949 61.3971 142.93 61.9521 142.93 61.7638C142.93 61.3121 142.893 60.87 142.893 60.4173C142.893 60.2707 142.873 60.1015 142.895 59.9543C142.907 59.8781 142.966 59.8122 142.966 59.7359C142.966 59.6498 143.052 59.5775 143.075 59.4954C143.11 59.3748 143.15 59.2561 143.185 59.1355" stroke="black" stroke-width="3" stroke-linecap="round"/>
<path d="M144.932 61.0279C144.932 60.7568 144.971 60.5267 145.049 60.2717C145.099 60.1096 145.116 59.8308 145.023 59.6814C144.949 59.5629 144.983 59.3759 144.896 59.2447" stroke="black" stroke-width="3" stroke-linecap="round"/>
<path d="M145.222 70.1623C145.261 70.5121 145.259 69.4589 145.259 69.1069" stroke="black" stroke-linecap="round"/>
<path d="M129.909 55.3582C129.994 55.3475 129.918 55.3059 129.87 55.3078C129.776 55.3114 129.727 55.4087 129.631 55.4087C129.494 55.4087 129.353 55.4591 129.203 55.4591" stroke="black" stroke-width="3" stroke-linecap="round"/>
<path d="M145.296 68.7066C145.148 68.7066 145.187 68.3481 145.187 68.6702" stroke="black" stroke-width="3" stroke-linecap="round"/>
<path d="M170.962 101.774C170.962 101.476 170.82 101.285 170.611 101.083C170.435 100.914 170.309 100.927 170.082 100.927C169.808 100.927 169.589 100.921 169.332 100.797C169.131 100.699 168.942 100.641 168.745 100.521C168.666 100.473 168.453 100.392 168.419 100.308C168.36 100.16 168.162 100.083 168.063 99.9672C167.967 99.8552 167.818 99.788 167.695 99.6956C167.636 99.651 167.5 99.5857 167.424 99.558C167.246 99.4933 167.085 99.2521 166.953 99.1197C166.764 98.9306 166.588 98.7399 166.382 98.5656C166.218 98.4269 165.968 98.4031 165.796 98.2686C165.648 98.1535 165.551 97.9678 165.403 97.8467C165.33 97.787 165.231 97.7491 165.185 97.6674C165.117 97.5439 164.906 97.5331 164.819 97.423C164.709 97.2825 164.507 97.1726 164.345 97.0735C164.314 97.0547 164.163 96.9313 164.149 96.9014C164.123 96.8426 164.028 96.7903 163.987 96.7294C163.939 96.659 163.862 96.598 163.807 96.5248C163.756 96.4568 163.709 96.3506 163.644 96.2984C163.501 96.1837 163.373 96.1118 163.206 96.0178C163.111 95.9645 162.993 95.8216 162.911 95.7443C162.851 95.6878 162.739 95.5865 162.715 95.5161" stroke="black" stroke-linecap="round"/>
<path d="M162.56 95.2407C162.485 95.2361 162.447 95.0721 162.443 95.0066C162.434 94.8351 162.386 94.6881 162.313 94.5384C162.252 94.4135 162.167 94.0767 162.027 94.0182C161.939 93.9816 161.89 93.7976 161.801 93.7477C161.697 93.6903 161.659 93.5637 161.577 93.472C161.512 93.4 161.477 93.2787 161.431 93.1911C161.369 93.0732 161.321 92.9682 161.275 92.8425C161.243 92.7535 161.222 92.6536 161.201 92.5603C161.18 92.4641 161.079 92.3776 161.061 92.269C161.027 92.0663 160.976 91.8448 160.92 91.6487C160.908 91.6076 160.877 91.6067 160.875 91.5472C160.872 91.4711 160.828 91.4087 160.828 91.3326C160.828 91.1875 160.841 91.0513 160.784 90.9217C160.742 90.8277 160.808 90.6932 160.769 90.5939C160.644 90.2679 160.711 89.8451 160.711 89.5002C160.711 89.4161 160.711 89.332 160.711 89.2479C160.711 89.1653 160.754 89.0798 160.758 88.9956C160.766 88.7803 160.781 88.5645 160.781 88.3453C160.781 88.222 160.767 88.1254 160.851 88.0306C160.916 87.9579 160.892 87.8278 160.95 87.7548C160.972 87.7271 160.968 87.7044 160.968 87.6677C160.968 87.6298 161.02 87.5862 161.039 87.5494C161.092 87.4427 161.151 87.3977 161.18 87.2671C161.225 87.0661 161.324 86.8815 161.366 86.678C161.379 86.6178 161.399 86.4574 161.449 86.414C161.542 86.3347 161.631 86.2424 161.74 86.1721C161.926 86.0508 162.081 85.8742 162.244 85.7208C162.325 85.645 162.365 85.5438 162.443 85.4659C162.485 85.4235 162.546 85.3999 162.594 85.3632C162.753 85.2418 162.935 85.0866 163.039 84.9171C163.108 84.8037 163.213 84.7631 163.333 84.7168C163.407 84.6877 163.473 84.6576 163.551 84.631C163.626 84.6052 163.833 84.5949 163.871 84.5191" stroke="black" stroke-linecap="round"/>
<path d="M171.189 86.3614C171.189 86.2815 171.138 86.2064 171.105 86.1373C171.077 86.0795 171.072 86.0094 171.033 85.9586C171.003 85.9188 170.977 85.8825 170.95 85.8426C170.87 85.727 170.762 85.623 170.672 85.515C170.605 85.4345 170.523 85.3555 170.442 85.2893C170.404 85.2583 170.36 85.2421 170.326 85.2078C170.279 85.1605 170.223 85.1416 170.17 85.1027C170.053 85.0164 169.916 84.9515 169.793 84.8739C169.598 84.7513 169.42 84.597 169.23 84.4663C168.959 84.2801 168.635 84.1678 168.34 84.04C168.304 84.0247 168.255 84.0345 168.218 84.0329C168.136 84.0295 168.056 84.0098 167.975 84.0063C167.882 84.0023 167.796 84.0067 167.705 83.9914C167.352 83.9319 166.991 83.9205 166.639 83.8535C166.471 83.8215 166.279 83.8503 166.108 83.8503C165.853 83.8503 165.598 83.8503 165.343 83.8503C165.219 83.8503 165.097 83.845 164.975 83.8715C164.864 83.8956 164.746 83.8939 164.648 83.9585C164.448 84.0912 164.213 84.1507 164.004 84.2673C163.934 84.3066 163.87 84.3325 163.809 84.388C163.701 84.4874 163.623 84.625 163.512 84.7171C163.471 84.751 163.453 84.7783 163.409 84.8026C163.371 84.8237 163.33 84.8383 163.289 84.8519" stroke="black" stroke-linecap="round"/>
<path d="M171.608 86.6247C171.547 86.5333 171.919 86.3126 172.015 86.2832C172.11 86.2541 172.178 86.1172 172.259 86.0584C172.33 86.0061 172.361 85.9349 172.427 85.876C172.55 85.7651 172.756 85.6869 172.897 85.5884C173.045 85.4847 173.177 85.3893 173.316 85.279C173.406 85.2073 173.476 85.1163 173.554 85.0338C173.713 84.8648 173.905 84.7296 174.086 84.5871C174.144 84.5415 174.236 84.5137 174.302 84.4835C174.342 84.4655 174.383 84.472 174.425 84.4704C174.494 84.4677 174.478 84.4246 174.524 84.3974C174.702 84.293 174.91 84.2864 175.114 84.2864C175.305 84.2864 175.434 84.1366 175.613 84.104C175.829 84.0648 176.035 83.9696 176.261 83.9507C176.662 83.9174 177.068 83.9712 177.467 83.9712C177.58 83.9712 177.693 83.9712 177.807 83.9712C177.864 83.9712 178.047 83.9436 178.096 83.9843C178.139 84.0203 178.228 84.0073 178.281 84.0296C178.344 84.0561 178.444 84.1439 178.507 84.1536C178.674 84.1793 178.849 84.1219 178.996 84.2222C179.083 84.2809 179.203 84.3337 179.3 84.3711C179.404 84.4111 179.446 84.5024 179.528 84.5492C179.626 84.6055 179.718 84.6958 179.805 84.774C179.831 84.7975 179.879 84.7836 179.912 84.8017C180.001 84.8521 180.094 84.8925 180.184 84.9418C180.26 84.9829 180.348 85.0274 180.425 85.0513C180.54 85.0865 180.629 85.2208 180.73 85.2848C180.861 85.3673 180.937 85.471 181.054 85.568C181.214 85.6996 181.276 85.895 181.5 85.9942C181.688 86.0779 181.699 86.3187 181.789 86.4802C181.839 86.5714 181.922 86.6409 181.986 86.724C182.012 86.7578 182.066 86.7526 182.085 86.794C182.109 86.8474 182.091 86.8651 182.132 86.9137C182.227 87.0269 182.19 87.2051 182.275 87.3399C182.337 87.4389 182.416 87.5497 182.434 87.6654C182.44 87.7035 182.505 87.9219 182.526 87.9398C182.659 88.0544 182.615 88.3051 182.707 88.4492C182.744 88.5074 182.745 88.6807 182.748 88.747C182.752 88.8644 182.769 88.986 182.8 89.1002C182.928 89.564 182.931 90.0497 182.931 90.5306C182.931 90.6549 182.98 90.8315 183.016 90.9539C183.042 91.043 183.037 91.1308 183.037 91.2239C183.037 91.3636 183.037 91.5032 183.037 91.6428C183.037 91.8217 183.009 91.9584 182.964 92.1303C182.902 92.3624 182.925 92.6255 182.879 92.8631C182.831 93.1101 182.829 93.4425 182.654 93.6425C182.616 93.6858 182.631 93.7468 182.59 93.7841C182.538 93.8307 182.518 93.9055 182.496 93.9694C182.402 94.2535 182.231 94.4959 182.13 94.7751C182.074 94.9313 182.033 95.1636 181.907 95.2831C181.824 95.3617 181.677 95.4529 181.577 95.5108C181.456 95.5808 181.328 95.6967 181.216 95.7852C180.962 95.9862 180.772 96.2299 180.564 96.4756C180.523 96.5242 180.487 96.5838 180.437 96.6215C180.302 96.7225 180.195 96.8422 180.082 96.9675C179.934 97.133 179.828 97.1096 179.7 96.9499" stroke="black" stroke-linecap="round"/>
<path d="M179.91 96.6609C179.91 96.8385 179.663 97.0022 179.516 97.0872C179.299 97.2129 179.119 97.396 178.906 97.5221C178.511 97.7555 178.248 98.1397 177.925 98.4621C177.841 98.546 177.67 98.7627 177.551 98.789C177.493 98.8021 177.389 98.865 177.35 98.9117C177.227 99.057 177.096 99.0996 176.968 99.2211C176.872 99.3112 176.743 99.3623 176.641 99.4459C176.451 99.6009 176.243 99.7373 176.06 99.9071C176.013 99.9502 175.928 100.028 175.874 100.052C175.714 100.121 175.562 100.282 175.455 100.418C175.394 100.496 175.279 100.569 175.2 100.63C175.124 100.688 174.997 100.779 174.907 100.812C174.784 100.857 174.685 100.989 174.583 101.067C174.392 101.214 174.2 101.406 173.977 101.502C173.889 101.541 173.841 101.577 173.758 101.627C173.686 101.67 173.599 101.692 173.532 101.743C173.491 101.774 173.462 101.826 173.409 101.835C173.228 101.868 173.16 102.054 173.011 102.139C172.82 102.246 172.645 102.354 172.449 102.453C172.268 102.543 172.087 102.655 171.894 102.742C171.752 102.805 171.603 102.775 171.452 102.785C171.309 102.795 171.22 102.888 171.082 102.888" stroke="black" stroke-linecap="round"/>
<path d="M164.593 97.344C164.69 97.3804 164.817 97.4797 164.868 97.5805C164.898 97.6408 164.956 97.6685 164.987 97.7235C165 97.7454 165.033 97.7373 165.053 97.7527C165.088 97.78 165.079 97.8154 165.104 97.8432C165.176 97.9222 165.287 98.0692 165.387 98.1118C165.465 98.1448 165.502 98.1696 165.552 98.2358C165.657 98.3762 165.836 98.4869 165.973 98.5934C166.09 98.685 166.297 98.8056 166.374 98.9321C166.416 99.0007 166.496 99.023 166.537 99.0839C166.604 99.1812 166.675 99.1959 166.758 99.2853C166.79 99.3203 166.808 99.3088 166.851 99.3159C166.885 99.3216 166.907 99.3705 166.931 99.3918C167.001 99.4516 167.114 99.4619 167.188 99.5305C167.285 99.6204 167.408 99.664 167.504 99.7407C167.665 99.8695 167.856 99.9706 168.016 100.103C168.099 100.171 168.174 100.305 168.242 100.389C168.275 100.428 168.334 100.545 168.376 100.57C168.433 100.603 168.442 100.638 168.487 100.675C168.566 100.739 168.706 100.77 168.795 100.837C168.852 100.879 168.889 100.923 168.94 100.97C169.011 101.035 169.098 101.066 169.179 101.113C169.224 101.139 169.224 101.206 169.283 101.206C169.331 101.206 169.437 101.305 169.478 101.336C169.541 101.383 169.626 101.386 169.69 101.422C169.77 101.467 169.834 101.583 169.927 101.632C170.007 101.675 170.047 101.723 170.124 101.772C170.198 101.82 170.28 101.93 170.363 101.943C170.464 101.959 170.519 102.032 170.583 102.099C170.641 102.161 170.753 102.201 170.794 102.272C170.838 102.35 170.975 102.384 171.049 102.426C171.122 102.468 171.168 102.536 171.24 102.572" stroke="black" stroke-linecap="round"/>
<path d="M171.62 99.0855C171.791 99.0855 172.119 98.5407 172.252 98.4081C172.356 98.3033 172.433 98.1956 172.519 98.0745C172.685 97.8398 172.98 97.6577 173.199 97.471C173.484 97.2285 173.721 97.0168 174.004 96.7783C174.468 96.3859 175.095 96.208 175.57 95.8285C175.745 95.6879 175.996 95.605 176.204 95.5203C176.542 95.3822 176.951 95.1679 177.233 94.9372C177.535 94.6897 177.817 94.4199 178.124 94.1808C178.303 94.0413 178.597 93.7224 178.84 93.7224C179.047 93.7224 179.259 93.6064 179.423 93.4932C179.594 93.3749 179.741 93.2798 179.871 93.1164C180.055 92.884 180.351 92.8279 180.487 92.5561C180.675 92.1797 180.639 91.7066 180.706 91.2981C180.758 90.9792 180.742 90.6554 180.742 90.3329C180.742 89.8629 180.83 89.3136 180.627 88.8865C180.53 88.6822 180.364 88.519 180.266 88.3339C180.166 88.1452 180.002 88.0671 179.917 87.8551" stroke="black" stroke-width="5" stroke-linecap="round"/>
<path d="M178.403 91.2013C178.39 91.0565 178.307 90.8452 178.174 90.7786C178.018 90.7007 177.853 90.7696 177.708 90.8423C177.313 91.04 176.906 91.2272 176.519 91.4407C176.15 91.644 175.785 91.8179 175.403 91.9933C174.884 92.2319 174.485 92.6132 174.028 92.9483C173.772 93.1366 173.453 93.374 173.453 93.7224" stroke="black" stroke-width="5" stroke-linecap="round"/>
<path d="M171.665 99.4522C171.775 99.3301 171.837 99.1267 171.91 98.9836C171.961 98.8824 172.347 97.9446 172.518 97.9446C172.66 97.9446 172.864 97.9855 172.984 98.0567C173.101 98.1259 173.269 98.0427 173.389 98.0338C173.863 97.9987 174.153 97.7945 174.482 97.4659C174.585 97.3628 174.79 97.2669 174.92 97.196C175.101 97.0968 175.272 96.976 175.447 96.8649C175.774 96.6565 176.148 96.4663 176.432 96.1977C176.779 95.8701 177.234 95.6767 177.604 95.3828C177.755 95.2626 178.017 95.0878 178.128 94.9244C178.168 94.8658 178.239 94.6688 178.294 94.6443C178.399 94.5978 178.499 94.5821 178.541 94.4558" stroke="black" stroke-width="5" stroke-linecap="round"/>
<path d="M173.591 98.673C173.525 98.6978 173.461 98.8625 173.362 98.9124C173.267 98.9595 173.243 98.9938 173.132 98.9938" stroke="black" stroke-width="5" stroke-linecap="round"/>
<path d="M170.611 99.223C170.695 99.0652 170.763 98.9379 170.611 98.8079C170.548 98.7539 170.434 98.7118 170.387 98.6475C170.339 98.5813 170.326 98.4948 170.244 98.454C170.02 98.3415 169.782 98.2455 169.557 98.1204C169.39 98.0278 169.204 97.8058 169.063 97.6747C168.943 97.5642 168.792 97.478 168.683 97.3589C168.5 97.1571 168.246 97.0763 168.054 96.8598C167.78 96.5509 167.412 96.3391 167.127 96.0551C166.749 95.6766 166.179 95.3744 165.91 94.8913C165.674 94.4658 165.228 94.2265 164.892 93.8956C164.807 93.8122 164.711 93.5942 164.624 93.5365C164.226 93.271 164.137 92.694 163.944 92.2811C163.73 91.8219 163.46 91.3051 163.46 90.7888" stroke="black" stroke-width="5" stroke-linecap="round"/>
<path d="M163.507 89.9179C163.507 89.6753 163.434 89.5057 163.517 89.2659C163.59 89.0564 163.765 88.5041 163.988 88.4052C164.103 88.3541 164.193 88.1517 164.286 88.0589C164.431 87.9138 164.573 87.7666 164.722 87.6259C164.83 87.5234 164.955 87.3709 165.04 87.249C165.093 87.1729 165.235 86.993 165.315 86.9485C165.536 86.8255 165.67 86.7092 165.946 86.7092C166.205 86.7092 166.424 86.5717 166.695 86.5717C166.938 86.5717 167.181 86.5717 167.423 86.5717C167.54 86.5717 167.711 86.7787 167.816 86.8365C167.929 86.899 167.953 86.9997 167.953 87.1217" stroke="black" stroke-width="5" stroke-linecap="round"/>
<path d="M163.552 88.1302C163.68 88.0153 163.936 88.0111 164.102 87.9926C164.285 87.9723 164.4 87.8551 164.606 87.8551" stroke="black" stroke-width="5" stroke-linecap="round"/>
<path d="M166.44 89.7803C166.463 90.2059 166.783 90.493 167.12 90.7022C168.157 91.3476 169.055 92.0068 169.771 93.0272C170.066 93.4481 170.314 93.8999 170.494 94.382C170.572 94.5907 170.635 94.8083 170.738 95.0059C170.965 95.4393 170.932 94.9842 170.932 94.7309" stroke="black" stroke-width="5" stroke-linecap="round"/>
<path d="M170.657 92.6681C171.162 92.6681 171.671 92.6872 172.175 92.658C172.551 92.6361 172.638 92.5831 172.873 92.332C173.346 91.8257 173.648 91.2936 174.263 90.9212C174.53 90.7601 174.682 90.6422 174.982 90.5392C175.526 90.3521 176.087 90.1426 176.53 89.7651C176.771 89.56 176.963 89.2868 177.167 89.0469C177.333 88.8514 177.356 88.4428 177.452 88.2065C177.559 87.9407 177.599 87.6277 177.717 87.3713C177.77 87.2557 177.804 87.0829 177.864 86.9842C177.894 86.9349 178.123 86.8601 177.956 86.8467C177.864 86.8394 177.788 86.8008 177.691 86.8008C177.576 86.8008 177.385 86.7661 177.281 86.8238C177.174 86.883 177.056 86.8977 176.942 86.9384C176.836 86.9764 176.73 87.0926 176.637 87.1192C176.461 87.1694 176.359 87.3454 176.176 87.4018C175.883 87.4919 175.628 87.694 175.399 87.8602C175.232 87.9816 175.047 88.0744 174.887 88.204C174.709 88.3483 174.459 88.4082 174.299 88.5682C173.916 88.9508 173.316 89.0855 172.876 89.3907C172.73 89.4917 172.623 89.6193 172.491 89.737C172.328 89.8817 172.122 89.978 171.938 90.0961C171.385 90.4516 170.589 90.4315 169.97 90.4679" stroke="black" stroke-width="5" stroke-linecap="round"/>
<path d="M176.203 85.9758C175.872 85.9758 175.845 86.2437 175.605 86.4087C175.407 86.5447 175.181 86.6221 174.991 86.7779C174.783 86.9481 174.664 87.1989 174.477 87.3866C174.023 87.8403 173.552 87.9943 172.997 88.2677C172.588 88.4692 172.116 88.5533 171.691 88.7235C171.363 88.8547 171.036 88.9356 170.703 89.0469" stroke="black" stroke-width="5" stroke-linecap="round"/>
<path d="M169.419 87.5801C169.419 87.5246 169.602 87.4657 169.648 87.3968" stroke="black" stroke-width="5" stroke-linecap="round"/>
<path d="M201.548 103.42C201.548 103.689 201.441 104.03 201.304 104.255C201.086 104.614 201.095 105.042 200.98 105.453C200.86 105.887 200.796 106.34 200.665 106.769C200.62 106.918 200.5 107.093 200.484 107.234C200.429 107.709 200.151 108.13 200.129 108.613C200.106 109.137 199.797 109.603 199.649 110.087C199.546 110.423 199.463 110.755 199.333 111.08C199.159 111.515 199.071 112.028 198.727 112.372C198.402 112.697 197.961 112.895 197.549 113.093C197.35 113.189 197.105 113.257 196.922 113.381C196.7 113.532 196.398 113.613 196.201 113.775C196.031 113.915 195.834 113.951 195.661 114.074C195.448 114.227 195.256 114.407 194.999 114.48C194.671 114.574 194.43 115.002 194.097 115.126C193.765 115.251 193.307 115.554 193.069 115.792C192.744 116.117 192.111 116.302 191.682 116.439C191.28 116.566 190.953 116.717 190.531 116.785C190.198 116.839 189.845 117 189.526 117.033C189.308 117.056 189.086 117.093 188.868 117.108C188.703 117.12 188.668 117.25 188.466 117.25C187.864 117.25 187.268 117.321 186.662 117.321C185.827 117.321 184.991 117.321 184.156 117.321C183.586 117.321 183.016 117.321 182.446 117.321C182.184 117.321 182.008 117.061 181.76 117.037C181.375 117.001 181.114 116.761 180.783 116.541C180.408 116.291 179.914 116.202 179.577 115.918C179.137 115.547 178.381 115.609 178.001 115.138C177.87 114.975 177.601 114.844 177.434 114.701C177.266 114.557 177.098 114.4 176.969 114.216C176.729 113.875 176.397 113.643 176.118 113.349C176.056 113.284 176.065 113.181 176 113.113C175.863 112.971 175.665 112.848 175.515 112.715C175.241 112.474 174.996 112.46 174.948 112.096C174.918 111.871 174.801 111.676 174.755 111.458C174.694 111.177 174.686 110.881 174.562 110.619C174.388 110.252 174.015 109.632 173.675 109.413C173.472 109.282 173.336 108.923 173.249 108.708C173.163 108.491 173.118 108.252 173.005 108.046C172.906 107.864 172.745 107.715 172.69 107.51C172.587 107.124 172.327 106.791 172.327 106.367C172.327 105.951 172.291 105.505 172.15 105.111C172 104.689 172.118 104.282 171.902 103.85C171.615 103.275 171.689 102.496 171.689 101.86" stroke="black" stroke-width="3" stroke-linecap="round"/>
<path d="M171.796 102.511C171.796 103.724 171.761 104.951 171.252 106.072C171.078 106.455 171.043 107.115 171.043 107.532C171.043 107.954 170.838 108.693 170.578 109.024C170.439 109.201 170.055 109.68 170.038 109.894C170.022 110.107 169.799 110.898 169.666 111.047C169.551 111.175 169.476 111.115 169.411 111.298C169.357 111.447 169.305 111.566 169.197 111.684C168.92 111.984 168.558 112.238 168.3 112.553C168.068 112.836 167.635 113.178 167.309 113.353C166.932 113.556 166.57 113.946 166.175 114.064C165.964 114.127 165.781 114.372 165.584 114.394C165.145 114.445 164.688 114.879 164.292 115.064C163.446 115.457 162.504 115.739 161.707 116.236C161.376 116.442 161.041 116.628 160.702 116.821C160.406 116.991 159.868 116.945 159.535 116.984C158.525 117.103 157.478 117.093 156.467 117.161C155.7 117.212 154.685 117.443 153.933 117.203C153.231 116.978 152.539 116.789 151.822 116.607C149.856 116.109 148.295 115.072 146.731 113.855C146 113.287 145.298 112.817 144.974 111.879C144.883 111.617 144.742 111.446 144.597 111.214C144.293 110.728 144.156 110.176 143.807 109.708C143.294 109.022 142.701 108.391 142.337 107.625C142.187 107.307 142.003 106.639 142.003 106.286C142.003 105.928 141.762 105.591 141.668 105.263C141.553 104.86 141.575 104.443 141.482 104.036C141.399 103.672 141.333 103.385 141.333 103.013" stroke="black" stroke-width="3" stroke-linecap="round"/>
<path d="M171.757 101.332C171.85 101.436 171.9 101.665 171.895 101.8C171.892 101.87 171.551 101.966 171.859 101.871C172.019 101.822 172.242 101.663 172.399 101.652C172.522 101.644 172.16 101.714 172.04 101.744C171.963 101.763 171.808 101.9 171.757 101.963C171.592 102.17 171.588 102.176 171.518 101.938C171.47 101.777 171.35 101.498 171.492 101.342C171.63 101.19 172.247 102.073 172.455 102.065C172.601 102.059 172.72 101.783 172.72 101.652" stroke="black" stroke-linecap="round"/>
<path d="M172.216 94.135C172.141 94.135 171.968 94.27 171.941 94.3438C171.855 94.5791 171.895 94.85 171.895 95.0976" stroke="black" stroke-width="5" stroke-linecap="round"/>
<path d="M179.415 96.7104C179.415 96.7823 179.358 96.792 179.355 96.8493C179.35 96.94 179.357 96.9353 179.3 96.9925C179.235 97.0575 179.334 97.0476 179.375 97.0476C179.445 97.0476 179.521 96.9927 179.573 96.9474C179.666 96.8677 179.618 96.9257 179.593 96.9804C179.562 97.0502 179.505 97.0404 179.444 97.0675C179.419 97.0789 179.306 97.1468 179.365 97.1468C179.421 97.1468 179.482 97.1356 179.514 97.0873" stroke="black" stroke-linecap="round"/>
<path d="M179.771 96.8096C179.737 96.8139 179.721 96.8611 179.712 96.8889" stroke="black" stroke-linecap="round"/>
<path d="M160.686 89.9177C160.686 89.6916 160.661 89.4638 160.661 89.234C160.661 89.0435 160.634 88.9319 160.76 88.7855" stroke="black" stroke-linecap="round"/>
<path d="M161.597 93.1666C161.476 92.9376 161.352 92.7165 161.252 92.4774" stroke="black" stroke-linecap="round"/>
<path d="M161.941 94.2496C161.916 94.0836 161.826 93.9299 161.775 93.771C161.712 93.5787 161.656 93.3845 161.597 93.1912" stroke="black" stroke-linecap="round"/>
<path d="M161.843 94.1757C161.883 94.1837 161.925 94.2159 161.941 94.2495" stroke="black" stroke-linecap="round"/>
<path d="M162.483 94.9141C162.408 94.8309 162.332 94.747 162.267 94.657C162.196 94.5587 162.04 94.3693 162.04 94.2495" stroke="black" stroke-linecap="round"/>
<line y1="-1.5" x2="57.0088" y2="-1.5" transform="matrix(-0.965782 -0.259354 -0.259354 0.965782 253 112.785)" stroke="black" stroke-width="3"/>
<line y1="-1.5" x2="57.0088" y2="-1.5" transform="matrix(-0.96579 0.259325 0.259325 0.96579 145 99)" stroke="black" stroke-width="3"/>
<line y1="-1.5" x2="57.0088" y2="-1.5" transform="matrix(-0.964764 0.263117 0.263117 0.964764 254 74)" stroke="black" stroke-width="3"/>
<line y1="-1.5" x2="57.0088" y2="-1.5" transform="matrix(-0.964741 -0.2632 -0.2632 0.964741 144 90.0047)" stroke="black" stroke-width="3"/>
<line y1="-1.5" x2="57.0088" y2="-1.5" transform="matrix(-0.999972 0.0074441 0.0074441 0.999972 256 94)" stroke="black" stroke-width="3"/>
<line y1="-1.5" x2="57.0088" y2="-1.5" transform="matrix(-0.999972 0.0074441 0.0074441 0.999972 144 94)" stroke="black" stroke-width="3"/>
</svg>
