<svg width="90" height="296" viewBox="0 0 90 296" fill="none" xmlns="http://www.w3.org/2000/svg">
<g clip-path="url(#clip0_15_1138)">
<path d="M86.5 258C86.5 260.391 84.3838 263.015 79.8925 265.128C75.5189 267.186 69.3714 268.5 62.5 268.5C55.6286 268.5 49.4811 267.186 45.1075 265.128C40.6162 263.015 38.5 260.391 38.5 258C38.5 255.609 40.6162 252.985 45.1075 250.872C49.4811 248.814 55.6286 247.5 62.5 247.5C69.3714 247.5 75.5189 248.814 79.8925 250.872C84.3838 252.985 86.5 255.609 86.5 258Z" fill="white" stroke="black" stroke-width="3"/>
<path d="M177.5 180C177.5 229.057 142.409 268.5 99.5 268.5C56.5913 268.5 21.5 229.057 21.5 180C21.5 130.943 56.5913 91.5 99.5 91.5C142.409 91.5 177.5 130.943 177.5 180Z" fill="white" stroke="black" stroke-width="3"/>
<path d="M34.7824 43.3702L35.0898 18.3926L72.6808 21.7928L34.7824 43.3702Z" fill="white" stroke="black" stroke-width="3"/>
<path d="M172.5 73.3995C172.5 88.7427 164.406 102.735 151.119 112.94C137.831 123.145 119.409 129.5 99 129.5C78.5909 129.5 60.169 123.145 46.8806 112.94C33.5939 102.735 25.5 88.7427 25.5 73.3995C25.5 58.0564 33.5939 44.0638 46.8806 33.8594C60.169 23.6539 78.5909 17.299 99 17.299C119.409 17.299 137.831 23.6539 151.119 33.8594C164.406 44.0638 172.5 58.0564 172.5 73.3995Z" fill="white" stroke="black" stroke-width="3"/>
<path d="M98.5 270C98.5 272.637 96.8508 275.225 93.7652 277.227C90.6941 279.219 86.3619 280.5 81.5 280.5C76.6381 280.5 72.3059 279.219 69.2348 277.227C66.1492 275.225 64.5 272.637 64.5 270C64.5 267.363 66.1492 264.775 69.2348 262.773C72.3059 260.781 76.6381 259.5 81.5 259.5C86.3619 259.5 90.6941 260.781 93.7652 262.773C96.8508 264.775 98.5 267.363 98.5 270Z" fill="white" stroke="black" stroke-width="3"/>
<line x1="71.1267" y1="261.037" x2="63.528" y2="222.289" stroke="black" stroke-width="3"/>
<path d="M71.1963 71.302C71.1963 71.2369 71.226 71.1794 71.2735 71.1318C71.3305 71.0748 71.3897 70.9874 71.4232 70.912C71.4626 70.8233 71.5582 70.7447 71.5941 70.6489C71.6349 70.5403 71.7533 70.436 71.8202 70.3409C71.886 70.2474 71.9056 70.095 71.9904 70.0226C72.0665 69.9577 72.1579 69.8125 72.2047 69.724C72.2407 69.656 72.2964 69.5988 72.3276 69.5294C72.3431 69.495 72.3759 69.4652 72.3867 69.4293C72.4148 69.3356 72.4535 69.2435 72.4836 69.1497C72.5028 69.0901 72.5138 69.0324 72.5403 68.9748C72.5894 68.8682 72.6354 68.7601 72.6766 68.6502C72.7207 68.5327 72.7425 68.4072 72.7877 68.2909C72.8025 68.2528 72.8313 68.2227 72.8499 68.1869C72.9058 68.0795 72.956 67.9701 73.0114 67.8623C73.1029 67.6845 73.1456 67.4617 73.273 67.2998C73.4025 67.1353 73.4174 66.919 73.4857 66.7239C73.507 66.663 73.521 66.5969 73.5361 66.5341C73.5573 66.4461 73.6171 66.3769 73.6354 66.2898C73.6481 66.2298 73.6638 66.1878 73.6638 66.126" stroke="black" stroke-linecap="round"/>
<path d="M70.9282 71.1283C71.0331 71.0694 70.9017 70.9797 70.858 70.932C70.7805 70.8474 70.6909 70.8356 70.6474 70.7093C70.5873 70.5349 70.5036 70.356 70.417 70.1937C70.3928 70.1483 70.3503 70.0748 70.3117 70.0424C70.2661 70.004 70.2658 69.9347 70.2174 69.8997C70.183 69.8749 70.1648 69.8106 70.1395 69.7747C70.1069 69.7285 70.0769 69.6838 70.0408 69.6387C69.9751 69.5566 69.8982 69.495 69.8225 69.4193C69.7858 69.3826 69.7136 69.2825 69.7051 69.2317C69.6959 69.1763 69.627 69.1163 69.5855 69.0748C69.429 68.9183 69.4208 68.6841 69.2696 68.5329C69.2065 68.4699 69.1613 68.398 69.093 68.3355C69.0602 68.3054 69.0114 68.3108 68.9976 68.2653C68.9774 68.1986 68.9355 68.137 68.8966 68.0788C68.7801 67.904 68.6422 67.7267 68.5544 67.5413C68.518 67.4645 68.4583 67.4158 68.4107 67.3471C68.3746 67.295 68.3663 67.2429 68.3405 67.187C68.2855 67.0679 68.1622 67.0099 68.12 66.8787C68.0928 66.7942 68.0059 66.688 68.0059 66.6067C68.0059 66.5477 67.9664 66.5024 67.9664 66.4377C67.9664 66.3759 67.9417 66.3417 67.9225 66.2864C67.893 66.2011 67.9094 66.1175 67.8381 66.0461C67.7475 65.9556 67.7102 65.8244 67.6549 65.7072C67.6299 65.6541 67.6347 65.6114 67.6297 65.5558C67.6175 65.4215 67.5544 65.2954 67.5233 65.1653C67.5075 65.0993 67.51 65.0157 67.4881 64.9524C67.4746 64.9132 67.4217 64.888 67.4136 64.8493C67.4049 64.8084 67.3675 64.7742 67.3455 64.7396C67.3232 64.7045 67.3246 64.6576 67.305 64.6223C67.2582 64.5381 67.2556 64.458 67.2556 64.3645C67.2556 64.2875 67.254 64.2112 67.2051 64.1484C67.1441 64.0699 67.1766 63.9115 67.1766 63.816C67.1766 63.6359 67.1596 63.4488 67.1766 63.2697C67.1883 63.1465 67.2438 63.0223 67.2545 62.8945C67.2624 62.7993 67.2788 62.711 67.2753 62.6137C67.2727 62.5393 67.2556 62.4678 67.2556 62.391C67.2556 62.3138 67.2161 62.255 67.2161 62.1837" stroke="black" stroke-linecap="round"/>
<path d="M73.6294 65.9102C73.6294 65.0388 73.7067 64.1763 73.7067 63.3111C73.7067 63.0832 73.7194 62.8514 73.7067 62.6238C73.6957 62.4245 73.6701 62.1248 73.5714 61.9472C73.4673 61.7597 73.5591 61.5555 73.3996 61.3694C73.3346 61.2936 73.3857 61.189 73.3029 61.1181C73.2514 61.0739 73.2149 60.8837 73.174 60.8066C73.0849 60.6382 72.8948 60.3891 72.8948 60.188C72.8948 59.9768 72.7896 59.797 72.7788 59.5866C72.7695 59.404 72.6611 59.3299 72.5468 59.2042C72.1979 58.8204 71.8573 58.4148 71.6103 57.9455C71.4683 57.6757 71.2421 57.4372 71.0862 57.1723C71.0268 57.0713 70.9274 57.0393 70.8929 56.9188C70.8517 56.7746 70.7485 56.6657 70.6352 56.573C70.4821 56.4478 70.4131 56.2247 70.285 56.0682C70.1194 55.8657 69.9849 55.6929 69.8018 55.5098" stroke="black" stroke-linecap="round"/>
<path d="M67.2495 62.1598C67.2495 61.6835 67.0814 61.0583 67.2495 60.5961C67.3243 60.3905 67.4696 60.1818 67.4815 59.956C67.4844 59.9014 67.5341 59.8799 67.5502 59.8314C67.5731 59.7628 67.5475 59.6926 67.5781 59.6252C67.6361 59.4976 67.6209 59.3612 67.6662 59.2343C67.7652 58.9572 67.8101 58.6716 68.0034 58.4353C68.0839 58.337 68.1479 58.2699 68.2075 58.1389C68.2631 58.0165 68.3848 57.83 68.4094 57.7071C68.4523 57.4925 68.5701 57.3305 68.6843 57.1465C68.9209 56.7654 69.0866 56.3393 69.3287 55.9651C69.3556 55.9236 69.3236 55.8637 69.3459 55.8191C69.3717 55.7675 69.4408 55.7625 69.4705 55.7031C69.5108 55.6224 69.5319 55.5604 69.608 55.5098" stroke="black" stroke-linecap="round"/>
<path d="M70.1494 66.1422C70.1494 66.2733 70.249 66.3367 70.2654 66.4515C70.2885 66.6134 70.3014 66.7414 70.3642 66.9004C70.417 67.0338 70.567 67.2325 70.5747 67.3794C70.5838 67.5515 70.6585 67.797 70.7508 67.9421C70.8458 68.0913 70.8385 68.3928 70.8754 68.5693C70.9125 68.7465 70.9227 68.896 70.9227 69.0805" stroke="black" stroke-width="3" stroke-linecap="round"/>
<path d="M70.111 59.9947C70.111 59.8481 70.1325 59.7582 70.0036 59.664C69.9052 59.592 69.8254 59.4689 69.7823 59.3568C69.6992 59.1408 69.8472 58.8524 69.7243 58.6501C69.5948 58.4367 69.6083 58.1688 69.6083 57.9263C69.6083 57.8253 69.6083 57.7244 69.6083 57.6234C69.6083 57.3729 69.5467 58.1625 69.6857 58.3709" stroke="black" stroke-width="3" stroke-linecap="round"/>
<path d="M69.5693 66.5674C69.4354 66.5526 69.336 66.3437 69.2428 66.256C69.03 66.0557 69.064 65.8742 68.9893 65.6223C68.8944 65.302 68.8733 64.9247 68.8733 64.5935C68.8733 64.2636 68.7536 63.9592 68.7208 63.6312C68.6361 62.7838 68.7187 61.8943 68.7187 61.0407C68.7187 60.7435 68.7538 60.4267 68.8648 60.1493C68.9173 60.0181 68.8733 59.7869 68.8733 59.6467" stroke="black" stroke-width="3" stroke-linecap="round"/>
<path d="M71.7737 66.3355C71.8204 66.3296 71.8784 65.6847 71.8875 65.6116C71.9074 65.4526 71.8657 65.9352 71.8124 66.0863C71.7762 66.1888 71.675 66.2389 71.6599 66.3527C71.6456 66.4592 71.6577 66.5739 71.6577 66.6813C71.6577 66.8367 71.6577 66.992 71.6577 67.1474C71.6577 67.2098 71.6577 67.2203 71.6577 67.1474C71.6577 66.9584 71.6577 66.7694 71.6577 66.5803C71.6577 66.4233 71.6669 66.2733 71.6276 66.1207C71.6084 66.0459 71.5459 65.9889 71.5417 65.9102C71.5105 65.3175 71.5175 64.6667 71.3806 64.078C71.3445 63.9226 71.3131 63.7338 71.2281 63.5947C71.201 63.5504 71.235 63.8277 71.241 63.8524C71.3326 64.2298 71.3484 64.5914 71.3484 64.978C71.3484 65.3792 71.3783 65.782 71.4279 66.1787C71.4499 66.3546 71.4644 66.5191 71.4644 66.7006C71.4644 66.8469 71.2433 67.3186 71.3183 66.9369C71.3512 66.7693 71.4649 66.6294 71.4988 66.4686C71.5347 66.2979 71.503 66.0908 71.503 65.9166C71.503 65.6889 71.503 65.4613 71.503 65.2336C71.503 64.9867 71.619 64.7801 71.619 64.5355C71.619 64.3578 71.5804 64.1882 71.5804 64.0157" stroke="black" stroke-width="3" stroke-linecap="round"/>
<path d="M71.8117 64.789C72.0213 64.789 71.9359 64.3246 71.9191 64.1789C71.8916 63.9406 71.7562 63.7568 71.6828 63.5367C71.629 63.3754 71.5972 63.1447 71.5819 62.9761C71.5466 62.5879 71.4457 62.1979 71.3649 61.8119C71.3248 61.62 71.2318 61.425 71.2318 61.2298C71.2318 60.9987 71.1971 60.7606 71.1372 60.5382C71.0968 60.3878 71.0384 60.1648 71.0384 60.0141C71.0384 59.8806 70.8618 59.7116 70.8451 59.5694C70.8411 59.5354 70.7355 59.4021 70.7077 59.3783C70.6198 59.3029 70.6494 59.4876 70.654 59.5329C70.678 59.7732 70.7291 59.9804 70.7291 60.2267" stroke="black" stroke-width="3" stroke-linecap="round"/>
<path d="M71.0391 61.6572C71.1269 61.6767 71.3408 62.1506 71.3484 62.2458C71.3737 62.562 71.546 62.8563 71.5803 63.1651C71.5941 63.2886 71.6481 63.5515 71.7264 63.6376C71.8622 63.787 71.8162 63.6225 71.8123 63.4744C71.8073 63.2835 71.695 63.0149 71.5803 62.8644C71.4609 62.7076 71.5008 62.4915 71.4257 62.3059C71.3927 62.2245 71.3138 61.8848 71.4944 62.0052C71.7288 62.1614 71.8003 62.4861 71.851 62.7398" stroke="black" stroke-width="3" stroke-linecap="round"/>
<path d="M85.0105 71.2091C84.7843 71.2091 84.7317 71.2598 84.5796 71.4118C84.4841 71.5074 84.3618 71.6272 84.2552 71.7084C84.1572 71.783 83.9997 71.7965 83.9156 71.868C83.6926 72.0575 83.4153 72.0275 83.1653 72.1418C82.8779 72.2732 82.5435 72.3387 82.2326 72.3952C82.0745 72.424 81.9464 72.5215 81.7815 72.5321C81.6595 72.54 81.4982 72.5564 81.3835 72.6005C80.8871 72.7915 80.3732 72.89 79.8729 73.0568C79.1033 73.3133 78.3281 73.4902 77.5285 73.4902C76.8676 73.4902 76.2455 73.5814 75.5819 73.5814C74.7099 73.5814 73.8824 73.658 73.0169 73.7157C72.2557 73.7665 71.495 73.7639 70.7307 73.7639C70.408 73.7639 70.0853 73.7639 69.7625 73.7639C69.3032 73.7639 68.9132 73.5408 68.4699 73.4902C68.0241 73.4392 67.5896 73.2012 67.1418 73.1227C66.5773 73.0236 66.0564 72.7545 65.5602 72.4789C65.0342 72.1866 64.5041 71.871 64.0344 71.4929C63.8275 71.3264 63.643 71.067 63.459 70.8694C62.9968 70.373 62.5136 69.9042 61.9966 69.4653C61.6989 69.2125 61.5674 68.8806 61.3224 68.5883C61.1233 68.3508 60.977 68.0873 60.851 67.8051C60.7451 67.5682 60.5819 67.4001 60.4302 67.1943C60.1027 66.7498 59.8516 66.2718 59.5634 65.8003C59.4135 65.555 59.2686 65.3281 59.0996 65.0957C59.0277 64.9968 58.9602 64.8312 58.9602 64.7053C58.9602 64.1037 58.5426 63.5617 58.3874 62.997C58.3009 62.6827 58.2404 62.3609 58.1542 62.0491C58.121 61.9291 58.0474 61.6557 57.9717 61.5523C57.6166 61.0681 57.3272 60.6626 57.1099 60.0873C56.9659 59.7062 56.8476 59.2893 56.7247 58.9012C56.6733 58.7391 56.6054 58.6298 56.565 58.4602C56.5298 58.3125 56.4873 58.1673 56.4509 58.0217C56.3586 57.6522 56.1935 57.3623 56.0251 57.0256C55.9023 56.7798 55.8523 56.5019 55.7666 56.2449" stroke="black" stroke-width="3" stroke-linecap="round"/>
<path d="M84.5632 70.0947C84.5632 69.8971 84.5991 69.655 84.5552 69.4628C84.4761 69.1167 84.305 68.8206 84.199 68.4828C84.0966 68.1565 84.0245 67.8447 83.9113 67.523C83.7234 66.9891 83.6033 66.4321 83.4203 65.8931C83.3982 65.8281 83.3811 65.7612 83.3599 65.6959C83.3071 65.533 83.1577 65.4321 83.1003 65.2733C82.9499 64.8567 82.9054 64.3775 82.8327 63.9412C82.7706 63.5689 82.5026 63.1432 82.3316 62.8123C82.0729 62.3116 81.7766 61.8321 81.5207 61.3293C81.1998 60.6987 80.8303 60.0658 80.424 59.4881C80.2909 59.2987 80.204 59.0845 80.0759 58.8924C80.0204 58.8092 79.9385 58.7805 79.8666 58.7134C79.4262 58.3016 78.9378 57.9073 78.4098 57.6187C78.0455 57.4195 77.6784 57.1853 77.3574 56.9245C77.2782 56.8601 77.2706 56.7925 77.1722 56.7434C77.064 56.6892 76.9332 56.6326 76.8322 56.5683C76.0076 56.0436 75.1901 55.5147 74.4778 54.8418C74.1695 54.5505 73.9577 54.4091 73.5683 54.2643C73.1171 54.0964 72.6887 53.9825 72.2241 53.8598C72.1094 53.8295 72.0128 53.7312 71.8941 53.723C71.7604 53.7137 71.6327 53.6896 71.4997 53.6686C70.8874 53.572 70.2721 53.4941 69.6605 53.397C69.2113 53.3256 68.7674 53.2095 68.3143 53.1636C68.0471 53.1365 67.7738 53.1174 67.5054 53.1092C67.1652 53.0989 66.8524 53.0052 66.5173 52.9704C65.8785 52.9041 65.1297 52.8399 64.497 52.9623C64.2714 53.006 64.0535 53.0839 63.829 53.1273C63.6055 53.1706 63.3899 53.1674 63.1669 53.232C62.6279 53.388 62.0448 53.4123 61.5149 53.5942C61.2104 53.6987 60.9487 53.7959 60.6255 53.8497C60.2249 53.9165 59.7606 53.9775 59.3899 54.1496C59.258 54.2108 59.1333 54.2176 58.9915 54.2381C58.6662 54.2851 58.3586 54.4166 58.0317 54.4675C57.7637 54.5092 57.5271 54.5923 57.2529 54.5923" stroke="black" stroke-width="3" stroke-linecap="round"/>
<path d="M57.627 54.3511C57.1311 54.3511 56.6761 54.5695 56.2446 54.7852C56.0628 54.8761 55.8114 54.832 55.6102 54.832C55.3514 54.832 55.2272 55.0724 54.9824 55.0724" stroke="black" stroke-width="3" stroke-linecap="round"/>
<path d="M98.3921 86.6247C98.4531 86.5333 98.0806 86.3126 97.9849 86.2832C97.8903 86.2541 97.8217 86.1172 97.7412 86.0584C97.6696 86.0061 97.6388 85.9349 97.5733 85.876C97.4502 85.7651 97.244 85.6869 97.1033 85.5884C96.9552 85.4847 96.8234 85.3893 96.6844 85.279C96.5941 85.2073 96.5242 85.1163 96.4465 85.0338C96.2875 84.8648 96.095 84.7296 95.9137 84.5871C95.8557 84.5415 95.7641 84.5137 95.6977 84.4835C95.6582 84.4655 95.6171 84.472 95.5751 84.4704C95.5061 84.4677 95.5222 84.4246 95.4759 84.3974C95.2983 84.293 95.0896 84.2864 94.8862 84.2864C94.6954 84.2864 94.5662 84.1366 94.387 84.104C94.1715 84.0648 93.9649 83.9696 93.7389 83.9507C93.3384 83.9174 92.932 83.9712 92.5333 83.9712C92.4199 83.9712 92.3066 83.9712 92.1932 83.9712C92.136 83.9712 91.953 83.9436 91.9042 83.9843C91.861 84.0203 91.7717 84.0073 91.7188 84.0296C91.6559 84.0561 91.5557 84.1439 91.4926 84.1536C91.3256 84.1793 91.1511 84.1219 91.0036 84.2222C90.9174 84.2809 90.7974 84.3337 90.7 84.3711C90.5962 84.4111 90.5542 84.5024 90.4723 84.5492C90.3738 84.6055 90.2819 84.6958 90.195 84.774C90.1689 84.7975 90.1206 84.7836 90.0885 84.8017C89.9988 84.8521 89.9059 84.8925 89.8155 84.9418C89.7401 84.9829 89.6524 85.0274 89.5747 85.0513C89.4602 85.0865 89.3714 85.2208 89.2696 85.2848C89.1386 85.3673 89.0633 85.471 88.9456 85.568C88.7858 85.6996 88.7235 85.895 88.5004 85.9942C88.3121 86.0779 88.3011 86.3187 88.2114 86.4802C88.1608 86.5714 88.0783 86.6409 88.0144 86.724C87.9884 86.7578 87.9336 86.7526 87.9151 86.794C87.8914 86.8474 87.9093 86.8651 87.8684 86.9137C87.7731 87.0269 87.8103 87.2051 87.7254 87.3399C87.6631 87.4389 87.5841 87.5497 87.5663 87.6654C87.5604 87.7035 87.4952 87.9219 87.4743 87.9398C87.3407 88.0544 87.3851 88.3051 87.2933 88.4492C87.2563 88.5074 87.2548 88.6807 87.2525 88.747C87.2483 88.8644 87.2314 88.986 87.1999 89.1002C87.072 89.564 87.0686 90.0497 87.0686 90.5306C87.0686 90.6549 87.0202 90.8315 86.9839 90.9539C86.9575 91.043 86.9635 91.1308 86.9635 91.2239C86.9635 91.3636 86.9635 91.5032 86.9635 91.6428C86.9635 91.8217 86.9912 91.9584 87.0364 92.1303C87.0975 92.3624 87.0752 92.6255 87.1211 92.8631C87.1688 93.1101 87.1709 93.4425 87.3459 93.6425C87.3838 93.6858 87.3687 93.7468 87.4101 93.7841C87.4619 93.8307 87.4822 93.9055 87.5035 93.9694C87.5982 94.2535 87.769 94.4959 87.8699 94.7751C87.9263 94.9313 87.9667 95.1636 88.0932 95.2831C88.1765 95.3617 88.3231 95.4529 88.4231 95.5108C88.544 95.5808 88.6718 95.6967 88.7836 95.7852C89.0376 95.9862 89.2281 96.2299 89.436 96.4756C89.4772 96.5242 89.5128 96.5838 89.563 96.6215C89.6977 96.7225 89.8054 96.8422 89.9177 96.9675C90.0661 97.133 90.1724 97.1096 90.3001 96.9499" stroke="black" stroke-linecap="round"/>
<path d="M90.0898 96.6609C90.0898 96.8384 90.3372 97.0021 90.4839 97.0871C90.7011 97.2128 90.8806 97.3959 91.094 97.5221C91.489 97.7554 91.7525 98.1396 92.0749 98.462C92.1588 98.546 92.33 98.7626 92.4486 98.789C92.5074 98.8021 92.6106 98.8649 92.65 98.9116C92.7727 99.0569 92.9038 99.0996 93.0324 99.221C93.1278 99.3111 93.2572 99.3622 93.3593 99.4458C93.5489 99.6009 93.7567 99.7372 93.9403 99.907C93.9869 99.9502 94.0716 100.028 94.1256 100.052C94.2859 100.121 94.438 100.282 94.5445 100.418C94.6061 100.496 94.7211 100.569 94.8 100.63C94.8758 100.687 95.003 100.779 95.0934 100.812C95.2157 100.856 95.3151 100.989 95.4174 101.067C95.6084 101.214 95.7996 101.406 96.0231 101.502C96.1112 101.541 96.1595 101.577 96.2421 101.626C96.3143 101.67 96.4011 101.692 96.4683 101.743C96.5087 101.774 96.5375 101.825 96.5909 101.835C96.7716 101.868 96.8401 102.054 96.9894 102.139C97.1797 102.246 97.3547 102.354 97.5513 102.453C97.7318 102.543 97.9129 102.655 98.106 102.742C98.248 102.805 98.3969 102.775 98.5482 102.785C98.6914 102.795 98.78 102.888 98.9175 102.888" stroke="black" stroke-linecap="round"/>
<path d="M98.38 99.0855C98.2089 99.0855 97.8811 98.5407 97.7484 98.4081C97.6436 98.3032 97.5668 98.1956 97.4811 98.0745C97.3148 97.8398 97.0204 97.6577 96.8011 97.471C96.5165 97.2285 96.2785 97.0167 95.9964 96.7783C95.532 96.3859 94.9047 96.208 94.4303 95.8284C94.2545 95.6878 94.0036 95.605 93.7962 95.5203C93.458 95.3822 93.0493 95.1678 92.7673 94.9371C92.465 94.6897 92.1835 94.4199 91.876 94.1808C91.6967 94.0413 91.4033 93.7224 91.1605 93.7224C90.9532 93.7224 90.7407 93.6064 90.5773 93.4932C90.4064 93.3749 90.2585 93.2798 90.1291 93.1163C89.9451 92.8839 89.6487 92.8279 89.5128 92.5561C89.3246 92.1796 89.3607 91.7066 89.2938 91.2981C89.2416 90.9792 89.2582 90.6554 89.2582 90.3329C89.2582 89.8628 89.1705 89.3135 89.3728 88.8865C89.4695 88.6822 89.6364 88.519 89.7344 88.3339C89.8343 88.1452 89.9985 88.067 90.0833 87.8551" stroke="black" stroke-width="5" stroke-linecap="round"/>
<path d="M91.5967 91.2013C91.6098 91.0564 91.6926 90.8452 91.8259 90.7785C91.9817 90.7006 92.1465 90.7695 92.2919 90.8422C92.6874 91.0399 93.0942 91.2272 93.4811 91.4406C93.8497 91.644 94.2147 91.8178 94.5965 91.9932C95.1159 92.2319 95.5153 92.6131 95.9717 92.9482C96.2282 93.1366 96.5472 93.3739 96.5472 93.7224" stroke="black" stroke-width="5" stroke-linecap="round"/>
<path d="M98.3347 99.4522C98.2248 99.3301 98.1629 99.1267 98.0903 98.9836C98.0389 98.8823 97.6531 97.9446 97.4816 97.9446C97.3399 97.9446 97.1357 97.9855 97.0156 98.0567C96.8989 98.1258 96.7309 98.0427 96.6107 98.0337C96.1372 97.9987 95.8468 97.7944 95.5182 97.4659C95.4151 97.3627 95.2102 97.2668 95.0802 97.1959C94.8985 97.0968 94.7277 96.976 94.5531 96.8649C94.2255 96.6564 93.8515 96.4663 93.5675 96.1977C93.2212 95.8701 92.7663 95.6767 92.3961 95.3828C92.2448 95.2626 91.9826 95.0878 91.8715 94.9244C91.8317 94.8658 91.7611 94.6687 91.706 94.6443C91.6014 94.5977 91.5011 94.5821 91.459 94.4558" stroke="black" stroke-width="5" stroke-linecap="round"/>
<path d="M99.3425 92.6681C98.8378 92.6681 98.3288 92.6872 97.8248 92.6579C97.4489 92.6361 97.3617 92.5831 97.127 92.3319C96.6537 91.8256 96.3521 91.2936 95.7366 90.9211C95.4703 90.76 95.3179 90.6421 95.0184 90.5391C94.4742 90.3521 93.9133 90.1425 93.4701 89.765C93.2294 89.56 93.0374 89.2867 92.8335 89.0469C92.6673 88.8513 92.6435 88.4427 92.5483 88.2065C92.4411 87.9407 92.4012 87.6277 92.2834 87.3712C92.2303 87.2557 92.1961 87.0829 92.1357 86.9841C92.1056 86.9348 91.8767 86.86 92.044 86.8466C92.1355 86.8393 92.212 86.8008 92.3089 86.8008C92.4244 86.8008 92.6151 86.766 92.7189 86.8237C92.8255 86.883 92.9437 86.8976 93.0576 86.9383C93.1642 86.9764 93.2701 87.0925 93.3632 87.1191C93.539 87.1694 93.6407 87.3453 93.8241 87.4018C94.1168 87.4918 94.3723 87.694 94.6008 87.8602C94.7677 87.9815 94.9526 88.0744 95.1127 88.2039C95.2909 88.3482 95.5409 88.4081 95.7009 88.5681C96.0835 88.9507 96.6836 89.0855 97.1245 89.3906C97.2703 89.4916 97.3765 89.6192 97.509 89.737C97.6718 89.8817 97.8779 89.978 98.0616 90.096C98.6146 90.4515 99.4107 90.4314 100.03 90.4678" stroke="black" stroke-width="5" stroke-linecap="round"/>
<path d="M68.4521 103.42C68.4521 103.689 68.5594 104.03 68.6964 104.255C68.9142 104.614 68.9049 105.042 69.0195 105.453C69.1405 105.887 69.2041 106.34 69.3347 106.769C69.38 106.918 69.4997 107.093 69.516 107.234C69.5708 107.709 69.8491 108.13 69.8706 108.613C69.8939 109.137 70.2035 109.603 70.3513 110.087C70.454 110.423 70.5365 110.755 70.6665 111.08C70.8406 111.515 70.9294 112.028 71.2733 112.372C71.5979 112.697 72.0386 112.895 72.4514 113.093C72.6503 113.189 72.8954 113.257 73.0779 113.381C73.3004 113.532 73.6019 113.613 73.799 113.775C73.9692 113.915 74.1658 113.951 74.3388 114.074C74.5521 114.227 74.7437 114.407 75.0007 114.48C75.3294 114.574 75.5699 115.002 75.903 115.126C76.2348 115.251 76.6927 115.554 76.9314 115.792C77.2562 116.117 77.8885 116.302 78.3184 116.439C78.7197 116.566 79.0466 116.717 79.4689 116.785C79.802 116.839 80.1553 117 80.4736 117.033C80.6916 117.056 80.9137 117.093 81.1316 117.108C81.2973 117.12 81.3318 117.25 81.5335 117.25C82.1357 117.25 82.7317 117.321 83.3381 117.321C84.1735 117.321 85.0088 117.321 85.8441 117.321C86.4141 117.321 86.9841 117.321 87.5541 117.321C87.8161 117.321 87.9921 117.061 88.2397 117.037C88.6245 117.001 88.8862 116.761 89.2169 116.541C89.5919 116.291 90.0864 116.202 90.4226 115.918C90.863 115.547 91.6187 115.609 91.9986 115.138C92.1303 114.975 92.3987 114.844 92.566 114.701C92.7341 114.557 92.9016 114.4 93.031 114.216C93.2712 113.875 93.6034 113.643 93.8821 113.349C93.944 113.284 93.935 113.181 94.0003 113.113C94.1369 112.971 94.3347 112.848 94.4849 112.715C94.7586 112.474 95.0038 112.46 95.0523 112.096C95.0823 111.871 95.1987 111.676 95.2454 111.458C95.3057 111.177 95.3142 110.881 95.4384 110.619C95.6123 110.252 95.985 109.632 96.325 109.413C96.5284 109.282 96.6643 108.923 96.7505 108.708C96.8373 108.491 96.8824 108.252 96.9948 108.046C97.094 107.864 97.2553 107.715 97.31 107.51C97.413 107.124 97.6725 106.791 97.6725 106.367C97.6725 105.951 97.7088 105.505 97.8498 105.111C98.0002 104.689 97.8821 104.282 98.098 103.85C98.3854 103.275 98.3108 102.496 98.3108 101.86" stroke="black" stroke-width="3" stroke-linecap="round"/>
<path d="M90.5853 96.7103C90.5853 96.7822 90.6416 96.792 90.6448 96.8492C90.6498 96.9399 90.6426 96.9352 90.6999 96.9925C90.7648 97.0574 90.6657 97.0476 90.625 97.0476C90.5549 97.0476 90.4795 96.9926 90.4266 96.9473C90.3337 96.8677 90.3824 96.9257 90.4067 96.9804C90.4378 97.0502 90.4946 97.0403 90.5555 97.0674C90.5813 97.0789 90.6944 97.1468 90.6349 97.1468C90.5794 97.1468 90.5183 97.1356 90.4861 97.0873" stroke="black" stroke-linecap="round"/>
<path d="M90.2285 96.8096C90.2635 96.8139 90.2788 96.8611 90.288 96.8889" stroke="black" stroke-linecap="round"/>
<line x1="16.611" y1="111.337" x2="71.669" y2="96.5513" stroke="black" stroke-width="3"/>
<line x1="16.3947" y1="72.5529" x2="71.3947" y2="87.5529" stroke="black" stroke-width="3"/>
<line x1="14.0112" y1="92.5" x2="71.0184" y2="92.9244" stroke="black" stroke-width="3"/>
</g>
<defs>
<clipPath id="clip0_15_1138">
<rect width="90" height="296" fill="white"/>
</clipPath>
</defs>
</svg>
