<svg width="20" height="18" viewBox="0 0 20 18" fill="none" xmlns="http://www.w3.org/2000/svg">
<path d="M1.99989 1L17.9999 17M14.4999 13.7559C13.1473 14.4845 11.6185 14.9999 9.99989 14.9999C6.46924 14.9999 3.36624 12.5478 1.5868 10.7788C1.1171 10.3119 0.882287 10.0784 0.732801 9.62012C0.626192 9.29328 0.626159 8.70657 0.732801 8.37974C0.882333 7.92147 1.11763 7.68745 1.58827 7.21967C2.48515 6.32821 3.71801 5.26359 5.17219 4.42676M17.4999 11.6335C17.8329 11.3405 18.138 11.0523 18.4117 10.7803L18.4146 10.7772C18.8832 10.3114 19.1182 10.0779 19.2674 9.62061C19.374 9.29378 19.3738 8.70684 19.2672 8.38C19.1178 7.92187 18.8827 7.68775 18.4133 7.22111C16.6338 5.45208 13.5305 3 9.99989 3C9.66239 3 9.3288 3.02241 8.99989 3.06448M11.3228 10.5C10.9702 10.8112 10.5071 11 9.99989 11C8.89532 11 7.99989 10.1046 7.99989 9C7.99989 8.4605 8.21351 7.97108 8.56077 7.61133" stroke="#A3A3A3" stroke-linecap="round" stroke-linejoin="round"/>
</svg>
