<svg width="233" height="33" viewBox="0 0 233 33" fill="none" xmlns="http://www.w3.org/2000/svg">
<path d="M140.54 0.510185C135.373 1.46484 132.131 5.38954 131.22 11.7539C130.308 18.6486 132.334 27.4527 135.475 30.1045C141.148 34.7717 152.393 33.6049 156.446 27.983C157.661 26.1798 158.573 22.7855 158.877 18.4365C159.991 4.43488 153.508 -1.92949 140.54 0.510185ZM147.429 9.63245C149.151 11.4357 149.658 21.1944 148.138 23.6341C147.733 24.4826 146.213 24.9069 144.896 24.6948C142.668 24.3766 142.465 23.8462 142.161 17.0575C141.958 11.86 142.262 9.4203 143.174 8.88994C144.998 7.61707 145.605 7.72314 147.429 9.63245Z" fill="#F4F4F4"/>
<path d="M0.603939 2.88349C1.81182 8.74945 1.81182 8.74945 6.54267 8.32283C10.7702 8.00287 10.9716 8.10953 9.15974 9.60268C7.14661 11.2025 7.14661 11.3091 9.26039 21.5479L11.3742 32H17.2123H23.0503L23.6543 27.9472C24.0569 25.8141 24.6608 22.8278 25.0635 21.3346C25.7681 18.9882 25.9694 19.3082 26.5733 23.8943C27.7812 32 27.7812 32 34.1225 32H39.7593L42.8797 16.0019L46 0.00382996H41.7724C36.9409 0.00382996 36.639 0.430447 35.6324 8.53614C35.2298 11.4158 34.6258 13.8688 34.1225 13.8688C33.6193 13.8688 33.2166 13.3356 33.2166 12.6956C33.2166 12.0557 32.512 8.96276 31.6061 5.76314L30.0963 0.00382996H25.6674C20.8359 0.00382996 21.2385 -0.529438 18.5208 10.9892C17.6149 14.9354 16.709 13.6555 15.1991 6.0831L13.9912 0.00382996H6.9453H0L0.603939 2.88349Z" fill="#F4F4F4"/>
<path d="M49.5666 2.34667C48.3521 8.21333 44 30.5067 44 31.1467C44 31.68 46.0242 32 48.5545 32C52.5018 32 53.3115 31.68 54.1212 29.3333C54.8296 27.52 55.8418 26.6667 57.6636 26.6667C59.4854 26.6667 60.2951 27.4133 60.8011 29.3333C61.4084 31.68 61.9144 32 66.3678 32C71.0235 32 71.3271 31.7867 70.8211 29.5467C69.6065 23.7867 65.2544 1.49333 65.2544 0.746666C65.2544 0.32 61.8132 0 57.6636 0C50.68 0 50.0727 0.213333 49.5666 2.34667ZM59.0805 18.3467C59.1817 20.6933 58.7769 21.3333 57.0563 21.3333C55.1333 21.3333 54.9309 20.9067 55.5381 17.28C55.943 15.1467 56.5502 12.3733 56.8539 11.2C57.4611 9.38667 57.6636 9.49333 58.2708 12.2667C58.6757 13.9733 58.9793 16.7467 59.0805 18.3467Z" fill="#F4F4F4"/>
<path d="M70 1.74467C70 2.81376 70.3 4.84504 70.7 6.12795C71.2 8.37304 71.8 8.58686 75.1 8.26613C79.2 7.8385 80.6 9.12141 76.8 9.76287C74.6 10.0836 74.5 10.6181 74.2 20.9883L73.9 32H79H84V26.6545C84 23.6611 84.4 21.3091 84.9 21.3091C85.4 21.3091 86.3 23.6611 87 26.6545L88.2 32H93.6H99L96.9 26.0131C94.9 20.24 94.8 19.7054 96.4 16.9258C98.6 12.9701 98.5 6.12795 96.1 3.02758C94.3 0.675573 93.4 0.461756 82.1 0.141027C70.9 -0.179699 70 -0.0727921 70 1.74467ZM87.5 11.6872C87.5 13.3978 86.9 14.4669 85.8 14.6807C84.4 15.0014 84 14.36 84 11.6872C84 9.0145 84.4 8.37304 85.8 8.69377C86.9 8.90759 87.5 9.97668 87.5 11.6872Z" fill="#F4F4F4"/>
<path d="M101.699 3.39073C101.999 5.29801 102.299 7.31126 102.299 7.84106C102.299 8.47682 104.097 8.68874 106.295 8.47682C110.392 8.05298 111.991 9.3245 108.194 9.96026C106.295 10.2781 106.096 11.0199 105.996 21.1921L105.796 32H110.592H115.288V27.2318C115.288 23.4172 115.588 22.4636 117.086 22.4636C117.986 22.4636 120.483 21.9338 122.582 21.298C127.378 19.9205 129.775 14.9404 128.776 8.68874C127.677 1.80132 125.679 0.741722 112.59 0.423841L101 0L101.699 3.39073ZM119.085 12.0795C118.885 14.4106 118.185 15.6821 117.086 15.894C115.588 16.2119 115.288 15.4702 115.288 12.5033C115.288 9.3245 115.687 8.68874 117.386 8.68874C119.085 8.68874 119.384 9.21854 119.085 12.0795Z" fill="#F4F4F4"/>
<path d="M163 16V32H167.95H173L172.703 21.6533L172.406 11.3067L168.446 10.0267L164.485 8.74667L168.743 8.64L172.901 8.53333V4.26667V0H167.95H163V16Z" fill="#F4F4F4"/>
<path d="M177 16V32H182.018H186.935L187.237 25.8133L187.538 19.7333L190.548 25.8133L193.459 32H199.28H205.1V21.3333V10.7733L201.889 9.70667C198.978 8.85333 199.38 8.74667 205.401 8.64L212.125 8.53333V20.2667V32H217.143H222.161V20.2667V8.53333H225.975C229.588 8.53333 229.989 8.21333 231.495 4.26667L233 0H214.133H195.165L194.864 6.61333L194.563 13.3333L191.251 6.61333L188.039 0H182.52H177V16Z" fill="#F4F4F4"/>
</svg>
